<svg width="154" height="40" viewBox="0 0 154 40" fill="none" xmlns="http://www.w3.org/2000/svg">
<path d="M20 0.5H134C144.77 0.5 153.5 9.23045 153.5 20C153.5 30.7696 144.77 39.5 134 39.5H20C9.23045 39.5 0.5 30.7696 0.5 20C0.5 9.23045 9.23045 0.5 20 0.5Z" fill="#0A1013"/>
<path d="M20 0.5H134C144.77 0.5 153.5 9.23045 153.5 20C153.5 30.7696 144.77 39.5 134 39.5H20C9.23045 39.5 0.5 30.7696 0.5 20C0.5 9.23045 9.23045 0.5 20 0.5Z" fill="url(#paint0_linear_240_103)" fill-opacity="0.2"/>
<path d="M20 0.5H134C144.77 0.5 153.5 9.23045 153.5 20C153.5 30.7696 144.77 39.5 134 39.5H20C9.23045 39.5 0.5 30.7696 0.5 20C0.5 9.23045 9.23045 0.5 20 0.5Z" stroke="black"/>
<path d="M20 0.5H134C144.77 0.5 153.5 9.23045 153.5 20C153.5 30.7696 144.77 39.5 134 39.5H20C9.23045 39.5 0.5 30.7696 0.5 20C0.5 9.23045 9.23045 0.5 20 0.5Z" stroke="url(#paint1_linear_240_103)" stroke-opacity="0.56"/>
<path d="M20 0.5H134C144.77 0.5 153.5 9.23045 153.5 20C153.5 30.7696 144.77 39.5 134 39.5H20C9.23045 39.5 0.5 30.7696 0.5 20C0.5 9.23045 9.23045 0.5 20 0.5Z" stroke="url(#paint2_radial_240_103)" stroke-opacity="0.8"/>
<defs>
<linearGradient id="paint0_linear_240_103" x1="162.953" y1="-11.6667" x2="99.1668" y2="107.326" gradientUnits="userSpaceOnUse">
<stop offset="0.217566" stop-color="white" stop-opacity="0"/>
<stop offset="0.486155" stop-color="white"/>
<stop offset="0.523175" stop-color="white"/>
<stop offset="0.770271" stop-color="white" stop-opacity="0"/>
</linearGradient>
<linearGradient id="paint1_linear_240_103" x1="77" y1="0" x2="77" y2="40" gradientUnits="userSpaceOnUse">
<stop stop-color="white"/>
<stop offset="1" stop-color="white" stop-opacity="0"/>
</linearGradient>
<radialGradient id="paint2_radial_240_103" cx="0" cy="0" r="1" gradientTransform="matrix(37.6047 42.5 -183.015 35.0698 46.5581 -2.5)" gradientUnits="userSpaceOnUse">
<stop stop-color="white"/>
<stop offset="0.189504" stop-color="white" stop-opacity="0"/>
</radialGradient>
</defs>
</svg>
