<svg width="30" height="27" viewBox="0 0 30 27" fill="none" xmlns="http://www.w3.org/2000/svg">
<g clip-path="url(#clip0_1107_2528)">
<g clip-path="url(#clip1_1107_2528)">
<path d="M11.1497 22.6773C11.6346 23.1024 12.1343 23.541 12.6498 23.9966L12.6596 24.0064L14.3722 25.4845C14.5939 25.6769 14.8776 25.7828 15.1711 25.7828C15.4647 25.7828 15.7483 25.6769 15.9701 25.4845L17.6803 24.0064L17.6925 23.9966C21.0812 20.9988 23.6221 18.7047 25.4606 16.4667C27.6082 13.8525 28.6074 11.49 28.6074 9.02969C28.6074 4.57822 25.121 1.0918 20.6695 1.0918C18.6508 1.10531 16.7024 1.83471 15.1711 3.15018C13.6395 1.83454 11.6906 1.10513 9.67154 1.0918C5.22006 1.0918 1.73242 4.57822 1.73242 9.02969C1.73242 14.4096 5.47904 17.6981 11.1497 22.6773ZM10.2823 10.9928H13.5415V7.73481H16.7995V10.9928H20.0575V14.2508H16.7995V17.51H13.5415V14.2508H10.2823V10.994V10.9928Z" fill="#E94E25"/>
</g>
</g>
<defs>
<clipPath id="clip0_1107_2528">
<rect width="29.5625" height="26.875" fill="white"/>
</clipPath>
<clipPath id="clip1_1107_2528">
<rect width="28.0966" height="26.875" fill="white" transform="translate(0.730469)"/>
</clipPath>
</defs>
</svg>
