<svg width="16" height="16" viewBox="0 0 16 16" fill="none" xmlns="http://www.w3.org/2000/svg">
<g clip-path="url(#clip0_462_925)">
<g clip-path="url(#clip1_462_925)">
<g clip-path="url(#clip2_462_925)">
<mask id="mask0_462_925" style="mask-type:luminance" maskUnits="userSpaceOnUse" x="1" y="1" width="15" height="15">
<path d="M15.5283 1.28516H1.52832V15.2852H15.5283V1.28516Z" fill="white"/>
</mask>
<g mask="url(#mask0_462_925)">
<path d="M8.26794 15.0826L8.27335 15.0837C8.292 15.0863 8.3104 15.089 8.3286 15.0917C8.45342 15.1098 8.56845 15.1266 8.68345 15.1266C8.96754 15.1266 9.2297 15.0609 9.49066 14.9304L9.4917 14.9299L13.818 12.6395C13.8178 12.6396 13.8182 12.6394 13.818 12.6395C14.2222 12.4371 14.4028 11.9861 14.2456 11.5593L14.2451 11.558C14.066 11.1103 13.5727 10.8628 13.101 11.0201L13.0999 11.0205L9.98165 12.1447L9.98004 12.1453C9.85168 12.1967 9.77094 12.3512 9.82491 12.4861C9.87614 12.6142 10.0301 12.6948 10.1648 12.6415L13.281 11.5181C13.4687 11.4624 13.6744 11.5567 13.7492 11.7437C13.7874 11.8391 13.7864 11.9266 13.7571 12.0011C13.7276 12.0759 13.6678 12.1418 13.581 12.1902L9.23305 14.4595C8.96999 14.6012 8.68533 14.6227 8.39792 14.5612L5.66328 13.8617C5.66315 13.8617 5.66341 13.8617 5.66328 13.8617C5.18704 13.7319 4.68937 13.7535 4.25697 13.8833L4.25552 13.8837C4.1062 13.9335 4.02211 14.0872 4.07588 14.2241C4.12602 14.3722 4.27865 14.4556 4.41484 14.4027C4.76702 14.2995 5.15995 14.2792 5.55255 14.3825L8.26794 15.0826Z" fill="white"/>
<path d="M13.818 12.6395L9.4917 14.9299L9.49066 14.9304C9.2297 15.0609 8.96754 15.1266 8.68345 15.1266C8.56845 15.1266 8.45342 15.1098 8.3286 15.0917C8.3104 15.089 8.292 15.0863 8.27335 15.0837L8.26794 15.0826L5.55255 14.3825C5.15995 14.2792 4.76702 14.2995 4.41484 14.4027C4.27865 14.4556 4.12602 14.3722 4.07588 14.2241C4.02211 14.0872 4.1062 13.9335 4.25552 13.8837L4.25697 13.8833C4.68937 13.7535 5.18704 13.7319 5.66328 13.8617M13.818 12.6395C13.8182 12.6394 13.8178 12.6396 13.818 12.6395ZM13.818 12.6395C14.2222 12.4371 14.4028 11.9861 14.2456 11.5593L14.2451 11.558C14.066 11.1103 13.5727 10.8628 13.101 11.0201L13.0999 11.0205L9.98165 12.1447L9.98004 12.1453C9.85168 12.1967 9.77094 12.3512 9.82491 12.4861C9.87614 12.6142 10.0301 12.6948 10.1648 12.6415L13.281 11.5181C13.4687 11.4624 13.6744 11.5567 13.7492 11.7437C13.7874 11.8391 13.7864 11.9266 13.7571 12.0011C13.7276 12.0759 13.6678 12.1418 13.581 12.1902L9.23305 14.4595C8.96999 14.6012 8.68533 14.6227 8.39792 14.5612L5.66328 13.8617M5.66328 13.8617C5.66315 13.8617 5.66341 13.8617 5.66328 13.8617Z" stroke="white" stroke-width="0.1"/>
<path d="M10.0168 12.7689L7.49339 12.7265C7.49325 12.7265 7.49354 12.7265 7.49339 12.7265V12.6765C7.36612 12.6765 7.28127 12.5704 7.28127 12.4644C7.28127 12.3583 7.38733 12.2523 7.49339 12.2523L10.0168 12.7689ZM10.0168 12.7689C10.0545 12.7689 10.0889 12.7626 10.1201 12.7487C10.1512 12.7349 10.1773 12.7148 10.2015 12.6906C10.2256 12.6665 10.2458 12.6403 10.2595 12.6093C10.2734 12.5781 10.2798 12.5445 10.2798 12.5068C10.2798 12.2684 10.2366 12.0713 10.1705 11.9163C9.95094 11.2605 9.33877 10.8241 8.66167 10.8023L7.49592 10.7811C7.23683 10.7597 6.93541 10.7813 6.63381 10.8671L4.28193 11.2696L4.28056 11.2699C4.21158 11.2837 4.15351 11.3307 4.11619 11.3866C4.07886 11.4426 4.05784 11.5143 4.07164 11.5833C4.08543 11.6523 4.1324 11.7103 4.18839 11.7476C4.24416 11.7848 4.31551 11.8058 4.38425 11.7923L6.75933 11.3894L6.76567 11.3879C7.03582 11.3048 7.26245 11.2846 7.46721 11.305L7.47127 11.3053L8.6373 11.3265C9.10403 11.347 9.51073 11.6515 9.67368 12.0996L9.6723 12.1001L9.67906 12.1103C9.69566 12.1352 9.70449 12.1606 9.71172 12.1919C9.71487 12.2056 9.71757 12.2196 9.7206 12.2354C9.72111 12.2381 9.72163 12.2408 9.72216 12.2435L10.0168 12.7689Z" fill="white"/>
<path d="M10.0168 12.7689L7.49339 12.7265M10.0168 12.7689L7.49339 12.2523C7.38733 12.2523 7.28127 12.3583 7.28127 12.4644C7.28127 12.5704 7.36612 12.6765 7.49339 12.6765V12.7265M10.0168 12.7689C10.0545 12.7689 10.0889 12.7626 10.1201 12.7487C10.1512 12.7349 10.1773 12.7148 10.2015 12.6906C10.2256 12.6665 10.2458 12.6403 10.2595 12.6093C10.2734 12.5781 10.2798 12.5445 10.2798 12.5068C10.2798 12.2684 10.2366 12.0713 10.1705 11.9163C9.95094 11.2605 9.33877 10.8241 8.66167 10.8023L7.49592 10.7811C7.23683 10.7597 6.93541 10.7813 6.63381 10.8671L4.28193 11.2696L4.28056 11.2699C4.21158 11.2837 4.15351 11.3307 4.11619 11.3866C4.07886 11.4426 4.05784 11.5143 4.07164 11.5833C4.08543 11.6523 4.1324 11.7103 4.18839 11.7476C4.24416 11.7848 4.31551 11.8058 4.38425 11.7923L6.75933 11.3894L6.76567 11.3879C7.03582 11.3048 7.26245 11.2846 7.46721 11.305L7.47127 11.3053L8.6373 11.3265C9.10403 11.347 9.51073 11.6515 9.67368 12.0996L9.6723 12.1001L9.67906 12.1103C9.69566 12.1352 9.70449 12.1606 9.71172 12.1919C9.71487 12.2056 9.71757 12.2196 9.7206 12.2354C9.72111 12.2381 9.72163 12.2408 9.72216 12.2435L10.0168 12.7689ZM7.49339 12.7265C7.49325 12.7265 7.49354 12.7265 7.49339 12.7265Z" stroke="white" stroke-width="0.1"/>
<path d="M11.4307 10.2023L11.4343 10.2029L11.4358 10.2031C11.6045 10.2242 11.7768 10.2457 11.9496 10.2457C12.1236 10.2457 12.276 10.2239 12.4485 10.1809C12.5758 10.1547 12.6837 10.0266 12.6562 9.88894L12.656 9.8879C12.6279 9.76147 12.651 9.69131 12.6693 9.65888C12.6824 9.66414 12.6995 9.67232 12.719 9.68421C12.7615 9.71019 12.8146 9.75345 12.8634 9.82175L12.8641 9.82268C12.9027 9.87417 12.9601 9.91243 13.0213 9.92854C13.082 9.94451 13.1506 9.93946 13.2074 9.89814C13.469 9.74497 13.7065 9.50633 13.9208 9.18514C14.0007 9.07713 13.9729 8.91964 13.8675 8.84056L13.8665 8.83988C13.7956 8.78919 13.747 8.73995 13.7192 8.70059C13.7052 8.68079 13.6977 8.66512 13.6944 8.65432C13.6933 8.65074 13.6929 8.64826 13.6927 8.64671C13.6944 8.64487 13.6979 8.6417 13.7043 8.63774C13.7147 8.63129 13.7305 8.62437 13.7521 8.61869C13.7949 8.60743 13.8567 8.6021 13.9356 8.61179C14.073 8.63802 14.2004 8.52976 14.2259 8.40249C14.2906 8.05721 14.2908 7.71076 14.2259 7.38591C14.2003 7.25804 14.0718 7.14936 13.9337 7.17699L13.9327 7.17721C13.8062 7.2053 13.7361 7.18215 13.7036 7.16391C13.7089 7.15074 13.7171 7.13367 13.729 7.11421C13.755 7.0717 13.7982 7.01852 13.8665 6.96973L13.8675 6.96905C13.9189 6.93043 13.9572 6.87307 13.9733 6.81185C13.9893 6.75114 13.9842 6.6826 13.9429 6.62576C13.7896 6.3639 13.5506 6.12618 13.2288 5.91169L13.2268 5.91042C13.0949 5.83128 12.9403 5.88539 12.8641 5.98693L12.8634 5.98786C12.8135 6.05784 12.7653 6.10015 12.7276 6.12231C12.7087 6.13343 12.6936 6.13881 12.6831 6.1408C12.6771 6.14193 12.6736 6.14181 12.6721 6.14165L12.6654 6.13919C12.6588 6.137 12.6441 6.12742 12.6349 6.08352C12.626 6.04126 12.6252 5.97918 12.6353 5.89753C12.6616 5.76014 12.5533 5.63275 12.426 5.60729C12.0807 5.54255 11.7343 5.54232 11.4095 5.60729C11.2816 5.63286 11.1729 5.76134 11.2005 5.89946L11.2008 5.9005C11.2289 6.02693 11.2057 6.09709 11.1875 6.12952C11.1743 6.12426 11.1572 6.11608 11.1378 6.10419C11.0953 6.07821 11.0421 6.03495 10.9933 5.96665L10.9926 5.96571C10.954 5.91422 10.8966 5.87597 10.8354 5.85986C10.7747 5.84389 10.7062 5.84894 10.6493 5.89026C10.3874 6.0436 10.1497 6.2826 9.9352 6.60434L9.93393 6.60635C9.8548 6.73824 9.9089 6.89289 10.0104 6.96905L10.0114 6.96973C10.0814 7.01971 10.1237 7.06785 10.1458 7.10553C10.1569 7.12443 10.1623 7.13955 10.1643 7.15011C10.1654 7.15605 10.1653 7.15953 10.1652 7.1611L10.1627 7.16778C10.1605 7.17434 10.1509 7.18906 10.107 7.1983C10.0648 7.2072 10.0027 7.20792 9.92105 7.19782C9.78366 7.17158 9.65626 7.27985 9.6308 7.40712C9.56606 7.7524 9.56584 8.09885 9.63081 8.4237C9.65638 8.55157 9.78485 8.66025 9.92297 8.63262L9.92402 8.6324C10.0504 8.60431 10.1206 8.62746 10.153 8.64569C10.1478 8.65886 10.1396 8.67593 10.1277 8.6954C10.1017 8.73791 10.0585 8.79109 9.99017 8.83988L9.98923 8.84056C9.93774 8.87918 9.89949 8.93654 9.88338 8.99776C9.8674 9.05847 9.87246 9.12701 9.91377 9.18385C10.0671 9.44571 10.3061 9.68343 10.6279 9.89792L10.6299 9.8992C10.7618 9.97833 10.9164 9.92422 10.9926 9.82268L10.9933 9.82175C11.0433 9.75177 11.0914 9.70946 11.1291 9.6873C11.148 9.67618 11.1631 9.6708 11.1737 9.66881C11.1796 9.66768 11.1831 9.6678 11.1847 9.66796L11.1913 9.67042C11.1979 9.67261 11.2126 9.68219 11.2219 9.72609C11.2308 9.76835 11.2315 9.83042 11.2214 9.91207C11.1951 10.0495 11.3034 10.1769 11.4307 10.2023ZM3.04044 14.9124H4.33438C4.40938 14.9124 4.47576 14.8871 4.52352 14.8394C4.57128 14.7916 4.5965 14.7252 4.5965 14.6502V11.023C4.5965 10.948 4.57128 10.8816 4.52352 10.8338C4.47576 10.7861 4.40938 10.7608 4.33438 10.7608H3.04044C2.96544 10.7608 2.89906 10.7861 2.8513 10.8338C2.80354 10.8816 2.77832 10.948 2.77832 11.023V14.6502C2.77832 14.7252 2.80354 14.7916 2.8513 14.8394C2.89906 14.8871 2.96544 14.9124 3.04044 14.9124ZM4.07226 11.2851V14.3881H3.30256V11.2851H4.07226ZM12.4808 9.17427C12.2801 9.26346 12.148 9.47602 12.1341 9.72729C12.0139 9.74085 11.8822 9.74074 11.7622 9.72697C11.7314 9.46271 11.6021 9.24242 11.3917 9.19327C11.1706 9.10658 10.9332 9.16749 10.7385 9.34371C10.6416 9.26037 10.5584 9.17746 10.4889 9.09503C10.6663 8.89743 10.7281 8.63937 10.6377 8.43601C10.5485 8.23534 10.3359 8.10326 10.0846 8.08936C10.0711 7.96915 10.0712 7.83757 10.0849 7.71753C10.3513 7.68821 10.5485 7.57544 10.6384 7.35065C10.7273 7.12854 10.6667 6.8895 10.4894 6.69376C10.5733 6.59624 10.6567 6.51271 10.7396 6.44292C10.9519 6.61984 11.1918 6.68419 11.3972 6.59292C11.5978 6.50373 11.7299 6.29116 11.7438 6.03989C11.864 6.02634 11.9956 6.02645 12.1156 6.0402C12.145 6.30656 12.2577 6.50374 12.4825 6.59365C12.7046 6.6825 12.9437 6.6219 13.1394 6.44469C13.2369 6.52852 13.3205 6.61193 13.3902 6.69485C13.2133 6.90718 13.149 7.14704 13.2402 7.35238C13.3294 7.55308 13.542 7.68516 13.7933 7.69905C13.807 7.81741 13.8067 7.93749 13.7924 8.07126C13.5454 8.10101 13.3299 8.21285 13.2399 8.43688C13.1498 8.64056 13.2124 8.87892 13.3885 9.07342C13.3046 9.17095 13.2212 9.25448 13.1383 9.32426C12.926 9.14735 12.6861 9.083 12.4808 9.17427Z" fill="white" stroke="white" stroke-width="0.1"/>
<path d="M11.9261 9.08105L11.9278 9.08099C12.5695 9.05886 13.0791 8.52804 13.0791 7.90678C13.0791 7.26339 12.5682 6.75375 11.9049 6.75372L11.9032 6.75378C11.2615 6.7759 10.7518 7.30673 10.7518 7.92799L10.7519 7.92971C10.774 8.57141 11.3048 9.08102 11.9261 9.08105ZM11.9246 8.55677C11.5933 8.55591 11.2966 8.26134 11.2761 7.92653C11.277 7.59518 11.5715 7.2985 11.9063 7.27799C12.282 7.27871 12.5549 7.55404 12.5549 7.90678C12.5549 8.23871 12.2599 8.53623 11.9246 8.55677ZM2.75488 7.90678C2.75488 9.22833 3.81666 10.2901 5.13822 10.2901C6.45977 10.2901 7.52155 9.22833 7.52155 7.90678C7.52155 6.58522 6.45977 5.52344 5.13822 5.52344C3.81666 5.52344 2.75488 6.58522 2.75488 7.90678ZM3.27913 7.90678C3.27913 6.87379 4.10523 6.04769 5.13822 6.04769C6.17121 6.04769 6.99731 6.87379 6.99731 7.90678C6.99731 8.93977 6.17121 9.76587 5.13822 9.76587C4.10523 9.76587 3.27913 8.93977 3.27913 7.90678Z" fill="white" stroke="white" stroke-width="0.1"/>
<path d="M4.3252 7.37391C4.3252 7.82577 4.68698 8.18754 5.13883 8.18754C5.21383 8.18754 5.28022 8.16233 5.32798 8.11457C5.37574 8.06681 5.40096 8.00042 5.40096 7.92542C5.40096 7.85042 5.37574 7.78404 5.32798 7.73628C5.28022 7.68852 5.21383 7.6633 5.13883 7.6633C4.97554 7.6633 4.84944 7.5372 4.84944 7.37391C4.84944 7.29324 4.88548 7.21507 4.94157 7.15664C4.99791 7.09795 5.0704 7.0633 5.13883 7.0633C5.30213 7.0633 5.42823 7.1894 5.42823 7.3527C5.42823 7.4277 5.45345 7.49408 5.50121 7.54184C5.54897 7.5896 5.61535 7.61482 5.69035 7.61482C5.76535 7.61482 5.83173 7.5896 5.87949 7.54184C5.92725 7.49408 5.95247 7.4277 5.95247 7.3527C5.95247 6.90084 5.59069 6.53906 5.13883 6.53906C4.70731 6.53906 4.3252 6.92294 4.3252 7.37391Z" fill="white" stroke="white" stroke-width="0.1"/>
<path d="M4.3252 8.47813C4.3252 8.92999 4.68698 9.29177 5.13883 9.29177C5.59069 9.29177 5.95247 8.92999 5.95247 8.47813C5.95247 8.02628 5.59069 7.66449 5.13883 7.66449C5.06384 7.66449 4.99745 7.68971 4.94969 7.73747C4.90193 7.78523 4.87671 7.85162 4.87671 7.92662C4.87671 8.00162 4.90193 8.068 4.94969 8.11576C4.99745 8.16352 5.06384 8.18874 5.13883 8.18874C5.30213 8.18874 5.42823 8.31484 5.42823 8.47813C5.42823 8.64143 5.30213 8.76753 5.13883 8.76753C4.97554 8.76753 4.84944 8.64143 4.84944 8.47813C4.84944 8.40313 4.82422 8.33675 4.77646 8.28899C4.7287 8.24123 4.66232 8.21601 4.58732 8.21601C4.51232 8.21601 4.44594 8.24123 4.39818 8.28899C4.35042 8.33675 4.3252 8.40313 4.3252 8.47813ZM4.87671 6.80237C4.87671 6.87737 4.90193 6.94376 4.94969 6.99152C4.99745 7.03928 5.06384 7.0645 5.13883 7.0645C5.21383 7.0645 5.28022 7.03928 5.32798 6.99152C5.37574 6.94376 5.40096 6.87737 5.40096 6.80237V6.59025C5.40096 6.51525 5.37574 6.44887 5.32798 6.40111C5.28022 6.35335 5.21383 6.32812 5.13883 6.32812C5.06384 6.32812 4.99745 6.35335 4.94969 6.40111C4.90193 6.44887 4.87671 6.51525 4.87671 6.59025V6.80237Z" fill="white" stroke="white" stroke-width="0.1"/>
<path d="M4.87988 9.24164C4.87988 9.31664 4.9051 9.38303 4.95286 9.43079C5.00062 9.47855 5.067 9.50377 5.142 9.50377C5.217 9.50377 5.28338 9.47855 5.33114 9.43079C5.3789 9.38303 5.40412 9.31664 5.40412 9.24164V9.02952C5.40412 8.95452 5.3789 8.88814 5.33114 8.84038C5.28338 8.79262 5.217 8.7674 5.142 8.7674C5.067 8.7674 5.00062 8.79262 4.95286 8.84038C4.9051 8.88814 4.87988 8.95452 4.87988 9.02952V9.24164ZM6.15261 3.83255C6.15261 5.15411 7.21439 6.21589 8.53594 6.21589C9.85749 6.21589 10.9193 5.15411 10.9193 3.83255C10.9193 2.511 9.85749 1.44922 8.53594 1.44922C7.21439 1.44922 6.15261 2.511 6.15261 3.83255ZM6.67685 3.83255C6.67685 2.79956 7.50295 1.97346 8.53594 1.97346C9.56893 1.97346 10.395 2.79956 10.395 3.83255C10.395 4.86554 9.56893 5.69164 8.53594 5.69164C7.50295 5.69164 6.67685 4.86554 6.67685 3.83255Z" fill="white" stroke="white" stroke-width="0.1"/>
<path d="M7.40332 3.57713C7.40332 3.87643 7.53021 4.20533 7.73237 4.4594C7.93441 4.7133 8.21788 4.89986 8.53513 4.89986C8.86215 4.89986 9.14579 4.71948 9.34589 4.4673C9.54591 4.21522 9.66695 3.88625 9.66695 3.57713C9.66695 2.93436 9.1779 2.44531 8.53513 2.44531C7.91358 2.44531 7.40332 2.95557 7.40332 3.57713ZM7.92756 3.57713C7.92756 3.24414 8.20214 2.96955 8.53513 2.96955C8.86813 2.96955 9.14271 3.24414 9.14271 3.57713C9.14271 3.7555 9.06779 3.95741 8.95104 4.11476C8.83342 4.27329 8.68207 4.37561 8.53513 4.37561C8.38901 4.37561 8.23764 4.26898 8.11946 4.10711C8.00226 3.9466 7.92756 3.74457 7.92756 3.57713Z" fill="white" stroke="white" stroke-width="0.1"/>
<path d="M9.62955 5.76437L9.63147 5.76539C9.65593 5.77762 9.67664 5.78488 9.69864 5.78854C9.71868 5.79189 9.73826 5.79188 9.7578 5.79188H9.75989C9.86413 5.79188 9.9423 5.73871 9.9924 5.66355L9.99367 5.66154C10.0737 5.52813 10.0176 5.37151 9.89168 5.29597L9.89023 5.29514L9.31751 4.97696L9.31558 4.97594C9.25002 4.94316 9.21595 4.87723 9.21595 4.80854V4.49036C9.21595 4.41536 9.19073 4.34898 9.14297 4.30122C9.09521 4.25346 9.02883 4.22824 8.95383 4.22824C8.87883 4.22824 8.81245 4.25346 8.76469 4.30122C8.71693 4.34898 8.69171 4.41536 8.69171 4.49036V4.80854C8.69171 5.08138 8.82883 5.30943 9.05538 5.44536L9.05682 5.44619L9.62955 5.76437ZM7.0655 5.64033L7.06677 5.64234C7.11688 5.7175 7.19504 5.77066 7.29928 5.77066C7.30133 5.77066 7.30339 5.77067 7.30546 5.77068C7.34037 5.77079 7.37909 5.77091 7.41379 5.74017L7.78928 5.53157L8.00043 5.42599L8.0038 5.42415C8.23034 5.28822 8.36747 5.06017 8.36747 4.78733V4.46915C8.36747 4.39415 8.34225 4.32777 8.29449 4.28001C8.24673 4.23225 8.18034 4.20703 8.10534 4.20703C8.03035 4.20703 7.96396 4.23225 7.9162 4.28001C7.86844 4.32777 7.84322 4.39415 7.84322 4.46915V4.78733C7.84322 4.85672 7.80836 4.92409 7.76126 4.9566L7.16961 5.27356L7.1675 5.27476C7.0416 5.3503 6.98546 5.50692 7.0655 5.64033Z" fill="white" stroke="white" stroke-width="0.1"/>
<path d="M6.15332 3.83255C6.15332 5.15411 7.2151 6.21589 8.53665 6.21589C9.8582 6.21589 10.92 5.15411 10.92 3.83255C10.92 2.511 9.8582 1.44922 8.53665 1.44922C7.2151 1.44922 6.15332 2.511 6.15332 3.83255ZM6.67756 3.83255C6.67756 2.79956 7.50366 1.97346 8.53665 1.97346C9.56964 1.97346 10.3957 2.79956 10.3957 3.83255C10.3957 4.86554 9.56964 5.69164 8.53665 5.69164C7.50366 5.69164 6.67756 4.86554 6.67756 3.83255Z" fill="white" stroke="white" stroke-width="0.1"/>
<path d="M7.40332 3.57713C7.40332 3.87643 7.53021 4.20533 7.73237 4.4594C7.93441 4.7133 8.21788 4.89986 8.53513 4.89986C8.86215 4.89986 9.14579 4.71948 9.34589 4.4673C9.54591 4.21522 9.66695 3.88625 9.66695 3.57713C9.66695 2.93436 9.1779 2.44531 8.53513 2.44531C7.91358 2.44531 7.40332 2.95557 7.40332 3.57713ZM7.92756 3.57713C7.92756 3.24414 8.20214 2.96955 8.53513 2.96955C8.86813 2.96955 9.14271 3.24414 9.14271 3.57713C9.14271 3.7555 9.06779 3.95741 8.95104 4.11476C8.83342 4.27329 8.68207 4.37561 8.53513 4.37561C8.38901 4.37561 8.23764 4.26898 8.11946 4.10711C8.00226 3.9466 7.92756 3.74457 7.92756 3.57713Z" fill="white" stroke="white" stroke-width="0.1"/>
<path d="M9.63493 5.76437L9.63685 5.76539C9.66131 5.77762 9.68202 5.78488 9.70402 5.78854C9.72407 5.79189 9.74365 5.79188 9.76318 5.79188H9.76527C9.86952 5.79188 9.94768 5.73871 9.99778 5.66355L9.99906 5.66154C10.0791 5.52813 10.023 5.37151 9.89706 5.29597L9.89562 5.29514L9.32289 4.97696L9.32097 4.97594C9.2554 4.94316 9.22133 4.87723 9.22133 4.80854V4.49036C9.22133 4.41536 9.19612 4.34898 9.14836 4.30122C9.1006 4.25346 9.03421 4.22824 8.95921 4.22824C8.88421 4.22824 8.81783 4.25346 8.77007 4.30122C8.72231 4.34898 8.69709 4.41536 8.69709 4.49036V4.80854C8.69709 5.08138 8.83421 5.30943 9.06076 5.44536L9.0622 5.44619L9.63493 5.76437ZM7.07088 5.64033L7.07215 5.64234C7.12226 5.7175 7.20042 5.77066 7.30467 5.77066C7.30671 5.77066 7.30877 5.77067 7.31084 5.77068C7.34575 5.77079 7.38448 5.77091 7.41918 5.74017L7.79467 5.53157L8.00581 5.42599L8.00918 5.42415C8.23572 5.28822 8.37285 5.06017 8.37285 4.78733V4.46915C8.37285 4.39415 8.34763 4.32777 8.29987 4.28001C8.25211 4.23225 8.18573 4.20703 8.11073 4.20703C8.03573 4.20703 7.96934 4.23225 7.92158 4.28001C7.87382 4.32777 7.84861 4.39415 7.84861 4.46915V4.78733C7.84861 4.85672 7.81375 4.92409 7.76665 4.9566L7.17499 5.27356L7.17288 5.27476C7.04699 5.3503 6.99084 5.50692 7.07088 5.64033ZM8.26794 15.0813L8.27335 15.0823C8.29199 15.085 8.3104 15.0877 8.32859 15.0903C8.45341 15.1085 8.56845 15.1253 8.68345 15.1253C8.96754 15.1253 9.2297 15.0596 9.49066 14.9291L9.4917 14.9285L13.818 12.6382C13.8178 12.6383 13.8182 12.6381 13.818 12.6382C14.2222 12.4358 14.4028 11.9848 14.2456 11.558L14.2451 11.5567C14.066 11.109 13.5727 10.8615 13.101 11.0187L13.0999 11.0191L9.98165 12.1434L9.98004 12.144C9.85168 12.1953 9.77094 12.3498 9.82491 12.4847C9.87614 12.6128 10.0301 12.6935 10.1648 12.6402L13.281 11.5167C13.4687 11.4611 13.6744 11.5553 13.7492 11.7423C13.7874 11.8377 13.7864 11.9252 13.7571 11.9997C13.7276 12.0745 13.6678 12.1404 13.581 12.1888L9.23304 14.4582C8.96998 14.5999 8.68532 14.6213 8.39791 14.5599L5.66328 13.8604C5.66314 13.8603 5.66341 13.8605 5.66328 13.8604C5.18704 13.7307 4.68937 13.7522 4.25697 13.8819L4.25552 13.8824C4.1062 13.9321 4.02211 14.0859 4.07588 14.2227C4.12602 14.3709 4.27865 14.4542 4.41484 14.4014C4.76702 14.2982 5.15995 14.2779 5.55255 14.3812L8.26794 15.0813Z" fill="white"/>
<path d="M13.818 12.6382L9.4917 14.9285L9.49066 14.9291C9.2297 15.0596 8.96754 15.1253 8.68345 15.1253C8.56845 15.1253 8.45341 15.1085 8.32859 15.0903C8.3104 15.0877 8.29199 15.085 8.27335 15.0823L8.26794 15.0813L5.55255 14.3812C5.15995 14.2779 4.76702 14.2982 4.41484 14.4014C4.27865 14.4542 4.12602 14.3709 4.07588 14.2227C4.02211 14.0859 4.1062 13.9321 4.25552 13.8824L4.25697 13.8819C4.68937 13.7522 5.18704 13.7307 5.66328 13.8604M13.818 12.6382C13.8182 12.6381 13.8178 12.6383 13.818 12.6382ZM13.818 12.6382C14.2222 12.4358 14.4028 11.9848 14.2456 11.558L14.2451 11.5567C14.066 11.109 13.5727 10.8615 13.101 11.0187L13.0999 11.0191L9.98165 12.1434L9.98004 12.144C9.85168 12.1953 9.77094 12.3498 9.82491 12.4847C9.87614 12.6128 10.0301 12.6935 10.1648 12.6402L13.281 11.5167C13.4687 11.4611 13.6744 11.5553 13.7492 11.7423C13.7874 11.8377 13.7864 11.9252 13.7571 11.9997C13.7276 12.0745 13.6678 12.1404 13.581 12.1888L9.23304 14.4582C8.96998 14.5999 8.68532 14.6213 8.39791 14.5599L5.66328 13.8604M5.66328 13.8604C5.66314 13.8603 5.66341 13.8605 5.66328 13.8604ZM9.63493 5.76437L9.63685 5.76539C9.66131 5.77762 9.68202 5.78488 9.70402 5.78854C9.72407 5.79189 9.74365 5.79188 9.76318 5.79188H9.76527C9.86952 5.79188 9.94768 5.73871 9.99778 5.66355L9.99906 5.66154C10.0791 5.52813 10.023 5.37151 9.89706 5.29597L9.89562 5.29514L9.32289 4.97696L9.32097 4.97594C9.2554 4.94316 9.22133 4.87723 9.22133 4.80854V4.49036C9.22133 4.41536 9.19612 4.34898 9.14836 4.30122C9.1006 4.25346 9.03421 4.22824 8.95921 4.22824C8.88421 4.22824 8.81783 4.25346 8.77007 4.30122C8.72231 4.34898 8.69709 4.41536 8.69709 4.49036V4.80854C8.69709 5.08138 8.83421 5.30943 9.06076 5.44536L9.0622 5.44619L9.63493 5.76437ZM7.07088 5.64033L7.07215 5.64234C7.12226 5.7175 7.20042 5.77066 7.30467 5.77066C7.30671 5.77066 7.30877 5.77067 7.31084 5.77068C7.34575 5.77079 7.38448 5.77091 7.41918 5.74017L7.79467 5.53157L8.00581 5.42599L8.00918 5.42415C8.23572 5.28822 8.37285 5.06017 8.37285 4.78733V4.46915C8.37285 4.39415 8.34763 4.32777 8.29987 4.28001C8.25211 4.23225 8.18573 4.20703 8.11073 4.20703C8.03573 4.20703 7.96934 4.23225 7.92158 4.28001C7.87382 4.32777 7.84861 4.39415 7.84861 4.46915V4.78733C7.84861 4.85672 7.81375 4.92409 7.76665 4.9566L7.17499 5.27356L7.17288 5.27476C7.04699 5.3503 6.99084 5.50692 7.07088 5.64033Z" stroke="white" stroke-width="0.1"/>
<path d="M10.0168 12.7689L7.49339 12.7265C7.49325 12.7265 7.49354 12.7265 7.49339 12.7265V12.6765C7.36612 12.6765 7.28127 12.5704 7.28127 12.4644C7.28127 12.3583 7.38733 12.2523 7.49339 12.2523L10.0168 12.7689ZM10.0168 12.7689C10.0545 12.7689 10.0889 12.7626 10.1201 12.7487C10.1512 12.7349 10.1773 12.7148 10.2015 12.6906C10.2256 12.6665 10.2458 12.6403 10.2595 12.6093C10.2734 12.5781 10.2798 12.5445 10.2798 12.5068C10.2798 12.2684 10.2366 12.0713 10.1705 11.9163C9.95094 11.2605 9.33877 10.8241 8.66167 10.8023L7.49592 10.7811C7.23683 10.7597 6.93541 10.7813 6.63381 10.8671L4.28193 11.2696L4.28056 11.2699C4.21158 11.2837 4.15351 11.3307 4.11619 11.3866C4.07886 11.4426 4.05784 11.5143 4.07164 11.5833C4.08543 11.6523 4.1324 11.7103 4.18839 11.7476C4.24416 11.7848 4.31551 11.8058 4.38425 11.7923L6.75933 11.3894L6.76567 11.3879C7.03582 11.3048 7.26245 11.2846 7.46721 11.305L7.47127 11.3053L8.6373 11.3265C9.10403 11.347 9.51073 11.6515 9.67368 12.0996L9.6723 12.1001L9.67906 12.1103C9.69566 12.1352 9.70449 12.1606 9.71172 12.1919C9.71487 12.2056 9.71757 12.2196 9.7206 12.2354C9.72111 12.2381 9.72163 12.2408 9.72216 12.2435L10.0168 12.7689Z" fill="white"/>
<path d="M10.0168 12.7689L7.49339 12.7265M10.0168 12.7689L7.49339 12.2523C7.38733 12.2523 7.28127 12.3583 7.28127 12.4644C7.28127 12.5704 7.36612 12.6765 7.49339 12.6765V12.7265M10.0168 12.7689C10.0545 12.7689 10.0889 12.7626 10.1201 12.7487C10.1512 12.7349 10.1773 12.7148 10.2015 12.6906C10.2256 12.6665 10.2458 12.6403 10.2595 12.6093C10.2734 12.5781 10.2798 12.5445 10.2798 12.5068C10.2798 12.2684 10.2366 12.0713 10.1705 11.9163C9.95094 11.2605 9.33877 10.8241 8.66167 10.8023L7.49592 10.7811C7.23683 10.7597 6.93541 10.7813 6.63381 10.8671L4.28193 11.2696L4.28056 11.2699C4.21158 11.2837 4.15351 11.3307 4.11619 11.3866C4.07886 11.4426 4.05784 11.5143 4.07164 11.5833C4.08543 11.6523 4.1324 11.7103 4.18839 11.7476C4.24416 11.7848 4.31551 11.8058 4.38425 11.7923L6.75933 11.3894L6.76567 11.3879C7.03582 11.3048 7.26245 11.2846 7.46721 11.305L7.47127 11.3053L8.6373 11.3265C9.10403 11.347 9.51073 11.6515 9.67368 12.0996L9.6723 12.1001L9.67906 12.1103C9.69566 12.1352 9.70449 12.1606 9.71172 12.1919C9.71487 12.2056 9.71757 12.2196 9.7206 12.2354C9.72111 12.2381 9.72163 12.2408 9.72216 12.2435L10.0168 12.7689ZM7.49339 12.7265C7.49325 12.7265 7.49354 12.7265 7.49339 12.7265Z" stroke="white" stroke-width="0.1"/>
<path d="M11.4307 10.2023L11.4343 10.2029L11.4358 10.2031C11.6045 10.2242 11.7768 10.2457 11.9496 10.2457C12.1236 10.2457 12.276 10.2239 12.4485 10.1809C12.5758 10.1547 12.6837 10.0266 12.6562 9.88894L12.656 9.8879C12.6279 9.76147 12.651 9.69131 12.6693 9.65888C12.6824 9.66414 12.6995 9.67232 12.719 9.68421C12.7615 9.71019 12.8146 9.75345 12.8634 9.82175L12.8641 9.82268C12.9027 9.87417 12.9601 9.91243 13.0213 9.92854C13.082 9.94451 13.1506 9.93946 13.2074 9.89814C13.469 9.74497 13.7065 9.50633 13.9208 9.18514C14.0007 9.07713 13.9729 8.91964 13.8675 8.84056L13.8665 8.83988C13.7956 8.78919 13.747 8.73995 13.7192 8.70059C13.7052 8.68079 13.6977 8.66512 13.6944 8.65432C13.6933 8.65074 13.6929 8.64826 13.6927 8.64671C13.6944 8.64487 13.6979 8.6417 13.7043 8.63774C13.7147 8.63129 13.7305 8.62437 13.7521 8.61869C13.7949 8.60743 13.8567 8.6021 13.9356 8.61179C14.073 8.63802 14.2004 8.52976 14.2259 8.40249C14.2906 8.05721 14.2908 7.71076 14.2259 7.38591C14.2003 7.25804 14.0718 7.14936 13.9337 7.17699L13.9327 7.17721C13.8062 7.2053 13.7361 7.18215 13.7036 7.16391C13.7089 7.15074 13.7171 7.13367 13.729 7.11421C13.755 7.0717 13.7982 7.01852 13.8665 6.96973L13.8675 6.96905C13.9189 6.93043 13.9572 6.87307 13.9733 6.81185C13.9893 6.75114 13.9842 6.6826 13.9429 6.62576C13.7896 6.3639 13.5506 6.12618 13.2288 5.91169L13.2268 5.91042C13.0949 5.83128 12.9403 5.88539 12.8641 5.98693L12.8634 5.98786C12.8135 6.05784 12.7653 6.10015 12.7276 6.12231C12.7087 6.13343 12.6936 6.13881 12.6831 6.1408C12.6771 6.14193 12.6736 6.14181 12.6721 6.14165L12.6654 6.13919C12.6588 6.137 12.6441 6.12742 12.6349 6.08352C12.626 6.04126 12.6252 5.97918 12.6353 5.89753C12.6616 5.76014 12.5533 5.63275 12.426 5.60729C12.0807 5.54255 11.7343 5.54232 11.4095 5.60729C11.2816 5.63286 11.1729 5.76134 11.2005 5.89946L11.2008 5.9005C11.2289 6.02693 11.2057 6.09709 11.1875 6.12952C11.1743 6.12426 11.1572 6.11608 11.1378 6.10419C11.0953 6.07821 11.0421 6.03495 10.9933 5.96665L10.9926 5.96571C10.954 5.91422 10.8966 5.87597 10.8354 5.85986C10.7747 5.84389 10.7062 5.84894 10.6493 5.89026C10.3874 6.0436 10.1497 6.2826 9.9352 6.60434L9.93393 6.60635C9.8548 6.73824 9.9089 6.89289 10.0104 6.96905L10.0114 6.96973C10.0814 7.01971 10.1237 7.06785 10.1458 7.10553C10.1569 7.12443 10.1623 7.13955 10.1643 7.15011C10.1654 7.15605 10.1653 7.15953 10.1652 7.1611L10.1627 7.16778C10.1605 7.17434 10.1509 7.18906 10.107 7.1983C10.0648 7.2072 10.0027 7.20792 9.92105 7.19782C9.78366 7.17158 9.65626 7.27985 9.6308 7.40712C9.56606 7.7524 9.56584 8.09885 9.63081 8.4237C9.65638 8.55157 9.78485 8.66025 9.92297 8.63262L9.92402 8.6324C10.0504 8.60431 10.1206 8.62746 10.153 8.64569C10.1478 8.65886 10.1396 8.67593 10.1277 8.6954C10.1017 8.73791 10.0585 8.79109 9.99017 8.83988L9.98923 8.84056C9.93774 8.87918 9.89949 8.93654 9.88338 8.99776C9.8674 9.05847 9.87246 9.12701 9.91377 9.18385C10.0671 9.44571 10.3061 9.68343 10.6279 9.89792L10.6299 9.8992C10.7618 9.97833 10.9164 9.92422 10.9926 9.82268L10.9933 9.82175C11.0433 9.75177 11.0914 9.70946 11.1291 9.6873C11.148 9.67618 11.1631 9.6708 11.1737 9.66881C11.1796 9.66768 11.1831 9.6678 11.1847 9.66796L11.1913 9.67042C11.1979 9.67261 11.2126 9.68219 11.2219 9.72609C11.2308 9.76835 11.2315 9.83042 11.2214 9.91207C11.1951 10.0495 11.3034 10.1769 11.4307 10.2023ZM3.04044 14.9124H4.33438C4.40938 14.9124 4.47576 14.8871 4.52352 14.8394C4.57128 14.7916 4.5965 14.7252 4.5965 14.6502V11.023C4.5965 10.948 4.57128 10.8816 4.52352 10.8338C4.47576 10.7861 4.40938 10.7608 4.33438 10.7608H3.04044C2.96544 10.7608 2.89906 10.7861 2.8513 10.8338C2.80354 10.8816 2.77832 10.948 2.77832 11.023V14.6502C2.77832 14.7252 2.80354 14.7916 2.8513 14.8394C2.89906 14.8871 2.96544 14.9124 3.04044 14.9124ZM4.07226 11.2851V14.3881H3.30256V11.2851H4.07226ZM12.4808 9.17427C12.2801 9.26346 12.148 9.47602 12.1341 9.72729C12.0139 9.74085 11.8822 9.74074 11.7622 9.72697C11.7314 9.46271 11.6021 9.24242 11.3917 9.19327C11.1706 9.10658 10.9332 9.16749 10.7385 9.34371C10.6416 9.26037 10.5584 9.17746 10.4889 9.09503C10.6663 8.89743 10.7281 8.63937 10.6377 8.43601C10.5485 8.23534 10.3359 8.10326 10.0846 8.08936C10.0711 7.96915 10.0712 7.83757 10.0849 7.71753C10.3513 7.68821 10.5485 7.57544 10.6384 7.35065C10.7273 7.12854 10.6667 6.8895 10.4894 6.69376C10.5733 6.59624 10.6567 6.51271 10.7396 6.44292C10.9519 6.61984 11.1918 6.68419 11.3972 6.59292C11.5978 6.50373 11.7299 6.29116 11.7438 6.03989C11.864 6.02634 11.9956 6.02645 12.1156 6.0402C12.145 6.30656 12.2577 6.50374 12.4825 6.59365C12.7046 6.6825 12.9437 6.6219 13.1394 6.44469C13.2369 6.52852 13.3205 6.61193 13.3902 6.69485C13.2133 6.90718 13.149 7.14704 13.2402 7.35238C13.3294 7.55308 13.542 7.68516 13.7933 7.69905C13.807 7.81741 13.8067 7.93749 13.7924 8.07126C13.5454 8.10101 13.3299 8.21285 13.2399 8.43688C13.1498 8.64056 13.2124 8.87892 13.3885 9.07342C13.3046 9.17095 13.2212 9.25448 13.1383 9.32426C12.926 9.14735 12.6861 9.083 12.4808 9.17427Z" fill="white" stroke="white" stroke-width="0.1"/>
<path d="M11.9261 9.08105L11.9278 9.08099C12.5695 9.05886 13.0791 8.52804 13.0791 7.90678C13.0791 7.26339 12.5682 6.75375 11.9049 6.75372L11.9032 6.75378C11.2615 6.7759 10.7518 7.30673 10.7518 7.92799L10.7519 7.92971C10.774 8.57141 11.3048 9.08102 11.9261 9.08105ZM11.9246 8.55677C11.5933 8.55591 11.2966 8.26134 11.2761 7.92653C11.277 7.59518 11.5715 7.2985 11.9063 7.27799C12.282 7.27871 12.5549 7.55404 12.5549 7.90678C12.5549 8.23871 12.2599 8.53623 11.9246 8.55677ZM2.75488 7.90678C2.75488 9.22833 3.81666 10.2901 5.13822 10.2901C6.45977 10.2901 7.52155 9.22833 7.52155 7.90678C7.52155 6.58522 6.45977 5.52344 5.13822 5.52344C3.81666 5.52344 2.75488 6.58522 2.75488 7.90678ZM3.27913 7.90678C3.27913 6.87379 4.10523 6.04769 5.13822 6.04769C6.17121 6.04769 6.99731 6.87379 6.99731 7.90678C6.99731 8.93977 6.17121 9.76587 5.13822 9.76587C4.10523 9.76587 3.27913 8.93977 3.27913 7.90678Z" fill="white" stroke="white" stroke-width="0.1"/>
<path d="M4.3252 7.37391C4.3252 7.82577 4.68698 8.18754 5.13883 8.18754C5.21383 8.18754 5.28022 8.16233 5.32798 8.11457C5.37574 8.06681 5.40096 8.00042 5.40096 7.92542C5.40096 7.85042 5.37574 7.78404 5.32798 7.73628C5.28022 7.68852 5.21383 7.6633 5.13883 7.6633C4.97554 7.6633 4.84944 7.5372 4.84944 7.37391C4.84944 7.29324 4.88548 7.21507 4.94157 7.15664C4.99791 7.09795 5.0704 7.0633 5.13883 7.0633C5.30213 7.0633 5.42823 7.1894 5.42823 7.3527C5.42823 7.4277 5.45345 7.49408 5.50121 7.54184C5.54897 7.5896 5.61535 7.61482 5.69035 7.61482C5.76535 7.61482 5.83173 7.5896 5.87949 7.54184C5.92725 7.49408 5.95247 7.4277 5.95247 7.3527C5.95247 6.90084 5.59069 6.53906 5.13883 6.53906C4.70731 6.53906 4.3252 6.92294 4.3252 7.37391Z" fill="white" stroke="white" stroke-width="0.1"/>
<path d="M4.3252 8.47813C4.3252 8.92999 4.68698 9.29177 5.13883 9.29177C5.59069 9.29177 5.95247 8.92999 5.95247 8.47813C5.95247 8.02628 5.59069 7.66449 5.13883 7.66449C5.06384 7.66449 4.99745 7.68971 4.94969 7.73747C4.90193 7.78523 4.87671 7.85162 4.87671 7.92662C4.87671 8.00162 4.90193 8.068 4.94969 8.11576C4.99745 8.16352 5.06384 8.18874 5.13883 8.18874C5.30213 8.18874 5.42823 8.31484 5.42823 8.47813C5.42823 8.64143 5.30213 8.76753 5.13883 8.76753C4.97554 8.76753 4.84944 8.64143 4.84944 8.47813C4.84944 8.40313 4.82422 8.33675 4.77646 8.28899C4.7287 8.24123 4.66232 8.21601 4.58732 8.21601C4.51232 8.21601 4.44594 8.24123 4.39818 8.28899C4.35042 8.33675 4.3252 8.40313 4.3252 8.47813ZM4.87671 6.80237C4.87671 6.87737 4.90193 6.94376 4.94969 6.99152C4.99745 7.03928 5.06384 7.0645 5.13883 7.0645C5.21383 7.0645 5.28022 7.03928 5.32798 6.99152C5.37574 6.94376 5.40096 6.87737 5.40096 6.80237V6.59025C5.40096 6.51525 5.37574 6.44887 5.32798 6.40111C5.28022 6.35335 5.21383 6.32812 5.13883 6.32812C5.06384 6.32812 4.99745 6.35335 4.94969 6.40111C4.90193 6.44887 4.87671 6.51525 4.87671 6.59025V6.80237Z" fill="white" stroke="white" stroke-width="0.1"/>
<path d="M4.87988 9.24164C4.87988 9.31664 4.9051 9.38303 4.95286 9.43079C5.00062 9.47855 5.067 9.50377 5.142 9.50377C5.217 9.50377 5.28338 9.47855 5.33114 9.43079C5.3789 9.38303 5.40412 9.31664 5.40412 9.24164V9.02952C5.40412 8.95452 5.3789 8.88814 5.33114 8.84038C5.28338 8.79262 5.217 8.7674 5.142 8.7674C5.067 8.7674 5.00062 8.79262 4.95286 8.84038C4.9051 8.88814 4.87988 8.95452 4.87988 9.02952V9.24164ZM6.15261 3.83255C6.15261 5.15411 7.21439 6.21589 8.53594 6.21589C9.85749 6.21589 10.9193 5.15411 10.9193 3.83255C10.9193 2.511 9.85749 1.44922 8.53594 1.44922C7.21439 1.44922 6.15261 2.511 6.15261 3.83255ZM6.67685 3.83255C6.67685 2.79956 7.50295 1.97346 8.53594 1.97346C9.56893 1.97346 10.395 2.79956 10.395 3.83255C10.395 4.86554 9.56893 5.69164 8.53594 5.69164C7.50295 5.69164 6.67685 4.86554 6.67685 3.83255Z" fill="white" stroke="white" stroke-width="0.1"/>
<path d="M7.40332 3.57713C7.40332 3.87643 7.53021 4.20533 7.73237 4.4594C7.93441 4.7133 8.21788 4.89986 8.53513 4.89986C8.86215 4.89986 9.14579 4.71948 9.34589 4.4673C9.54591 4.21522 9.66695 3.88625 9.66695 3.57713C9.66695 2.93436 9.1779 2.44531 8.53513 2.44531C7.91358 2.44531 7.40332 2.95557 7.40332 3.57713ZM7.92756 3.57713C7.92756 3.24414 8.20214 2.96955 8.53513 2.96955C8.86813 2.96955 9.14271 3.24414 9.14271 3.57713C9.14271 3.7555 9.06779 3.95741 8.95104 4.11476C8.83342 4.27329 8.68207 4.37561 8.53513 4.37561C8.38901 4.37561 8.23764 4.26898 8.11946 4.10711C8.00226 3.9466 7.92756 3.74457 7.92756 3.57713Z" fill="white" stroke="white" stroke-width="0.1"/>
<path d="M9.62955 5.76437L9.63147 5.76539C9.65593 5.77762 9.67664 5.78488 9.69864 5.78854C9.71868 5.79189 9.73826 5.79188 9.7578 5.79188H9.75989C9.86413 5.79188 9.9423 5.73871 9.9924 5.66355L9.99367 5.66154C10.0737 5.52813 10.0176 5.37151 9.89168 5.29597L9.89023 5.29514L9.31751 4.97696L9.31558 4.97594C9.25002 4.94316 9.21595 4.87723 9.21595 4.80854V4.49036C9.21595 4.41536 9.19073 4.34898 9.14297 4.30122C9.09521 4.25346 9.02883 4.22824 8.95383 4.22824C8.87883 4.22824 8.81245 4.25346 8.76469 4.30122C8.71693 4.34898 8.69171 4.41536 8.69171 4.49036V4.80854C8.69171 5.08138 8.82883 5.30943 9.05538 5.44536L9.05682 5.44619L9.62955 5.76437ZM7.0655 5.64033L7.06677 5.64234C7.11688 5.7175 7.19504 5.77066 7.29928 5.77066C7.30133 5.77066 7.30339 5.77067 7.30546 5.77068C7.34037 5.77079 7.37909 5.77091 7.41379 5.74017L7.78928 5.53157L8.00043 5.42599L8.0038 5.42415C8.23034 5.28822 8.36747 5.06017 8.36747 4.78733V4.46915C8.36747 4.39415 8.34225 4.32777 8.29449 4.28001C8.24673 4.23225 8.18034 4.20703 8.10534 4.20703C8.03035 4.20703 7.96396 4.23225 7.9162 4.28001C7.86844 4.32777 7.84322 4.39415 7.84322 4.46915V4.78733C7.84322 4.85672 7.80836 4.92409 7.76126 4.9566L7.16961 5.27356L7.1675 5.27476C7.0416 5.3503 6.98546 5.50692 7.0655 5.64033Z" fill="white" stroke="white" stroke-width="0.1"/>
<path d="M6.15332 3.83255C6.15332 5.15411 7.2151 6.21589 8.53665 6.21589C9.8582 6.21589 10.92 5.15411 10.92 3.83255C10.92 2.511 9.8582 1.44922 8.53665 1.44922C7.2151 1.44922 6.15332 2.511 6.15332 3.83255ZM6.67756 3.83255C6.67756 2.79956 7.50366 1.97346 8.53665 1.97346C9.56964 1.97346 10.3957 2.79956 10.3957 3.83255C10.3957 4.86554 9.56964 5.69164 8.53665 5.69164C7.50366 5.69164 6.67756 4.86554 6.67756 3.83255Z" fill="white" stroke="white" stroke-width="0.1"/>
<path d="M7.40332 3.57713C7.40332 3.87643 7.53021 4.20533 7.73237 4.4594C7.93441 4.7133 8.21788 4.89986 8.53513 4.89986C8.86215 4.89986 9.14579 4.71948 9.34589 4.4673C9.54591 4.21522 9.66695 3.88625 9.66695 3.57713C9.66695 2.93436 9.1779 2.44531 8.53513 2.44531C7.91358 2.44531 7.40332 2.95557 7.40332 3.57713ZM7.92756 3.57713C7.92756 3.24414 8.20214 2.96955 8.53513 2.96955C8.86813 2.96955 9.14271 3.24414 9.14271 3.57713C9.14271 3.7555 9.06779 3.95741 8.95104 4.11476C8.83342 4.27329 8.68207 4.37561 8.53513 4.37561C8.38901 4.37561 8.23764 4.26898 8.11946 4.10711C8.00226 3.9466 7.92756 3.74457 7.92756 3.57713Z" fill="white" stroke="white" stroke-width="0.1"/>
<path d="M9.62955 5.76437L9.63147 5.76539C9.65593 5.77762 9.67664 5.78488 9.69864 5.78854C9.71868 5.79189 9.73826 5.79188 9.7578 5.79188H9.75989C9.86413 5.79188 9.9423 5.73871 9.9924 5.66355L9.99367 5.66154C10.0737 5.52813 10.0176 5.37151 9.89168 5.29597L9.89023 5.29514L9.31751 4.97696L9.31558 4.97594C9.25002 4.94316 9.21595 4.87723 9.21595 4.80854V4.49036C9.21595 4.41536 9.19073 4.34898 9.14297 4.30122C9.09521 4.25346 9.02883 4.22824 8.95383 4.22824C8.87883 4.22824 8.81245 4.25346 8.76469 4.30122C8.71693 4.34898 8.69171 4.41536 8.69171 4.49036V4.80854C8.69171 5.08138 8.82883 5.30943 9.05538 5.44536L9.05682 5.44619L9.62955 5.76437ZM7.0655 5.64033L7.06677 5.64234C7.11688 5.7175 7.19504 5.77066 7.29928 5.77066C7.30133 5.77066 7.30339 5.77067 7.30546 5.77068C7.34037 5.77079 7.37909 5.77091 7.41379 5.74017L7.78928 5.53157L8.00043 5.42599L8.0038 5.42415C8.23034 5.28822 8.36747 5.06017 8.36747 4.78733V4.46915C8.36747 4.39415 8.34225 4.32777 8.29449 4.28001C8.24673 4.23225 8.18034 4.20703 8.10534 4.20703C8.03035 4.20703 7.96396 4.23225 7.9162 4.28001C7.86844 4.32777 7.84322 4.39415 7.84322 4.46915V4.78733C7.84322 4.85672 7.80836 4.92409 7.76126 4.9566L7.16961 5.27356L7.1675 5.27476C7.0416 5.3503 6.98546 5.50692 7.0655 5.64033Z" fill="white" stroke="white" stroke-width="0.1"/>
</g>
</g>
</g>
</g>
<defs>
<clipPath id="clip0_462_925">
<rect width="15" height="15" fill="white" transform="translate(0.629883 0.300781)"/>
</clipPath>
<clipPath id="clip1_462_925">
<rect width="15" height="15" fill="white" transform="translate(0.629883 0.300781)"/>
</clipPath>
<clipPath id="clip2_462_925">
<rect width="15" height="15" fill="white" transform="translate(0.629883 0.300781)"/>
</clipPath>
</defs>
</svg>
