<svg width="16" height="16" viewBox="0 0 16 16" fill="none" xmlns="http://www.w3.org/2000/svg">
<g clip-path="url(#clip0_462_959)">
<path d="M4.12897 9.08119L2.9071 8.20765C2.87149 8.18475 2.8408 8.15499 2.81681 8.12009C2.79221 8.0843 2.77518 8.04386 2.76677 8.00125C2.75836 7.95863 2.75875 7.91475 2.76792 7.87229C2.77708 7.82983 2.79483 7.7897 2.82006 7.75435C2.8453 7.719 2.87749 7.68918 2.91467 7.66672C2.95184 7.64426 2.99322 7.62963 3.03625 7.62374C3.07928 7.61785 3.12307 7.62081 3.16491 7.63245C3.20572 7.64381 3.24385 7.66318 3.27707 7.68941L3.86411 8.10826C3.74357 7.40528 3.77133 6.68387 3.94673 5.99059C4.14295 5.21507 4.51844 4.49643 5.04301 3.89248C5.56758 3.28853 6.22657 2.81613 6.96699 2.51328C7.7074 2.21043 8.50856 2.08559 9.30601 2.1488C10.1035 2.212 10.875 2.46148 11.5584 2.87719C12.2419 3.29289 12.8182 3.8632 13.2411 4.54225C13.664 5.22129 13.9216 5.99012 13.9932 6.78686C14.0648 7.5836 13.9484 8.38603 13.6534 9.12959C13.6298 9.1889 13.5888 9.23987 13.536 9.27567C13.4831 9.31148 13.4207 9.33059 13.3569 9.33051C13.3166 9.33062 13.2768 9.32304 13.2393 9.3082C13.2003 9.29274 13.1647 9.26971 13.1346 9.24051C13.1046 9.21131 13.0806 9.17648 13.064 9.13799C13.0474 9.0995 13.0386 9.05812 13.038 9.01622C13.0374 8.97431 13.0451 8.9327 13.0607 8.89378M4.12897 9.08119L13.1535 8.93083L4.12897 9.08119ZM4.12897 9.08119C4.16308 9.10548 4.20164 9.12281 4.24245 9.13219L4.12897 9.08119ZM4.12897 9.08119L4.24245 9.13219L4.12897 9.08119ZM13.0607 8.89378L13.1535 8.93083L13.0607 8.89378ZM13.0607 8.89378C13.0606 8.89383 13.0607 8.89372 13.0607 8.89378L13.1535 8.93083L13.0607 8.89378ZM13.0607 8.89378C13.3193 8.2421 13.4211 7.53878 13.3579 6.84053C13.2947 6.14222 13.0683 5.46852 12.6969 4.8738C12.3256 4.27908 11.8196 3.77995 11.2199 3.41671C10.6201 3.05347 9.94339 2.83627 9.24428 2.78263C8.54517 2.729 7.84324 2.84043 7.19511 3.10793C6.54698 3.37544 5.9708 3.79154 5.51303 4.32265C5.05527 4.85377 4.72874 5.48503 4.55979 6.16553C4.40916 6.77228 4.38755 7.40304 4.49535 8.01715M13.1535 8.93083C13.418 8.26454 13.5221 7.54544 13.4575 6.83152C13.3929 6.1176 13.1615 5.42886 12.7818 4.82084C12.4021 4.21282 11.8848 3.70255 11.2717 3.33119C10.6585 2.95983 9.96666 2.73777 9.25193 2.68293C8.53719 2.6281 7.81957 2.74202 7.15696 3.01551C6.49434 3.28899 5.90528 3.71438 5.43729 4.25736C4.96929 4.80034 4.63547 5.44573 4.46274 6.14145C4.30091 6.79329 4.28474 7.47221 4.41469 8.13003L4.49535 8.01715M4.49535 8.01715L4.92803 7.41155L4.49535 8.01715ZM4.49535 8.01715C4.5033 8.06246 4.51196 8.10767 4.52133 8.15279L5.00947 7.46958C5.02621 7.44609 5.0474 7.42613 5.07185 7.41084C5.09629 7.39556 5.12351 7.38522 5.15195 7.38046C5.18039 7.37568 5.20949 7.37655 5.23759 7.38303C5.26569 7.3895 5.29224 7.40145 5.31572 7.41818C5.33921 7.43491 5.35916 7.45611 5.37446 7.48055C5.38975 7.50499 5.40008 7.53222 5.40485 7.56066C5.40963 7.5891 5.40875 7.6182 5.40228 7.6463C5.39581 7.6744 5.38386 7.70094 5.36713 7.72442L4.92803 7.41155M4.24245 9.13219C4.28326 9.14158 4.32552 9.14282 4.36681 9.13587L4.24245 9.13219ZM4.24245 9.13219L4.36681 9.13587L4.24245 9.13219ZM4.36681 9.13587C4.40811 9.12891 4.44763 9.11389 4.48311 9.09165L4.36681 9.13587ZM4.36681 9.13587L4.48311 9.09165L4.36681 9.13587ZM4.48311 9.09165C4.51856 9.06944 4.5493 9.04047 4.57356 9.00638L4.48311 9.09165ZM4.48311 9.09165L4.57356 9.00638L4.48311 9.09165ZM4.57356 9.00638C4.57354 9.00641 4.57358 9.00635 4.57356 9.00638V9.00638Z" fill="white"/>
<path d="M4.12897 9.08119L2.9071 8.20765C2.87149 8.18475 2.8408 8.15499 2.81681 8.12009C2.79221 8.0843 2.77518 8.04386 2.76677 8.00125C2.75836 7.95864 2.75875 7.91475 2.76792 7.87229C2.77708 7.82983 2.79483 7.7897 2.82006 7.75435C2.8453 7.71899 2.87749 7.68918 2.91467 7.66672C2.95184 7.64426 2.99322 7.62963 3.03625 7.62374C3.07928 7.61784 3.12307 7.62081 3.16491 7.63245C3.20572 7.6438 3.24385 7.66317 3.27707 7.68941L3.86411 8.10826C3.74357 7.40528 3.77133 6.68386 3.94673 5.99059C4.14295 5.21507 4.51844 4.49643 5.04301 3.89248C5.56758 3.28853 6.22657 2.81613 6.96699 2.51328C7.7074 2.21043 8.50856 2.08559 9.30601 2.1488C10.1035 2.212 10.875 2.46148 11.5584 2.87719C12.2419 3.29289 12.8182 3.8632 13.2411 4.54225C13.664 5.22129 13.9216 5.99012 13.9932 6.78686C14.0648 7.5836 13.9484 8.38603 13.6534 9.12959C13.6298 9.1889 13.5888 9.23987 13.536 9.27567C13.4831 9.31148 13.4207 9.33058 13.3569 9.33051M4.12897 9.08119L13.1535 8.93083M4.12897 9.08119C4.16308 9.10548 4.20164 9.12281 4.24245 9.13219M4.12897 9.08119L4.24245 9.13219M13.3569 9.33051L13.357 9.23051M13.3569 9.33051C13.3166 9.33061 13.2768 9.32304 13.2393 9.3082C13.2003 9.29274 13.1647 9.26971 13.1346 9.24051C13.1046 9.21131 13.0806 9.17648 13.064 9.13799C13.0474 9.0995 13.0386 9.05812 13.038 9.01622C13.0374 8.97431 13.0451 8.9327 13.0607 8.89378M13.0607 8.89378L13.1535 8.93083M13.0607 8.89378C13.0606 8.89383 13.0607 8.89372 13.0607 8.89378ZM13.0607 8.89378C13.3193 8.2421 13.4211 7.53879 13.3579 6.84053C13.2947 6.14222 13.0683 5.46853 12.6969 4.8738C12.3256 4.27908 11.8196 3.77995 11.2199 3.41671C10.6201 3.05347 9.94339 2.83627 9.24428 2.78263C8.54517 2.729 7.84324 2.84043 7.19511 3.10793C6.54698 3.37544 5.9708 3.79154 5.51303 4.32265C5.05527 4.85377 4.72874 5.48504 4.55979 6.16553C4.40916 6.77228 4.38755 7.40304 4.49535 8.01715M13.1535 8.93083C13.418 8.26454 13.5221 7.54544 13.4575 6.83152C13.3929 6.1176 13.1615 5.42886 12.7818 4.82084C12.4021 4.21282 11.8848 3.70255 11.2717 3.33119C10.6585 2.95983 9.96666 2.73776 9.25193 2.68293C8.53719 2.6281 7.81957 2.74202 7.15696 3.01551C6.49434 3.28899 5.90528 3.71437 5.43729 4.25736C4.96929 4.80035 4.63547 5.44573 4.46274 6.14145C4.30091 6.79329 4.28474 7.47221 4.41469 8.13003L4.49535 8.01715M4.24245 9.13219C4.28326 9.14158 4.32552 9.14282 4.36681 9.13587M4.24245 9.13219L4.36681 9.13587M4.49535 8.01715L4.92803 7.41155M4.49535 8.01715C4.5033 8.06246 4.51196 8.10767 4.52133 8.15279L5.00947 7.46958M4.92803 7.41155L5.36713 7.72442C5.38386 7.70094 5.39581 7.6744 5.40228 7.6463C5.40875 7.6182 5.40963 7.5891 5.40485 7.56066C5.40008 7.53222 5.38975 7.505 5.37446 7.48055C5.35916 7.45611 5.33921 7.43491 5.31572 7.41818C5.29224 7.40145 5.26569 7.3895 5.23759 7.38303C5.20949 7.37656 5.18039 7.37568 5.15195 7.38046C5.12351 7.38523 5.09629 7.39555 5.07185 7.41084C5.0474 7.42613 5.02621 7.44609 5.00947 7.46958M4.92803 7.41155L5.00947 7.46958M4.36681 9.13587C4.40811 9.12891 4.44763 9.11389 4.48311 9.09165M4.36681 9.13587L4.48311 9.09165M4.48311 9.09165C4.51856 9.06944 4.5493 9.04047 4.57356 9.00638M4.48311 9.09165L4.57356 9.00638M4.57356 9.00638C4.57358 9.00635 4.57354 9.00641 4.57356 9.00638Z" stroke="white" stroke-width="0.2"/>
<path d="M14.0683 10.0252C13.6308 9.50781 12.9133 9.74516 12.5262 9.87203C12.2812 9.95297 11.6938 10.2002 11.1152 10.4452C11.1501 10.2603 11.1264 10.0691 11.0474 9.89828C10.7346 9.18406 9.96237 9.32078 9.39799 9.42141C9.22385 9.45922 9.0467 9.48155 8.86862 9.48813C8.56694 9.48474 8.26916 9.4196 7.99362 9.29672C7.63578 9.14275 7.24883 9.06812 6.8594 9.07797C6.11376 9.09177 5.37861 9.25621 4.69815 9.56141L4.57565 9.61172C3.55956 10.0164 3.12206 10.1083 3.12206 10.1083C3.08135 10.1164 3.0438 10.1359 3.01378 10.1646C2.98376 10.1933 2.96252 10.2299 2.95253 10.2702C2.94487 10.3019 2.77315 11.0358 3.25987 12.0672C3.67768 12.9422 4.16659 13.278 4.50237 13.3994C4.53722 13.4119 4.57466 13.4153 4.6112 13.4094C4.64773 13.4035 4.68217 13.3884 4.71128 13.3655C4.71128 13.3655 4.98581 13.1468 5.19581 13.0243C5.33471 12.94 5.67268 12.8864 6.49956 13.1161C7.26459 13.3197 8.05095 13.4324 8.84237 13.4519C9.15056 13.462 9.45824 13.4198 9.75237 13.3272C10.6153 12.9991 12.7154 11.9054 13.5412 11.4569C13.9787 11.2185 14.2171 10.9614 14.2718 10.6705C14.2896 10.5546 14.2805 10.4361 14.2452 10.3242C14.2099 10.2122 14.1494 10.1099 14.0683 10.0252ZM13.8408 10.5907C13.8135 10.7383 13.6319 10.91 13.3312 11.0741C12.6377 11.4536 10.4567 12.5966 9.59815 12.9193C8.99549 13.1446 7.47846 12.9346 6.61659 12.7005C6.27223 12.5924 5.91518 12.5299 5.55456 12.5146C5.35001 12.5047 5.14672 12.5516 4.96721 12.6502C4.81956 12.7399 4.65112 12.8624 4.54503 12.9411C4.2169 12.7771 3.90518 12.4052 3.65471 11.878C3.43846 11.4513 3.33741 10.9755 3.36159 10.4977C3.82916 10.3612 4.28886 10.199 4.73862 10.012L4.8644 9.96063C5.49469 9.67589 6.17662 9.52327 6.86815 9.51219C7.20228 9.50352 7.53413 9.56967 7.8394 9.70578C8.16161 9.84707 8.50915 9.92149 8.86096 9.92453C9.06725 9.91815 9.27257 9.89363 9.47456 9.85125C10.0772 9.74188 10.4841 9.70141 10.646 10.07C10.6736 10.1267 10.6893 10.1885 10.6921 10.2515C10.6949 10.3146 10.6848 10.3775 10.6624 10.4364C10.6011 10.5874 10.4436 10.7252 10.1964 10.8368C9.97768 10.9286 9.81362 10.9997 9.74143 11.0282C9.27768 11.2097 8.87846 11.1463 8.49237 11.085L8.28018 11.0522C8.22217 11.0444 8.16342 11.0599 8.11685 11.0954C8.07029 11.1309 8.03973 11.1834 8.0319 11.2414C8.02407 11.2995 8.0396 11.3582 8.07509 11.4048C8.11058 11.4513 8.1631 11.4819 8.22112 11.4897C8.28784 11.4985 8.35565 11.5094 8.42346 11.5204C8.84675 11.5871 9.32581 11.6625 9.90112 11.4383C9.96784 11.4121 10.1013 11.3563 10.2785 11.2797C10.3113 11.2666 10.343 11.2535 10.3736 11.2393L10.6558 11.1189C11.3679 10.8127 12.3435 10.3927 12.664 10.2877C13.1726 10.1203 13.5291 10.0689 13.7337 10.3074C13.866 10.4627 13.8474 10.5589 13.8408 10.5907ZM8.70018 4.61328V4.90313C8.62434 4.9204 8.55088 4.94684 8.48143 4.98188C8.37 5.03799 8.27587 5.12325 8.20903 5.2286C8.1422 5.33395 8.10518 5.45544 8.1019 5.58016C8.08659 6.06031 8.51862 6.2211 8.83362 6.33813C9.20112 6.47485 9.31268 6.54485 9.29628 6.71985C9.29296 6.7794 9.27207 6.83663 9.23625 6.88432C9.20043 6.93201 9.15129 6.96803 9.09503 6.98781C8.98975 7.02799 8.87677 7.04393 8.76449 7.03446C8.65221 7.025 8.5435 6.99036 8.44643 6.93313C8.42381 6.91532 8.3979 6.90214 8.37019 6.89434C8.34247 6.88654 8.31349 6.88428 8.2849 6.88768C8.25631 6.89108 8.22867 6.90008 8.20356 6.91417C8.17844 6.92825 8.15635 6.94715 8.13854 6.96977C8.12073 6.99239 8.10755 7.0183 8.09975 7.04601C8.09196 7.07373 8.08969 7.10271 8.0931 7.1313C8.0965 7.15989 8.1055 7.18753 8.11958 7.21264C8.13367 7.23776 8.15256 7.25985 8.17518 7.27766C8.32923 7.38823 8.51101 7.45375 8.70018 7.46688V7.72828C8.70018 7.7863 8.72323 7.84194 8.76425 7.88296C8.80528 7.92399 8.86092 7.94703 8.91893 7.94703C8.97695 7.94703 9.03259 7.92399 9.07361 7.88296C9.11464 7.84194 9.13768 7.7863 9.13768 7.72828V7.43406C9.18344 7.42245 9.22838 7.40784 9.27221 7.39031C9.40066 7.33961 9.5123 7.2539 9.59447 7.14292C9.67664 7.03195 9.72604 6.90015 9.73706 6.7625C9.78956 6.22438 9.3094 6.0461 8.99221 5.92797C8.65206 5.80219 8.5394 5.73656 8.54378 5.59438C8.54491 5.5465 8.55945 5.4999 8.58574 5.45988C8.61204 5.41986 8.64903 5.38801 8.69253 5.36797C8.79342 5.3242 8.90361 5.30619 9.0132 5.31554C9.12278 5.3249 9.22832 5.36133 9.32034 5.42156C9.34469 5.43779 9.37204 5.44897 9.40079 5.45444C9.42954 5.45991 9.45909 5.45955 9.48769 5.4534C9.5163 5.44724 9.54338 5.4354 9.56733 5.41859C9.59128 5.40178 9.61162 5.38034 9.62713 5.35553C9.64265 5.33072 9.65303 5.30305 9.65766 5.27416C9.66229 5.24526 9.66107 5.21574 9.65409 5.18732C9.6471 5.15891 9.63449 5.13218 9.61699 5.10873C9.59949 5.08527 9.57746 5.06557 9.55221 5.05078C9.42554 4.97172 9.28478 4.91787 9.13768 4.89219V4.61328C9.13768 4.55527 9.11464 4.49963 9.07361 4.4586C9.03259 4.41758 8.97695 4.39453 8.91893 4.39453C8.86092 4.39453 8.80528 4.41758 8.76425 4.4586C8.72323 4.49963 8.70018 4.55527 8.70018 4.61328Z" fill="white"/>
<mask id="mask0_462_959" style="mask-type:luminance" maskUnits="userSpaceOnUse" x="1" y="3" width="14" height="12">
<path d="M14.917 3.39453H1.91699V14.3945H14.917V3.39453Z" fill="white"/>
<path d="M14.0683 10.0252C13.6308 9.50781 12.9133 9.74516 12.5262 9.87203C12.2812 9.95297 11.6938 10.2002 11.1152 10.4452C11.1501 10.2603 11.1264 10.0691 11.0474 9.89828C10.7346 9.18406 9.96237 9.32078 9.39799 9.42141C9.22385 9.45922 9.0467 9.48155 8.86862 9.48813C8.56694 9.48474 8.26916 9.4196 7.99362 9.29672C7.63578 9.14275 7.24883 9.06812 6.8594 9.07797C6.11376 9.09177 5.37861 9.25621 4.69815 9.56141L4.57565 9.61172C3.55956 10.0164 3.12206 10.1083 3.12206 10.1083C3.08135 10.1164 3.0438 10.1359 3.01378 10.1646C2.98376 10.1933 2.96252 10.2299 2.95253 10.2702C2.94487 10.3019 2.77315 11.0358 3.25987 12.0672C3.67768 12.9422 4.16659 13.278 4.50237 13.3994C4.53722 13.4119 4.57466 13.4153 4.6112 13.4094C4.64773 13.4035 4.68217 13.3884 4.71128 13.3655C4.71128 13.3655 4.98581 13.1468 5.19581 13.0243C5.33471 12.94 5.67268 12.8864 6.49956 13.1161C7.26459 13.3197 8.05095 13.4324 8.84237 13.4519C9.15056 13.462 9.45824 13.4198 9.75237 13.3272C10.6153 12.9991 12.7154 11.9054 13.5412 11.4569C13.9787 11.2185 14.2171 10.9614 14.2718 10.6705C14.2896 10.5546 14.2805 10.4361 14.2452 10.3242C14.2099 10.2122 14.1494 10.1099 14.0683 10.0252ZM13.8408 10.5907C13.8135 10.7383 13.6319 10.91 13.3312 11.0741C12.6377 11.4536 10.4567 12.5966 9.59815 12.9193C8.99549 13.1446 7.47846 12.9346 6.61659 12.7005C6.27223 12.5924 5.91518 12.5299 5.55456 12.5146C5.35001 12.5047 5.14672 12.5516 4.96721 12.6502C4.81956 12.7399 4.65112 12.8624 4.54503 12.9411C4.2169 12.7771 3.90518 12.4052 3.65471 11.878C3.43846 11.4513 3.33741 10.9755 3.36159 10.4977C3.82916 10.3612 4.28886 10.199 4.73862 10.012L4.8644 9.96063C5.49469 9.67589 6.17662 9.52327 6.86815 9.51219C7.20228 9.50352 7.53413 9.56967 7.8394 9.70578C8.16161 9.84707 8.50915 9.92149 8.86096 9.92453C9.06725 9.91815 9.27257 9.89363 9.47456 9.85125C10.0772 9.74188 10.4841 9.70141 10.646 10.07C10.6736 10.1267 10.6893 10.1885 10.6921 10.2515C10.6949 10.3146 10.6848 10.3775 10.6624 10.4364C10.6011 10.5874 10.4436 10.7252 10.1964 10.8368C9.97768 10.9286 9.81362 10.9997 9.74143 11.0282C9.27768 11.2097 8.87846 11.1463 8.49237 11.085L8.28018 11.0522C8.22217 11.0444 8.16342 11.0599 8.11685 11.0954C8.07029 11.1309 8.03973 11.1834 8.0319 11.2414C8.02407 11.2995 8.0396 11.3582 8.07509 11.4048C8.11058 11.4513 8.1631 11.4819 8.22112 11.4897C8.28784 11.4985 8.35565 11.5094 8.42346 11.5204C8.84675 11.5871 9.32581 11.6625 9.90112 11.4383C9.96784 11.4121 10.1013 11.3563 10.2785 11.2797C10.3113 11.2666 10.343 11.2535 10.3736 11.2393L10.6558 11.1189C11.3679 10.8127 12.3435 10.3927 12.664 10.2877C13.1726 10.1203 13.5291 10.0689 13.7337 10.3074C13.866 10.4627 13.8474 10.5589 13.8408 10.5907ZM8.70018 4.61328V4.90313C8.62434 4.9204 8.55088 4.94684 8.48143 4.98188C8.37 5.03799 8.27587 5.12325 8.20903 5.2286C8.1422 5.33395 8.10518 5.45544 8.1019 5.58016C8.08659 6.06031 8.51862 6.2211 8.83362 6.33813C9.20112 6.47485 9.31268 6.54485 9.29628 6.71985C9.29296 6.7794 9.27207 6.83663 9.23625 6.88432C9.20043 6.93201 9.15129 6.96803 9.09503 6.98781C8.98975 7.02799 8.87677 7.04393 8.76449 7.03446C8.65221 7.025 8.5435 6.99036 8.44643 6.93313C8.42381 6.91532 8.3979 6.90214 8.37019 6.89434C8.34247 6.88654 8.31349 6.88428 8.2849 6.88768C8.25631 6.89108 8.22867 6.90008 8.20356 6.91417C8.17844 6.92825 8.15635 6.94715 8.13854 6.96977C8.12073 6.99239 8.10755 7.0183 8.09975 7.04601C8.09196 7.07373 8.08969 7.10271 8.0931 7.1313C8.0965 7.15989 8.1055 7.18753 8.11958 7.21264C8.13367 7.23776 8.15256 7.25985 8.17518 7.27766C8.32923 7.38823 8.51101 7.45375 8.70018 7.46688V7.72828C8.70018 7.7863 8.72323 7.84194 8.76425 7.88296C8.80528 7.92399 8.86092 7.94703 8.91893 7.94703C8.97695 7.94703 9.03259 7.92399 9.07361 7.88296C9.11464 7.84194 9.13768 7.7863 9.13768 7.72828V7.43406C9.18344 7.42245 9.22838 7.40784 9.27221 7.39031C9.40066 7.33961 9.5123 7.2539 9.59447 7.14292C9.67664 7.03195 9.72604 6.90015 9.73706 6.7625C9.78956 6.22438 9.3094 6.0461 8.99221 5.92797C8.65206 5.80219 8.5394 5.73656 8.54378 5.59438C8.54491 5.5465 8.55945 5.4999 8.58574 5.45988C8.61204 5.41986 8.64903 5.38801 8.69253 5.36797C8.79342 5.3242 8.90361 5.30619 9.0132 5.31554C9.12278 5.3249 9.22832 5.36133 9.32034 5.42156C9.34469 5.43779 9.37204 5.44897 9.40079 5.45444C9.42954 5.45991 9.45909 5.45955 9.48769 5.4534C9.5163 5.44724 9.54338 5.4354 9.56733 5.41859C9.59128 5.40178 9.61162 5.38034 9.62713 5.35553C9.64265 5.33072 9.65303 5.30305 9.65766 5.27416C9.66229 5.24526 9.66107 5.21574 9.65409 5.18732C9.6471 5.15891 9.63449 5.13218 9.61699 5.10873C9.59949 5.08527 9.57746 5.06557 9.55221 5.05078C9.42554 4.97172 9.28478 4.91787 9.13768 4.89219V4.61328C9.13768 4.55527 9.11464 4.49963 9.07361 4.4586C9.03259 4.41758 8.97695 4.39453 8.91893 4.39453C8.86092 4.39453 8.80528 4.41758 8.76425 4.4586C8.72323 4.49963 8.70018 4.55527 8.70018 4.61328Z" fill="black"/>
</mask>
<g mask="url(#mask0_462_959)">
<path d="M14.0683 10.0252C13.6308 9.50781 12.9133 9.74516 12.5262 9.87203C12.2812 9.95297 11.6938 10.2002 11.1152 10.4452C11.1501 10.2603 11.1264 10.0691 11.0474 9.89828C10.7346 9.18406 9.96237 9.32078 9.39799 9.42141C9.22385 9.45922 9.0467 9.48155 8.86862 9.48813C8.56694 9.48474 8.26916 9.4196 7.99362 9.29672C7.63578 9.14275 7.24883 9.06812 6.8594 9.07797C6.11376 9.09177 5.37861 9.25621 4.69815 9.56141L4.57565 9.61172C3.55956 10.0164 3.12206 10.1083 3.12206 10.1083C3.08135 10.1164 3.0438 10.1359 3.01378 10.1646C2.98376 10.1933 2.96252 10.2299 2.95253 10.2702C2.94487 10.3019 2.77315 11.0358 3.25987 12.0672C3.67768 12.9422 4.16659 13.278 4.50237 13.3994C4.53722 13.4119 4.57466 13.4153 4.6112 13.4094C4.64773 13.4035 4.68217 13.3884 4.71128 13.3655C4.71128 13.3655 4.98581 13.1468 5.19581 13.0243C5.33471 12.94 5.67268 12.8864 6.49956 13.1161C7.26459 13.3197 8.05095 13.4324 8.84237 13.4519C9.15056 13.462 9.45824 13.4198 9.75237 13.3272C10.6153 12.9991 12.7154 11.9054 13.5412 11.4569C13.9787 11.2185 14.2171 10.9614 14.2718 10.6705C14.2896 10.5546 14.2805 10.4361 14.2452 10.3242C14.2099 10.2122 14.1494 10.1099 14.0683 10.0252ZM13.8408 10.5907C13.8135 10.7383 13.6319 10.91 13.3312 11.0741C12.6377 11.4536 10.4567 12.5966 9.59815 12.9193C8.99549 13.1446 7.47846 12.9346 6.61659 12.7005C6.27223 12.5924 5.91518 12.5299 5.55456 12.5146C5.35001 12.5047 5.14672 12.5516 4.96721 12.6502C4.81956 12.7399 4.65112 12.8624 4.54503 12.9411C4.2169 12.7771 3.90518 12.4052 3.65471 11.878C3.43846 11.4513 3.33741 10.9755 3.36159 10.4977C3.82916 10.3612 4.28886 10.199 4.73862 10.012L4.8644 9.96063C5.49469 9.67589 6.17662 9.52327 6.86815 9.51219C7.20228 9.50352 7.53413 9.56967 7.8394 9.70578C8.16161 9.84707 8.50915 9.92149 8.86096 9.92453C9.06725 9.91815 9.27257 9.89363 9.47456 9.85125C10.0772 9.74188 10.4841 9.70141 10.646 10.07C10.6736 10.1267 10.6893 10.1885 10.6921 10.2515C10.6949 10.3146 10.6848 10.3775 10.6624 10.4364C10.6011 10.5874 10.4436 10.7252 10.1964 10.8368C9.97768 10.9286 9.81362 10.9997 9.74143 11.0282C9.27768 11.2097 8.87846 11.1463 8.49237 11.085L8.28018 11.0522C8.22217 11.0444 8.16342 11.0599 8.11685 11.0954C8.07029 11.1309 8.03973 11.1834 8.0319 11.2414C8.02407 11.2995 8.0396 11.3582 8.07509 11.4048C8.11058 11.4513 8.1631 11.4819 8.22112 11.4897C8.28784 11.4985 8.35565 11.5094 8.42346 11.5204C8.84675 11.5871 9.32581 11.6625 9.90112 11.4383C9.96784 11.4121 10.1013 11.3563 10.2785 11.2797C10.3113 11.2666 10.343 11.2535 10.3736 11.2393L10.6558 11.1189C11.3679 10.8127 12.3435 10.3927 12.664 10.2877C13.1726 10.1203 13.5291 10.0689 13.7337 10.3074C13.866 10.4627 13.8474 10.5589 13.8408 10.5907ZM8.70018 4.61328V4.90313C8.62434 4.9204 8.55088 4.94684 8.48143 4.98188C8.37 5.03799 8.27587 5.12325 8.20903 5.2286C8.1422 5.33395 8.10518 5.45544 8.1019 5.58016C8.08659 6.06031 8.51862 6.2211 8.83362 6.33813C9.20112 6.47485 9.31268 6.54485 9.29628 6.71985C9.29296 6.7794 9.27207 6.83663 9.23625 6.88432C9.20043 6.93201 9.15129 6.96803 9.09503 6.98781C8.98975 7.02799 8.87677 7.04393 8.76449 7.03446C8.65221 7.025 8.5435 6.99036 8.44643 6.93313C8.42381 6.91532 8.3979 6.90214 8.37019 6.89434C8.34247 6.88654 8.31349 6.88428 8.2849 6.88768C8.25631 6.89108 8.22867 6.90008 8.20356 6.91417C8.17844 6.92825 8.15635 6.94715 8.13854 6.96977C8.12073 6.99239 8.10755 7.0183 8.09975 7.04601C8.09196 7.07373 8.08969 7.10271 8.0931 7.1313C8.0965 7.15989 8.1055 7.18753 8.11958 7.21264C8.13367 7.23776 8.15256 7.25985 8.17518 7.27766C8.32923 7.38823 8.51101 7.45375 8.70018 7.46688V7.72828C8.70018 7.7863 8.72323 7.84194 8.76425 7.88296C8.80528 7.92399 8.86092 7.94703 8.91893 7.94703C8.97695 7.94703 9.03259 7.92399 9.07361 7.88296C9.11464 7.84194 9.13768 7.7863 9.13768 7.72828V7.43406C9.18344 7.42245 9.22838 7.40784 9.27221 7.39031C9.40066 7.33961 9.5123 7.2539 9.59447 7.14292C9.67664 7.03195 9.72604 6.90015 9.73706 6.7625C9.78956 6.22438 9.3094 6.0461 8.99221 5.92797C8.65206 5.80219 8.5394 5.73656 8.54378 5.59438C8.54491 5.5465 8.55945 5.4999 8.58574 5.45988C8.61204 5.41986 8.64903 5.38801 8.69253 5.36797C8.79342 5.3242 8.90361 5.30619 9.0132 5.31554C9.12278 5.3249 9.22832 5.36133 9.32034 5.42156C9.34469 5.43779 9.37204 5.44897 9.40079 5.45444C9.42954 5.45991 9.45909 5.45955 9.48769 5.4534C9.5163 5.44724 9.54338 5.4354 9.56733 5.41859C9.59128 5.40178 9.61162 5.38034 9.62713 5.35553C9.64265 5.33072 9.65303 5.30305 9.65766 5.27416C9.66229 5.24526 9.66107 5.21574 9.65409 5.18732C9.6471 5.15891 9.63449 5.13218 9.61699 5.10873C9.59949 5.08527 9.57746 5.06557 9.55221 5.05078C9.42554 4.97172 9.28478 4.91787 9.13768 4.89219V4.61328C9.13768 4.55527 9.11464 4.49963 9.07361 4.4586C9.03259 4.41758 8.97695 4.39453 8.91893 4.39453C8.86092 4.39453 8.80528 4.41758 8.76425 4.4586C8.72323 4.49963 8.70018 4.55527 8.70018 4.61328Z" stroke="white" stroke-width="0.4"/>
</g>
<path d="M6.19043 6.17031C6.19043 6.70926 6.35025 7.23612 6.64967 7.68424C6.9491 8.13236 7.37469 8.48163 7.87262 8.68788C8.37054 8.89413 8.91845 8.94809 9.44705 8.84295C9.97565 8.73781 10.4612 8.47827 10.8423 8.09718C11.2234 7.71608 11.4829 7.23053 11.588 6.70193C11.6932 6.17333 11.6392 5.62543 11.433 5.1275C11.2267 4.62957 10.8774 4.20398 10.4294 3.90456C9.98123 3.60513 9.45438 3.44531 8.91543 3.44531C8.19271 3.44531 7.4996 3.73241 6.98856 4.24344C6.47752 4.75448 6.19043 5.4476 6.19043 6.17031ZM11.0029 6.17031C11.0029 6.58318 10.8805 6.98678 10.6511 7.33006C10.4217 7.67335 10.0957 7.94091 9.71428 8.09891C9.33284 8.25691 8.91311 8.29825 8.50818 8.2177C8.10324 8.13715 7.73128 7.93834 7.43934 7.6464C7.1474 7.35445 6.94858 6.9825 6.86804 6.57756C6.78749 6.17263 6.82883 5.7529 6.98683 5.37146C7.14483 4.99002 7.41239 4.664 7.75567 4.43462C8.09896 4.20524 8.50256 4.08281 8.91543 4.08281C9.46907 4.08281 10 4.30274 10.3915 4.69423C10.783 5.08571 11.0029 5.61667 11.0029 6.17031Z" fill="white" stroke="white" stroke-width="0.2"/>
</g>
<defs>
<clipPath id="clip0_462_959">
<rect width="15" height="15" fill="white" transform="translate(0.799805 0.300781)"/>
</clipPath>
</defs>
</svg>
