<svg width="16" height="16" viewBox="0 0 16 16" fill="none" xmlns="http://www.w3.org/2000/svg">
<mask id="mask0_462_916" style="mask-type:luminance" maskUnits="userSpaceOnUse" x="0" y="0" width="15" height="15">
<path d="M14.9185 0.640625H0.918457V14.6406H14.9185V0.640625Z" fill="white"/>
</mask>
<g mask="url(#mask0_462_916)">
<path d="M2.23275 7.20312C2.34879 7.20312 2.46007 7.15703 2.54211 7.07499C2.62416 6.99294 2.67025 6.88166 2.67025 6.76562V6.32812C2.67025 5.98003 2.80854 5.64619 3.05468 5.40004C3.30082 5.1539 3.63466 5.01562 3.98275 5.01562H4.85775C5.20585 5.01562 5.53969 5.1539 5.78583 5.40004C6.03197 5.64619 6.17025 5.98003 6.17025 6.32812V6.76562C6.17025 6.88166 6.21635 6.99294 6.2984 7.07499C6.38044 7.15703 6.49172 7.20312 6.60775 7.20312C6.72379 7.20312 6.83507 7.15703 6.91711 7.07499C6.99916 6.99294 7.04525 6.88166 7.04525 6.76562V6.32812C7.04417 5.91244 6.92467 5.50567 6.70075 5.15544C6.47682 4.80522 6.15774 4.52605 5.78088 4.35063C6.03166 4.04454 6.16918 3.66133 6.17025 3.26563C6.17025 2.8015 5.98588 2.35637 5.65769 2.0282C5.3295 1.70001 4.88438 1.51562 4.42025 1.51562C3.95613 1.51562 3.51101 1.70001 3.18282 2.0282C2.85463 2.35637 2.67025 2.8015 2.67025 3.26563C2.67133 3.66133 2.80885 4.04454 3.05963 4.35063C2.68277 4.52605 2.36369 4.80522 2.13976 5.15544C1.91583 5.50567 1.79633 5.91244 1.79525 6.32812V6.76562C1.79525 6.88166 1.84135 6.99294 1.9234 7.07499C2.00544 7.15703 2.11672 7.20312 2.23275 7.20312ZM4.42025 2.39063C4.59331 2.39063 4.76249 2.44195 4.90638 2.5381C5.05027 2.63424 5.16242 2.7709 5.22865 2.93078C5.29488 3.09067 5.3122 3.2666 5.27844 3.43633C5.24468 3.60607 5.16134 3.76198 5.03897 3.88435C4.9166 4.00672 4.76069 4.09005 4.59096 4.12382C4.42123 4.15758 4.24529 4.14025 4.08541 4.07403C3.92552 4.0078 3.78886 3.89565 3.69272 3.75176C3.59657 3.60786 3.54525 3.43869 3.54525 3.26563C3.54525 3.03357 3.63744 2.81101 3.80154 2.64691C3.96563 2.48282 4.18819 2.39063 4.42025 2.39063ZM12.7809 10.9132C13.0317 10.6071 13.1692 10.2238 13.1703 9.82812C13.1703 9.364 12.9859 8.91887 12.6577 8.59069C12.3295 8.26251 11.8844 8.07812 11.4203 8.07812C10.9561 8.07812 10.511 8.26251 10.1828 8.59069C9.85463 8.91887 9.67025 9.364 9.67025 9.82812C9.67133 10.2238 9.80885 10.6071 10.0596 10.9132C9.68277 11.0886 9.36369 11.3678 9.13976 11.718C8.91583 12.0682 8.79633 12.475 8.79525 12.8907V13.3282C8.79525 13.4442 8.84135 13.5555 8.92339 13.6375C9.00544 13.7196 9.11672 13.7657 9.23275 13.7657C9.34879 13.7657 9.46007 13.7196 9.54211 13.6375C9.62416 13.5555 9.67025 13.4442 9.67025 13.3282V12.8907C9.67025 12.5426 9.80853 12.2087 10.0547 11.9626C10.3008 11.7164 10.6347 11.5782 10.9828 11.5782H11.8578C12.2059 11.5782 12.5397 11.7164 12.7859 11.9626C13.032 12.2087 13.1703 12.5426 13.1703 12.8907V13.3282C13.1703 13.4442 13.2164 13.5555 13.2984 13.6375C13.3805 13.7196 13.4917 13.7657 13.6078 13.7657C13.7238 13.7657 13.8351 13.7196 13.9171 13.6375C13.9992 13.5555 14.0453 13.4442 14.0453 13.3282V12.8907C14.0442 12.475 13.9247 12.0682 13.7008 11.718C13.4768 11.3678 13.1578 11.0886 12.7809 10.9132ZM11.4203 8.95312C11.5933 8.95312 11.7625 9.00445 11.9064 9.10059C12.0503 9.19673 12.1624 9.3334 12.2287 9.49328C12.2949 9.65316 12.3122 9.8291 12.2785 9.99884C12.2447 10.1686 12.1614 10.3245 12.039 10.4469C11.9166 10.5693 11.7607 10.6526 11.591 10.6863C11.4212 10.7201 11.2453 10.7028 11.0854 10.6366C10.9255 10.5703 10.7889 10.4582 10.6927 10.3143C10.5966 10.1704 10.5453 10.0012 10.5453 9.82812C10.5453 9.59606 10.6375 9.3735 10.8016 9.2094C10.9657 9.04531 11.1882 8.95312 11.4203 8.95312ZM7.48275 3.26563H9.67025C10.3665 3.26563 11.0341 3.54218 11.5264 4.03447C12.0187 4.52675 12.2953 5.19444 12.2953 5.89062V6.14876L12.1684 6.0175C12.086 5.93511 11.9743 5.88883 11.8578 5.88883C11.7413 5.88883 11.6295 5.93511 11.5471 6.0175C11.4648 6.09988 11.4185 6.21163 11.4185 6.32812C11.4185 6.44463 11.4648 6.55637 11.5471 6.63875L12.4221 7.51375C12.4628 7.55475 12.5112 7.5873 12.5645 7.60951C12.6178 7.63172 12.675 7.64317 12.7328 7.64317C12.7905 7.64317 12.8477 7.63172 12.901 7.60951C12.9543 7.5873 13.0027 7.55475 13.0434 7.51375L13.9184 6.63875C14.0008 6.55637 14.0471 6.44463 14.0471 6.32812C14.0471 6.21163 14.0008 6.09988 13.9184 6.0175C13.836 5.93511 13.7243 5.88883 13.6078 5.88883C13.4913 5.88883 13.3795 5.93511 13.2971 6.0175L13.1703 6.14876V5.89062C13.1703 4.96236 12.8015 4.07213 12.1451 3.41575C11.4888 2.75937 10.5985 2.39063 9.67025 2.39063H7.48275C7.36672 2.39063 7.25544 2.43673 7.1734 2.51877C7.09135 2.60082 7.04525 2.7121 7.04525 2.82813C7.04525 2.94416 7.09135 3.05543 7.1734 3.13748C7.25544 3.21953 7.36672 3.26563 7.48275 3.26563ZM7.509 12.0157H6.17025C5.47406 12.0157 4.80638 11.7391 4.3141 11.2468C3.82182 10.7545 3.54525 10.0868 3.54525 9.39062V9.1325L3.67213 9.26376C3.7128 9.30476 3.76119 9.3373 3.8145 9.35951C3.86782 9.38172 3.925 9.39317 3.98275 9.39317C4.04051 9.39317 4.09769 9.38172 4.15101 9.35951C4.20432 9.3373 4.25271 9.30476 4.29338 9.26376C4.33439 9.22309 4.36693 9.17469 4.38914 9.12137C4.41136 9.06806 4.42279 9.01088 4.42279 8.95312C4.42279 8.89537 4.41136 8.83818 4.38914 8.78487C4.36693 8.73156 4.33439 8.68318 4.29338 8.64251L3.41838 7.7675C3.37771 7.72649 3.32932 7.69394 3.27601 7.67173C3.22269 7.64952 3.16551 7.63809 3.10775 7.63809C3.05 7.63809 2.99282 7.64952 2.9395 7.67173C2.88619 7.69394 2.8378 7.72649 2.79713 7.7675L1.92213 8.64251C1.83975 8.72488 1.79346 8.83662 1.79346 8.95312C1.79346 9.06963 1.83975 9.18137 1.92213 9.26376C2.00451 9.34614 2.11625 9.39241 2.23275 9.39241C2.34926 9.39241 2.461 9.34614 2.54338 9.26376L2.67025 9.1325V9.39062C2.67025 10.3189 3.039 11.2092 3.69538 11.8655C4.35176 12.5219 5.242 12.8907 6.17025 12.8907H7.509C7.62504 12.8907 7.73632 12.8446 7.81836 12.7625C7.90041 12.6805 7.9465 12.5692 7.9465 12.4532C7.9465 12.3371 7.90041 12.2259 7.81836 12.1438C7.73632 12.0618 7.62504 12.0157 7.509 12.0157Z" fill="white"/>
</g>
</svg>
