<svg width="31" height="32" viewBox="0 0 31 32" fill="none" xmlns="http://www.w3.org/2000/svg">
<g clip-path="url(#clip0_421_4575)">
<path d="M15.5 0.0859375C9.09075 0.0859375 3.875 5.33785 3.875 11.7949C3.875 20.9696 14.4073 30.4427 14.8555 30.8405C15.0402 31.0046 15.2701 31.0859 15.5 31.0859C15.7299 31.0859 15.9598 31.0046 16.1445 30.8418C16.5927 30.4427 27.125 20.9696 27.125 11.7949C27.125 5.33785 21.9093 0.0859375 15.5 0.0859375ZM15.5 18.1693C11.9389 18.1693 9.04167 15.2721 9.04167 11.7109C9.04167 8.14981 11.9389 5.2526 15.5 5.2526C19.0611 5.2526 21.9583 8.14981 21.9583 11.7109C21.9583 15.2721 19.0611 18.1693 15.5 18.1693Z" fill="white"/>
</g>
<defs>
<clipPath id="clip0_421_4575">
<rect width="31" height="31" fill="white" transform="translate(0 0.0859375)"/>
</clipPath>
</defs>
</svg>
