<svg width="32" height="32" viewBox="0 0 32 32" fill="none" xmlns="http://www.w3.org/2000/svg">
<g clip-path="url(#clip0_426_9039)">
<g clip-path="url(#clip1_426_9039)">
<path d="M27.3438 6.32031H3.90625C3.64725 6.32031 3.39885 6.4232 3.21572 6.60634C3.03258 6.78948 2.92969 7.03788 2.92969 7.29688V23.8984C2.92969 24.4164 3.13547 24.9133 3.50174 25.2796C3.86802 25.6458 4.36482 25.8516 4.88281 25.8516H26.3672C26.8852 25.8516 27.382 25.6458 27.7483 25.2796C28.1146 24.9133 28.3203 24.4164 28.3203 23.8984V7.29688C28.3203 7.03788 28.2174 6.78948 28.0342 6.60634C27.8512 6.4232 27.6027 6.32031 27.3438 6.32031ZM15.625 16.7146L6.41724 8.27344H24.8328L15.625 16.7146ZM12.0496 16.0859L4.88281 22.6546V9.51733L12.0496 16.0859ZM13.4949 17.4104L14.9598 18.7592C15.1398 18.9246 15.3755 19.0164 15.6202 19.0164C15.8647 19.0164 16.1004 18.9246 16.2805 18.7592L17.7453 17.4104L24.8254 23.8984H6.41724L13.4949 17.4104ZM19.2004 16.0859L26.3672 9.51612V22.6557L19.2004 16.0859Z" fill="white"/>
</g>
</g>
<defs>
<clipPath id="clip0_426_9039">
<rect width="31.25" height="31.25" fill="white" transform="translate(0 0.460938)"/>
</clipPath>
<clipPath id="clip1_426_9039">
<rect width="31.25" height="31.25" fill="white" transform="translate(0 0.460938)"/>
</clipPath>
</defs>
</svg>
