<svg width="31" height="32" viewBox="0 0 31 32" fill="none" xmlns="http://www.w3.org/2000/svg">
<g clip-path="url(#clip0_426_9034)">
<path d="M26.9276 19.7742L21.2229 17.218L21.2071 17.2106C20.911 17.084 20.5879 17.0331 20.2672 17.0627C19.9464 17.0924 19.6381 17.2014 19.3702 17.3802C19.3386 17.401 19.3083 17.4237 19.2793 17.448L16.332 19.9607C14.4646 19.0537 12.5369 17.1405 11.6299 15.2974L14.1462 12.3052C14.1704 12.2749 14.1933 12.2446 14.2152 12.2119C14.3901 11.9446 14.4962 11.6383 14.5241 11.3201C14.552 11.002 14.5008 10.6818 14.3751 10.3882V10.3737L11.8115 4.65928C11.6453 4.27574 11.3595 3.95623 10.9968 3.74847C10.634 3.5407 10.2139 3.45581 9.79892 3.50647C8.15806 3.72239 6.6519 4.52822 5.56176 5.77346C4.47162 7.01871 3.87204 8.61819 3.87501 10.2732C3.87501 19.8881 11.6977 27.7107 21.3125 27.7107C22.9675 27.7136 24.567 27.1141 25.8123 26.0239C27.0574 24.9339 27.8633 23.4276 28.0793 21.7868C28.13 21.372 28.0453 20.9519 27.8377 20.5892C27.6302 20.2265 27.311 19.9407 26.9276 19.7742ZM21.3125 25.7732C17.2031 25.7687 13.2631 24.1342 10.3573 21.2284C7.45147 18.3226 5.81699 14.3826 5.81251 10.2732C5.80795 9.0907 6.23398 7.94698 7.01102 7.05562C7.78806 6.16426 8.86299 5.58621 10.035 5.42944C10.0346 5.43427 10.0346 5.43914 10.035 5.44397L12.578 11.1354L10.075 14.1313C10.0496 14.1604 10.0265 14.1917 10.006 14.2245C9.82376 14.5042 9.71686 14.826 9.69564 15.1592C9.67443 15.4923 9.73962 15.8251 9.88489 16.1256C10.982 18.3695 13.2428 20.6134 15.5108 21.7093C15.8136 21.8532 16.1484 21.9161 16.4827 21.892C16.817 21.8677 17.1394 21.7573 17.4181 21.5713C17.4493 21.5503 17.4791 21.5276 17.5078 21.5034L20.4515 18.9919L26.1429 21.5409C26.1429 21.5409 26.1526 21.5409 26.1562 21.5409C26.0014 22.7146 25.4243 23.7918 24.5328 24.5708C23.6411 25.3498 22.4964 25.7772 21.3125 25.7732Z" fill="white"/>
</g>
<defs>
<clipPath id="clip0_426_9034">
<rect width="31" height="31" fill="white" transform="translate(0 0.585938)"/>
</clipPath>
</defs>
</svg>
