<svg width="38" height="38" viewBox="0 0 38 38" fill="none" xmlns="http://www.w3.org/2000/svg">
<path d="M10.7324 29.9001H26.3955" stroke="#1A6AA3" stroke-width="1.74035" stroke-linecap="round" stroke-linejoin="round"/>
<path d="M18.5647 19.458C20.487 19.458 22.0454 17.8996 22.0454 15.9773C22.0454 14.055 20.487 12.4966 18.5647 12.4966C16.6423 12.4966 15.084 14.055 15.084 15.9773C15.084 17.8996 16.6423 19.458 18.5647 19.458Z" stroke="#1A6AA3" stroke-width="1.74035" stroke-linecap="round" stroke-linejoin="round"/>
<path d="M27.2648 15.9773C27.2648 23.8089 18.5631 29.9001 18.5631 29.9001C18.5631 29.9001 9.86133 23.8089 9.86133 15.9773C9.86133 13.6695 10.7781 11.4561 12.41 9.82425C14.0419 8.19236 16.2552 7.27557 18.5631 7.27557C20.8709 7.27557 23.0842 8.19236 24.7161 9.82425C26.348 11.4561 27.2648 13.6695 27.2648 15.9773Z" stroke="#1A6AA3" stroke-width="1.74035" stroke-linecap="round" stroke-linejoin="round"/>
</svg>
