<svg width="38" height="38" viewBox="0 0 38 38" fill="none" xmlns="http://www.w3.org/2000/svg">
<path d="M22.5223 21.0647C22.6428 20.9845 22.7814 20.9356 22.9256 20.9225C23.0697 20.9094 23.2149 20.9325 23.3479 20.9896L28.4776 23.288C28.6504 23.3618 28.7947 23.4897 28.8888 23.6525C28.983 23.8152 29.0218 24.0041 28.9997 24.1908C28.8307 25.4537 28.2088 26.6122 27.2496 27.4509C26.2904 28.2896 25.0593 28.7514 23.7851 28.7505C19.8618 28.7505 16.0992 27.1919 13.3249 24.4177C10.5507 21.6435 8.99219 17.8809 8.99219 13.9575C8.99121 12.6834 9.45303 11.4522 10.2918 10.4931C11.1305 9.5339 12.289 8.91199 13.5519 8.743C13.7386 8.72083 13.9274 8.75971 14.0902 8.85382C14.2529 8.94794 14.3808 9.09224 14.4547 9.26511L16.7531 14.3991C16.8095 14.531 16.8325 14.6748 16.82 14.8177C16.8075 14.9606 16.7598 15.0982 16.6813 15.2182L14.3568 17.9821C14.2744 18.1065 14.2256 18.2502 14.2153 18.3991C14.205 18.548 14.2335 18.697 14.2981 18.8316C15.1976 20.6731 17.1011 22.5537 18.9481 23.4446C19.0834 23.5089 19.2331 23.5367 19.3824 23.5255C19.5318 23.5142 19.6756 23.4642 19.7997 23.3804L22.5223 21.0647Z" stroke="#1A6AA3" stroke-width="1.74035" stroke-linecap="round" stroke-linejoin="round"/>
</svg>
