<svg width="52" height="52" viewBox="0 0 52 52" fill="none" xmlns="http://www.w3.org/2000/svg">
<mask id="mask0_421_4846" style="mask-type:alpha" maskUnits="userSpaceOnUse" x="0" y="0" width="52" height="52">
<g clip-path="url(#clip0_421_4846)">
<path d="M26.0518 45.125C25.4497 45.125 24.945 44.9214 24.5377 44.5141C24.1305 44.1068 23.9268 43.6021 23.9268 43V40.5563C22.3331 40.2021 20.9341 39.5823 19.7299 38.6969C18.5258 37.8115 17.5518 36.5719 16.8081 34.9781C16.5601 34.4823 16.5513 33.9599 16.7815 33.4109C17.0117 32.862 17.4279 32.4635 18.0299 32.2156C18.5258 32.0031 19.0393 32.012 19.5706 32.2422C20.1018 32.4724 20.5091 32.8531 20.7924 33.3844C21.3945 34.4469 22.156 35.2526 23.0768 35.8016C23.9976 36.3505 25.131 36.625 26.4768 36.625C27.9289 36.625 29.1596 36.2974 30.169 35.6422C31.1784 34.987 31.6831 33.9688 31.6831 32.5875C31.6831 31.3479 31.2935 30.3651 30.5143 29.6391C29.7351 28.913 27.9289 28.0896 25.0956 27.1688C22.0497 26.2125 19.9601 25.0703 18.8268 23.7422C17.6935 22.4141 17.1268 20.7938 17.1268 18.8813C17.1268 16.5792 17.8706 14.7906 19.3581 13.5156C20.8456 12.2406 22.3685 11.5146 23.9268 11.3375V9C23.9268 8.39792 24.1305 7.89323 24.5377 7.48594C24.945 7.07865 25.4497 6.875 26.0518 6.875C26.6539 6.875 27.1586 7.07865 27.5659 7.48594C27.9732 7.89323 28.1768 8.39792 28.1768 9V11.3375C29.5226 11.55 30.6914 11.9839 31.6831 12.6391C32.6747 13.2943 33.4893 14.1 34.1268 15.0563C34.4456 15.5167 34.5075 16.0302 34.3127 16.5969C34.118 17.1635 33.7195 17.5708 33.1174 17.8188C32.6216 18.0312 32.1081 18.0401 31.5768 17.8453C31.0456 17.6505 30.5497 17.3052 30.0893 16.8094C29.6289 16.3135 29.0888 15.9328 28.469 15.6672C27.8492 15.4016 27.0789 15.2688 26.1581 15.2688C24.5997 15.2688 23.4133 15.6141 22.5987 16.3047C21.7841 16.9953 21.3768 17.8542 21.3768 18.8813C21.3768 20.05 21.9081 20.9708 22.9706 21.6438C24.0331 22.3167 25.8747 23.025 28.4956 23.7688C30.9393 24.4771 32.7898 25.6016 34.0471 27.1422C35.3044 28.6828 35.9331 30.4625 35.9331 32.4813C35.9331 34.9958 35.1893 36.9083 33.7018 38.2188C32.2143 39.5292 30.3726 40.3438 28.1768 40.6625V43C28.1768 43.6021 27.9732 44.1068 27.5659 44.5141C27.1586 44.9214 26.6539 45.125 26.0518 45.125Z" fill="#E8EAED"/>
</g>
</mask>
<g mask="url(#mask0_421_4846)">
<rect x="0.5" y="0.5" width="51" height="51" fill="#1A6AA3"/>
</g>
<defs>
<clipPath id="clip0_421_4846">
<rect width="51" height="51" fill="white" transform="translate(0.5 0.5)"/>
</clipPath>
</defs>
</svg>
