<svg width="47" height="51" viewBox="0 0 47 51" fill="none" xmlns="http://www.w3.org/2000/svg">
<mask id="mask0_421_4990" style="mask-type:alpha" maskUnits="userSpaceOnUse" x="0" y="0" width="52" height="51">
<g clip-path="url(#clip0_421_4990)">
<path d="M13.25 46.75C12.0813 46.75 11.0807 46.3339 10.2484 45.5016C9.41615 44.6693 9 43.6688 9 42.5V17C9 15.8313 9.41615 14.8307 10.2484 13.9984C11.0807 13.1661 12.0813 12.75 13.25 12.75H17.5C17.5 10.4125 18.3323 8.41146 19.9969 6.74688C21.6615 5.08229 23.6625 4.25 26 4.25C28.3375 4.25 30.3385 5.08229 32.0031 6.74688C33.6677 8.41146 34.5 10.4125 34.5 12.75H38.75C39.9188 12.75 40.9193 13.1661 41.7516 13.9984C42.5839 14.8307 43 15.8313 43 17V42.5C43 43.6688 42.5839 44.6693 41.7516 45.5016C40.9193 46.3339 39.9188 46.75 38.75 46.75H13.25ZM13.25 42.5H38.75V17H34.5V21.25C34.5 21.8521 34.2964 22.3568 33.8891 22.7641C33.4818 23.1714 32.9771 23.375 32.375 23.375C31.7729 23.375 31.2682 23.1714 30.8609 22.7641C30.4536 22.3568 30.25 21.8521 30.25 21.25V17H21.75V21.25C21.75 21.8521 21.5464 22.3568 21.1391 22.7641C20.7318 23.1714 20.2271 23.375 19.625 23.375C19.0229 23.375 18.5182 23.1714 18.1109 22.7641C17.7036 22.3568 17.5 21.8521 17.5 21.25V17H13.25V42.5ZM21.75 12.75H30.25C30.25 11.5813 29.8339 10.5807 29.0016 9.74844C28.1693 8.91615 27.1688 8.5 26 8.5C24.8313 8.5 23.8307 8.91615 22.9984 9.74844C22.1661 10.5807 21.75 11.5813 21.75 12.75Z" fill="#E8EAED"/>
</g>
</mask>
<g mask="url(#mask0_421_4990)">
<rect x="0.5" width="51" height="51" fill="#192020"/>
</g>
<defs>
<clipPath id="clip0_421_4990">
<rect width="51" height="51" fill="white" transform="translate(0.5)"/>
</clipPath>
</defs>
</svg>
