<svg width="51" height="51" viewBox="0 0 51 51" fill="none" xmlns="http://www.w3.org/2000/svg">
<mask id="mask0_421_4774" style="mask-type:alpha" maskUnits="userSpaceOnUse" x="0" y="0" width="51" height="51">
<g clip-path="url(#clip0_421_4774)">
<path d="M25.5 10.8375C26.7042 9.42083 28.1385 8.32292 29.8031 7.54375C31.4677 6.76458 33.2208 6.375 35.0625 6.375C38.1792 6.375 40.8266 7.36667 43.0047 9.35C45.1828 11.3333 46.4135 13.8833 46.6969 17C46.7323 17.6021 46.5464 18.1068 46.1391 18.5141C45.7318 18.9214 45.2271 19.1427 44.625 19.1781C44.0229 19.2135 43.5182 19.0276 43.1109 18.6203C42.7036 18.213 42.4823 17.7083 42.4469 17.1063C42.2344 15.1938 41.4464 13.6354 40.0828 12.4313C38.7193 11.2271 37.0458 10.625 35.0625 10.625C33.6458 10.625 32.3089 10.9792 31.0516 11.6875C29.7943 12.3958 28.8115 13.3167 28.1031 14.45C27.7844 14.9458 27.3859 15.3177 26.9078 15.5656C26.4297 15.8135 25.9427 15.9375 25.4469 15.9375C24.951 15.9375 24.4729 15.8135 24.0125 15.5656C23.5521 15.3177 23.1802 14.9458 22.8969 14.45C22.1885 13.3167 21.2057 12.3958 19.9484 11.6875C18.6911 10.9792 17.3542 10.625 15.9375 10.625C13.9542 10.625 12.2807 11.2271 10.9172 12.4313C9.55365 13.6354 8.76562 15.1938 8.55313 17.1063C8.51771 17.7083 8.29635 18.213 7.88906 18.6203C7.48177 19.0276 6.97708 19.2135 6.375 19.1781C5.77292 19.1427 5.26823 18.9214 4.86094 18.5141C4.45365 18.1068 4.26771 17.6021 4.30313 17C4.58646 13.8833 5.81719 11.3333 7.99531 9.35C10.1734 7.36667 12.8208 6.375 15.9375 6.375C17.7792 6.375 19.5323 6.76458 21.1969 7.54375C22.8615 8.32292 24.2958 9.42083 25.5 10.8375ZM25.5 43.9344C25.0042 43.9344 24.5083 43.8458 24.0125 43.6688C23.5167 43.4917 23.074 43.2083 22.6844 42.8188C21.1615 41.4729 19.7536 40.1891 18.4609 38.9672C17.1682 37.7453 15.9552 36.5854 14.8219 35.4875C14.326 34.9917 14.1047 34.4693 14.1578 33.9203C14.2109 33.3714 14.4323 32.9021 14.8219 32.5125C15.2115 32.1229 15.6807 31.9016 16.2297 31.8484C16.7786 31.7953 17.301 31.999 17.7969 32.4594C18.8594 33.4865 20.0193 34.5932 21.2766 35.7797C22.5339 36.9661 23.9417 38.25 25.5 39.6313C27.0583 38.25 28.4661 36.9661 29.7234 35.7797C30.9807 34.5932 32.1406 33.4865 33.2031 32.4594C33.699 31.9635 34.2214 31.7599 34.7703 31.8484C35.3193 31.937 35.7885 32.176 36.1781 32.5656C36.5677 32.9552 36.7802 33.4333 36.8156 34C36.851 34.5667 36.6208 35.0979 36.125 35.5938C34.9917 36.6562 33.7786 37.7896 32.4859 38.9938C31.1932 40.1979 29.8031 41.4729 28.3156 42.8188C27.926 43.2083 27.4833 43.4917 26.9875 43.6688C26.4917 43.8458 25.9958 43.9344 25.5 43.9344ZM23.4813 34C23.9417 34 24.3401 33.8672 24.6766 33.6016C25.013 33.3359 25.2521 32.9906 25.3938 32.5656L28.2625 23.9062L30.1219 26.6688C30.299 26.9521 30.5469 27.1823 30.8656 27.3594C31.1844 27.5365 31.5208 27.625 31.875 27.625H46.75C47.3521 27.625 47.8568 27.4214 48.2641 27.0141C48.6714 26.6068 48.875 26.1021 48.875 25.5C48.875 24.8979 48.6714 24.3932 48.2641 23.9859C47.8568 23.5786 47.3521 23.375 46.75 23.375H33.0969L29.4313 17.9563C29.2188 17.6375 28.9443 17.3984 28.6078 17.2391C28.2714 17.0797 27.9083 17 27.5188 17C27.0583 17 26.6599 17.1328 26.3234 17.3984C25.987 17.6641 25.7479 18.0094 25.6063 18.4344L22.7375 27.0406L20.9312 24.3313C20.7542 24.0479 20.5063 23.8177 20.1875 23.6406C19.8687 23.4635 19.5323 23.375 19.1781 23.375H4.25C3.64792 23.375 3.14323 23.5786 2.73594 23.9859C2.32865 24.3932 2.125 24.8979 2.125 25.5C2.125 26.1021 2.32865 26.6068 2.73594 27.0141C3.14323 27.4214 3.64792 27.625 4.25 27.625H17.9031L21.5688 33.0438C21.7812 33.3625 22.0557 33.6016 22.3922 33.7609C22.7286 33.9203 23.0917 34 23.4813 34Z" fill="#E8EAED"/>
</g>
</mask>
<g mask="url(#mask0_421_4774)">
<rect width="51" height="51" fill="#1a6aa3"/>
</g>
<defs>
<clipPath id="clip0_421_4774">
<rect width="51" height="51" fill="white"/>
</clipPath>
</defs>
</svg>
