<svg width="52" height="52" viewBox="0 0 52 52" fill="none" xmlns="http://www.w3.org/2000/svg">
<mask id="mask0_421_4918" style="mask-type:alpha" maskUnits="userSpaceOnUse" x="0" y="0" width="52" height="52">
<g clip-path="url(#clip0_421_4918)">
<path d="M30.1438 43.8498L42.7875 39.9186C42.6104 39.5998 42.3536 39.3253 42.0172 39.0951C41.6807 38.8649 41.3 38.7498 40.875 38.7498H30.1438C29.1875 38.7498 28.426 38.7144 27.8594 38.6436C27.2927 38.5727 26.7083 38.4311 26.1063 38.2186L23.0781 37.2092C22.5115 37.0321 22.1042 36.6779 21.8563 36.1467C21.6083 35.6154 21.5729 35.0665 21.75 34.4998C21.9271 33.9331 22.2724 33.517 22.7859 33.2514C23.2995 32.9857 23.8396 32.9415 24.4062 33.1186L26.6375 33.8623C27.2396 34.0394 27.9214 34.1811 28.6828 34.2873C29.4443 34.3936 30.4802 34.4644 31.7906 34.4998H32.375C32.375 34.1102 32.2599 33.7383 32.0297 33.3842C31.7995 33.03 31.525 32.7998 31.2063 32.6936L18.775 28.1248H15.375V39.8123L30.1438 43.8498ZM29.0281 47.9936L15.375 44.1686C15.0917 45.0894 14.5339 45.8331 13.7016 46.3998C12.8693 46.9665 12.0104 47.2498 11.125 47.2498H6.875C5.70625 47.2498 4.70573 46.8337 3.87344 46.0014C3.04115 45.1691 2.625 44.1686 2.625 42.9998V28.1248C2.625 26.9561 3.04115 25.9555 3.87344 25.1232C4.70573 24.291 5.70625 23.8748 6.875 23.8748H18.775C19.0229 23.8748 19.2708 23.9014 19.5188 23.9545C19.7667 24.0076 19.9969 24.0696 20.2094 24.1404L32.6938 28.7623C33.8625 29.1873 34.8099 29.9311 35.5359 30.9936C36.262 32.0561 36.625 33.2248 36.625 34.4998H40.875C42.6458 34.4998 44.151 35.0842 45.3906 36.2529C46.6302 37.4217 47.25 38.9623 47.25 40.8748C47.25 41.654 47.0464 42.2649 46.6391 42.7076C46.2318 43.1503 45.6031 43.5133 44.7531 43.7967L31.4719 47.9404C31.0823 48.0821 30.675 48.1529 30.25 48.1529C29.825 48.1529 29.4177 48.0998 29.0281 47.9936ZM6.875 42.9998H11.125V28.1248H6.875V42.9998ZM30.25 4.64355C30.675 4.64355 31.0911 4.70553 31.4984 4.82949C31.9057 4.95345 32.3042 5.1571 32.6938 5.44043L43.3188 13.0373C43.8854 13.4269 44.3281 13.9227 44.6469 14.5248C44.9656 15.1269 45.125 15.7821 45.125 16.4904V28.1248C45.125 28.7269 44.9214 29.2316 44.5141 29.6389C44.1068 30.0462 43.6021 30.2498 43 30.2498C42.3979 30.2498 41.8932 30.0462 41.4859 29.6389C41.0786 29.2316 40.875 28.7269 40.875 28.1248V16.4373L30.25 8.9998L19.625 16.4373V17.4998C19.625 18.1019 19.4214 18.6066 19.0141 19.0139C18.6068 19.4212 18.1021 19.6248 17.5 19.6248C16.8979 19.6248 16.3932 19.4212 15.9859 19.0139C15.5786 18.6066 15.375 18.1019 15.375 17.4998V16.4904C15.375 15.7821 15.5344 15.1269 15.8531 14.5248C16.1719 13.9227 16.6146 13.4269 17.1813 13.0373L27.8063 5.44043C28.1958 5.1571 28.5943 4.95345 29.0016 4.82949C29.4089 4.70553 29.825 4.64355 30.25 4.64355ZM28.125 17.4998C28.4083 17.4998 28.6562 17.3936 28.8688 17.1811C29.0813 16.9686 29.1875 16.7206 29.1875 16.4373C29.1875 16.154 29.0813 15.9061 28.8688 15.6936C28.6562 15.4811 28.4083 15.3748 28.125 15.3748C27.8417 15.3748 27.5938 15.4811 27.3813 15.6936C27.1688 15.9061 27.0625 16.154 27.0625 16.4373C27.0625 16.7206 27.1688 16.9686 27.3813 17.1811C27.5938 17.3936 27.8417 17.4998 28.125 17.4998ZM32.375 17.4998C32.6583 17.4998 32.9062 17.3936 33.1188 17.1811C33.3313 16.9686 33.4375 16.7206 33.4375 16.4373C33.4375 16.154 33.3313 15.9061 33.1188 15.6936C32.9062 15.4811 32.6583 15.3748 32.375 15.3748C32.0917 15.3748 31.8438 15.4811 31.6313 15.6936C31.4188 15.9061 31.3125 16.154 31.3125 16.4373C31.3125 16.7206 31.4188 16.9686 31.6313 17.1811C31.8438 17.3936 32.0917 17.4998 32.375 17.4998ZM28.125 21.7498C28.4083 21.7498 28.6562 21.6436 28.8688 21.4311C29.0813 21.2186 29.1875 20.9706 29.1875 20.6873C29.1875 20.404 29.0813 20.1561 28.8688 19.9436C28.6562 19.7311 28.4083 19.6248 28.125 19.6248C27.8417 19.6248 27.5938 19.7311 27.3813 19.9436C27.1688 20.1561 27.0625 20.404 27.0625 20.6873C27.0625 20.9706 27.1688 21.2186 27.3813 21.4311C27.5938 21.6436 27.8417 21.7498 28.125 21.7498ZM32.375 21.7498C32.6583 21.7498 32.9062 21.6436 33.1188 21.4311C33.3313 21.2186 33.4375 20.9706 33.4375 20.6873C33.4375 20.404 33.3313 20.1561 33.1188 19.9436C32.9062 19.7311 32.6583 19.6248 32.375 19.6248C32.0917 19.6248 31.8438 19.7311 31.6313 19.9436C31.4188 20.1561 31.3125 20.404 31.3125 20.6873C31.3125 20.9706 31.4188 21.2186 31.6313 21.4311C31.8438 21.6436 32.0917 21.7498 32.375 21.7498Z" fill="#E8EAED"/>
</g>
</mask>
<g mask="url(#mask0_421_4918)">
<rect x="0.5" y="0.5" width="51" height="51" fill="#192020"/>
</g>
<defs>
<clipPath id="clip0_421_4918">
<rect width="51" height="51" fill="white" transform="translate(0.5 0.5)"/>
</clipPath>
</defs>
</svg>
