<svg width="48" height="49" viewBox="0 0 48 49" fill="none" xmlns="http://www.w3.org/2000/svg">
<g clip-path="url(#clip0_661_3366)">
<g clip-path="url(#clip1_661_3366)">
<path fill-rule="evenodd" clip-rule="evenodd" d="M24.0077 8.80615C20.8692 8.80615 17.801 9.73685 15.1913 11.4806C12.5817 13.2243 10.5477 15.7027 9.34664 18.6023C8.14555 21.5019 7.83129 24.6928 8.44359 27.771C9.0559 30.8494 10.5673 33.6768 12.7866 35.8963C15.0059 38.1156 17.8335 39.6269 20.9118 40.2393C23.99 40.8516 27.1809 40.5372 30.0805 39.3361C32.9802 38.135 35.4585 36.1012 37.2023 33.4916C38.9459 30.8819 39.8767 27.8136 39.8767 24.6751C39.8767 20.4664 38.2047 16.4301 35.2288 13.4541C32.2528 10.4781 28.2163 8.80615 24.0077 8.80615ZM34.4891 16.1218C36.4426 18.5013 37.5235 21.4775 37.5519 24.5561C34.4463 23.9472 31.2677 23.8022 28.1197 24.1257C28.0166 23.9015 27.9214 23.6615 27.8261 23.4195C27.5504 22.7649 27.2311 22.0945 26.9315 21.4577C29.8695 20.3621 32.4734 18.5237 34.4891 16.1218ZM24.0077 11.1468C27.3189 11.146 30.5155 12.3599 32.9915 14.5587C31.1372 16.8317 28.671 18.5264 25.8842 19.4423C24.3695 16.6917 22.6792 14.0414 20.824 11.5078C21.8675 11.2642 22.9359 11.143 24.0077 11.1468ZM18.2413 12.4203C20.0577 14.9376 21.7356 17.5519 23.2678 20.2517C19.1757 21.3197 14.9663 21.8727 10.7372 21.8981C11.1739 19.8472 12.0783 17.9248 13.3799 16.2809C14.6815 14.6369 16.3452 13.3157 18.2413 12.4203ZM10.4456 24.693V24.2784C15.1554 24.301 19.8443 23.6518 24.3707 22.3503C24.7674 23.1081 25.1284 23.8817 25.4716 24.6573L24.938 24.812C20.3645 26.4598 16.4826 29.6056 13.9229 33.7383C11.6861 31.2564 10.4475 28.0342 10.4456 24.693ZM24.0077 38.2372C20.9957 38.2439 18.0685 37.2402 15.6943 35.3867C18.0438 31.3215 21.8431 28.2945 26.3305 26.9127C26.3642 26.8948 26.3821 26.8948 26.4158 26.879C27.7045 30.2041 28.6732 33.6449 29.3079 37.1541C27.6337 37.8736 25.8298 38.2421 24.0077 38.2372ZM31.5633 35.9144C30.964 32.6275 30.0833 29.3982 28.931 26.262C31.7525 25.8506 34.6296 26.0536 37.3654 26.8571C37.0742 28.685 36.4085 30.433 35.4099 31.9916C34.4116 33.5501 33.102 34.8857 31.5633 35.9144Z" fill="#E94E25"/>
</g>
</g>
<defs>
<clipPath id="clip0_661_3366">
<rect width="47.607" height="47.607" fill="white" transform="translate(0.199219 0.869141)"/>
</clipPath>
<clipPath id="clip1_661_3366">
<rect width="47.607" height="47.607" fill="white" transform="translate(0.199219 0.869141)"/>
</clipPath>
</defs>
</svg>
