<svg width="39" height="38" viewBox="0 0 39 38" fill="none" xmlns="http://www.w3.org/2000/svg">
<path d="M34.9945 25.179C34.9945 30.8228 31.6299 34.1874 25.9861 34.1874H24.141C23.2882 34.1874 22.5905 33.4897 22.5905 32.6369V23.6905C22.5905 23.2718 22.9316 22.9152 23.3502 22.9152L26.0791 22.8687C26.2962 22.8532 26.4823 22.6982 26.5288 22.4811L27.0715 19.5196C27.118 19.2405 26.9009 18.9769 26.6063 18.9769L23.3037 19.0234C22.8695 19.0234 22.5285 18.6823 22.513 18.2637L22.4509 14.4649C22.4509 14.2169 22.6525 13.9998 22.9161 13.9998L26.6373 13.9378C26.9009 13.9378 27.1024 13.7362 27.1024 13.4726L27.0404 9.75138C27.0404 9.4878 26.8389 9.28625 26.5753 9.28625L22.3889 9.34828C19.815 9.3948 17.7684 11.5035 17.8149 14.0773L17.8924 18.3412C17.9079 18.7754 17.5668 19.1165 17.1327 19.132L15.2721 19.163C15.0085 19.163 14.8069 19.3645 14.8069 19.6281L14.8534 22.5741C14.8534 22.8377 15.055 23.0392 15.3186 23.0392L17.1792 23.0083C17.6134 23.0083 17.9544 23.3493 17.9699 23.768L18.1095 32.6059C18.125 33.4742 17.4273 34.1874 16.559 34.1874H12.9928C7.34897 34.1874 3.98438 30.8228 3.98438 25.1634V12.1857C3.98438 6.54184 7.34897 3.17725 12.9928 3.17725H25.9861C31.6299 3.17725 34.9945 6.54184 34.9945 12.1857V25.179Z" fill="#E94E25"/>
</svg>
