<svg width="38" height="38" viewBox="0 0 38 38" fill="none" xmlns="http://www.w3.org/2000/svg">
<path d="M25.2341 3.17725H12.2409C6.59702 3.17725 3.23242 6.54185 3.23242 12.1857V25.1634C3.23242 30.8228 6.59702 34.1874 12.2409 34.1874H25.2186C30.8625 34.1874 34.2271 30.8228 34.2271 25.1789V12.1857C34.2426 6.54185 30.878 3.17725 25.2341 3.17725ZM18.7375 24.6983C15.4194 24.6983 12.7215 22.0004 12.7215 18.6823C12.7215 15.3642 15.4194 12.6664 18.7375 12.6664C22.0556 12.6664 24.7535 15.3642 24.7535 18.6823C24.7535 22.0004 22.0556 24.6983 18.7375 24.6983ZM27.9165 10.7437C27.839 10.9298 27.7304 11.1003 27.5909 11.2554C27.4358 11.3949 27.2653 11.5035 27.0792 11.581C26.8932 11.6585 26.6916 11.705 26.49 11.705C26.0714 11.705 25.6838 11.55 25.3892 11.2554C25.2496 11.1003 25.1411 10.9298 25.0636 10.7437C24.986 10.5577 24.9395 10.3561 24.9395 10.1545C24.9395 9.95296 24.986 9.7514 25.0636 9.56534C25.1411 9.36377 25.2496 9.20872 25.3892 9.05367C25.7458 8.69705 26.2885 8.5265 26.7846 8.63503C26.8932 8.65054 26.9862 8.68155 27.0792 8.72806C27.1723 8.75907 27.2653 8.80559 27.3583 8.86761C27.4358 8.91412 27.5134 8.99165 27.5909 9.05367C27.7304 9.20872 27.839 9.36377 27.9165 9.56534C27.994 9.7514 28.0405 9.95296 28.0405 10.1545C28.0405 10.3561 27.994 10.5577 27.9165 10.7437Z" fill="#E94E25"/>
</svg>
