<svg width="45" height="46" viewBox="0 0 45 46" fill="none" xmlns="http://www.w3.org/2000/svg">
<g clip-path="url(#clip0_661_3346)">
<g clip-path="url(#clip1_661_3346)">
<path fill-rule="evenodd" clip-rule="evenodd" d="M37.3186 26.2678V37.1807H31.0699V26.9936C31.0699 24.4322 30.1698 22.6921 27.9196 22.6921C27.2178 22.6936 26.5336 22.9167 25.9605 23.3308C25.3874 23.7448 24.9532 24.3298 24.7172 25.0057C24.5467 25.5008 24.4703 26.0248 24.4922 26.5492V37.1702H18.2608C18.2608 37.1702 18.33 19.9236 18.2608 18.1375H24.4922V20.8353C24.4873 20.86 24.4753 20.8829 24.4576 20.9008H24.4922V20.8353C25.0648 19.8365 25.8926 19.016 26.8868 18.4621C27.881 17.9082 29.004 17.6418 30.1352 17.6915C34.2375 17.7003 37.3186 20.4192 37.3186 26.2678ZM11.3196 8.89027C11.78 8.87063 12.2396 8.94568 12.6711 9.11092C13.1026 9.27618 13.4974 9.52827 13.8319 9.85233C14.1664 10.1764 14.434 10.5658 14.6188 10.9974C14.8035 11.4291 14.9017 11.8943 14.9075 12.3655C14.9133 12.8367 14.8266 13.3043 14.6525 13.7406C14.4784 14.1769 14.2205 14.573 13.894 14.9056C13.5675 15.2381 13.1791 15.5003 12.7518 15.6766C12.3245 15.8529 11.8669 15.9397 11.4062 15.9319H11.3716C10.9106 15.95 10.4508 15.8732 10.0194 15.7061C9.58807 15.539 9.19391 15.2851 8.86035 14.9592C8.52676 14.6334 8.26059 14.2424 8.0776 13.8094C7.89459 13.3764 7.79851 12.9102 7.79502 12.4385C7.79155 11.9668 7.88075 11.4991 8.05734 11.0634C8.23393 10.6276 8.49431 10.2325 8.82303 9.90158C9.15176 9.57064 9.54214 9.31061 9.97099 9.13688C10.3999 8.96317 10.8585 8.8793 11.3196 8.89027ZM14.8335 37.1791H7.8577V17.7074H14.8335V37.1791Z" fill="#E94E25"/>
</g>
</g>
<defs>
<clipPath id="clip0_661_3346">
<rect width="44.2856" height="44.2856" fill="white" transform="translate(0.412109 0.892578)"/>
</clipPath>
<clipPath id="clip1_661_3346">
<rect width="44.2856" height="44.2856" fill="white" transform="translate(0.412109 0.892578)"/>
</clipPath>
</defs>
</svg>
