<svg width="34" height="25" viewBox="0 0 34 25" fill="none" xmlns="http://www.w3.org/2000/svg">
<path d="M12.5664 6.08607L22.8895 12.2604L12.5664 18.5217V6.08607ZM16.715 0.00683594C16.715 0.00683594 9.80218 0.00683634 5.10233 0.323471C4.47807 0.337276 3.86273 0.474492 3.29178 0.727189C2.72085 0.979887 2.20564 1.34306 1.77585 1.79577C1.02315 2.82527 0.547045 4.03038 0.392972 5.29609C0.392972 5.29609 0.0761719 8.14574 0.0761719 11.0539V13.7326C0.0761719 16.5822 0.392972 19.4888 0.392972 19.4888C0.546837 20.7547 1.02296 21.9597 1.77585 22.9892C2.74265 23.9395 4.01859 24.5114 5.37161 24.6009C8.04232 24.9175 16.6596 24.9175 16.6596 24.9175C16.6596 24.9175 23.5723 24.9175 28.2721 24.5027C28.8951 24.4878 29.5089 24.3501 30.0783 24.0975C30.648 23.8449 31.1617 23.4822 31.5906 23.0303C32.3435 22.0004 32.8195 20.7948 32.9736 19.5285C32.9736 19.5285 33.2904 16.6789 33.2904 13.7722V11.062C33.2829 9.13845 33.1772 7.21664 32.9736 5.304C32.8195 4.03875 32.3435 2.83409 31.5906 1.80528C31.1914 1.31738 30.683 0.929879 30.1068 0.673901C29.5305 0.417924 28.9021 0.300616 28.2721 0.33138C23.6182 0.0147453 16.7086 0.0147449 16.7086 0.0147449L16.715 0.00683594Z" fill="#E94E25"/>
</svg>
