<svg width="51" height="51" viewBox="0 0 51 51" fill="none" xmlns="http://www.w3.org/2000/svg">
<g clip-path="url(#clip0_661_3360)">
<path d="M21.5664 19.0861L31.8895 25.2604L21.5664 31.5217V19.0861ZM25.715 13.0068C25.715 13.0068 18.8022 13.0068 14.1023 13.3235C13.4781 13.3373 12.8627 13.4745 12.2918 13.7272C11.7209 13.9799 11.2056 14.3431 10.7758 14.7958C10.0231 15.8253 9.54704 17.0304 9.39297 18.2961C9.39297 18.2961 9.07617 21.1457 9.07617 24.0539V26.7326C9.07617 29.5822 9.39297 32.4888 9.39297 32.4888C9.54684 33.7547 10.023 34.9597 10.7758 35.9892C11.7426 36.9395 13.0186 37.5114 14.3716 37.6009C17.0423 37.9175 25.6596 37.9175 25.6596 37.9175C25.6596 37.9175 32.5723 37.9175 37.2721 37.5027C37.8951 37.4878 38.5089 37.3501 39.0783 37.0975C39.648 36.8449 40.1617 36.4822 40.5906 36.0303C41.3435 35.0004 41.8195 33.7948 41.9736 32.5285C41.9736 32.5285 42.2904 29.6789 42.2904 26.7722V24.062C42.2829 22.1385 42.1772 20.2166 41.9736 18.304C41.8195 17.0387 41.3435 15.8341 40.5906 14.8053C40.1914 14.3174 39.683 13.9299 39.1068 13.6739C38.5305 13.4179 37.9021 13.3006 37.2721 13.3314C32.6182 13.0147 25.7086 13.0147 25.7086 13.0147L25.715 13.0068Z" fill="#E94E25"/>
</g>
<defs>
<clipPath id="clip0_661_3360">
<rect width="49.8213" height="49.8213" fill="white" transform="translate(0.775391 0.552734)"/>
</clipPath>
</defs>
</svg>
