<svg width="55" height="55" viewBox="0 0 55 55" fill="none" xmlns="http://www.w3.org/2000/svg">
<path d="M27.5996 48.1C38.7834 48.1 47.8496 39.0338 47.8496 27.85C47.8496 16.6662 38.7834 7.60001 27.5996 7.60001C16.4158 7.60001 7.34961 16.6662 7.34961 27.85C7.34961 39.0338 16.4158 48.1 27.5996 48.1Z" stroke="black" stroke-width="2.7" stroke-linecap="round" stroke-linejoin="round"/>
<path d="M20.0059 30.3812C21.4038 30.3812 22.5371 29.2479 22.5371 27.85C22.5371 26.452 21.4038 25.3187 20.0059 25.3187C18.6079 25.3187 17.4746 26.452 17.4746 27.85C17.4746 29.2479 18.6079 30.3812 20.0059 30.3812Z" fill="black"/>
<path d="M35.1934 30.3812C36.5913 30.3812 37.7246 29.2479 37.7246 27.85C37.7246 26.452 36.5913 25.3187 35.1934 25.3187C33.7954 25.3187 32.6621 26.452 32.6621 27.85C32.6621 29.2479 33.7954 30.3812 35.1934 30.3812Z" fill="black"/>
<path d="M33.1895 36.2875C31.5328 37.3877 29.5883 37.9746 27.5996 37.9746C25.6109 37.9746 23.6664 37.3877 22.0098 36.2875" stroke="black" stroke-width="2.7" stroke-linecap="round" stroke-linejoin="round"/>
<path d="M27.5996 7.60001C24.2246 11.8188 24.2246 16.0375 24.2246 16.0375C24.2246 16.9326 24.5802 17.7911 25.2131 18.424C25.8461 19.0569 26.7045 19.4125 27.5996 19.4125C28.4947 19.4125 29.3532 19.0569 29.9861 18.424C30.619 17.7911 30.9746 16.9326 30.9746 16.0375" stroke="black" stroke-width="2.7" stroke-linecap="round" stroke-linejoin="round"/>
</svg>
