<svg width="55" height="55" viewBox="0 0 55 55" fill="none" xmlns="http://www.w3.org/2000/svg">
<path d="M19.2617 12.3125H14.1992C13.2672 12.3125 12.5117 13.068 12.5117 14V41C12.5117 41.932 13.2672 42.6875 14.1992 42.6875H19.2617C20.1937 42.6875 20.9492 41.932 20.9492 41V14C20.9492 13.068 20.1937 12.3125 19.2617 12.3125Z" stroke="black" stroke-width="2.7" stroke-linecap="round" stroke-linejoin="round"/>
<path d="M41.1992 12.3125H36.1367C35.2047 12.3125 34.4492 13.068 34.4492 14V41C34.4492 41.932 35.2047 42.6875 36.1367 42.6875H41.1992C42.1312 42.6875 42.8867 41.932 42.8867 41V14C42.8867 13.068 42.1312 12.3125 41.1992 12.3125Z" stroke="black" stroke-width="2.7" stroke-linecap="round" stroke-linejoin="round"/>
<path d="M42.8867 17.375H47.9492C48.3968 17.375 48.826 17.5528 49.1425 17.8693C49.4589 18.1857 49.6367 18.6149 49.6367 19.0625V35.9375C49.6367 36.3851 49.4589 36.8143 49.1425 37.1307C48.826 37.4472 48.3968 37.625 47.9492 37.625H42.8867" stroke="black" stroke-width="2.7" stroke-linecap="round" stroke-linejoin="round"/>
<path d="M12.5117 37.625H7.44922C7.00167 37.625 6.57244 37.4472 6.25598 37.1307C5.93951 36.8143 5.76172 36.3851 5.76172 35.9375V19.0625C5.76172 18.6149 5.93951 18.1857 6.25598 17.8693C6.57244 17.5528 7.00167 17.375 7.44922 17.375H12.5117" stroke="black" stroke-width="2.7" stroke-linecap="round" stroke-linejoin="round"/>
<path d="M20.9492 27.5H34.4492" stroke="black" stroke-width="2.7" stroke-linecap="round" stroke-linejoin="round"/>
<path d="M49.6367 27.5H53.0117" stroke="black" stroke-width="2.7" stroke-linecap="round" stroke-linejoin="round"/>
<path d="M2.38672 27.5H5.76172" stroke="black" stroke-width="2.7" stroke-linecap="round" stroke-linejoin="round"/>
</svg>
