<svg width="55" height="55" viewBox="0 0 55 55" fill="none" xmlns="http://www.w3.org/2000/svg">
<path d="M27.7988 19.4125V14.35" stroke="black" stroke-width="2.7" stroke-linecap="round" stroke-linejoin="round"/>
<path d="M27.7988 14.35C37.5441 10.975 27.7988 2.53751 27.7988 2.53751C27.7988 2.53751 17.6738 10.975 27.7988 14.35Z" stroke="black" stroke-width="2.7" stroke-linecap="round" stroke-linejoin="round"/>
<path d="M34.9707 27.4281C34.9707 29.3302 34.2151 31.1544 32.8701 32.4994C31.5251 33.8444 29.7009 34.6 27.7988 34.6C25.8967 34.6 24.0725 33.8444 22.7275 32.4994C21.3826 31.1544 20.627 29.3302 20.627 27.4281" stroke="black" stroke-width="2.7" stroke-linecap="round" stroke-linejoin="round"/>
<path d="M20.627 27.4281C20.6274 29.3049 19.8921 31.1071 18.5789 32.4479C17.2657 33.7888 15.4792 34.5614 13.6028 34.6C9.57387 34.6844 6.28325 31.3094 6.28325 27.2805V24.475C6.28046 23.8094 6.4095 23.1499 6.66292 22.5344C6.91635 21.9189 7.28914 21.3597 7.7598 20.8891C8.23045 20.4184 8.78964 20.0456 9.40512 19.7922C10.0206 19.5388 10.6801 19.4097 11.3457 19.4125H44.252C44.9176 19.4097 45.5772 19.5388 46.1926 19.7922C46.8081 20.0456 47.3673 20.4184 47.8379 20.8891C48.3086 21.3597 48.6814 21.9189 48.9348 22.5344C49.1882 23.1499 49.3173 23.8094 49.3145 24.475V27.2805C49.3145 31.3094 46.0239 34.6844 41.995 34.6C40.1186 34.5614 38.3321 33.7888 37.0189 32.4479C35.7057 31.1071 34.9704 29.3049 34.9707 27.4281" stroke="black" stroke-width="2.7" stroke-linecap="round" stroke-linejoin="round"/>
<path d="M46.3613 33.1867V44.725C46.3613 45.1725 46.1835 45.6018 45.8671 45.9182C45.5506 46.2347 45.1214 46.4125 44.6738 46.4125H10.9238C10.4763 46.4125 10.0471 46.2347 9.73059 45.9182C9.41412 45.6018 9.23633 45.1725 9.23633 44.725V33.1867" stroke="black" stroke-width="2.7" stroke-linecap="round" stroke-linejoin="round"/>
</svg>
