<svg width="55" height="55" viewBox="0 0 55 55" fill="none" xmlns="http://www.w3.org/2000/svg">
<path d="M44.5742 9.1875H10.8242C9.89224 9.1875 9.13672 9.94302 9.13672 10.875V44.625C9.13672 45.557 9.89224 46.3125 10.8242 46.3125H44.5742C45.5062 46.3125 46.2617 45.557 46.2617 44.625V10.875C46.2617 9.94302 45.5062 9.1875 44.5742 9.1875Z" stroke="black" stroke-width="2.7" stroke-linecap="round" stroke-linejoin="round"/>
<path d="M37.8242 5.8125V12.5625" stroke="black" stroke-width="2.7" stroke-linecap="round" stroke-linejoin="round"/>
<path d="M17.5742 5.8125V12.5625" stroke="black" stroke-width="2.7" stroke-linecap="round" stroke-linejoin="round"/>
<path d="M9.13672 19.3125H46.2617" stroke="black" stroke-width="2.7" stroke-linecap="round" stroke-linejoin="round"/>
<path d="M20.1055 27.75H26.0117L22.6367 31.9688C23.1922 31.9678 23.7392 32.1039 24.2294 32.3651C24.7197 32.6263 25.1378 33.0044 25.4469 33.4659C25.7559 33.9275 25.9463 34.4581 26.001 35.0109C26.0558 35.5636 25.9733 36.1213 25.7609 36.6345C25.5485 37.1477 25.2127 37.6006 24.7833 37.9529C24.3539 38.3052 23.8442 38.5461 23.2993 38.6542C22.7545 38.7623 22.1914 38.7343 21.6601 38.5726C21.1287 38.4109 20.6454 38.1206 20.2531 37.7273" stroke="black" stroke-width="2.7" stroke-linecap="round" stroke-linejoin="round"/>
<path d="M31.0742 30.2812L34.4492 27.75V38.7188" stroke="black" stroke-width="2.7" stroke-linecap="round" stroke-linejoin="round"/>
</svg>
