<svg width="54" height="55" viewBox="0 0 54 55" fill="none" xmlns="http://www.w3.org/2000/svg">
<path d="M7.99266 44.3539L19.3411 13.1141C19.4382 12.8467 19.6014 12.6083 19.8154 12.4209C20.0293 12.2335 20.2872 12.1033 20.565 12.0423C20.8428 11.9812 21.1315 11.9914 21.4043 12.0718C21.6772 12.1523 21.9252 12.3004 22.1255 12.5023L41.9958 32.3727C42.1978 32.5729 42.3459 32.821 42.4263 33.0938C42.5067 33.3666 42.5169 33.6553 42.4559 33.9331C42.3948 34.2109 42.2646 34.4688 42.0772 34.6828C41.8898 34.8967 41.6514 35.0599 41.3841 35.157L10.1442 46.5055C9.84367 46.6204 9.51629 46.6458 9.20161 46.5787C8.88693 46.5115 8.59841 46.3547 8.37089 46.1272C8.14337 45.8997 7.98659 45.6112 7.91947 45.2965C7.85235 44.9818 7.87777 44.6545 7.99266 44.3539V44.3539Z" stroke="black" stroke-width="2.7" stroke-linecap="round" stroke-linejoin="round"/>
<path d="M35.4375 15.6875C35.4375 15.6875 35.4375 10.625 40.5 10.625C45.5625 10.625 45.5625 5.5625 45.5625 5.5625" stroke="black" stroke-width="2.7" stroke-linecap="round" stroke-linejoin="round"/>
<path d="M21.6004 42.35L12.1504 32.9" stroke="black" stroke-width="2.7" stroke-linecap="round" stroke-linejoin="round"/>
<path d="M30.375 3.875V8.9375" stroke="black" stroke-width="2.7" stroke-linecap="round" stroke-linejoin="round"/>
<path d="M45.5625 24.125L48.9375 27.5" stroke="black" stroke-width="2.7" stroke-linecap="round" stroke-linejoin="round"/>
<path d="M45.5625 17.375L50.625 15.6875" stroke="black" stroke-width="2.7" stroke-linecap="round" stroke-linejoin="round"/>
<path d="M16.1992 21.7625L32.7367 38.3" stroke="black" stroke-width="2.7" stroke-linecap="round" stroke-linejoin="round"/>
</svg>
