<svg width="55" height="55" viewBox="0 0 55 55" fill="none" xmlns="http://www.w3.org/2000/svg">
<path d="M15.2441 42.9375C19.4381 42.9375 22.8379 39.5377 22.8379 35.3438C22.8379 31.1498 19.4381 27.75 15.2441 27.75C11.0502 27.75 7.65039 31.1498 7.65039 35.3438C7.65039 39.5377 11.0502 42.9375 15.2441 42.9375Z" stroke="black" stroke-width="2.7" stroke-linecap="round" stroke-linejoin="round"/>
<path d="M40.5566 42.9375C44.7506 42.9375 48.1504 39.5377 48.1504 35.3438C48.1504 31.1498 44.7506 27.75 40.5566 27.75C36.3627 27.75 32.9629 31.1498 32.9629 35.3438C32.9629 39.5377 36.3627 42.9375 40.5566 42.9375Z" stroke="black" stroke-width="2.7" stroke-linecap="round" stroke-linejoin="round"/>
<path d="M22.8379 34.5H32.9629" stroke="black" stroke-width="2.7" stroke-linecap="round" stroke-linejoin="round"/>
<path d="M7.65043 35.3438V15.9375C7.64764 15.2719 7.77668 14.6124 8.03011 13.9969C8.28354 13.3814 8.65633 12.8222 9.12698 12.3516C9.59764 11.8809 10.1568 11.5081 10.7723 11.2547C11.3878 11.0013 12.0473 10.8722 12.7129 10.875" stroke="black" stroke-width="2.7" stroke-linecap="round" stroke-linejoin="round"/>
<path d="M43.0879 10.875C43.7535 10.8722 44.4131 11.0013 45.0285 11.2547C45.644 11.5081 46.2032 11.8809 46.6738 12.3516C47.1445 12.8222 47.5173 13.3814 47.7707 13.9969C48.0241 14.6124 48.1532 15.2719 48.1504 15.9375V35.3438" stroke="black" stroke-width="2.7" stroke-linecap="round" stroke-linejoin="round"/>
</svg>
