<svg width="55" height="55" viewBox="0 0 55 55" fill="none" xmlns="http://www.w3.org/2000/svg">
<path d="M11.8259 26.2133C11.5766 25.7811 11.2447 25.4024 10.849 25.0985C10.4533 24.7947 10.0016 24.5718 9.51974 24.4425C9.03789 24.3132 8.5353 24.2801 8.04065 24.3451C7.54601 24.41 7.06901 24.5718 6.63687 24.8211C6.20474 25.0704 5.82595 25.4024 5.52212 25.7981C5.21829 26.1938 4.99537 26.6454 4.86609 27.1273C4.73681 27.6091 4.70371 28.1117 4.76867 28.6064C4.83363 29.101 4.99538 29.578 5.24469 30.0102L13.0494 43.5312C15.084 46.9783 18.3972 49.4827 22.2685 50.5001C26.1398 51.5174 30.2561 50.9653 33.7225 48.9638C37.189 46.9624 39.7251 43.6734 40.7795 39.812C41.8339 35.9507 41.3214 31.8292 39.3533 28.3437L35.7673 22.1211C35.2329 21.3151 34.4112 20.7434 33.4697 20.5227C32.5282 20.3019 31.5379 20.4487 30.7009 20.9332C29.864 21.4176 29.2434 22.2031 28.9658 23.1294C28.6882 24.0558 28.7746 25.0531 29.2072 25.918" stroke="black" stroke-width="2.7" stroke-linecap="round" stroke-linejoin="round"/>
<path d="M23.4705 31.1914L15.4548 17.3117C15.2055 16.8796 14.8736 16.5008 14.4779 16.197C14.0822 15.8931 13.6305 15.6702 13.1486 15.5409C12.6668 15.4116 12.1642 15.3785 11.6696 15.4435C11.1749 15.5085 10.6979 15.6702 10.2658 15.9195C9.83365 16.1688 9.45485 16.5008 9.15102 16.8965C8.84719 17.2922 8.62427 17.7439 8.495 18.2257C8.36572 18.7076 8.33262 19.2102 8.39758 19.7048C8.46254 20.1994 8.62429 20.6765 8.87359 21.1086L16.8892 34.9883" stroke="black" stroke-width="2.7" stroke-linecap="round" stroke-linejoin="round"/>
<path d="M32.5818 31.782L23.7224 16.4258C23.2189 15.5531 22.3894 14.9161 21.4162 14.655C20.4431 14.3939 19.4061 14.5301 18.5334 15.0336C17.6606 15.5371 17.0237 16.3667 16.7626 17.3398C16.5015 18.3129 16.6377 19.3499 17.1412 20.2227" stroke="black" stroke-width="2.7" stroke-linecap="round" stroke-linejoin="round"/>
<path d="M21.7818 14.7805L19.6091 11.0047C19.1057 10.132 18.2761 9.49498 17.303 9.2339C16.3298 8.97281 15.2928 9.109 14.4201 9.61249C13.5474 10.116 12.9104 10.9456 12.6493 11.9187C12.3882 12.8918 12.5244 13.9288 13.0279 14.8016L13.5341 15.6664" stroke="black" stroke-width="2.7" stroke-linecap="round" stroke-linejoin="round"/>
<path d="M40.5568 40.8945C43.1313 38.5633 44.8303 35.4211 45.3714 31.9904C45.9125 28.5597 45.263 25.0471 43.531 22.0367L39.9451 15.8351C39.6958 15.403 39.3638 15.0242 38.9681 14.7204C38.5724 14.4166 38.1207 14.1936 37.6389 14.0644C37.157 13.9351 36.6544 13.902 36.1598 13.9669C35.6652 14.0319 35.1881 14.1937 34.756 14.443C34.3239 14.6923 33.9451 15.0242 33.6413 15.4199C33.3374 15.8156 33.1145 16.2673 32.9852 16.7492C32.856 17.231 32.8229 17.7336 32.8878 18.2282C32.9528 18.7229 33.1145 19.1999 33.3638 19.632" stroke="black" stroke-width="2.7" stroke-linecap="round" stroke-linejoin="round"/>
<path d="M33.8482 20.4758L27.8787 10.1398C27.3752 9.26712 26.5456 8.63015 25.5725 8.36906C24.5993 8.10797 23.5623 8.24416 22.6896 8.74766C21.8169 9.25115 21.1799 10.0807 20.9188 11.0539C20.6577 12.027 20.7939 13.064 21.2974 13.9367" stroke="black" stroke-width="2.7" stroke-linecap="round" stroke-linejoin="round"/>
<path d="M38.1949 2.88359L37.3301 6.13203" stroke="black" stroke-width="2.7" stroke-linecap="round" stroke-linejoin="round"/>
<path d="M44.5852 5.85782L42.6445 8.6211" stroke="black" stroke-width="2.7" stroke-linecap="round" stroke-linejoin="round"/>
<path d="M49.5426 10.8148L46.7793 12.7555" stroke="black" stroke-width="2.7" stroke-linecap="round" stroke-linejoin="round"/>
</svg>
