<svg width="55" height="55" viewBox="0 0 55 55" fill="none" xmlns="http://www.w3.org/2000/svg">
<path d="M20.4488 39.6891C18.0441 46.8399 8.50977 46.8399 8.50977 46.8399C8.50977 46.8399 8.50977 37.3055 15.6605 34.9008" stroke="black" stroke-width="2.7" stroke-linecap="round" stroke-linejoin="round"/>
<path d="M41.923 22.9828L27.6004 37.3055L18.0449 27.75L32.3676 13.4273C37.7887 8.00624 43.2098 8.06953 45.5301 8.40703C45.8881 8.45479 46.2205 8.61906 46.4759 8.87448C46.7313 9.12989 46.8956 9.46227 46.9434 9.82031C47.2809 12.1406 47.3441 17.5617 41.923 22.9828Z" stroke="black" stroke-width="2.7" stroke-linecap="round" stroke-linejoin="round"/>
<path d="M39.5387 25.3664V38.993C39.5323 39.4381 39.3504 39.8626 39.0324 40.1742L32.2191 47.0086C32.003 47.2245 31.7323 47.3777 31.4359 47.4518C31.1395 47.5259 30.8285 47.5181 30.5362 47.4293C30.2439 47.3405 29.9811 47.1741 29.776 46.9477C29.5709 46.7212 29.4311 46.4434 29.3715 46.1437L27.5996 37.3055" stroke="black" stroke-width="2.7" stroke-linecap="round" stroke-linejoin="round"/>
<path d="M29.9834 15.8109H16.3569C15.9117 15.8173 15.4872 15.9992 15.1756 16.3172L8.34123 23.1305C8.12532 23.3466 7.97214 23.6173 7.89804 23.9137C7.82394 24.2101 7.8317 24.5211 7.92048 24.8134C8.00926 25.1057 8.17574 25.3685 8.40215 25.5736C8.62857 25.7787 8.90642 25.9186 9.20607 25.9781L18.0444 27.75" stroke="black" stroke-width="2.7" stroke-linecap="round" stroke-linejoin="round"/>
</svg>
