<svg width="55" height="55" viewBox="0 0 55 55" fill="none" xmlns="http://www.w3.org/2000/svg">
<path d="M27.6992 27.85L47.9492 7.60001" stroke="black" stroke-width="2.7" stroke-linecap="round" stroke-linejoin="round"/>
<path d="M42.0219 13.5274C38.4319 9.92656 33.6209 7.80474 28.5411 7.58187C23.4613 7.35899 18.4829 9.05131 14.5914 12.3239C10.6998 15.5964 8.17861 20.2107 7.52684 25.2534C6.87506 30.2961 8.14019 35.3998 11.0718 39.5543C14.0035 43.7087 18.3879 46.6112 23.3574 47.6872C28.327 48.7632 33.5194 47.9343 37.9069 45.3646C42.2944 42.7949 45.5574 38.6717 47.0499 33.811C48.5424 28.9503 48.1558 23.7064 45.9664 19.1172" stroke="black" stroke-width="2.7" stroke-linecap="round" stroke-linejoin="round"/>
<path d="M34.8497 20.6992C33.1775 19.0316 30.9739 18.0025 28.6219 17.7906C26.2698 17.5787 23.9178 18.1974 21.9744 19.5392C20.031 20.8811 18.619 22.8612 17.9838 25.1358C17.3485 27.4104 17.53 29.8356 18.4969 31.9902C19.4637 34.1449 21.1547 35.8928 23.2762 36.9303C25.3977 37.9679 27.8156 38.2295 30.1099 37.6698C32.4042 37.1101 34.43 35.7644 35.8354 33.8665C37.2407 31.9685 37.9369 29.6383 37.8029 27.2805" stroke="black" stroke-width="2.7" stroke-linecap="round" stroke-linejoin="round"/>
</svg>
