<svg width="55" height="55" viewBox="0 0 55 55" fill="none" xmlns="http://www.w3.org/2000/svg">
<path d="M9.23633 14.25V41.25C9.23633 42.1451 9.59191 43.0035 10.2248 43.6365C10.8578 44.2694 11.7162 44.625 12.6113 44.625H46.3613C46.8089 44.625 47.2381 44.4472 47.5546 44.1307C47.871 43.8143 48.0488 43.3851 48.0488 42.9375V19.3125C48.0488 18.8649 47.871 18.4357 47.5546 18.1193C47.2381 17.8028 46.8089 17.625 46.3613 17.625H12.6113C11.7162 17.625 10.8578 17.2694 10.2248 16.6365C9.59191 16.0035 9.23633 15.1451 9.23633 14.25ZM9.23633 14.25C9.23633 13.3549 9.59191 12.4964 10.2248 11.8635C10.8578 11.2306 11.7162 10.875 12.6113 10.875H41.2988" stroke="black" stroke-width="2.7" stroke-linecap="round" stroke-linejoin="round"/>
<path d="M38.7676 33.6562C40.1655 33.6562 41.2988 32.523 41.2988 31.125C41.2988 29.727 40.1655 28.5938 38.7676 28.5938C37.3696 28.5938 36.2363 29.727 36.2363 31.125C36.2363 32.523 37.3696 33.6562 38.7676 33.6562Z" fill="black"/>
</svg>
