<svg width="191" height="44" viewBox="0 0 191 44" fill="none" xmlns="http://www.w3.org/2000/svg">
<g clip-path="url(#clip0_198_163)">
  <path d="M12.8213 29.604C16.4659 29.604 18.9079 26.7248 18.9079 22.4799C18.9079 18.2718 16.4659 15.3926 12.8213 15.3926C10.7073 15.3926 8.41121 16.6107 7.31781 18.2349V26.8725C8.41121 28.4228 10.7073 29.604 12.8213 29.604ZM0.976074 34.698V0.959732H7.31781V13.3993C9.21303 10.8893 11.9101 9.67111 14.7529 9.67111C20.9124 9.67111 25.4318 14.5436 25.4318 22.4799C25.4318 30.6745 20.8395 35.3255 14.7529 35.3255C11.8736 35.3255 9.21303 33.9967 7.31781 31.5973V34.698H0.976074Z" fill="white" stroke="white" stroke-width="0.1"/>
  <path d="M34.4706 0.959732H28.1289V34.698H34.4706V0.959732Z" fill="white" stroke="white" stroke-width="0.1"/>
  <path d="M54.1881 34.698V31.5973C52.548 33.406 49.6323 35.2886 45.6961 35.2886C40.4113 35.2886 37.8965 32.3725 37.8965 27.6107V10.2618H44.2382V25.1007C44.2382 28.4966 45.9876 29.604 48.6847 29.604C51.1266 29.604 53.0947 28.2382 54.1881 26.8356V10.2618H60.5299V34.698H54.1881Z" fill="white" stroke="white" stroke-width="0.1"/>
  <path d="M75.5828 14.9128C71.6465 14.9128 69.9335 17.6812 69.6784 20.1175H81.56C81.3778 17.7919 79.7742 14.9128 75.5828 14.9128ZM63.0815 22.443C63.0815 15.3557 68.2934 9.63425 75.5828 9.63425C82.8357 9.63425 87.6831 15.0974 87.6831 23.0336V24.547H69.7513C70.1887 27.537 72.5941 30.0101 76.6762 30.0101C78.7172 30.0101 81.5236 29.1611 83.0543 27.6477L85.8972 31.8926C83.4917 34.1074 79.7013 35.2886 75.9473 35.2886C68.6215 35.2886 63.0815 30.3054 63.0815 22.443Z" fill="white" stroke="white" stroke-width="0.1"/>
  <path d="M108.166 22.443C108.166 18.2349 105.651 15.3557 102.006 15.3557C99.9652 15.3557 97.6694 16.5369 96.576 18.1241V26.7248C97.6325 28.2752 99.9652 29.5671 102.006 29.5671C105.651 29.604 108.166 26.6879 108.166 22.443ZM96.576 31.5604V44H90.2339V10.2618H96.576V13.3624C98.4347 11 101.059 9.67111 104.011 9.67111C110.207 9.67111 114.689 14.3222 114.689 22.4799C114.689 30.6376 110.207 35.3255 104.011 35.3255C101.168 35.2886 98.5807 34.0704 96.576 31.5604Z" fill="white" stroke="white" stroke-width="0.1"/>
  <path d="M117.314 34.698V10.2618H123.655V13.547C125.405 11.406 128.357 9.63425 131.346 9.63425V15.9094C130.909 15.7986 130.362 15.7618 129.596 15.7618C127.482 15.7618 124.713 16.9799 123.655 18.5303V34.698H117.314Z" fill="white" stroke="white" stroke-width="0.1"/>
  <path d="M133.934 10.2618H140.275V34.698H133.934V10.2618ZM133.351 3.80201C133.351 1.66107 135.063 0 137.104 0C139.182 0 140.895 1.66107 140.895 3.80201C140.895 5.94296 139.182 7.64094 137.104 7.64094C135.027 7.64094 133.351 5.90604 133.351 3.80201Z" fill="white" stroke="white" stroke-width="0.1"/>
  <path d="M160.175 34.698V19.9329C160.175 16.5369 158.426 15.3926 155.728 15.3926C153.214 15.3926 151.319 16.7953 150.225 18.2349V34.698H143.883V10.2618H150.225V13.3993C151.756 11.5906 154.781 9.67111 158.681 9.67111C164.038 9.67111 166.59 12.698 166.59 17.4597V34.698H160.175Z" fill="white" stroke="white" stroke-width="0.1"/>
  <path d="M172.166 28.5704V15.8725H168.158V10.2618H172.166V3.58054H178.508V10.2618H183.392V15.8725H178.508V26.8356C178.508 28.3859 179.31 29.5671 180.695 29.5671C181.642 29.5671 182.554 29.198 182.882 28.7919L184.23 33.7014C183.283 34.5503 181.569 35.2517 178.945 35.2517C174.499 35.2886 172.166 32.963 172.166 28.5704Z" fill="white" stroke="white" stroke-width="0.1"/>
  <path d="M188.458 14.5805C187.292 14.5805 186.308 13.6208 186.308 12.4027C186.308 11.1845 187.255 10.2248 188.458 10.2248C189.661 10.2248 190.609 11.1845 190.609 12.4027C190.573 13.6208 189.624 14.5805 188.458 14.5805ZM188.458 10.5571C187.438 10.5571 186.599 11.3692 186.599 12.4396C186.599 13.4732 187.438 14.3222 188.458 14.3222C189.479 14.3222 190.317 13.4732 190.317 12.4396C190.281 11.406 189.479 10.5571 188.458 10.5571ZM189.041 13.6577L188.422 12.6611H187.948V13.6577H187.62V11.1845H188.604C189.005 11.1845 189.369 11.4799 189.369 11.9229C189.369 12.4766 188.896 12.6611 188.75 12.6611L189.406 13.6577H189.041ZM188.641 11.4799H187.948V12.4027H188.641C188.859 12.4027 189.078 12.2181 189.078 11.9597C189.078 11.6644 188.823 11.4799 188.641 11.4799Z" fill="white" stroke="white" stroke-width="0.1"/>
</g>
<defs>
<clipPath id="clip0_198_163">
<rect width="190" height="44" fill="white" transform="translate(0.976074)" />
</clipPath>
</defs>
</svg>
