<svg width="231" height="44" viewBox="0 0 231 44" fill="none" xmlns="http://www.w3.org/2000/svg" version="1.1" xmlns:xlink="http://www.w3.org/1999/xlink">
  <mask id="mask0_199_282" style="mask-type:luminance" maskUnits="userSpaceOnUse" x="1" y="0" width="229" height="44">
    <path d="M229.516 0H1.17236V44H229.516V0Z" fill="white" ></path>
  </mask>
  <g mask="url(#mask0_199_282)">
    <path d="M12.3467 16.94C13.5075 15.71 14.1609 14.0441 14.1609 12.2341V6.95C14.1609 3.40208 11.621 0.36203 7.70367 0.36203H1.17236V43.638H8.42761C12.3467 43.638 14.8849 40.5979 14.8849 37.0501V22.2223C14.8849 20.0503 13.9408 18.0962 12.345 16.9383L12.3467 16.94ZM4.51023 3.54618H7.70367C9.66235 3.54618 10.8953 5.06621 10.8953 6.73209V12.4502C10.8953 14.1143 9.66235 15.5623 7.77589 15.6344H4.51023V3.54618ZM11.621 37.2662C11.621 39.0042 10.3881 40.4521 8.42761 40.4521H4.51023V18.8203H8.42761C10.3863 18.8203 11.621 20.3403 11.621 22.0062V37.268V37.2662Z" fill="white" stroke="white" stroke-width="1"></path>
    <path d="M22.7214 0.36203H19.3853V43.638H33.17V40.4538H22.7214V0.36203Z" fill="white" stroke="white" stroke-width="1"></path>
    <path d="M46.5212 37.5579C46.5212 39.2959 45.2883 40.8159 43.3278 40.8159H42.6022C40.6435 40.8159 39.4087 39.2959 39.4087 37.5579V0.36203H36.0708V37.34C36.0708 40.888 38.6108 44 42.6022 44H43.3278C47.3191 44 49.8573 40.888 49.8573 37.34V0.36203H46.5195V37.5579H46.5212Z" fill="white" stroke="white" stroke-width="1"></path>
    <path d="M58.2773 18.822H66.5488V15.6361H58.2773V3.54618H68.0003V0.36203H54.9395V43.638H68.726V40.4538H58.2773V18.822Z" fill="white" stroke="white" stroke-width="1"></path>
    <path d="M92.0169 16.94C93.1776 15.71 93.8312 14.0441 93.8312 12.2341V6.95C93.8312 3.40208 91.2911 0.36203 87.3738 0.36203H80.8442V43.638H88.0995C92.0186 43.638 94.5568 40.5979 94.5568 37.0501V22.2223C94.5568 20.0503 93.6145 18.0962 92.0169 16.9383V16.94ZM84.1803 3.54794H87.3738C89.3325 3.54794 90.5654 5.06797 90.5654 6.73385V12.452C90.5654 14.1161 89.3325 15.564 87.446 15.6361H84.1803V3.54618V3.54794ZM91.2911 37.268C91.2911 39.0059 90.0582 40.4538 88.0977 40.4538H84.1803V18.822H88.0977C90.0565 18.822 91.2911 20.3421 91.2911 22.0079V37.2697V37.268Z" fill="white" stroke="white" stroke-width="1"></path>
    <path d="M109.358 37.5579C109.358 39.2959 108.125 40.8159 106.165 40.8159H105.439C103.48 40.8159 102.246 39.2959 102.246 37.5579V0.36203H98.9077V37.34C98.9077 40.888 101.448 44 105.439 44H106.165C110.156 44 112.694 40.888 112.694 37.34V0.36203H109.356V37.5579H109.358Z" fill="white" stroke="white" stroke-width="1"></path>
    <path d="M124.886 0H124.159C120.168 0 117.628 3.11211 117.628 6.66001V43.638H120.966V6.44211C120.966 4.70419 122.199 3.18416 124.159 3.18416H124.886C126.844 3.18416 128.079 4.70419 128.079 6.44211V43.638H131.416V6.66001C131.416 3.11211 128.876 0 124.886 0Z" fill="white" stroke="white" stroke-width="1"></path>
    <path d="M143.461 0H142.735C138.743 0 136.204 3.11211 136.204 6.66001V37.34C136.204 40.96 138.743 44 142.735 44H143.461C147.453 44 149.99 40.96 149.99 37.34V15.6361H140.993V18.822H146.653V37.5579C146.653 39.2958 145.42 40.8159 143.461 40.8159H142.735C140.777 40.8159 139.544 39.2958 139.544 37.5579V6.44211C139.544 4.70419 140.777 3.18416 142.735 3.18416H143.461C145.42 3.18416 146.653 4.70419 146.653 6.44211V9.04812H149.99V6.66001C149.99 3.11211 147.45 0 143.461 0Z" fill="white" stroke="white" stroke-width="1"></path>
    <path d="M177.999 0.723984H174.66V44H188.447V40.8159H177.999V0.723984Z" fill="white" stroke="white" stroke-width="1"></path>
    <path d="M197.444 0H196.718C192.727 0 190.188 3.11211 190.188 6.66001V37.34C190.188 40.96 192.728 44 196.718 44H197.444C201.435 44 203.975 40.96 203.975 37.34V6.66001C203.975 3.11211 201.435 0 197.444 0ZM200.638 37.5579C200.638 39.2958 199.404 40.8159 197.444 40.8159H196.718C194.759 40.8159 193.525 39.2958 193.525 37.5579V6.44211C193.525 4.70419 194.758 3.18416 196.718 3.18416H197.444C199.403 3.18416 200.638 4.70419 200.638 6.44211V37.5561V37.5579Z" fill="white" stroke="white" stroke-width="1"></path>
    <path d="M226.179 0.36203V37.8461C226.179 39.584 225.453 40.8142 223.494 40.8142C221.536 40.8142 220.809 39.584 220.809 37.8461V0.36203H217.472V37.8461C217.472 39.584 216.746 40.8142 214.787 40.8142C212.829 40.8142 212.103 39.584 212.103 37.8461V0.36203H208.765V37.63C208.765 41.2499 210.798 44 214.787 44C216.674 44 218.125 43.3481 219.142 42.3341C220.158 43.3481 221.608 44 223.496 44C227.488 44 229.518 41.2482 229.518 37.63V0.36203H226.179Z" fill="white" stroke="white" stroke-width="1"></path>
    <path d="M171.554 24.9496C170.171 25.0006 169.32 25.0304 168.405 24.4646V7.02204C168.405 3.47413 165.864 0.36203 161.873 0.36203H161.147C157.156 0.36203 154.618 3.47413 154.618 7.02204V44H157.956V19.5021C159.403 19.7956 161.271 20.6338 162.855 22.8392C163.675 23.9778 164.399 24.8705 165.066 25.5699V44H168.405V27.7735C169.095 27.9633 169.807 28.0196 170.597 28.0196C170.937 28.0196 171.291 28.0089 171.666 27.9967C171.964 27.9861 172.279 27.9739 172.617 27.9668L172.554 24.9198C172.198 24.9267 171.867 24.9391 171.554 24.9513V24.9496ZM157.956 16.4129V6.8059C157.956 5.06797 159.189 3.54794 161.149 3.54794H161.874C163.833 3.54794 165.068 5.06797 165.068 6.8059V20.7022C162.759 17.6991 160.013 16.6958 157.957 16.4146L157.956 16.4129Z" fill="white" stroke="white" stroke-width="1"></path>
  </g>
</svg>
