<svg width="305" height="44" viewBox="0 0 305 44" fill="none" xmlns="http://www.w3.org/2000/svg">
<g clip-path="url(#clip0_199_316)">
<path d="M28.4658 19.877C28.4523 19.878 28.4387 19.8762 28.4259 19.8718C28.413 19.8674 28.4012 19.8604 28.3911 19.8513C28.3704 19.8327 28.3578 19.8067 28.356 19.7789C27.2641 11.7298 20.5714 5.73687 12.6652 5.72825H0.453896C0.423731 5.72592 0.395578 5.71221 0.37514 5.68987C0.354703 5.66754 0.343512 5.63827 0.343833 5.60798V3.85348C0.338156 3.10878 0.623293 2.39268 1.1357 1.86615C1.64792 1.33943 2.34437 1.04628 3.06903 1.05215H12.6652C23.0876 1.023 31.8456 9.0959 32.9489 19.749C32.956 19.763 32.9597 19.7785 32.9597 19.7942C32.9597 19.8099 32.956 19.8254 32.9489 19.8394C32.9382 19.8526 32.9248 19.8634 32.9097 19.8712C32.8946 19.8789 32.878 19.8835 32.861 19.8845L28.4658 19.877Z" fill="white"/>
<path d="M3.06925 43.0159C2.34533 43.0159 1.65107 42.7196 1.13977 42.1927C0.62846 41.6658 0.342224 40.9515 0.343872 40.2072V27.5948C0.343095 27.5791 0.346041 27.5634 0.352469 27.549C0.358898 27.5346 0.368627 27.522 0.380865 27.5121C0.39232 27.5067 0.404827 27.5039 0.417491 27.5039C0.430155 27.5039 0.442663 27.5067 0.454118 27.5121H12.7973C14.1938 27.5303 15.5387 26.9711 16.5306 25.9602C17.5223 24.9493 18.0775 23.5714 18.0715 22.1359C18.0691 19.114 15.7354 16.6386 12.7973 16.5411H4.88592V19.9144C4.88614 19.9291 4.88347 19.9436 4.87807 19.9572C4.87266 19.9708 4.86462 19.9833 4.85442 19.9938C4.84421 20.0043 4.83204 20.0127 4.81859 20.0185C4.80514 20.0243 4.79068 20.0273 4.77605 20.0275H0.454118C0.424521 20.0271 0.396288 20.015 0.375618 19.9938C0.354948 19.9726 0.34353 19.944 0.343872 19.9144V14.6436C0.348267 13.0984 1.56592 11.8466 3.06925 11.8426H12.7973C18.2588 11.8426 22.6864 16.3937 22.6864 22.0077C22.6864 27.6219 18.2588 32.173 12.7973 32.173H4.88592V38.355H12.6874C19.4259 38.3297 25.4182 33.944 27.6456 27.4067C27.6528 27.385 27.6666 27.3662 27.6849 27.3527C27.7033 27.3392 27.7254 27.3317 27.7482 27.3313H32.2679C32.286 27.3318 32.3039 27.3361 32.3203 27.3438C32.3367 27.3516 32.3513 27.3627 32.3631 27.3764C32.3757 27.4079 32.3757 27.4429 32.3631 27.4743C29.9379 36.6515 21.8363 43.0238 12.5848 43.0309L3.06925 43.0159Z" fill="white"/>
<path d="M64.7342 11.3624C70.7504 11.3624 75.6276 16.1572 75.6276 22.18C75.6276 28.2029 70.7795 32.9978 64.7342 32.9978H57.9586C57.0241 32.9978 56.2939 32.2668 56.2939 31.3606V12.9996C56.2939 12.093 56.9948 11.3623 57.9293 11.3623L64.7342 11.3624ZM64.7342 29.7818C69.0273 29.7818 72.3858 26.4194 72.4151 22.18C72.4151 17.9406 68.998 14.5785 64.7342 14.5785H59.5065V29.7818H64.7342ZM102.164 32.9978H98.5717L91.7962 16.9759L84.9331 32.9978H81.3408L90.2777 12.0641C90.5405 11.4209 91.1538 11.0407 91.8255 11.0407C92.4972 11.0407 93.0521 11.4209 93.3149 12.0641L102.164 32.9978ZM125.132 11.3624V14.5785H117.538V32.9978H114.326V14.5783H106.732V11.3626L125.132 11.3624ZM150.523 32.9976H146.931L140.156 16.9759L133.292 32.9978H129.7L138.637 12.0641C138.9 11.4209 139.513 11.0407 140.185 11.0407C140.856 11.0407 141.411 11.4209 141.674 12.0641L150.523 32.9976ZM168.162 11.3624C172.338 11.3624 175.726 14.8416 175.726 19.0225C175.726 23.2325 172.338 26.5071 168.162 26.5071H161.795V32.9978H158.582V13.0581C158.582 12.1225 159.371 11.3623 160.306 11.3623L168.162 11.3624ZM168.162 23.291C170.586 23.291 172.513 21.4199 172.513 19.0225C172.513 16.5959 170.527 14.5785 168.162 14.5785H161.795V23.291H168.162ZM201.143 32.9978H197.55L190.775 16.9759L183.912 32.9978H180.32L189.256 12.0641C189.519 11.4209 190.132 11.0407 190.804 11.0407C191.476 11.0407 192.031 11.4209 192.293 12.0641L201.143 32.9978ZM218.164 33.3194C212.031 33.3194 207.066 28.2612 207.066 22.0631C207.066 15.8356 212.031 10.9531 218.164 10.9531C221.523 10.9531 224.56 12.5026 226.604 14.9292L224.18 17.0344C222.72 15.2509 220.588 14.1399 218.164 14.1399C213.812 14.1399 210.279 17.6191 210.279 22.0631C210.279 26.4779 213.812 30.1325 218.164 30.1325C220.822 30.1325 223.158 28.963 224.589 26.8873L227.101 28.846C225.115 31.6529 221.844 33.3194 218.164 33.3194ZM235.278 32.9978V11.3624H238.491V32.9976L235.278 32.9978ZM248.917 32.9978L239.425 23.2034C239.18 22.8962 239.046 22.5149 239.046 22.1217C239.045 21.751 239.168 21.3907 239.396 21.0984L248.888 11.3624H253.181L242.813 22.0924L253.356 32.9978H248.917ZM278.151 14.5783H264.746V20.572H277.275V23.788H264.746V29.7818H278.151V32.9978H263.257C262.322 32.9978 261.533 32.2084 261.533 31.2726V13.0583C261.533 12.1227 262.322 11.3624 263.257 11.3624H278.151V14.5783ZM303.535 11.3624V14.5785H295.942V32.9978H292.729V14.5783H285.136V11.3626L303.535 11.3624Z" fill="white" stroke="white" stroke-width="2"/>
</g>
<defs>
<clipPath id="clip0_199_316">
<rect width="304" height="44" fill="white" transform="translate(0.344238)"/>
</clipPath>
</defs>
</svg>
