<svg width="215" height="22" viewBox="0 0 215 22" fill="none" xmlns="http://www.w3.org/2000/svg">
<path d="M0.386655 17V1.11636H3.26401V7.84054H10.6242V1.11636H13.5093V17H10.6242V10.2526H3.26401V17H0.386655ZM21.7885 17.2327C20.5941 17.2327 19.5626 16.9845 18.6939 16.4881C17.8305 15.9866 17.1661 15.2782 16.7007 14.3631C16.2354 13.4427 16.0027 12.3595 16.0027 11.1134C16.0027 9.88804 16.2354 8.81259 16.7007 7.88707C17.1712 6.95639 17.8279 6.23253 18.6707 5.71548C19.5135 5.19327 20.5036 4.93216 21.6411 4.93216C22.3753 4.93216 23.0681 5.05108 23.7196 5.28892C24.3763 5.52159 24.9554 5.88352 25.4569 6.37472C25.9636 6.86591 26.3617 7.49153 26.6513 8.25159C26.9408 9.00648 27.0856 9.90614 27.0856 10.9506V11.8114H17.3212V9.91906H24.3944C24.3892 9.38133 24.2729 8.90307 24.0454 8.48426C23.8179 8.06028 23.4999 7.72679 23.0914 7.48378C22.6881 7.24077 22.2176 7.11926 21.6799 7.11926C21.106 7.11926 20.6018 7.25886 20.1675 7.53807C19.7332 7.8121 19.3945 8.17403 19.1515 8.62386C18.9137 9.06852 18.7922 9.55713 18.787 10.0897V11.7416C18.787 12.4345 18.9137 13.0291 19.167 13.5255C19.4204 14.0166 19.7746 14.3941 20.2296 14.6578C20.6846 14.9163 21.2171 15.0456 21.8272 15.0456C22.2357 15.0456 22.6054 14.9887 22.9363 14.8749C23.2672 14.756 23.5542 14.5828 23.7972 14.3553C24.0402 14.1278 24.2237 13.846 24.3478 13.5099L26.9693 13.8047C26.8038 14.4975 26.4884 15.1024 26.0231 15.6195C25.5629 16.1314 24.9735 16.5295 24.2548 16.8139C23.5361 17.0931 22.714 17.2327 21.7885 17.2327ZM32.2683 1.11636V17H29.4608V1.11636H32.2683ZM35.1554 21.4673V5.08727H37.9164V7.05722H38.0793C38.224 6.76767 38.4283 6.46003 38.692 6.13429C38.9557 5.80338 39.3124 5.52159 39.7623 5.28892C40.2121 5.05108 40.786 4.93216 41.484 4.93216C42.4044 4.93216 43.2342 5.16741 43.9736 5.63793C44.7181 6.10327 45.3076 6.79352 45.7419 7.70869C46.1814 8.61869 46.4011 9.73551 46.4011 11.0591C46.4011 12.3673 46.1865 13.4789 45.7574 14.3941C45.3282 15.3093 44.744 16.0073 44.0046 16.4881C43.2652 16.969 42.4276 17.2094 41.4918 17.2094C40.8093 17.2094 40.2431 17.0957 39.7933 16.8682C39.3434 16.6407 38.9815 16.3666 38.7075 16.0461C38.4386 15.7203 38.2292 15.4127 38.0793 15.1231H37.9629V21.4673H35.1554ZM37.9086 11.0436C37.9086 11.814 38.0172 12.4888 38.2344 13.0679C38.4567 13.647 38.7747 14.0994 39.1883 14.4251C39.6071 14.7457 40.1138 14.906 40.7084 14.906C41.3289 14.906 41.8485 14.7405 42.2673 14.4096C42.6861 14.0735 43.0015 13.6159 43.2135 13.0368C43.4307 12.4526 43.5393 11.7882 43.5393 11.0436C43.5393 10.3043 43.4333 9.64761 43.2213 9.07369C43.0093 8.49977 42.6939 8.04994 42.2751 7.7242C41.8563 7.39847 41.3341 7.2356 40.7084 7.2356C40.1087 7.2356 39.5994 7.39329 39.1806 7.70869C38.7618 8.02409 38.4438 8.46616 38.2266 9.03491C38.0146 9.60366 37.9086 10.2732 37.9086 11.0436ZM48.8054 17V5.08727H51.6129V17H48.8054ZM50.2169 3.39653C49.7723 3.39653 49.3896 3.24918 49.0691 2.95446C48.7485 2.65457 48.5882 2.29523 48.5882 1.87642C48.5882 1.45244 48.7485 1.0931 49.0691 0.79838C49.3896 0.498494 49.7723 0.348551 50.2169 0.348551C50.6667 0.348551 51.0494 0.498494 51.3648 0.79838C51.6853 1.0931 51.8456 1.45244 51.8456 1.87642C51.8456 2.29523 51.6853 2.65457 51.3648 2.95446C51.0494 3.24918 50.6667 3.39653 50.2169 3.39653ZM57.3075 10.0199V17H54.5V5.08727H57.1835V7.11151H57.3231C57.5971 6.44452 58.034 5.91455 58.6338 5.52159C59.2387 5.12864 59.9858 4.93216 60.8752 4.93216C61.6973 4.93216 62.4134 5.10795 63.0235 5.45954C63.6388 5.81114 64.1144 6.32043 64.4505 6.98741C64.7918 7.6544 64.9598 8.46358 64.9546 9.41494V17H62.1471V9.84926C62.1471 9.05301 61.9403 8.42997 61.5266 7.98014C61.1182 7.53031 60.552 7.3054 59.8281 7.3054C59.3369 7.3054 58.9 7.41398 58.5174 7.63114C58.14 7.84312 57.8427 8.15077 57.6255 8.55406C57.4135 8.95736 57.3075 9.44597 57.3075 10.0199ZM72.9895 21.7155C71.9813 21.7155 71.1152 21.5784 70.3914 21.3044C69.6675 21.0355 69.0858 20.6736 68.6464 20.2186C68.2069 19.7636 67.9018 19.2595 67.7312 18.7063L70.2595 18.0936C70.3733 18.3262 70.5387 18.5563 70.7559 18.7838C70.9731 19.0165 71.2652 19.2078 71.6323 19.3577C72.0046 19.5128 72.4725 19.5904 73.0361 19.5904C73.8323 19.5904 74.4916 19.3965 75.0138 19.0087C75.536 18.6261 75.7971 17.9953 75.7971 17.1163V14.8594H75.6575C75.5127 15.149 75.3007 15.4463 75.0215 15.7513C74.7475 16.0564 74.383 16.3123 73.928 16.5191C73.4781 16.726 72.912 16.8294 72.2295 16.8294C71.3143 16.8294 70.4844 16.6148 69.7399 16.1857C69.0005 15.7513 68.4111 15.105 67.9716 14.2467C67.5373 13.3833 67.3201 12.3026 67.3201 11.0049C67.3201 9.69673 67.5373 8.59284 67.9716 7.69318C68.4111 6.78835 69.0031 6.10327 69.7477 5.63793C70.4922 5.16741 71.3221 4.93216 72.2372 4.93216C72.9352 4.93216 73.5092 5.05108 73.959 5.28892C74.414 5.52159 74.7759 5.80338 75.0448 6.13429C75.3137 6.46003 75.5179 6.76767 75.6575 7.05722H75.8126V5.08727H78.5814V17.1939C78.5814 18.2125 78.3384 19.0553 77.8523 19.7222C77.3663 20.3892 76.7019 20.8882 75.8591 21.2191C75.0164 21.55 74.0598 21.7155 72.9895 21.7155ZM73.0128 14.6268C73.6074 14.6268 74.1141 14.482 74.5329 14.1924C74.9517 13.9029 75.2697 13.4867 75.4869 12.9438C75.704 12.4009 75.8126 11.7494 75.8126 10.9893C75.8126 10.2396 75.704 9.58298 75.4869 9.0194C75.2749 8.45582 74.9595 8.01892 74.5407 7.70869C74.127 7.39329 73.6177 7.2356 73.0128 7.2356C72.3872 7.2356 71.865 7.39847 71.4462 7.7242C71.0273 8.04994 70.7119 8.49719 70.5 9.06594C70.288 9.62952 70.182 10.2707 70.182 10.9893C70.182 11.7184 70.288 12.3569 70.5 12.905C70.7171 13.4479 71.0351 13.8719 71.4539 14.1769C71.8779 14.4768 72.3975 14.6268 73.0128 14.6268ZM93.2668 1.11636H96.1209V12.2845C96.1157 13.3083 95.8985 14.1899 95.4694 14.9292C95.0402 15.6634 94.4405 16.2296 93.6701 16.6277C92.9048 17.0207 92.0129 17.2172 90.9943 17.2172C90.0637 17.2172 89.2261 17.0517 88.4815 16.7208C87.7421 16.3847 87.1553 15.8884 86.721 15.2317C86.2867 14.5751 86.0695 13.7581 86.0695 12.7809H88.9313C88.9365 13.2101 89.0296 13.5797 89.2105 13.89C89.3967 14.2002 89.6526 14.438 89.9784 14.6035C90.3041 14.7689 90.679 14.8517 91.1029 14.8517C91.5631 14.8517 91.9535 14.756 92.274 14.5647C92.5946 14.3682 92.8376 14.0787 93.0031 13.6961C93.1737 13.3135 93.2616 12.843 93.2668 12.2845V1.11636ZM104.315 17.2327C103.151 17.2327 102.143 16.9767 101.29 16.4649C100.437 15.953 99.7751 15.2369 99.3046 14.3165C98.8392 13.3962 98.6065 12.3207 98.6065 11.0902C98.6065 9.8596 98.8392 8.78156 99.3046 7.85605C99.7751 6.93054 100.437 6.21185 101.29 5.69997C102.143 5.1881 103.151 4.93216 104.315 4.93216C105.478 4.93216 106.486 5.1881 107.339 5.69997C108.193 6.21185 108.852 6.93054 109.317 7.85605C109.788 8.78156 110.023 9.8596 110.023 11.0902C110.023 12.3207 109.788 13.3962 109.317 14.3165C108.852 15.2369 108.193 15.953 107.339 16.4649C106.486 16.9767 105.478 17.2327 104.315 17.2327ZM104.33 14.9835C104.961 14.9835 105.488 14.8103 105.912 14.4639C106.336 14.1123 106.652 13.6418 106.859 13.0524C107.071 12.4629 107.177 11.8063 107.177 11.0824C107.177 10.3534 107.071 9.69415 106.859 9.10472C106.652 8.51011 106.336 8.03702 105.912 7.68543C105.488 7.33383 104.961 7.15804 104.33 7.15804C103.684 7.15804 103.146 7.33383 102.717 7.68543C102.293 8.03702 101.975 8.51011 101.763 9.10472C101.556 9.69415 101.453 10.3534 101.453 11.0824C101.453 11.8063 101.556 12.4629 101.763 13.0524C101.975 13.6418 102.293 14.1123 102.717 14.4639C103.146 14.8103 103.684 14.9835 104.33 14.9835ZM112.53 17V1.11636H115.337V7.05722H115.454C115.599 6.76767 115.803 6.46003 116.067 6.13429C116.33 5.80338 116.687 5.52159 117.137 5.28892C117.587 5.05108 118.161 4.93216 118.859 4.93216C119.779 4.93216 120.609 5.16741 121.348 5.63793C122.093 6.10327 122.682 6.79352 123.116 7.70869C123.556 8.61869 123.776 9.73551 123.776 11.0591C123.776 12.3673 123.561 13.4789 123.132 14.3941C122.703 15.3093 122.119 16.0073 121.379 16.4881C120.64 16.969 119.802 17.2094 118.866 17.2094C118.184 17.2094 117.618 17.0957 117.168 16.8682C116.718 16.6407 116.356 16.3666 116.082 16.0461C115.813 15.7203 115.604 15.4127 115.454 15.1231H115.291V17H112.53ZM115.283 11.0436C115.283 11.814 115.392 12.4888 115.609 13.0679C115.831 13.647 116.149 14.0994 116.563 14.4251C116.982 14.7457 117.488 14.906 118.083 14.906C118.703 14.906 119.223 14.7405 119.642 14.4096C120.061 14.0735 120.376 13.6159 120.588 13.0368C120.805 12.4526 120.914 11.7882 120.914 11.0436C120.914 10.3043 120.808 9.64761 120.596 9.07369C120.384 8.49977 120.068 8.04994 119.65 7.7242C119.231 7.39847 118.709 7.2356 118.083 7.2356C117.483 7.2356 116.974 7.39329 116.555 7.70869C116.136 8.02409 115.818 8.46616 115.601 9.03491C115.389 9.60366 115.283 10.2732 115.283 11.0436ZM140.336 5.48281C140.264 4.80548 139.959 4.2781 139.421 3.90065C138.888 3.52321 138.195 3.33449 137.342 3.33449C136.743 3.33449 136.228 3.42497 135.799 3.60594C135.37 3.7869 135.041 4.0325 134.814 4.34273C134.586 4.65295 134.47 5.00713 134.465 5.40526C134.465 5.73616 134.54 6.02312 134.69 6.26614C134.845 6.50915 135.054 6.71597 135.318 6.88659C135.582 7.05205 135.874 7.19165 136.194 7.3054C136.515 7.41915 136.838 7.5148 137.164 7.59236L138.653 7.96463C139.253 8.10423 139.829 8.29295 140.383 8.5308C140.941 8.76864 141.44 9.06852 141.879 9.43045C142.324 9.79239 142.676 10.2293 142.934 10.7412C143.193 11.253 143.322 11.8528 143.322 12.5405C143.322 13.4712 143.084 14.2907 142.608 14.999C142.133 15.7022 141.445 16.2529 140.545 16.651C139.651 17.0439 138.568 17.2404 137.296 17.2404C136.06 17.2404 134.987 17.0491 134.077 16.6665C133.172 16.2839 132.464 15.7255 131.952 14.9913C131.445 14.2571 131.171 13.3626 131.13 12.3078H133.961C134.002 12.8611 134.173 13.3212 134.473 13.6883C134.773 14.0554 135.163 14.3295 135.644 14.5104C136.13 14.6914 136.673 14.7819 137.272 14.7819C137.898 14.7819 138.446 14.6888 138.917 14.5027C139.392 14.3114 139.765 14.0477 140.034 13.7116C140.302 13.3703 140.439 12.9722 140.445 12.5172C140.439 12.1036 140.318 11.7623 140.08 11.4935C139.842 11.2194 139.509 10.9919 139.08 10.811C138.656 10.6248 138.159 10.4594 137.59 10.3146L135.783 9.84926C134.475 9.51318 133.441 9.00389 132.681 8.32139C131.926 7.63372 131.549 6.72114 131.549 5.58364C131.549 4.64778 131.802 3.82827 132.309 3.12508C132.821 2.4219 133.516 1.87642 134.395 1.48864C135.274 1.09568 136.269 0.899204 137.381 0.899204C138.508 0.899204 139.496 1.09568 140.344 1.48864C141.197 1.87642 141.866 2.41673 142.352 3.10957C142.838 3.79724 143.089 4.58832 143.105 5.48281H140.336ZM151.037 17.2327C149.843 17.2327 148.811 16.9845 147.942 16.4881C147.079 15.9866 146.415 15.2782 145.949 14.3631C145.484 13.4427 145.251 12.3595 145.251 11.1134C145.251 9.88804 145.484 8.81259 145.949 7.88707C146.42 6.95639 147.076 6.23253 147.919 5.71548C148.762 5.19327 149.752 4.93216 150.89 4.93216C151.624 4.93216 152.317 5.05108 152.968 5.28892C153.625 5.52159 154.204 5.88352 154.705 6.37472C155.212 6.86591 155.61 7.49153 155.9 8.25159C156.189 9.00648 156.334 9.90614 156.334 10.9506V11.8114H146.57V9.91906H153.643C153.638 9.38133 153.521 8.90307 153.294 8.48426C153.066 8.06028 152.748 7.72679 152.34 7.48378C151.937 7.24077 151.466 7.11926 150.928 7.11926C150.354 7.11926 149.85 7.25886 149.416 7.53807C148.982 7.8121 148.643 8.17403 148.4 8.62386C148.162 9.06852 148.041 9.55713 148.035 10.0897V11.7416C148.035 12.4345 148.162 13.0291 148.415 13.5255C148.669 14.0166 149.023 14.3941 149.478 14.6578C149.933 14.9163 150.466 15.0456 151.076 15.0456C151.484 15.0456 151.854 14.9887 152.185 14.8749C152.516 14.756 152.803 14.5828 153.046 14.3553C153.289 14.1278 153.472 13.846 153.596 13.5099L156.218 13.8047C156.052 14.4975 155.737 15.1024 155.272 15.6195C154.811 16.1314 154.222 16.5295 153.503 16.8139C152.785 17.0931 151.962 17.2327 151.037 17.2327ZM163.983 17.2327C162.789 17.2327 161.757 16.9845 160.889 16.4881C160.025 15.9866 159.361 15.2782 158.895 14.3631C158.43 13.4427 158.197 12.3595 158.197 11.1134C158.197 9.88804 158.43 8.81259 158.895 7.88707C159.366 6.95639 160.022 6.23253 160.865 5.71548C161.708 5.19327 162.698 4.93216 163.836 4.93216C164.57 4.93216 165.263 5.05108 165.914 5.28892C166.571 5.52159 167.15 5.88352 167.652 6.37472C168.158 6.86591 168.556 7.49153 168.846 8.25159C169.135 9.00648 169.28 9.90614 169.28 10.9506V11.8114H159.516V9.91906H166.589C166.584 9.38133 166.467 8.90307 166.24 8.48426C166.012 8.06028 165.694 7.72679 165.286 7.48378C164.883 7.24077 164.412 7.11926 163.874 7.11926C163.301 7.11926 162.796 7.25886 162.362 7.53807C161.928 7.8121 161.589 8.17403 161.346 8.62386C161.108 9.06852 160.987 9.55713 160.982 10.0897V11.7416C160.982 12.4345 161.108 13.0291 161.362 13.5255C161.615 14.0166 161.969 14.3941 162.424 14.6578C162.879 14.9163 163.412 15.0456 164.022 15.0456C164.43 15.0456 164.8 14.9887 165.131 14.8749C165.462 14.756 165.749 14.5828 165.992 14.3553C166.235 14.1278 166.418 13.846 166.542 13.5099L169.164 13.8047C168.998 14.4975 168.683 15.1024 168.218 15.6195C167.758 16.1314 167.168 16.5295 166.449 16.8139C165.731 17.0931 164.909 17.2327 163.983 17.2327ZM174.215 13.2618L174.207 9.87253H174.657L178.938 5.08727H182.219L176.953 10.9506H176.371L174.215 13.2618ZM171.655 17V1.11636H174.463V17H171.655ZM179.132 17L175.254 11.5788L177.146 9.60108L182.49 17H179.132ZM188.873 17.2327C187.679 17.2327 186.647 16.9845 185.778 16.4881C184.915 15.9866 184.251 15.2782 183.785 14.3631C183.32 13.4427 183.087 12.3595 183.087 11.1134C183.087 9.88804 183.32 8.81259 183.785 7.88707C184.256 6.95639 184.912 6.23253 185.755 5.71548C186.598 5.19327 187.588 4.93216 188.726 4.93216C189.46 4.93216 190.153 5.05108 190.804 5.28892C191.461 5.52159 192.04 5.88352 192.541 6.37472C193.048 6.86591 193.446 7.49153 193.736 8.25159C194.025 9.00648 194.17 9.90614 194.17 10.9506V11.8114H184.406V9.91906H191.479C191.474 9.38133 191.357 8.90307 191.13 8.48426C190.902 8.06028 190.584 7.72679 190.176 7.48378C189.773 7.24077 189.302 7.11926 188.764 7.11926C188.19 7.11926 187.686 7.25886 187.252 7.53807C186.818 7.8121 186.479 8.17403 186.236 8.62386C185.998 9.06852 185.877 9.55713 185.872 10.0897V11.7416C185.872 12.4345 185.998 13.0291 186.252 13.5255C186.505 14.0166 186.859 14.3941 187.314 14.6578C187.769 14.9163 188.302 15.0456 188.912 15.0456C189.32 15.0456 189.69 14.9887 190.021 14.8749C190.352 14.756 190.639 14.5828 190.882 14.3553C191.125 14.1278 191.308 13.846 191.432 13.5099L194.054 13.8047C193.888 14.4975 193.573 15.1024 193.108 15.6195C192.647 16.1314 192.058 16.5295 191.339 16.8139C190.621 17.0931 189.799 17.2327 188.873 17.2327ZM196.545 17V5.08727H199.268V7.07273H199.392C199.609 6.38506 199.981 5.85509 200.508 5.48281C201.041 5.10537 201.649 4.91665 202.331 4.91665C202.486 4.91665 202.659 4.9244 202.851 4.93991C203.047 4.95025 203.21 4.96835 203.339 4.9942V7.57685C203.22 7.53548 203.032 7.49929 202.773 7.46827C202.52 7.43207 202.274 7.41398 202.036 7.41398C201.524 7.41398 201.064 7.52514 200.656 7.74747C200.253 7.96463 199.935 8.2671 199.702 8.65489C199.469 9.04267 199.353 9.48991 199.353 9.99662V17H196.545ZM214.62 8.23608L212.061 8.51528C211.988 8.25676 211.861 8.01375 211.681 7.78625C211.505 7.55875 211.267 7.3752 210.967 7.2356C210.667 7.09599 210.3 7.02619 209.866 7.02619C209.281 7.02619 208.79 7.15287 208.392 7.40622C207.999 7.65957 207.805 7.9879 207.81 8.39119C207.805 8.73761 207.932 9.0194 208.19 9.23656C208.454 9.45372 208.888 9.6321 209.493 9.7717L211.525 10.206C212.653 10.449 213.49 10.8342 214.038 11.3616C214.591 11.889 214.871 12.5793 214.876 13.4324C214.871 14.1821 214.651 14.8439 214.217 15.4178C213.787 15.9866 213.19 16.4312 212.425 16.7518C211.66 17.0724 210.781 17.2327 209.788 17.2327C208.33 17.2327 207.156 16.9276 206.267 16.3175C205.378 15.7022 204.848 14.8465 204.677 13.7504L207.415 13.4867C207.539 14.0244 207.803 14.4303 208.206 14.7043C208.609 14.9784 209.134 15.1154 209.78 15.1154C210.447 15.1154 210.983 14.9784 211.386 14.7043C211.794 14.4303 211.998 14.0916 211.998 13.6883C211.998 13.3471 211.867 13.0653 211.603 12.843C211.344 12.6206 210.941 12.45 210.393 12.3311L208.361 11.9045C207.218 11.6667 206.373 11.266 205.825 10.7024C205.277 10.1336 205.005 9.41494 205.011 8.54631C205.005 7.8121 205.205 7.17614 205.608 6.63841C206.016 6.09551 206.582 5.6767 207.306 5.38199C208.035 5.0821 208.876 4.93216 209.827 4.93216C211.223 4.93216 212.322 5.22946 213.123 5.82406C213.93 6.41866 214.429 7.22267 214.62 8.23608Z" fill="white"/>
</svg>
