<svg width="198" height="44" viewBox="0 0 198 44" fill="none" xmlns="http://www.w3.org/2000/svg">
<g clip-path="url(#clip0_196_81)">
<path d="M-0.0144043 -0.0202789H9.48102V32.3049C9.48102 34.6701 10.4778 35.879 12.5238 35.879C12.9959 35.879 13.5205 35.8265 14.0976 35.6688C14.6747 35.5111 15.1993 35.3008 15.6714 35.038L16.9305 42.1864C15.7239 42.7645 14.3599 43.185 12.8385 43.5004C11.3172 43.8158 9.84825 43.9734 8.48427 43.9734C5.7563 43.9734 3.65786 43.2376 2.18895 41.8184C0.720047 40.3993 -0.0144043 38.3494 -0.0144043 35.6162V-0.0202789Z" fill="black"/>
<path d="M55.6801 -0.0202789H65.1755V32.3049C65.1755 34.6701 66.1722 35.879 68.2182 35.879C68.6904 35.879 69.215 35.8265 69.792 35.6688C70.3691 35.5111 70.8937 35.3008 71.3659 35.038L72.6249 42.1864C71.4183 42.7645 70.0543 43.185 68.533 43.5004C67.0116 43.8158 65.5427 43.9734 64.1787 43.9734C61.4508 43.9734 59.3523 43.2376 57.8834 41.8184C56.4145 40.3993 55.6801 38.3494 55.6801 35.6162V-0.0202789Z" fill="black"/>
<path d="M22.5545 38.8128C23.2365 39.5487 24.0234 40.1794 24.8628 40.7576L28.9023 31.8747C28.2727 30.6133 27.958 29.1416 27.958 27.4596C27.958 26.2507 28.1153 25.1469 28.4826 24.1482C28.8498 23.1496 29.3219 22.256 29.9515 21.5727C30.581 20.8369 31.3155 20.3113 32.1548 19.8908C32.9417 19.5229 33.7287 19.3652 34.6205 19.3126L38.1878 11.481C37.1386 11.3233 36.0894 11.2182 34.9353 11.2182C32.2598 11.2182 29.899 11.6912 27.853 12.5322C25.7546 13.4258 24.0234 14.6347 22.6069 16.1064C21.1905 17.5781 20.0888 19.3126 19.3544 21.3099C18.6199 23.2547 18.2527 25.3046 18.2527 27.4596C18.2527 29.6146 18.6199 31.6645 19.3544 33.6093C20.0364 35.6066 21.138 37.2885 22.5545 38.8128Z" fill="black"/>
<path d="M47.2453 16.1261C46.5633 15.3902 45.7764 14.7595 44.937 14.1813L40.8976 23.0642C41.5271 24.2731 41.8419 25.7448 41.8419 27.4268C41.8419 28.6357 41.6845 29.7395 41.3172 30.7381C40.95 31.7368 40.4779 32.6303 39.8483 33.3136C39.2188 34.0495 38.5368 34.5751 37.6974 34.9956C36.963 35.3635 36.1236 35.5212 35.2318 35.5737L31.6644 43.3528C32.7136 43.5105 33.8153 43.6156 34.917 43.6156C37.5925 43.6156 39.9533 43.1951 41.9992 42.3016C44.0977 41.408 45.8289 40.2517 47.2453 38.78C48.6618 37.3083 49.7635 35.5737 50.4979 33.5764C51.2324 31.6317 51.5996 29.5818 51.5996 27.4268C51.5996 25.2717 51.2324 23.2219 50.4454 21.2771C49.7635 19.3323 48.6618 17.5978 47.2453 16.1261Z" fill="black"/>
<path d="M78.4123 38.857C79.0943 39.5928 79.8812 40.2236 80.7206 40.8017L84.76 31.9189C84.1305 30.6574 83.8157 29.1857 83.8157 27.5038C83.8157 26.2948 83.9731 25.1911 84.3404 24.1924C84.7076 23.1937 85.1797 22.3002 85.8093 21.6169C86.4388 20.881 87.1732 20.3554 88.0126 19.9349C88.7995 19.567 89.5865 19.4093 90.4783 19.3568L94.0456 11.5252C92.9964 11.3675 91.9472 11.2623 90.7931 11.2623C88.1175 11.2623 85.7568 11.7354 83.7108 12.5764C81.6124 13.4699 79.8812 14.6788 78.4647 16.1505C77.0483 17.6223 75.9466 19.3568 75.2122 21.3541C74.4777 23.2989 74.1105 25.3487 74.1105 27.5038C74.1105 29.6588 74.4777 31.7087 75.2122 33.6534C75.8941 35.6507 76.9958 37.3853 78.4123 38.857Z" fill="black"/>
<path d="M103.051 16.1702C102.369 15.4344 101.582 14.8037 100.742 14.2255L96.703 23.1083C97.3325 24.3172 97.6473 25.7889 97.6473 27.4709C97.6473 28.6798 97.4899 29.7836 97.1227 30.7823C96.7554 31.7809 96.2833 32.6745 95.6538 33.3578C95.0242 34.041 94.3422 34.6192 93.5029 35.0397C92.7684 35.4076 91.929 35.5653 91.0372 35.6179L87.4698 43.3969C88.5191 43.5546 89.6207 43.6598 90.7224 43.6598C93.3979 43.6598 95.7587 43.2393 97.8047 42.3457C99.8506 41.4522 101.634 40.2958 103.051 38.8241C104.467 37.3524 105.569 35.6179 106.303 33.6206C107.038 31.6758 107.405 29.6259 107.405 27.4709C107.405 25.3159 107.038 23.266 106.251 21.3212C105.569 19.429 104.52 17.6945 103.051 16.1702Z" fill="black"/>
<path d="M118.792 27.6706C118.792 25.5156 119.159 23.4657 119.946 21.521C120.681 19.5762 121.782 17.8417 123.199 16.3174C124.615 14.8457 126.399 13.6368 128.445 12.7958C130.543 11.9023 132.904 11.4818 135.527 11.4818C139.147 11.4818 142.137 12.2702 144.603 13.7945C147.068 15.3188 148.905 17.3161 150.111 19.7865L140.931 22.5722C139.724 20.5749 137.888 19.5762 135.527 19.5762C133.534 19.5762 131.907 20.3121 130.543 21.7838C129.232 23.2555 128.55 25.2003 128.55 27.6706C128.55 28.8795 128.707 30.0359 129.074 31.0346C129.442 32.0332 129.914 32.9268 130.543 33.6101C131.173 34.3459 131.907 34.8715 132.799 35.292C133.638 35.7125 134.53 35.8702 135.527 35.8702C136.734 35.8702 137.783 35.6074 138.78 35.0292C139.776 34.451 140.511 33.7152 140.983 32.8216L150.269 35.6599C149.114 38.0778 147.278 40.0751 144.76 41.5994C142.242 43.1762 139.147 43.9646 135.579 43.9646C132.956 43.9646 130.596 43.5441 128.55 42.6506C126.451 41.757 124.72 40.5481 123.251 39.0764C121.782 37.6047 120.681 35.8702 119.946 33.8729C119.159 31.8755 118.792 29.8256 118.792 27.6706Z" fill="black"/>
<path d="M157.04 39.1643C157.722 39.9001 158.509 40.5309 159.348 41.109L163.388 32.2262C162.758 30.9647 162.443 29.493 162.443 27.8111C162.443 26.6021 162.601 25.4984 162.968 24.4997C163.335 23.501 163.807 22.6075 164.437 21.9242C165.066 21.1883 165.801 20.6627 166.64 20.2422C167.427 19.8743 168.214 19.7166 169.106 19.6641L172.673 11.8324C171.624 11.6748 170.575 11.5696 169.421 11.5696C166.745 11.5696 164.384 12.0427 162.338 12.9362C160.292 13.8298 158.509 15.0387 157.092 16.5104C155.676 17.9821 154.574 19.7166 153.84 21.714C153.105 23.6587 152.738 25.7086 152.738 27.8636C152.738 30.0186 153.105 32.0685 153.84 34.0133C154.522 35.958 155.571 37.6926 157.04 39.1643Z" fill="black"/>
<path d="M181.678 16.478C180.996 15.7422 180.209 15.1114 179.37 14.5333L175.33 23.4161C175.96 24.625 176.274 26.0967 176.274 27.7787C176.274 28.9876 176.117 30.0914 175.75 31.09C175.383 32.0887 174.91 32.9823 174.281 33.6655C173.651 34.4014 172.969 34.927 172.13 35.3475C171.396 35.7154 170.556 35.8731 169.664 35.9257L166.097 43.7047C167.146 43.8624 168.248 43.9675 169.35 43.9675C172.025 43.9675 174.386 43.5471 176.432 42.6535C178.478 41.76 180.261 40.6036 181.678 39.1319C183.094 37.6602 184.196 35.9257 184.931 33.9284C185.665 31.9836 186.032 29.9337 186.032 27.7787C186.032 25.6237 185.665 23.5738 184.878 21.629C184.196 19.6843 183.094 17.9497 181.678 16.478Z" fill="black"/>
<path d="M197.991 33.6564H190.227V43.3803H197.991V33.6564Z" fill="black"/>
</g>
<defs>
<clipPath id="clip0_196_81">
<rect width="198" height="44" fill="white"/>
</clipPath>
</defs>
</svg>
