<svg width="135" height="44" viewBox="0 0 135 44" fill="none" xmlns="http://www.w3.org/2000/svg">
<path d="M19.3458 8.4627H24.1531V25.8001C24.1531 27.7005 23.7039 29.3721 22.8055 30.8147C21.9157 32.2573 20.6632 33.3846 19.0478 34.1966C17.4324 35 15.5449 35.4017 13.3853 35.4017C11.217 35.4017 9.3252 35 7.70981 34.1966C6.09442 33.3846 4.84185 32.2573 3.95209 30.8147C3.06233 29.3721 2.61745 27.7005 2.61745 25.8001V8.4627H7.42474V25.3984C7.42474 26.5041 7.66662 27.4889 8.15037 28.3527C8.64276 29.2166 9.33384 29.8947 10.2236 30.3871C11.1134 30.8708 12.1672 31.1127 13.3853 31.1127C14.6033 31.1127 15.6572 30.8708 16.5469 30.3871C17.4453 29.8947 18.1364 29.2166 18.6202 28.3527C19.1039 27.4889 19.3458 26.5041 19.3458 25.3984V8.4627ZM29.3783 35V8.4627H39.3297C41.3684 8.4627 43.0788 8.8428 44.461 9.60298C45.8518 10.3632 46.9013 11.4084 47.6097 12.7387C48.3267 14.0604 48.6852 15.5635 48.6852 17.248C48.6852 18.9498 48.3267 20.4615 47.6097 21.7832C46.8927 23.1049 45.8345 24.1458 44.4351 24.906C43.0356 25.6575 41.3123 26.0333 39.265 26.0333H32.6695V22.0812H38.6171C39.8092 22.0812 40.7853 21.8739 41.5455 21.4592C42.3057 21.0446 42.8672 20.4745 43.23 19.7488C43.6015 19.0232 43.7872 18.1896 43.7872 17.248C43.7872 16.3064 43.6015 15.4771 43.23 14.7601C42.8672 14.0431 42.3014 13.486 41.5326 13.0886C40.7724 12.6826 39.7919 12.4796 38.5912 12.4796H34.1856V35H29.3783ZM52.8608 35V8.4627H57.6681V19.697H69.9649V8.4627H74.7852V35H69.9649V23.7268H57.6681V35H52.8608ZM83.4214 35H78.2902L87.6327 8.4627H93.5673L102.923 35H97.7915L90.7036 13.9049H90.4963L83.4214 35ZM83.5899 24.595H97.5842V28.4564H83.5899V24.595ZM111.225 8.4627V35H106.418V8.4627H111.225ZM116.431 35V8.4627H121.238V30.9702H132.926V35H116.431Z" fill="white"/>
</svg>
