<svg width="44" height="44" viewBox="0 0 44 44" fill="none" xmlns="http://www.w3.org/2000/svg">
<path fill-rule="evenodd" clip-rule="evenodd" d="M12.7411 14.6847C12.7447 14.6538 12.7465 14.6223 12.7465 14.5904C12.7465 14.1402 12.3816 13.7752 11.9314 13.7752C11.5187 13.7752 11.1777 14.0818 11.1237 14.4796H11.1218C11.1219 14.4836 11.122 14.4876 11.1221 14.4916C11.1182 14.5239 11.1162 14.5569 11.1162 14.5904C11.1162 14.6487 11.1223 14.7056 11.134 14.7605C11.3091 17.894 12.7641 20.6769 14.9725 22.5734C15.4552 22.988 15.9541 23.3921 16.4541 23.797C18.2386 25.2423 20.0359 26.698 21.1531 28.6754C21.5302 29.3468 22.4759 29.3468 22.8559 28.6754C23.9593 26.7212 25.7238 25.2381 27.469 23.7713C28.0025 23.3229 28.5344 22.8759 29.0449 22.4175C31.1458 20.531 32.5235 17.824 32.6998 14.7858C32.7124 14.7305 32.7191 14.6729 32.7191 14.6138C32.7191 14.5793 32.7168 14.5453 32.7124 14.512L32.7135 14.4796H32.7075C32.6439 14.1175 32.3279 13.8423 31.9476 13.8423C31.5672 13.8423 31.2512 14.1175 31.1877 14.4796H31.1704C31.0426 18.2653 28.7591 21.4888 25.5445 22.8898C25.5164 22.9101 25.4849 22.9259 25.451 22.9363C25.4313 22.9424 25.4109 22.9487 25.39 22.9554C25.278 23.0019 25.1649 23.046 25.0507 23.088C24.7584 23.2273 24.4363 23.4591 24.1959 23.8839L22.6129 26.6449C22.347 27.1075 21.6853 27.1075 21.4215 26.6449L19.8611 23.9254C19.5748 23.4945 19.4365 23.339 19.0869 23.1706C15.554 21.9836 12.9581 18.6603 12.7411 14.6847Z" fill="white"/>
<path fill-rule="evenodd" clip-rule="evenodd" d="M22.3864 15.9307C23.0825 15.7396 23.594 15.1023 23.594 14.3455C23.594 13.4377 22.8581 12.7018 21.9503 12.7018C21.0425 12.7018 20.3066 13.4377 20.3066 14.3455C20.3066 15.0778 20.7855 15.6982 21.4472 15.9107V22.1614C21.4472 22.4207 21.6574 22.631 21.9168 22.631C22.1762 22.631 22.3864 22.4207 22.3864 22.1614V15.9307Z" fill="white"/>
<path d="M31.8845 13.3466C32.3308 13.3154 32.6704 12.9275 32.6059 12.4848C32.2551 10.0789 31.1008 7.85275 29.3185 6.17608C27.3387 4.31376 24.7297 3.26624 22.0118 3.24252C19.2938 3.2188 16.6669 4.22062 14.655 6.04811C12.8436 7.69343 11.6506 9.89913 11.2579 12.2985C11.1857 12.74 11.5185 13.1338 11.9642 13.1727C12.4099 13.2117 12.7992 12.881 12.8773 12.4404C13.2307 10.4474 14.2349 8.61854 15.7444 7.24745C17.4545 5.69407 19.6874 4.84251 21.9976 4.86265C24.3078 4.88285 26.5256 5.77322 28.2083 7.3562C29.6936 8.75346 30.6658 10.5996 30.9843 12.5985C31.0547 13.0403 31.4381 13.3778 31.8845 13.3466Z" fill="white"/>
<path d="M28.3348 11.3538C28.6206 11.2018 28.7309 10.8454 28.558 10.5718C27.9175 9.55857 27.051 8.70385 26.0235 8.07665C24.8287 7.34736 23.46 6.95228 22.0604 6.93274C20.6608 6.91319 19.2816 7.26992 18.0669 7.96553C17.0222 8.56384 16.1322 9.39401 15.4637 10.3889C15.2832 10.6576 15.3835 11.017 15.665 11.1769C15.9465 11.3368 16.3023 11.2364 16.4864 10.9701C17.0487 10.1566 17.7871 9.47682 18.6496 8.98291C19.682 8.39159 20.8543 8.08841 22.044 8.10504C23.2337 8.12166 24.3971 8.45745 25.4126 9.07734C26.2609 9.59516 26.9801 10.2953 27.5195 11.1242C27.6961 11.3955 28.0489 11.5058 28.3348 11.3538Z" fill="white"/>
<path d="M25.9168 12.9231C26.096 12.8279 26.1651 12.6046 26.0567 12.4331C25.6554 11.7982 25.1125 11.2627 24.4686 10.8696C23.7199 10.4127 22.8623 10.1651 21.9853 10.1529C21.1083 10.1406 20.2441 10.3641 19.4829 10.8C18.8283 11.1749 18.2706 11.6951 17.8517 12.3185C17.7386 12.4869 17.8015 12.7121 17.9779 12.8122C18.1542 12.9125 18.3772 12.8496 18.4925 12.6827C18.8449 12.173 19.3076 11.747 19.848 11.4375C20.495 11.067 21.2296 10.877 21.975 10.8874C22.7205 10.8978 23.4494 11.1082 24.0858 11.4967C24.6174 11.8211 25.068 12.2599 25.406 12.7793C25.5167 12.9493 25.7377 13.0184 25.9168 12.9231Z" fill="white"/>
<path d="M4.67812 41.1284C4.12233 41.1284 3.75952 40.8505 3.5897 40.2947C3.41987 39.6617 3.33496 38.6737 3.33496 37.3305C3.33496 34.6133 3.73637 32.0968 4.53917 29.7811C4.6318 29.4877 4.74759 29.2021 4.88654 28.9242C5.28796 28.1677 5.7048 27.7895 6.13707 27.7895C6.66196 27.7895 7.00933 28.0288 7.17917 28.5074L7.20233 28.6926C7.20233 28.9242 7.10196 29.04 6.90128 29.04H6.85496C6.62338 29.04 6.45354 29.1326 6.34549 29.3179C6.11391 29.7038 5.85917 30.3986 5.58128 31.4021C5.1027 33.1621 4.84796 35.2695 4.81707 37.7242C4.81707 38.1719 4.84796 38.3958 4.9097 38.3958C4.97144 38.3958 5.05638 38.2414 5.16443 37.9326C6.07533 35.4162 7.01707 33.4323 7.9897 31.9811C8.17496 31.6877 8.41427 31.541 8.70759 31.541C9.17075 31.541 9.51038 31.7572 9.72654 32.1895C9.83459 32.6217 9.92723 33.3319 10.0044 34.32C10.1588 36.0183 10.2746 36.8674 10.3518 36.8674C10.4135 36.8674 10.4753 36.6898 10.5371 36.3347C10.8459 34.9762 11.1623 33.6253 11.4865 32.2821C12.0886 29.7965 12.5827 28.1059 12.9686 27.2105C13.0922 26.9635 13.2697 26.84 13.5013 26.84C13.6248 26.84 13.756 26.894 13.895 27.0021C14.0339 27.0947 14.1034 27.2183 14.1034 27.3726L14.0802 27.5579C12.8451 31.2168 11.8339 35.4625 11.0465 40.2947C11.0156 40.5263 10.9462 40.6962 10.8381 40.8042C10.7301 40.9123 10.5602 40.9663 10.3286 40.9663C9.9118 40.9663 9.64933 40.7579 9.54128 40.341C9.15533 38.5965 8.86196 36.6744 8.66128 34.5747L8.54549 33.5326C8.26759 33.9649 8.05917 34.3509 7.92022 34.6905L7.78128 34.9916C7.45707 35.6863 7.16375 36.3888 6.90128 37.0989C6.4227 38.3495 6.10617 39.1986 5.9518 39.6463C5.9518 39.7081 5.82828 40.0014 5.58128 40.5263C5.3497 40.9277 5.04865 41.1284 4.67812 41.1284ZM14.0762 36.0105C14.4159 35.6709 14.7324 35.2232 15.0257 34.6674C15.4117 34.0807 15.6047 33.6638 15.6047 33.4168C15.6047 33.247 15.5506 33.1621 15.4426 33.1621H15.3499C15.2727 33.1775 15.1801 33.2547 15.072 33.3937C14.8405 33.7179 14.6243 34.1347 14.4236 34.6442C14.2229 35.1537 14.1071 35.6091 14.0762 36.0105ZM17.9436 32.3284C17.6503 33.44 17.4805 34.1038 17.4341 34.32C17.2643 35.1846 17.164 35.8638 17.1331 36.3579C17.1331 36.6512 17.1562 36.9446 17.2026 37.2379C17.2026 37.5467 17.1177 37.701 16.9478 37.701C16.3766 37.701 16.091 37.3228 16.091 36.5663C16.091 35.9951 16.1373 35.3698 16.2299 34.6905C16.1836 34.7523 16.1219 34.8526 16.0447 34.9916L15.7205 35.4779C15.2727 36.2498 14.9099 36.7362 14.632 36.9368C14.4159 37.0912 14.1843 37.1684 13.9373 37.1684C13.7675 37.1684 13.5822 37.1221 13.3815 37.0295C13.0264 36.8442 12.8489 36.4274 12.8489 35.7789C12.8489 35.1459 13.0419 34.4512 13.4278 33.6947C13.6748 33.2162 13.9682 32.8147 14.3078 32.4905C14.6938 32.1354 15.0643 31.9579 15.4194 31.9579C15.7436 31.9579 16.0447 32.1277 16.3226 32.4674L16.8089 31.7263C16.9787 31.4947 17.1253 31.3789 17.2489 31.3789C17.3261 31.3789 17.4187 31.4021 17.5268 31.4484C17.8201 31.5719 17.9668 31.7726 17.9668 32.0505C17.9668 32.1123 17.959 32.2049 17.9436 32.3284ZM19.9332 36.2653C20.0567 36.1263 20.3269 35.6554 20.7437 34.8526C21.0062 34.3432 21.1374 33.8491 21.1374 33.3705C21.1374 33 21.0602 32.6295 20.9058 32.2589C20.2265 33.3088 19.8869 34.3972 19.8869 35.5242C19.8869 35.7712 19.9023 36.0183 19.9332 36.2653ZM19.7711 37.4463C19.277 37.4463 18.9065 37.1838 18.6595 36.6589C18.5823 36.3965 18.5437 36.1263 18.5437 35.8484C18.5437 34.6905 18.8679 33.4786 19.5164 32.2126C19.7016 31.8575 19.9332 31.541 20.2111 31.2632C20.4272 31.047 20.6357 30.9389 20.8364 30.9389C21.0062 30.9389 21.1837 31.0316 21.369 31.2168C21.9711 31.7572 22.2721 32.3747 22.2721 33.0695L22.2953 33.5095C22.2953 33.8028 22.249 34.0807 22.1564 34.3432C21.9094 35.2386 21.4925 36.0646 20.9058 36.821C20.5816 37.2379 20.2034 37.4463 19.7711 37.4463Z" fill="white"/>
<path d="M24.3004 41.1284C23.9917 41.1284 23.7061 41.0589 23.4436 40.92C23.1966 40.781 23.0731 40.6035 23.0731 40.3874C23.0731 40.2175 23.1811 40.1326 23.3973 40.1326H23.4899C23.8296 40.1326 24.1306 40.04 24.3931 39.8547C24.6555 39.6849 24.9103 39.4765 25.1573 39.2295C25.8983 38.4884 26.4619 37.7628 26.8478 37.0526C27.0331 36.7284 27.1257 36.4351 27.1257 36.1726C27.1257 35.3081 26.1685 34.8758 24.2541 34.8758C24.1306 34.8604 23.9531 34.8526 23.7215 34.8526C22.579 34.7291 22.0078 34.32 22.0078 33.6253C22.0078 33.3319 22.1236 32.9691 22.3552 32.5368C23.5903 30.5607 25.111 28.847 26.9173 27.3958C27.6583 26.7937 28.3222 26.4926 28.9089 26.4926C29.4955 26.4926 29.9278 26.7628 30.2057 27.3032C30.2366 27.3958 30.2674 27.4807 30.2983 27.5579C30.3292 27.6351 30.3447 27.7277 30.3447 27.8358C30.3447 27.9438 30.3215 28.0519 30.2752 28.16C30.2289 28.2526 30.1594 28.3221 30.0668 28.3684C29.9896 28.4147 29.9201 28.4379 29.8583 28.4379L29.6962 28.3916L29.4415 28.2295C29.2099 28.0442 29.0555 27.9516 28.9783 27.9516C28.8703 27.9516 28.7082 28.0288 28.492 28.1832C26.9636 29.233 25.4815 30.7846 24.0457 32.8379C24.0148 32.8533 23.9917 32.8842 23.9762 32.9305C23.791 33.1467 23.6598 33.3937 23.5826 33.6716C24.6787 33.7642 25.3734 33.8414 25.6668 33.9032C26.5931 34.0884 27.3341 34.4821 27.8899 35.0842C28.3222 35.5474 28.5383 36.0337 28.5383 36.5432C28.5383 36.8983 28.4303 37.2688 28.2141 37.6547C27.5503 38.8744 26.6471 39.8856 25.5047 40.6884C25.0878 40.9817 24.6864 41.1284 24.3004 41.1284ZM30.5297 37.4926C29.9276 37.4926 29.6266 37.0989 29.6266 36.3116C29.6266 35.3544 29.7578 34.2428 30.0203 32.9768C30.2055 31.9425 30.4757 31.4253 30.8308 31.4253C30.9234 31.4253 31.016 31.4407 31.1087 31.4716C31.4329 31.5951 31.595 31.8035 31.595 32.0968L31.5255 32.3979C31.3094 32.9074 31.1473 33.4323 31.0392 33.9726C30.8539 34.8681 30.7459 35.5705 30.715 36.08C30.715 36.3888 30.7382 36.6975 30.7845 37.0063C30.7845 37.3305 30.6996 37.4926 30.5297 37.4926ZM31.8034 30.9158C31.3712 30.9158 31.1473 30.7074 31.1318 30.2905C31.3017 29.3333 31.5409 28.8547 31.8497 28.8547C31.9578 28.8547 32.0736 28.8933 32.1971 28.9705C32.475 29.1095 32.6139 29.287 32.6139 29.5032C32.6139 29.5649 32.5985 29.6189 32.5676 29.6653C32.3824 29.9277 32.2512 30.2056 32.1739 30.4989C32.0967 30.7768 31.9733 30.9158 31.8034 30.9158ZM40.5857 39.16C40.4159 39.16 40.2538 39.0983 40.0994 38.9747C39.9604 38.8512 39.8601 38.6968 39.7983 38.5116C39.752 38.3263 39.7288 38.141 39.7288 37.9558C39.7288 37.8323 39.7366 37.7165 39.752 37.6084C39.8909 36.2807 40.1534 34.7446 40.5394 33C40.5703 32.9074 40.5934 32.807 40.6088 32.6989L40.632 32.56C40.4313 32.6681 40.2846 32.8147 40.192 33C39.6362 33.7411 38.7794 34.9762 37.6215 36.7053C37.4825 36.9368 37.3359 37.1607 37.1815 37.3768L37.112 37.4695C36.9267 37.7165 36.6952 37.8477 36.4173 37.8632C36.1857 37.8632 35.9618 37.7705 35.7457 37.5853C35.4678 37.3846 35.3288 36.9909 35.3288 36.4042C35.3288 35.7404 35.4138 34.9838 35.5836 34.1347L35.6067 33.9726C35.6067 33.9263 35.5913 33.9032 35.5604 33.9032C35.4987 33.9032 35.4138 33.9881 35.3057 34.1579C34.7654 34.9144 34.2173 35.8793 33.6615 37.0526C33.4762 37.3923 33.2369 37.5621 32.9436 37.5621C32.7738 37.5621 32.5962 37.4926 32.4109 37.3537C32.2257 37.1993 32.133 36.9986 32.133 36.7516V36.7053C32.272 35.4393 32.4959 34.3895 32.8046 33.5558C32.9127 33.1389 33.1288 32.9305 33.453 32.9305C33.8236 32.9305 34.0088 33.1235 34.0088 33.5095C34.0088 33.633 33.9934 33.7874 33.9625 33.9726L34.3099 33.5326C35.0201 32.6835 35.4909 32.1509 35.7225 31.9347C35.9387 31.7804 36.1471 31.7032 36.3478 31.7032C36.7492 31.7032 37.0194 31.927 37.1583 32.3747C37.1892 32.4828 37.2046 32.5986 37.2046 32.7221C37.2046 32.8919 37.0811 33.6793 36.8341 35.0842C36.7878 35.2077 36.7646 35.3544 36.7646 35.5242L36.7878 35.7558C36.9113 35.7095 37.0039 35.6091 37.0657 35.4547C37.1429 35.3004 37.6446 34.5747 38.5709 33.2779C39.3583 32.1509 40.1303 31.2323 40.8867 30.5221C41.0875 30.2905 41.2882 30.1747 41.4888 30.1747C41.566 30.1747 41.6509 30.1979 41.7436 30.2442C42.1296 30.4449 42.3225 30.7537 42.3225 31.1705C42.3225 31.433 42.2608 31.7495 42.1373 32.12C41.6896 33.6175 41.2959 35.4084 40.9562 37.4926C40.9099 37.7242 40.8867 37.9867 40.8867 38.28C40.8867 38.4498 40.9099 38.6196 40.9562 38.7895L40.9794 38.8821C40.9794 39.0674 40.8481 39.16 40.5857 39.16Z" fill="white"/>
</svg>
