<svg width="75" height="75" fill="none" xmlns="http://www.w3.org/2000/svg"><path d="M43.815 37.95a8.572 8.572 0 11-2.902 7.465c-.764-3.878-.755-8.5.995-12.642 1.847-4.372 5.573-8.055 11.935-9.72a1.607 1.607 0 11.814 3.109c-5.423 1.42-8.34 4.434-9.788 7.861a15.481 15.481 0 00-1.054 3.928zM20.815 37.95a8.572 8.572 0 11-2.902 7.465c-.764-3.878-.755-8.5.995-12.642 1.847-4.372 5.573-8.055 11.935-9.72a1.607 1.607 0 11.814 3.109c-5.423 1.42-8.34 4.434-9.788 7.861a15.481 15.481 0 00-1.054 3.928z" fill="#000"/><circle cx="37.5" cy="37.5" r="36.5" stroke="#000" stroke-width="2"/></svg>