<svg width="25" height="25" viewBox="0 0 25 25" fill="none" xmlns="http://www.w3.org/2000/svg">
<mask id="mask0_421_4534" style="mask-type:alpha" maskUnits="userSpaceOnUse" x="0" y="0" width="25" height="25">
<g clip-path="url(#clip0_421_4534)">
<mask id="mask1_421_4534" style="mask-type:alpha" maskUnits="userSpaceOnUse" x="0" y="1" width="25" height="24">
<path d="M24.0205 1.10938H0.980469V24.1494H24.0205V1.10938Z" fill="#D9D9D9"/>
</mask>
<g mask="url(#mask1_421_4534)">
<path d="M17.3004 8.84032L6.81794 19.3228C6.68501 19.4557 6.51794 19.5237 6.31673 19.5268C6.11549 19.5298 5.94534 19.4619 5.80626 19.3228C5.6672 19.1837 5.59766 19.0151 5.59766 18.8169C5.59766 18.6188 5.6672 18.4502 5.80626 18.3111L16.2887 7.82865H10.3404C10.1364 7.82865 9.9654 7.75962 9.8274 7.62155C9.6894 7.4835 9.62039 7.31243 9.62039 7.10834C9.62039 6.90426 9.6894 6.73329 9.8274 6.59546C9.9654 6.4576 10.1364 6.38867 10.3404 6.38867H17.8727C18.1186 6.38867 18.3246 6.47184 18.4909 6.63816C18.6572 6.80446 18.7404 7.01053 18.7404 7.25637V14.7887C18.7404 14.9927 18.6713 15.1636 18.5333 15.3017C18.3952 15.4396 18.2242 15.5087 18.0201 15.5087C17.816 15.5087 17.645 15.4396 17.5071 15.3017C17.3693 15.1636 17.3004 14.9927 17.3004 14.7887V8.84032Z" fill="#192020"/>
</g>
</g>
</mask>
<g mask="url(#mask0_421_4534)">
<rect x="0.5" y="0.628906" width="24" height="24" fill="black"/>
</g>
<defs>
<clipPath id="clip0_421_4534">
<rect width="24" height="24" fill="white" transform="translate(0.5 0.628906)"/>
</clipPath>
</defs>
</svg>
