<svg width="27" height="27" viewBox="0 0 27 27" fill="none" xmlns="http://www.w3.org/2000/svg">
<g clip-path="url(#clip0_1056_13422)">
<path d="M23.2638 18.7919C21.6327 17.3969 19.9774 16.5518 18.3664 17.9448L17.4044 18.7866C16.7005 19.3978 15.3919 22.2532 10.3322 16.4328C5.27361 10.6197 8.28392 9.71464 8.98881 9.10879L9.95607 8.26586C11.5587 6.86976 10.9539 5.11226 9.79802 3.30313L9.1005 2.20732C7.93937 0.402407 6.67498 -0.782959 5.06815 0.611031L4.19994 1.36967C3.48977 1.88701 1.50468 3.56865 1.02316 6.76334C0.443644 10.5966 2.27174 14.9861 6.46003 19.8024C10.6431 24.6207 14.7386 27.041 18.6182 26.9989C21.8424 26.9641 23.7896 25.234 24.3986 24.6049L25.2699 23.8453C26.8726 22.4523 25.8769 21.0341 24.2447 19.6359L23.2638 18.7919Z" fill="white"/>
</g>
<defs>
<clipPath id="clip0_1056_13422">
<rect width="27" height="27" fill="white"/>
</clipPath>
</defs>
</svg>
