<svg width="44" height="46" viewBox="0 0 44 46" fill="none" xmlns="http://www.w3.org/2000/svg">
<path d="M21.7637 42.2662C19.1 42.2662 16.5779 41.742 14.1975 40.6935C11.8171 39.6733 9.73423 38.2706 7.94893 36.4853C6.16364 34.7 4.7609 32.6171 3.74073 30.2367C2.69222 27.8563 2.16797 25.3342 2.16797 22.6705C2.16797 20.0067 2.69222 17.4846 3.74073 15.1042C4.7609 12.7238 6.16364 10.641 7.94893 8.85566C9.73423 7.07035 11.8171 5.66762 14.1975 4.64745C16.5779 3.59894 19.1 3.07469 21.7637 3.07469C24.4275 3.07469 26.9496 3.59894 29.33 4.64745C31.7104 5.66762 33.7933 7.07035 35.5785 8.85566C37.3638 10.641 38.7666 12.7238 39.7868 15.1042C40.8353 17.4846 41.3595 20.0067 41.3595 22.6705C41.3595 25.3342 40.8353 27.8563 39.7868 30.2367C38.7666 32.6171 37.3638 34.7 35.5785 36.4853C33.7933 38.2706 31.7104 39.6733 29.33 40.6935C26.9496 41.742 24.4275 42.2662 21.7637 42.2662ZM21.7637 5.96517C19.44 5.96517 17.2722 6.40441 15.2602 7.28289C13.2198 8.16137 11.4487 9.35157 9.94677 10.8535C8.44485 12.3554 7.25465 14.1265 6.37617 16.1669C5.49769 18.1789 5.05845 20.3467 5.05845 22.6705C5.05845 24.9942 5.49769 27.162 6.37617 29.174C7.25465 31.2144 8.44485 32.9855 9.94677 34.4874C11.4487 35.9894 13.2198 37.1796 15.2602 38.058C17.2722 38.9365 19.44 39.3758 21.7637 39.3758C24.0875 39.3758 26.2553 38.9365 28.2673 38.058C30.3077 37.1796 32.0788 35.9894 33.5807 34.4874C35.0826 32.9855 36.2728 31.2144 37.1513 29.174C38.0298 27.162 38.469 24.9942 38.469 22.6705C38.469 20.3467 38.0298 18.1789 37.1513 16.1669C36.2728 14.1265 35.0826 12.3554 33.5807 10.8535C32.0788 9.35157 30.3077 8.16137 28.2673 7.28289C26.2553 6.40441 24.0875 5.96517 21.7637 5.96517ZM19.2133 29.2166C19.0433 29.2166 18.8733 29.174 18.7032 29.089C18.5332 29.004 18.4057 28.919 18.3207 28.834L13.2198 23.7756C12.9648 23.4923 12.8373 23.1522 12.8373 22.7555C12.8373 22.3587 12.9648 22.0329 13.2198 21.7778C13.5032 21.4944 13.8433 21.3527 14.24 21.3527C14.6367 21.3527 14.9626 21.4944 15.2176 21.7778L19.4259 25.9435L28.6499 16.677C28.9333 16.4219 29.2662 16.2944 29.6488 16.2944C30.0314 16.2944 30.3643 16.4219 30.6477 16.677C30.9311 16.9603 31.0728 17.3004 31.0728 17.6971C31.0728 18.0939 30.9311 18.4198 30.6477 18.6748L20.3185 29.004C20.1201 29.004 19.9359 29.0394 19.7659 29.1103C19.5959 29.1811 19.4117 29.2166 19.2133 29.2166Z" fill="white"/>
</svg>
