<svg width="24" height="25" viewBox="0 0 24 25" fill="none" xmlns="http://www.w3.org/2000/svg">
<mask id="mask0_421_4798" style="mask-type:alpha" maskUnits="userSpaceOnUse" x="0" y="0" width="24" height="25">
<g clip-path="url(#clip0_421_4798)">
<path d="M10.6 14.1901L8.45 12.0401C8.26667 11.8568 8.03333 11.7651 7.75 11.7651C7.46667 11.7651 7.23333 11.8568 7.05 12.0401C6.86667 12.2235 6.775 12.4568 6.775 12.7401C6.775 13.0235 6.86667 13.2568 7.05 13.4401L9.9 16.2901C10.1 16.4901 10.3333 16.5901 10.6 16.5901C10.8667 16.5901 11.1 16.4901 11.3 16.2901L16.95 10.6401C17.1333 10.4568 17.225 10.2235 17.225 9.94014C17.225 9.6568 17.1333 9.42347 16.95 9.24014C16.7667 9.0568 16.5333 8.96514 16.25 8.96514C15.9667 8.96514 15.7333 9.0568 15.55 9.24014L10.6 14.1901ZM12 22.3901C10.6167 22.3901 9.31667 22.1276 8.1 21.6026C6.88333 21.0776 5.825 20.3651 4.925 19.4651C4.025 18.5651 3.3125 17.5068 2.7875 16.2901C2.2625 15.0735 2 13.7735 2 12.3901C2 11.0068 2.2625 9.7068 2.7875 8.49014C3.3125 7.27347 4.025 6.21514 4.925 5.31514C5.825 4.41514 6.88333 3.70264 8.1 3.17764C9.31667 2.65264 10.6167 2.39014 12 2.39014C13.3833 2.39014 14.6833 2.65264 15.9 3.17764C17.1167 3.70264 18.175 4.41514 19.075 5.31514C19.975 6.21514 20.6875 7.27347 21.2125 8.49014C21.7375 9.7068 22 11.0068 22 12.3901C22 13.7735 21.7375 15.0735 21.2125 16.2901C20.6875 17.5068 19.975 18.5651 19.075 19.4651C18.175 20.3651 17.1167 21.0776 15.9 21.6026C14.6833 22.1276 13.3833 22.3901 12 22.3901ZM12 20.3901C14.2333 20.3901 16.125 19.6151 17.675 18.0651C19.225 16.5151 20 14.6235 20 12.3901C20 10.1568 19.225 8.26514 17.675 6.71514C16.125 5.16514 14.2333 4.39014 12 4.39014C9.76667 4.39014 7.875 5.16514 6.325 6.71514C4.775 8.26514 4 10.1568 4 12.3901C4 14.6235 4.775 16.5151 6.325 18.0651C7.875 19.6151 9.76667 20.3901 12 20.3901Z" fill="#E8EAED"/>
</g>
</mask>
<g mask="url(#mask0_421_4798)">
<rect y="0.390137" width="24" height="24" fill="#192020"/>
</g>
<defs>
<clipPath id="clip0_421_4798">
<rect width="24" height="24" fill="white" transform="translate(0 0.390137)"/>
</clipPath>
</defs>
</svg>
