<svg width="51" height="50" viewBox="0 0 51 50" fill="none" xmlns="http://www.w3.org/2000/svg">
<g clip-path="url(#clip0_31_5419)">
<path d="M37.2568 1.63282C39.7666 -0.930757 44.083 0.787993 44.083 4.31934V42.5586C44.083 46.084 39.7666 47.8027 37.2568 45.2441L35.0107 42.7832C30.7822 38.3203 25.1475 35.4785 19.083 34.707V44.5312C19.083 47.5488 16.6318 50 13.6143 50H12.0518C9.03125 50 6.58301 47.5488 6.58301 44.5312V34.375C3.13086 34.375 0.333008 31.5723 0.333008 28.0371V18.6621C0.333008 15.3027 3.13086 12.4121 6.58301 12.4121H14.3564L17.208 12.3438C23.9756 11.9629 30.3525 9.01172 35.0107 4.0879L37.2568 1.63282ZM40.958 4.31934C40.958 3.5254 40.0986 3.26954 39.6104 3.78223L37.2861 6.23731C33.1943 10.5469 27.9404 13.5156 22.208 14.7949V32.0801C27.9404 33.3594 33.1943 36.2402 37.2861 40.6348L39.6104 43.0957C40.0986 43.6035 40.958 43.2617 40.958 42.5586V4.31934ZM19.083 31.5527V15.3223C18.5166 15.3809 17.9502 15.4297 17.374 15.459L14.4346 15.5371H6.58301C4.85742 15.5371 3.45801 17.0215 3.45801 18.6621V28.0371C3.45801 29.8535 4.85742 31.1621 6.58301 31.1621H14.4346L17.374 31.416C17.9502 31.3574 18.5166 31.4941 19.083 31.5527ZM9.70801 34.375V44.5312C9.70801 45.8301 10.7529 46.875 12.0518 46.875H13.6143C14.9131 46.875 15.958 45.8301 15.958 44.5312V34.4629L14.3564 34.375H9.70801ZM48.7705 18.6621C49.6299 18.6621 50.333 19.4531 50.333 20.2246V26.4746C50.333 27.4219 49.6299 28.0371 48.7705 28.0371C47.9111 28.0371 47.208 27.4219 47.208 26.4746V20.2246C47.208 19.4531 47.9111 18.6621 48.7705 18.6621Z" fill="#129673"/>
</g>
<defs>
<clipPath id="clip0_31_5419">
<rect width="50" height="50" fill="white" transform="translate(0.333008)"/>
</clipPath>
</defs>
</svg>
