<svg width="100" height="100" viewBox="0 0 100 100" fill="none" xmlns="http://www.w3.org/2000/svg">
<g clip-path="url(#clip0_152_1401)">
<g clip-path="url(#clip1_152_1401)">
<g clip-path="url(#clip2_152_1401)">
<path d="M87.5582 37.4848C87.6125 37.4828 87.6668 37.4828 87.7213 37.4807C88.1379 37.4707 88.5523 37.4404 88.9629 37.39V56.3479H85.7451V37.3939C86.2703 37.4543 86.8076 37.4865 87.3549 37.4865C87.4213 37.4867 87.4899 37.4867 87.5582 37.4848ZM36.5686 19.0924L37.3313 13.5223L38.8566 2.33789H26.7324L20.5406 19.0924H36.5686ZM19.8402 28.0309C19.8402 31.4115 23.6254 34.2711 28.1049 34.2711C32.5822 34.2711 36.3652 31.4115 36.3652 28.0309V22.3078H19.8402V28.0309ZM55.8906 19.0924L55.1924 13.959L54.8059 11.1398L54.6953 10.3229L53.6066 2.33809H53.6027H42.1045L40.5188 13.9592L39.8166 19.0926H55.8889L55.8906 19.0924ZM47.8475 34.2711C52.3268 34.2711 56.1119 31.4115 56.1119 28.0309V22.3078H39.5809V28.0309C39.5809 31.4115 43.366 34.2711 47.8475 34.2711ZM8.23731 34.2691C8.27754 34.2691 8.31797 34.2711 8.35801 34.2711C12.8375 34.2711 16.6225 31.4115 16.6225 28.0309V22.3078H0.0976562V28.0309C0.0976562 29.7332 1.05957 31.3895 2.73574 32.5746C4.20273 33.609 6.08828 34.2086 8.0502 34.265C8.11465 34.265 8.17695 34.267 8.23731 34.2691ZM23.3035 2.33789H12.2236C10.3119 2.33789 8.68613 3.33594 7.87695 5.0082L1.05547 19.0924H17.1096L23.3035 2.33789ZM75.8707 28.0309V22.3078H59.3416V28.0309C59.3416 31.4115 63.1268 34.2711 67.6063 34.2711C72.0856 34.2711 75.8707 31.4115 75.8707 28.0309ZM57.8809 9.88203L59.1365 19.0924H75.1705L68.9727 2.33789H56.8545H56.8484L57.7842 9.17168L57.8809 9.88203ZM94.6555 19.0924L87.8338 5.0084C87.0248 3.33613 85.3969 2.33809 83.4811 2.33809H72.4033L78.6012 19.0926L94.6555 19.0924ZM95.6133 28.0309V22.3078H79.0883V28.0309C79.0883 31.4115 82.8734 34.2711 87.3547 34.2711C87.3949 34.2711 87.4332 34.2691 87.4734 34.2691C87.5338 34.2672 87.5941 34.265 87.6545 34.265C89.6205 34.2086 91.508 33.609 92.9731 32.5746C94.6516 31.3895 95.6133 29.7334 95.6133 28.0309ZM59.9191 89.7541C59.2512 88.5125 58.8707 87.0918 58.8707 85.5846C58.8707 84.7635 58.9834 83.9666 59.1947 83.2121C59.5287 82.0188 60.1082 80.9262 60.875 79.9945H40.9908V47.2984C40.9908 46.41 40.2648 45.6898 39.3764 45.6898H18.0885C17.2 45.6898 16.4799 46.4102 16.4799 47.2984V79.9945H9.96602V37.3941C9.44082 37.4545 8.90352 37.4867 8.3582 37.4867C8.28984 37.4867 8.22344 37.4867 8.15508 37.4848C8.09863 37.4828 8.04238 37.4828 7.98398 37.4807C7.56953 37.4707 7.15703 37.4404 6.74844 37.39V79.9943H4.52871C3.64121 79.9943 2.9209 80.7147 2.9209 81.6022V91.3639C2.9209 92.2514 3.64141 92.9717 4.52871 92.9717H62.8713C61.6398 92.1649 60.6195 91.058 59.9191 89.7541ZM79.2313 56.3481V47.2988C79.2313 46.4094 78.5107 45.6891 77.6234 45.6891H48.1332C47.2438 45.6891 46.5234 46.4094 46.5234 47.2988V62.3006C46.5234 63.19 47.2439 63.9084 48.1332 63.9084H58.2873L57.8324 62.2664L57.8285 62.2482L57.4078 60.7289H55.7758C55.5785 60.7289 55.3834 60.7168 55.1922 60.6926H49.7408V48.9066H76.0135V56.3481H79.2313ZM65.3076 85.5848C65.3076 86.9025 66.3797 87.9748 67.6975 87.9748H95.1287C96.0172 87.9748 96.7373 88.6951 96.7373 89.5834C96.7373 90.4717 96.017 91.192 95.1287 91.192H92.1492C92.3311 91.7004 92.4307 92.2475 92.4307 92.8176C92.4307 95.4881 90.2582 97.6606 87.5877 97.6606C84.9172 97.6606 82.7447 95.4881 82.7447 92.8176C82.7447 92.2475 82.8445 91.7004 83.0262 91.192H77.592C77.7738 91.7004 77.8734 92.2475 77.8734 92.8176C77.8734 95.4881 75.7008 97.6606 73.0303 97.6606C70.3598 97.6606 68.1873 95.4881 68.1873 92.8176C68.1873 92.2475 68.2871 91.7004 68.4688 91.192H67.6967C64.6049 91.192 62.0897 88.6764 62.0897 85.5848C62.0897 83.0352 63.8043 80.8795 66.1416 80.2041L61.0092 61.6746C61.0072 61.6686 61.0053 61.6625 61.0031 61.6545L60.969 61.5297C60.9668 61.5197 60.9648 61.5096 60.9629 61.5016L59.8561 57.5092H55.7752C54.8857 57.5092 54.1654 56.7889 54.1654 55.9014C54.1654 55.0119 54.8859 54.2916 55.7752 54.2916H61.0795C61.802 54.2916 62.4377 54.7746 62.6311 55.4709L63.766 59.568H96.6055C97.666 59.568 98.6359 60.0609 99.2658 60.9223C99.8957 61.7936 100.067 62.8682 99.7406 63.8783L93.8586 82.0475C93.6432 82.7096 93.0295 83.1582 92.3332 83.1602L89.0848 83.1701C88.9842 83.1898 88.8805 83.2008 88.774 83.2008H79.1611L68.2098 83.2346C68.2076 83.2346 68.2057 83.2346 68.2057 83.2346C68.2035 83.2346 68.2016 83.2346 68.2016 83.2346C68.1572 83.2346 68.115 83.2326 68.0727 83.2285C68.0285 83.2266 67.9861 83.2205 67.9418 83.2125C67.9229 83.2098 67.9041 83.2047 67.8854 83.2008H67.6971C66.3795 83.2006 65.3076 84.2701 65.3076 85.5848ZM85.409 76.7608C85.409 77.6483 86.1295 78.3686 87.0168 78.3686C87.9063 78.3686 88.6266 77.6481 88.6266 76.7608V66.0371C88.6266 65.1477 87.9061 64.4274 87.0168 64.4274C86.1293 64.4274 85.409 65.1477 85.409 66.0371V76.7608ZM79.1227 76.7608C79.1227 77.6483 79.8432 78.3686 80.7324 78.3686C81.6197 78.3686 82.3402 77.6481 82.3402 76.7608V66.0371C82.3402 65.1477 81.6197 64.4274 80.7324 64.4274C79.843 64.4274 79.1227 65.1477 79.1227 66.0371V76.7608ZM72.8361 76.7608C72.8361 77.6483 73.5566 78.3686 74.4459 78.3686C75.3334 78.3686 76.0537 77.6481 76.0537 76.7608V66.0371C76.0537 65.1477 75.3332 64.4274 74.4459 64.4274C73.5564 64.4274 72.8361 65.1477 72.8361 66.0371V76.7608Z" fill="black"/>
</g>
</g>
</g>
<defs>
<clipPath id="clip0_152_1401">
<rect width="100" height="100" fill="white"/>
</clipPath>
<clipPath id="clip1_152_1401">
<rect width="100" height="100" fill="white"/>
</clipPath>
<clipPath id="clip2_152_1401">
<rect width="100" height="100" fill="white"/>
</clipPath>
</defs>
</svg>
