<svg width="100" height="100" viewBox="0 0 100 100" fill="none" xmlns="http://www.w3.org/2000/svg">
<g clip-path="url(#clip0_152_1412)">
<path d="M74.6875 44.6876L75 44.271V29.4238L50 39.4238L25 29.4238V44.2704L25.3125 44.687C25.5703 45.0318 31.8494 53.1245 50 53.1245C68.1506 53.1245 74.4294 45.0313 74.6875 44.6876Z" fill="#000000"/>
<path d="M97.6562 95.3125H13.2812C11.002 95.3125 8.81619 94.4071 7.20455 92.7955C5.59291 91.1838 4.6875 88.998 4.6875 86.7188C4.6875 84.4395 5.59291 82.2537 7.20455 80.6421C8.81619 79.0304 11.002 78.125 13.2812 78.125H97.6562C98.2778 78.125 98.874 77.8781 99.3135 77.4385C99.7531 76.999 100 76.4029 100 75.7812C100 75.1596 99.7531 74.5635 99.3135 74.124C98.874 73.6844 98.2778 73.4375 97.6562 73.4375H13.2812C9.75884 73.4375 6.38071 74.8368 3.88999 77.3275C1.39927 79.8182 0 83.1963 0 86.7188C0 90.2412 1.39927 93.6193 3.88999 96.11C6.38071 98.6007 9.75884 100 13.2812 100H97.6562C98.2779 100 98.874 99.7531 99.3135 99.3135C99.7531 98.874 100 98.2779 100 97.6562C100 97.0346 99.7531 96.4385 99.3135 95.999C98.874 95.5594 98.2779 95.3125 97.6562 95.3125Z" fill="#000000"/>
<path d="M7.8125 86.7188C7.8125 87.4369 7.95395 88.1481 8.22878 88.8116C8.50361 89.4751 8.90644 90.0779 9.41426 90.5857C9.92208 91.0936 10.525 91.4964 11.1884 91.7712C11.8519 92.046 12.5631 92.1875 13.2812 92.1875H97.6562V81.25H13.2812C11.8308 81.25 10.4398 81.8262 9.41426 82.8518C8.38867 83.8774 7.8125 85.2683 7.8125 86.7188Z" fill="#000000"/>
<path d="M82.8125 41.4062C84.9699 41.4062 86.7188 39.6574 86.7188 37.5C86.7188 35.3426 84.9699 33.5938 82.8125 33.5938C80.6551 33.5938 78.9062 35.3426 78.9062 37.5C78.9062 39.6574 80.6551 41.4062 82.8125 41.4062Z" fill="#000000"/>
<path d="M76.0236 25.6486L49.4439 15.5236L50.5564 12.6018L80.3064 23.9361L93.269 18.7502L50.0002 1.44238L6.73145 18.7502L50.0002 36.058L76.0236 25.6486Z" fill="#000000"/>
<path d="M81.2503 27.6406V30.6582C82.2768 30.4066 83.3488 30.4066 84.3753 30.6582V25.4864L80.3067 23.9365L76.0234 25.6498L81.2503 27.6406Z" fill="#000000"/>
<path d="M14.0625 59.375C14.0625 60.2038 14.3917 60.9987 14.9778 61.5847C15.5638 62.1708 16.3587 62.5 17.1875 62.5H74.4362L75.4778 56.25H17.1875C16.3587 56.25 15.5638 56.5792 14.9778 57.1653C14.3917 57.7513 14.0625 58.5462 14.0625 59.375Z" fill="#000000"/>
<path d="M87.5 59.3751L84.9641 44.1592C83.5726 44.6554 82.0524 44.6554 80.6609 44.1592L78.125 59.3751H87.5Z" fill="#000000"/>
<path d="M17.1875 70.3125H85.1562C85.7779 70.3125 86.374 70.0656 86.8135 69.626C87.2531 69.1865 87.5 68.5904 87.5 67.9688C87.5 67.3471 87.2531 66.751 86.8135 66.3115C86.374 65.8719 85.7779 65.625 85.1562 65.625H17.1875C15.5299 65.625 13.9402 64.9665 12.7681 63.7944C11.596 62.6223 10.9375 61.0326 10.9375 59.375C10.9375 57.7174 11.596 56.1277 12.7681 54.9556C13.9402 53.7835 15.5299 53.125 17.1875 53.125H32.3125C29.491 52.0113 26.8793 50.4262 24.5889 48.4375H17.1875C14.2867 48.4375 11.5047 49.5898 9.45352 51.641C7.40234 53.6922 6.25 56.4742 6.25 59.375C6.25 62.2758 7.40234 65.0578 9.45352 67.109C11.5047 69.1602 14.2867 70.3125 17.1875 70.3125Z" fill="#000000"/>
<path d="M76.7802 48.4375H75.4125C73.122 50.4263 70.5101 52.0114 67.6885 53.125H75.9989L76.7802 48.4375Z" fill="#000000"/>
</g>
<defs>
<clipPath id="clip0_152_1412">
<rect width="100" height="100" fill="white"/>
</clipPath>
</defs>
</svg>
