<svg width="100" height="100" viewBox="0 0 100 100" fill="none" xmlns="http://www.w3.org/2000/svg">
<path fill-rule="evenodd" clip-rule="evenodd" d="M48.958 62.5003C48.958 59.4628 47.7497 56.5462 45.6038 54.3962C43.4538 52.2503 40.5372 51.042 37.4997 51.042H16.6663C13.6288 51.042 10.7122 52.2503 8.56217 54.3962C6.41634 56.5462 5.20801 59.4628 5.20801 62.5003V83.3337C5.20801 86.3712 6.41634 89.2878 8.56217 91.4378C10.7122 93.5837 13.6288 94.792 16.6663 94.792H37.4997C40.5372 94.792 43.4538 93.5837 45.6038 91.4378C47.7497 89.2878 48.958 86.3712 48.958 83.3337V62.5003ZM42.708 62.5003V83.3337C42.708 84.717 42.158 86.0378 41.183 87.017C40.2038 87.992 38.883 88.542 37.4997 88.542H16.6663C15.283 88.542 13.9622 87.992 12.983 87.017C12.008 86.0378 11.458 84.717 11.458 83.3337V62.5003C11.458 61.117 12.008 59.7962 12.983 58.817C13.9622 57.842 15.283 57.292 16.6663 57.292H37.4997C38.883 57.292 40.2038 57.842 41.183 58.817C42.158 59.7962 42.708 61.117 42.708 62.5003Z" fill="#000000"/>
<path fill-rule="evenodd" clip-rule="evenodd" d="M94.791 62.5003C94.791 59.4628 93.5827 56.5462 91.4368 54.3962C89.2868 52.2503 86.3702 51.042 83.3327 51.042H62.4993C59.4618 51.042 56.5452 52.2503 54.3952 54.3962C52.2494 56.5462 51.041 59.4628 51.041 62.5003V83.3337C51.041 86.3712 52.2494 89.2878 54.3952 91.4378C56.5452 93.5837 59.4618 94.792 62.4993 94.792H83.3327C86.3702 94.792 89.2868 93.5837 91.4368 91.4378C93.5827 89.2878 94.791 86.3712 94.791 83.3337V62.5003ZM82.7993 75.6295C83.7743 75.0753 84.3743 74.0378 84.3743 72.917C84.3743 71.7962 83.7743 70.7587 82.7993 70.2045L68.216 61.8712C67.2493 61.317 66.0618 61.3212 65.0993 61.8795C64.1327 62.442 63.541 63.4712 63.541 64.5837V81.2503C63.541 82.3628 64.1327 83.392 65.0993 83.9545C66.0618 84.5128 67.2493 84.517 68.216 83.9628L82.7993 75.6295Z" fill="#000000"/>
<path d="M33.333 68.75C35.0589 68.75 36.458 67.3509 36.458 65.625C36.458 63.8991 35.0589 62.5 33.333 62.5C31.6071 62.5 30.208 63.8991 30.208 65.625C30.208 67.3509 31.6071 68.75 33.333 68.75Z" fill="#000000"/>
<path fill-rule="evenodd" clip-rule="evenodd" d="M48.958 16.6668C48.958 13.6293 47.7497 10.7127 45.6038 8.56266C43.4538 6.41683 40.5372 5.2085 37.4997 5.2085H16.6663C13.6288 5.2085 10.7122 6.41683 8.56217 8.56266C6.41634 10.7127 5.20801 13.6293 5.20801 16.6668V37.5002C5.20801 40.5377 6.41634 43.4543 8.56217 45.6043C10.7122 47.7502 13.6288 48.9585 16.6663 48.9585H37.4997C40.5372 48.9585 43.4538 47.7502 45.6038 45.6043C47.7497 43.4543 48.958 40.5377 48.958 37.5002V16.6668ZM31.7413 31.6793C31.7622 31.5418 31.7705 31.396 31.7705 31.2502V22.9168H32.8122C34.5372 22.9168 35.9372 21.5168 35.9372 19.7918C35.9372 18.0668 34.5372 16.6668 32.8122 16.6668H28.6455C26.9205 16.6668 25.5205 18.0668 25.5205 19.7918V26.0418C22.0705 26.0418 19.2705 28.8418 19.2705 32.2918C19.2705 35.7418 22.0705 38.5418 25.5205 38.5418C28.9705 38.5418 31.7705 35.7418 31.7705 32.2918C31.7705 32.0877 31.7622 31.8835 31.7413 31.6793Z" fill="#000000"/>
<path fill-rule="evenodd" clip-rule="evenodd" d="M23.683 77.1458L10.7997 60.5833C9.97884 59.5292 8.58301 59.1125 7.32051 59.5459C6.05801 59.9792 5.20801 61.1667 5.20801 62.5L8.33301 90.625H43.7497L46.8747 85.4167C46.8747 84.5875 46.5455 83.7917 45.958 83.2083L36.6913 73.9417C35.0038 72.25 32.3788 71.9292 30.3288 73.1584L23.683 77.1458Z" fill="#000000"/>
<path fill-rule="evenodd" clip-rule="evenodd" d="M94.791 16.6668C94.791 13.6293 93.5827 10.7127 91.4368 8.56266C89.2868 6.41683 86.3702 5.2085 83.3327 5.2085H62.4993C59.4618 5.2085 56.5452 6.41683 54.3952 8.56266C52.2494 10.7127 51.041 13.6293 51.041 16.6668V37.5002C51.041 40.5377 52.2494 43.4543 54.3952 45.6043C56.5452 47.7502 59.4618 48.9585 62.4993 48.9585H83.3327C86.3702 48.9585 89.2868 47.7502 91.4368 45.6043C93.5827 43.4543 94.791 40.5377 94.791 37.5002V16.6668ZM64.5827 36.4585H81.2493C82.9743 36.4585 84.3743 35.0585 84.3743 33.3335C84.3743 31.6085 82.9743 30.2085 81.2493 30.2085H64.5827C62.8577 30.2085 61.4577 31.6085 61.4577 33.3335C61.4577 35.0585 62.8577 36.4585 64.5827 36.4585ZM64.5827 23.9585H74.9993C76.7243 23.9585 78.1243 22.5585 78.1243 20.8335C78.1243 19.1085 76.7243 17.7085 74.9993 17.7085H64.5827C62.8577 17.7085 61.4577 19.1085 61.4577 20.8335C61.4577 22.5585 62.8577 23.9585 64.5827 23.9585Z" fill="#000000"/>
</svg>
