<svg width="20" height="21" viewBox="0 0 20 21" fill="none" xmlns="http://www.w3.org/2000/svg">
<path d="M18.3337 13.6844C18.3337 16.7177 16.5253 18.526 13.492 18.526H12.5003C12.042 18.526 11.667 18.151 11.667 17.6927V12.8844C11.667 12.6594 11.8503 12.4677 12.0753 12.4677L13.542 12.4427C13.6587 12.4344 13.7587 12.3511 13.7837 12.2344L14.0753 10.6427C14.1003 10.4927 13.9837 10.351 13.8253 10.351L12.0503 10.376C11.817 10.376 11.6337 10.1927 11.6253 9.96772L11.592 7.92604C11.592 7.79271 11.7003 7.67605 11.842 7.67605L13.842 7.64271C13.9836 7.64271 14.092 7.53439 14.092 7.39272L14.0587 5.3927C14.0587 5.25103 13.9503 5.14271 13.8087 5.14271L11.5587 5.17605C10.1753 5.20105 9.07534 6.33437 9.10034 7.71771L9.14199 10.0094C9.15033 10.2427 8.967 10.426 8.73367 10.4344L7.73366 10.451C7.59199 10.451 7.48367 10.5594 7.48367 10.701L7.50867 12.2844C7.50867 12.426 7.61699 12.5344 7.75866 12.5344L8.75867 12.5177C8.992 12.5177 9.17532 12.701 9.18365 12.926L9.25865 17.6761C9.26698 18.1427 8.89198 18.526 8.42531 18.526H6.50866C3.47532 18.526 1.66699 16.7177 1.66699 13.676V6.70104C1.66699 3.66771 3.47532 1.85938 6.50866 1.85938H13.492C16.5253 1.85938 18.3337 3.66771 18.3337 6.70104V13.6844Z" fill="#111022"/>
</svg>
