<svg width="202" height="58" viewBox="0 0 202 58" fill="none" xmlns="http://www.w3.org/2000/svg">
<g clip-path="url(#clip0_29_3699)">
<path d="M48.175 7.19283V22.9702C48.171 21.1455 47.6824 19.3546 46.7591 17.7807C45.8358 16.2068 44.5109 14.9064 42.9201 14.0126C41.3876 13.1458 39.6568 12.6906 37.8961 12.6914H23.8589C22.0986 12.6927 20.3682 13.1477 18.835 14.0126V0H40.9821C42.8898 0 44.7193 0.757814 46.0682 2.10673C47.4171 3.45565 48.175 5.28517 48.175 7.19283Z" fill="#E94E25"/>
<path d="M61.7541 18.3471V39.3687C61.7541 47.8133 55.9733 54.9751 48.1787 57.0873V7.19284C48.1787 5.28518 47.4209 3.45566 46.0719 2.10674C44.723 0.757823 42.8935 8.66265e-06 40.9858 8.66265e-06H43.4123C45.0223 -0.00156758 46.6253 0.21197 48.1787 0.634953C55.9733 2.74502 61.7541 9.90578 61.7541 18.3471Z" fill="#F38F02"/>
<path d="M42.9218 43.0728V57.0864H20.7714C18.8638 57.0864 17.0343 56.3286 15.6853 54.9797C14.3364 53.6308 13.5786 51.8013 13.5786 49.8936V44.394H37.8946C38.3321 44.3946 38.7692 44.3664 39.203 44.3095C40.5109 44.1415 41.7738 43.7215 42.9218 43.0728Z" fill="#02ADE1"/>
<path d="M13.5779 20.5545H0.00244141V17.7186C0.00244141 9.27404 5.78321 2.11221 13.5779 0V20.5545Z" fill="#1A6AA3"/>
<path d="M20.7704 57.086H18.3439C16.7339 57.0878 15.1308 56.8739 13.5775 56.45C5.78077 54.3442 0 47.1824 0 38.7378V33.1602C0 36.1394 1.18351 38.9967 3.29018 41.1034C5.39685 43.21 8.25411 44.3935 11.2334 44.3935H13.5775V49.8932C13.5775 51.8008 14.3354 53.6304 15.6843 54.9793C17.0332 56.3282 18.8627 57.086 20.7704 57.086Z" fill="#02ADE1"/>
<path d="M137.237 39.6106C137.701 38.2798 138.233 37.9955 139.802 38.3824C139.767 39.7428 139.732 41.106 139.695 42.4721C139.614 45.5549 139.572 48.6431 139.441 51.7098C139.293 55.1571 136.315 57.3217 132.534 56.7498C131.658 56.6184 130.731 56.4035 129.908 56.0123C128.412 55.3036 128.162 54.3512 128.974 53.2833C129.329 53.5302 129.685 53.7836 130.043 54.0316C132.836 55.93 136.448 54.8065 136.827 51.8937C136.934 51.03 136.934 50.1332 137 49.0824C136.713 49.4576 136.521 49.7238 136.318 49.9739C135.639 50.829 134.761 51.4234 133.566 51.62C131.528 51.9568 129.489 50.9017 128.791 48.8921C127.603 45.4716 127.737 42.2936 129.82 39.7496C131.059 38.2349 132.941 37.7389 135.226 38.4743C135.927 38.702 136.574 39.229 137.237 39.6106ZM134.275 40.1451C132.85 40.1654 131.961 40.8687 131.415 41.9505C130.667 43.4331 130.595 45.1231 130.922 46.8729C131.127 47.9686 131.593 49.0493 132.938 49.5452C134.113 49.9814 135.454 49.6521 136.129 48.6292C136.553 47.9916 136.825 47.2654 136.925 46.5063C137.084 45.1712 137.078 43.7869 137.069 42.4101C137.047 41.9867 136.898 41.5797 136.641 41.2418C136.037 40.4551 135.206 40.128 134.273 40.1419L134.275 40.1451Z" fill="#FFF
"/>
<path d="M110.709 46.1202C110.432 43.5162 110.889 40.6323 113.808 38.9733C115.485 38.0198 117.475 37.9044 119.611 38.4966C121.521 39.0235 122.992 40.6344 123.389 42.6803C123.817 44.877 123.653 46.9561 122.609 48.7262C121.13 51.2361 118.591 52.0752 115.315 51.5054C112.871 51.0747 111.356 49.3986 110.709 46.1202ZM120.746 43.3303C120.695 43.0726 120.658 42.8129 120.589 42.5564C120.25 41.3121 119.182 40.3362 117.916 40.1641C116.547 39.976 115.408 40.2817 114.594 41.1806C113.3 42.6109 113.143 44.4815 113.434 46.4515C113.829 49.1185 116.341 50.4867 118.646 49.3473C119.022 49.1634 119.358 48.9094 119.638 48.599C120.922 47.1688 121.037 45.3153 120.746 43.3345V43.3303Z" fill="#FFF
"/>
<path d="M179.275 41.6932C177.351 40.0598 175.361 39.7862 173.319 40.2811C173.081 40.3477 172.855 40.452 172.649 40.59C172.085 40.9428 171.734 41.4505 171.926 42.1753C172.124 42.9235 172.827 43.21 173.502 43.4077C174.261 43.629 175.031 43.7722 175.794 43.9614C176.214 44.0683 176.635 44.1752 177.05 44.3121C179.815 45.2303 180.868 47.4045 179.508 49.4739C178.297 51.3093 176.215 51.7518 173.86 51.6481C172.676 51.5968 171.481 51.3595 170.346 50.732C168.863 49.9122 168.579 49.0528 169.452 47.8395C169.745 48.0907 170.01 48.374 170.327 48.5792C172.365 49.8619 174.362 50.0426 176.281 49.304C176.606 49.1693 176.884 48.9403 177.078 48.6466C177.661 47.7732 177.272 46.7909 176.103 46.3452C175.069 45.9518 173.996 45.7188 172.942 45.4056C172.501 45.2741 172.057 45.1415 171.626 44.9694C169.683 44.1945 168.878 42.8145 169.408 41.1213C169.903 39.5371 171.225 38.7696 172.84 38.372C174.321 38.0075 175.896 38.1048 177.506 38.62C177.851 38.7327 178.183 38.8802 178.498 39.0604C179.896 39.8632 180.102 40.527 179.275 41.6932Z" fill="#FFF
"/>
<path d="M94.1201 35.0921C94.5573 35.0921 95.203 35.0386 95.8593 35.107C96.5359 35.1765 97.0223 35.7762 97.0287 36.5715C97.0447 38.3202 97.0127 40.0605 96.9827 41.7996C96.9453 44.0625 96.8887 46.3212 96.847 48.5809C96.8561 48.783 96.8779 48.9844 96.9122 49.1838C98.7593 49.435 104.527 49.2137 106.37 48.8321C106.809 50.3649 106.141 51.3591 104.521 51.3858C101.886 51.4275 99.236 51.4018 96.5883 51.3858C96.1622 51.3721 95.7384 51.3177 95.3227 51.2233C94.5327 51.063 94.0699 50.5819 94.0752 49.8337C94.0977 46.7477 94.1714 43.6681 94.1928 40.5757C94.2046 38.8451 94.149 37.0953 94.1201 35.0921Z" fill="#FFF
"/>
<path d="M164.088 47.8406C164.681 48.7674 164.683 49.4569 164.015 50.0309C162.091 51.6856 159.653 52.1174 156.802 51.2922C154.822 50.7182 153.563 49.2784 153.168 47.1501C152.75 44.8861 152.945 42.759 154.071 40.9289C155.605 38.4319 159.029 37.4667 162.331 38.6072C162.773 38.762 163.196 38.9691 163.59 39.224C164.787 39.9947 164.956 40.7964 164.158 41.7274C161.971 40.0428 159.84 39.5842 158.047 40.5954C157.308 41.0144 156.701 41.6335 156.298 42.3816C155.538 43.8461 155.454 45.5253 156.084 47.3158C156.511 48.5397 157.41 49.3061 158.704 49.5734C160.544 49.955 162.107 49.6172 163.344 48.5526C163.593 48.3398 163.815 48.1036 164.088 47.8406Z" fill="#FFF
"/>
<path d="M148.072 51.392C147.74 51.4187 147.367 51.4914 146.981 51.4732C145.725 51.4123 145.117 50.7763 145.145 49.6069C145.214 46.6684 145.296 43.7278 145.332 40.7775C145.338 40.1896 145.146 39.5664 145.074 38.9603C145.053 38.7818 145.094 38.4622 145.169 38.459C145.85 38.4269 146.574 38.288 147.227 38.4996C147.985 38.7455 148.014 39.5087 148.007 40.1105C147.989 41.6209 147.923 43.1228 147.894 44.6299C147.863 46.3178 147.832 48.0056 147.841 49.6988C147.844 50.2172 147.981 50.7592 148.072 51.392Z" fill="#FFF
"/>
<path d="M146.832 33.295C147.762 33.3068 148.446 33.7611 148.592 34.4655C148.806 35.4607 147.873 36.3489 146.676 36.303C145.754 36.2677 145.03 35.7803 144.906 35.1111C144.717 34.0775 145.56 33.2779 146.832 33.295Z" fill="#FFF
"/>
<path d="M152.208 26.0572C151.24 26.0572 150.298 26.1641 149.394 26.0336C147.599 25.7675 146.792 24.7135 146.764 22.7296C146.734 20.4431 146.795 18.1556 146.735 15.8703C146.694 14.8758 146.554 13.8879 146.317 12.9211C146.146 12.1728 145.628 11.6897 144.796 11.6074C143.941 11.5229 143.289 11.8586 142.953 12.6047C142.618 13.3508 142.252 14.129 142.24 14.9007C142.197 17.8414 142.268 20.7799 142.347 23.7248C142.365 24.3993 142.599 25.0673 142.734 25.7397C140.193 26.7295 137.196 25.8787 137.283 22.5329C137.36 19.5901 137.342 16.6431 137.283 13.7003C137.246 11.9655 137.044 10.2338 136.911 8.40806C139.522 7.09862 141.646 8.28941 141.856 11.7078C142.834 9.39468 144.232 7.90566 146.645 7.89176C148.914 7.87894 150.066 8.9158 151.14 11.8757C151.318 11.4727 151.443 11.1809 151.574 10.8923C152.688 8.43371 155.143 7.3263 157.718 8.14083C159.536 8.71591 160.422 10.1109 160.754 11.8639C160.955 12.9328 160.983 14.036 161.013 15.1252C161.083 17.7227 161.071 20.3234 161.17 22.9199C161.207 23.8755 161.467 24.8225 161.641 25.8669C160.419 26.209 159.138 26.2645 157.886 25.7386C156.791 25.279 156.283 24.3768 156.27 23.2127C156.252 20.8012 156.302 18.3876 156.242 15.9772C156.206 14.9791 156.065 13.9876 155.82 13.0194C155.636 12.2712 155.139 11.7004 154.262 11.6052C153.285 11.4983 152.563 11.9259 152.231 12.7736C151.91 13.6009 151.618 14.5095 151.61 15.386C151.582 18.0744 151.672 20.767 151.772 23.4554C151.803 24.2282 152.023 24.9904 152.208 26.0572Z" fill="#FFF
"/>
<path d="M72.1724 15.0092C72.1724 12.462 72.5999 10.0131 74.0644 7.87092C76.2525 4.67054 79.4635 3.54389 83.1749 3.67857C89.2175 3.89984 92.9951 7.56841 93.2998 13.6314C93.3938 15.5074 93.2602 17.4742 92.7845 19.2817C91.5531 23.9551 87.9637 26.0256 83.7596 26.248C82.2025 26.3266 80.6427 26.164 79.1354 25.7659C75.1493 24.7034 72.5176 21.1834 72.2686 16.8852C72.2322 16.2642 72.2044 15.6388 72.1724 15.0092ZM78.1926 11.7084C77.5976 13.8816 77.6149 16.1771 78.2428 18.3411C78.3219 18.6126 78.4121 18.8798 78.5133 19.1428C79.2433 21.0156 80.7345 22.0706 82.7997 22.0663C84.8648 22.062 86.3197 20.9952 87.0818 19.1278C88.2138 16.3486 88.1999 13.5095 87.0818 10.7324C86.3229 8.84685 84.8467 7.84633 82.7772 7.85381C80.7078 7.8613 79.2102 8.8554 78.5015 10.756C78.3807 11.0681 78.2813 11.3877 78.1926 11.7127V11.7084Z" fill="#FFF
"/>
<path d="M96.0229 8.44005C99.1987 7.32836 100.552 8.13433 101.154 11.6618C101.349 11.2781 101.48 11.0204 101.611 10.765C103.363 7.35188 108.075 6.99272 110.347 10.0969C111.541 11.7281 111.878 13.634 112.057 15.5709C112.256 17.7686 112.098 19.9535 111.341 22.0443C109.728 26.505 105.261 27.653 101.7 24.5478C101.664 24.5168 101.593 24.5296 101.297 24.4879C101.461 27.2821 101.618 30.026 101.797 33.0019C100.886 33.0361 99.7353 33.2157 98.6237 33.0853C97.4393 32.9421 96.8556 32.1585 96.7071 30.9731C96.6334 30.3837 96.5948 29.7905 96.5916 29.1965C96.5585 23.3121 96.5574 17.4265 96.4847 11.5421C96.4719 10.5298 96.1876 9.51967 96.0229 8.44005ZM101.368 17.139C101.356 17.3613 101.352 17.5837 101.358 17.8071C101.373 18.3266 101.402 19.3324 101.417 19.9161C101.452 21.1988 102.443 22.473 103.547 22.6953C104.591 22.9091 105.749 22.2496 106.361 21.0919C106.481 20.8741 106.579 20.6449 106.655 20.4078C107.329 18.2125 107.321 15.864 106.631 13.6735C106.157 12.1567 105.205 11.5282 103.794 11.6158C102.67 11.6864 101.801 12.5501 101.581 14.0263C101.434 15.0471 101.425 16.0968 101.372 17.139H101.368Z" fill="#FFF
"/>
<path d="M186.408 28.455C187.156 28.8826 187.87 29.3817 188.653 29.6971C189.652 30.0979 190.674 29.8189 191.271 28.983C191.986 27.9825 192.472 26.8152 193.012 25.6993C193.093 25.5293 192.975 25.2161 192.871 25.0088C190.44 20.1458 188.001 15.2879 185.552 10.435C185.205 9.74657 184.753 9.11055 184.312 8.38689C186.001 7.99352 187.66 7.83853 189.196 8.60067C189.901 8.97569 190.472 9.5607 190.829 10.2746C192.126 12.9769 193.288 15.7422 194.511 18.4819C194.644 18.7812 194.813 19.0644 195 19.4193C195.145 19.6213 195.308 19.2173 195.337 19.1264C196.192 16.4188 197.063 13.7155 197.86 10.9908C198.048 10.3494 198.008 9.63005 198.008 8.94701C198.008 8.46813 198.179 8.25006 198.65 8.25113C198.994 8.25113 199.339 8.22441 199.683 8.23296C201.484 8.28106 202.385 9.47078 201.821 11.2046C200.976 13.816 200.052 16.4039 199.142 18.995C198.073 22.0264 197.066 25.0814 195.883 28.067C195.373 29.3497 194.59 30.5661 193.745 31.6714C192.11 33.8189 188.68 33.5303 187.039 32.5265C185.66 31.6725 185.451 30.0573 186.408 28.455Z" fill="#FFF
"/>
<path d="M125.57 21.1836C126.913 23.1077 126.34 25.1953 124.188 25.7554C122.96 26.0761 121.564 26.167 120.322 25.9371C117.74 25.4604 116.32 23.6988 116.219 21.0756C116.12 18.4813 116.163 15.8817 116.143 13.2842C116.143 12.9122 116.143 12.536 116.143 12.0517H113.578C113.578 11.296 113.528 10.644 113.603 10.0069C113.633 9.75247 113.889 9.39758 114.122 9.31314C116.451 8.47937 118.051 6.94011 118.866 4.59595C119.254 3.47998 120.149 4.25389 120.907 3.95459V8.42379C121.698 8.42379 122.377 8.41096 123.056 8.42379C124.98 8.46868 125.777 9.42537 125.49 11.3238C125.447 11.6006 125.417 11.8796 125.369 12.1565C125.361 12.2089 125.297 12.2527 125.319 12.2238L120.937 11.9203V13.2233C120.937 15.3205 120.937 17.4178 120.943 19.515C120.952 19.8884 120.991 20.2605 121.058 20.6278C121.198 21.4947 121.476 22.2654 122.448 22.5518C123.468 22.8511 124.279 22.4791 124.996 21.7897C125.195 21.5973 125.376 21.3899 125.57 21.1836Z" fill="#FFF
"/>
<path d="M183.317 20.9854C184.649 23.7507 183.927 25.3808 181.22 25.9549C180.21 26.1667 179.168 26.1801 178.153 25.9944C175.598 25.5091 174.091 23.801 173.959 21.1757C173.825 18.5204 173.89 15.8556 173.869 13.195C173.869 12.8263 173.869 12.4585 173.869 12.0192H171.303C171.303 11.2464 171.267 10.5366 171.327 9.83646C171.344 9.64512 171.619 9.38964 171.828 9.31589C174.195 8.48426 175.792 6.91079 176.638 4.53991C177.023 3.46456 177.935 4.2994 178.663 3.91138V8.42226C179.362 8.42226 179.976 8.41692 180.587 8.42226C182.832 8.44578 183.641 9.46233 183.192 11.6686C183.149 11.8824 183.098 12.0898 183.068 12.2244L178.947 11.9401C178.805 12.0972 178.734 12.1432 178.734 12.1892C178.749 14.9406 178.749 17.6931 178.801 20.4456C178.819 21.3595 179.132 22.1858 180.105 22.5193C181.141 22.8753 182.006 22.514 182.737 21.7711C182.922 21.5797 183.062 21.3328 183.317 20.9854Z" fill="#FFF
"/>
<path d="M163.948 8.27968C164.845 8.2134 165.894 8.05199 166.941 8.07978C168.039 8.10971 168.843 8.90072 169.072 10.0039C169.181 10.5231 169.24 11.052 169.246 11.5827C169.264 14.2144 169.215 16.8461 169.267 19.4767C169.309 21.59 169.462 23.7001 169.571 25.9277C168.412 26.2657 167.174 26.2016 166.056 25.746C164.735 25.1966 164.389 24.0293 164.376 22.753C164.346 19.7151 164.41 16.6751 164.348 13.6372C164.31 11.929 164.099 10.2262 163.948 8.27968Z" fill="#FFF
"/>
<path d="M134.252 25.8469C132.983 26.2146 131.727 26.2617 130.498 25.7668C129.27 25.2718 128.816 24.2425 128.81 22.9875C128.797 19.8256 128.855 16.6627 128.781 13.5029C128.741 11.8332 128.483 10.17 128.303 8.27692C129.251 8.21706 130.395 8.02145 131.516 8.1091C132.713 8.20209 133.483 9.13741 133.52 10.4607C133.601 13.3062 133.56 16.156 133.627 19.0026C133.671 20.8422 133.757 22.685 133.932 24.5182C133.989 25.1414 134.135 25.3638 134.252 25.8469Z" fill="#FFF
"/>
<path d="M166.733 0.877441C169.028 0.877441 170.393 2.54925 169.606 4.40491C169.028 5.771 167.073 6.40488 165.379 5.77314C164.018 5.26647 163.396 3.99872 163.822 2.60376C164.16 1.50704 165.213 0.881717 166.733 0.877441Z" fill="#FFF
"/>
<path d="M131.094 0.878557C132.612 0.867868 133.68 1.47181 134.053 2.5525C134.415 3.60326 134.076 4.79726 133.208 5.40334C132.275 6.05752 131.217 6.11738 130.153 5.88436C128.733 5.57116 127.908 4.41244 128.089 3.0859C128.275 1.71125 129.393 0.890316 131.094 0.878557Z" fill="#FFF
"/>
<path d="M23.8532 44.394H11.2334C8.25411 44.394 5.39685 43.2105 3.29018 41.1038C1.18351 38.9971 0 36.1399 0 33.1606V20.5536H13.5754V34.1152C13.5794 35.9399 14.068 37.7308 14.9913 39.3047C15.9146 40.8786 17.2394 42.179 18.8303 43.0728C20.3624 43.9394 22.0929 44.3946 23.8532 44.394Z" fill="#1A6AA3"/>
</g>
<defs>
<clipPath id="clip0_29_3699">
<rect width="202" height="57.0862" fill="white"/>
</clipPath>
</defs>
</svg>
