<svg width="24" height="24" viewBox="0 0 24 24" fill="none" xmlns="http://www.w3.org/2000/svg">
<mask id="mask0_421_4785" style="mask-type:alpha" maskUnits="userSpaceOnUse" x="0" y="0" width="24" height="24">
<g clip-path="url(#clip0_421_4785)">
<mask id="mask1_421_4785" style="mask-type:alpha" maskUnits="userSpaceOnUse" x="0" y="0" width="24" height="24">
<path d="M23.5205 0.47998H0.480469V23.52H23.5205V0.47998Z" fill="#D9D9D9"/>
</mask>
<g mask="url(#mask1_421_4785)">
<path d="M16.8004 8.21141L6.31794 18.6938C6.18501 18.8268 6.01794 18.8948 5.81673 18.8978C5.61549 18.9009 5.44534 18.8329 5.30626 18.6938C5.1672 18.5548 5.09766 18.3862 5.09766 18.188C5.09766 17.9899 5.1672 17.8213 5.30626 17.6822L15.7887 7.19975H9.84037C9.63639 7.19975 9.4654 7.13071 9.3274 6.99265C9.1894 6.8546 9.12039 6.68353 9.12039 6.47943C9.12039 6.27535 9.1894 6.10439 9.3274 5.96655C9.4654 5.82869 9.63639 5.75977 9.84037 5.75977H17.3727C17.6186 5.75977 17.8246 5.84293 17.9909 6.00925C18.1572 6.17555 18.2404 6.38162 18.2404 6.62746V14.1598C18.2404 14.3638 18.1713 14.5347 18.0333 14.6728C17.8952 14.8107 17.7242 14.8798 17.5201 14.8798C17.316 14.8798 17.145 14.8107 17.0071 14.6728C16.8693 14.5347 16.8004 14.3638 16.8004 14.1598V8.21141Z" fill="#192020"/>
</g>
</g>
</mask>
<g mask="url(#mask0_421_4785)">
<rect opacity="0.5" width="24" height="24" fill="#192020"/>
</g>
<defs>
<clipPath id="clip0_421_4785">
<rect width="24" height="24" fill="white"/>
</clipPath>
</defs>
</svg>
