<svg width="100" height="100" viewBox="0 0 100 100" fill="none" xmlns="http://www.w3.org/2000/svg">
<g clip-path="url(#clip0_152_1443)">
<g clip-path="url(#clip1_152_1443)">
<g clip-path="url(#clip2_152_1443)">
<mask id="mask0_152_1443" style="mask-type:luminance" maskUnits="userSpaceOnUse" x="0" y="0" width="100" height="100">
<path d="M100 0H0V100H100V0Z" fill="white"/>
</mask>
<g mask="url(#mask0_152_1443)">
<path fill-rule="evenodd" clip-rule="evenodd" d="M2.42413 50.0227L7.95147 23.2761C8.0628 22.7694 8.2781 22.2913 8.58373 21.8721C8.88937 21.4529 9.27869 21.1017 9.72706 20.8407C10.0423 20.6492 10.3956 20.5286 10.7622 20.4874C11.1288 20.4462 11.5 20.4853 11.8499 20.602C11.8987 20.6177 11.9476 20.6315 11.9983 20.6434C13.9868 21.0628 14.653 23.1204 14.6116 24.9071L14.2601 40.5753C13.6835 40.8301 13.1534 41.1792 12.6917 41.6083L12.4946 41.7897C11.4286 42.7841 10.775 44.1426 10.6632 45.596C10.5514 47.0495 10.9897 48.4919 11.8911 49.6376L24.2136 65.1686C24.4073 65.4104 24.6889 65.5656 24.9968 65.6003C25.3047 65.635 25.6138 65.5464 25.8565 65.3538C26.0992 65.1612 26.2557 64.8804 26.2919 64.5726C26.3281 64.2649 26.2409 63.9554 26.0495 63.7118L13.7267 48.1815C13.1811 47.5036 12.9145 46.6431 12.9812 45.7754C13.048 44.9078 13.443 44.0982 14.0858 43.5116L14.2831 43.3272C14.9528 42.7109 15.8386 42.3836 16.7482 42.4165C17.6577 42.4494 18.5175 42.8399 19.1409 43.503L36.8226 62.4212C37.4367 63.0573 37.8907 63.8305 38.1471 64.6768C38.4034 65.523 38.4547 66.4181 38.2968 67.2882L36.3241 79.2458L18.721 79.1362L19.0472 75.9075C19.1449 75.0421 18.9064 74.1722 18.381 73.4776L3.0294 52.7727C2.73286 52.387 2.52488 51.9406 2.42024 51.4654C2.3156 50.9902 2.31706 50.4974 2.42413 50.0227ZM16.7148 75.6731L16.3655 79.1202L14.7503 79.11H14.7419C14.4324 79.1097 14.1354 79.232 13.9158 79.45C13.6962 79.6681 13.5719 79.9642 13.57 80.2737L13.4798 94.6925C13.4781 95.0031 13.5997 95.3016 13.8178 95.5227C14.036 95.7439 14.3329 95.8694 14.6435 95.872L40.4522 96.0323H40.4606C40.7701 96.032 41.0669 95.9094 41.2863 95.6912C41.5058 95.4731 41.6303 95.1771 41.6325 94.8677L41.7228 80.4517C41.7238 80.2976 41.6944 80.1448 41.6362 80.0021C41.5781 79.8594 41.4924 79.7295 41.3841 79.6199C41.2757 79.5104 41.1468 79.4233 41.0048 79.3636C40.8627 79.3039 40.7102 79.2729 40.5562 79.2722L38.6948 79.2602L40.6089 67.6684C40.823 66.4444 40.7468 65.1872 40.3866 63.998C40.0263 62.8088 39.392 61.7207 38.5347 60.8212L20.854 41.903C20.3114 41.3229 19.6549 40.861 18.9257 40.5462C18.1964 40.2313 17.41 40.0703 16.6157 40.0731L16.9554 24.9589C17.0308 21.5624 15.3069 18.9841 12.5573 18.3659C11.9007 18.1517 11.206 18.0796 10.5194 18.1544C9.83273 18.2292 9.16985 18.4492 8.57471 18.7997C7.83419 19.2238 7.19155 19.7995 6.68882 20.4891C6.18609 21.1787 5.8346 21.9667 5.65733 22.8015L0.128815 49.5474C-0.0459685 50.345 -0.0455364 51.1711 0.130081 51.9686C0.305699 52.7661 0.652318 53.516 1.146 54.1665L16.4976 74.8741C16.5846 74.9864 16.6485 75.1149 16.6857 75.252C16.7228 75.3891 16.7332 75.5323 16.7148 75.6731ZM96.9706 52.7724L81.6216 73.4772C81.0943 74.1716 80.8556 75.0428 80.9554 75.9089L81.2817 79.1358L63.6784 79.2454L61.7058 67.2878C61.5471 66.4179 61.5979 65.5227 61.8539 64.6764C62.11 63.83 62.564 63.0568 63.1782 62.4208L80.8599 43.5026C81.4832 42.8395 82.3431 42.449 83.2526 42.4161C84.1622 42.3832 85.048 42.7105 85.7177 43.3268L85.9167 43.5112C86.5597 44.0978 86.9546 44.9075 87.0211 45.7753C87.0875 46.6431 86.8205 47.5035 86.2743 48.1811L73.9519 63.712C73.7604 63.9556 73.6733 64.2651 73.7095 64.5728C73.7456 64.8806 73.9022 65.1614 74.1449 65.354C74.3876 65.5466 74.6967 65.6352 75.0046 65.6005C75.3124 65.5658 75.594 65.4106 75.7878 65.1688L88.1093 49.6378C89.011 48.4929 89.4496 47.0511 89.3384 45.5981C89.2271 44.1451 88.574 42.7869 87.5085 41.7927L87.3085 41.6085C86.8472 41.1797 86.3179 40.8306 85.7421 40.5755L85.3892 24.9073C85.3501 23.1206 86.0142 21.063 88.0024 20.6436C88.053 20.6317 88.1038 20.6179 88.1509 20.6022C88.5009 20.4855 88.8721 20.4464 89.2387 20.4876C89.6053 20.5288 89.9586 20.6494 90.2739 20.8409C90.7225 21.1016 91.112 21.4527 91.4177 21.872C91.7234 22.2912 91.9385 22.7694 92.0495 23.2763L97.5786 50.0227C97.6852 50.4976 97.686 50.99 97.5811 51.4652C97.4762 51.9403 97.2672 52.3866 96.9706 52.7724ZM94.3454 22.8015C94.1675 21.9667 93.8155 21.1789 93.3125 20.4893C92.8095 19.7998 92.1668 19.2241 91.4263 18.7997C90.8315 18.4492 90.1689 18.2293 89.4826 18.1547C88.7962 18.08 88.1019 18.1523 87.4456 18.3667C84.6935 18.9849 82.9702 21.5632 83.0468 24.9597L83.3868 40.0731C82.5921 40.07 81.8053 40.2309 81.0757 40.5458C80.346 40.8607 79.6891 41.3227 79.1462 41.903L61.4665 60.8212C60.6084 61.7201 59.9737 62.8082 59.6135 63.9976C59.2534 65.1871 59.1779 66.4445 59.3933 67.6684L61.3054 79.2602L59.444 79.2722C59.2901 79.2731 59.1378 79.3043 58.996 79.3641C58.8541 79.4239 58.7254 79.511 58.6172 79.6206C58.5091 79.7301 58.4235 79.8599 58.3655 80.0025C58.3075 80.1451 58.2782 80.2977 58.2792 80.4517L58.3696 94.8677C58.371 95.1774 58.4952 95.4739 58.7148 95.6922C58.9345 95.9105 59.2318 96.0328 59.5415 96.0323H59.5497L85.3567 95.872C85.5107 95.8711 85.6631 95.84 85.805 95.7802C85.947 95.7205 86.0758 95.6334 86.184 95.5238C86.2923 95.4143 86.3779 95.2845 86.436 95.1418C86.494 94.9992 86.5234 94.8465 86.5224 94.6925L86.4302 80.2737C86.4284 79.9647 86.3045 79.6688 86.0854 79.4508C85.8663 79.2328 85.5699 79.1103 85.2608 79.11H85.2526L83.6355 79.1202L83.288 75.6731C83.2692 75.5322 83.2786 75.389 83.3158 75.2518C83.353 75.1146 83.4172 74.9862 83.5046 74.8741L98.854 54.1665C99.3477 53.516 99.6944 52.7662 99.8704 51.9687C100.046 51.1713 100.047 50.3452 99.8731 49.5474L94.3454 22.8015ZM50.0005 40.8794C52.323 40.879 54.5933 40.19 56.5242 38.8994C58.4551 37.6088 59.9599 35.7746 60.8484 33.6288C61.7369 31.483 61.9692 29.1219 61.5158 26.844C61.0624 24.5662 59.9438 22.474 58.3013 20.8319C56.6589 19.1898 54.5664 18.0717 52.2884 17.6188C50.0105 17.166 47.6494 17.3988 45.5038 18.2878C43.3582 19.1768 41.5244 20.6821 40.2342 22.6133C38.9441 24.5445 38.2556 26.8149 38.2558 29.1374C38.2592 32.251 39.4978 35.236 41.6997 37.4374C43.9016 39.6388 46.8869 40.8766 50.0005 40.8794ZM59.4011 29.1374C59.4011 30.9967 58.8497 32.8142 57.8168 34.3601C56.7838 35.906 55.3157 37.1109 53.5979 37.8224C51.8802 38.5339 49.9901 38.7201 48.1665 38.3574C46.343 37.9946 44.668 37.0993 43.3533 35.7846C42.0386 34.4699 41.1433 32.7949 40.7805 30.9714C40.4178 29.1478 40.604 27.2577 41.3155 25.5399C42.027 23.8222 43.2319 22.354 44.7778 21.3211C46.3237 20.2881 48.1412 19.7368 50.0005 19.7368C52.4929 19.7395 54.8824 20.7308 56.6447 22.4931C58.4071 24.2555 59.3984 26.645 59.4011 29.1374ZM51.1726 30.3093V34.5811C51.1726 34.8919 51.0491 35.19 50.8293 35.4098C50.6096 35.6296 50.3115 35.753 50.0007 35.753C49.6899 35.753 49.3918 35.6296 49.172 35.4098C48.9523 35.19 48.8288 34.8919 48.8288 34.5811V30.3104H44.5562C44.2454 30.3104 43.9473 30.187 43.7275 29.9672C43.5077 29.7474 43.3843 29.4494 43.3843 29.1386C43.3843 28.8278 43.5077 28.5297 43.7275 28.3099C43.9473 28.0902 44.2454 27.9667 44.5562 27.9667H48.8286V23.6925C48.8286 23.3817 48.9521 23.0836 49.1718 22.8638C49.3916 22.6441 49.6897 22.5206 50.0005 22.5206C50.3113 22.5206 50.6094 22.6441 50.8291 22.8638C51.0489 23.0836 51.1724 23.3817 51.1724 23.6925V27.9653H55.4458C55.7566 27.9653 56.0547 28.0888 56.2744 28.3086C56.4942 28.5283 56.6177 28.8264 56.6177 29.1372C56.6177 29.448 56.4942 29.7461 56.2744 29.9658C56.0547 30.1856 55.7566 30.3091 55.4458 30.3091L51.1726 30.3093ZM28.0567 37.012C32.8944 42.9544 40.0329 49.6745 49.2731 56.987C49.4805 57.1506 49.737 57.2395 50.0011 57.2395C50.2652 57.2395 50.5216 57.1506 50.729 56.987C59.9692 49.6745 67.1058 42.9544 71.9433 37.012C76.8786 30.9526 79.5923 25.4811 80.0077 20.7532C80.0108 20.7192 80.0121 20.685 80.0114 20.6509C80.0114 17.1522 78.9117 13.7421 76.8678 10.9025C74.8239 8.06299 71.9393 5.93767 68.6216 4.82704C65.3039 3.71641 61.721 3.67665 58.3795 4.71339C55.038 5.75012 52.1069 7.81089 50.0005 10.6044C47.8942 7.81057 44.963 5.74949 41.6213 4.71256C38.2797 3.67563 34.6966 3.7153 31.3788 4.82597C28.0609 5.93663 25.176 8.0621 23.1321 10.9019C21.0882 13.7416 19.9886 17.152 19.9888 20.6509C19.9888 20.6858 19.9905 20.719 19.9923 20.7532C20.4079 25.4811 23.1206 30.9526 28.0567 37.012Z" fill="black"/>
</g>
</g>
</g>
</g>
<defs>
<clipPath id="clip0_152_1443">
<rect width="100" height="100" fill="white"/>
</clipPath>
<clipPath id="clip1_152_1443">
<rect width="100" height="100" fill="white"/>
</clipPath>
<clipPath id="clip2_152_1443">
<rect width="100" height="100" fill="white"/>
</clipPath>
</defs>
</svg>
