<svg width="20" height="21" viewBox="0 0 20 21" fill="none" xmlns="http://www.w3.org/2000/svg">
<path d="M13.492 1.85938H6.50866C3.47533 1.85938 1.66699 3.66771 1.66699 6.70104V13.676C1.66699 16.7177 3.47533 18.526 6.50866 18.526H13.4837C16.517 18.526 18.3253 16.7177 18.3253 13.6844V6.70104C18.3337 3.66771 16.5253 1.85938 13.492 1.85938ZM10.0003 13.426C8.21699 13.426 6.76699 11.976 6.76699 10.1927C6.76699 8.40937 8.21699 6.95937 10.0003 6.95937C11.7837 6.95937 13.2337 8.40937 13.2337 10.1927C13.2337 11.976 11.7837 13.426 10.0003 13.426ZM14.9337 5.92604C14.892 6.02604 14.8337 6.11771 14.7587 6.20104C14.6753 6.27604 14.5837 6.33437 14.4837 6.37604C14.3837 6.41771 14.2753 6.44271 14.167 6.44271C13.942 6.44271 13.7337 6.35937 13.5753 6.20104C13.5003 6.11771 13.442 6.02604 13.4003 5.92604C13.3587 5.82604 13.3337 5.71771 13.3337 5.60937C13.3337 5.50104 13.3587 5.39271 13.4003 5.29271C13.442 5.18437 13.5003 5.10104 13.5753 5.01771C13.767 4.82604 14.0587 4.73437 14.3253 4.79271C14.3837 4.80104 14.4337 4.81771 14.4837 4.84271C14.5337 4.85937 14.5837 4.88437 14.6337 4.91771C14.6753 4.94271 14.717 4.98437 14.7587 5.01771C14.8337 5.10104 14.892 5.18437 14.9337 5.29271C14.9753 5.39271 15.0003 5.50104 15.0003 5.60937C15.0003 5.71771 14.9753 5.82604 14.9337 5.92604Z" fill="#111022"/>
</svg>
