<svg width="70" height="43" viewBox="0 0 70 43" fill="none" xmlns="http://www.w3.org/2000/svg">
<g clip-path="url(#clip0_29_5221)">
<mask id="mask0_29_5221" style="mask-type:luminance" maskUnits="userSpaceOnUse" x="0" y="0" width="70" height="43">
<path d="M69.3864 0H0V42.0227H69.3864V0Z" fill="white"/>
</mask>
<g mask="url(#mask0_29_5221)">
<path d="M41.4635 17.9567C39.6621 17.9166 38.8005 17.5505 37.9615 16.5921C37.1224 15.6338 36.8437 14.2632 36.8437 12.6216L36.8203 1.8715L40.7026 0.995159C40.8158 0.970108 40.9331 0.971104 41.046 0.998078C41.1588 1.02505 41.2643 1.07733 41.3551 1.15113C41.4457 1.22493 41.5192 1.31842 41.5703 1.42483C41.6213 1.53125 41.6486 1.64793 41.6501 1.76645L41.6639 3.60916H44.8372V7.62069H41.6639V12.2024C41.6639 12.8027 41.8103 13.2271 42.1029 13.476C42.3957 13.7247 42.8445 13.8494 43.4495 13.8501C44.0376 13.8458 44.621 13.7446 45.1775 13.55V17.2934C44.1429 17.7315 43.2706 17.9937 41.4615 17.9516" fill="black"/>
<path d="M16.7293 10.7649L14.7452 10.4708C14.7126 10.4659 14.6829 10.4492 14.6615 10.4238C14.6401 10.3984 14.6282 10.3659 14.6282 10.3323C14.6282 10.2987 14.6401 10.2662 14.6615 10.2407C14.6829 10.2153 14.7126 10.1986 14.7452 10.1937L16.7293 9.9006C17.156 9.81601 17.5613 9.64331 17.9204 9.39304C18.2795 9.14278 18.585 8.82021 18.8181 8.44505L22.0707 3.20105H16.3773L12.8177 9.8876H12.581V2.72987C12.581 2.51762 12.4986 2.31405 12.3519 2.16397C12.2052 2.01388 12.0062 1.92957 11.7987 1.92957H7.64746V17.4755H12.581V10.7729H12.8177L16.0018 16.7542C16.115 16.9677 16.2826 17.146 16.4868 17.2702C16.6909 17.3943 16.9241 17.4598 17.1616 17.4595H22.0707L18.8181 12.2215C18.585 11.8463 18.2795 11.5238 17.9204 11.2735C17.5613 11.0232 17.156 10.8495 16.7293 10.7649Z" fill="black"/>
<path d="M28.5324 6.24618C30.1753 6.24618 30.7962 7.40562 30.7962 8.9312H26.1776C26.1776 7.3406 26.7937 6.24618 28.5324 6.24618ZM33.5521 13.9631C33.5146 13.8581 33.456 13.762 33.38 13.6815C33.304 13.601 33.2124 13.5378 33.111 13.4957C33.0097 13.4536 32.9008 13.4338 32.7914 13.4375C32.6822 13.4411 32.5748 13.4683 32.4763 13.517C31.4915 14.0154 30.3897 14.2216 29.2962 14.1121C27.8557 13.9571 26.558 13.2429 26.2402 11.9964H34.838C34.838 11.9964 35.062 11.4902 35.1363 10.1747C35.4189 5.18278 32.317 2.70883 28.5197 2.70883C24.5689 2.70883 21.2881 5.11975 21.2881 10.3898C21.2881 14.8454 24.4927 17.9567 29.081 17.9567C31.0369 17.9567 33.021 17.4485 34.264 16.6302L34.4195 16.5301V16.5111C34.4195 16.5111 33.9374 15.0476 33.554 13.9662" fill="black"/>
<path d="M53.4579 13.8721C51.4336 13.843 50.6503 12.6786 50.6796 10.6269C50.709 8.57506 52.1054 6.50428 53.5156 6.50228C54.7868 6.50228 56.2332 8.66011 56.2038 10.7119C56.1745 12.7637 55.2015 13.8981 53.454 13.8721H53.4579ZM53.4394 2.70883C48.9273 2.70883 46.0894 5.89105 46.0894 10.3327C46.0894 14.8045 48.3474 17.9567 53.4394 17.9567C58.6222 17.9567 60.7893 14.8045 60.7893 10.3327C60.7893 5.89105 58.0081 2.70883 53.4394 2.70883Z" fill="black"/>
<path d="M46.4702 36.5916H51.2903V20.3454C51.2901 20.226 51.2638 20.1082 51.2132 20.0006C51.1627 19.893 51.0892 19.7983 50.9983 19.7234C50.9073 19.6487 50.8011 19.5955 50.6875 19.5682C50.574 19.5408 50.4558 19.5397 50.3418 19.5651L46.4702 20.4395V36.5916Z" fill="black"/>
<path d="M40.8891 31.0148C40.7144 31.0141 40.5444 31.0738 40.4069 31.1841C40.2693 31.2945 40.1722 31.4492 40.1313 31.623C39.8848 32.6894 39.211 33.2586 38.1589 33.2586C36.4651 33.2586 35.5508 31.9061 35.5508 29.4282C35.5508 27.2213 36.1433 25.5977 37.927 25.5977C39.2091 25.5977 39.8057 26.267 40.1107 27.2983C40.1584 27.4639 40.2571 27.6092 40.392 27.7128C40.5271 27.8162 40.6911 27.8723 40.8598 27.8725H44.8976C44.3177 24.2632 42.3384 21.8052 38.3241 21.8052C33.812 21.8052 30.9741 24.9874 30.9741 29.4291C30.9741 33.9009 33.2321 37.0531 38.3241 37.0531C42.8724 37.0531 44.4409 34.6282 44.9191 31.0158L40.8891 31.0148Z" fill="black"/>
<path d="M11.8696 31.0148C11.6951 31.0152 11.5257 31.0751 11.3883 31.1854C11.251 31.2956 11.1537 31.4497 11.1118 31.623C10.8653 32.6894 10.1915 33.2586 9.14029 33.2586C7.44556 33.2586 6.53121 31.9061 6.53121 29.4282C6.53121 27.2213 7.12383 25.5977 8.90852 25.5977C10.1896 25.5977 10.7861 26.267 11.0912 27.2983C11.1389 27.4639 11.2376 27.6092 11.3725 27.7128C11.5075 27.8162 11.6716 27.8723 11.8403 27.8725H15.878C15.2983 24.2632 13.3189 21.8052 9.30457 21.8052C4.79054 21.8042 1.95459 24.9864 1.95459 29.4282C1.95459 33.8999 4.21259 37.0521 9.30457 37.0521C13.8538 37.0521 15.4214 34.6271 15.8996 31.0148H11.8696Z" fill="black"/>
<path d="M30.9989 22.3253C30.2497 24.5142 28.1697 36.1307 26.6901 37.7312C24.7656 40.3492 21.5326 40.6253 18.4972 39.2778L19.2013 35.2123C19.2013 35.2123 23.4063 36.6998 23.4543 34.1188H21.4984C20.7991 34.1187 20.1194 33.8838 19.5633 33.45C19.0074 33.0163 18.606 32.4077 18.4209 31.7179L15.8999 22.3253H20.9175L23.513 31.865C23.5138 31.8912 23.5197 31.9171 23.5302 31.9411C23.5408 31.965 23.5559 31.9866 23.5747 32.0046C23.5934 32.0225 23.6155 32.0366 23.6395 32.0459C23.6636 32.055 23.6892 32.0594 23.7149 32.0586C23.7406 32.0577 23.7658 32.0517 23.7893 32.0409C23.8127 32.03 23.8337 32.0146 23.8513 31.9954C23.8689 31.9761 23.8826 31.9536 23.8916 31.9291C23.9007 31.9044 23.905 31.8783 23.9041 31.852L25.8003 22.3253H30.9989Z" fill="black"/>
<path d="M59.8714 25.3424C61.5143 25.3424 62.1352 26.5019 62.1352 28.0275H57.5166C57.5166 26.4358 58.1336 25.3424 59.8714 25.3424ZM64.8911 33.0583C64.8535 32.9533 64.795 32.8574 64.719 32.7768C64.643 32.6963 64.5514 32.633 64.45 32.591C64.3487 32.5489 64.2398 32.529 64.1304 32.5327C64.0211 32.5364 63.9138 32.5635 63.8153 32.6122C62.8312 33.113 61.7292 33.3211 60.6352 33.2124C59.1956 33.0564 57.897 32.3421 57.5801 31.0956H66.177C66.177 31.0956 66.4019 30.5894 66.4762 29.2739C66.7579 24.282 63.6559 21.808 59.8587 21.808C55.9089 21.808 52.6221 24.219 52.6221 29.489C52.6221 33.9447 55.8268 37.0559 60.4161 37.0559C62.372 37.0559 64.3561 36.5477 65.5931 35.7293L65.7486 35.6294V35.6103C65.7486 35.6103 65.2665 34.1478 64.8831 33.0654" fill="black"/>
</g>
</g>
<defs>
<clipPath id="clip0_29_5221">
<rect width="69.3864" height="42.0227" fill="white"/>
</clipPath>
</defs>
</svg>
