<svg width="188" height="53" viewBox="0 0 188 53" fill="none" xmlns="http://www.w3.org/2000/svg">
<g clip-path="url(#clip0_2007_793)">
<path d="M44.8339 6.67797V21.326C44.8302 19.6319 44.3754 17.9692 43.5161 16.5079C42.6568 15.0467 41.4238 13.8394 39.9432 13.0096C38.5169 12.2048 36.9061 11.7822 35.2674 11.783H22.2031C20.5647 11.7841 18.9543 12.2066 17.5273 13.0096V0H38.1396C39.915 0 41.6177 0.70357 42.8732 1.95593C44.1286 3.20829 44.8339 4.90686 44.8339 6.67797Z" fill="#E94E25"/>
<path d="M57.4773 17.0338V36.5507C57.4773 44.3908 52.0972 51.04 44.8428 53.001V6.67798C44.8428 4.90687 44.1375 3.2083 42.882 1.95594C41.6266 0.703578 39.9239 8.04258e-06 38.1484 8.04258e-06H40.4067C41.9051 -0.00145537 43.397 0.196797 44.8428 0.589504C52.0972 2.54853 57.4773 9.19673 57.4773 17.0338Z" fill="#F38F02"/>
<path d="M39.9462 39.9897V53.0003H19.331C17.5556 53.0003 15.8529 52.2968 14.5974 51.0444C13.342 49.792 12.6367 48.0935 12.6367 46.3224V41.2164H35.2675C35.6747 41.2169 36.0814 41.1907 36.4852 41.138C37.7024 40.982 38.8778 40.5921 39.9462 39.9897Z" fill="#02ADE1"/>
<path d="M12.6384 19.0832H0.00390625V16.4503C0.00390625 8.61021 5.38403 1.96102 12.6384 0V19.0832Z" fill="#1A6AA3"/>
<path d="M19.3308 52.9998H17.0725C15.5741 53.0014 14.0821 52.8029 12.6365 52.4093C5.38012 50.4543 0 43.8051 0 35.965V30.7866C0 33.5526 1.10149 36.2053 3.06215 38.1612C5.02281 40.1171 7.68204 41.2159 10.4548 41.2159H12.6365V46.3218C12.6365 48.093 13.3418 49.7915 14.5972 51.0439C15.8527 52.2962 17.5554 52.9998 19.3308 52.9998Z" fill="#02ADE1"/>
<path d="M127.724 36.7755C128.156 35.54 128.651 35.276 130.112 35.6353C130.079 36.8983 130.046 38.1639 130.012 39.4322C129.936 42.2944 129.898 45.1615 129.775 48.0087C129.638 51.2092 126.866 53.2189 123.347 52.688C122.532 52.5659 121.669 52.3664 120.903 52.0032C119.51 51.3452 119.278 50.461 120.034 49.4695C120.364 49.6988 120.695 49.934 121.029 50.1642C123.628 51.9268 126.99 50.8837 127.343 48.1794C127.442 47.3775 127.442 46.5449 127.503 45.5693C127.236 45.9177 127.057 46.1648 126.868 46.397C126.237 47.191 125.42 47.7427 124.308 47.9253C122.41 48.238 120.513 47.2584 119.864 45.3927C118.757 42.217 118.883 39.2665 120.821 36.9046C121.975 35.4983 123.726 35.0378 125.853 35.7206C126.505 35.932 127.107 36.4213 127.724 36.7755ZM124.967 37.2718C123.641 37.2906 122.813 37.9436 122.306 38.9479C121.61 40.3244 121.542 41.8934 121.846 43.518C122.037 44.5352 122.471 45.5386 123.723 45.9991C124.817 46.404 126.065 46.0983 126.693 45.1486C127.088 44.5566 127.341 43.8824 127.433 43.1776C127.582 41.9381 127.576 40.6529 127.568 39.3747C127.547 38.9815 127.408 38.6037 127.17 38.29C126.608 37.5596 125.834 37.2559 124.965 37.2688L124.967 37.2718Z" fill="white"/>
<path d="M103.033 42.8188C102.776 40.4012 103.201 37.7237 105.918 36.1835C107.478 35.2982 109.331 35.1911 111.318 35.7409C113.096 36.2301 114.465 37.7257 114.835 39.6252C115.233 41.6646 115.081 43.5948 114.109 45.2383C112.732 47.5685 110.369 48.3475 107.32 47.8186C105.046 47.4186 103.636 45.8625 103.033 42.8188ZM112.375 40.2286C112.327 39.9894 112.293 39.7482 112.229 39.5101C111.913 38.3549 110.92 37.4488 109.742 37.289C108.467 37.1144 107.407 37.3982 106.65 38.2328C105.445 39.5607 105.299 41.2974 105.57 43.1264C105.937 45.6025 108.275 46.8728 110.421 45.8149C110.77 45.6441 111.084 45.4083 111.344 45.1202C112.539 43.7923 112.646 42.0715 112.375 40.2325V40.2286Z" fill="white"/>
<path d="M166.85 38.7085C165.06 37.1921 163.207 36.9381 161.307 37.3976C161.085 37.4594 160.875 37.5562 160.683 37.6844C160.158 38.0119 159.832 38.4833 160.011 39.1561C160.195 39.8508 160.849 40.1168 161.477 40.3004C162.184 40.5058 162.9 40.6388 163.61 40.8144C164.001 40.9137 164.393 41.0129 164.779 41.14C167.353 41.9924 168.333 44.011 167.067 45.9323C165.94 47.6363 164.002 48.0472 161.811 47.9509C160.708 47.9033 159.596 47.683 158.54 47.1004C157.16 46.3392 156.895 45.5413 157.708 44.4149C157.98 44.6482 158.227 44.9111 158.523 45.1017C160.419 46.2926 162.277 46.4603 164.064 45.7745C164.367 45.6495 164.625 45.4369 164.805 45.1642C165.348 44.3534 164.986 43.4414 163.898 43.0275C162.936 42.6623 161.937 42.446 160.956 42.1552C160.545 42.0331 160.132 41.9101 159.731 41.7503C157.923 41.0308 157.174 39.7496 157.667 38.1776C158.128 36.7068 159.358 35.9943 160.862 35.6251C162.239 35.2867 163.706 35.377 165.204 35.8553C165.525 35.9599 165.834 36.0969 166.127 36.2642C167.428 37.0095 167.62 37.6258 166.85 38.7085Z" fill="white"/>
<path d="M87.5965 32.5803C88.0034 32.5803 88.6043 32.5307 89.2151 32.5942C89.8449 32.6587 90.2975 33.2155 90.3035 33.9538C90.3184 35.5774 90.2886 37.1931 90.2607 38.8078C90.2259 40.9087 90.1732 43.0057 90.1344 45.1036C90.1429 45.2913 90.1632 45.4782 90.1951 45.6634C91.9141 45.8966 97.2823 45.6912 98.9974 45.3369C99.4063 46.76 98.7845 47.6829 97.2764 47.7077C94.8241 47.7465 92.3578 47.7226 89.8936 47.7077C89.4971 47.695 89.1026 47.6445 88.7157 47.5569C87.9805 47.408 87.5498 46.9614 87.5547 46.2668C87.5756 43.4016 87.6443 40.5425 87.6642 37.6714C87.6751 36.0647 87.6234 34.4401 87.5965 32.5803Z" fill="white"/>
<path d="M152.715 44.4162C153.267 45.2767 153.269 45.9168 152.647 46.4497C150.857 47.9859 148.587 48.3869 145.934 47.6207C144.092 47.0878 142.92 45.751 142.552 43.7751C142.163 41.6732 142.345 39.6983 143.392 37.9993C144.82 35.681 148.006 34.7848 151.08 35.8437C151.492 35.9875 151.885 36.1797 152.251 36.4164C153.366 37.1319 153.523 37.8762 152.781 38.7406C150.745 37.1765 148.762 36.7508 147.093 37.6896C146.405 38.0786 145.84 38.6534 145.465 39.348C144.757 40.7076 144.68 42.2666 145.266 43.9289C145.664 45.0653 146.5 45.7768 147.704 46.0249C149.417 46.3792 150.872 46.0656 152.023 45.0772C152.254 44.8797 152.461 44.6604 152.715 44.4162Z" fill="white"/>
<path d="M137.811 47.7134C137.502 47.7382 137.155 47.8057 136.796 47.7888C135.627 47.7323 135.061 47.1418 135.086 46.0561C135.151 43.3279 135.228 40.5978 135.261 37.8587C135.267 37.3129 135.087 36.7343 135.021 36.1716C135.001 36.0059 135.04 35.7091 135.109 35.7062C135.743 35.6764 136.417 35.5474 137.024 35.7439C137.73 35.9721 137.757 36.6807 137.751 37.2394C137.734 38.6417 137.672 40.0361 137.645 41.4354C137.616 43.0024 137.588 44.5694 137.596 46.1414C137.598 46.6227 137.727 47.1259 137.811 47.7134Z" fill="white"/>
<path d="M136.653 30.9117C137.519 30.9226 138.155 31.3444 138.292 31.9984C138.491 32.9224 137.622 33.7471 136.508 33.7044C135.65 33.6716 134.976 33.2191 134.86 32.5978C134.685 31.6382 135.469 30.8958 136.653 30.9117Z" fill="white"/>
<path d="M141.659 24.1921C140.758 24.1921 139.881 24.2913 139.04 24.1702C137.369 23.9231 136.618 22.9446 136.592 21.1027C136.565 18.9799 136.621 16.8561 136.566 14.7343C136.527 13.8111 136.397 12.8939 136.177 11.9963C136.017 11.3016 135.535 10.853 134.761 10.7766C133.965 10.6982 133.358 11.0098 133.046 11.7025C132.733 12.3952 132.393 13.1177 132.382 13.8342C132.341 16.5643 132.408 19.2925 132.482 22.0266C132.499 22.6528 132.716 23.2731 132.842 23.8973C130.477 24.8163 127.687 24.0263 127.768 20.9201C127.84 18.1879 127.824 15.4518 127.768 12.7197C127.734 11.109 127.546 9.50132 127.422 7.80627C129.852 6.59056 131.829 7.69611 132.024 10.8699C132.934 8.72227 134.236 7.33983 136.482 7.32693C138.593 7.31502 139.665 8.27766 140.665 11.0257C140.83 10.6515 140.947 10.3806 141.069 10.1126C142.106 7.83009 144.391 6.80194 146.788 7.55816C148.479 8.09208 149.304 9.38719 149.613 11.0148C149.8 12.0072 149.826 13.0313 149.854 14.0426C149.919 16.4542 149.907 18.8687 150 21.2793C150.035 22.1665 150.276 23.0458 150.439 24.0154C149.301 24.333 148.109 24.3846 146.944 23.8963C145.924 23.4696 145.451 22.632 145.44 21.5512C145.423 19.3123 145.469 17.0715 145.414 14.8336C145.38 13.9069 145.249 12.9865 145.021 12.0876C144.85 11.3929 144.387 10.8629 143.57 10.7746C142.661 10.6753 141.989 11.0723 141.68 11.8593C141.382 12.6274 141.11 13.471 141.102 14.2848C141.076 16.7807 141.16 19.2806 141.253 21.7765C141.282 22.494 141.487 23.2016 141.659 24.1921Z" fill="white"/>
<path d="M67.168 13.935C67.168 11.5701 67.5659 9.29648 68.9288 7.30768C70.9653 4.33638 73.9538 3.29038 77.4079 3.41542C83.0318 3.62085 86.5476 7.02682 86.8311 12.6558C86.9186 14.3975 86.7943 16.2235 86.3516 17.9017C85.2055 22.2406 81.8648 24.1629 77.9521 24.3693C76.503 24.4423 75.0513 24.2914 73.6484 23.9217C69.9386 22.9353 67.4893 19.6672 67.2575 15.6767C67.2237 15.1001 67.1978 14.5196 67.168 13.935ZM72.7709 10.8705C72.2172 12.8882 72.2333 15.0193 72.8177 17.0284C72.8913 17.2805 72.9752 17.5286 73.0694 17.7727C73.7489 19.5114 75.1367 20.4909 77.0587 20.487C78.9808 20.483 80.3348 19.4926 81.0441 17.7588C82.0976 15.1785 82.0847 12.5427 81.0441 9.96438C80.3377 8.21375 78.9639 7.28485 77.0378 7.2918C75.1118 7.29875 73.718 8.22169 73.0585 9.98621C72.946 10.276 72.8535 10.5727 72.7709 10.8744V10.8705Z" fill="white"/>
<path d="M89.3672 7.83585C92.3229 6.80374 93.5823 7.55202 94.1424 10.827C94.3245 10.4707 94.4459 10.2315 94.5682 9.99436C96.1988 6.82557 100.584 6.49212 102.698 9.3741C103.809 10.8885 104.124 12.658 104.29 14.4563C104.475 16.4967 104.328 18.5252 103.623 20.4663C102.122 24.6077 97.9646 25.6735 94.6508 22.7906C94.617 22.7618 94.5513 22.7737 94.2758 22.735C94.428 25.3292 94.5742 27.8767 94.7413 30.6396C93.8927 30.6714 92.8223 30.8381 91.7876 30.717C90.6854 30.584 90.1422 29.8566 90.0039 28.756C89.9353 28.2088 89.8994 27.658 89.8964 27.1066C89.8656 21.6433 89.8646 16.1791 89.797 10.7158C89.785 9.77603 89.5204 8.83819 89.3672 7.83585ZM94.3414 15.9121C94.3305 16.1186 94.3265 16.325 94.3325 16.5324C94.3464 17.0147 94.3732 17.9486 94.3872 18.4904C94.42 19.6813 95.3422 20.8643 96.3699 21.0707C97.3419 21.2692 98.4193 20.6569 98.9883 19.5821C99.1003 19.3799 99.1919 19.1671 99.2619 18.9469C99.89 16.9088 99.8823 14.7284 99.24 12.6947C98.7993 11.2865 97.9129 10.7029 96.5997 10.7843C95.5531 10.8498 94.7443 11.6517 94.5404 13.0222C94.4031 13.97 94.3951 14.9445 94.3454 15.9121H94.3414Z" fill="white"/>
<path d="M173.49 26.4182C174.186 26.8152 174.851 27.2787 175.579 27.5714C176.509 27.9436 177.46 27.6845 178.016 26.9085C178.681 25.9796 179.134 24.8959 179.636 23.8598C179.712 23.702 179.601 23.4112 179.505 23.2187C177.243 18.7038 174.972 14.1936 172.693 9.68807C172.37 9.04895 171.95 8.45846 171.539 7.7866C173.111 7.42139 174.655 7.27749 176.085 7.98508C176.741 8.33325 177.272 8.87639 177.605 9.53921C178.811 12.048 179.893 14.6154 181.031 17.159C181.155 17.4369 181.312 17.6998 181.487 18.0293C181.621 18.2169 181.773 17.8418 181.8 17.7574C182.596 15.2436 183.407 12.7338 184.148 10.2041C184.323 9.60867 184.286 8.94078 184.286 8.30662C184.286 7.86202 184.445 7.65957 184.883 7.66056C185.203 7.66056 185.525 7.63575 185.845 7.64369C187.521 7.68835 188.36 8.79291 187.835 10.4026C187.048 12.8271 186.188 15.2297 185.342 17.6353C184.347 20.4498 183.41 23.2862 182.308 26.058C181.834 27.2489 181.105 28.3783 180.319 29.4044C178.796 31.3982 175.604 31.1302 174.077 30.1983C172.794 29.4054 172.6 27.9059 173.49 26.4182Z" fill="white"/>
<path d="M116.868 19.6673C118.117 21.4536 117.584 23.3918 115.582 23.9118C114.439 24.2096 113.139 24.2939 111.983 24.0806C109.581 23.6379 108.259 22.0024 108.165 19.567C108.073 17.1584 108.112 14.7449 108.094 12.3333C108.094 11.988 108.094 11.6386 108.094 11.1891H105.707C105.707 10.4874 105.66 9.88205 105.73 9.29057C105.758 9.05438 105.996 8.72489 106.213 8.64649C108.381 7.87241 109.87 6.44333 110.628 4.26696C110.989 3.23088 111.822 3.94939 112.527 3.67151V7.8208C113.264 7.8208 113.896 7.80889 114.528 7.8208C116.319 7.86248 117.06 8.7507 116.793 10.5132C116.754 10.7703 116.726 11.0293 116.681 11.2863C116.673 11.3349 116.613 11.3756 116.634 11.3488L112.555 11.067V12.2768C112.555 14.2239 112.555 16.171 112.561 18.1181C112.57 18.4648 112.606 18.8102 112.669 19.1512C112.799 19.9561 113.058 20.6716 113.962 20.9376C114.911 21.2154 115.666 20.8701 116.334 20.23C116.519 20.0513 116.687 19.8588 116.868 19.6673Z" fill="white"/>
<path d="M170.613 19.4833C171.853 22.0507 171.181 23.5642 168.661 24.0971C167.721 24.2938 166.752 24.3062 165.807 24.1338C163.429 23.6832 162.027 22.0974 161.903 19.66C161.779 17.1948 161.84 14.7207 161.82 12.2506C161.82 11.9082 161.82 11.5668 161.82 11.1589H159.432C159.432 10.4414 159.398 9.78247 159.454 9.13243C159.47 8.95479 159.726 8.7176 159.921 8.64913C162.123 7.87703 163.609 6.41619 164.397 4.21501C164.755 3.21664 165.604 3.99172 166.282 3.63147V7.81947C166.932 7.81947 167.503 7.81451 168.072 7.81947C170.161 7.8413 170.915 8.78509 170.497 10.8334C170.457 11.0319 170.409 11.2244 170.381 11.3495L166.546 11.0855C166.414 11.2314 166.347 11.2741 166.347 11.3167C166.361 13.8712 166.361 16.4267 166.41 18.9822C166.427 19.8307 166.718 20.5978 167.624 20.9075C168.588 21.2379 169.392 20.9025 170.073 20.2128C170.245 20.0351 170.375 19.8059 170.613 19.4833Z" fill="white"/>
<path d="M152.586 7.68708C153.421 7.62555 154.397 7.47569 155.372 7.50149C156.393 7.52928 157.141 8.26367 157.354 9.28784C157.456 9.76995 157.511 10.2609 157.516 10.7536C157.533 13.197 157.488 15.6403 157.536 18.0826C157.575 20.0446 157.717 22.0037 157.819 24.0719C156.741 24.3856 155.588 24.3262 154.548 23.9032C153.318 23.3931 152.996 22.3093 152.984 21.1244C152.956 18.3039 153.016 15.4815 152.958 12.6611C152.922 11.0752 152.726 9.49427 152.586 7.68708Z" fill="white"/>
<path d="M124.947 23.9969C123.766 24.3383 122.597 24.3819 121.454 23.9224C120.31 23.4629 119.888 22.5073 119.883 21.3422C119.87 18.4066 119.925 15.47 119.855 12.5364C119.818 10.9863 119.578 9.44209 119.41 7.68452C120.293 7.62894 121.357 7.44733 122.401 7.52871C123.515 7.61505 124.231 8.48341 124.266 9.71203C124.342 12.3538 124.303 14.9996 124.365 17.6424C124.406 19.3504 124.487 21.0613 124.649 22.7633C124.703 23.3419 124.838 23.5483 124.947 23.9969Z" fill="white"/>
<path d="M155.176 0.814697C157.312 0.814697 158.583 2.36684 157.85 4.08967C157.312 5.35798 155.493 5.94648 153.916 5.35996C152.649 4.88956 152.07 3.71255 152.467 2.41745C152.782 1.39923 153.762 0.818667 155.176 0.814697Z" fill="white"/>
<path d="M122.011 0.815559C123.424 0.805635 124.417 1.36635 124.765 2.36968C125.102 3.34523 124.786 4.45376 123.979 5.01646C123.11 5.62382 122.125 5.67939 121.135 5.46305C119.813 5.17227 119.046 4.09649 119.214 2.8649C119.387 1.58865 120.428 0.826476 122.011 0.815559Z" fill="white"/>
<path d="M22.2 41.2163H10.4548C7.68204 41.2163 5.02281 40.1175 3.06215 38.1617C1.10149 36.2058 0 33.5531 0 30.787V19.0825H12.6345V31.6733C12.6382 33.3674 13.093 35.0301 13.9523 36.4914C14.8116 37.9526 16.0446 39.1599 17.5252 39.9897C18.9512 40.7943 20.5617 41.2169 22.2 41.2163Z" fill="#1A6AA3"/>
</g>
<defs>
<clipPath id="clip0_2007_793">
<rect width="188" height="53" fill="white"/>
</clipPath>
</defs>
</svg>
