<svg width="40" height="40" viewBox="0 0 40 40" fill="none" xmlns="http://www.w3.org/2000/svg">
<path d="M36.0764 21.0924L10.7639 35.1549C10.5782 35.2584 10.3692 35.3126 10.1567 35.3125C9.97282 35.3091 9.79191 35.2658 9.62646 35.1856C9.461 35.1054 9.31496 34.9902 9.19844 34.848C9.08192 34.7057 8.99772 34.5399 8.95165 34.3619C8.90559 34.1839 8.89876 33.998 8.93166 33.8171L11.6942 19.9999L8.93103 6.18282C8.88897 5.94986 8.91333 5.70976 9.00133 5.49C9.08933 5.27023 9.23742 5.07967 9.42865 4.94013C9.61988 4.80058 9.84652 4.71769 10.0827 4.70092C10.3188 4.68416 10.5549 4.7342 10.7639 4.84533L36.0764 18.9078C36.2681 19.0186 36.4273 19.1778 36.5379 19.3695C36.6486 19.5613 36.7068 19.7788 36.7068 20.0001C36.7068 20.2215 36.6486 20.439 36.5379 20.6307C36.4273 20.8225 36.2681 20.9817 36.0764 21.0924ZM5.75728 34.3078L8.56978 20.2453C8.60213 20.0833 8.60213 19.9166 8.56978 19.7546L5.75728 5.69207C5.68273 5.37652 5.48854 5.10226 5.21567 4.92713C4.9428 4.752 4.61257 4.68969 4.29465 4.75334C3.97672 4.817 3.69594 5.00164 3.51152 5.26832C3.32711 5.53501 3.25348 5.8629 3.30616 6.18282L6.06916 19.9999L3.30666 33.8171C3.27281 33.9982 3.27899 34.1845 3.32476 34.363C3.37053 34.5415 3.45478 34.7078 3.57162 34.8503C3.68845 34.9927 3.83504 35.1079 4.0011 35.1878C4.16715 35.2676 4.34867 35.3102 4.53291 35.3125C4.82161 35.3121 5.10131 35.2119 5.3245 35.0288C5.54769 34.8457 5.70061 34.5909 5.75728 34.3078Z" fill="black"/>
</svg>
