<svg width="48" height="48" viewBox="0 0 48 48" fill="none" xmlns="http://www.w3.org/2000/svg">
<path d="M40.9197 16.769C38.836 7.60074 30.8386 3.47302 23.8135 3.47302C23.8135 3.47302 23.8135 3.47302 23.7937 3.47302C16.7885 3.47302 8.77118 7.58089 6.68748 16.7492C4.36564 26.9891 10.6366 35.6613 16.3122 41.1186C18.4158 43.1427 21.1146 44.1548 23.8135 44.1548C26.5124 44.1548 29.2113 43.1427 31.295 41.1186C36.9706 35.6613 43.2416 27.0089 40.9197 16.769ZM23.8135 26.7113C20.3605 26.7113 17.5624 23.9132 17.5624 20.4602C17.5624 17.0072 20.3605 14.2091 23.8135 14.2091C27.2665 14.2091 30.0646 17.0072 30.0646 20.4602C30.0646 23.9132 27.2665 26.7113 23.8135 26.7113Z" fill="white"/>
</svg>
