<svg width="195" height="43" viewBox="0 0 195 43" fill="none" xmlns="http://www.w3.org/2000/svg">
<g clip-path="url(#clip0_29_5243)">
<path d="M0.758789 -0.0196838H10.0384V31.5708C10.0384 33.8823 11.0125 35.0637 13.012 35.0637C13.4734 35.0637 13.9861 35.0124 14.5501 34.8583C15.114 34.7042 15.6267 34.4987 16.0881 34.2419L17.3186 41.2277C16.1394 41.7927 14.8064 42.2037 13.3196 42.5119C11.8328 42.8201 10.3973 42.9742 9.06431 42.9742C6.39834 42.9742 4.34759 42.2551 2.91207 40.8682C1.47655 39.4813 0.758789 37.478 0.758789 34.8069V-0.0196838Z" fill="black"/>
<path d="M55.1875 -0.0196838H64.4671V31.5708C64.4671 33.8823 65.4412 35.0637 67.4407 35.0637C67.9021 35.0637 68.4148 35.0124 68.9788 34.8583C69.5427 34.7042 70.0554 34.4987 70.5168 34.2419L71.7473 41.2277C70.5681 41.7927 69.2351 42.2037 67.7483 42.5119C66.2615 42.8201 64.826 42.9742 63.493 42.9742C60.827 42.9742 58.7763 42.2551 57.3408 40.8682C55.9053 39.4813 55.1875 37.478 55.1875 34.8069V-0.0196838Z" fill="black"/>
<path d="M22.8149 37.9307C23.4814 38.6499 24.2504 39.2663 25.0707 39.8313L29.0184 31.1503C28.4032 29.9175 28.0955 28.4793 28.0955 26.8355C28.0955 25.6541 28.2493 24.5754 28.6082 23.5995C28.9671 22.6235 29.4285 21.7502 30.0437 21.0825C30.659 20.3633 31.3767 19.8497 32.197 19.4388C32.9661 19.0792 33.7351 18.9251 34.6067 18.8737L38.0929 11.2201C37.0676 11.066 36.0422 10.9633 34.9143 10.9633C32.2996 10.9633 29.9925 11.4256 27.993 12.2474C25.9423 13.1207 24.2504 14.3021 22.8661 15.7404C21.4819 17.1786 20.4052 18.8737 19.6875 20.8256C18.9697 22.7262 18.6108 24.7295 18.6108 26.8355C18.6108 28.9416 18.9697 30.9449 19.6875 32.8454C20.354 34.7974 21.4306 36.4411 22.8149 37.9307Z" fill="black"/>
<path d="M46.9446 15.7595C46.2781 15.0404 45.509 14.424 44.6887 13.8589L40.7411 22.5399C41.3563 23.7213 41.6639 25.1596 41.6639 26.8033C41.6639 27.9848 41.5101 29.0635 41.1512 30.0394C40.7923 31.0154 40.3309 31.8886 39.7157 32.5564C39.1005 33.2755 38.434 33.7892 37.6137 34.2001C36.8959 34.5597 36.0756 34.7138 35.204 34.7652L31.7178 42.3674C32.7431 42.5215 33.8198 42.6243 34.8964 42.6243C37.5111 42.6243 39.8182 42.2133 41.8177 41.3401C43.8684 40.4669 45.5603 39.3368 46.9446 37.8985C48.3288 36.4603 49.4055 34.7652 50.1232 32.8132C50.841 30.9127 51.1999 28.9094 51.1999 26.8033C51.1999 24.6973 50.841 22.694 50.0719 20.7934C49.4055 18.8929 48.3288 17.1978 46.9446 15.7595Z" fill="black"/>
<path d="M77.4028 37.9738C78.0693 38.6929 78.8383 39.3093 79.6586 39.8744L83.6063 31.1934C82.991 29.9606 82.6834 28.5223 82.6834 26.8786C82.6834 25.6972 82.8372 24.6185 83.1961 23.6425C83.555 22.6665 84.0164 21.7933 84.6316 21.1255C85.2469 20.4064 85.9646 19.8927 86.7849 19.4818C87.554 19.1222 88.323 18.9681 89.1945 18.9168L92.6808 11.2632C91.6554 11.1091 90.6301 11.0063 89.5022 11.0063C86.8875 11.0063 84.5804 11.4686 82.5809 12.2905C80.5301 13.1637 78.8383 14.3451 77.454 15.7834C76.0698 17.2217 74.9931 18.9168 74.2754 20.8687C73.5576 22.7693 73.1987 24.7726 73.1987 26.8786C73.1987 28.9846 73.5576 30.9879 74.2754 32.8885C74.9419 34.8404 76.0185 36.5355 77.4028 37.9738Z" fill="black"/>
<path d="M101.481 15.8026C100.815 15.0835 100.046 14.4671 99.2254 13.902L95.2777 22.583C95.8929 23.7644 96.2005 25.2027 96.2005 26.8464C96.2005 28.0279 96.0467 29.1066 95.6878 30.0825C95.3289 31.0585 94.8675 31.9317 94.2523 32.5995C93.6371 33.2673 92.9706 33.8323 92.1503 34.2432C91.4325 34.6028 90.6122 34.7569 89.7407 34.8083L86.2544 42.4105C87.2798 42.5646 88.3564 42.6674 89.433 42.6674C92.0477 42.6674 94.3548 42.2564 96.3543 41.3832C98.3538 40.51 100.097 39.3799 101.481 37.9416C102.865 36.5034 103.942 34.8083 104.66 32.8563C105.378 30.9558 105.736 28.9525 105.736 26.8464C105.736 24.7404 105.378 22.7371 104.609 20.8365C103.942 18.9873 102.917 17.2922 101.481 15.8026Z" fill="black"/>
<path d="M116.865 27.0418C116.865 24.9358 117.224 22.9325 117.993 21.0319C118.71 19.1314 119.787 17.4363 121.171 15.9466C122.556 14.5084 124.299 13.3269 126.298 12.5051C128.349 11.6318 130.656 11.2209 133.219 11.2209C136.757 11.2209 139.679 11.9914 142.089 13.481C144.499 14.9707 146.293 16.9226 147.472 19.3368L138.5 22.0592C137.321 20.1073 135.527 19.1314 133.219 19.1314C131.271 19.1314 129.682 19.8505 128.349 21.2887C127.067 22.727 126.401 24.6276 126.401 27.0418C126.401 28.2232 126.555 29.3533 126.913 30.3293C127.272 31.3052 127.734 32.1785 128.349 32.8462C128.964 33.5654 129.682 34.079 130.553 34.49C131.374 34.9009 132.245 35.055 133.219 35.055C134.399 35.055 135.424 34.7982 136.398 34.2331C137.372 33.6681 138.09 32.949 138.551 32.0757L147.626 34.8495C146.498 37.2124 144.704 39.1643 142.243 40.654C139.782 42.195 136.757 42.9655 133.271 42.9655C130.707 42.9655 128.4 42.5545 126.401 41.6813C124.35 40.8081 122.658 39.6266 121.223 38.1884C119.787 36.7501 118.71 35.055 117.993 33.1031C117.224 31.1511 116.865 29.1478 116.865 27.0418Z" fill="black"/>
<path d="M154.243 38.2741C154.91 38.9932 155.679 39.6096 156.499 40.1747L160.447 31.4937C159.831 30.2609 159.524 28.8226 159.524 27.1789C159.524 25.9975 159.678 24.9188 160.036 23.9428C160.395 22.9668 160.857 22.0936 161.472 21.4258C162.087 20.7067 162.805 20.193 163.625 19.7821C164.394 19.4225 165.163 19.2684 166.035 19.2171L169.521 11.5634C168.496 11.4093 167.47 11.3066 166.342 11.3066C163.728 11.3066 161.421 11.7689 159.421 12.6421C157.422 13.5154 155.679 14.6968 154.294 16.1351C152.91 17.5733 151.833 19.2684 151.116 21.2204C150.398 23.1209 150.039 25.1242 150.039 27.2303C150.039 29.3363 150.398 31.3396 151.116 33.2402C151.782 35.1407 152.808 36.8358 154.243 38.2741Z" fill="black"/>
<path d="M178.322 16.1035C177.655 15.3844 176.886 14.768 176.066 14.203L172.118 22.8839C172.733 24.0654 173.041 25.5036 173.041 27.1474C173.041 28.3288 172.887 29.4075 172.528 30.3835C172.169 31.3594 171.708 32.2327 171.093 32.9004C170.477 33.6196 169.811 34.1332 168.991 34.5442C168.273 34.9037 167.453 35.0578 166.581 35.1092L163.095 42.7115C164.12 42.8656 165.197 42.9683 166.273 42.9683C168.888 42.9683 171.195 42.5574 173.195 41.6841C175.194 40.8109 176.937 39.6808 178.322 38.2426C179.706 36.8043 180.782 35.1092 181.5 33.1573C182.218 31.2567 182.577 29.2534 182.577 27.1474C182.577 25.0413 182.218 23.038 181.449 21.1375C180.782 19.2369 179.706 17.5418 178.322 16.1035Z" fill="black"/>
<path d="M194.264 32.8917H186.676V42.3945H194.264V32.8917Z" fill="black"/>
</g>
<defs>
<clipPath id="clip0_29_5243">
<rect width="193.5" height="43" fill="white" transform="translate(0.772949)"/>
</clipPath>
</defs>
</svg>
