<svg width="27" height="27" viewBox="0 0 27 27" fill="none" xmlns="http://www.w3.org/2000/svg">
<path fill-rule="evenodd" clip-rule="evenodd" d="M3.31402 5.18725L10.6082 12.4846C12.1991 14.0725 14.7997 14.0738 16.3919 12.4846L23.6861 5.18725C23.7596 5.11379 23.7489 4.99282 23.6636 4.93339C22.9197 4.41453 22.0145 4.10693 21.0394 4.10693H5.96076C4.98565 4.10693 4.08046 4.41459 3.33648 4.93339C3.25127 4.99282 3.24056 5.11379 3.31402 5.18725ZM1.36475 8.70289C1.36475 7.93614 1.55485 7.21167 1.88972 6.5749C1.94208 6.47529 2.07481 6.45514 2.15439 6.53472L9.35627 13.7366C11.6369 16.0205 15.3619 16.0218 17.6439 13.7366L24.8458 6.53472C24.9254 6.45514 25.0581 6.47529 25.1105 6.5749C25.4453 7.21167 25.6354 7.93619 25.6354 8.70289V18.2972C25.6354 20.8334 23.5724 22.8932 21.0394 22.8932H5.96076C3.42782 22.8932 1.36475 20.8334 1.36475 18.2972V8.70289Z" fill="white"/>
</svg>
