<svg width="43" height="39" viewBox="0 0 43 39" fill="none" xmlns="http://www.w3.org/2000/svg">
<path d="M32.9126 4.91398V15.6927C32.9099 14.4461 32.5761 13.2226 31.9453 12.1474C31.3145 11.0721 30.4094 10.1837 29.3226 9.57309C28.2756 8.98091 27.0931 8.66995 25.8903 8.67048H16.3004C15.0978 8.67134 13.9157 8.98221 12.8682 9.57309V0H27.9986C29.3019 0 30.5518 0.517721 31.4733 1.43927C32.3949 2.36082 32.9126 3.61071 32.9126 4.91398Z" fill="#E94E25"/>
<path d="M42.1894 12.5343V26.8958C42.1894 32.6649 38.2401 37.5577 32.915 39.0007V4.91399C32.915 3.61072 32.3972 2.36083 31.4757 1.43928C30.5541 0.517727 29.3042 5.91813e-06 28.001 5.91813e-06H29.6587C30.7586 -0.00107093 31.8537 0.144813 32.915 0.433786C38.2401 1.87534 42.1894 6.76741 42.1894 12.5343Z" fill="#F38F02"/>
<path d="M29.323 29.4263V39.0001H14.1903C12.8871 39.0001 11.6372 38.4824 10.7156 37.5608C9.79409 36.6393 9.27637 35.3894 9.27637 34.0861V30.3289H25.8885C26.1874 30.3293 26.486 30.31 26.7824 30.2712C27.6759 30.1564 28.5387 29.8695 29.323 29.4263Z" fill="#02ADE1"/>
<path d="M9.27637 14.0423H0.00195312V12.1049C0.00195312 6.33581 3.95125 1.44301 9.27637 0V14.0423Z" fill="#1A6AA3"/>
<path d="M14.1899 38.9999H12.5321C11.4322 39.0011 10.337 38.855 9.27587 38.5654C3.94929 37.1268 0 32.234 0 26.4648V22.6543C0 24.6897 0.80855 26.6417 2.24778 28.0809C3.68701 29.5201 5.63902 30.3287 7.67439 30.3287H9.27587V34.0859C9.27587 35.3892 9.79359 36.6391 10.7151 37.5606C11.6367 38.4822 12.8866 38.9999 14.1899 38.9999Z" fill="#02ADE1"/>
<path d="M16.2959 30.3289H7.6744C5.63902 30.3289 3.68701 29.5204 2.24778 28.0812C0.80855 26.6419 0 24.6899 0 22.6545V14.0417H9.27442V23.3067C9.27711 24.5533 9.61093 25.7768 10.2417 26.8521C10.8725 27.9273 11.7776 28.8157 12.8644 29.4263C13.9112 30.0184 15.0934 30.3293 16.2959 30.3289Z" fill="#1A6AA3"/>
</svg>
