<svg width="36" height="56" viewBox="0 0 36 56" fill="none" xmlns="http://www.w3.org/2000/svg">
<path d="M28.3335 0H7.3335C3.46709 0 0.333496 3.13359 0.333496 7V49C0.333496 52.8664 3.46709 56 7.3335 56H28.3335C32.1999 56 35.3335 52.8664 35.3335 49V7C35.3335 3.13359 32.1944 0 28.3335 0ZM31.8335 49C31.8335 50.9294 30.2629 52.5 28.3335 52.5H7.3335C5.40412 52.5 3.8335 50.9294 3.8335 49V7C3.8335 5.07063 5.40412 3.5 7.3335 3.5H28.3335C30.2629 3.5 31.8335 5.07063 31.8335 7V49ZM21.3335 43.75H14.3335C13.3671 43.75 12.5835 44.5333 12.5835 45.5C12.5835 46.4664 13.3671 47.25 14.3335 47.25H21.3335C22.2999 47.25 23.0835 46.4664 23.0835 45.5C23.0835 44.5375 22.296 43.75 21.3335 43.75Z" fill="#C522A1"/>
</svg>
