<svg width="1680" height="420" viewBox="0 0 1680 420" fill="none" xmlns="http://www.w3.org/2000/svg">
<g clip-path="url(#clip0_589_1256)">
<rect width="1680" height="420" fill="#005BFF"/>
<path d="M1335 23.5386H345V396.469H1335V23.5386Z" stroke="black" stroke-miterlimit="10"/>
<path d="M345 396.469H1335" stroke="black" stroke-miterlimit="10"/>
<path d="M345 321.884H1335" stroke="black" stroke-miterlimit="10"/>
<path d="M345 247.297H1335" stroke="black" stroke-miterlimit="10"/>
<path d="M345 172.711H1335" stroke="black" stroke-miterlimit="10"/>
<path d="M345 98.1245H1335" stroke="black" stroke-miterlimit="10"/>
<path d="M345 23.5386H1335" stroke="black" stroke-miterlimit="10"/>
<path d="M705 24.1475V395.931" stroke="black" stroke-miterlimit="10"/>
<path d="M795 24.1475V395.931" stroke="black" stroke-miterlimit="10"/>
<path d="M885 24.1475V395.931" stroke="black" stroke-miterlimit="10"/>
<path d="M975 24.1475V395.931" stroke="black" stroke-miterlimit="10"/>
<path d="M1065 24.1475V395.931" stroke="black" stroke-miterlimit="10"/>
<path d="M1155 24.1475V395.931" stroke="black" stroke-miterlimit="10"/>
<path d="M1245 23V394.783" stroke="black" stroke-miterlimit="10"/>
<path d="M1335 23V394.783" stroke="black" stroke-miterlimit="10"/>
<path d="M615 24.1475V395.931" stroke="black" stroke-miterlimit="10"/>
<path d="M525 24.1475V395.931" stroke="black" stroke-miterlimit="10"/>
<path d="M435 24.1475V395.931" stroke="black" stroke-miterlimit="10"/>
<path d="M345 24.1475V395.931" stroke="black" stroke-miterlimit="10"/>
<path d="M1046 176.98V161.02C1046 160.18 1045.32 159.501 1044.48 159.501H1035.93C1035.52 158.286 1035.03 157.104 1034.47 155.965L1040.51 149.922C1041.11 149.328 1041.11 148.365 1040.51 147.771L1029.23 136.488C1028.64 135.894 1027.67 135.894 1027.08 136.488L1021.04 142.531C1019.9 141.97 1018.71 141.481 1017.5 141.068V132.519C1017.5 131.679 1016.82 131 1015.98 131H1000.02C999.18 131 998.501 131.679 998.501 132.519V141.068C997.286 141.481 996.104 141.97 994.965 142.531L988.922 136.488C988.328 135.894 987.365 135.894 986.771 136.488L975.488 147.771C974.894 148.365 974.894 149.328 975.488 149.922L981.531 155.965C980.97 157.104 980.481 158.286 980.068 159.501H971.519C970.679 159.501 970 160.18 970 161.02V176.98C970 177.82 970.679 178.499 971.519 178.499H980.068C980.481 179.714 980.97 180.896 981.531 182.035L975.488 188.078C974.894 188.672 974.894 189.635 975.488 190.229L986.771 201.512C987.365 202.106 988.328 202.106 988.922 201.512L994.965 195.469C996.104 196.03 997.286 196.519 998.501 196.932V205.481C998.501 206.321 999.18 207 1000.02 207H1015.98C1016.82 207 1017.5 206.321 1017.5 205.481V196.932C1018.71 196.519 1019.9 196.03 1021.04 195.469L1027.08 201.512C1027.67 202.106 1028.64 202.106 1029.23 201.512L1040.51 190.229C1041.11 189.635 1041.11 188.672 1040.51 188.078L1034.47 182.035C1035.03 180.896 1035.52 179.714 1035.93 178.499H1044.48C1045.32 178.499 1046 177.82 1046 176.98ZM1008 187.219C997.936 187.219 989.781 179.059 989.781 169C989.781 158.941 997.941 150.781 1008 150.781C1018.06 150.781 1026.22 158.941 1026.22 169C1026.22 179.059 1018.06 187.219 1008 187.219Z" fill="#122FA4" stroke="black" stroke-miterlimit="10"/>
<path d="M307.086 268.995H80.144V440.033H307.086V268.995Z" fill="#0082FF" stroke="black" stroke-miterlimit="10"/>
<path d="M80 278.417H307.306" stroke="black" stroke-miterlimit="10"/>
<path d="M85.1824 275.455C86.105 275.455 86.853 274.707 86.853 273.784C86.853 272.861 86.105 272.113 85.1824 272.113C84.2597 272.113 83.5117 272.861 83.5117 273.784C83.5117 274.707 84.2597 275.455 85.1824 275.455Z" stroke="black" stroke-miterlimit="10"/>
<path d="M90.1975 275.455C91.1202 275.455 91.8681 274.707 91.8681 273.784C91.8681 272.861 91.1202 272.113 90.1975 272.113C89.2748 272.113 88.5269 272.861 88.5269 273.784C88.5269 274.707 89.2748 275.455 90.1975 275.455Z" stroke="black" stroke-miterlimit="10"/>
<path d="M95.2102 275.455C96.1329 275.455 96.8808 274.707 96.8808 273.784C96.8808 272.861 96.1329 272.113 95.2102 272.113C94.2875 272.113 93.5396 272.861 93.5396 273.784C93.5396 274.707 94.2875 275.455 95.2102 275.455Z" stroke="black" stroke-miterlimit="10"/>
<path d="M108.632 288.778H89.6411V293.634H108.632V288.778Z" fill="#99CCFF"/>
<path d="M108.632 297.612H89.6411V302.468H108.632V297.612Z" fill="#99CCFF"/>
<path d="M213.454 297.612H194.463V302.468H213.454V297.612Z" fill="#99CCFF"/>
<path d="M108.632 306.886H89.6411V311.743H108.632V306.886Z" fill="#99CCFF"/>
<path d="M128.065 316.163H109.075V321.02H128.065V316.163Z" fill="#99CCFF"/>
<path d="M128.065 324.993H109.075V329.85H128.065V324.993Z" fill="#99CCFF"/>
<path d="M128.065 334.271H109.075V339.128H128.065V334.271Z" fill="#99CCFF"/>
<path d="M220.03 334.271H206.389V339.128H220.03V334.271Z" fill="#99CCFF"/>
<path d="M128.065 343.102H109.075V347.959H128.065V343.102Z" fill="#99CCFF"/>
<path d="M235.733 343.102H221.697V347.959H235.733V343.102Z" fill="#99CCFF"/>
<path d="M149.265 352.379H130.274V357.236H149.265V352.379Z" fill="#99CCFF"/>
<path d="M149.265 361.21H130.274V366.067H149.265V361.21Z" fill="#99CCFF"/>
<path d="M149.265 370.487H130.274V375.344H149.265V370.487Z" fill="#99CCFF"/>
<path d="M149.265 379.318H130.274V384.175H149.265V379.318Z" fill="#99CCFF"/>
<path d="M149.265 387.709H130.274V392.566H149.265V387.709Z" fill="#99CCFF"/>
<path d="M269.543 387.709H250.553V392.566H269.543V387.709Z" fill="#99CCFF"/>
<path d="M149.265 396.987H130.274V401.843H149.265V396.987Z" fill="#99CCFF"/>
<path d="M149.265 405.029H130.274V409.885H149.265V405.029Z" fill="#99CCFF"/>
<path d="M144.727 288.778H110.84V293.634H144.727V288.778Z" fill="#0068CC"/>
<path d="M161.138 288.778H146.837V293.634H161.138V288.778Z" fill="#004E99"/>
<path d="M150.917 297.612H110.84V302.468H150.917V297.612Z" fill="#0068CC"/>
<path d="M192.876 297.612H152.8V302.468H192.876V297.612Z" fill="#004E99"/>
<path d="M133.487 306.886H110.84V311.743H133.487V306.886Z" fill="#0068CC"/>
<path d="M157.777 306.886H135.131V311.743H157.777V306.886Z" fill="#004E99"/>
<path d="M160.721 316.163H130.274V321.02H160.721V316.163Z" fill="#0068CC"/>
<path d="M192.964 316.163H162.517V321.02H192.964V316.163Z" fill="#004E99"/>
<path d="M151.512 324.993H130.274V329.85H151.512V324.993Z" fill="#0068CC"/>
<path d="M166.839 334.271H130.274V339.128H166.839V334.271Z" fill="#0068CC"/>
<path d="M205.044 334.271H168.479V339.128H205.044V334.271Z" fill="#004E99"/>
<path d="M174.571 343.102H130.274V347.959H174.571V343.102Z" fill="#0068CC"/>
<path d="M220.284 343.102H175.988V347.959H220.284V343.102Z" fill="#004E99"/>
<path d="M180.855 352.379H151.473V357.236H180.855V352.379Z" fill="#0068CC"/>
<path d="M204.245 352.379H182.61V357.236H204.245V352.379Z" fill="#004E99"/>
<path d="M175.813 361.21H151.473V366.067H175.813V361.21Z" fill="#0068CC"/>
<path d="M201.873 361.21H177.533V366.067H201.873V361.21Z" fill="#004E99"/>
<path d="M170.464 370.487H151.473V375.344H170.464V370.487Z" fill="#0068CC"/>
<path d="M191.001 370.487H172.01V375.344H191.001V370.487Z" fill="#004E99"/>
<path d="M188.712 379.318H151.473V384.175H188.712V379.318Z" fill="#0068CC"/>
<path d="M220.3 379.318H190.781V384.175H220.3V379.318Z" fill="#004E99"/>
<path d="M196.728 387.709H151.473V392.566H196.728V387.709Z" fill="#0068CC"/>
<path d="M249.12 387.709H198.509V392.566H249.12V387.709Z" fill="#004E99"/>
<path d="M182.268 396.987H151.473V401.843H182.268V396.987Z" fill="#0068CC"/>
<path d="M1530.59 253.802L1517.24 240.453L1525.68 232.015L1539.03 245.361L1547.47 253.802L1539.03 262.244L1519.98 277.362L1515.47 272.858L1530.59 253.802Z" fill="#171F42"/>
<path d="M1491.88 253.802L1505.23 240.453L1496.79 232.015L1483.44 245.361L1475 253.802L1483.44 262.244L1502.5 277.362L1507 272.858L1491.88 253.802Z" fill="#171F42"/>
<path d="M1650.76 263.403L1669.05 252.843L1705.59 316.131L1687.3 326.691L1650.76 263.403Z" fill="#171F42"/>
<path d="M1534.65 174.684H1558.78V191.581H1534.65V174.684Z" fill="#171F42"/>
<path d="M1506.41 206.552H1516.07V223.45H1506.41V206.552Z" fill="#171F42"/>
<path d="M1603.08 206.543L1643.64 183.126L1680.18 246.414L1639.62 269.831L1603.08 206.543Z" fill="#0082FF" stroke="black" stroke-miterlimit="10"/>
<path d="M1665.17 220.414L1661.88 222.312C1658.95 224.003 1657.95 227.753 1659.64 230.678L1671.59 251.379L1680.18 246.418L1665.17 220.411L1665.17 220.414Z" fill="#0082FF" stroke="black" stroke-miterlimit="10"/>
<path d="M1659.9 258.125L1623.36 194.837" stroke="black" stroke-miterlimit="10"/>
<path d="M1558.78 206.552V159.718H1603.18V206.552H1558.78Z" fill="#0082FF" stroke="black" stroke-miterlimit="10"/>
<path d="M1564.55 198.662V206.551H1603.18V192.505H1570.71C1567.31 192.505 1564.55 195.262 1564.55 198.662Z" fill="#0082FF" stroke="black" stroke-miterlimit="10"/>
<path d="M1603.18 183.134H1558.78" stroke="black" stroke-miterlimit="10"/>
<path d="M1487.82 183.137C1487.82 196.061 1498.31 206.552 1511.23 206.552H1534.65V159.718H1511.23C1498.31 159.718 1487.82 170.209 1487.82 183.133V183.137Z" fill="#0082FF" stroke="black" stroke-miterlimit="10"/>
<path d="M1721.66 296.164L1721.66 296.167C1736.88 311.393 1736.88 336.079 1721.66 351.305L1668.49 404.477C1653.26 419.703 1628.57 419.703 1613.35 404.477L1613.35 404.475C1598.12 389.249 1598.12 364.563 1613.35 349.337L1666.52 296.164C1681.74 280.939 1706.43 280.939 1721.66 296.164Z" fill="#0082FF" stroke="black" stroke-miterlimit="10"/>
<path d="M1640.91 337.917C1619.39 337.917 1601.93 355.388 1601.93 376.905V415.893H1679.91V376.905C1679.91 355.385 1662.43 337.917 1640.92 337.917H1640.91Z" fill="#122FA4" stroke="black" stroke-miterlimit="10"/>
<path d="M1640.91 385.267C1636.3 385.267 1632.55 381.525 1632.55 376.909C1632.55 372.293 1636.3 368.55 1640.91 368.55C1645.53 368.55 1649.27 372.293 1649.27 376.909C1649.27 381.525 1645.53 385.267 1640.91 385.267Z" fill="#C2CCD6" stroke="black" stroke-miterlimit="10"/>
<path d="M1696.29 341.266C1685.39 341.266 1676.56 332.43 1676.56 321.529C1676.56 310.628 1685.39 301.791 1696.29 301.791C1707.2 301.791 1716.03 310.628 1716.03 321.529C1716.03 332.43 1707.2 341.266 1696.29 341.266Z" fill="#122FA4" stroke="black" stroke-miterlimit="10"/>
<path d="M1681.63 415.896H1600.2C1588.85 415.896 1579.64 425.106 1579.64 436.449V443.746H1702.18V436.449C1702.18 425.106 1692.97 415.896 1681.63 415.896Z" fill="#171F42" stroke="#171F42" stroke-miterlimit="10"/>
<path d="M1615.24 214.022C1599.49 214.022 1586.73 201.258 1586.73 185.511C1586.73 169.765 1599.49 157 1615.24 157C1630.98 157 1643.75 169.765 1643.75 185.511C1643.75 201.258 1630.98 214.022 1615.24 214.022Z" fill="#122FA4" stroke="black" stroke-miterlimit="10"/>
<path d="M1615.23 195.501C1609.72 195.501 1605.24 191.028 1605.24 185.511C1605.24 179.994 1609.72 175.521 1615.23 175.521C1620.75 175.521 1625.22 179.994 1625.22 185.511C1625.22 191.028 1620.75 195.501 1615.23 195.501Z" fill="#171F42"/>
<path d="M1511.23 189.584C1507.67 189.584 1504.78 186.696 1504.78 183.134C1504.78 179.573 1507.67 176.685 1511.23 176.685C1514.8 176.685 1517.68 179.573 1517.68 183.134C1517.68 186.696 1514.8 189.584 1511.23 189.584Z" fill="#122FA4" stroke="black" stroke-miterlimit="10"/>
<path d="M1491 223.451H1531.47V232.015H1491V223.451Z" fill="#0082FF" stroke="black" stroke-miterlimit="10"/>
<path d="M1496.75 232.015C1496.75 240.016 1503.23 246.501 1511.24 246.501C1519.24 246.501 1525.72 240.016 1525.72 232.015H1496.75Z" fill="#0082FF" stroke="black" stroke-miterlimit="10"/>
<path d="M1663.94 229.661C1662.61 229.661 1661.53 228.58 1661.53 227.246C1661.53 225.913 1662.61 224.832 1663.94 224.832C1665.28 224.832 1666.36 225.913 1666.36 227.246C1666.36 228.58 1665.28 229.661 1663.94 229.661Z" fill="#C2CCD6" stroke="black" stroke-miterlimit="10"/>
<path d="M1662.57 225.261L1665.32 229.231" stroke="black" stroke-miterlimit="10"/>
<path d="M1570.6 201.295C1569.26 201.295 1568.18 200.214 1568.18 198.88C1568.18 197.547 1569.26 196.466 1570.6 196.466C1571.93 196.466 1573.01 197.547 1573.01 198.88C1573.01 200.214 1571.93 201.295 1570.6 201.295Z" fill="#C2CCD6" stroke="black" stroke-miterlimit="10"/>
<path d="M1568.22 198.446L1572.97 199.309" stroke="black" stroke-miterlimit="10"/>
<path d="M1635 382.816L1646.82 370.997" stroke="black" stroke-miterlimit="10"/>
<path d="M972.469 229.225H708.006L695.572 73.0353C695.274 69.2545 698.255 66.0259 702.049 66.0259H978.433C982.226 66.0259 985.208 69.261 984.909 73.0353L972.475 229.225H972.469Z" fill="#FF637B" stroke="black" stroke-width="0.987037" stroke-miterlimit="10"/>
<path d="M840.238 72.8332C841.325 72.8332 842.206 71.9519 842.206 70.8648C842.206 69.7778 841.325 68.8965 840.238 68.8965C839.151 68.8965 838.27 69.7778 838.27 70.8648C838.27 71.9519 839.151 72.8332 840.238 72.8332Z" fill="#FF637B" stroke="black" stroke-width="0.987037" stroke-miterlimit="10"/>
<path d="M1031.94 316.657C1031.94 318.586 1031.06 320.438 1029.6 321.679C1028.5 322.601 1027.08 323.179 1025.43 323.179H655.503C653.866 323.179 652.437 322.601 651.339 321.679C649.877 320.444 649 318.593 649 316.663V316.598C649.013 315.377 649.37 314.13 650.163 312.987L708.077 229.217H972.858L1030.78 312.987C1031.58 314.143 1031.94 315.416 1031.94 316.657Z" fill="#FF637B" stroke="black" stroke-width="0.987037" stroke-miterlimit="10"/>
<path d="M649 316.663V316.599" stroke="black" stroke-width="0.987037" stroke-miterlimit="10"/>
<path d="M649 328.045V327.058" stroke="black" stroke-width="0.987037" stroke-miterlimit="10"/>
<path d="M1031.94 316.656V327.05C1031.94 330.428 1029.26 333.573 1025.43 333.573H655.503C651.676 333.573 649 330.435 649 327.057V316.663C649 318.592 649.877 320.444 651.339 321.678C652.437 322.6 653.866 323.179 655.503 323.179H1025.43C1027.08 323.179 1028.5 322.6 1029.6 321.678C1031.06 320.437 1031.94 318.586 1031.94 316.656Z" fill="#FF637B" stroke="black" stroke-width="0.987037" stroke-miterlimit="10"/>
<path d="M1031.94 316.658V316.313" stroke="black" stroke-width="0.987037" stroke-miterlimit="10"/>
<path d="M1031.94 327.616V327.051" stroke="black" stroke-width="0.987037" stroke-miterlimit="10"/>
<path d="M966.821 223.379H713.648L702.065 77.2128C702.007 76.4592 702.605 75.8096 703.358 75.8096H977.104C977.864 75.8096 978.462 76.4527 978.397 77.2128L966.814 223.379H966.821Z" fill="#FF637B" stroke="black" stroke-width="0.987037" stroke-miterlimit="10"/>
<path d="M996.589 284.995H684.353L715.82 235.435H965.121L996.589 284.995Z" fill="#FF637B" stroke="black" stroke-width="0.987037" stroke-miterlimit="10"/>
<path d="M692.327 272.464H988.609" stroke="black" stroke-width="0.987037" stroke-miterlimit="10"/>
<path d="M699.623 260.769H981.203" stroke="black" stroke-width="0.987037" stroke-miterlimit="10"/>
<path d="M706.334 250.376H974.662" stroke="black" stroke-width="0.987037" stroke-miterlimit="10"/>
<path d="M711.693 241.93H969.244" stroke="black" stroke-width="0.987037" stroke-miterlimit="10"/>
<path d="M841.448 235.435V272.463" stroke="black" stroke-width="0.987037" stroke-miterlimit="10"/>
<path d="M823.101 235.435L820.281 272.463" stroke="black" stroke-width="0.987037" stroke-miterlimit="10"/>
<path d="M804.75 235.435L799.118 272.463" stroke="black" stroke-width="0.987037" stroke-miterlimit="10"/>
<path d="M786.406 235.435L775.096 284.995" stroke="black" stroke-width="0.987037" stroke-miterlimit="10"/>
<path d="M768.056 235.435L752.335 284.995" stroke="black" stroke-width="0.987037" stroke-miterlimit="10"/>
<path d="M749.702 235.435L729.563 284.995" stroke="black" stroke-width="0.987037" stroke-miterlimit="10"/>
<path d="M731.356 235.435L706.794 284.995" stroke="black" stroke-width="0.987037" stroke-miterlimit="10"/>
<path d="M951.548 235.435L976.104 284.995" stroke="black" stroke-width="0.987037" stroke-miterlimit="10"/>
<path d="M933.196 235.435L953.341 284.995" stroke="black" stroke-width="0.987037" stroke-miterlimit="10"/>
<path d="M914.849 235.435L930.57 284.995" stroke="black" stroke-width="0.987037" stroke-miterlimit="10"/>
<path d="M896.497 235.435L907.801 284.995" stroke="black" stroke-width="0.987037" stroke-miterlimit="10"/>
<path d="M878.152 235.435L883.778 272.463" stroke="black" stroke-width="0.987037" stroke-miterlimit="10"/>
<path d="M859.801 235.435L862.614 272.463" stroke="black" stroke-width="0.987037" stroke-miterlimit="10"/>
<path d="M914.853 316.665H768.057L775.099 290.192H907.804L914.853 316.665Z" fill="#FF637B" stroke="black" stroke-width="0.987037" stroke-miterlimit="10"/>
<path d="M770.104 308.984H912.508" stroke="black" stroke-width="0.987037" stroke-miterlimit="10"/>
<path d="M841.451 308.984V316.663" stroke="black" stroke-width="0.987037" stroke-miterlimit="10"/>
<path d="M653 139.874L663.608 152.01L692.421 133.164L703.253 145.51L720.794 105L672.062 108.683L682.454 121.028L653 139.874Z" fill="#E5F3FF" stroke="black" stroke-width="0.493519" stroke-linejoin="round"/>
<path d="M653 139.874L656.683 158.936L667.075 170.633L663.608 152.011L653 139.874Z" fill="#004E99" stroke="black" stroke-width="0.493519" stroke-linejoin="round"/>
<path d="M692.419 133.164L696.535 152.009L667.073 170.631L663.606 152.009L692.419 133.164Z" fill="#0082FF" stroke="black" stroke-width="0.493519" stroke-linejoin="round"/>
<path d="M692.42 133.164L703.252 145.509L707.151 163.266L696.535 152.009L692.42 133.164Z" fill="#004E99" stroke="black" stroke-width="0.493519" stroke-linejoin="round"/>
<path d="M720.793 105L725.564 124.494L707.151 163.267L703.252 145.51L720.793 105Z" fill="#0082FF" stroke="black" stroke-width="0.493519" stroke-linejoin="round"/>
<path d="M914.412 115.027L960.016 249.987C961.964 255.756 968.097 258.971 973.95 257.302L979.251 255.788C973.71 257.256 967.876 254.209 965.986 248.662L918.732 109.713C917.939 107.381 918.693 105.023 920.297 103.535L916.88 106.361C914.34 108.459 913.366 111.902 914.418 115.021L914.412 115.027Z" fill="#0082FF" stroke="black" stroke-width="0.987037" stroke-miterlimit="10"/>
<path d="M918.732 109.726L965.985 248.674C967.876 254.222 973.709 257.269 979.251 255.801L979.556 255.71C979.816 255.638 980.082 255.547 980.342 255.45L1015.56 242.152C1020.7 240.21 1023.22 234.422 1021.14 229.342L973.281 112.487C971.618 108.42 967.817 105.627 963.439 105.263L924.754 102.021C923.052 101.878 921.518 102.463 920.388 103.47L920.297 103.548C918.693 105.036 917.939 107.394 918.732 109.726Z" fill="#0082FF" stroke="black" stroke-width="0.987037" stroke-miterlimit="10"/>
<path d="M976.414 120.139H922.274" stroke="black" stroke-width="0.987037" stroke-miterlimit="10"/>
<path d="M996.435 239.121C999.696 238.046 1001.32 234.072 1000.05 230.246C998.793 226.42 995.127 224.189 991.866 225.265C988.605 226.34 986.985 230.313 988.247 234.14C989.508 237.966 993.175 240.196 996.435 239.121Z" fill="#0082FF" stroke="black" stroke-width="0.987037" stroke-miterlimit="10"/>
<path d="M723.636 300.714C726.443 300.714 728.718 298.439 728.718 295.632C728.718 292.825 726.443 290.55 723.636 290.55C720.829 290.55 718.554 292.825 718.554 295.632C718.554 298.439 720.829 300.714 723.636 300.714Z" fill="#171F42"/>
<path d="M738.508 396.731C738.508 373.442 719.632 354.566 696.344 354.566C673.056 354.566 654.18 373.442 654.18 396.731H738.508Z" fill="#171F42"/>
<path d="M841.952 396.73C841.952 360.004 812.177 330.229 775.451 330.229C738.726 330.229 708.951 360.004 708.951 396.73H841.952Z" fill="#171F42"/>
<path d="M877.418 396.73C877.418 377.319 861.685 361.587 842.275 361.587C822.864 361.587 807.132 377.319 807.132 396.73H877.418Z" fill="#171F42"/>
<path d="M729.149 307.314C732.556 307.314 735.317 304.553 735.317 301.147C735.317 297.74 732.556 294.979 729.149 294.979C725.743 294.979 722.981 297.74 722.981 301.147C722.981 304.553 725.743 307.314 729.149 307.314Z" fill="#171F42"/>
<path d="M737.256 317.791C741.972 317.791 745.795 313.968 745.795 309.253C745.795 304.537 741.972 300.714 737.256 300.714C732.541 300.714 728.718 304.537 728.718 309.253C728.718 313.968 732.541 317.791 737.256 317.791Z" fill="#171F42"/>
<path d="M746.642 331.581C753.788 331.581 759.582 325.787 759.582 318.641C759.582 311.494 753.788 305.7 746.642 305.7C739.495 305.7 733.701 311.494 733.701 318.641C733.701 325.787 739.495 331.581 746.642 331.581Z" fill="#171F42"/>
<path d="M758.918 350.817C769.909 350.817 778.82 341.907 778.82 330.915C778.82 319.924 769.909 311.013 758.918 311.013C747.926 311.013 739.016 319.924 739.016 330.915C739.016 341.907 747.926 350.817 758.918 350.817Z" fill="#171F42"/>
<path d="M775.45 376.255C791.36 376.255 804.257 363.357 804.257 347.447C804.257 331.536 791.36 318.639 775.45 318.639C759.539 318.639 746.642 331.536 746.642 347.447C746.642 363.357 759.539 376.255 775.45 376.255Z" fill="#171F42"/>
<path d="M819.938 385.155C835.848 385.155 848.746 372.258 848.746 356.347C848.746 340.437 835.848 327.54 819.938 327.54C804.028 327.54 791.13 340.437 791.13 356.347C791.13 372.258 804.028 385.155 819.938 385.155Z" fill="#171F42"/>
<path d="M726.265 230.93L742.305 246.97C744.811 249.476 744.082 253.705 740.885 255.228L717.904 266.17L689.831 235.304L707.103 227.451C713.589 224.503 721.226 225.885 726.265 230.924V230.93Z" fill="#171F42"/>
<path d="M658.832 298.37L674.872 314.41C677.378 316.916 681.607 316.187 683.13 312.99L694.072 290.009L663.207 261.936L655.354 279.208C652.405 285.694 653.787 293.331 658.826 298.37H658.832Z" fill="#171F42"/>
<path d="M702.423 302.502L730.502 274.423C731.506 273.418 731.782 271.901 731.204 270.604C729.038 265.749 726.516 261.012 723.632 256.438L684.433 295.637C689.007 298.521 693.738 301.043 698.599 303.209C699.895 303.787 701.418 303.511 702.417 302.507L702.423 302.502Z" fill="#122FA4" stroke="black" stroke-width="0.987037" stroke-miterlimit="10"/>
<path d="M636.581 204.012C633.989 203.818 631.818 205.989 632.012 208.581C632.817 219.34 635.166 230.001 639.039 240.214L668.208 211.044C657.995 207.166 647.334 204.822 636.576 204.018L636.581 204.012Z" fill="#122FA4" stroke="black" stroke-width="0.987037" stroke-miterlimit="10"/>
<path d="M668.212 211.044L639.042 240.214C644.535 254.683 653.1 268.25 664.75 279.905C670.837 285.992 677.447 291.23 684.436 295.637L723.635 256.438C719.233 249.45 713.989 242.839 707.902 236.752C696.247 225.097 682.681 216.532 668.212 211.044Z" fill="#0082FF" stroke="black" stroke-width="0.987037" stroke-linejoin="bevel"/>
<path d="M699.791 266.213L694.216 271.788C691.685 274.319 691.685 278.423 694.216 280.954L710.137 296.875C712.668 299.406 716.771 299.406 719.302 296.875L724.878 291.299C727.409 288.768 727.409 284.665 724.878 282.134L708.957 266.213C706.426 263.682 702.322 263.682 699.791 266.213Z" fill="#122FA4" stroke="black" stroke-width="0.987037" stroke-miterlimit="10"/>
<path d="M704.27 271.349L699.348 276.272L714.822 291.746L719.745 286.824L704.27 271.349Z" fill="black"/>
<path d="M674.493 258.431C681.085 258.431 686.429 253.087 686.429 246.495C686.429 239.903 681.085 234.56 674.493 234.56C667.901 234.56 662.558 239.903 662.558 246.495C662.558 253.087 667.901 258.431 674.493 258.431Z" fill="#122FA4" stroke="black" stroke-width="0.987037" stroke-miterlimit="10"/>
<path d="M247.489 198.838C265.126 198.838 279.422 184.541 279.422 166.905C279.422 149.268 265.126 134.972 247.489 134.972C247.145 134.972 246.813 135.01 246.474 135.022C247.001 132.177 247.283 129.244 247.283 126.241C247.283 99.5608 225.654 77.938 198.979 77.938C177.971 77.938 160.108 91.3504 153.459 110.071C147.649 103.534 139.2 99.3915 129.761 99.3915C112.237 99.3915 98.029 113.6 98.029 131.124C98.029 133.574 98.3361 135.956 98.8626 138.25C94.8577 136.426 90.4203 135.379 85.7322 135.379C68.2084 135.379 54 149.588 54 167.112C54 184.636 68.2084 198.844 85.7322 198.844H247.489V198.838Z" fill="#0082FF" stroke="black" stroke-miterlimit="10"/>
<path d="M125.174 85.5712C112.996 85.5712 102.366 78.8901 96.7631 69C91.1537 78.8775 80.5178 85.5712 68.3526 85.5712C67.7071 85.5712 66.9863 85.5587 66.347 85.5211L66.2593 114.452C66.2593 122.856 69.5998 130.923 75.5414 136.871L96.7756 158.105L118.01 136.871C123.958 130.923 127.292 122.863 127.292 114.452L127.204 85.5211C126.559 85.5587 125.825 85.5712 125.167 85.5712H125.174Z" fill="white" stroke="black" stroke-miterlimit="10"/>
<path d="M81.6455 113.374L91.8552 123.583L111.911 103.527" fill="white"/>
<path d="M81.6455 113.374L91.8552 123.583L111.911 103.527" stroke="black" stroke-miterlimit="10"/>
<path d="M199.205 168.459C222.283 168.459 240.99 149.751 240.99 126.674C240.99 103.597 222.283 84.8887 199.205 84.8887C176.128 84.8887 157.42 103.597 157.42 126.674C157.42 149.751 176.128 168.459 199.205 168.459Z" fill="#171F42"/>
<path d="M187.133 125.095L199.204 113.018L211.282 125.095" stroke="white" stroke-miterlimit="10" stroke-linecap="round"/>
<path d="M199.203 113.018V140.331" stroke="white" stroke-miterlimit="10" stroke-linecap="round"/>
<path d="M1378.28 207.621H1310.13C1304.63 207.621 1300.17 212.098 1300.17 217.622V281.744C1300.17 287.268 1304.63 291.745 1310.13 291.745H1378.28C1383.79 291.745 1388.25 287.268 1388.25 281.744V217.622C1388.25 212.098 1383.79 207.621 1378.28 207.621Z" fill="#122FA4" stroke="black" stroke-width="1.00766" stroke-miterlimit="10"/>
<path d="M1344.21 218.505C1326.99 218.505 1313.03 232.463 1313.03 249.681C1313.03 266.899 1326.99 280.857 1344.21 280.857C1361.43 280.857 1375.38 266.899 1375.38 249.681C1375.38 232.463 1361.43 218.505 1344.21 218.505ZM1344.21 268.321C1333.92 268.321 1325.57 259.977 1325.57 249.684C1325.57 239.392 1333.92 231.047 1344.21 231.047C1354.5 231.047 1362.85 239.392 1362.85 249.684C1362.85 259.977 1354.5 268.321 1344.21 268.321Z" fill="#0082FF" stroke="black" stroke-width="1.00766" stroke-miterlimit="10"/>
<path d="M1344.7 268.445C1339.62 268.445 1335.02 266.381 1331.69 263.042L1322.93 271.818C1328.5 277.404 1336.2 280.856 1344.7 280.856C1353.21 280.856 1360.9 277.401 1366.48 271.818L1357.72 263.042C1354.39 266.381 1349.78 268.445 1344.7 268.445Z" fill="#171F42"/>
<path d="M1344.71 218.505V230.863C1354.83 230.863 1363.05 239.088 1363.05 249.232C1363.05 254.306 1360.99 258.898 1357.67 262.22L1366.4 270.96C1371.95 265.397 1375.39 257.717 1375.39 249.232C1375.39 232.262 1361.65 218.505 1344.71 218.505Z" fill="#C2CCD6" stroke="black" stroke-width="1.00766" stroke-miterlimit="10"/>
<path d="M1292 347.167H1263.79L1249.69 371.417L1263.79 395.663H1292L1306.1 371.417L1292 347.167Z" fill="#171F42" stroke="white" stroke-width="0.503832" stroke-miterlimit="10"/>
<path d="M1287.05 356.074H1268.74L1259.59 371.909L1268.74 387.744H1287.05L1296.21 371.909L1287.05 356.074Z" fill="#171F42" stroke="white" stroke-width="0.503832" stroke-miterlimit="10"/>
<path d="M1282.35 363.001H1272.45L1267.51 371.414L1272.45 379.826H1282.35L1287.3 371.414L1282.35 363.001Z" fill="#171F42" stroke="white" stroke-width="0.503832" stroke-miterlimit="10"/>
<path d="M1204.39 371.619C1204.39 371.619 1175.31 383.496 1168.31 355.199C1161.3 326.903 1203.69 280.091 1260.09 286.381C1316.49 292.667 1330.85 335.988 1330.85 351.008C1330.85 366.029 1322.88 375.906 1315.08 377.558C1303.57 379.998 1298.27 371.967 1283.91 371.967C1269.54 371.967 1240.82 388.735 1224.35 388.735C1207.89 388.735 1204.39 371.616 1204.39 371.616V371.619Z" fill="#0082FF" stroke="black" stroke-width="1.00766" stroke-miterlimit="10"/>
<path d="M1309.02 171H1195.31C1189.82 171 1185.36 175.443 1185.36 180.923V241.243C1185.36 246.723 1189.82 251.166 1195.31 251.166H1309.02C1314.52 251.166 1318.97 246.723 1318.97 241.243V180.923C1318.97 175.443 1314.52 171 1309.02 171Z" fill="white" stroke="black" stroke-width="1.00766" stroke-miterlimit="10"/>
<path d="M1198.51 242.768H1312.66" stroke="black" stroke-width="0.503832" stroke-miterlimit="10"/>
<path d="M1198.51 242.769V241.269" stroke="black" stroke-width="0.503832" stroke-miterlimit="10"/>
<path d="M1312.67 242.769V241.269" stroke="black" stroke-width="0.503832" stroke-miterlimit="10"/>
<path d="M1198.51 242.77V182.85" stroke="black" stroke-width="0.503832" stroke-miterlimit="10"/>
<path d="M1198.51 242.769H1201.37" stroke="black" stroke-width="0.503832" stroke-miterlimit="10"/>
<path d="M1198.51 230.784H1201.37" stroke="black" stroke-width="0.503832" stroke-miterlimit="10"/>
<path d="M1198.51 218.8H1201.37" stroke="black" stroke-width="0.503832" stroke-miterlimit="10"/>
<path d="M1198.51 206.819H1201.37" stroke="black" stroke-width="0.503832" stroke-miterlimit="10"/>
<path d="M1198.51 194.835H1201.37" stroke="black" stroke-width="0.503832" stroke-miterlimit="10"/>
<path d="M1198.51 182.85H1201.37" stroke="black" stroke-width="0.503832" stroke-miterlimit="10"/>
<path d="M1300.17 182.877H1284.33V243.249H1300.17V182.877Z" fill="#122FA4" stroke="black" stroke-width="1.00766" stroke-miterlimit="10"/>
<path d="M1282.35 224.445H1265.53V243.249H1282.35V224.445Z" fill="#CCE6FF" stroke="#231F20" stroke-width="1.00766" stroke-miterlimit="10"/>
<path d="M1263.55 206.63H1247.71V243.249H1263.55V206.63Z" fill="#99CCFF" stroke="#231F20" stroke-width="1.00766" stroke-miterlimit="10"/>
<path d="M1245.73 182.877H1228.91V243.249H1245.73V182.877Z" fill="#122FA4" stroke="black" stroke-width="1.00766" stroke-miterlimit="10"/>
<path d="M1226.93 194.753H1211.09V243.248H1226.93V194.753Z" fill="#0082FF" stroke="black" stroke-width="1.00766" stroke-miterlimit="10"/>
<path d="M1261.57 343.209H1287.53L1316.05 315.106L1339.75 291.744" stroke="black" stroke-width="1.00766" stroke-miterlimit="10"/>
<path d="M1313.03 347.167V348.968L1327.88 363.992" stroke="black" stroke-width="1.00766" stroke-miterlimit="10"/>
<path d="M1279.38 362.012H1258.4L1231.88 387.744" stroke="black" stroke-width="1.00766" stroke-miterlimit="10"/>
<path d="M1226.93 361.023H1215.45L1204.17 371.91" stroke="black" stroke-width="1.00766" stroke-miterlimit="10"/>
<path d="M1199.22 351.126V353.355L1191.59 361.023H1170.52" stroke="black" stroke-width="1.00766" stroke-miterlimit="10"/>
<path d="M1214.06 323.414H1196.2L1185.36 312.527" stroke="black" stroke-width="1.00766" stroke-miterlimit="10"/>
<path d="M1277.4 319.455H1240.09L1213.89 293.374L1173.48 253.146" stroke="black" stroke-width="1.00766" stroke-miterlimit="10"/>
<path d="M1254.64 303.62H1269.22L1281.54 291.29L1290.27 282.562V251.166" stroke="black" stroke-width="1.00766" stroke-miterlimit="10"/>
<path d="M1226.92 208.608H1133.9C1128.43 208.608 1124 213.066 1124 218.566V268.92C1124 274.419 1128.43 278.877 1133.9 278.877H1226.92C1232.39 278.877 1236.83 274.419 1236.83 268.92V218.566C1236.83 213.066 1232.39 208.608 1226.92 208.608Z" fill="#0082FF" stroke="black" stroke-width="1.00766" stroke-miterlimit="10"/>
<path d="M1228.91 220.485C1224.13 220.485 1214.59 242.362 1209.81 242.362C1205.04 242.362 1195.41 230.22 1190.61 230.22C1185.81 230.22 1176.21 251.112 1171.41 251.112C1166.61 251.112 1157.01 246.518 1152.21 246.518C1147.41 246.518 1137.73 268.981 1132.91 268.981" stroke="black" stroke-width="1.00766" stroke-miterlimit="10"/>
<path d="M1132.41 271.95C1134.33 271.95 1135.88 270.4 1135.88 268.486C1135.88 266.573 1134.33 265.022 1132.41 265.022C1130.5 265.022 1128.95 266.573 1128.95 268.486C1128.95 270.4 1130.5 271.95 1132.41 271.95Z" fill="#C2CCD6" stroke="black" stroke-width="1.00766" stroke-miterlimit="10"/>
<path d="M1190.8 233.351C1192.72 233.351 1194.27 231.8 1194.27 229.887C1194.27 227.974 1192.72 226.423 1190.8 226.423C1188.89 226.423 1187.34 227.974 1187.34 229.887C1187.34 231.8 1188.89 233.351 1190.8 233.351Z" fill="#C2CCD6" stroke="black" stroke-width="1.00766" stroke-miterlimit="10"/>
<path d="M1209.61 245.229C1211.52 245.229 1213.07 243.678 1213.07 241.765C1213.07 239.852 1211.52 238.301 1209.61 238.301C1207.7 238.301 1206.14 239.852 1206.14 241.765C1206.14 243.678 1207.7 245.229 1209.61 245.229Z" fill="#C2CCD6" stroke="black" stroke-width="1.00766" stroke-miterlimit="10"/>
<path d="M1171.01 254.134C1172.92 254.134 1174.47 252.584 1174.47 250.67C1174.47 248.757 1172.92 247.207 1171.01 247.207C1169.1 247.207 1167.55 248.757 1167.55 250.67C1167.55 252.584 1169.1 254.134 1171.01 254.134Z" fill="#C2CCD6" stroke="black" stroke-width="1.00766" stroke-miterlimit="10"/>
<path d="M1151.22 250.177C1153.13 250.177 1154.68 248.626 1154.68 246.713C1154.68 244.8 1153.13 243.249 1151.22 243.249C1149.3 243.249 1147.75 244.8 1147.75 246.713C1147.75 248.626 1149.3 250.177 1151.22 250.177Z" fill="#C2CCD6" stroke="black" stroke-width="1.00766" stroke-miterlimit="10"/>
<path d="M1228.41 223.454C1230.33 223.454 1231.88 221.903 1231.88 219.99C1231.88 218.077 1230.33 216.526 1228.41 216.526C1226.5 216.526 1224.95 218.077 1224.95 219.99C1224.95 221.903 1226.5 223.454 1228.41 223.454Z" fill="#C2CCD6" stroke="black" stroke-width="1.00766" stroke-miterlimit="10"/>
<path d="M1204.17 348.156V342.218L1199.22 339.249L1194.27 342.218V348.156L1199.22 351.125L1204.17 348.156Z" fill="#171F42"/>
<path d="M1258.6 338.26H1252.66L1249.69 343.703L1252.66 349.146H1258.6L1261.57 343.703L1258.6 338.26Z" fill="#171F42"/>
<path d="M1317.98 344.199V338.261L1313.03 335.292L1308.09 338.261V344.199L1313.03 347.168L1317.98 344.199Z" fill="#171F42"/>
<path d="M1251.67 298.671H1245.74L1242.77 303.62L1245.74 308.568H1251.67L1254.64 303.62L1251.67 298.671Z" fill="#171F42"/>
<path d="M1288.29 356.074H1282.35L1279.38 361.517L1282.35 366.96H1288.29L1291.26 361.517L1288.29 356.074Z" fill="#C2CCD6" stroke="black" stroke-width="1.00766" stroke-miterlimit="10"/>
<path d="M1234.85 355.084H1228.91L1225.94 360.527L1228.91 365.971H1234.85L1237.82 360.527L1234.85 355.084Z" fill="#C2CCD6" stroke="black" stroke-width="1.00766" stroke-miterlimit="10"/>
<path d="M1222.97 318.465H1217.03L1214.06 323.415L1217.03 328.362H1222.97L1225.94 323.415L1222.97 318.465Z" fill="#C2CCD6" stroke="black" stroke-width="1.00766" stroke-miterlimit="10"/>
<path d="M1286.31 314.507H1280.37L1277.4 319.456L1280.37 324.404H1286.31L1289.28 319.456L1286.31 314.507Z" fill="#C2CCD6" stroke="black" stroke-width="1.00766" stroke-miterlimit="10"/>
<path d="M1522.24 318.856L1526.56 311.118C1526.79 310.71 1526.64 310.198 1526.24 309.97L1522.09 307.657C1522.22 306.956 1522.3 306.251 1522.34 305.547L1526.9 304.252C1527.35 304.124 1527.61 303.657 1527.49 303.209L1525.07 294.685C1524.94 294.237 1524.47 293.976 1524.02 294.103L1519.46 295.398C1519.06 294.819 1518.62 294.262 1518.14 293.733L1520.45 289.587C1520.68 289.18 1520.53 288.667 1520.13 288.44L1512.39 284.122C1511.98 283.895 1511.47 284.04 1511.24 284.447L1508.93 288.593C1508.23 288.464 1507.52 288.382 1506.82 288.345L1505.52 283.78C1505.4 283.332 1504.93 283.071 1504.48 283.198L1495.96 285.617C1495.51 285.744 1495.25 286.211 1495.37 286.659L1496.67 291.224C1496.09 291.625 1495.53 292.066 1495 292.544L1490.86 290.231C1490.45 290.003 1489.94 290.149 1489.71 290.556L1485.39 298.295C1485.17 298.702 1485.31 299.215 1485.72 299.442L1489.86 301.755C1489.74 302.456 1489.65 303.161 1489.62 303.865L1485.05 305.161C1484.6 305.288 1484.34 305.755 1484.47 306.203L1486.89 314.727C1487.02 315.176 1487.48 315.436 1487.93 315.309L1492.5 314.014C1492.9 314.594 1493.34 315.151 1493.81 315.68L1491.5 319.825C1491.27 320.232 1491.42 320.745 1491.83 320.973L1499.57 325.29C1499.97 325.518 1500.49 325.372 1500.71 324.965L1503.03 320.819C1503.73 320.948 1504.43 321.031 1505.14 321.067L1506.43 325.632C1506.56 326.08 1507.03 326.341 1507.47 326.214L1516 323.796C1516.45 323.668 1516.71 323.201 1516.58 322.753L1515.29 318.188C1515.87 317.787 1516.42 317.346 1516.95 316.869L1521.1 319.182C1521.5 319.409 1522.02 319.264 1522.24 318.856ZM1501.05 313.54C1496.17 310.817 1494.42 304.654 1497.14 299.777C1499.86 294.9 1506.03 293.151 1510.91 295.872C1515.78 298.594 1517.53 304.758 1514.81 309.635C1512.09 314.513 1505.93 316.262 1501.05 313.54Z" fill="#171F42"/>
<path d="M1486.93 363.108L1492.59 352.959C1492.89 352.425 1492.69 351.748 1492.15 351.444L1486.6 348.351C1486.77 347.428 1486.87 346.5 1486.91 345.573L1492.97 343.916C1493.57 343.753 1493.91 343.141 1493.74 342.549L1490.42 331.291C1490.25 330.699 1489.62 330.35 1489.03 330.513L1482.97 332.169C1482.43 331.401 1481.83 330.662 1481.19 329.96L1484.23 324.523C1484.52 323.989 1484.32 323.312 1483.78 323.008L1473.43 317.234C1472.89 316.93 1472.21 317.116 1471.91 317.65L1468.87 323.087C1467.94 322.91 1467 322.793 1466.06 322.737L1464.29 316.708C1464.11 316.116 1463.49 315.768 1462.89 315.93L1451.57 319.024C1450.98 319.186 1450.64 319.799 1450.81 320.391L1452.58 326.42C1451.82 326.942 1451.08 327.517 1450.38 328.14L1444.84 325.047C1444.29 324.743 1443.61 324.929 1443.31 325.464L1437.65 335.613C1437.35 336.147 1437.55 336.824 1438.1 337.128L1443.64 340.221C1443.48 341.143 1443.38 342.072 1443.33 342.999L1437.27 344.656C1436.68 344.818 1436.33 345.431 1436.51 346.023L1439.82 357.281C1440 357.873 1440.62 358.222 1441.22 358.059L1447.28 356.402C1447.82 357.171 1448.41 357.909 1449.05 358.612L1446.02 364.048C1445.72 364.583 1445.92 365.26 1446.46 365.564L1456.81 371.338C1457.36 371.642 1458.04 371.456 1458.34 370.921L1461.37 365.485C1462.3 365.662 1463.24 365.778 1464.18 365.834L1465.96 371.863C1466.13 372.455 1466.76 372.804 1467.35 372.641L1478.67 369.548C1479.27 369.385 1479.61 368.773 1479.43 368.181L1477.66 362.152C1478.43 361.63 1479.16 361.055 1479.86 360.432L1485.41 363.525C1485.95 363.829 1486.63 363.642 1486.93 363.108ZM1458.66 355.872C1452.13 352.231 1449.74 344.091 1453.31 337.694C1456.88 331.298 1465.06 329.061 1471.59 332.7C1478.11 336.339 1480.5 344.481 1476.94 350.877C1473.37 357.274 1465.18 359.511 1458.66 355.872Z" fill="#171F42"/>
<path d="M1501.97 66.1201H1405.12C1388.49 66.1201 1375 79.6059 1375 96.2415C1375 112.877 1388.49 126.363 1405.12 126.363H1501.97C1518.61 126.363 1532.09 112.877 1532.09 96.2415C1532.09 79.6059 1518.61 66.1201 1501.97 66.1201Z" fill="#98CBFF" stroke="black" stroke-miterlimit="10"/>
<path d="M1405.55 116.98C1417 116.98 1426.27 107.704 1426.27 96.2604C1426.27 84.8171 1417 75.5405 1405.55 75.5405C1394.11 75.5405 1384.83 84.8171 1384.83 96.2604C1384.83 107.704 1394.11 116.98 1405.55 116.98Z" fill="#004E99" stroke="black" stroke-miterlimit="10"/>
<path d="M1405.58 98.8832C1409.46 98.8832 1412.61 95.7379 1412.61 91.8579C1412.61 87.9779 1409.46 84.8325 1405.58 84.8325C1401.7 84.8325 1398.55 87.9779 1398.55 91.8579C1398.55 95.7379 1401.7 98.8832 1405.58 98.8832Z" fill="#E5F3FF" stroke="black" stroke-linejoin="round"/>
<path d="M1405.55 103.071C1399.4 103.071 1393.87 105.757 1390.08 110.025C1393.87 114.286 1399.4 116.979 1405.55 116.979C1411.71 116.979 1417.24 114.293 1421.03 110.025C1417.23 105.765 1411.71 103.071 1405.55 103.071Z" fill="#E5F3FF" stroke="black" stroke-linejoin="round"/>
<path d="M1491.32 100.684L1476.55 92.1558" stroke="black" stroke-miterlimit="10"/>
<path d="M1491.32 92.1558L1476.55 100.684" stroke="black" stroke-miterlimit="10"/>
<path d="M1483.94 87.896V104.953" stroke="black" stroke-miterlimit="10"/>
<path d="M1512.07 100.684L1497.3 92.1558" stroke="black" stroke-miterlimit="10"/>
<path d="M1512.07 92.1558L1497.3 100.684" stroke="black" stroke-miterlimit="10"/>
<path d="M1504.68 87.896V104.953" stroke="black" stroke-miterlimit="10"/>
<path d="M1535.92 98.3187C1551.98 98.3187 1565 85.3002 1565 69.2411C1565 53.182 1551.98 40.1636 1535.92 40.1636C1519.86 40.1636 1506.84 53.182 1506.84 69.2411C1506.84 85.3002 1519.86 98.3187 1535.92 98.3187Z" fill="#004E99" stroke="black" stroke-linejoin="round"/>
<path d="M1449.83 100.684L1435.05 92.1558" stroke="black" stroke-miterlimit="10"/>
<path d="M1449.83 92.1558L1435.05 100.684" stroke="black" stroke-miterlimit="10"/>
<path d="M1442.44 87.896V104.953" stroke="black" stroke-miterlimit="10"/>
<path d="M1470.58 100.684L1455.8 92.1558" stroke="black" stroke-miterlimit="10"/>
<path d="M1470.58 92.1558L1455.8 100.684" stroke="black" stroke-miterlimit="10"/>
<path d="M1463.19 87.896V104.953" stroke="black" stroke-miterlimit="10"/>
<path d="M1519.15 71.6569L1525.04 66.8332L1530.33 72.9465L1545.4 57.77L1551.16 63.1851L1529.98 84.3609L1519.15 71.6569Z" fill="#E5F3FF" stroke="black" stroke-linejoin="round"/>
<path d="M559.553 133.963H485.521C483.065 133.963 481.074 131.972 481.074 129.515V59.5371C481.074 57.0808 483.065 55.0895 485.521 55.0895L559.553 55.0895C562.009 55.0895 564 57.0808 564 59.5371V129.515C564 131.972 562.009 133.963 559.553 133.963Z" fill="#0082FF" stroke="black" stroke-miterlimit="10"/>
<path d="M481.411 68.4019H564" stroke="black" stroke-miterlimit="10"/>
<path d="M521.558 127.337H488.711V75.5658H521.558V127.337Z" fill="#122FA4" stroke="black" stroke-miterlimit="10"/>
<path d="M556.298 99.2192H528.587V75.5616H556.298V99.2192Z" fill="#122FA4" stroke="black" stroke-miterlimit="10"/>
<path d="M528.586 99.2192L556.301 75.5659" stroke="black" stroke-miterlimit="10"/>
<path d="M528.586 75.5659L556.301 99.2192" stroke="black" stroke-miterlimit="10"/>
<path d="M528.586 105.301H556.301" stroke="black" stroke-miterlimit="10"/>
<path d="M528.586 112.334H556.301" stroke="black" stroke-miterlimit="10"/>
<path d="M528.586 119.363H556.301" stroke="black" stroke-miterlimit="10"/>
<path d="M528.586 126.391H543.187" stroke="black" stroke-miterlimit="10"/>
<path d="M509.867 88.3389H465.869V38.8633L509.867 38.8633V88.3389Z" stroke="black" stroke-miterlimit="10"/>
<path d="M514.735 43.7324H505.003V34.0003H514.735V43.7324Z" fill="#99CCFF" stroke="#231F20" stroke-miterlimit="10"/>
<path d="M470.733 43.7324H461V34.0003H470.733V43.7324Z" fill="#99CCFF" stroke="#231F20" stroke-miterlimit="10"/>
<path d="M470.733 93.2075H461V83.4754H470.733V93.2075Z" fill="#99CCFF" stroke="#231F20" stroke-miterlimit="10"/>
<path d="M514.735 93.2075H505.003V83.4754H514.735V93.2075Z" fill="#99CCFF" stroke="#231F20" stroke-miterlimit="10"/>
<path d="M839.903 210C870.884 210 896 184.884 896 153.903C896 122.921 870.884 97.8057 839.903 97.8057C808.921 97.8057 783.806 122.921 783.806 153.903C783.806 184.884 808.921 210 839.903 210Z" fill="#171F42"/>
<path d="M827.477 138.673L812.079 154.071L827.696 169.688" stroke="white" stroke-miterlimit="10" stroke-linecap="round"/>
<path d="M852.33 138.673L867.728 154.071L852.111 169.688" stroke="white" stroke-miterlimit="10" stroke-linecap="round"/>
<path d="M843.405 134.332L836.404 173.466" stroke="white" stroke-miterlimit="10" stroke-linecap="round"/>
<path d="M342.968 114.557V84.5889C326.417 84.5889 313 98.006 313 114.557C313 131.108 326.417 144.525 342.968 144.525C359.519 144.525 372.936 131.108 372.936 114.557C372.936 110.703 372.2 107.023 370.879 103.64L342.968 114.557Z" fill="#122FA4" stroke="black" stroke-linejoin="round"/>
<path d="M377.942 100.879C372.473 86.9036 358.882 77 342.968 77V114.557L377.942 100.879Z" fill="#99CCFF" stroke="#231F20" stroke-miterlimit="10"/>
<path d="M350.752 239H273.929C261.43 239 251.296 249.133 251.296 261.633V338.456C251.296 350.956 261.43 361.089 273.929 361.089H350.752C363.252 361.089 373.385 350.956 373.385 338.456V261.633C373.385 249.133 363.252 239 350.752 239Z" fill="#CCE6FF" stroke="#231F20" stroke-miterlimit="10"/>
<path d="M331.144 262.795H293.529C284.764 262.795 277.655 269.905 277.655 278.67C277.655 287.435 284.764 294.544 293.529 294.544H331.144C339.909 294.544 347.019 287.435 347.019 278.67C347.019 269.905 339.909 262.795 331.144 262.795ZM331.503 289.035H293.171C287.439 289.035 282.79 284.386 282.79 278.654C282.79 272.922 287.439 268.273 293.171 268.273H331.503C337.234 268.273 341.884 272.922 341.884 278.654C341.884 284.386 337.234 289.035 331.503 289.035Z" fill="white" stroke="#231F20" stroke-miterlimit="10"/>
<path d="M293.178 289.035C298.912 289.035 303.56 284.387 303.56 278.654C303.56 272.92 298.912 268.272 293.178 268.272C287.445 268.272 282.797 272.92 282.797 278.654C282.797 284.387 287.445 289.035 293.178 289.035Z" fill="#99CCFF" stroke="#231F20" stroke-miterlimit="10"/>
<path d="M284.223 303.173H246.608C237.843 303.173 230.733 310.282 230.733 319.047C230.733 327.812 237.843 334.921 246.608 334.921H284.223C292.988 334.921 300.097 327.812 300.097 319.047C300.097 310.282 292.988 303.173 284.223 303.173ZM284.581 329.412H246.249C240.517 329.412 235.868 324.763 235.868 319.031C235.868 313.299 240.517 308.65 246.249 308.65H284.581C290.313 308.65 294.962 313.299 294.962 319.031C294.962 324.763 290.313 329.412 284.581 329.412Z" fill="white" stroke="#231F20" stroke-miterlimit="10"/>
<path d="M284.581 329.42C290.314 329.42 294.962 324.773 294.962 319.039C294.962 313.306 290.314 308.658 284.581 308.658C278.847 308.658 274.2 313.306 274.2 319.039C274.2 324.773 278.847 329.42 284.581 329.42Z" fill="#0082FF" stroke="#231F20" stroke-miterlimit="10"/>
<path d="M1179.01 86.0041C1179.01 72.2311 1167.41 61.1691 1153.45 62.0491C1141.82 62.7824 1132.23 72.0266 1131.11 83.6308C1130.26 92.4884 1134.23 100.47 1140.7 105.279C1142.22 106.399 1143.26 108.039 1143.63 109.879L1144.36 113.466H1165.64L1166.38 109.884C1166.74 108.07 1167.74 106.43 1169.23 105.337C1175.16 100.968 1179.01 93.9417 1179.01 86.0085L1179.01 86.0041Z" fill="#99CCFF" stroke="#231F20" stroke-miterlimit="10"/>
<path d="M1144.36 113.466H1165.64V121.768C1165.64 123.355 1164.36 124.639 1162.77 124.639H1147.24C1145.65 124.639 1144.37 123.355 1144.37 121.768V113.466H1144.36Z" fill="#0082FF" stroke="black" stroke-miterlimit="10"/>
<path d="M1150.23 124.639H1160.03V128.763C1160.03 129.252 1159.63 129.652 1159.14 129.652H1151.12C1150.63 129.652 1150.23 129.252 1150.23 128.763V124.639Z" fill="#122FA4" stroke="black" stroke-miterlimit="10"/>
<path d="M1144.36 119.052H1165.64" stroke="#231F20" stroke-miterlimit="10"/>
<path d="M1155 113.466V92.4841L1164.64 82.8398" fill="#99CCFF"/>
<path d="M1155 113.466V92.4841L1164.64 82.8398" stroke="#231F20" stroke-miterlimit="10"/>
<path d="M1155 92.4838L1144.86 82.3418" stroke="#231F20" stroke-miterlimit="10"/>
<path d="M533.786 261H499V333.04H550.451V277.658L533.786 261Z" fill="#99CCFF" stroke="#231F20" stroke-miterlimit="10"/>
<path d="M533.785 277.658H550.45L533.785 261V277.658Z" fill="#99CCFF" stroke="#231F20" stroke-linejoin="round"/>
<path d="M542.118 288.342H505.466V297.02H542.118V288.342Z" stroke="#231F20" stroke-linejoin="round"/>
<path d="M505.466 297.02V305.698H542.118V297.02" stroke="#231F20" stroke-linejoin="round"/>
<path d="M523.792 288.342V305.698" stroke="#231F20" stroke-linejoin="round"/>
<path d="M1046 281.206C1063.43 285.147 1064.72 302.732 1064.72 302.732C1064.72 302.732 1066.01 285.147 1083.44 281.206C1066.01 277.264 1064.72 259.679 1064.72 259.679C1064.72 259.679 1063.43 277.264 1046 281.206Z" fill="#99CCFF" stroke="#231F20" stroke-linejoin="round"/>
<path d="M1080.79 293.374C1087.61 294.838 1088.11 301.367 1088.11 301.367C1088.11 301.367 1088.62 294.838 1095.44 293.374C1088.62 291.911 1088.11 285.382 1088.11 285.382C1088.11 285.382 1087.61 291.911 1080.79 293.374Z" fill="#99CCFF" stroke="#231F20" stroke-linejoin="round"/>
<path d="M1073.84 263.424C1081.03 264.969 1081.56 271.848 1081.56 271.848C1081.56 271.848 1082.1 264.969 1089.28 263.424C1082.09 261.879 1081.56 255 1081.56 255C1081.56 255 1081.03 261.879 1073.84 263.424Z" fill="#99CCFF" stroke="#231F20" stroke-linejoin="round"/>
<path d="M467.257 341H410.806V378.616H467.257V341Z" fill="#005BFF" stroke="black" stroke-linejoin="round"/>
<path d="M410.806 378.616C421.192 378.616 429.612 370.196 429.612 359.81C429.612 349.424 421.192 341.004 410.806 341.004C400.42 341.004 392 349.424 392 359.81C392 370.196 400.42 378.616 410.806 378.616Z" fill="#0082FF" stroke="black" stroke-miterlimit="10"/>
<path d="M410.806 366.077C414.267 366.077 417.073 363.271 417.073 359.81C417.073 356.348 414.267 353.542 410.806 353.542C407.345 353.542 404.539 356.348 404.539 359.81C404.539 363.271 407.345 366.077 410.806 366.077Z" fill="black" stroke="black" stroke-miterlimit="10"/>
<path d="M493.443 360.844L467.257 378.611C463.795 378.611 460.99 375.807 460.99 372.344C460.99 368.882 463.795 366.077 467.257 366.077C463.795 366.077 460.99 363.272 460.99 359.81C460.99 356.347 463.795 353.542 467.257 353.542C463.795 353.542 460.99 350.738 460.99 347.275C460.99 343.813 463.795 341.008 467.257 341.008L493.443 358.775C494.175 359.272 494.175 360.352 493.443 360.852V360.844Z" fill="#0082FF" stroke="black" stroke-miterlimit="10"/>
<path d="M460.989 347.271H424.821" stroke="black" stroke-linejoin="round"/>
<path d="M460.99 359.81H429.612" stroke="black" stroke-linejoin="round"/>
<path d="M460.989 372.344H424.821" stroke="black" stroke-linejoin="round"/>
<path d="M493.442 358.772L489.132 355.847C488.251 356.927 487.721 358.304 487.721 359.81C487.721 361.316 488.251 362.694 489.132 363.773L493.442 360.849C494.175 360.352 494.175 359.272 493.442 358.772Z" fill="black" stroke="black" stroke-miterlimit="10"/>
</g>
<defs>
<clipPath id="clip0_589_1256">
<rect width="1680" height="420" fill="white"/>
</clipPath>
</defs>
</svg>
