<svg width="58" height="54" viewBox="0 0 58 54" fill="none" xmlns="http://www.w3.org/2000/svg">
<path d="M44.8339 6.67797V21.326C44.8302 19.6319 44.3754 17.9692 43.5161 16.5079C42.6568 15.0467 41.4238 13.8394 39.9432 13.0096C38.5169 12.2048 36.9061 11.7822 35.2674 11.783H22.2031C20.5647 11.7841 18.9543 12.2066 17.5273 13.0096V0H38.1396C39.915 0 41.6177 0.70357 42.8732 1.95593C44.1286 3.20829 44.8339 4.90686 44.8339 6.67797Z" fill="#E94E25"/>
<path d="M57.4773 17.0338V36.5507C57.4773 44.3908 52.0972 51.04 44.8428 53.001V6.67798C44.8428 4.90687 44.1375 3.2083 42.882 1.95594C41.6266 0.703578 39.9239 8.04258e-06 38.1484 8.04258e-06H40.4067C41.9051 -0.00145537 43.397 0.196797 44.8428 0.589504C52.0972 2.54853 57.4773 9.19673 57.4773 17.0338Z" fill="#F38F02"/>
<path d="M39.9462 39.9897V53.0003H19.331C17.5556 53.0003 15.8529 52.2968 14.5974 51.0444C13.342 49.792 12.6367 48.0935 12.6367 46.3224V41.2164H35.2675C35.6747 41.2169 36.0814 41.1907 36.4852 41.138C37.7024 40.982 38.8778 40.5921 39.9462 39.9897Z" fill="#02ADE1"/>
<path d="M12.6384 19.0832H0.00390625V16.4503C0.00390625 8.61021 5.38403 1.96102 12.6384 0V19.0832Z" fill="#1A6AA3"/>
<path d="M19.3308 52.9998H17.0725C15.5741 53.0014 14.0821 52.8029 12.6365 52.4093C5.38012 50.4543 0 43.8051 0 35.965V30.7866C0 33.5526 1.10149 36.2053 3.06215 38.1612C5.02281 40.1171 7.68204 41.2159 10.4548 41.2159H12.6365V46.3218C12.6365 48.093 13.3418 49.7915 14.5973 51.0439C15.8527 52.2962 17.5554 52.9998 19.3308 52.9998Z" fill="#02ADE1"/>
<path d="M22.2 41.2164H10.4548C7.68204 41.2164 5.02281 40.1176 3.06215 38.1617C1.10149 36.2058 0 33.5531 0 30.7871V19.0825H12.6345V31.6733C12.6382 33.3674 13.093 35.0302 13.9523 36.4914C14.8116 37.9526 16.0446 39.1599 17.5252 39.9898C18.9512 40.7944 20.5617 41.2169 22.2 41.2164Z" fill="#1A6AA3"/>
</svg>
