<svg width="35" height="35" viewBox="0 0 35 35" fill="none" xmlns="http://www.w3.org/2000/svg">
<path d="M33.9062 14.2188C33.9062 15.4262 32.9263 16.4062 31.7188 16.4062H22.9688C24.1763 16.4062 25.1562 17.3863 25.1562 18.5938C25.1562 19.8012 24.1763 20.7812 22.9688 20.7812H21.875C23.0825 20.7812 24.0625 21.7613 24.0625 22.9688C24.0625 24.1762 23.0825 25.1562 21.875 25.1562H20.7812C21.9888 25.1562 22.9688 26.1362 22.9688 27.3438C22.9688 28.5513 21.9888 29.5312 20.7812 29.5312H9.84375C9.24219 29.5312 8.40219 29.1834 7.97672 28.758L4.375 26.25V13.125L10.6652 9.22906C11.0523 8.91953 11.5347 8.75 12.0312 8.75H17.5C18.7075 8.75 19.6875 9.73 19.6875 10.9375C19.6875 11.3378 19.5716 11.7086 19.3845 12.0312H31.7188C32.9263 12.0312 33.9062 13.0113 33.9062 14.2188ZM1.09375 14.2188V25.1562C1.09375 25.76 1.58266 26.25 2.1875 26.25H3.28125V13.125H2.1875C1.58266 13.125 1.09375 13.615 1.09375 14.2188Z" fill="#E94E25"/>
</svg>
