<svg width="275" height="43" viewBox="0 0 275 43" fill="none" xmlns="http://www.w3.org/2000/svg">
<g clip-path="url(#clip0_29_5272)">
<path d="M45.0752 1.00191V16.8409H60.9735V1.00191L45.0752 1.00191Z" fill="black"/>
<path d="M23.21 16.8592V32.6981H45.1142V16.8592H23.21Z" fill="black"/>
<path d="M8.06641 1.03056V16.8696H23.9647L23.9648 1.03057L8.06641 1.03056Z" fill="black"/>
<path d="M0.113287 16.845L0.113281 32.6839H8.06247V16.845H0.113287Z" fill="black"/>
<path d="M102.083 16.5431C102.083 26.6331 96.7829 33.0275 88.7162 33.0275C84.1233 33.0275 80.4726 30.7982 78.647 27.2197H78.5293V43.0001H71.9346V0.586701H78.2938V6.10103H78.4116C80.296 2.40527 84.0055 0.117405 88.5982 0.117405C96.7241 0.0587416 102.083 6.45302 102.083 16.5431ZM95.3698 16.5431C95.3698 9.85546 92.1312 5.57306 86.8907 5.57306C81.8857 5.57306 78.4704 9.91412 78.4704 16.5431C78.4704 23.172 81.8268 27.513 86.8907 27.513C92.0723 27.513 95.3698 23.2306 95.3698 16.5431Z" fill="black"/>
<path d="M107.146 0.586573H113.388V5.98357H113.565C114.625 2.22915 117.51 0.058609 121.278 0.058609C122.22 0.058609 123.045 0.234595 123.516 0.293258V6.39422C122.986 6.15957 121.867 6.04224 120.572 6.04224C116.332 6.04224 113.741 8.85806 113.741 13.3751V32.4407H107.146V0.586573Z" fill="black"/>
<path d="M124.812 16.543C124.812 6.27696 130.876 0 140.003 0C149.13 0 155.195 6.27696 155.195 16.543C155.195 26.809 149.189 33.086 140.003 33.086C130.818 33.086 124.812 26.809 124.812 16.543ZM148.483 16.543C148.483 9.50343 145.126 5.39699 140.003 5.39699C134.881 5.39699 131.524 9.44477 131.524 16.543C131.524 23.6412 134.881 27.689 140.003 27.689C145.126 27.689 148.483 23.6412 148.483 16.543Z" fill="black"/>
<path d="M190.407 16.5431C190.407 26.6331 185.107 33.0275 177.04 33.0275C172.448 33.0275 168.797 30.7982 166.972 27.2197H166.795V43.0001H160.2V0.586701H166.559V6.10103H166.677C168.561 2.40527 172.271 0.117405 176.864 0.117405C185.049 0.0587416 190.407 6.45302 190.407 16.5431ZM183.635 16.5431C183.635 9.85546 180.397 5.57306 175.156 5.57306C170.151 5.57306 166.736 9.91412 166.736 16.5431C166.736 23.172 170.092 27.513 175.156 27.513C180.397 27.513 183.635 23.2306 183.635 16.5431Z" fill="black"/>
<path d="M198.944 33.3207V1.81857H218.67V6.04231H203.832V16.015H217.434V20.1214H203.832V33.3207H198.944Z" fill="black"/>
<path d="M230.799 33.3207V6.04231H221.143V1.81857H245.402V6.04231H235.745V33.3207H230.799Z" fill="black"/>
<path d="M257.886 17.5403V17.3643L247.522 1.81857H253.351L261.124 14.0205H261.301L269.191 1.81857H274.726L264.009 17.5403V17.6576L274.491 33.262H268.779L260.948 21.2361H260.771L252.822 33.3207H247.404L257.886 17.5403Z" fill="black"/>
</g>
<defs>
<clipPath id="clip0_29_5272">
<rect width="274.614" height="43" fill="white" transform="translate(0.113281)"/>
</clipPath>
</defs>
</svg>
