<svg width="100" height="100" viewBox="0 0 100 100" fill="none" xmlns="http://www.w3.org/2000/svg">
<g clip-path="url(#clip0_152_1383)">
<g clip-path="url(#clip1_152_1383)">
<g clip-path="url(#clip2_152_1383)">
<path d="M39.9277 0.00390625H17.2178V13.8523L39.9277 10.0674V0.00390625Z" fill="#E94E25"/>
<path d="M89.9242 94.1371V28.5732H52.9297V94.1371H47.0703V22.7139V14.8174L10.0758 20.983V94.1371H0V99.9965H100V94.1371H89.9242ZM75.4574 36.9984H81.6811V42.8578H75.4574V36.9984ZM75.4574 51.2832H81.6811V57.1426H75.4574V51.2832ZM75.4574 65.5678H81.6811V71.4271H75.4574V65.5678ZM75.4574 79.8525H81.6811V85.7119H75.4574V79.8525ZM61.1728 36.9984H67.3965V42.8578H61.1728V36.9984ZM61.1728 51.2832H67.3965V57.1426H61.1728V51.2832ZM61.1728 65.5678H67.3965V71.4271H61.1728V65.5678ZM61.1728 79.8525H67.3965V85.7119H61.1728V79.8525ZM32.6035 22.7139H38.8271V28.5732H32.6035V22.7139ZM32.6035 36.9984H38.8271V42.8578H32.6035V36.9984ZM32.6035 51.2832H38.8271V57.1426H32.6035V51.2832ZM32.6035 65.5678H38.8271V71.4271H32.6035V65.5678ZM18.3189 36.9984H24.5426V42.8578H18.3189V36.9984ZM18.3189 51.2832H24.5426V57.1426H18.3189V51.2832ZM18.3189 65.5678H24.5426V71.4271H18.3189V65.5678ZM18.501 79.8525H38.6451V94.1371H32.7857V85.7119H24.3604V94.1371H18.501V79.8525Z" fill="#E94E25"/>
</g>
</g>
</g>
<defs>
<clipPath id="clip0_152_1383">
<rect width="100" height="100" fill="white"/>
</clipPath>
<clipPath id="clip1_152_1383">
<rect width="100" height="100" fill="white"/>
</clipPath>
<clipPath id="clip2_152_1383">
<rect width="100" height="100" fill="white"/>
</clipPath>
</defs>
</svg>
