<svg width="20" height="21" viewBox="0 0 20 21" fill="none" xmlns="http://www.w3.org/2000/svg">
<path d="M19.1922 6.25992L16.8562 8.59586C16.3844 14.0662 11.7711 18.3177 6.24998 18.3177C5.1156 18.3177 4.18045 18.1381 3.47029 17.7834C2.89763 17.4966 2.66326 17.1896 2.60467 17.1021C2.55242 17.0238 2.51855 16.9346 2.5056 16.8413C2.49265 16.7481 2.50095 16.653 2.52987 16.5634C2.55879 16.4738 2.60759 16.3919 2.67263 16.3238C2.73767 16.2556 2.81725 16.2031 2.90545 16.1701C2.92576 16.1623 4.7992 15.4427 5.98904 14.0732C5.32918 13.5307 4.75316 12.8936 4.27967 12.1826C3.31092 10.7443 2.22654 8.24586 2.56092 4.51227C2.57151 4.39363 2.61579 4.28049 2.68853 4.18618C2.76128 4.09186 2.85946 4.0203 2.97151 3.97991C3.08356 3.93952 3.20482 3.93199 3.32101 3.95821C3.43719 3.98443 3.54347 4.0433 3.62732 4.12789C3.65467 4.15524 6.22732 6.71383 9.37263 7.54352V7.06774C9.37144 6.56883 9.47008 6.07472 9.66275 5.61451C9.85542 5.1543 10.1382 4.7373 10.4945 4.38805C10.8405 4.04252 11.2522 3.7698 11.7054 3.58597C12.1585 3.40215 12.6438 3.31094 13.1328 3.31774C13.7887 3.32421 14.4318 3.50028 14.9995 3.82883C15.5672 4.15739 16.0403 4.62725 16.3726 5.19274H18.75C18.8737 5.19264 18.9946 5.22924 19.0975 5.29791C19.2003 5.36658 19.2805 5.46423 19.3279 5.57849C19.3752 5.69276 19.3876 5.8185 19.3634 5.9398C19.3393 6.06111 19.2797 6.17251 19.1922 6.25992Z" fill="#111022"/>
</svg>
