<svg width="52" height="52" viewBox="0 0 52 52" fill="none" xmlns="http://www.w3.org/2000/svg">
<g clip-path="url(#clip0_31_5466)">
<path d="M37.9031 1.72357C40.1273 -0.497701 43.7227 -0.497701 45.9469 1.72357L50.2734 6.05318C52.4977 8.27435 52.4977 11.8727 50.2734 14.0969L18.5148 45.8657C17.3568 47.0133 15.9335 47.8575 14.3711 48.3235L2.08405 51.929C1.51327 52.0102 0.896485 51.9493 0.476016 51.5227C0.055547 51.1063 -0.101773 50.4868 0.0661095 49.918L3.6796 37.629C4.13968 36.0649 4.9857 34.643 6.13843 33.4852L37.9031 1.72357ZM43.6516 4.02193C42.6969 3.06928 41.1531 3.06928 40.1984 4.02193L34.6328 9.58756L42.4125 17.2758L47.9781 11.8016C48.9328 10.8469 48.9328 9.30318 47.9781 8.35154L43.6516 4.02193ZM6.79757 38.543L4.02491 47.9782L13.4469 45.2055C14.493 44.8907 15.4476 44.3321 16.2094 43.5602L40.0258 19.6626L32.3375 11.8829L8.43679 35.7907C7.66796 36.5524 7.10429 37.5071 6.79757 38.543ZM17.6008 2.77373L24.7914 9.97146L22.4961 12.2688L19.2664 9.03607L15.7726 12.5227C15.143 13.1626 14.107 13.1626 13.4773 12.5227C12.8375 11.893 12.8375 10.8571 13.4773 10.2274L16.9609 6.73771L15.2953 5.07209C14.0258 3.80256 11.9742 3.80256 10.7047 5.07209L5.07202 10.7047C3.80249 11.9743 3.80249 14.0258 5.07202 15.2954L12.2687 22.4962L9.9714 24.7915L2.77366 17.6008C0.235617 15.0618 0.235617 10.9383 2.77366 8.40435L8.40429 2.77373C10.9383 0.235682 15.0617 0.235682 17.6008 2.77373ZM34.3992 49.2274L27.2086 42.0266L29.5039 39.7313L36.7047 46.9321C37.9742 48.2016 40.0258 48.2016 41.2953 46.9321L46.932 41.2954C48.2016 40.0258 48.2016 37.9743 46.932 36.7047L45.2664 34.9477L41.7727 38.5227C41.143 39.1626 40.107 39.1626 39.4773 38.5227C38.8375 37.893 38.8375 36.8571 39.4773 36.2274L42.9609 32.7337L39.7312 29.504L42.0266 27.2087L49.2273 34.3993C51.7664 36.9383 51.7664 41.0618 49.2273 43.6008L43.6008 49.2274C41.0617 51.7665 36.9383 51.7665 34.3992 49.2274Z" fill="#4258DF"/>
</g>
<defs>
<clipPath id="clip0_31_5466">
<rect width="52" height="52" fill="white"/>
</clipPath>
</defs>
</svg>
