<svg width="64" height="63" viewBox="0 0 64 63" fill="none" xmlns="http://www.w3.org/2000/svg">
<g clip-path="url(#clip0_31_5410)">
<path d="M31.8335 0C49.2323 0 63.3335 14.1012 63.3335 31.5C63.3335 48.8988 49.2323 63 31.8335 63C14.4347 63 0.333496 48.8988 0.333496 31.5C0.333496 14.1012 14.4347 0 31.8335 0ZM31.8335 59.0625C33.8884 59.0625 36.8046 57.2906 39.4501 52.0119C40.6683 49.5756 41.6896 46.524 42.3048 43.3125H21.2515C21.9774 46.524 22.9987 49.5756 24.2169 52.0119C26.8624 57.2906 29.7786 59.0625 31.8335 59.0625ZM20.5501 39.375H43.1169C43.4614 36.8895 43.646 34.2439 43.646 31.5C43.646 28.7561 43.4614 26.1105 43.1169 23.625H20.5501C20.2056 26.1105 20.021 28.7561 20.021 31.5C20.021 34.2439 20.2056 36.8895 20.5501 39.375ZM42.3048 19.6875C41.6896 16.3652 40.6683 13.4244 39.4501 10.9869C36.8046 5.70568 33.8884 3.9375 31.8335 3.9375C29.7786 3.9375 26.8624 5.70568 24.2169 10.9869C22.9987 13.4244 21.9774 16.3652 21.2515 19.6875H42.3048ZM46.9806 23.625C47.4112 26.1475 47.5835 28.7807 47.5835 31.5C47.5835 34.2193 47.4112 36.8525 46.9806 39.375H58.2517C59.0022 36.8771 59.396 34.2316 59.396 31.5C59.396 28.7684 59.0022 26.1229 58.2517 23.625H46.9806ZM40.6313 5.37223C43.2153 8.85814 45.2579 13.8305 46.4392 19.6875H56.7382C53.5636 12.9814 47.7435 7.76672 40.6313 5.37223ZM23.0356 5.37223C15.9235 7.76672 10.1083 12.9814 6.92389 19.6875H17.2278C18.4091 13.8305 20.4517 8.85814 23.0356 5.37223ZM4.271 31.5C4.271 34.2316 4.66967 36.8771 5.41287 39.375H16.5757C16.2558 36.8525 16.0835 34.2193 16.0835 31.5C16.0835 28.7807 16.2558 26.1475 16.5757 23.625H5.41287C4.66967 26.1229 4.271 28.7684 4.271 31.5ZM56.7382 43.3125H46.4392C45.2579 49.1695 43.2153 54.1406 40.6313 57.6228C47.7435 55.2357 53.5636 50.0186 56.7382 43.3125ZM17.2278 43.3125H6.92389C10.1083 50.0186 15.9235 55.2357 23.0356 57.6228C20.4517 54.1406 18.4091 49.1695 17.2278 43.3125Z" fill="#E94E25"/>
</g>
<defs>
<clipPath id="clip0_31_5410">
<rect width="63" height="63" fill="white" transform="translate(0.333496)"/>
</clipPath>
</defs>
</svg>
