<svg width="42" height="42" viewBox="0 0 42 42" fill="none" xmlns="http://www.w3.org/2000/svg">
<path d="M38.593 4.0376C37.9702 4.04122 37.3742 4.29126 36.9353 4.7331C36.9353 4.7331 27.0765 14.5728 21.0894 20.5558L16.8701 16.3364C15.9507 15.4194 14.4626 15.4194 13.5432 16.3364C12.6262 17.2558 12.6262 18.7439 13.5432 19.6633L19.4318 25.5519C20.3512 26.4688 21.8392 26.4688 22.7587 25.5519C28.3292 19.9834 40.2622 8.05993 40.2622 8.05993C41.1792 7.14056 41.1792 5.65247 40.2622 4.7331C39.8205 4.28845 39.2197 4.03814 38.593 4.0376Z" fill="black"/>
<path d="M19.8964 2.1582C9.51734 2.15829 1.0498 10.6165 1.0498 20.9957C1.0498 31.3746 9.51734 39.8422 19.8964 39.8422C28.4137 39.8422 35.8915 34.1023 38.0958 25.8752C38.5222 24.2846 38.7337 22.6423 38.7338 20.9957C38.7338 19.696 37.6811 18.6419 36.3814 18.6402C35.0817 18.6419 34.029 19.696 34.029 20.9957C34.029 22.2307 33.8611 23.4646 33.5414 24.6576C31.8829 30.8471 26.3043 35.1374 19.8964 35.1375C12.0633 35.1374 5.75455 28.8288 5.75455 20.9957C5.75455 13.1626 12.0633 6.863 19.8964 6.863C21.1316 6.86309 22.3561 7.03135 23.5492 7.35057C24.8057 7.68746 26.0974 6.94206 26.4343 5.68553C26.4346 5.68444 26.4349 5.68327 26.4352 5.68218C26.7721 4.42565 26.0266 3.13399 24.7701 2.79711C24.769 2.79683 24.7679 2.79647 24.7668 2.7962C23.176 2.37002 21.5434 2.15829 19.8964 2.1582Z" fill="black"/>
</svg>
