<svg width="504" height="478" viewBox="0 0 504 478" fill="none" xmlns="http://www.w3.org/2000/svg">
<mask id="mask0_49_97" style="mask-type:alpha" maskUnits="userSpaceOnUse" x="0" y="2" width="502" height="476">
<path d="M392.968 475.133C392.429 453.134 392.659 429.984 392.545 407.909L391.968 262.878L391.711 215.624C391.639 202.785 392.221 187.764 389.582 175.292C386.012 158.42 377.525 143.051 365.24 131.217C354.882 121.175 342.189 114.019 328.374 110.424L327.034 110.087C314.866 107.147 304.849 107.796 292.566 107.867H292.565L260.94 108.052L215.989 108.305C208.035 108.35 199.748 108.455 191.84 108.476C186.172 108.491 178.766 109.707 171.612 111.729C164.826 113.646 158.223 116.301 153.518 119.377L152.877 4.41229L360.235 3.23828C361.054 3.43284 362.461 3.60291 363.851 3.74418C365.323 3.89368 366.732 4.00875 367.619 4.10176C371.16 4.47133 374.686 4.98192 378.189 5.63081C397.668 9.24783 416.244 16.7967 432.833 27.8316L434.432 28.9104C465.248 50.0325 487.256 82.1667 496.144 119.026H496.143C497.503 124.716 498.503 130.403 499.275 136.209C499.485 137.784 499.575 139.509 499.695 141.254C499.812 142.971 499.959 144.703 500.281 146.268L501.295 334.943C501.15 335.579 501.045 336.679 500.968 337.755C500.888 338.882 500.833 340.035 500.797 340.706C500.636 343.664 500.411 346.068 500.017 349.009L500.016 349.01C498.349 361.711 495.099 374.142 490.346 385.999V386C476.302 421.21 449.901 449.769 416.335 466.068L416.332 466.07C411.645 468.393 406.83 470.433 401.912 472.182L401.913 472.183C400.533 472.662 398.966 473.105 397.39 473.586C395.862 474.052 394.333 474.551 393.026 475.133H392.968Z" fill="url(#paint0_radial_49_97)"/>
<path d="M392.968 475.133C392.429 453.134 392.659 429.984 392.545 407.909L391.968 262.878L391.711 215.624C391.639 202.785 392.221 187.764 389.582 175.292C386.012 158.42 377.525 143.051 365.24 131.217C354.882 121.175 342.189 114.019 328.374 110.424L327.034 110.087C314.866 107.147 304.849 107.796 292.566 107.867H292.565L260.94 108.052L215.989 108.305C208.035 108.35 199.748 108.455 191.84 108.476C186.172 108.491 178.766 109.707 171.612 111.729C164.826 113.646 158.223 116.301 153.518 119.377L152.877 4.41229L360.235 3.23828C361.054 3.43284 362.461 3.60291 363.851 3.74418C365.323 3.89368 366.732 4.00875 367.619 4.10176C371.16 4.47133 374.686 4.98192 378.189 5.63081C397.668 9.24783 416.244 16.7967 432.833 27.8316L434.432 28.9104C465.248 50.0325 487.256 82.1667 496.144 119.026H496.143C497.503 124.716 498.503 130.403 499.275 136.209C499.485 137.784 499.575 139.509 499.695 141.254C499.812 142.971 499.959 144.703 500.281 146.268L501.295 334.943C501.15 335.579 501.045 336.679 500.968 337.755C500.888 338.882 500.833 340.035 500.797 340.706C500.636 343.664 500.411 346.068 500.017 349.009L500.016 349.01C498.349 361.711 495.099 374.142 490.346 385.999V386C476.302 421.21 449.901 449.769 416.335 466.068L416.332 466.07C411.645 468.393 406.83 470.433 401.912 472.182L401.913 472.183C400.533 472.662 398.966 473.105 397.39 473.586C395.862 474.052 394.333 474.551 393.026 475.133H392.968Z" stroke="#B5B5B5" stroke-opacity="0.24" stroke-width="0.952101"/>
<path d="M392.968 475.133C392.429 453.134 392.659 429.984 392.545 407.909L391.968 262.878L391.711 215.624C391.639 202.785 392.221 187.764 389.582 175.292C386.012 158.42 377.525 143.051 365.24 131.217C354.882 121.175 342.189 114.019 328.374 110.424L327.034 110.087C314.866 107.147 304.849 107.796 292.566 107.867H292.565L260.94 108.052L215.989 108.305C208.035 108.35 199.748 108.455 191.84 108.476C186.172 108.491 178.766 109.707 171.612 111.729C164.826 113.646 158.223 116.301 153.518 119.377L152.877 4.41229L360.235 3.23828C361.054 3.43284 362.461 3.60291 363.851 3.74418C365.323 3.89368 366.732 4.00875 367.619 4.10176C371.16 4.47133 374.686 4.98192 378.189 5.63081C397.668 9.24783 416.244 16.7967 432.833 27.8316L434.432 28.9104C465.248 50.0325 487.256 82.1667 496.144 119.026H496.143C497.503 124.716 498.503 130.403 499.275 136.209C499.485 137.784 499.575 139.509 499.695 141.254C499.812 142.971 499.959 144.703 500.281 146.268L501.295 334.943C501.15 335.579 501.045 336.679 500.968 337.755C500.888 338.882 500.833 340.035 500.797 340.706C500.636 343.664 500.411 346.068 500.017 349.009L500.016 349.01C498.349 361.711 495.099 374.142 490.346 385.999V386C476.302 421.21 449.901 449.769 416.335 466.068L416.332 466.07C411.645 468.393 406.83 470.433 401.912 472.182L401.913 472.183C400.533 472.662 398.966 473.105 397.39 473.586C395.862 474.052 394.333 474.551 393.026 475.133H392.968Z" stroke="url(#paint1_linear_49_97)" stroke-width="0.952101"/>
<path d="M143.555 476.716C141.98 476.417 140.342 476.297 138.715 476.201C137.07 476.104 135.439 476.032 133.863 475.834C128.481 475.156 123.157 474.258 117.872 473.027C82.0383 464.65 50.4821 443.036 29.2479 412.323C16.7306 394.218 8.22679 373.534 4.33014 351.715C3.71318 348.152 3.28453 344.861 2.89126 341.281C2.76256 340.108 2.66995 338.412 2.55134 336.725C2.43478 335.066 2.29242 333.412 2.06384 332.327L1.05658 144.85L1.09723 144.6L1.09722 144.598C1.31701 143.146 1.44089 141.464 1.54691 139.778C1.65321 138.087 1.74174 136.392 1.89077 134.889C2.48771 129.329 3.37135 123.806 4.53823 118.342C12.375 82.3426 32.6789 50.4653 61.6956 28.6018L61.6965 28.6008C77.3393 16.7586 91.2218 10.4433 109.521 4.485L109.631 4.48438C109.938 12.7909 109.819 21.7893 109.865 30.1475L110.11 75.7982L110.846 215.421L111.121 266.245C111.164 274.551 110.853 288.063 111.775 295.861C113.057 307.07 116.465 317.912 121.804 327.779L122.327 328.731C133.181 348.132 150.993 362.426 171.963 368.598L172.964 368.886C178.664 370.496 184.521 371.451 190.428 371.733C197.536 372.134 207.641 371.77 214.893 371.726L260.17 371.468L295.082 371.276C303.286 371.231 312.21 371.505 320.317 370.316L320.318 370.315C330.482 368.798 340.28 365.364 349.215 360.187L349.827 475.548L143.555 476.716Z" fill="url(#paint2_radial_49_97)"/>
<path d="M143.555 476.716C141.98 476.417 140.342 476.297 138.715 476.201C137.07 476.104 135.439 476.032 133.863 475.834C128.481 475.156 123.157 474.258 117.872 473.027C82.0383 464.65 50.4821 443.036 29.2479 412.323C16.7306 394.218 8.22679 373.534 4.33014 351.715C3.71318 348.152 3.28453 344.861 2.89126 341.281C2.76256 340.108 2.66995 338.412 2.55134 336.725C2.43478 335.066 2.29242 333.412 2.06384 332.327L1.05658 144.85L1.09723 144.6L1.09722 144.598C1.31701 143.146 1.44089 141.464 1.54691 139.778C1.65321 138.087 1.74174 136.392 1.89077 134.889C2.48771 129.329 3.37135 123.806 4.53823 118.342C12.375 82.3426 32.6789 50.4653 61.6956 28.6018L61.6965 28.6008C77.3393 16.7586 91.2218 10.4433 109.521 4.485L109.631 4.48438C109.938 12.7909 109.819 21.7893 109.865 30.1475L110.11 75.7982L110.846 215.421L111.121 266.245C111.164 274.551 110.853 288.063 111.775 295.861C113.057 307.07 116.465 317.912 121.804 327.779L122.327 328.731C133.181 348.132 150.993 362.426 171.963 368.598L172.964 368.886C178.664 370.496 184.521 371.451 190.428 371.733C197.536 372.134 207.641 371.77 214.893 371.726L260.17 371.468L295.082 371.276C303.286 371.231 312.21 371.505 320.317 370.316L320.318 370.315C330.482 368.798 340.28 365.364 349.215 360.187L349.827 475.548L143.555 476.716Z" stroke="#B5B5B5" stroke-opacity="0.24" stroke-width="0.608981"/>
<path d="M143.555 476.716C141.98 476.417 140.342 476.297 138.715 476.201C137.07 476.104 135.439 476.032 133.863 475.834C128.481 475.156 123.157 474.258 117.872 473.027C82.0383 464.65 50.4821 443.036 29.2479 412.323C16.7306 394.218 8.22679 373.534 4.33014 351.715C3.71318 348.152 3.28453 344.861 2.89126 341.281C2.76256 340.108 2.66995 338.412 2.55134 336.725C2.43478 335.066 2.29242 333.412 2.06384 332.327L1.05658 144.85L1.09723 144.6L1.09722 144.598C1.31701 143.146 1.44089 141.464 1.54691 139.778C1.65321 138.087 1.74174 136.392 1.89077 134.889C2.48771 129.329 3.37135 123.806 4.53823 118.342C12.375 82.3426 32.6789 50.4653 61.6956 28.6018L61.6965 28.6008C77.3393 16.7586 91.2218 10.4433 109.521 4.485L109.631 4.48438C109.938 12.7909 109.819 21.7893 109.865 30.1475L110.11 75.7982L110.846 215.421L111.121 266.245C111.164 274.551 110.853 288.063 111.775 295.861C113.057 307.07 116.465 317.912 121.804 327.779L122.327 328.731C133.181 348.132 150.993 362.426 171.963 368.598L172.964 368.886C178.664 370.496 184.521 371.451 190.428 371.733C197.536 372.134 207.641 371.77 214.893 371.726L260.17 371.468L295.082 371.276C303.286 371.231 312.21 371.505 320.317 370.316L320.318 370.315C330.482 368.798 340.28 365.364 349.215 360.187L349.827 475.548L143.555 476.716Z" stroke="url(#paint3_linear_49_97)" stroke-width="0.608981"/>
</mask>
<g mask="url(#mask0_49_97)">
<g filter="url(#filter0_f_49_97)">
<path d="M490.791 17.6229C514.201 65.6628 547.73 97.4822 565.681 88.6935C583.633 79.9049 579.208 33.8362 555.799 -14.2037C532.39 -62.2436 498.861 -94.063 480.909 -85.2743C462.958 -76.4856 467.382 -30.4169 490.791 17.6229Z" fill="url(#paint4_radial_49_97)"/>
</g>
<g filter="url(#filter1_f_49_97)">
<path fill-rule="evenodd" clip-rule="evenodd" d="M498.201 148.216C499.144 86.9321 443.525 11.2925 380.999 6.8623C462.321 22.4766 493.895 88.546 498.201 148.216Z" fill="url(#paint5_radial_49_97)"/>
<mask id="mask1_49_97" style="mask-type:luminance" maskUnits="userSpaceOnUse" x="380" y="6" width="119" height="143">
<path fill-rule="evenodd" clip-rule="evenodd" d="M498.201 148.216C499.144 86.9321 443.525 11.2925 380.999 6.8623C462.321 22.4766 493.895 88.546 498.201 148.216Z" fill="white"/>
</mask>
<g mask="url(#mask1_49_97)">
<path d="M489.705 148.083C495.369 148.171 501.034 148.26 506.698 148.349C506.674 141.154 505.936 134.05 504.655 127.1C491.675 66.3627 445.653 8.59664 381.316 2.37402L380.153 11.2811C438.778 18.8747 485.226 69.8193 494.894 128.639C496.16 135.118 497.094 141.668 497.703 148.252C498.035 148.228 498.368 148.204 498.7 148.18C498.355 141.544 497.681 134.915 496.667 128.329C489.563 68.8929 443.536 12.9434 381.845 2.44341L380.683 11.3505C437.931 18.6084 479.772 75.3968 488.676 129.735C489.554 135.874 489.931 142.028 489.705 148.083ZM506.698 148.349L489.705 148.083L498.7 148.18L497.703 148.252L506.698 148.349Z" fill="black"/>
</g>
</g>
<g filter="url(#filter2_f_49_97)">
<path fill-rule="evenodd" clip-rule="evenodd" d="M504.793 164.418C501.252 70.6404 446.658 17.2067 370.257 3.98535C451.034 23.8315 498.11 76.8457 504.793 164.418Z" fill="url(#paint6_radial_49_97)"/>
</g>
<g filter="url(#filter3_f_49_97)">
<path fill-rule="evenodd" clip-rule="evenodd" d="M509.369 202.37C516.777 80.8435 462.962 22.4839 372.05 -4.84473C438.522 19.5736 512.648 81.4478 509.369 202.37Z" fill="url(#paint7_radial_49_97)"/>
</g>
</g>
<mask id="mask2_49_97" style="mask-type:alpha" maskUnits="userSpaceOnUse" x="2" y="2" width="502" height="475">
<path d="M111.354 4.20898C111.867 26.2093 111.611 49.3584 111.7 71.4337L112.112 216.465V216.466L112.315 263.72C112.372 276.558 111.773 291.579 114.398 304.054C117.893 320.668 126.154 335.83 138.117 347.602L138.689 348.16C149.035 358.214 161.721 365.384 175.531 368.996L176.872 369.334C189.036 372.288 199.053 371.651 211.337 371.596L242.963 371.449L287.914 371.249C295.869 371.214 304.156 371.119 312.063 371.107C317.732 371.099 325.139 369.892 332.295 367.879C339.083 365.97 345.69 363.322 350.398 360.252L350.908 475.218L143.548 476.143C142.73 475.948 141.323 475.776 139.933 475.633C138.462 475.482 137.053 475.365 136.166 475.271C132.625 474.897 129.099 474.382 125.597 473.729C105.494 469.971 86.3592 462.025 69.3809 450.382C38.5893 429.223 16.618 397.062 7.77196 360.192C6.41855 354.5 5.42601 348.813 4.66011 343.007C4.45228 341.431 4.36385 339.706 4.24616 337.96C4.13044 336.243 3.9861 334.51 3.66536 332.946L2.86652 144.27C3.01198 143.634 3.1181 142.533 3.19642 141.458C3.27841 140.331 3.33416 139.178 3.37143 138.507C3.53564 135.55 3.76276 133.145 4.1605 130.205L4.16148 130.204C5.84342 117.505 9.10723 105.078 13.8732 93.2268C27.9579 58.0331 54.3912 29.5046 87.9756 13.246L87.9786 13.244C92.6681 10.9274 97.4857 8.89246 102.406 7.14932L102.405 7.14834C103.785 6.67168 105.353 6.22986 106.929 5.75119C108.458 5.28697 109.987 4.78971 111.295 4.20924L111.354 4.20898Z" fill="url(#paint8_radial_49_97)"/>
<path d="M111.354 4.20898C111.867 26.2093 111.611 49.3584 111.7 71.4337L112.112 216.465V216.466L112.315 263.72C112.372 276.558 111.773 291.579 114.398 304.054C117.893 320.668 126.154 335.83 138.117 347.602L138.689 348.16C149.035 358.214 161.721 365.384 175.531 368.996L176.872 369.334C189.036 372.288 199.053 371.651 211.337 371.596L242.963 371.449L287.914 371.249C295.869 371.214 304.156 371.119 312.063 371.107C317.732 371.099 325.139 369.892 332.295 367.879C339.083 365.97 345.69 363.322 350.398 360.252L350.908 475.218L143.548 476.143C142.73 475.948 141.323 475.776 139.933 475.633C138.462 475.482 137.053 475.365 136.166 475.271C132.625 474.897 129.099 474.382 125.597 473.729C105.494 469.971 86.3592 462.025 69.3809 450.382C38.5893 429.223 16.618 397.062 7.77196 360.192C6.41855 354.5 5.42601 348.813 4.66011 343.007C4.45228 341.431 4.36385 339.706 4.24616 337.96C4.13044 336.243 3.9861 334.51 3.66536 332.946L2.86652 144.27C3.01198 143.634 3.1181 142.533 3.19642 141.458C3.27841 140.331 3.33416 139.178 3.37143 138.507C3.53564 135.55 3.76276 133.145 4.1605 130.205L4.16148 130.204C5.84342 117.505 9.10723 105.078 13.8732 93.2268C27.9579 58.0331 54.3912 29.5046 87.9756 13.246L87.9786 13.244C92.6681 10.9274 97.4857 8.89246 102.406 7.14932L102.405 7.14834C103.785 6.67168 105.353 6.22986 106.929 5.75119C108.458 5.28697 109.987 4.78971 111.295 4.20924L111.354 4.20898Z" stroke="#B5B5B5" stroke-opacity="0.24" stroke-width="0.952101"/>
<path d="M111.354 4.20898C111.867 26.2093 111.611 49.3584 111.7 71.4337L112.112 216.465V216.466L112.315 263.72C112.372 276.558 111.773 291.579 114.398 304.054C117.893 320.668 126.154 335.83 138.117 347.602L138.689 348.16C149.035 358.214 161.721 365.384 175.531 368.996L176.872 369.334C189.036 372.288 199.053 371.651 211.337 371.596L242.963 371.449L287.914 371.249C295.869 371.214 304.156 371.119 312.063 371.107C317.732 371.099 325.139 369.892 332.295 367.879C339.083 365.97 345.69 363.322 350.398 360.252L350.908 475.218L143.548 476.143C142.73 475.948 141.323 475.776 139.933 475.633C138.462 475.482 137.053 475.365 136.166 475.271C132.625 474.897 129.099 474.382 125.597 473.729C105.494 469.971 86.3592 462.025 69.3809 450.382C38.5893 429.223 16.618 397.062 7.77196 360.192C6.41855 354.5 5.42601 348.813 4.66011 343.007C4.45228 341.431 4.36385 339.706 4.24616 337.96C4.13044 336.243 3.9861 334.51 3.66536 332.946L2.86652 144.27C3.01198 143.634 3.1181 142.533 3.19642 141.458C3.27841 140.331 3.33416 139.178 3.37143 138.507C3.53564 135.55 3.76276 133.145 4.1605 130.205L4.16148 130.204C5.84342 117.505 9.10723 105.078 13.8732 93.2268C27.9579 58.0331 54.3912 29.5046 87.9756 13.246L87.9786 13.244C92.6681 10.9274 97.4857 8.89246 102.406 7.14932L102.405 7.14834C103.785 6.67168 105.353 6.22986 106.929 5.75119C108.458 5.28697 109.987 4.78971 111.295 4.20924L111.354 4.20898Z" stroke="url(#paint9_linear_49_97)" stroke-width="0.952101"/>
<path d="M360.768 2.92578C362.343 3.22582 363.98 3.34849 365.607 3.44619C367.252 3.54493 368.883 3.61866 370.459 3.81908C375.84 4.50371 381.162 5.4075 386.445 6.64524C422.27 15.0654 453.802 36.7173 475.002 67.4558C487.498 85.5755 495.978 106.27 499.85 128.093C500.31 130.765 500.664 133.285 500.976 135.888L501.277 138.528C501.405 139.702 501.495 141.399 501.612 143.087C501.727 144.742 501.867 146.394 502.094 147.479L502.887 334.968L502.847 335.212V335.215C502.626 336.667 502.5 338.347 502.392 340.033C502.284 341.724 502.193 343.419 502.043 344.922C501.439 350.481 500.55 356.003 499.376 361.466C491.499 397.456 471.159 429.31 442.117 451.138H442.116C426.459 462.962 412.569 469.26 394.263 475.197H394.154C393.857 466.89 393.984 457.892 393.949 449.534L393.756 403.883L393.179 264.259L392.962 213.434C392.928 205.128 393.255 191.617 392.342 183.818C391.073 172.607 387.677 161.762 382.349 151.888L381.828 150.935L381.306 150.015C370.429 131.069 352.867 117.108 332.236 111.009L331.236 110.719C325.538 109.102 319.682 108.141 313.776 107.852H313.777C306.669 107.442 296.562 107.794 289.31 107.829L244.033 108.033L209.121 108.183C200.917 108.218 191.993 107.934 183.884 109.113L183.883 109.114C173.718 110.618 163.917 114.041 154.976 119.207L154.495 3.84611L360.768 2.92578Z" stroke="#B5B5B5" stroke-opacity="0.24" stroke-width="0.608981"/>
<path d="M360.768 2.92578C362.343 3.22582 363.98 3.34849 365.607 3.44619C367.252 3.54493 368.883 3.61866 370.459 3.81908C375.84 4.50371 381.162 5.4075 386.445 6.64524C422.27 15.0654 453.802 36.7173 475.002 67.4558C487.498 85.5755 495.978 106.27 499.85 128.093C500.31 130.765 500.664 133.285 500.976 135.888L501.277 138.528C501.405 139.702 501.495 141.399 501.612 143.087C501.727 144.742 501.867 146.394 502.094 147.479L502.887 334.968L502.847 335.212V335.215C502.626 336.667 502.5 338.347 502.392 340.033C502.284 341.724 502.193 343.419 502.043 344.922C501.439 350.481 500.55 356.003 499.376 361.466C491.499 397.456 471.159 429.31 442.117 451.138H442.116C426.459 462.962 412.569 469.26 394.263 475.197H394.154C393.857 466.89 393.984 457.892 393.949 449.534L393.756 403.883L393.179 264.259L392.962 213.434C392.928 205.128 393.255 191.617 392.342 183.818C391.073 172.607 387.677 161.762 382.349 151.888L381.828 150.935L381.306 150.015C370.429 131.069 352.867 117.108 332.236 111.009L331.236 110.719C325.538 109.102 319.682 108.141 313.776 107.852H313.777C306.669 107.442 296.562 107.794 289.31 107.829L244.033 108.033L209.121 108.183C200.917 108.218 191.993 107.934 183.884 109.113L183.883 109.114C173.718 110.618 163.917 114.041 154.976 119.207L154.495 3.84611L360.768 2.92578Z" stroke="url(#paint10_linear_49_97)" stroke-width="0.608981"/>
</mask>
<g mask="url(#mask2_49_97)">
<g filter="url(#filter4_f_49_97)">
<path d="M14.8129 461.605C-8.54154 413.537 -42.0346 381.678 -59.996 390.445C-77.9574 399.212 -73.5854 445.286 -50.231 493.354C-26.8765 541.422 6.61655 573.282 24.5779 564.514C42.5393 555.747 38.1674 509.673 14.8129 461.605Z" fill="url(#paint11_radial_49_97)"/>
</g>
<g filter="url(#filter5_f_49_97)">
<path fill-rule="evenodd" clip-rule="evenodd" d="M-4.37227 285.646C-13.144 346.305 32.3463 428.439 93.7927 440.832C15.135 414.942 -7.73085 345.376 -4.37227 285.646Z" fill="url(#paint12_radial_49_97)"/>
<mask id="mask3_49_97" style="mask-type:luminance" maskUnits="userSpaceOnUse" x="-6" y="285" width="100" height="156">
<path fill-rule="evenodd" clip-rule="evenodd" d="M-4.37227 285.646C-13.144 346.305 32.3463 428.439 93.7927 440.832C15.135 414.942 -7.73085 345.376 -4.37227 285.646Z" fill="white"/>
</mask>
<g mask="url(#mask3_49_97)">
<path d="M4.03732 286.865C-1.56908 286.052 -7.17549 285.239 -12.7819 284.427C-13.6784 291.565 -13.8545 298.706 -13.4731 305.762C-8.36643 367.661 29.8918 430.84 92.905 445.243L95.1971 436.558C38.0238 421.526 -1.52764 365.058 -3.59579 305.485C-4.02281 298.897 -4.11107 292.281 -3.87324 285.674C-4.20594 285.655 -4.53863 285.636 -4.87133 285.617C-5.37716 292.243 -5.55686 298.903 -5.3934 305.565C-5.9483 365.422 32.5466 426.8 92.3883 445.106L94.6805 436.421C38.8303 421.899 4.59412 360.224 2.71143 305.193C2.62623 298.992 3.0387 292.84 4.03732 286.865ZM-12.7819 284.427L4.03732 286.865L-4.87133 285.617L-3.87324 285.674L-12.7819 284.427Z" fill="black"/>
</g>
</g>
<g filter="url(#filter6_f_49_97)">
<path fill-rule="evenodd" clip-rule="evenodd" d="M0.978058 314.792C4.4127 408.574 58.9454 462.073 135.331 475.387C54.5766 455.443 7.56122 402.373 0.978058 314.792Z" fill="url(#paint13_radial_49_97)"/>
</g>
<g filter="url(#filter7_f_49_97)">
<path fill-rule="evenodd" clip-rule="evenodd" d="M-3.55463 276.837C-11.1008 398.354 42.6478 456.778 133.528 484.216C67.0843 459.718 -6.97123 397.755 -3.55463 276.837Z" fill="url(#paint14_radial_49_97)"/>
</g>
</g>
<path d="M109.397 1.18246L110.022 1.17969C110.551 23.3252 110.29 46.6597 110.38 68.8807L110.796 213.913L111.001 261.166C111.059 274.043 110.463 288.991 113.075 301.404C116.607 318.189 125.03 333.484 137.233 345.266C147.853 355.587 160.951 362.851 175.198 366.322C187.292 369.259 197.236 368.627 209.549 368.572L241.175 368.425L286.125 368.227C294.074 368.192 302.369 368.098 310.276 368.086C321.502 368.07 339.724 363.299 349.084 356.82L349.603 473.149L141.717 474.069C140.184 473.684 136.069 473.377 134.332 473.193C130.779 472.818 127.241 472.302 123.726 471.646C103.557 467.875 84.3602 459.902 67.3272 448.222C36.4361 426.994 14.3968 394.731 5.52271 357.747C4.16467 352.037 3.1686 346.333 2.40079 340.513C1.97982 337.322 2.04279 333.523 1.40233 330.44L0.597137 141.664C0.880828 140.507 1.02775 137.277 1.10274 135.925C1.26754 132.956 1.49576 130.539 1.89513 127.586C3.5819 114.848 6.85547 102.382 11.636 90.494C25.7629 55.1925 52.2779 26.5751 85.9705 10.2649C90.6768 7.94015 95.5113 5.89796 100.449 4.14869C103.233 3.18679 106.801 2.35255 109.397 1.18246Z" fill="url(#paint15_radial_49_97)" fill-opacity="0.4"/>
<path d="M153.323 1.96777H359.393C362.508 2.58194 365.9 2.48797 369.067 2.90578C374.44 3.6147 379.755 4.5433 385.032 5.80611C420.801 14.3937 452.223 36.2046 473.279 67.0619C485.692 85.2519 494.079 106.001 497.856 127.858C498.453 131.428 498.864 134.725 499.237 138.307C499.483 140.668 499.574 145.138 500.016 147.256V334.57L499.971 334.842C499.521 337.711 499.444 341.505 499.129 344.521C498.503 350.082 497.59 355.604 496.394 361.066C488.37 397.047 467.908 428.835 438.79 450.553C423.078 462.328 409.155 468.571 390.826 474.43H390.376C390.101 466.043 390.271 456.931 390.27 448.492L390.271 402.895L390.285 263.437L390.283 212.671C390.285 204.355 390.667 190.893 389.792 183.122C388.538 171.597 385.031 160.45 379.479 150.345C368.625 130.667 350.609 116.196 329.372 110.098C323.717 108.463 317.902 107.48 312.035 107.167C304.96 106.727 294.902 107.033 287.652 107.036L242.491 107.037L207.67 107.032C199.47 107.031 190.603 106.707 182.538 107.846C172.259 109.322 162.345 112.775 153.316 118.023L153.323 1.96777Z" fill="black"/>
<path d="M153.323 1.96777H359.393C362.508 2.58194 365.9 2.48797 369.067 2.90578C374.44 3.6147 379.755 4.5433 385.032 5.80611C420.801 14.3937 452.223 36.2046 473.279 67.0619C485.692 85.2519 494.079 106.001 497.856 127.858C498.453 131.428 498.864 134.725 499.237 138.307C499.483 140.668 499.574 145.138 500.016 147.256V334.57L499.971 334.842C499.521 337.711 499.444 341.505 499.129 344.521C498.503 350.082 497.59 355.604 496.394 361.066C488.37 397.047 467.908 428.835 438.79 450.553C423.078 462.328 409.155 468.571 390.826 474.43H390.376C390.101 466.043 390.271 456.931 390.27 448.492L390.271 402.895L390.285 263.437L390.283 212.671C390.285 204.355 390.667 190.893 389.792 183.122C388.538 171.597 385.031 160.45 379.479 150.345C368.625 130.667 350.609 116.196 329.372 110.098C323.717 108.463 317.902 107.48 312.035 107.167C304.96 106.727 294.902 107.033 287.652 107.036L242.491 107.037L207.67 107.032C199.47 107.031 190.603 106.707 182.538 107.846C172.259 109.322 162.345 112.775 153.316 118.023L153.323 1.96777Z" fill="url(#paint16_radial_49_97)" fill-opacity="0.4"/>
<path d="M111.541 1.96777C111.974 24.0887 111.614 47.3954 111.609 69.5898L111.408 214.449L111.411 261.647C111.414 274.508 110.756 289.436 113.309 301.846C116.76 318.626 125.096 333.939 137.217 345.762C147.765 356.117 160.797 363.43 174.992 366.96C187.042 369.947 196.963 369.36 209.244 369.359L240.788 369.353L285.622 369.354C293.55 369.354 301.824 369.296 309.71 369.319C320.907 369.353 339.101 364.669 348.465 358.239L348.487 474.43H141.141C139.612 474.038 135.511 473.714 133.779 473.522C130.237 473.132 126.709 472.601 123.207 471.931C103.107 468.075 83.9943 460.026 67.0557 448.284C36.3358 426.945 14.4904 394.624 5.79688 357.646C4.46679 351.936 3.49784 346.234 2.75684 340.418C2.35072 337.229 2.42929 333.434 1.80371 330.353V141.8C2.09143 140.645 2.2515 137.419 2.33203 136.07C2.50903 133.106 2.74735 130.691 3.1582 127.744C4.8948 115.029 8.21285 102.593 13.0312 90.7402C27.2715 55.5442 53.8392 27.0779 87.5127 10.9365C92.2164 8.63545 97.048 6.61688 101.98 4.8916C104.761 3.94325 108.323 3.12489 110.917 1.96777H111.541Z" fill="black"/>
<path d="M111.541 1.96777C111.974 24.0887 111.614 47.3954 111.609 69.5898L111.408 214.449L111.411 261.647C111.414 274.508 110.756 289.436 113.309 301.846C116.76 318.626 125.096 333.939 137.217 345.762C147.765 356.117 160.797 363.43 174.992 366.96C187.042 369.947 196.963 369.36 209.244 369.359L240.788 369.353L285.622 369.354C293.55 369.354 301.824 369.296 309.71 369.319C320.907 369.353 339.101 364.669 348.465 358.239L348.487 474.43H141.141C139.612 474.038 135.511 473.714 133.779 473.522C130.237 473.132 126.709 472.601 123.207 471.931C103.107 468.075 83.9943 460.026 67.0557 448.284C36.3358 426.945 14.4904 394.624 5.79688 357.646C4.46679 351.936 3.49784 346.234 2.75684 340.418C2.35072 337.229 2.42929 333.434 1.80371 330.353V141.8C2.09143 140.645 2.2515 137.419 2.33203 136.07C2.50903 133.106 2.74735 130.691 3.1582 127.744C4.8948 115.029 8.21285 102.593 13.0312 90.7402C27.2715 55.5442 53.8392 27.0779 87.5127 10.9365C92.2164 8.63545 97.048 6.61688 101.98 4.8916C104.761 3.94325 108.323 3.12489 110.917 1.96777H111.541Z" fill="url(#paint17_radial_49_97)" fill-opacity="0.4"/>
<mask id="mask4_49_97" style="mask-type:alpha" maskUnits="userSpaceOnUse" x="0" y="0" width="502" height="478">
<path d="M392.54 475.124C392.002 453.032 392.232 429.786 392.118 407.619L391.541 261.987V261.986L391.285 214.538C391.213 201.646 391.795 186.563 389.159 174.041C385.593 157.099 377.116 141.667 364.844 129.784C354.164 119.375 340.998 112.055 326.679 108.567C314.524 105.615 304.518 106.266 292.248 106.337L260.656 106.523L215.755 106.778C207.809 106.823 199.531 106.928 191.633 106.95C185.969 106.965 178.572 108.186 171.425 110.215C164.647 112.14 158.052 114.807 153.352 117.894L152.711 2.45033L359.838 1.27148C360.654 1.46737 362.064 1.63808 363.455 1.7802C364.924 1.93033 366.332 2.04625 367.218 2.13965L367.219 2.13964C370.757 2.51074 374.279 3.02272 377.778 3.6743C397.863 7.4234 416.986 15.3798 433.959 27.0503C464.26 47.9286 486.035 79.5223 495.176 115.809L495.603 117.54C496.961 123.254 497.959 128.963 498.731 134.793C498.941 136.376 499.03 138.108 499.15 139.861C499.267 141.585 499.414 143.324 499.736 144.894L500.749 334.351C500.604 334.99 500.499 336.095 500.422 337.176C500.342 338.307 500.287 339.464 500.251 340.138C500.09 343.108 499.866 345.523 499.472 348.476C497.806 361.23 494.56 373.714 489.813 385.621C475.783 420.978 449.41 449.656 415.881 466.022L415.877 466.023C411.196 468.355 406.386 470.405 401.473 472.161L401.474 472.162C400.096 472.642 398.53 473.088 396.956 473.57C395.43 474.038 393.903 474.539 392.597 475.123L392.54 475.124Z" fill="url(#paint18_radial_49_97)"/>
<path d="M392.54 475.124C392.002 453.032 392.232 429.786 392.118 407.619L391.541 261.987V261.986L391.285 214.538C391.213 201.646 391.795 186.563 389.159 174.041C385.593 157.099 377.116 141.667 364.844 129.784C354.164 119.375 340.998 112.055 326.679 108.567C314.524 105.615 304.518 106.266 292.248 106.337L260.656 106.523L215.755 106.778C207.809 106.823 199.531 106.928 191.633 106.95C185.969 106.965 178.572 108.186 171.425 110.215C164.647 112.14 158.052 114.807 153.352 117.894L152.711 2.45033L359.838 1.27148C360.654 1.46737 362.064 1.63808 363.455 1.7802C364.924 1.93033 366.332 2.04625 367.218 2.13965L367.219 2.13964C370.757 2.51074 374.279 3.02272 377.778 3.6743C397.863 7.4234 416.986 15.3798 433.959 27.0503C464.26 47.9286 486.035 79.5223 495.176 115.809L495.603 117.54C496.961 123.254 497.959 128.963 498.731 134.793C498.941 136.376 499.03 138.108 499.15 139.861C499.267 141.585 499.414 143.324 499.736 144.894L500.749 334.351C500.604 334.99 500.499 336.095 500.422 337.176C500.342 338.307 500.287 339.464 500.251 340.138C500.09 343.108 499.866 345.523 499.472 348.476C497.806 361.23 494.56 373.714 489.813 385.621C475.783 420.978 449.41 449.656 415.881 466.022L415.877 466.023C411.196 468.355 406.386 470.405 401.473 472.161L401.474 472.162C400.096 472.642 398.53 473.088 396.956 473.57C395.43 474.038 393.903 474.539 392.597 475.123L392.54 475.124Z" stroke="#B5B5B5" stroke-opacity="0.24" stroke-width="0.952101"/>
<path d="M392.54 475.124C392.002 453.032 392.232 429.786 392.118 407.619L391.541 261.987V261.986L391.285 214.538C391.213 201.646 391.795 186.563 389.159 174.041C385.593 157.099 377.116 141.667 364.844 129.784C354.164 119.375 340.998 112.055 326.679 108.567C314.524 105.615 304.518 106.266 292.248 106.337L260.656 106.523L215.755 106.778C207.809 106.823 199.531 106.928 191.633 106.95C185.969 106.965 178.572 108.186 171.425 110.215C164.647 112.14 158.052 114.807 153.352 117.894L152.711 2.45033L359.838 1.27148C360.654 1.46737 362.064 1.63808 363.455 1.7802C364.924 1.93033 366.332 2.04625 367.218 2.13965L367.219 2.13964C370.757 2.51074 374.279 3.02272 377.778 3.6743C397.863 7.4234 416.986 15.3798 433.959 27.0503C464.26 47.9286 486.035 79.5223 495.176 115.809L495.603 117.54C496.961 123.254 497.959 128.963 498.731 134.793C498.941 136.376 499.03 138.108 499.15 139.861C499.267 141.585 499.414 143.324 499.736 144.894L500.749 334.351C500.604 334.99 500.499 336.095 500.422 337.176C500.342 338.307 500.287 339.464 500.251 340.138C500.09 343.108 499.866 345.523 499.472 348.476C497.806 361.23 494.56 373.714 489.813 385.621C475.783 420.978 449.41 449.656 415.881 466.022L415.877 466.023C411.196 468.355 406.386 470.405 401.473 472.161L401.474 472.162C400.096 472.642 398.53 473.088 396.956 473.57C395.43 474.038 393.903 474.539 392.597 475.123L392.54 475.124Z" stroke="url(#paint19_linear_49_97)" stroke-width="0.952101"/>
<path d="M143.399 476.712C141.826 476.413 140.19 476.291 138.564 476.195C136.921 476.097 135.292 476.026 133.718 475.827C128.342 475.146 123.025 474.244 117.745 473.007C81.9507 464.596 50.4282 442.894 29.2169 412.053C17.1037 394.441 8.75286 374.398 4.70396 353.244L4.3258 351.193C3.70953 347.616 3.28177 344.311 2.88893 340.717C2.76035 339.539 2.66752 337.835 2.54904 336.14C2.43261 334.475 2.29082 332.814 2.06254 331.725L1.05637 143.471L1.09605 143.221L1.09701 143.218C1.31655 141.76 1.43986 140.072 1.54576 138.378C1.65194 136.68 1.74076 134.978 1.88965 133.469C2.48594 127.886 3.36867 122.34 4.53428 116.853C12.3627 80.7043 32.6446 48.6947 61.6297 26.7407L61.6306 26.7397C77.2565 14.8484 91.1239 8.5071 109.403 2.52406L109.512 2.52344C109.818 10.8648 109.7 19.9008 109.745 28.294L109.99 74.1342L110.726 214.334L111 265.37C111.042 273.45 110.752 286.435 111.57 294.357L111.653 295.108C112.975 306.726 116.56 317.951 122.193 328.113L122.715 329.036C133.777 348.353 151.728 362.496 172.775 368.434C178.469 370.051 184.32 371.009 190.22 371.292H190.219C197.32 371.695 207.415 371.33 214.659 371.285L259.888 371.027L294.761 370.833C302.956 370.788 311.871 371.063 319.969 369.869H319.97C330.122 368.346 339.909 364.896 348.834 359.698L349.446 475.539L143.399 476.712Z" fill="url(#paint20_radial_49_97)"/>
<path d="M143.399 476.712C141.826 476.413 140.19 476.291 138.564 476.195C136.921 476.097 135.292 476.026 133.718 475.827C128.342 475.146 123.025 474.244 117.745 473.007C81.9507 464.596 50.4282 442.894 29.2169 412.053C17.1037 394.441 8.75286 374.398 4.70396 353.244L4.3258 351.193C3.70953 347.616 3.28177 344.311 2.88893 340.717C2.76035 339.539 2.66752 337.835 2.54904 336.14C2.43261 334.475 2.29082 332.814 2.06254 331.725L1.05637 143.471L1.09605 143.221L1.09701 143.218C1.31655 141.76 1.43986 140.072 1.54576 138.378C1.65194 136.68 1.74076 134.978 1.88965 133.469C2.48594 127.886 3.36867 122.34 4.53428 116.853C12.3627 80.7043 32.6446 48.6947 61.6297 26.7407L61.6306 26.7397C77.2565 14.8484 91.1239 8.5071 109.403 2.52406L109.512 2.52344C109.818 10.8648 109.7 19.9008 109.745 28.294L109.99 74.1342L110.726 214.334L111 265.37C111.042 273.45 110.752 286.435 111.57 294.357L111.653 295.108C112.975 306.726 116.56 317.951 122.193 328.113L122.715 329.036C133.777 348.353 151.728 362.496 172.775 368.434C178.469 370.051 184.32 371.009 190.22 371.292H190.219C197.32 371.695 207.415 371.33 214.659 371.285L259.888 371.027L294.761 370.833C302.956 370.788 311.871 371.063 319.969 369.869H319.97C330.122 368.346 339.909 364.896 348.834 359.698L349.446 475.539L143.399 476.712Z" stroke="#B5B5B5" stroke-opacity="0.24" stroke-width="0.608981"/>
<path d="M143.399 476.712C141.826 476.413 140.19 476.291 138.564 476.195C136.921 476.097 135.292 476.026 133.718 475.827C128.342 475.146 123.025 474.244 117.745 473.007C81.9507 464.596 50.4282 442.894 29.2169 412.053C17.1037 394.441 8.75286 374.398 4.70396 353.244L4.3258 351.193C3.70953 347.616 3.28177 344.311 2.88893 340.717C2.76035 339.539 2.66752 337.835 2.54904 336.14C2.43261 334.475 2.29082 332.814 2.06254 331.725L1.05637 143.471L1.09605 143.221L1.09701 143.218C1.31655 141.76 1.43986 140.072 1.54576 138.378C1.65194 136.68 1.74076 134.978 1.88965 133.469C2.48594 127.886 3.36867 122.34 4.53428 116.853C12.3627 80.7043 32.6446 48.6947 61.6297 26.7407L61.6306 26.7397C77.2565 14.8484 91.1239 8.5071 109.403 2.52406L109.512 2.52344C109.818 10.8648 109.7 19.9008 109.745 28.294L109.99 74.1342L110.726 214.334L111 265.37C111.042 273.45 110.752 286.435 111.57 294.357L111.653 295.108C112.975 306.726 116.56 317.951 122.193 328.113L122.715 329.036C133.777 348.353 151.728 362.496 172.775 368.434C178.469 370.051 184.32 371.009 190.22 371.292H190.219C197.32 371.695 207.415 371.33 214.659 371.285L259.888 371.027L294.761 370.833C302.956 370.788 311.871 371.063 319.969 369.869H319.97C330.122 368.346 339.909 364.896 348.834 359.698L349.446 475.539L143.399 476.712Z" stroke="url(#paint21_linear_49_97)" stroke-width="0.608981"/>
</mask>
<g mask="url(#mask4_49_97)">
<g filter="url(#filter8_f_49_97)">
<path d="M458.745 25.0919C495.608 66.1962 538.94 87.3111 555.53 72.2532C572.12 57.1954 555.686 11.6669 518.823 -29.4374C481.96 -70.5417 438.628 -91.6566 422.038 -76.5987C405.448 -61.5409 421.882 -16.0124 458.745 25.0919Z" fill="url(#paint22_radial_49_97)"/>
</g>
<g filter="url(#filter9_f_49_97)">
<path fill-rule="evenodd" clip-rule="evenodd" d="M498.39 153.903C501.334 92.435 448.275 14.6476 385.992 8.08691C466.675 26.5068 496.04 93.877 498.39 153.903Z" fill="url(#paint23_radial_49_97)"/>
<mask id="mask5_49_97" style="mask-type:luminance" maskUnits="userSpaceOnUse" x="385" y="8" width="114" height="146">
<path fill-rule="evenodd" clip-rule="evenodd" d="M498.39 153.903C501.334 92.435 448.275 14.6476 385.992 8.08691C466.675 26.5068 496.04 93.877 498.39 153.903Z" fill="white"/>
</mask>
<g mask="url(#mask5_49_97)">
<path d="M489.909 153.484C495.563 153.764 501.217 154.044 506.872 154.324C507.082 147.119 506.579 139.979 505.531 132.974C494.589 71.7123 450.652 12.0916 386.456 3.60938L385 12.4774C443.423 22.1202 488.023 74.9326 495.732 134.175C496.782 140.711 497.499 147.306 497.891 153.923C498.224 153.91 498.557 153.898 498.889 153.885C498.762 147.225 498.307 140.561 497.513 133.927C492.382 74.1622 448.395 16.3626 386.984 3.69726L385.528 12.5653C442.571 21.8274 482.394 80.3022 489.485 135.055C490.158 141.24 490.332 147.422 489.909 153.484ZM506.872 154.324L489.909 153.484L498.889 153.885L497.891 153.923L506.872 154.324Z" fill="black"/>
</g>
</g>
<g filter="url(#filter10_f_49_97)">
<path fill-rule="evenodd" clip-rule="evenodd" d="M504.243 163.125C500.706 68.9592 446.172 15.3044 369.854 2.02832C448.79 23.0645 495.14 76.7243 504.243 163.125Z" fill="url(#paint24_radial_49_97)"/>
</g>
<g filter="url(#filter11_f_49_97)">
<path fill-rule="evenodd" clip-rule="evenodd" d="M508.815 201.23C516.214 79.2011 462.458 20.5999 371.646 -6.8418C438.045 17.6776 512.09 79.8079 508.815 201.23Z" fill="url(#paint25_radial_49_97)"/>
</g>
</g>
<mask id="mask6_49_97" style="mask-type:alpha" maskUnits="userSpaceOnUse" x="2" y="0" width="501" height="477">
<path d="M111.233 2.24902C111.746 24.341 111.489 47.5869 111.578 69.754L111.99 215.387L112.193 262.837C112.251 275.728 111.651 290.811 114.273 303.336C117.82 320.283 126.28 335.725 138.538 347.623C149.206 358.044 162.364 365.38 176.679 368.885C188.83 371.852 198.838 371.213 211.107 371.157L242.699 371.009L287.601 370.809C295.547 370.774 303.824 370.678 311.723 370.665C317.387 370.657 324.786 369.445 331.935 367.424C338.715 365.508 345.313 362.849 350.017 359.767L350.525 475.212L143.395 476.141C142.578 475.945 141.17 475.773 139.781 475.629C138.312 475.477 136.905 475.36 136.019 475.265C132.482 474.89 128.959 474.373 125.461 473.717C105.381 469.943 86.267 461.965 69.3075 450.274C39.0298 429.359 17.2903 397.739 8.18964 361.44L7.76535 359.708C6.58244 354.707 5.67468 349.71 4.95378 344.633L4.6565 342.452C4.44886 340.869 4.36112 339.136 4.24355 337.383C4.12795 335.659 3.9831 333.92 3.66278 332.349L2.86481 142.891C3.01009 142.253 3.11646 141.148 3.19471 140.067C3.27662 138.936 3.33251 137.779 3.36974 137.105C3.53378 134.135 3.76054 131.721 4.15787 128.768C5.83804 116.016 9.09808 103.536 13.859 91.6349C27.9287 56.2947 54.3343 27.6483 87.8817 11.3226L87.8847 11.3216C92.569 8.99543 97.3816 6.95157 102.297 5.20124L102.296 5.20026C103.674 4.72165 105.241 4.27785 106.815 3.79717C108.342 3.33102 109.869 2.83219 111.176 2.24927L111.233 2.24902Z" fill="url(#paint26_radial_49_97)"/>
<path d="M111.233 2.24902C111.746 24.341 111.489 47.5869 111.578 69.754L111.99 215.387L112.193 262.837C112.251 275.728 111.651 290.811 114.273 303.336C117.82 320.283 126.28 335.725 138.538 347.623C149.206 358.044 162.364 365.38 176.679 368.885C188.83 371.852 198.838 371.213 211.107 371.157L242.699 371.009L287.601 370.809C295.547 370.774 303.824 370.678 311.723 370.665C317.387 370.657 324.786 369.445 331.935 367.424C338.715 365.508 345.313 362.849 350.017 359.767L350.525 475.212L143.395 476.141C142.578 475.945 141.17 475.773 139.781 475.629C138.312 475.477 136.905 475.36 136.019 475.265C132.482 474.89 128.959 474.373 125.461 473.717C105.381 469.943 86.267 461.965 69.3075 450.274C39.0298 429.359 17.2903 397.739 8.18964 361.44L7.76535 359.708C6.58244 354.707 5.67468 349.71 4.95378 344.633L4.6565 342.452C4.44886 340.869 4.36112 339.136 4.24355 337.383C4.12795 335.659 3.9831 333.92 3.66278 332.349L2.86481 142.891C3.01009 142.253 3.11646 141.148 3.19471 140.067C3.27662 138.936 3.33251 137.779 3.36974 137.105C3.53378 134.135 3.76054 131.721 4.15787 128.768C5.83804 116.016 9.09808 103.536 13.859 91.6349C27.9287 56.2947 54.3343 27.6483 87.8817 11.3226L87.8847 11.3216C92.569 8.99543 97.3816 6.95157 102.297 5.20124L102.296 5.20026C103.674 4.72165 105.241 4.27785 106.815 3.79717C108.342 3.33102 109.869 2.83219 111.176 2.24927L111.233 2.24902Z" stroke="#E1E1E1" stroke-opacity="0.25" stroke-width="0.952101"/>
<path d="M111.233 2.24902C111.746 24.341 111.489 47.5869 111.578 69.754L111.99 215.387L112.193 262.837C112.251 275.728 111.651 290.811 114.273 303.336C117.82 320.283 126.28 335.725 138.538 347.623C149.206 358.044 162.364 365.38 176.679 368.885C188.83 371.852 198.838 371.213 211.107 371.157L242.699 371.009L287.601 370.809C295.547 370.774 303.824 370.678 311.723 370.665C317.387 370.657 324.786 369.445 331.935 367.424C338.715 365.508 345.313 362.849 350.017 359.767L350.525 475.212L143.395 476.141C142.578 475.945 141.17 475.773 139.781 475.629C138.312 475.477 136.905 475.36 136.019 475.265C132.482 474.89 128.959 474.373 125.461 473.717C105.381 469.943 86.267 461.965 69.3075 450.274C39.0298 429.359 17.2903 397.739 8.18964 361.44L7.76535 359.708C6.58244 354.707 5.67468 349.71 4.95378 344.633L4.6565 342.452C4.44886 340.869 4.36112 339.136 4.24355 337.383C4.12795 335.659 3.9831 333.92 3.66278 332.349L2.86481 142.891C3.01009 142.253 3.11646 141.148 3.19471 140.067C3.27662 138.936 3.33251 137.779 3.36974 137.105C3.53378 134.135 3.76054 131.721 4.15787 128.768C5.83804 116.016 9.09808 103.536 13.859 91.6349C27.9287 56.2947 54.3343 27.6483 87.8817 11.3226L87.8847 11.3216C92.569 8.99543 97.3816 6.95157 102.297 5.20124L102.296 5.20026C103.674 4.72165 105.241 4.27785 106.815 3.79717C108.342 3.33102 109.869 2.83219 111.176 2.24927L111.233 2.24902Z" stroke="#B5B5B5" stroke-opacity="0.24" stroke-width="0.952101"/>
<path d="M111.233 2.24902C111.746 24.341 111.489 47.5869 111.578 69.754L111.99 215.387L112.193 262.837C112.251 275.728 111.651 290.811 114.273 303.336C117.82 320.283 126.28 335.725 138.538 347.623C149.206 358.044 162.364 365.38 176.679 368.885C188.83 371.852 198.838 371.213 211.107 371.157L242.699 371.009L287.601 370.809C295.547 370.774 303.824 370.678 311.723 370.665C317.387 370.657 324.786 369.445 331.935 367.424C338.715 365.508 345.313 362.849 350.017 359.767L350.525 475.212L143.395 476.141C142.578 475.945 141.17 475.773 139.781 475.629C138.312 475.477 136.905 475.36 136.019 475.265C132.482 474.89 128.959 474.373 125.461 473.717C105.381 469.943 86.267 461.965 69.3075 450.274C39.0298 429.359 17.2903 397.739 8.18964 361.44L7.76535 359.708C6.58244 354.707 5.67468 349.71 4.95378 344.633L4.6565 342.452C4.44886 340.869 4.36112 339.136 4.24355 337.383C4.12795 335.659 3.9831 333.92 3.66278 332.349L2.86481 142.891C3.01009 142.253 3.11646 141.148 3.19471 140.067C3.27662 138.936 3.33251 137.779 3.36974 137.105C3.53378 134.135 3.76054 131.721 4.15787 128.768C5.83804 116.016 9.09808 103.536 13.859 91.6349C27.9287 56.2947 54.3343 27.6483 87.8817 11.3226L87.8847 11.3216C92.569 8.99543 97.3816 6.95157 102.297 5.20124L102.296 5.20026C103.674 4.72165 105.241 4.27785 106.815 3.79717C108.342 3.33102 109.869 2.83219 111.176 2.24927L111.233 2.24902Z" stroke="url(#paint27_linear_49_97)" stroke-width="0.952101"/>
<path d="M360.376 0.959961C361.948 1.26128 363.584 1.38509 365.21 1.4832C366.853 1.58235 368.481 1.65574 370.055 1.85698C375.431 2.54447 380.747 3.45259 386.025 4.69554C421.81 13.1504 453.308 34.8906 474.484 65.7564C486.578 83.3828 494.906 103.436 498.931 124.595L499.307 126.646C499.919 130.224 500.343 133.53 500.732 137.125C500.859 138.303 500.95 140.007 501.066 141.701C501.181 143.366 501.321 145.028 501.548 146.117L502.341 334.372L502.301 334.622L502.3 334.625C502.079 336.083 501.953 337.771 501.846 339.464C501.737 341.162 501.647 342.864 501.496 344.373C500.893 349.955 500.004 355.5 498.833 360.986C490.963 397.125 470.645 429.11 441.635 451.029L441.634 451.03C425.995 462.903 412.12 469.227 393.834 475.188L393.726 475.189C393.429 466.847 393.556 457.811 393.521 449.418L393.328 403.579L392.752 263.377L392.535 212.341C392.503 204.261 392.807 191.276 391.998 183.353L391.916 182.602C390.648 171.346 387.256 160.455 381.934 150.541L381.413 149.585C370.42 129.782 352.251 115.26 330.877 109.202C325.185 107.579 319.335 106.613 313.435 106.324H313.436C306.336 105.912 296.24 106.265 288.996 106.3L243.767 106.504L208.894 106.656C200.699 106.691 191.784 106.406 183.684 107.59H183.683C173.53 109.1 163.739 112.538 154.808 117.726L154.328 1.88409L360.376 0.959961Z" fill="url(#paint28_radial_49_97)" fill-opacity="0.4"/>
<path d="M360.376 0.959961C361.948 1.26128 363.584 1.38509 365.21 1.4832C366.853 1.58235 368.481 1.65574 370.055 1.85698C375.431 2.54447 380.747 3.45259 386.025 4.69554C421.81 13.1504 453.308 34.8906 474.484 65.7564C486.578 83.3828 494.906 103.436 498.931 124.595L499.307 126.646C499.919 130.224 500.343 133.53 500.732 137.125C500.859 138.303 500.95 140.007 501.066 141.701C501.181 143.366 501.321 145.028 501.548 146.117L502.341 334.372L502.301 334.622L502.3 334.625C502.079 336.083 501.953 337.771 501.846 339.464C501.737 341.162 501.647 342.864 501.496 344.373C500.893 349.955 500.004 355.5 498.833 360.986C490.963 397.125 470.645 429.11 441.635 451.029L441.634 451.03C425.995 462.903 412.12 469.227 393.834 475.188L393.726 475.189C393.429 466.847 393.556 457.811 393.521 449.418L393.328 403.579L392.752 263.377L392.535 212.341C392.503 204.261 392.807 191.276 391.998 183.353L391.916 182.602C390.648 171.346 387.256 160.455 381.934 150.541L381.413 149.585C370.42 129.782 352.251 115.26 330.877 109.202C325.185 107.579 319.335 106.613 313.435 106.324H313.436C306.336 105.912 296.24 106.265 288.996 106.3L243.767 106.504L208.894 106.656C200.699 106.691 191.784 106.406 183.684 107.59H183.683C173.53 109.1 163.739 112.538 154.808 117.726L154.328 1.88409L360.376 0.959961Z" stroke="#B5B5B5" stroke-width="0.608981"/>
<path d="M360.376 0.959961C361.948 1.26128 363.584 1.38509 365.21 1.4832C366.853 1.58235 368.481 1.65574 370.055 1.85698C375.431 2.54447 380.747 3.45259 386.025 4.69554C421.81 13.1504 453.308 34.8906 474.484 65.7564C486.578 83.3828 494.906 103.436 498.931 124.595L499.307 126.646C499.919 130.224 500.343 133.53 500.732 137.125C500.859 138.303 500.95 140.007 501.066 141.701C501.181 143.366 501.321 145.028 501.548 146.117L502.341 334.372L502.301 334.622L502.3 334.625C502.079 336.083 501.953 337.771 501.846 339.464C501.737 341.162 501.647 342.864 501.496 344.373C500.893 349.955 500.004 355.5 498.833 360.986C490.963 397.125 470.645 429.11 441.635 451.029L441.634 451.03C425.995 462.903 412.12 469.227 393.834 475.188L393.726 475.189C393.429 466.847 393.556 457.811 393.521 449.418L393.328 403.579L392.752 263.377L392.535 212.341C392.503 204.261 392.807 191.276 391.998 183.353L391.916 182.602C390.648 171.346 387.256 160.455 381.934 150.541L381.413 149.585C370.42 129.782 352.251 115.26 330.877 109.202C325.185 107.579 319.335 106.613 313.435 106.324H313.436C306.336 105.912 296.24 106.265 288.996 106.3L243.767 106.504L208.894 106.656C200.699 106.691 191.784 106.406 183.684 107.59H183.683C173.53 109.1 163.739 112.538 154.808 117.726L154.328 1.88409L360.376 0.959961Z" stroke="url(#paint29_linear_49_97)" stroke-width="0.608981"/>
</mask>
<g mask="url(#mask6_49_97)">
<g filter="url(#filter12_f_49_97)">
<path d="M14.7976 461.533C-8.53137 413.266 -41.988 381.275 -59.9298 390.078C-77.8716 398.882 -73.5044 445.146 -50.1754 493.413C-26.8464 541.68 6.61022 573.672 24.552 564.868C42.4938 556.065 38.1267 509.8 14.7976 461.533Z" fill="url(#paint30_radial_49_97)"/>
</g>
<g filter="url(#filter13_f_49_97)">
<path fill-rule="evenodd" clip-rule="evenodd" d="M-4.36706 284.85C-13.1293 345.761 32.3116 428.235 93.691 440.679C15.119 414.682 -7.72198 344.829 -4.36706 284.85Z" fill="url(#paint31_radial_49_97)"/>
<mask id="mask7_49_97" style="mask-type:luminance" maskUnits="userSpaceOnUse" x="-6" y="284" width="100" height="157">
<path fill-rule="evenodd" clip-rule="evenodd" d="M-4.36706 284.85C-13.1293 345.761 32.3116 428.235 93.691 440.679C15.119 414.682 -7.72198 344.829 -4.36706 284.85Z" fill="white"/>
</mask>
<g mask="url(#mask7_49_97)">
<path d="M4.03638 286.074C-1.56592 285.258 -7.16823 284.443 -12.7705 283.627C-13.6638 290.78 -13.8402 297.935 -13.4615 305.008C-8.38033 367.031 29.7022 430.554 92.8047 445.093L95.0954 436.403C37.8501 421.257 -1.53789 364.449 -3.59251 304.743C-4.01764 298.137 -4.10539 291.503 -3.86843 284.879C-4.20086 284.86 -4.53329 284.841 -4.86572 284.822C-5.37045 291.464 -5.55044 298.141 -5.38869 304.821C-5.95115 364.802 32.3549 426.517 92.2866 444.955L94.5773 436.265C38.6703 421.629 4.5746 359.638 2.71023 304.459C2.62692 298.239 3.03962 292.068 4.03638 286.074ZM-12.7705 283.627L4.03638 286.074L-4.86572 284.822L-3.86843 284.879L-12.7705 283.627Z" fill="black"/>
</g>
</g>
<g filter="url(#filter14_f_49_97)">
<path fill-rule="evenodd" clip-rule="evenodd" d="M0.0236511 313.9C3.45455 408.071 57.9279 461.791 134.23 475.159C55.2392 453.045 8.10024 399.984 0.0236511 313.9Z" fill="url(#paint32_radial_49_97)"/>
</g>
<g filter="url(#filter15_f_49_97)">
<path fill-rule="evenodd" clip-rule="evenodd" d="M-4.98285 274.143C-12.2959 393.481 39.8684 450.862 128.064 477.815C63.5827 453.751 -8.28848 392.892 -4.98285 274.143Z" fill="url(#paint33_radial_49_97)"/>
</g>
</g>
<defs>
<filter id="filter0_f_49_97" x="417.878" y="-138.733" width="210.834" height="280.886" filterUnits="userSpaceOnUse" color-interpolation-filters="sRGB">
<feFlood flood-opacity="0" result="BackgroundImageFix"/>
<feBlend mode="normal" in="SourceGraphic" in2="BackgroundImageFix" result="shape"/>
<feGaussianBlur stdDeviation="26" result="effect1_foregroundBlur_49_97"/>
</filter>
<filter id="filter1_f_49_97" x="359.999" y="-14.1377" width="159.214" height="183.354" filterUnits="userSpaceOnUse" color-interpolation-filters="sRGB">
<feFlood flood-opacity="0" result="BackgroundImageFix"/>
<feBlend mode="normal" in="SourceGraphic" in2="BackgroundImageFix" result="shape"/>
<feGaussianBlur stdDeviation="10.5" result="effect1_foregroundBlur_49_97"/>
</filter>
<filter id="filter2_f_49_97" x="354.257" y="-12.0146" width="166.536" height="192.434" filterUnits="userSpaceOnUse" color-interpolation-filters="sRGB">
<feFlood flood-opacity="0" result="BackgroundImageFix"/>
<feBlend mode="normal" in="SourceGraphic" in2="BackgroundImageFix" result="shape"/>
<feGaussianBlur stdDeviation="8" result="effect1_foregroundBlur_49_97"/>
</filter>
<filter id="filter3_f_49_97" x="367.05" y="-9.84473" width="147.997" height="217.215" filterUnits="userSpaceOnUse" color-interpolation-filters="sRGB">
<feFlood flood-opacity="0" result="BackgroundImageFix"/>
<feBlend mode="normal" in="SourceGraphic" in2="BackgroundImageFix" result="shape"/>
<feGaussianBlur stdDeviation="2.5" result="effect1_foregroundBlur_49_97"/>
</filter>
<filter id="filter4_f_49_97" x="-123.058" y="336.994" width="210.699" height="280.972" filterUnits="userSpaceOnUse" color-interpolation-filters="sRGB">
<feFlood flood-opacity="0" result="BackgroundImageFix"/>
<feBlend mode="normal" in="SourceGraphic" in2="BackgroundImageFix" result="shape"/>
<feGaussianBlur stdDeviation="26" result="effect1_foregroundBlur_49_97"/>
</filter>
<filter id="filter5_f_49_97" x="-26.4569" y="264.646" width="141.25" height="197.186" filterUnits="userSpaceOnUse" color-interpolation-filters="sRGB">
<feFlood flood-opacity="0" result="BackgroundImageFix"/>
<feBlend mode="normal" in="SourceGraphic" in2="BackgroundImageFix" result="shape"/>
<feGaussianBlur stdDeviation="10.5" result="effect1_foregroundBlur_49_97"/>
</filter>
<filter id="filter6_f_49_97" x="-15.0219" y="298.792" width="166.353" height="192.595" filterUnits="userSpaceOnUse" color-interpolation-filters="sRGB">
<feFlood flood-opacity="0" result="BackgroundImageFix"/>
<feBlend mode="normal" in="SourceGraphic" in2="BackgroundImageFix" result="shape"/>
<feGaussianBlur stdDeviation="8" result="effect1_foregroundBlur_49_97"/>
</filter>
<filter id="filter7_f_49_97" x="-9.25714" y="271.837" width="147.785" height="217.379" filterUnits="userSpaceOnUse" color-interpolation-filters="sRGB">
<feFlood flood-opacity="0" result="BackgroundImageFix"/>
<feBlend mode="normal" in="SourceGraphic" in2="BackgroundImageFix" result="shape"/>
<feGaussianBlur stdDeviation="2.5" result="effect1_foregroundBlur_49_97"/>
</filter>
<filter id="filter8_f_49_97" x="363.572" y="-133.457" width="250.424" height="262.568" filterUnits="userSpaceOnUse" color-interpolation-filters="sRGB">
<feFlood flood-opacity="0" result="BackgroundImageFix"/>
<feBlend mode="normal" in="SourceGraphic" in2="BackgroundImageFix" result="shape"/>
<feGaussianBlur stdDeviation="26" result="effect1_foregroundBlur_49_97"/>
</filter>
<filter id="filter9_f_49_97" x="364.992" y="-12.9131" width="154.515" height="187.816" filterUnits="userSpaceOnUse" color-interpolation-filters="sRGB">
<feFlood flood-opacity="0" result="BackgroundImageFix"/>
<feBlend mode="normal" in="SourceGraphic" in2="BackgroundImageFix" result="shape"/>
<feGaussianBlur stdDeviation="10.5" result="effect1_foregroundBlur_49_97"/>
</filter>
<filter id="filter10_f_49_97" x="353.854" y="-13.9717" width="166.389" height="193.097" filterUnits="userSpaceOnUse" color-interpolation-filters="sRGB">
<feFlood flood-opacity="0" result="BackgroundImageFix"/>
<feBlend mode="normal" in="SourceGraphic" in2="BackgroundImageFix" result="shape"/>
<feGaussianBlur stdDeviation="8" result="effect1_foregroundBlur_49_97"/>
</filter>
<filter id="filter11_f_49_97" x="366.646" y="-11.8418" width="147.846" height="218.071" filterUnits="userSpaceOnUse" color-interpolation-filters="sRGB">
<feFlood flood-opacity="0" result="BackgroundImageFix"/>
<feBlend mode="normal" in="SourceGraphic" in2="BackgroundImageFix" result="shape"/>
<feGaussianBlur stdDeviation="2.5" result="effect1_foregroundBlur_49_97"/>
</filter>
<filter id="filter12_f_49_97" x="-122.98" y="336.621" width="210.582" height="281.704" filterUnits="userSpaceOnUse" color-interpolation-filters="sRGB">
<feFlood flood-opacity="0" result="BackgroundImageFix"/>
<feBlend mode="normal" in="SourceGraphic" in2="BackgroundImageFix" result="shape"/>
<feGaussianBlur stdDeviation="26" result="effect1_foregroundBlur_49_97"/>
</filter>
<filter id="filter13_f_49_97" x="-26.4505" y="263.85" width="141.142" height="197.829" filterUnits="userSpaceOnUse" color-interpolation-filters="sRGB">
<feFlood flood-opacity="0" result="BackgroundImageFix"/>
<feBlend mode="normal" in="SourceGraphic" in2="BackgroundImageFix" result="shape"/>
<feGaussianBlur stdDeviation="10.5" result="effect1_foregroundBlur_49_97"/>
</filter>
<filter id="filter14_f_49_97" x="-15.9763" y="297.9" width="166.206" height="193.259" filterUnits="userSpaceOnUse" color-interpolation-filters="sRGB">
<feFlood flood-opacity="0" result="BackgroundImageFix"/>
<feBlend mode="normal" in="SourceGraphic" in2="BackgroundImageFix" result="shape"/>
<feGaussianBlur stdDeviation="8" result="effect1_foregroundBlur_49_97"/>
</filter>
<filter id="filter15_f_49_97" x="-10.6628" y="269.143" width="143.727" height="213.672" filterUnits="userSpaceOnUse" color-interpolation-filters="sRGB">
<feFlood flood-opacity="0" result="BackgroundImageFix"/>
<feBlend mode="normal" in="SourceGraphic" in2="BackgroundImageFix" result="shape"/>
<feGaussianBlur stdDeviation="2.5" result="effect1_foregroundBlur_49_97"/>
</filter>
<radialGradient id="paint0_radial_49_97" cx="0" cy="0" r="1" gradientTransform="matrix(-1.2707 -236.509 173.792 -0.983971 327.461 239.464)" gradientUnits="userSpaceOnUse">
<stop stop-color="white"/>
<stop offset="1" stop-color="#999999"/>
</radialGradient>
<linearGradient id="paint1_linear_49_97" x1="454.338" y1="159.318" x2="495.476" y2="123.919" gradientUnits="userSpaceOnUse">
<stop stop-color="white" stop-opacity="0"/>
<stop offset="1" stop-color="white"/>
</linearGradient>
<radialGradient id="paint2_radial_49_97" cx="0" cy="0" r="1" gradientTransform="matrix(-1.2707 -236.509 173.8 -0.984017 175.07 240.325)" gradientUnits="userSpaceOnUse">
<stop stop-color="white"/>
<stop offset="1" stop-color="#999999"/>
</radialGradient>
<linearGradient id="paint3_linear_49_97" x1="133.48" y1="368.527" x2="83.2242" y2="432.911" gradientUnits="userSpaceOnUse">
<stop stop-color="white" stop-opacity="0"/>
<stop offset="1" stop-color="white"/>
</linearGradient>
<radialGradient id="paint4_radial_49_97" cx="0" cy="0" r="1" gradientTransform="matrix(-32.5039 15.9133 -42.3861 -86.9839 523.295 1.70964)" gradientUnits="userSpaceOnUse">
<stop stop-color="white"/>
<stop offset="1" stop-color="#999999"/>
</radialGradient>
<radialGradient id="paint5_radial_49_97" cx="0" cy="0" r="1" gradientTransform="matrix(-58.1524 0.362314 -0.460705 -71.0392 439.612 77.5392)" gradientUnits="userSpaceOnUse">
<stop stop-color="white"/>
<stop offset="1" stop-color="#999999"/>
</radialGradient>
<radialGradient id="paint6_radial_49_97" cx="0" cy="0" r="1" gradientTransform="matrix(-62.9712 3.28003 -4.30845 -83.4959 437.537 84.2013)" gradientUnits="userSpaceOnUse">
<stop stop-color="white"/>
<stop offset="1" stop-color="#999999"/>
</radialGradient>
<radialGradient id="paint7_radial_49_97" cx="0" cy="0" r="1" gradientTransform="matrix(-69.6812 -0.49597 0.758099 -103.113 440.973 98.7643)" gradientUnits="userSpaceOnUse">
<stop stop-color="white"/>
<stop offset="1" stop-color="#999999"/>
</radialGradient>
<radialGradient id="paint8_radial_49_97" cx="0" cy="0" r="1" gradientTransform="matrix(1.00136 236.511 -173.793 0.775409 176.592 239.957)" gradientUnits="userSpaceOnUse">
<stop stop-color="white"/>
<stop offset="1" stop-color="#999999"/>
</radialGradient>
<linearGradient id="paint9_linear_49_97" x1="49.6239" y1="319.951" x2="8.44566" y2="355.301" gradientUnits="userSpaceOnUse">
<stop stop-color="white" stop-opacity="0"/>
<stop offset="1" stop-color="white"/>
</linearGradient>
<linearGradient id="paint10_linear_49_97" x1="370.72" y1="111.126" x2="421.05" y2="46.8035" gradientUnits="userSpaceOnUse">
<stop stop-color="white" stop-opacity="0"/>
<stop offset="1" stop-color="white"/>
</linearGradient>
<radialGradient id="paint11_radial_49_97" cx="0" cy="0" r="1" gradientTransform="matrix(32.522 -15.8743 42.287 87.0347 -17.709 477.48)" gradientUnits="userSpaceOnUse">
<stop stop-color="white"/>
<stop offset="1" stop-color="#999999"/>
</radialGradient>
<radialGradient id="paint12_radial_49_97" cx="0" cy="0" r="1" gradientTransform="matrix(57.7214 7.08027 -8.62701 70.5144 44.6983 363.237)" gradientUnits="userSpaceOnUse">
<stop stop-color="white"/>
<stop offset="1" stop-color="#999999"/>
</radialGradient>
<radialGradient id="paint13_radial_49_97" cx="0" cy="0" r="1" gradientTransform="matrix(62.9749 -3.20445 4.21336 83.5011 68.1426 395.09)" gradientUnits="userSpaceOnUse">
<stop stop-color="white"/>
<stop offset="1" stop-color="#999999"/>
</radialGradient>
<radialGradient id="paint14_radial_49_97" cx="0" cy="0" r="1" gradientTransform="matrix(69.6806 0.579592 -0.875523 103.112 64.7229 380.524)" gradientUnits="userSpaceOnUse">
<stop stop-color="white"/>
<stop offset="1" stop-color="#999999"/>
</radialGradient>
<radialGradient id="paint15_radial_49_97" cx="0" cy="0" r="1" gradientTransform="matrix(126.256 -123.128 90.4828 97.7734 40.597 426.912)" gradientUnits="userSpaceOnUse">
<stop stop-color="#18CCFC"/>
<stop offset="1" stop-color="#5ADCFF" stop-opacity="0"/>
</radialGradient>
<radialGradient id="paint16_radial_49_97" cx="0" cy="0" r="1" gradientTransform="matrix(-130.77 115.725 -91.7166 -109.216 466.261 60.2934)" gradientUnits="userSpaceOnUse">
<stop offset="0.104002" stop-color="#18CCFC"/>
<stop offset="1" stop-color="#5ADCFF" stop-opacity="0"/>
</radialGradient>
<radialGradient id="paint17_radial_49_97" cx="0" cy="0" r="1" gradientUnits="userSpaceOnUse" gradientTransform="translate(40.4999 432.137) rotate(-43.5002) scale(185.422 140.541)">
<stop stop-color="#18CCFC"/>
<stop offset="1" stop-color="#5ADCFF" stop-opacity="0"/>
</radialGradient>
<radialGradient id="paint18_radial_49_97" cx="0" cy="0" r="1" gradientTransform="matrix(-1.26931 -237.488 173.602 -0.988043 327.105 238.477)" gradientUnits="userSpaceOnUse">
<stop stop-color="white"/>
<stop offset="1" stop-color="#999999"/>
</radialGradient>
<linearGradient id="paint19_linear_49_97" x1="453.843" y1="157.999" x2="495.119" y2="122.666" gradientUnits="userSpaceOnUse">
<stop stop-color="white" stop-opacity="0"/>
<stop offset="1" stop-color="white"/>
</linearGradient>
<radialGradient id="paint20_radial_49_97" cx="0" cy="0" r="1" gradientTransform="matrix(-1.26931 -237.488 173.61 -0.988089 174.88 239.342)" gradientUnits="userSpaceOnUse">
<stop stop-color="white"/>
<stop offset="1" stop-color="#999999"/>
</radialGradient>
<linearGradient id="paint21_linear_49_97" x1="133.334" y1="368.074" x2="82.8078" y2="432.469" gradientUnits="userSpaceOnUse">
<stop stop-color="white" stop-opacity="0"/>
<stop offset="1" stop-color="white"/>
</linearGradient>
<radialGradient id="paint22_radial_49_97" cx="0" cy="0" r="1" gradientTransform="matrix(-30.039 27.2646 -66.746 -74.426 488.784 -2.1727)" gradientUnits="userSpaceOnUse">
<stop stop-color="white"/>
<stop offset="1" stop-color="#999999"/>
</radialGradient>
<radialGradient id="paint23_radial_49_97" cx="0" cy="0" r="1" gradientTransform="matrix(-58.0725 -1.60336 1.86145 -71.305 442.203 80.9953)" gradientUnits="userSpaceOnUse">
<stop stop-color="white"/>
<stop offset="1" stop-color="#999999"/>
</radialGradient>
<radialGradient id="paint24_radial_49_97" cx="0" cy="0" r="1" gradientTransform="matrix(-62.9026 3.2936 -4.30375 -83.8415 437.061 82.5762)" gradientUnits="userSpaceOnUse">
<stop stop-color="white"/>
<stop offset="1" stop-color="#999999"/>
</radialGradient>
<radialGradient id="paint25_radial_49_97" cx="0" cy="0" r="1" gradientTransform="matrix(-69.6053 -0.498023 0.757273 -103.54 440.494 97.1961)" gradientUnits="userSpaceOnUse">
<stop stop-color="white"/>
<stop offset="1" stop-color="#999999"/>
</radialGradient>
<radialGradient id="paint26_radial_49_97" cx="0" cy="0" r="1" gradientTransform="matrix(1.00027 237.489 -173.603 0.778618 176.4 238.975)" gradientUnits="userSpaceOnUse">
<stop stop-color="white"/>
<stop offset="1" stop-color="#999999"/>
</radialGradient>
<linearGradient id="paint27_linear_49_97" x1="49.5707" y1="319.3" x2="8.25531" y2="354.583" gradientUnits="userSpaceOnUse">
<stop stop-color="white" stop-opacity="0"/>
<stop offset="1" stop-color="white"/>
</linearGradient>
<radialGradient id="paint28_radial_49_97" cx="0" cy="0" r="1" gradientTransform="matrix(-221.616 113.416 2.89429 6.02233 502.69 105.981)" gradientUnits="userSpaceOnUse">
<stop stop-color="#5ADCFF"/>
<stop offset="1" stop-color="#18CCFC" stop-opacity="0"/>
</radialGradient>
<linearGradient id="paint29_linear_49_97" x1="370.317" y1="109.61" x2="420.918" y2="45.277" gradientUnits="userSpaceOnUse">
<stop stop-color="white" stop-opacity="0"/>
<stop offset="1" stop-color="white"/>
</linearGradient>
<radialGradient id="paint30_radial_49_97" cx="0" cy="0" r="1" gradientTransform="matrix(32.4865 -15.94 42.2409 87.3949 -17.6889 477.473)" gradientUnits="userSpaceOnUse">
<stop stop-color="white"/>
<stop offset="1" stop-color="#999999"/>
</radialGradient>
<radialGradient id="paint31_radial_49_97" cx="0" cy="0" r="1" gradientTransform="matrix(57.6585 7.10958 -8.6176 70.8062 44.6501 362.763)" gradientUnits="userSpaceOnUse">
<stop stop-color="white"/>
<stop offset="1" stop-color="#999999"/>
</radialGradient>
<radialGradient id="paint32_radial_49_97" cx="0" cy="0" r="1" gradientTransform="matrix(62.9063 -3.21772 4.20877 83.8466 67.115 394.53)" gradientUnits="userSpaceOnUse">
<stop stop-color="white"/>
<stop offset="1" stop-color="#999999"/>
</radialGradient>
<radialGradient id="paint33_radial_49_97" cx="0" cy="0" r="1" gradientTransform="matrix(67.6205 0.575103 -0.841146 101.263 61.2846 375.977)" gradientUnits="userSpaceOnUse">
<stop stop-color="white"/>
<stop offset="1" stop-color="#999999"/>
</radialGradient>
</defs>
</svg>
