<svg width="504" height="480" viewBox="0 0 504 480" fill="none" xmlns="http://www.w3.org/2000/svg">
<mask id="mask0_49_17" style="mask-type:alpha" maskUnits="userSpaceOnUse" x="0" y="4" width="502" height="475">
<path d="M392.968 476.995C392.429 454.996 392.659 431.846 392.545 409.771L391.968 264.74L391.968 264.739L391.711 217.486C391.639 204.647 392.221 189.626 389.582 177.154C386.012 160.281 377.525 144.913 365.241 133.078C354.883 123.036 342.189 115.881 328.374 112.286L327.034 111.949C314.866 109.009 304.849 109.658 292.566 109.729L292.565 109.729L260.94 109.914L215.989 110.167C208.035 110.212 199.748 110.317 191.84 110.338C186.172 110.353 178.766 111.569 171.613 113.59C164.826 115.508 158.223 118.163 153.518 121.239L152.878 6.27382L360.236 5.0998C361.054 5.29437 362.461 5.46443 363.852 5.6057C365.323 5.7552 366.732 5.87028 367.619 5.96329C371.16 6.33285 374.686 6.84345 378.189 7.49233C397.668 11.1094 416.244 18.6582 432.834 29.6931L434.432 30.7719C465.248 51.8941 487.256 84.0282 496.144 120.888L496.143 120.888C497.503 126.578 498.503 132.265 499.275 138.071C499.485 139.646 499.575 141.37 499.695 143.116C499.813 144.833 499.959 146.565 500.281 148.13L501.295 336.805C501.15 337.441 501.045 338.541 500.968 339.617C500.888 340.744 500.833 341.897 500.797 342.568C500.636 345.525 500.411 347.93 500.017 350.871L500.016 350.872C498.349 363.573 495.099 376.004 490.347 387.86L490.347 387.861C476.302 423.072 449.901 451.631 416.335 467.93L416.332 467.932C411.645 470.254 406.83 472.295 401.912 474.044L401.913 474.045C400.533 474.523 398.966 474.967 397.39 475.448C395.862 475.914 394.333 476.413 393.026 476.995L392.968 476.995Z" fill="url(#paint0_radial_49_17)"/>
<path d="M392.968 476.995C392.429 454.996 392.659 431.846 392.545 409.771L391.968 264.74L391.968 264.739L391.711 217.486C391.639 204.647 392.221 189.626 389.582 177.154C386.012 160.281 377.525 144.913 365.241 133.078C354.883 123.036 342.189 115.881 328.374 112.286L327.034 111.949C314.866 109.009 304.849 109.658 292.566 109.729L292.565 109.729L260.94 109.914L215.989 110.167C208.035 110.212 199.748 110.317 191.84 110.338C186.172 110.353 178.766 111.569 171.613 113.59C164.826 115.508 158.223 118.163 153.518 121.239L152.878 6.27382L360.236 5.0998C361.054 5.29437 362.461 5.46443 363.852 5.6057C365.323 5.7552 366.732 5.87028 367.619 5.96329C371.16 6.33285 374.686 6.84345 378.189 7.49233C397.668 11.1094 416.244 18.6582 432.834 29.6931L434.432 30.7719C465.248 51.8941 487.256 84.0282 496.144 120.888L496.143 120.888C497.503 126.578 498.503 132.265 499.275 138.071C499.485 139.646 499.575 141.37 499.695 143.116C499.813 144.833 499.959 146.565 500.281 148.13L501.295 336.805C501.15 337.441 501.045 338.541 500.968 339.617C500.888 340.744 500.833 341.897 500.797 342.568C500.636 345.525 500.411 347.93 500.017 350.871L500.016 350.872C498.349 363.573 495.099 376.004 490.347 387.86L490.347 387.861C476.302 423.072 449.901 451.631 416.335 467.93L416.332 467.932C411.645 470.254 406.83 472.295 401.912 474.044L401.913 474.045C400.533 474.523 398.966 474.967 397.39 475.448C395.862 475.914 394.333 476.413 393.026 476.995L392.968 476.995Z" stroke="#B5B5B5" stroke-opacity="0.24" stroke-width="0.952101"/>
<path d="M392.968 476.995C392.429 454.996 392.659 431.846 392.545 409.771L391.968 264.74L391.968 264.739L391.711 217.486C391.639 204.647 392.221 189.626 389.582 177.154C386.012 160.281 377.525 144.913 365.241 133.078C354.883 123.036 342.189 115.881 328.374 112.286L327.034 111.949C314.866 109.009 304.849 109.658 292.566 109.729L292.565 109.729L260.94 109.914L215.989 110.167C208.035 110.212 199.748 110.317 191.84 110.338C186.172 110.353 178.766 111.569 171.613 113.59C164.826 115.508 158.223 118.163 153.518 121.239L152.878 6.27382L360.236 5.0998C361.054 5.29437 362.461 5.46443 363.852 5.6057C365.323 5.7552 366.732 5.87028 367.619 5.96329C371.16 6.33285 374.686 6.84345 378.189 7.49233C397.668 11.1094 416.244 18.6582 432.834 29.6931L434.432 30.7719C465.248 51.8941 487.256 84.0282 496.144 120.888L496.143 120.888C497.503 126.578 498.503 132.265 499.275 138.071C499.485 139.646 499.575 141.37 499.695 143.116C499.813 144.833 499.959 146.565 500.281 148.13L501.295 336.805C501.15 337.441 501.045 338.541 500.968 339.617C500.888 340.744 500.833 341.897 500.797 342.568C500.636 345.525 500.411 347.93 500.017 350.871L500.016 350.872C498.349 363.573 495.099 376.004 490.347 387.86L490.347 387.861C476.302 423.072 449.901 451.631 416.335 467.93L416.332 467.932C411.645 470.254 406.83 472.295 401.912 474.044L401.913 474.045C400.533 474.523 398.966 474.967 397.39 475.448C395.862 475.914 394.333 476.413 393.026 476.995L392.968 476.995Z" stroke="url(#paint1_linear_49_17)" stroke-width="0.952101"/>
<path d="M143.555 478.578C141.98 478.28 140.342 478.159 138.715 478.063C137.07 477.966 135.439 477.895 133.863 477.696C128.481 477.018 123.157 476.121 117.872 474.889C82.0384 466.512 50.4822 444.898 29.248 414.185C16.7307 396.08 8.22687 375.396 4.33023 353.577C3.71326 350.015 3.28461 346.723 2.89134 343.144C2.76264 341.97 2.67003 340.274 2.55142 338.587C2.43486 336.929 2.29251 335.274 2.06392 334.189L1.05666 146.712L1.09731 146.462L1.0973 146.46C1.31709 145.008 1.44097 143.327 1.547 141.64C1.65329 139.949 1.74183 138.254 1.89085 136.751C2.48779 131.192 3.37144 125.668 4.53831 120.204C12.3751 84.2046 32.679 52.3273 61.6957 30.4638L61.6966 30.4628C77.3394 18.6206 91.2219 12.3053 109.521 6.34697L109.631 6.34634C109.938 14.6529 109.819 23.6513 109.865 32.0095L110.11 77.6602L110.847 217.283L111.122 268.108C111.164 276.414 110.853 289.926 111.775 297.724C113.057 308.933 116.465 319.774 121.804 329.641L122.327 330.593C133.182 349.994 150.993 364.288 171.963 370.46L172.964 370.748C178.664 372.359 184.521 373.313 190.428 373.595L190.427 373.595C197.535 373.997 207.641 373.632 214.893 373.588L260.17 373.33L295.082 373.138C303.286 373.093 312.21 373.367 320.318 372.178L320.318 372.177C330.482 370.661 340.28 367.226 349.215 362.049L349.827 477.41L143.555 478.578Z" fill="url(#paint2_radial_49_17)"/>
<path d="M143.555 478.578C141.98 478.28 140.342 478.159 138.715 478.063C137.07 477.966 135.439 477.895 133.863 477.696C128.481 477.018 123.157 476.121 117.872 474.889C82.0384 466.512 50.4822 444.898 29.248 414.185C16.7307 396.08 8.22687 375.396 4.33023 353.577C3.71326 350.015 3.28461 346.723 2.89134 343.144C2.76264 341.97 2.67003 340.274 2.55142 338.587C2.43486 336.929 2.29251 335.274 2.06392 334.189L1.05666 146.712L1.09731 146.462L1.0973 146.46C1.31709 145.008 1.44097 143.327 1.547 141.64C1.65329 139.949 1.74183 138.254 1.89085 136.751C2.48779 131.192 3.37144 125.668 4.53831 120.204C12.3751 84.2046 32.679 52.3273 61.6957 30.4638L61.6966 30.4628C77.3394 18.6206 91.2219 12.3053 109.521 6.34697L109.631 6.34634C109.938 14.6529 109.819 23.6513 109.865 32.0095L110.11 77.6602L110.847 217.283L111.122 268.108C111.164 276.414 110.853 289.926 111.775 297.724C113.057 308.933 116.465 319.774 121.804 329.641L122.327 330.593C133.182 349.994 150.993 364.288 171.963 370.46L172.964 370.748C178.664 372.359 184.521 373.313 190.428 373.595L190.427 373.595C197.535 373.997 207.641 373.632 214.893 373.588L260.17 373.33L295.082 373.138C303.286 373.093 312.21 373.367 320.318 372.178L320.318 372.177C330.482 370.661 340.28 367.226 349.215 362.049L349.827 477.41L143.555 478.578Z" stroke="#B5B5B5" stroke-opacity="0.24" stroke-width="0.608981"/>
<path d="M143.555 478.578C141.98 478.28 140.342 478.159 138.715 478.063C137.07 477.966 135.439 477.895 133.863 477.696C128.481 477.018 123.157 476.121 117.872 474.889C82.0384 466.512 50.4822 444.898 29.248 414.185C16.7307 396.08 8.22687 375.396 4.33023 353.577C3.71326 350.015 3.28461 346.723 2.89134 343.144C2.76264 341.97 2.67003 340.274 2.55142 338.587C2.43486 336.929 2.29251 335.274 2.06392 334.189L1.05666 146.712L1.09731 146.462L1.0973 146.46C1.31709 145.008 1.44097 143.327 1.547 141.64C1.65329 139.949 1.74183 138.254 1.89085 136.751C2.48779 131.192 3.37144 125.668 4.53831 120.204C12.3751 84.2046 32.679 52.3273 61.6957 30.4638L61.6966 30.4628C77.3394 18.6206 91.2219 12.3053 109.521 6.34697L109.631 6.34634C109.938 14.6529 109.819 23.6513 109.865 32.0095L110.11 77.6602L110.847 217.283L111.122 268.108C111.164 276.414 110.853 289.926 111.775 297.724C113.057 308.933 116.465 319.774 121.804 329.641L122.327 330.593C133.182 349.994 150.993 364.288 171.963 370.46L172.964 370.748C178.664 372.359 184.521 373.313 190.428 373.595L190.427 373.595C197.535 373.997 207.641 373.632 214.893 373.588L260.17 373.33L295.082 373.138C303.286 373.093 312.21 373.367 320.318 372.178L320.318 372.177C330.482 370.661 340.28 367.226 349.215 362.049L349.827 477.41L143.555 478.578Z" stroke="url(#paint3_linear_49_17)" stroke-width="0.608981"/>
</mask>
<g mask="url(#mask0_49_17)">
<g filter="url(#filter0_f_49_17)">
<path d="M490.792 19.4858C514.201 67.5257 547.73 99.3451 565.681 90.5564C583.633 81.7677 579.208 35.6991 555.799 -12.3408C532.39 -60.3807 498.861 -92.2001 480.909 -83.4114C462.958 -74.6227 467.382 -28.5541 490.792 19.4858Z" fill="url(#paint4_radial_49_17)"/>
</g>
<g filter="url(#filter1_f_49_17)">
<mask id="path-4-inside-1_49_17" fill="white">
<path fill-rule="evenodd" clip-rule="evenodd" d="M498.202 150.079C499.145 88.7949 443.525 13.1553 380.999 8.72512C462.321 24.3393 493.895 90.4088 498.202 150.079Z"/>
</mask>
<path fill-rule="evenodd" clip-rule="evenodd" d="M498.202 150.079C499.145 88.7949 443.525 13.1553 380.999 8.72512C462.321 24.3393 493.895 90.4088 498.202 150.079Z" fill="url(#paint5_radial_49_17)"/>
<path d="M489.705 149.946C495.369 150.035 501.034 150.123 506.698 150.212C506.674 143.018 505.936 135.913 504.655 128.963C491.675 68.2256 445.653 10.4595 381.316 4.23689L380.153 13.144C438.778 20.7376 485.226 71.6822 494.895 130.502C496.16 136.981 497.094 143.531 497.703 150.115C498.035 150.091 498.368 150.067 498.7 150.043C498.355 143.408 497.681 136.779 496.667 130.193C489.563 70.7558 443.536 14.8063 381.845 4.30628L380.683 13.2133C437.931 20.4713 479.772 77.2597 488.676 131.598C489.554 137.737 489.931 143.891 489.705 149.946ZM506.698 150.212L489.705 149.946L498.7 150.043L497.703 150.115L506.698 150.212Z" fill="black" mask="url(#path-4-inside-1_49_17)"/>
</g>
<g filter="url(#filter2_f_49_17)">
<path fill-rule="evenodd" clip-rule="evenodd" d="M504.793 166.281C501.252 72.5031 446.658 19.0695 370.257 5.84814C451.034 25.6943 498.11 78.7085 504.793 166.281Z" fill="url(#paint6_radial_49_17)"/>
</g>
<g filter="url(#filter3_f_49_17)">
<path fill-rule="evenodd" clip-rule="evenodd" d="M509.369 204.233C516.777 82.7066 462.962 24.347 372.05 -2.98169C438.522 21.4367 512.648 83.3108 509.369 204.233Z" fill="url(#paint7_radial_49_17)"/>
</g>
</g>
<mask id="mask1_49_17" style="mask-type:alpha" maskUnits="userSpaceOnUse" x="2" y="4" width="502" height="475">
<path d="M111.354 6.07224C111.867 28.0725 111.611 51.2217 111.7 73.2969L112.112 218.329L112.112 218.33L112.315 265.583C112.372 278.422 111.773 293.442 114.398 305.917C117.893 322.531 126.154 337.693 138.117 349.465L138.689 350.023C149.035 360.077 161.721 367.247 175.531 370.859L176.872 371.198C189.036 374.152 199.053 373.515 211.337 373.459L242.963 373.312L287.914 373.112C295.869 373.077 304.156 372.982 312.063 372.97C317.732 372.962 325.139 371.755 332.295 369.742C339.083 367.833 345.69 365.186 350.398 362.116L350.908 477.081L143.548 478.007C142.73 477.811 141.323 477.639 139.933 477.496C138.462 477.345 137.053 477.228 136.166 477.134C132.625 476.76 129.099 476.246 125.597 475.592C105.494 471.835 86.3592 463.888 69.381 452.245C38.5893 431.086 16.618 398.926 7.77199 362.056L7.77297 362.055C6.41956 356.364 5.42604 350.677 4.66014 344.87C4.45231 343.294 4.36388 341.569 4.24619 339.823C4.13047 338.106 3.98613 336.374 3.66539 334.809L2.86655 146.133C3.01201 145.497 3.11813 144.397 3.19645 143.321C3.27844 142.194 3.33419 141.041 3.37146 140.37C3.53567 137.413 3.76279 135.009 4.16053 132.068L4.16151 132.067C5.84345 119.368 9.10726 106.941 13.8732 95.0901L13.8732 95.0891C27.9579 59.8954 54.3913 31.3679 87.9757 15.1092L87.9786 15.1073C92.6681 12.7907 97.4857 10.7557 102.406 9.01258L102.405 9.0116C103.785 8.53494 105.353 8.09312 106.929 7.61445C108.458 7.15023 109.987 6.65297 111.295 6.0725L111.354 6.07224Z" fill="url(#paint8_radial_49_17)"/>
<path d="M111.354 6.07224C111.867 28.0725 111.611 51.2217 111.7 73.2969L112.112 218.329L112.112 218.33L112.315 265.583C112.372 278.422 111.773 293.442 114.398 305.917C117.893 322.531 126.154 337.693 138.117 349.465L138.689 350.023C149.035 360.077 161.721 367.247 175.531 370.859L176.872 371.198C189.036 374.152 199.053 373.515 211.337 373.459L242.963 373.312L287.914 373.112C295.869 373.077 304.156 372.982 312.063 372.97C317.732 372.962 325.139 371.755 332.295 369.742C339.083 367.833 345.69 365.186 350.398 362.116L350.908 477.081L143.548 478.007C142.73 477.811 141.323 477.639 139.933 477.496C138.462 477.345 137.053 477.228 136.166 477.134C132.625 476.76 129.099 476.246 125.597 475.592C105.494 471.835 86.3592 463.888 69.381 452.245C38.5893 431.086 16.618 398.926 7.77199 362.056L7.77297 362.055C6.41956 356.364 5.42604 350.677 4.66014 344.87C4.45231 343.294 4.36388 341.569 4.24619 339.823C4.13047 338.106 3.98613 336.374 3.66539 334.809L2.86655 146.133C3.01201 145.497 3.11813 144.397 3.19645 143.321C3.27844 142.194 3.33419 141.041 3.37146 140.37C3.53567 137.413 3.76279 135.009 4.16053 132.068L4.16151 132.067C5.84345 119.368 9.10726 106.941 13.8732 95.0901L13.8732 95.0891C27.9579 59.8954 54.3913 31.3679 87.9757 15.1092L87.9786 15.1073C92.6681 12.7907 97.4857 10.7557 102.406 9.01258L102.405 9.0116C103.785 8.53494 105.353 8.09312 106.929 7.61445C108.458 7.15023 109.987 6.65297 111.295 6.0725L111.354 6.07224Z" stroke="#B5B5B5" stroke-opacity="0.24" stroke-width="0.952101"/>
<path d="M111.354 6.07224C111.867 28.0725 111.611 51.2217 111.7 73.2969L112.112 218.329L112.112 218.33L112.315 265.583C112.372 278.422 111.773 293.442 114.398 305.917C117.893 322.531 126.154 337.693 138.117 349.465L138.689 350.023C149.035 360.077 161.721 367.247 175.531 370.859L176.872 371.198C189.036 374.152 199.053 373.515 211.337 373.459L242.963 373.312L287.914 373.112C295.869 373.077 304.156 372.982 312.063 372.97C317.732 372.962 325.139 371.755 332.295 369.742C339.083 367.833 345.69 365.186 350.398 362.116L350.908 477.081L143.548 478.007C142.73 477.811 141.323 477.639 139.933 477.496C138.462 477.345 137.053 477.228 136.166 477.134C132.625 476.76 129.099 476.246 125.597 475.592C105.494 471.835 86.3592 463.888 69.381 452.245C38.5893 431.086 16.618 398.926 7.77199 362.056L7.77297 362.055C6.41956 356.364 5.42604 350.677 4.66014 344.87C4.45231 343.294 4.36388 341.569 4.24619 339.823C4.13047 338.106 3.98613 336.374 3.66539 334.809L2.86655 146.133C3.01201 145.497 3.11813 144.397 3.19645 143.321C3.27844 142.194 3.33419 141.041 3.37146 140.37C3.53567 137.413 3.76279 135.009 4.16053 132.068L4.16151 132.067C5.84345 119.368 9.10726 106.941 13.8732 95.0901L13.8732 95.0891C27.9579 59.8954 54.3913 31.3679 87.9757 15.1092L87.9786 15.1073C92.6681 12.7907 97.4857 10.7557 102.406 9.01258L102.405 9.0116C103.785 8.53494 105.353 8.09312 106.929 7.61445C108.458 7.15023 109.987 6.65297 111.295 6.0725L111.354 6.07224Z" stroke="url(#paint9_linear_49_17)" stroke-width="0.952101"/>
<path d="M360.768 4.78872C362.343 5.08876 363.98 5.21143 365.607 5.30913C367.252 5.40787 368.883 5.4816 370.459 5.68202C375.84 6.36665 381.162 7.27044 386.445 8.50818C422.27 16.9284 453.802 38.5803 475.002 69.3188C487.498 87.4385 495.979 108.133 499.85 129.957C500.31 132.629 500.664 135.148 500.976 137.751L501.277 140.392C501.405 141.565 501.495 143.262 501.612 144.95C501.727 146.605 501.867 148.257 502.094 149.342L502.887 336.831L502.847 337.075L502.847 337.078C502.626 338.53 502.5 340.21 502.392 341.897C502.284 343.587 502.193 345.282 502.043 346.785C501.439 352.344 500.55 357.866 499.376 363.329C491.499 399.319 471.159 431.173 442.117 453.002L442.116 453.002C426.459 464.825 412.569 471.124 394.263 477.06L394.154 477.06C393.857 468.754 393.984 459.755 393.949 451.397L393.756 405.746L393.179 266.122L392.962 215.298C392.928 206.992 393.255 193.48 392.342 185.681C391.073 174.47 387.677 163.625 382.349 153.752L381.828 152.799L381.306 151.878C370.429 132.932 352.867 118.971 332.236 112.872L331.236 112.583C325.538 110.966 319.682 110.004 313.776 109.715L313.777 109.715C306.669 109.305 296.562 109.657 289.31 109.693L244.033 109.897L209.121 110.046C200.917 110.082 191.993 109.797 183.884 110.976L183.883 110.977C173.718 112.481 163.917 115.904 154.976 121.07L154.495 5.70905L360.768 4.78872Z" stroke="#B5B5B5" stroke-opacity="0.24" stroke-width="0.608981"/>
<path d="M360.768 4.78872C362.343 5.08876 363.98 5.21143 365.607 5.30913C367.252 5.40787 368.883 5.4816 370.459 5.68202C375.84 6.36665 381.162 7.27044 386.445 8.50818C422.27 16.9284 453.802 38.5803 475.002 69.3188C487.498 87.4385 495.979 108.133 499.85 129.957C500.31 132.629 500.664 135.148 500.976 137.751L501.277 140.392C501.405 141.565 501.495 143.262 501.612 144.95C501.727 146.605 501.867 148.257 502.094 149.342L502.887 336.831L502.847 337.075L502.847 337.078C502.626 338.53 502.5 340.21 502.392 341.897C502.284 343.587 502.193 345.282 502.043 346.785C501.439 352.344 500.55 357.866 499.376 363.329C491.499 399.319 471.159 431.173 442.117 453.002L442.116 453.002C426.459 464.825 412.569 471.124 394.263 477.06L394.154 477.06C393.857 468.754 393.984 459.755 393.949 451.397L393.756 405.746L393.179 266.122L392.962 215.298C392.928 206.992 393.255 193.48 392.342 185.681C391.073 174.47 387.677 163.625 382.349 153.752L381.828 152.799L381.306 151.878C370.429 132.932 352.867 118.971 332.236 112.872L331.236 112.583C325.538 110.966 319.682 110.004 313.776 109.715L313.777 109.715C306.669 109.305 296.562 109.657 289.31 109.693L244.033 109.897L209.121 110.046C200.917 110.082 191.993 109.797 183.884 110.976L183.883 110.977C173.718 112.481 163.917 115.904 154.976 121.07L154.495 5.70905L360.768 4.78872Z" stroke="url(#paint10_linear_49_17)" stroke-width="0.608981"/>
</mask>
<g mask="url(#mask1_49_17)">
<g filter="url(#filter4_f_49_17)">
<path d="M14.8129 463.469C-8.5415 415.401 -42.0346 383.541 -59.996 392.308C-77.9574 401.075 -73.5854 447.149 -50.231 495.217C-26.8765 543.285 6.61659 575.145 24.578 566.378C42.5393 557.611 38.1674 511.537 14.8129 463.469Z" fill="url(#paint11_radial_49_17)"/>
</g>
<g filter="url(#filter5_f_49_17)">
<mask id="path-11-inside-2_49_17" fill="white">
<path fill-rule="evenodd" clip-rule="evenodd" d="M-4.37226 287.508C-13.144 348.168 32.3463 430.302 93.7927 442.695C15.135 416.805 -7.73084 347.239 -4.37226 287.508Z"/>
</mask>
<path fill-rule="evenodd" clip-rule="evenodd" d="M-4.37226 287.508C-13.144 348.168 32.3463 430.302 93.7927 442.695C15.135 416.805 -7.73084 347.239 -4.37226 287.508Z" fill="url(#paint12_radial_49_17)"/>
<path d="M4.03735 288.727C-1.56906 287.915 -7.17546 287.102 -12.7819 286.289C-13.6783 293.428 -13.8544 300.568 -13.4731 307.625C-8.36641 369.524 29.8918 432.703 92.905 447.106L95.1971 438.42C38.0238 423.389 -1.52762 366.921 -3.59576 307.348C-4.02279 300.76 -4.11105 294.144 -3.87322 287.537C-4.20591 287.518 -4.53861 287.499 -4.87131 287.48C-5.37714 294.105 -5.55683 300.766 -5.39338 307.428C-5.94827 367.285 32.5466 428.663 92.3884 446.969L94.6805 438.284C38.8303 423.762 4.59414 362.087 2.71145 307.056C2.62625 300.855 3.03873 294.703 4.03735 288.727ZM-12.7819 286.289L4.03735 288.727L-4.87131 287.48L-3.87322 287.537L-12.7819 286.289Z" fill="black" mask="url(#path-11-inside-2_49_17)"/>
</g>
<g filter="url(#filter6_f_49_17)">
<path fill-rule="evenodd" clip-rule="evenodd" d="M0.978101 316.656C4.41274 410.438 58.9455 463.937 135.331 477.25C54.5766 457.307 7.56126 404.237 0.978101 316.656Z" fill="url(#paint13_radial_49_17)"/>
</g>
<g filter="url(#filter7_f_49_17)">
<path fill-rule="evenodd" clip-rule="evenodd" d="M-3.55459 278.7C-11.1008 400.217 42.6478 458.641 133.528 486.079C67.0843 461.581 -6.97119 399.618 -3.55459 278.7Z" fill="url(#paint14_radial_49_17)"/>
</g>
</g>
<path d="M109.397 3.04578L110.022 3.043C110.551 25.1885 110.29 48.523 110.38 70.744L110.797 215.776L111.001 263.03C111.059 275.906 110.463 290.854 113.075 303.267C116.607 320.053 125.03 335.347 137.233 347.129C147.853 357.45 160.951 364.714 175.198 368.185C187.292 371.123 197.236 370.49 209.549 370.435L241.175 370.289L286.125 370.09C294.074 370.055 302.369 369.961 310.276 369.949C321.502 369.933 339.724 365.162 349.084 358.683L349.603 475.012L141.717 475.933C140.184 475.547 136.069 475.241 134.332 475.056C130.779 474.681 127.241 474.165 123.726 473.509C103.557 469.739 84.3602 461.766 67.3273 450.085C36.4362 428.857 14.3968 396.594 5.52273 359.611C4.16469 353.9 3.16862 348.197 2.40081 342.377C1.97984 339.186 2.04281 335.387 1.40235 332.304L0.597161 143.527C0.880852 142.37 1.02777 139.14 1.10276 137.789C1.26757 134.819 1.49578 132.402 1.89515 129.449C3.58192 116.711 6.85549 104.245 11.636 92.3573C25.763 57.0558 52.278 28.4384 85.9706 12.1282C90.6768 9.80346 95.5113 7.76127 100.449 6.012C103.233 5.0501 106.801 4.21586 109.397 3.04578Z" fill="url(#paint15_radial_49_17)" fill-opacity="0.21"/>
<path d="M153.324 3.83105H359.393C362.508 4.44522 365.9 4.35125 369.067 4.76906C374.44 5.47798 379.755 6.40658 385.032 7.66939C420.802 16.257 452.223 38.0678 473.279 68.9252C485.692 87.1152 494.079 107.864 497.856 129.721C498.453 133.291 498.864 136.588 499.237 140.17C499.483 142.531 499.574 147.001 500.016 149.12V336.433L499.971 336.705C499.521 339.575 499.444 343.368 499.129 346.384C498.503 351.945 497.59 357.467 496.394 362.929C488.37 398.911 467.908 430.699 438.79 452.416C423.078 464.191 409.155 470.434 390.826 476.293H390.376C390.101 467.907 390.271 458.794 390.27 450.355L390.271 404.759L390.285 265.3L390.283 214.535C390.285 206.218 390.667 192.757 389.792 184.985C388.538 173.46 385.031 162.313 379.479 152.208C368.625 132.53 350.609 118.059 329.372 111.961C323.717 110.327 317.902 109.344 312.035 109.03C304.96 108.59 294.902 108.896 287.652 108.899L242.491 108.901L207.67 108.895C199.47 108.894 190.603 108.571 182.538 109.709C172.259 111.185 162.345 114.638 153.316 119.886L153.324 3.83105Z" fill="#1E1E1E"/>
<path d="M153.324 3.83105H359.393C362.508 4.44522 365.9 4.35125 369.067 4.76906C374.44 5.47798 379.755 6.40658 385.032 7.66939C420.802 16.257 452.223 38.0678 473.279 68.9252C485.692 87.1152 494.079 107.864 497.856 129.721C498.453 133.291 498.864 136.588 499.237 140.17C499.483 142.531 499.574 147.001 500.016 149.12V336.433L499.971 336.705C499.521 339.575 499.444 343.368 499.129 346.384C498.503 351.945 497.59 357.467 496.394 362.929C488.37 398.911 467.908 430.699 438.79 452.416C423.078 464.191 409.155 470.434 390.826 476.293H390.376C390.101 467.907 390.271 458.794 390.27 450.355L390.271 404.759L390.285 265.3L390.283 214.535C390.285 206.218 390.667 192.757 389.792 184.985C388.538 173.46 385.031 162.313 379.479 152.208C368.625 132.53 350.609 118.059 329.372 111.961C323.717 110.327 317.902 109.344 312.035 109.03C304.96 108.59 294.902 108.896 287.652 108.899L242.491 108.901L207.67 108.895C199.47 108.894 190.603 108.571 182.538 109.709C172.259 111.185 162.345 114.638 153.316 119.886L153.324 3.83105Z" fill="url(#paint16_radial_49_17)" fill-opacity="0.4"/>
<path d="M111.541 3.83105C111.974 25.952 111.614 49.2587 111.609 71.4531L111.408 216.312L111.411 263.511C111.414 276.371 110.756 291.3 113.309 303.709C116.76 320.49 125.096 335.803 137.217 347.625C147.766 357.98 160.798 365.293 174.992 368.823C187.042 371.811 196.963 371.224 209.244 371.223L240.788 371.216L285.622 371.217C293.55 371.217 301.824 371.159 309.71 371.183C320.907 371.216 339.101 366.532 348.465 360.103L348.487 476.293H141.141C139.612 475.902 135.511 475.577 133.779 475.386C130.237 474.995 126.709 474.464 123.207 473.794C103.107 469.938 83.9943 461.889 67.0557 450.147C36.3358 428.808 14.4904 396.487 5.79691 359.509C4.46682 353.799 3.49787 348.097 2.75687 342.281C2.35075 339.092 2.42932 335.297 1.80374 332.216V143.663C2.09146 142.508 2.25153 139.283 2.33206 137.934C2.50906 134.969 2.74738 132.555 3.15823 129.607C4.89483 116.892 8.21288 104.456 13.0313 92.6035C27.2715 57.4074 53.8392 28.9412 87.5127 12.7998C92.2165 10.4987 97.048 8.48016 101.98 6.75488C104.761 5.80653 108.323 4.98817 110.917 3.83105H111.541Z" fill="#1E1E1E"/>
<mask id="mask2_49_17" style="mask-type:alpha" maskUnits="userSpaceOnUse" x="0" y="2" width="502" height="477">
<path d="M392.54 476.987C392.002 454.896 392.232 431.65 392.118 409.483L391.541 263.851L391.541 263.85L391.285 216.401C391.213 203.509 391.795 188.426 389.159 175.904C385.593 158.962 377.116 143.53 364.844 131.647C354.164 121.238 340.998 113.918 326.679 110.43L326.678 110.43C314.523 107.478 304.518 108.129 292.248 108.2L292.247 108.2L260.656 108.386L215.755 108.642C207.809 108.686 199.531 108.791 191.633 108.813C185.969 108.828 178.572 110.049 171.425 112.079C164.647 114.003 158.052 116.67 153.352 119.758L152.711 4.31315L359.838 3.1343C360.654 3.33019 362.064 3.5009 363.455 3.64302C364.924 3.79315 366.332 3.90907 367.218 4.00247L367.219 4.00246C370.757 4.37356 374.279 4.88555 377.778 5.53712C397.863 9.28622 416.986 17.2426 433.959 28.9131C464.26 49.7913 486.035 81.3851 495.176 117.673L495.603 119.404C496.961 125.117 497.959 130.827 498.731 136.657C498.941 138.239 499.03 139.971 499.15 141.725C499.267 143.448 499.414 145.187 499.736 146.757L500.749 336.215C500.604 336.853 500.499 337.958 500.422 339.039C500.342 340.17 500.287 341.328 500.251 342.002C500.09 344.971 499.866 347.386 499.472 350.339L499.472 350.34C497.806 363.094 494.56 375.577 489.813 387.484L489.812 387.484C475.782 422.841 449.41 451.519 415.881 467.885L415.877 467.886C411.196 470.218 406.386 472.268 401.473 474.024L401.474 474.025C400.096 474.505 398.53 474.951 396.956 475.434C395.43 475.902 393.903 476.402 392.597 476.987L392.54 476.987Z" fill="url(#paint17_radial_49_17)"/>
<path d="M392.54 476.987C392.002 454.896 392.232 431.65 392.118 409.483L391.541 263.851L391.541 263.85L391.285 216.401C391.213 203.509 391.795 188.426 389.159 175.904C385.593 158.962 377.116 143.53 364.844 131.647C354.164 121.238 340.998 113.918 326.679 110.43L326.678 110.43C314.523 107.478 304.518 108.129 292.248 108.2L292.247 108.2L260.656 108.386L215.755 108.642C207.809 108.686 199.531 108.791 191.633 108.813C185.969 108.828 178.572 110.049 171.425 112.079C164.647 114.003 158.052 116.67 153.352 119.758L152.711 4.31315L359.838 3.1343C360.654 3.33019 362.064 3.5009 363.455 3.64302C364.924 3.79315 366.332 3.90907 367.218 4.00247L367.219 4.00246C370.757 4.37356 374.279 4.88555 377.778 5.53712C397.863 9.28622 416.986 17.2426 433.959 28.9131C464.26 49.7913 486.035 81.3851 495.176 117.673L495.603 119.404C496.961 125.117 497.959 130.827 498.731 136.657C498.941 138.239 499.03 139.971 499.15 141.725C499.267 143.448 499.414 145.187 499.736 146.757L500.749 336.215C500.604 336.853 500.499 337.958 500.422 339.039C500.342 340.17 500.287 341.328 500.251 342.002C500.09 344.971 499.866 347.386 499.472 350.339L499.472 350.34C497.806 363.094 494.56 375.577 489.813 387.484L489.812 387.484C475.782 422.841 449.41 451.519 415.881 467.885L415.877 467.886C411.196 470.218 406.386 472.268 401.473 474.024L401.474 474.025C400.096 474.505 398.53 474.951 396.956 475.434C395.43 475.902 393.903 476.402 392.597 476.987L392.54 476.987Z" stroke="#B5B5B5" stroke-opacity="0.24" stroke-width="0.952101"/>
<path d="M392.54 476.987C392.002 454.896 392.232 431.65 392.118 409.483L391.541 263.851L391.541 263.85L391.285 216.401C391.213 203.509 391.795 188.426 389.159 175.904C385.593 158.962 377.116 143.53 364.844 131.647C354.164 121.238 340.998 113.918 326.679 110.43L326.678 110.43C314.523 107.478 304.518 108.129 292.248 108.2L292.247 108.2L260.656 108.386L215.755 108.642C207.809 108.686 199.531 108.791 191.633 108.813C185.969 108.828 178.572 110.049 171.425 112.079C164.647 114.003 158.052 116.67 153.352 119.758L152.711 4.31315L359.838 3.1343C360.654 3.33019 362.064 3.5009 363.455 3.64302C364.924 3.79315 366.332 3.90907 367.218 4.00247L367.219 4.00246C370.757 4.37356 374.279 4.88555 377.778 5.53712C397.863 9.28622 416.986 17.2426 433.959 28.9131C464.26 49.7913 486.035 81.3851 495.176 117.673L495.603 119.404C496.961 125.117 497.959 130.827 498.731 136.657C498.941 138.239 499.03 139.971 499.15 141.725C499.267 143.448 499.414 145.187 499.736 146.757L500.749 336.215C500.604 336.853 500.499 337.958 500.422 339.039C500.342 340.17 500.287 341.328 500.251 342.002C500.09 344.971 499.866 347.386 499.472 350.339L499.472 350.34C497.806 363.094 494.56 375.577 489.813 387.484L489.812 387.484C475.782 422.841 449.41 451.519 415.881 467.885L415.877 467.886C411.196 470.218 406.386 472.268 401.473 474.024L401.474 474.025C400.096 474.505 398.53 474.951 396.956 475.434C395.43 475.902 393.903 476.402 392.597 476.987L392.54 476.987Z" stroke="url(#paint18_linear_49_17)" stroke-width="0.952101"/>
<path d="M143.399 478.576C141.826 478.276 140.19 478.155 138.564 478.058C136.921 477.961 135.292 477.89 133.718 477.69C128.342 477.009 123.025 476.108 117.745 474.871C81.9507 466.459 50.4282 444.757 29.2169 413.917C17.1037 396.305 8.75287 376.262 4.70397 355.107L4.32581 353.057C3.70954 349.48 3.28178 346.175 2.88894 342.58C2.76036 341.402 2.66753 339.698 2.54905 338.004C2.43262 336.339 2.29083 334.678 2.06255 333.589L1.05638 145.335L1.09606 145.084L1.09702 145.082C1.31656 143.623 1.43987 141.935 1.54577 140.242C1.65195 138.544 1.74077 136.842 1.88966 135.333C2.48595 129.75 3.36868 124.204 4.53429 118.717C12.3627 82.5678 32.6446 50.5582 61.6297 28.6043L61.6306 28.6033C77.2565 16.712 91.1239 10.3707 109.403 4.38764L109.512 4.38702C109.818 12.7283 109.7 21.7644 109.745 30.1576L109.99 75.9978L110.726 216.198L111 267.233C111.042 275.313 110.752 288.298 111.57 296.221L111.653 296.971C112.975 308.59 116.56 319.815 122.193 329.976L122.715 330.9C133.777 350.217 151.728 364.36 172.775 370.298C178.469 371.914 184.32 372.873 190.22 373.155L190.219 373.155C197.32 373.559 207.415 373.193 214.659 373.149L259.888 372.891L294.761 372.697C302.956 372.652 311.871 372.927 319.969 371.732L319.97 371.732C330.122 370.21 339.909 366.76 348.834 361.562L349.446 477.403L143.399 478.576Z" fill="url(#paint19_radial_49_17)"/>
<path d="M143.399 478.576C141.826 478.276 140.19 478.155 138.564 478.058C136.921 477.961 135.292 477.89 133.718 477.69C128.342 477.009 123.025 476.108 117.745 474.871C81.9507 466.459 50.4282 444.757 29.2169 413.917C17.1037 396.305 8.75287 376.262 4.70397 355.107L4.32581 353.057C3.70954 349.48 3.28178 346.175 2.88894 342.58C2.76036 341.402 2.66753 339.698 2.54905 338.004C2.43262 336.339 2.29083 334.678 2.06255 333.589L1.05638 145.335L1.09606 145.084L1.09702 145.082C1.31656 143.623 1.43987 141.935 1.54577 140.242C1.65195 138.544 1.74077 136.842 1.88966 135.333C2.48595 129.75 3.36868 124.204 4.53429 118.717C12.3627 82.5678 32.6446 50.5582 61.6297 28.6043L61.6306 28.6033C77.2565 16.712 91.1239 10.3707 109.403 4.38764L109.512 4.38702C109.818 12.7283 109.7 21.7644 109.745 30.1576L109.99 75.9978L110.726 216.198L111 267.233C111.042 275.313 110.752 288.298 111.57 296.221L111.653 296.971C112.975 308.59 116.56 319.815 122.193 329.976L122.715 330.9C133.777 350.217 151.728 364.36 172.775 370.298C178.469 371.914 184.32 372.873 190.22 373.155L190.219 373.155C197.32 373.559 207.415 373.193 214.659 373.149L259.888 372.891L294.761 372.697C302.956 372.652 311.871 372.927 319.969 371.732L319.97 371.732C330.122 370.21 339.909 366.76 348.834 361.562L349.446 477.403L143.399 478.576Z" stroke="#B5B5B5" stroke-opacity="0.24" stroke-width="0.608981"/>
<path d="M143.399 478.576C141.826 478.276 140.19 478.155 138.564 478.058C136.921 477.961 135.292 477.89 133.718 477.69C128.342 477.009 123.025 476.108 117.745 474.871C81.9507 466.459 50.4282 444.757 29.2169 413.917C17.1037 396.305 8.75287 376.262 4.70397 355.107L4.32581 353.057C3.70954 349.48 3.28178 346.175 2.88894 342.58C2.76036 341.402 2.66753 339.698 2.54905 338.004C2.43262 336.339 2.29083 334.678 2.06255 333.589L1.05638 145.335L1.09606 145.084L1.09702 145.082C1.31656 143.623 1.43987 141.935 1.54577 140.242C1.65195 138.544 1.74077 136.842 1.88966 135.333C2.48595 129.75 3.36868 124.204 4.53429 118.717C12.3627 82.5678 32.6446 50.5582 61.6297 28.6043L61.6306 28.6033C77.2565 16.712 91.1239 10.3707 109.403 4.38764L109.512 4.38702C109.818 12.7283 109.7 21.7644 109.745 30.1576L109.99 75.9978L110.726 216.198L111 267.233C111.042 275.313 110.752 288.298 111.57 296.221L111.653 296.971C112.975 308.59 116.56 319.815 122.193 329.976L122.715 330.9C133.777 350.217 151.728 364.36 172.775 370.298C178.469 371.914 184.32 372.873 190.22 373.155L190.219 373.155C197.32 373.559 207.415 373.193 214.659 373.149L259.888 372.891L294.761 372.697C302.956 372.652 311.871 372.927 319.969 371.732L319.97 371.732C330.122 370.21 339.909 366.76 348.834 361.562L349.446 477.403L143.399 478.576Z" stroke="url(#paint20_linear_49_17)" stroke-width="0.608981"/>
</mask>
<g mask="url(#mask2_49_17)">
<g filter="url(#filter8_f_49_17)">
<path d="M458.745 26.9548C495.608 68.0591 538.94 89.174 555.53 74.1161C572.12 59.0583 555.686 13.5298 518.823 -27.5745C481.96 -68.6788 438.628 -89.7937 422.038 -74.7359C405.448 -59.678 421.882 -14.1496 458.745 26.9548Z" fill="url(#paint21_radial_49_17)"/>
</g>
<g filter="url(#filter9_f_49_17)">
<mask id="path-21-inside-3_49_17" fill="white">
<path fill-rule="evenodd" clip-rule="evenodd" d="M498.39 155.766C501.334 94.2981 448.275 16.5107 385.992 9.95002C466.675 28.3699 496.04 95.74 498.39 155.766Z"/>
</mask>
<path fill-rule="evenodd" clip-rule="evenodd" d="M498.39 155.766C501.334 94.2981 448.275 16.5107 385.992 9.95002C466.675 28.3699 496.04 95.74 498.39 155.766Z" fill="url(#paint22_radial_49_17)"/>
<path d="M489.909 155.346C495.563 155.626 501.217 155.906 506.872 156.186C507.082 148.981 506.579 141.841 505.531 134.836C494.589 73.575 450.652 13.9543 386.456 5.47207L385 14.3401C443.423 23.9829 488.023 76.7953 495.732 136.037C496.782 142.573 497.499 149.168 497.891 155.785C498.224 155.772 498.557 155.76 498.889 155.747C498.762 149.087 498.307 142.423 497.513 135.789C492.382 76.0249 448.395 18.2252 386.984 5.55995L385.528 14.428C442.571 23.6901 482.394 82.1649 489.485 136.918C490.158 143.102 490.332 149.284 489.909 155.346ZM506.872 156.186L489.909 155.346L498.889 155.747L497.891 155.785L506.872 156.186Z" fill="black" mask="url(#path-21-inside-3_49_17)"/>
</g>
<g filter="url(#filter10_f_49_17)">
<path fill-rule="evenodd" clip-rule="evenodd" d="M504.243 164.988C500.706 70.8223 446.172 17.1675 369.854 3.8914C448.79 24.9276 495.14 78.5874 504.243 164.988Z" fill="url(#paint23_radial_49_17)"/>
</g>
<g filter="url(#filter11_f_49_17)">
<path fill-rule="evenodd" clip-rule="evenodd" d="M508.815 203.092C516.214 81.063 462.458 22.4618 371.646 -4.97993C438.045 19.5395 512.09 81.6697 508.815 203.092Z" fill="url(#paint24_radial_49_17)"/>
</g>
</g>
<mask id="mask3_49_17" style="mask-type:alpha" maskUnits="userSpaceOnUse" x="2" y="2" width="501" height="477">
<path d="M111.233 4.11172C111.746 26.2037 111.489 49.4496 111.578 71.6167L111.99 217.249L111.99 217.25L112.193 264.699C112.251 277.591 111.651 292.673 114.273 305.199C117.82 322.145 126.28 337.587 138.538 349.485C149.206 359.906 162.364 367.242 176.679 370.748L176.68 370.748C188.831 373.714 198.838 373.075 211.107 373.019L242.699 372.871L287.601 372.671C295.547 372.636 303.825 372.54 311.723 372.528C317.387 372.519 324.786 371.308 331.935 369.287C338.715 367.37 345.313 364.712 350.017 361.629L350.525 477.074L143.395 478.003C142.578 477.807 141.17 477.635 139.781 477.491C138.312 477.339 136.905 477.222 136.019 477.127L136.018 477.127C132.481 476.752 128.959 476.235 125.461 475.579C105.381 471.806 86.267 463.827 69.3075 452.136C39.0298 431.221 17.2904 399.601 8.18968 363.302L7.76539 361.571C6.58248 356.57 5.67472 351.572 4.95383 346.495L4.65655 344.314C4.44891 342.731 4.36116 340.999 4.2436 339.245C4.128 337.521 3.98314 335.782 3.66282 334.212L2.86485 144.753C3.01013 144.115 3.1165 143.01 3.19476 141.93C3.27666 140.799 3.33255 139.641 3.36978 138.967C3.53382 135.998 3.76058 133.583 4.15792 130.63L4.15792 130.629C5.83809 117.877 9.09812 105.398 13.859 93.4976L13.86 93.4976C27.9297 58.1574 54.3344 29.511 87.8818 13.1853L87.8847 13.1843C92.5691 10.8581 97.3817 8.81427 102.297 7.06394L102.296 7.06296C103.674 6.58435 105.241 6.14055 106.815 5.65987C108.342 5.19372 109.869 4.69489 111.176 4.11197L111.233 4.11172Z" fill="url(#paint25_radial_49_17)"/>
<path d="M111.233 4.11172C111.746 26.2037 111.489 49.4496 111.578 71.6167L111.99 217.249L111.99 217.25L112.193 264.699C112.251 277.591 111.651 292.673 114.273 305.199C117.82 322.145 126.28 337.587 138.538 349.485C149.206 359.906 162.364 367.242 176.679 370.748L176.68 370.748C188.831 373.714 198.838 373.075 211.107 373.019L242.699 372.871L287.601 372.671C295.547 372.636 303.825 372.54 311.723 372.528C317.387 372.519 324.786 371.308 331.935 369.287C338.715 367.37 345.313 364.712 350.017 361.629L350.525 477.074L143.395 478.003C142.578 477.807 141.17 477.635 139.781 477.491C138.312 477.339 136.905 477.222 136.019 477.127L136.018 477.127C132.481 476.752 128.959 476.235 125.461 475.579C105.381 471.806 86.267 463.827 69.3075 452.136C39.0298 431.221 17.2904 399.601 8.18968 363.302L7.76539 361.571C6.58248 356.57 5.67472 351.572 4.95383 346.495L4.65655 344.314C4.44891 342.731 4.36116 340.999 4.2436 339.245C4.128 337.521 3.98314 335.782 3.66282 334.212L2.86485 144.753C3.01013 144.115 3.1165 143.01 3.19476 141.93C3.27666 140.799 3.33255 139.641 3.36978 138.967C3.53382 135.998 3.76058 133.583 4.15792 130.63L4.15792 130.629C5.83809 117.877 9.09812 105.398 13.859 93.4976L13.86 93.4976C27.9297 58.1574 54.3344 29.511 87.8818 13.1853L87.8847 13.1843C92.5691 10.8581 97.3817 8.81427 102.297 7.06394L102.296 7.06296C103.674 6.58435 105.241 6.14055 106.815 5.65987C108.342 5.19372 109.869 4.69489 111.176 4.11197L111.233 4.11172Z" stroke="#E1E1E1" stroke-opacity="0.25" stroke-width="0.952101"/>
<path d="M111.233 4.11172C111.746 26.2037 111.489 49.4496 111.578 71.6167L111.99 217.249L111.99 217.25L112.193 264.699C112.251 277.591 111.651 292.673 114.273 305.199C117.82 322.145 126.28 337.587 138.538 349.485C149.206 359.906 162.364 367.242 176.679 370.748L176.68 370.748C188.831 373.714 198.838 373.075 211.107 373.019L242.699 372.871L287.601 372.671C295.547 372.636 303.825 372.54 311.723 372.528C317.387 372.519 324.786 371.308 331.935 369.287C338.715 367.37 345.313 364.712 350.017 361.629L350.525 477.074L143.395 478.003C142.578 477.807 141.17 477.635 139.781 477.491C138.312 477.339 136.905 477.222 136.019 477.127L136.018 477.127C132.481 476.752 128.959 476.235 125.461 475.579C105.381 471.806 86.267 463.827 69.3075 452.136C39.0298 431.221 17.2904 399.601 8.18968 363.302L7.76539 361.571C6.58248 356.57 5.67472 351.572 4.95383 346.495L4.65655 344.314C4.44891 342.731 4.36116 340.999 4.2436 339.245C4.128 337.521 3.98314 335.782 3.66282 334.212L2.86485 144.753C3.01013 144.115 3.1165 143.01 3.19476 141.93C3.27666 140.799 3.33255 139.641 3.36978 138.967C3.53382 135.998 3.76058 133.583 4.15792 130.63L4.15792 130.629C5.83809 117.877 9.09812 105.398 13.859 93.4976L13.86 93.4976C27.9297 58.1574 54.3344 29.511 87.8818 13.1853L87.8847 13.1843C92.5691 10.8581 97.3817 8.81427 102.297 7.06394L102.296 7.06296C103.674 6.58435 105.241 6.14055 106.815 5.65987C108.342 5.19372 109.869 4.69489 111.176 4.11197L111.233 4.11172Z" stroke="#B5B5B5" stroke-opacity="0.24" stroke-width="0.952101"/>
<path d="M111.233 4.11172C111.746 26.2037 111.489 49.4496 111.578 71.6167L111.99 217.249L111.99 217.25L112.193 264.699C112.251 277.591 111.651 292.673 114.273 305.199C117.82 322.145 126.28 337.587 138.538 349.485C149.206 359.906 162.364 367.242 176.679 370.748L176.68 370.748C188.831 373.714 198.838 373.075 211.107 373.019L242.699 372.871L287.601 372.671C295.547 372.636 303.825 372.54 311.723 372.528C317.387 372.519 324.786 371.308 331.935 369.287C338.715 367.37 345.313 364.712 350.017 361.629L350.525 477.074L143.395 478.003C142.578 477.807 141.17 477.635 139.781 477.491C138.312 477.339 136.905 477.222 136.019 477.127L136.018 477.127C132.481 476.752 128.959 476.235 125.461 475.579C105.381 471.806 86.267 463.827 69.3075 452.136C39.0298 431.221 17.2904 399.601 8.18968 363.302L7.76539 361.571C6.58248 356.57 5.67472 351.572 4.95383 346.495L4.65655 344.314C4.44891 342.731 4.36116 340.999 4.2436 339.245C4.128 337.521 3.98314 335.782 3.66282 334.212L2.86485 144.753C3.01013 144.115 3.1165 143.01 3.19476 141.93C3.27666 140.799 3.33255 139.641 3.36978 138.967C3.53382 135.998 3.76058 133.583 4.15792 130.63L4.15792 130.629C5.83809 117.877 9.09812 105.398 13.859 93.4976L13.86 93.4976C27.9297 58.1574 54.3344 29.511 87.8818 13.1853L87.8847 13.1843C92.5691 10.8581 97.3817 8.81427 102.297 7.06394L102.296 7.06296C103.674 6.58435 105.241 6.14055 106.815 5.65987C108.342 5.19372 109.869 4.69489 111.176 4.11197L111.233 4.11172Z" stroke="url(#paint26_linear_49_17)" stroke-width="0.952101"/>
<path d="M360.376 2.823C361.948 3.12432 363.584 3.24813 365.21 3.34624C366.853 3.44539 368.481 3.51879 370.055 3.72002C375.431 4.40751 380.747 5.31563 386.025 6.55858C421.81 15.0135 453.308 36.7536 474.485 67.6195C486.578 85.2459 494.906 105.299 498.931 126.459L499.307 128.51C499.919 132.087 500.343 135.393 500.732 138.988C500.859 140.166 500.95 141.87 501.066 143.565C501.181 145.23 501.321 146.891 501.548 147.98L502.341 336.236L502.301 336.486L502.3 336.489C502.079 337.947 501.953 339.634 501.846 341.328C501.737 343.025 501.647 344.727 501.496 346.236C500.893 351.818 500.004 357.363 498.833 362.849C490.963 398.989 470.645 430.974 441.635 452.893L441.634 452.894C425.995 464.766 412.12 471.091 393.834 477.052L393.726 477.052C393.429 468.71 393.556 459.675 393.521 451.281L393.329 405.442L392.752 265.24L392.535 214.204C392.503 206.124 392.807 193.14 391.998 185.216L391.916 184.466C390.648 173.209 387.256 162.319 381.935 152.405L381.413 151.448C370.42 131.645 352.251 117.124 330.877 111.066C325.185 109.442 319.335 108.477 313.435 108.187L313.436 108.187C306.336 107.775 296.24 108.128 288.996 108.164L243.767 108.368L208.894 108.519C200.699 108.554 191.784 108.269 183.684 109.453L183.684 109.453C173.53 110.964 163.739 114.402 154.808 119.589L154.328 3.74713L360.376 2.823Z" fill="url(#paint27_radial_49_17)" fill-opacity="0.4"/>
<path d="M360.376 2.823C361.948 3.12432 363.584 3.24813 365.21 3.34624C366.853 3.44539 368.481 3.51879 370.055 3.72002C375.431 4.40751 380.747 5.31563 386.025 6.55858C421.81 15.0135 453.308 36.7536 474.485 67.6195C486.578 85.2459 494.906 105.299 498.931 126.459L499.307 128.51C499.919 132.087 500.343 135.393 500.732 138.988C500.859 140.166 500.95 141.87 501.066 143.565C501.181 145.23 501.321 146.891 501.548 147.98L502.341 336.236L502.301 336.486L502.3 336.489C502.079 337.947 501.953 339.634 501.846 341.328C501.737 343.025 501.647 344.727 501.496 346.236C500.893 351.818 500.004 357.363 498.833 362.849C490.963 398.989 470.645 430.974 441.635 452.893L441.634 452.894C425.995 464.766 412.12 471.091 393.834 477.052L393.726 477.052C393.429 468.71 393.556 459.675 393.521 451.281L393.329 405.442L392.752 265.24L392.535 214.204C392.503 206.124 392.807 193.14 391.998 185.216L391.916 184.466C390.648 173.209 387.256 162.319 381.935 152.405L381.413 151.448C370.42 131.645 352.251 117.124 330.877 111.066C325.185 109.442 319.335 108.477 313.435 108.187L313.436 108.187C306.336 107.775 296.24 108.128 288.996 108.164L243.767 108.368L208.894 108.519C200.699 108.554 191.784 108.269 183.684 109.453L183.684 109.453C173.53 110.964 163.739 114.402 154.808 119.589L154.328 3.74713L360.376 2.823Z" stroke="#B5B5B5" stroke-width="0.608981"/>
<path d="M360.376 2.823C361.948 3.12432 363.584 3.24813 365.21 3.34624C366.853 3.44539 368.481 3.51879 370.055 3.72002C375.431 4.40751 380.747 5.31563 386.025 6.55858C421.81 15.0135 453.308 36.7536 474.485 67.6195C486.578 85.2459 494.906 105.299 498.931 126.459L499.307 128.51C499.919 132.087 500.343 135.393 500.732 138.988C500.859 140.166 500.95 141.87 501.066 143.565C501.181 145.23 501.321 146.891 501.548 147.98L502.341 336.236L502.301 336.486L502.3 336.489C502.079 337.947 501.953 339.634 501.846 341.328C501.737 343.025 501.647 344.727 501.496 346.236C500.893 351.818 500.004 357.363 498.833 362.849C490.963 398.989 470.645 430.974 441.635 452.893L441.634 452.894C425.995 464.766 412.12 471.091 393.834 477.052L393.726 477.052C393.429 468.71 393.556 459.675 393.521 451.281L393.329 405.442L392.752 265.24L392.535 214.204C392.503 206.124 392.807 193.14 391.998 185.216L391.916 184.466C390.648 173.209 387.256 162.319 381.935 152.405L381.413 151.448C370.42 131.645 352.251 117.124 330.877 111.066C325.185 109.442 319.335 108.477 313.435 108.187L313.436 108.187C306.336 107.775 296.24 108.128 288.996 108.164L243.767 108.368L208.894 108.519C200.699 108.554 191.784 108.269 183.684 109.453L183.684 109.453C173.53 110.964 163.739 114.402 154.808 119.589L154.328 3.74713L360.376 2.823Z" stroke="url(#paint28_linear_49_17)" stroke-width="0.608981"/>
</mask>
<g mask="url(#mask3_49_17)">
<g filter="url(#filter12_f_49_17)">
<path d="M14.7977 463.397C-8.53132 415.13 -41.9879 383.139 -59.9297 391.942C-77.8716 400.745 -73.5044 447.01 -50.1754 495.277C-26.8463 543.544 6.61026 575.535 24.5521 566.732C42.4939 557.928 38.1267 511.664 14.7977 463.397Z" fill="url(#paint29_radial_49_17)"/>
</g>
<g filter="url(#filter13_f_49_17)">
<mask id="path-28-inside-4_49_17" fill="white">
<path fill-rule="evenodd" clip-rule="evenodd" d="M-4.36701 286.713C-13.1292 347.624 32.3116 430.097 93.6911 442.541C15.119 416.545 -7.72193 346.691 -4.36701 286.713Z"/>
</mask>
<path fill-rule="evenodd" clip-rule="evenodd" d="M-4.36701 286.713C-13.1292 347.624 32.3116 430.097 93.6911 442.541C15.119 416.545 -7.72193 346.691 -4.36701 286.713Z" fill="url(#paint30_radial_49_17)"/>
<path d="M4.03645 287.936C-1.56586 287.12 -7.16816 286.305 -12.7705 285.49C-13.6637 292.642 -13.8402 299.798 -13.4614 306.87C-8.38026 368.894 29.7023 432.416 92.8047 446.955L95.0954 438.265C37.8501 423.119 -1.53782 366.311 -3.59244 306.605C-4.01758 299.999 -4.10533 293.366 -3.86836 286.741C-4.2008 286.722 -4.53323 286.703 -4.86566 286.684C-5.37039 293.326 -5.55037 300.004 -5.38863 306.683C-5.95109 366.664 32.355 428.379 92.2867 446.817L94.5774 438.128C38.6703 423.492 4.57467 361.5 2.71029 306.322C2.62698 300.101 3.03968 293.931 4.03645 287.936ZM-12.7705 285.49L4.03645 287.936L-4.86566 286.684L-3.86836 286.741L-12.7705 285.49Z" fill="black" mask="url(#path-28-inside-4_49_17)"/>
</g>
<g filter="url(#filter14_f_49_17)">
<path fill-rule="evenodd" clip-rule="evenodd" d="M0.023686 315.764C3.45459 409.934 57.9279 463.654 134.23 477.023C55.2392 454.908 8.10027 401.848 0.023686 315.764Z" fill="url(#paint31_radial_49_17)"/>
</g>
<g filter="url(#filter15_f_49_17)">
<path fill-rule="evenodd" clip-rule="evenodd" d="M-4.98281 276.005C-12.2959 395.343 39.8684 452.724 128.064 479.678C63.5828 455.613 -8.28844 394.755 -4.98281 276.005Z" fill="url(#paint32_radial_49_17)"/>
</g>
</g>
<path d="M109.279 1.0675L109.903 1.0647C110.431 23.3019 110.169 46.7329 110.259 69.0459L110.67 214.678L110.873 262.128C110.931 275.057 110.334 290.067 112.943 302.532C116.471 319.386 124.885 334.744 137.074 346.574C147.682 356.938 160.765 364.231 174.997 367.716C187.077 370.665 197.01 370.03 209.31 369.974L240.901 369.826L285.803 369.625C293.743 369.59 302.029 369.495 309.927 369.483C321.141 369.466 339.343 364.675 348.693 358.169L349.208 474.979L141.549 475.911C140.017 475.524 135.907 475.216 134.172 475.031C130.622 474.654 127.088 474.136 123.578 473.478C103.431 469.692 84.255 461.687 67.241 449.958C36.3842 428.644 14.3699 396.248 5.5066 359.112C4.15022 353.378 3.15542 347.651 2.38863 341.807C1.96821 338.602 2.03123 334.787 1.39157 331.692L0.593183 142.134C0.876602 140.972 1.02346 137.728 1.09842 136.372C1.26313 133.39 1.49117 130.963 1.8902 127.998C3.57554 115.207 6.84592 102.689 11.6216 90.7519C25.7343 55.3038 52.2213 26.5671 85.8777 10.1883C90.5789 7.85378 95.4082 5.80298 100.341 4.0463C103.122 3.08033 106.686 2.24252 109.279 1.0675Z" fill="url(#paint33_radial_49_17)" fill-opacity="0.4"/>
<defs>
<filter id="filter0_f_49_17" x="417.878" y="-136.871" width="210.834" height="280.886" filterUnits="userSpaceOnUse" color-interpolation-filters="sRGB">
<feFlood flood-opacity="0" result="BackgroundImageFix"/>
<feBlend mode="normal" in="SourceGraphic" in2="BackgroundImageFix" result="shape"/>
<feGaussianBlur stdDeviation="26" result="effect1_foregroundBlur_49_17"/>
</filter>
<filter id="filter1_f_49_17" x="359.999" y="-12.2749" width="159.214" height="183.354" filterUnits="userSpaceOnUse" color-interpolation-filters="sRGB">
<feFlood flood-opacity="0" result="BackgroundImageFix"/>
<feBlend mode="normal" in="SourceGraphic" in2="BackgroundImageFix" result="shape"/>
<feGaussianBlur stdDeviation="10.5" result="effect1_foregroundBlur_49_17"/>
</filter>
<filter id="filter2_f_49_17" x="354.257" y="-10.1519" width="166.536" height="192.433" filterUnits="userSpaceOnUse" color-interpolation-filters="sRGB">
<feFlood flood-opacity="0" result="BackgroundImageFix"/>
<feBlend mode="normal" in="SourceGraphic" in2="BackgroundImageFix" result="shape"/>
<feGaussianBlur stdDeviation="8" result="effect1_foregroundBlur_49_17"/>
</filter>
<filter id="filter3_f_49_17" x="367.05" y="-7.98145" width="147.996" height="217.214" filterUnits="userSpaceOnUse" color-interpolation-filters="sRGB">
<feFlood flood-opacity="0" result="BackgroundImageFix"/>
<feBlend mode="normal" in="SourceGraphic" in2="BackgroundImageFix" result="shape"/>
<feGaussianBlur stdDeviation="2.5" result="effect1_foregroundBlur_49_17"/>
</filter>
<filter id="filter4_f_49_17" x="-123.058" y="338.857" width="210.699" height="280.972" filterUnits="userSpaceOnUse" color-interpolation-filters="sRGB">
<feFlood flood-opacity="0" result="BackgroundImageFix"/>
<feBlend mode="normal" in="SourceGraphic" in2="BackgroundImageFix" result="shape"/>
<feGaussianBlur stdDeviation="26" result="effect1_foregroundBlur_49_17"/>
</filter>
<filter id="filter5_f_49_17" x="-26.4569" y="266.509" width="141.25" height="197.186" filterUnits="userSpaceOnUse" color-interpolation-filters="sRGB">
<feFlood flood-opacity="0" result="BackgroundImageFix"/>
<feBlend mode="normal" in="SourceGraphic" in2="BackgroundImageFix" result="shape"/>
<feGaussianBlur stdDeviation="10.5" result="effect1_foregroundBlur_49_17"/>
</filter>
<filter id="filter6_f_49_17" x="-15.0219" y="300.656" width="166.353" height="192.594" filterUnits="userSpaceOnUse" color-interpolation-filters="sRGB">
<feFlood flood-opacity="0" result="BackgroundImageFix"/>
<feBlend mode="normal" in="SourceGraphic" in2="BackgroundImageFix" result="shape"/>
<feGaussianBlur stdDeviation="8" result="effect1_foregroundBlur_49_17"/>
</filter>
<filter id="filter7_f_49_17" x="-9.25711" y="273.7" width="147.785" height="217.379" filterUnits="userSpaceOnUse" color-interpolation-filters="sRGB">
<feFlood flood-opacity="0" result="BackgroundImageFix"/>
<feBlend mode="normal" in="SourceGraphic" in2="BackgroundImageFix" result="shape"/>
<feGaussianBlur stdDeviation="2.5" result="effect1_foregroundBlur_49_17"/>
</filter>
<filter id="filter8_f_49_17" x="363.572" y="-131.594" width="250.424" height="262.569" filterUnits="userSpaceOnUse" color-interpolation-filters="sRGB">
<feFlood flood-opacity="0" result="BackgroundImageFix"/>
<feBlend mode="normal" in="SourceGraphic" in2="BackgroundImageFix" result="shape"/>
<feGaussianBlur stdDeviation="26" result="effect1_foregroundBlur_49_17"/>
</filter>
<filter id="filter9_f_49_17" x="364.992" y="-11.0498" width="154.515" height="187.816" filterUnits="userSpaceOnUse" color-interpolation-filters="sRGB">
<feFlood flood-opacity="0" result="BackgroundImageFix"/>
<feBlend mode="normal" in="SourceGraphic" in2="BackgroundImageFix" result="shape"/>
<feGaussianBlur stdDeviation="10.5" result="effect1_foregroundBlur_49_17"/>
</filter>
<filter id="filter10_f_49_17" x="353.854" y="-12.1084" width="166.389" height="193.097" filterUnits="userSpaceOnUse" color-interpolation-filters="sRGB">
<feFlood flood-opacity="0" result="BackgroundImageFix"/>
<feBlend mode="normal" in="SourceGraphic" in2="BackgroundImageFix" result="shape"/>
<feGaussianBlur stdDeviation="8" result="effect1_foregroundBlur_49_17"/>
</filter>
<filter id="filter11_f_49_17" x="366.646" y="-9.97998" width="147.846" height="218.072" filterUnits="userSpaceOnUse" color-interpolation-filters="sRGB">
<feFlood flood-opacity="0" result="BackgroundImageFix"/>
<feBlend mode="normal" in="SourceGraphic" in2="BackgroundImageFix" result="shape"/>
<feGaussianBlur stdDeviation="2.5" result="effect1_foregroundBlur_49_17"/>
</filter>
<filter id="filter12_f_49_17" x="-122.98" y="338.484" width="210.582" height="281.705" filterUnits="userSpaceOnUse" color-interpolation-filters="sRGB">
<feFlood flood-opacity="0" result="BackgroundImageFix"/>
<feBlend mode="normal" in="SourceGraphic" in2="BackgroundImageFix" result="shape"/>
<feGaussianBlur stdDeviation="26" result="effect1_foregroundBlur_49_17"/>
</filter>
<filter id="filter13_f_49_17" x="-26.4505" y="265.713" width="141.142" height="197.828" filterUnits="userSpaceOnUse" color-interpolation-filters="sRGB">
<feFlood flood-opacity="0" result="BackgroundImageFix"/>
<feBlend mode="normal" in="SourceGraphic" in2="BackgroundImageFix" result="shape"/>
<feGaussianBlur stdDeviation="10.5" result="effect1_foregroundBlur_49_17"/>
</filter>
<filter id="filter14_f_49_17" x="-15.9763" y="299.764" width="166.206" height="193.259" filterUnits="userSpaceOnUse" color-interpolation-filters="sRGB">
<feFlood flood-opacity="0" result="BackgroundImageFix"/>
<feBlend mode="normal" in="SourceGraphic" in2="BackgroundImageFix" result="shape"/>
<feGaussianBlur stdDeviation="8" result="effect1_foregroundBlur_49_17"/>
</filter>
<filter id="filter15_f_49_17" x="-10.6628" y="271.005" width="143.727" height="213.673" filterUnits="userSpaceOnUse" color-interpolation-filters="sRGB">
<feFlood flood-opacity="0" result="BackgroundImageFix"/>
<feBlend mode="normal" in="SourceGraphic" in2="BackgroundImageFix" result="shape"/>
<feGaussianBlur stdDeviation="2.5" result="effect1_foregroundBlur_49_17"/>
</filter>
<radialGradient id="paint0_radial_49_17" cx="0" cy="0" r="1" gradientTransform="matrix(-1.2707 -236.509 173.792 -0.983971 327.461 241.325)" gradientUnits="userSpaceOnUse">
<stop stop-color="white"/>
<stop offset="1" stop-color="#999999"/>
</radialGradient>
<linearGradient id="paint1_linear_49_17" x1="454.338" y1="161.18" x2="495.476" y2="125.78" gradientUnits="userSpaceOnUse">
<stop stop-color="white" stop-opacity="0"/>
<stop offset="1" stop-color="white"/>
</linearGradient>
<radialGradient id="paint2_radial_49_17" cx="0" cy="0" r="1" gradientTransform="matrix(-1.2707 -236.509 173.8 -0.984017 175.07 242.188)" gradientUnits="userSpaceOnUse">
<stop stop-color="white"/>
<stop offset="1" stop-color="#999999"/>
</radialGradient>
<linearGradient id="paint3_linear_49_17" x1="133.48" y1="370.389" x2="83.2243" y2="434.773" gradientUnits="userSpaceOnUse">
<stop stop-color="white" stop-opacity="0"/>
<stop offset="1" stop-color="white"/>
</linearGradient>
<radialGradient id="paint4_radial_49_17" cx="0" cy="0" r="1" gradientTransform="matrix(-32.5039 15.9133 -42.3861 -86.9839 523.295 3.57251)" gradientUnits="userSpaceOnUse">
<stop stop-color="white"/>
<stop offset="1" stop-color="#999999"/>
</radialGradient>
<radialGradient id="paint5_radial_49_17" cx="0" cy="0" r="1" gradientTransform="matrix(-58.1524 0.362314 -0.460705 -71.0392 439.612 79.402)" gradientUnits="userSpaceOnUse">
<stop stop-color="white"/>
<stop offset="1" stop-color="#999999"/>
</radialGradient>
<radialGradient id="paint6_radial_49_17" cx="0" cy="0" r="1" gradientTransform="matrix(-62.9712 3.28003 -4.30845 -83.4959 437.537 86.064)" gradientUnits="userSpaceOnUse">
<stop stop-color="white"/>
<stop offset="1" stop-color="#999999"/>
</radialGradient>
<radialGradient id="paint7_radial_49_17" cx="0" cy="0" r="1" gradientTransform="matrix(-69.6812 -0.49597 0.758099 -103.113 440.974 100.627)" gradientUnits="userSpaceOnUse">
<stop stop-color="white"/>
<stop offset="1" stop-color="#999999"/>
</radialGradient>
<radialGradient id="paint8_radial_49_17" cx="0" cy="0" r="1" gradientTransform="matrix(1.00136 236.511 -173.793 0.775409 176.592 241.821)" gradientUnits="userSpaceOnUse">
<stop stop-color="white"/>
<stop offset="1" stop-color="#999999"/>
</radialGradient>
<linearGradient id="paint9_linear_49_17" x1="49.6239" y1="321.814" x2="8.44572" y2="357.164" gradientUnits="userSpaceOnUse">
<stop stop-color="white" stop-opacity="0"/>
<stop offset="1" stop-color="white"/>
</linearGradient>
<linearGradient id="paint10_linear_49_17" x1="370.72" y1="112.989" x2="421.05" y2="48.6665" gradientUnits="userSpaceOnUse">
<stop stop-color="white" stop-opacity="0"/>
<stop offset="1" stop-color="white"/>
</linearGradient>
<radialGradient id="paint11_radial_49_17" cx="0" cy="0" r="1" gradientTransform="matrix(32.522 -15.8743 42.287 87.0347 -17.709 479.343)" gradientUnits="userSpaceOnUse">
<stop stop-color="white"/>
<stop offset="1" stop-color="#999999"/>
</radialGradient>
<radialGradient id="paint12_radial_49_17" cx="0" cy="0" r="1" gradientTransform="matrix(57.7214 7.08027 -8.62701 70.5144 44.6984 365.1)" gradientUnits="userSpaceOnUse">
<stop stop-color="white"/>
<stop offset="1" stop-color="#999999"/>
</radialGradient>
<radialGradient id="paint13_radial_49_17" cx="0" cy="0" r="1" gradientTransform="matrix(62.9749 -3.20445 4.21336 83.5011 68.1426 396.954)" gradientUnits="userSpaceOnUse">
<stop stop-color="white"/>
<stop offset="1" stop-color="#999999"/>
</radialGradient>
<radialGradient id="paint14_radial_49_17" cx="0" cy="0" r="1" gradientTransform="matrix(69.6806 0.579592 -0.875523 103.112 64.7229 382.387)" gradientUnits="userSpaceOnUse">
<stop stop-color="white"/>
<stop offset="1" stop-color="#999999"/>
</radialGradient>
<radialGradient id="paint15_radial_49_17" cx="0" cy="0" r="1" gradientTransform="matrix(126.256 -123.128 90.4828 97.7734 40.5971 428.776)" gradientUnits="userSpaceOnUse">
<stop stop-color="#18CCFC"/>
<stop offset="1" stop-color="#5ADCFF" stop-opacity="0"/>
</radialGradient>
<radialGradient id="paint16_radial_49_17" cx="0" cy="0" r="1" gradientTransform="matrix(-130.77 115.725 -91.7166 -109.216 466.261 62.1567)" gradientUnits="userSpaceOnUse">
<stop stop-color="#18CCFC"/>
<stop offset="1" stop-color="#5ADCFF" stop-opacity="0"/>
</radialGradient>
<radialGradient id="paint17_radial_49_17" cx="0" cy="0" r="1" gradientTransform="matrix(-1.26931 -237.488 173.602 -0.988043 327.105 240.34)" gradientUnits="userSpaceOnUse">
<stop stop-color="white"/>
<stop offset="1" stop-color="#999999"/>
</radialGradient>
<linearGradient id="paint18_linear_49_17" x1="453.843" y1="159.863" x2="495.119" y2="124.53" gradientUnits="userSpaceOnUse">
<stop stop-color="white" stop-opacity="0"/>
<stop offset="1" stop-color="white"/>
</linearGradient>
<radialGradient id="paint19_radial_49_17" cx="0" cy="0" r="1" gradientTransform="matrix(-1.26931 -237.488 173.61 -0.988089 174.88 241.206)" gradientUnits="userSpaceOnUse">
<stop stop-color="white"/>
<stop offset="1" stop-color="#999999"/>
</radialGradient>
<linearGradient id="paint20_linear_49_17" x1="133.334" y1="369.938" x2="82.8078" y2="434.333" gradientUnits="userSpaceOnUse">
<stop stop-color="white" stop-opacity="0"/>
<stop offset="1" stop-color="white"/>
</linearGradient>
<radialGradient id="paint21_radial_49_17" cx="0" cy="0" r="1" gradientTransform="matrix(-30.039 27.2646 -66.746 -74.426 488.784 -0.309868)" gradientUnits="userSpaceOnUse">
<stop stop-color="white"/>
<stop offset="1" stop-color="#999999"/>
</radialGradient>
<radialGradient id="paint22_radial_49_17" cx="0" cy="0" r="1" gradientTransform="matrix(-58.0725 -1.60336 1.86145 -71.305 442.203 82.8584)" gradientUnits="userSpaceOnUse">
<stop stop-color="white"/>
<stop offset="1" stop-color="#999999"/>
</radialGradient>
<radialGradient id="paint23_radial_49_17" cx="0" cy="0" r="1" gradientTransform="matrix(-62.9026 3.2936 -4.30375 -83.8415 437.061 84.4393)" gradientUnits="userSpaceOnUse">
<stop stop-color="white"/>
<stop offset="1" stop-color="#999999"/>
</radialGradient>
<radialGradient id="paint24_radial_49_17" cx="0" cy="0" r="1" gradientTransform="matrix(-69.6053 -0.498023 0.757273 -103.54 440.494 99.058)" gradientUnits="userSpaceOnUse">
<stop stop-color="white"/>
<stop offset="1" stop-color="#999999"/>
</radialGradient>
<radialGradient id="paint25_radial_49_17" cx="0" cy="0" r="1" gradientTransform="matrix(1.00027 237.489 -173.603 0.778618 176.4 240.838)" gradientUnits="userSpaceOnUse">
<stop stop-color="white"/>
<stop offset="1" stop-color="#999999"/>
</radialGradient>
<linearGradient id="paint26_linear_49_17" x1="49.5708" y1="321.162" x2="8.25535" y2="356.446" gradientUnits="userSpaceOnUse">
<stop stop-color="white" stop-opacity="0"/>
<stop offset="1" stop-color="white"/>
</linearGradient>
<radialGradient id="paint27_radial_49_17" cx="0" cy="0" r="1" gradientTransform="matrix(-221.616 113.416 2.89429 6.02233 502.69 107.844)" gradientUnits="userSpaceOnUse">
<stop stop-color="#5ADCFF"/>
<stop offset="1" stop-color="#18CCFC" stop-opacity="0"/>
</radialGradient>
<linearGradient id="paint28_linear_49_17" x1="370.317" y1="111.473" x2="420.918" y2="47.14" gradientUnits="userSpaceOnUse">
<stop stop-color="white" stop-opacity="0"/>
<stop offset="1" stop-color="white"/>
</linearGradient>
<radialGradient id="paint29_radial_49_17" cx="0" cy="0" r="1" gradientTransform="matrix(32.4865 -15.94 42.2409 87.3949 -17.6888 479.337)" gradientUnits="userSpaceOnUse">
<stop stop-color="white"/>
<stop offset="1" stop-color="#999999"/>
</radialGradient>
<radialGradient id="paint30_radial_49_17" cx="0" cy="0" r="1" gradientTransform="matrix(57.6585 7.10958 -8.6176 70.8062 44.6502 364.626)" gradientUnits="userSpaceOnUse">
<stop stop-color="white"/>
<stop offset="1" stop-color="#999999"/>
</radialGradient>
<radialGradient id="paint31_radial_49_17" cx="0" cy="0" r="1" gradientTransform="matrix(62.9063 -3.21772 4.20877 83.8466 67.1151 396.394)" gradientUnits="userSpaceOnUse">
<stop stop-color="white"/>
<stop offset="1" stop-color="#999999"/>
</radialGradient>
<radialGradient id="paint32_radial_49_17" cx="0" cy="0" r="1" gradientTransform="matrix(67.6205 0.575103 -0.841146 101.263 61.2846 377.839)" gradientUnits="userSpaceOnUse">
<stop stop-color="white"/>
<stop offset="1" stop-color="#999999"/>
</radialGradient>
<radialGradient id="paint33_radial_49_17" cx="0" cy="0" r="1" gradientTransform="matrix(126.123 -123.641 90.3811 98.1751 40.5406 428.562)" gradientUnits="userSpaceOnUse">
<stop stop-color="#18CCFC"/>
<stop offset="1" stop-color="#5ADCFF" stop-opacity="0"/>
</radialGradient>
</defs>
</svg>
