<svg width="617" height="574" viewBox="0 0 617 574" fill="none" xmlns="http://www.w3.org/2000/svg">
<path d="M385.687 151.5C386.691 151.674 387.732 151.748 388.753 151.807C389.799 151.867 390.818 151.912 391.804 152.028C395.199 152.429 398.555 152.954 401.884 153.666C424.464 158.514 444.289 170.824 457.568 188.228C465.396 198.486 470.684 210.184 473.064 222.505V222.504C473.347 224.011 473.563 225.433 473.753 226.903L473.936 228.396C474.012 229.051 474.064 229.996 474.134 230.963C474.2 231.877 474.284 232.82 474.426 233.465V339.62L474.405 339.729L474.404 339.734C474.257 340.575 474.172 341.541 474.1 342.496C474.044 343.22 473.997 343.935 473.935 344.603L473.867 345.248C473.472 348.383 472.896 351.496 472.143 354.576C467.084 374.858 454.183 392.786 435.812 405.04L435.811 405.041C425.995 411.619 417.289 415.136 405.861 418.422C405.715 413.834 405.813 408.901 405.812 404.287V378.423L405.821 299.316V299.315L405.819 270.52C405.821 266.132 406.035 259.095 405.601 254.566L405.505 253.696C404.701 247.086 402.45 240.696 398.893 234.904V234.903L398.563 234.377C391.574 223.366 380.182 215.286 366.807 211.852H366.808C363.188 210.916 359.467 210.353 355.713 210.174H355.714C351.208 209.923 344.793 210.097 340.219 210.099L311.572 210.1L289.485 210.097C284.309 210.096 278.637 209.912 273.48 210.562H273.479C267.178 211.372 261.09 213.222 255.507 216.018L255.512 151.5H385.687Z" stroke="#CECECE"/>
<path d="M435.105 21.5C436.927 21.8421 438.821 21.9878 440.696 22.1045C442.598 22.2229 444.475 22.3116 446.289 22.542C452.497 23.331 458.636 24.3645 464.727 25.7686C506.033 35.3201 542.317 59.579 566.629 93.8975C580.961 114.127 590.645 137.202 595.006 161.51C595.696 165.477 596.169 169.143 596.601 173.131C596.742 174.434 596.838 176.317 596.965 178.203C597.089 180.038 597.243 181.884 597.5 183.108V391.95L597.455 392.214V392.219C597.19 393.844 597.037 395.723 596.904 397.601C596.804 399.016 596.714 400.43 596.6 401.753L596.476 403.042C595.753 409.224 594.699 415.364 593.319 421.438C584.053 461.453 560.427 496.807 526.805 520.961H526.804C508.695 534.032 492.649 540.974 471.513 547.488C471.218 538.282 471.407 528.329 471.407 519.068L471.408 468.208L471.424 312.651L471.421 256.026C471.424 247.073 471.84 232.65 470.941 223.842L470.849 223.008C469.389 210.085 465.306 197.586 458.844 186.257L458.246 185.227C445.551 163.687 424.849 147.86 400.515 141.13H400.516C393.933 139.297 387.164 138.195 380.334 137.844H380.335C373.149 137.413 363.304 137.621 355.348 137.682L352.068 137.696L299.768 137.698L259.443 137.692C249.974 137.691 239.654 137.329 230.27 138.604H230.269C218.585 140.221 207.307 143.951 196.997 149.604L197.005 21.5H435.105Z" stroke="#CECECE"/>
<path d="M220.005 151.584C220.253 164.375 220.04 177.813 220.037 190.645L219.913 275.575V275.576L219.915 303.247C219.917 310.746 219.509 319.578 221.091 326.921C223.232 336.86 228.402 345.929 235.918 352.929C242.459 359.06 250.538 363.388 259.337 365.478H259.338C266.808 367.246 272.972 366.898 280.482 366.897L299.851 366.895H327.377C332.251 366.895 337.322 366.861 342.165 366.875C345.658 366.885 350.216 366.194 354.614 365.031C358.638 363.968 362.571 362.495 365.462 360.775L365.476 427.5H238.722C238.203 427.382 237.342 427.278 236.507 427.192C235.593 427.099 234.752 427.029 234.201 426.971C232.039 426.743 229.886 426.434 227.748 426.043C215.473 423.795 203.801 419.101 193.457 412.254C174.992 400.006 161.781 381.554 156.311 360.419L156.056 359.411C155.244 356.084 154.652 352.76 154.199 349.364C154.077 348.451 154.028 347.452 153.96 346.423C153.894 345.427 153.81 344.407 153.618 343.479V233.037C153.71 232.64 153.777 231.995 153.826 231.386C153.88 230.724 153.917 230.045 153.941 229.654C154.049 227.929 154.194 226.528 154.444 224.813V224.812C155.504 217.401 157.53 210.151 160.472 203.242V203.241C169.165 182.723 185.387 166.125 205.95 156.713L205.954 156.711C208.825 155.37 211.772 154.193 214.782 153.188C215.624 152.914 216.578 152.661 217.549 152.384C218.394 152.142 219.248 151.883 220.005 151.584Z" stroke="#CECECE"/>
<path d="M150.554 21.5C151.055 46.022 150.632 71.8222 150.627 96.4268L150.386 258.008V258.009L150.39 310.654C150.393 324.957 149.603 341.689 152.667 355.601C156.746 374.128 166.509 391.057 180.69 404.225L181.369 404.849C193.635 416.096 208.696 424.14 225.111 428.229L226.704 428.611C241.164 431.96 253.083 431.301 267.72 431.3L305.389 431.293L358.928 431.294C368.401 431.295 378.273 431.23 387.691 431.256C394.432 431.275 403.251 429.969 411.779 427.764C419.925 425.657 427.851 422.718 433.473 419.297L433.5 547.5H186.445C185.482 547.278 183.804 547.079 182.138 546.912C181.266 546.825 180.407 546.747 179.636 546.677L177.652 546.49C173.434 546.056 169.235 545.465 165.065 544.72C141.127 540.431 118.365 531.478 98.1934 518.417C62.1826 495.052 36.4185 459.853 25.75 419.536L25.2539 417.612C23.6707 411.265 22.5167 404.924 21.6338 398.451C21.3942 396.694 21.2974 394.772 21.166 392.826C21.037 390.915 20.8733 388.986 20.5 387.243V177.03C20.6763 176.322 20.8086 175.097 20.9072 173.899C21.0105 172.645 21.0821 171.361 21.1299 170.613C21.3404 167.32 21.6238 164.643 22.1123 161.369V161.367C24.1796 147.228 28.1296 133.399 33.8662 120.219V120.218C50.8202 81.0767 82.4535 49.4144 122.556 31.459V31.46L122.56 31.458C128.158 28.8997 133.907 26.6547 139.778 24.7363L139.779 24.7373C141.428 24.212 143.303 23.7243 145.182 23.1992C147.011 22.6878 148.837 22.1411 150.396 21.5H150.554Z" stroke="#CECECE"/>
<g filter="url(#filter0_ddd_79_64)">
<path d="M465.847 88.625L452.811 235.919C452.778 220.832 448.703 206.024 441.004 193.011C433.304 179.998 422.255 169.247 408.988 161.857C396.208 154.69 381.774 150.927 367.091 150.933H250.027C235.347 150.943 220.916 154.706 208.13 161.857V46H392.827C408.735 46 423.993 52.2656 435.242 63.4185C446.491 74.5714 465.847 72.8524 465.847 88.625Z" fill="white"/>
<path d="M566.103 197.695V371.502C566.103 441.322 517.894 500.536 452.891 518V105.471C452.891 89.6981 438.762 78.7779 427.512 67.625C416.263 56.4721 408.815 46.0001 392.906 46.0001H413.142C426.568 45.987 439.936 47.7526 452.891 51.2498C517.894 68.6959 566.103 127.901 566.103 197.695Z" fill="white"/>
<path d="M409.015 402.128V517.994H224.292C208.383 517.994 193.126 511.728 181.876 500.575C170.627 489.422 164.307 474.296 164.307 458.523V413.052H367.091C370.74 413.057 374.385 412.824 378.002 412.354C388.91 410.965 399.442 407.492 409.015 402.128Z" fill="white"/>
<path d="M164.323 215.945H51.1102V192.498C51.1102 122.678 99.3191 63.4638 164.323 46V215.945Z" fill="white"/>
<path d="M224.29 517.989H204.055C190.627 518.004 177.259 516.235 164.305 512.731C99.2841 495.32 51.0752 436.106 51.0752 366.286V320.169C51.0752 344.802 60.9451 368.426 78.5137 385.844C96.0823 403.262 119.91 413.047 144.756 413.047H164.305V458.519C164.305 474.291 170.625 489.418 181.875 500.571C193.124 511.724 208.381 517.989 224.29 517.989Z" fill="white"/>
<path d="M249.999 413.052H144.756C119.91 413.052 96.0823 403.266 78.5137 385.848C60.9451 368.43 51.0752 344.807 51.0752 320.174V215.939H164.288V328.066C164.321 343.153 168.395 357.96 176.095 370.974C183.795 383.987 194.844 394.738 208.111 402.128C220.888 409.293 235.319 413.057 249.999 413.052Z" fill="white"/>
</g>
<defs>
<filter id="filter0_ddd_79_64" x="0.875195" y="0.799999" width="615.428" height="572.4" filterUnits="userSpaceOnUse" color-interpolation-filters="sRGB">
<feFlood flood-opacity="0" result="BackgroundImageFix"/>
<feColorMatrix in="SourceAlpha" type="matrix" values="0 0 0 0 0 0 0 0 0 0 0 0 0 0 0 0 0 0 127 0" result="hardAlpha"/>
<feOffset dy="5"/>
<feGaussianBlur stdDeviation="25.1"/>
<feComposite in2="hardAlpha" operator="out"/>
<feColorMatrix type="matrix" values="0 0 0 0 0.913725 0 0 0 0 0.305882 0 0 0 0 0.145098 0 0 0 0.41 0"/>
<feBlend mode="normal" in2="BackgroundImageFix" result="effect1_dropShadow_79_64"/>
<feColorMatrix in="SourceAlpha" type="matrix" values="0 0 0 0 0 0 0 0 0 0 0 0 0 0 0 0 0 0 127 0" result="hardAlpha"/>
<feOffset dx="-2" dy="6"/>
<feGaussianBlur stdDeviation="18.75"/>
<feComposite in2="hardAlpha" operator="out"/>
<feColorMatrix type="matrix" values="0 0 0 0 0.101961 0 0 0 0 0.415686 0 0 0 0 0.639216 0 0 0 0.09 0"/>
<feBlend mode="normal" in2="effect1_dropShadow_79_64" result="effect2_dropShadow_79_64"/>
<feColorMatrix in="SourceAlpha" type="matrix" values="0 0 0 0 0 0 0 0 0 0 0 0 0 0 0 0 0 0 127 0" result="hardAlpha"/>
<feOffset dx="-3" dy="14"/>
<feGaussianBlur stdDeviation="9.9"/>
<feComposite in2="hardAlpha" operator="out"/>
<feColorMatrix type="matrix" values="0 0 0 0 0.101961 0 0 0 0 0.415686 0 0 0 0 0.639216 0 0 0 0.41 0"/>
<feBlend mode="normal" in2="effect2_dropShadow_79_64" result="effect3_dropShadow_79_64"/>
<feBlend mode="normal" in="SourceGraphic" in2="effect3_dropShadow_79_64" result="shape"/>
</filter>
</defs>
</svg>
