<svg width="66" height="23" viewBox="0 0 66 23" fill="none" xmlns="http://www.w3.org/2000/svg">
<g clip-path="url(#clip0_421_4584)">
<g clip-path="url(#clip1_421_4584)">
<g clip-path="url(#clip2_421_4584)">
<mask id="mask0_421_4584" style="mask-type:luminance" maskUnits="userSpaceOnUse" x="0" y="1" width="66" height="22">
<path d="M65.3906 1.16016H0.390625V22.1602H65.3906V1.16016Z" fill="white"/>
</mask>
<g mask="url(#mask0_421_4584)">
<path d="M17.1641 1.16016H20.0994V21.1602H17.1641V1.16016ZM30.3731 14.7802C30.3731 17.841 28.0123 18.085 27.31 18.085C25.5555 18.085 25.2362 16.2946 25.2362 15.2146V7.56016H22.3009V15.1986C22.3009 17.0946 22.8469 18.6594 23.8038 19.7026C24.6492 20.625 25.9158 21.129 27.288 21.129C28.2611 21.129 29.6392 20.7986 30.3731 20.0682V21.1602H33.3084V7.56016H30.3731V14.7802ZM39.1791 2.76016H36.2437V7.56016H34.0422V10.7602H36.2437V21.1602H39.1791V10.7602H41.3806V7.56016H39.1791V2.76016ZM50.6246 17.0938C49.9855 17.7202 49.1416 18.0674 48.2155 18.0674C46.174 18.0674 44.6747 16.433 44.6747 14.189C44.6747 11.945 46.1263 10.3794 48.2155 10.3794C49.1254 10.3794 49.9855 10.7098 50.6408 11.3362L51.0862 11.7538L53.0654 9.59696L52.57 9.10976C51.4054 7.96336 49.8593 7.32016 48.2147 7.32016C44.5456 7.32016 41.881 10.2066 41.881 14.1722C41.881 18.121 44.6094 21.1106 48.2147 21.1106C49.8901 21.1106 51.4524 20.4674 52.6023 19.3026L53.0808 18.8154L51.0708 16.6602L50.6246 17.0938ZM63.5423 8.74576C62.6969 7.82416 61.7063 7.32016 60.334 7.32016C59.3609 7.32016 58.2587 7.65056 57.5249 8.38016V1.16016H54.5895V21.1602H57.5249V13.6682C57.5249 10.6074 59.5194 10.3642 60.2217 10.3642C61.9763 10.3642 61.9279 12.1554 61.9279 13.2338V21.1602H64.8632V13.2506C64.8632 11.3546 64.5 9.78976 63.5423 8.74576Z" fill="white"/>
<path d="M48.1223 11.9092C48.6851 11.9092 49.2249 12.153 49.6229 12.5869C50.0209 13.0207 50.2445 13.6092 50.2445 14.2228C50.2445 14.8364 50.0209 15.4249 49.6229 15.8588C49.2249 16.2927 48.6851 16.5364 48.1223 16.5364C47.5594 16.5364 47.0196 16.2927 46.6216 15.8588C46.2236 15.4249 46 14.8364 46 14.2228C46 13.6092 46.2236 13.0207 46.6216 12.5869C47.0196 12.153 47.5594 11.9092 48.1223 11.9092Z" fill="white"/>
<path d="M13.0573 16.1376C11.9411 17.3896 10.425 18.068 8.82971 18.068C5.55975 18.068 3.18213 15.268 3.18213 11.4248C3.18213 7.5639 5.55975 4.7639 8.82971 4.7639C10.4096 4.7639 11.9088 5.4415 13.0419 6.6767L13.488 7.1639L15.4503 5.0247L15.0196 4.5375C13.3926 2.7111 11.1911 1.7207 8.82971 1.7207C4.01209 1.7207 0.390625 5.8943 0.390625 11.4416C0.390625 16.972 4.02824 21.1288 8.82971 21.1288C11.2073 21.1288 13.4088 20.1208 15.0357 18.2944L15.4665 17.8072L13.5203 15.6336L13.0573 16.1376Z" fill="white"/>
</g>
</g>
</g>
</g>
<defs>
<clipPath id="clip0_421_4584">
<rect width="65" height="22" fill="white" transform="translate(0.390625 0.660156)"/>
</clipPath>
<clipPath id="clip1_421_4584">
<rect width="65" height="22" fill="white" transform="translate(0.390625 0.660156)"/>
</clipPath>
<clipPath id="clip2_421_4584">
<rect width="65" height="22" fill="white" transform="translate(0.390625 0.660156)"/>
</clipPath>
</defs>
</svg>
