<svg width="150" height="51" viewBox="0 0 150 51" fill="none" xmlns="http://www.w3.org/2000/svg">
<g clip-path="url(#clip0_245_24)">
<path d="M95.7764 31.7184C97.3912 31.7184 98.7003 30.5275 98.7003 29.0584C98.7003 27.5894 97.3912 26.3984 95.7764 26.3984C94.1616 26.3984 92.8525 27.5894 92.8525 29.0584C92.8525 30.5275 94.1616 31.7184 95.7764 31.7184Z" fill="#F8F6F6"/>
<path d="M53.2151 14H57.0843V36.7H53.2151V14ZM71.1761 29.7C71.1761 33.22 68.0104 33.5 67.0431 33.5C64.6248 33.5 64.2731 31.44 64.2731 30.2V21.42H60.3819V30.18C60.3599 32.36 61.0414 34.16 62.3605 35.36C63.5584 36.3315 65.0846 36.9025 66.6872 36.9789C68.2898 37.0552 69.8732 36.6323 71.1761 35.78V36.7H75.0673V21.42H71.1761V29.7ZM83.4652 16.28H79.574V21.42H76.8699V24.76H79.574V36.7H83.4652V24.76H86.6528V21.42H83.4652V16.28ZM99.2497 32.36C98.3703 33.08 97.2052 33.48 95.9301 33.48C95.2823 33.4967 94.6377 33.3926 94.0358 33.1741C93.4339 32.9556 92.8876 32.6274 92.4304 32.2096C91.9732 31.7918 91.6148 31.2932 91.3774 30.7447C91.1399 30.1962 91.0284 29.6092 91.0496 29.02C91.0496 26.44 93.0502 24.64 95.9301 24.64C97.1832 24.64 98.3703 25.02 99.2717 25.74L99.8872 26.22L102.613 23.74L101.932 23.18C100.281 21.8405 98.1421 21.1063 95.9301 21.12C90.8738 21.12 87.2024 24.44 87.2024 29C87.1756 30.0512 87.3826 31.0966 87.8112 32.0732C88.2397 33.0498 88.8809 33.9374 89.6961 34.6829C90.5113 35.4283 91.4839 36.016 92.5552 36.4108C93.6265 36.8055 94.7744 36.9992 95.9301 36.98C98.2384 36.98 100.393 36.24 101.976 34.9L102.635 34.34L99.8652 31.86L99.2497 32.36ZM117.211 22.76C116.013 21.7885 114.487 21.2175 112.884 21.1411C111.281 21.0648 109.698 21.4877 108.395 22.34V14H104.504V36.7H108.395V28.44C108.395 24.92 111.561 24.64 112.528 24.64C114.946 24.64 115.298 26.7 115.298 27.94V36.72H119.189V27.94C119.307 26.0435 118.595 24.1816 117.211 22.76ZM47.4773 31.26C46.7203 31.9675 45.8141 32.5287 44.8131 32.9102C43.8121 33.2916 42.7368 33.4854 41.6515 33.48C37.1448 33.48 33.8692 30.26 33.8692 25.84C33.8692 21.4 37.1448 18.18 41.6515 18.18C43.828 18.18 45.8945 18.96 47.4553 20.38L48.0709 20.94L50.7749 18.48L50.1813 17.92C49.0659 16.8879 47.7345 16.0694 46.2657 15.513C44.797 14.9565 43.2206 14.6733 41.6295 14.68C35.0124 14.68 30 19.48 30 25.86C30 32.2 35.0124 37 41.6295 37C44.9052 37 47.939 35.84 50.1813 33.74L50.7749 33.18L48.0929 30.68L47.4773 31.26Z" fill="white"/>
</g>
<defs>
<clipPath id="clip0_245_24">
<rect width="90" height="23" fill="white" transform="translate(30 14)"/>
</clipPath>
</defs>
</svg>
