<svg width="150" height="51" viewBox="0 0 150 51" fill="none" xmlns="http://www.w3.org/2000/svg">
<g clip-path="url(#clip0_245_24)">
<path d="M100.624 33.3445C102.615 33.3445 104.23 31.8429 104.23 29.9906C104.23 28.1383 102.615 26.6367 100.624 26.6367C98.6321 26.6367 97.0176 28.1383 97.0176 29.9906C97.0176 31.8429 98.6321 33.3445 100.624 33.3445Z" fill="#F8F6F6"/>
<path d="M48.132 11H52.904V39.6217H48.132V11ZM70.2838 30.7957C70.2838 35.2339 66.3795 35.587 65.1865 35.587C62.204 35.587 61.7701 32.9896 61.7701 31.4261V20.3557H56.971V31.4009C56.9439 34.1496 57.7844 36.4191 59.4113 37.9322C60.8887 39.1571 62.771 39.8771 64.7475 39.9733C66.7241 40.0696 68.6769 39.5364 70.2838 38.4617V39.6217H75.0829V20.3557H70.2838V30.7957ZM85.4404 13.8748H80.6412V20.3557H77.3063V24.567H80.6412V39.6217H85.4404V24.567H89.3718V20.3557H85.4404V13.8748ZM104.908 34.1496C103.823 35.0574 102.386 35.5617 100.814 35.5617C100.015 35.5828 99.2198 35.4515 98.4775 35.176C97.7352 34.9006 97.0613 34.4867 96.4975 33.9599C95.9336 33.4331 95.4916 32.8045 95.1987 32.1129C94.9059 31.4213 94.7683 30.6812 94.7946 29.9383C94.7946 26.6852 97.2619 24.4157 100.814 24.4157C102.359 24.4157 103.823 24.8948 104.935 25.8026L105.694 26.4078L109.056 23.2809L108.216 22.5748C106.18 20.8858 103.542 19.9602 100.814 19.9774C94.5776 19.9774 90.0497 24.1635 90.0497 29.913C90.0165 31.2385 90.2719 32.5566 90.8004 33.7879C91.3289 35.0193 92.1197 36.1385 93.1252 37.0784C94.1307 38.0182 95.3301 38.7593 96.6514 39.2571C97.9726 39.7548 99.3885 39.9989 100.814 39.9748C103.661 39.9748 106.318 39.0417 108.27 37.3522L109.083 36.6461L105.667 33.5191L104.908 34.1496ZM127.06 22.0452C125.582 20.8203 123.7 20.1003 121.724 20.0041C119.747 19.9078 117.794 20.441 116.187 21.5157V11H111.388V39.6217H116.187V29.207C116.187 24.7687 120.092 24.4157 121.285 24.4157C124.267 24.4157 124.701 27.013 124.701 28.5765V39.647H129.5V28.5765C129.645 26.1853 128.768 23.8377 127.06 22.0452ZM41.0553 32.7626C40.1217 33.6546 39.0041 34.3623 37.7695 34.8433C36.5349 35.3243 35.2087 35.5686 33.8702 35.5617C28.3119 35.5617 24.272 31.5017 24.272 25.9287C24.272 20.3304 28.3119 16.2704 33.8702 16.2704C36.5545 16.2704 39.1032 17.2539 41.0282 19.0443L41.7874 19.7504L45.1224 16.6487L44.3903 15.9426C43.0146 14.6412 41.3725 13.6093 39.5611 12.9077C37.7496 12.206 35.8054 11.8489 33.8431 11.8574C25.6819 11.8574 19.5 17.9096 19.5 25.9539C19.5 33.9478 25.6819 40 33.8431 40C37.883 40 41.6247 38.5374 44.3903 35.8896L45.1224 35.1835L41.8145 32.0313L41.0553 32.7626Z" fill="white"/>
</g>
<defs>
<clipPath id="clip0_245_24">
<rect width="111" height="29" fill="white" transform="translate(19.5 11)"/>
</clipPath>
</defs>
</svg>
