<svg width="150" height="51" viewBox="0 0 150 51" fill="none" xmlns="http://www.w3.org/2000/svg">
<g clip-path="url(#clip0_247_46)">
<path d="M32.0625 22.5156H36.4815C40.0381 22.5156 42.5171 25.312 42.5171 28.9164V28.9785C42.5171 32.5828 40.092 35.3792 36.4815 35.3792H32.0625V22.5156ZM36.4815 32.7692C38.5292 32.7692 39.8765 31.2157 39.8765 28.9785V28.9164C39.8765 26.6792 38.5292 25.0635 36.4815 25.0635H34.5954V32.7692H36.4815Z" fill="white"/>
<path d="M44.6748 22.5156H53.2431V25.0014H47.2076V27.6113H52.5426V30.0971H47.2076V32.7692H53.351V35.2549H44.7287L44.6748 22.5156Z" fill="white"/>
<path d="M54.75 33.4556L56.2589 31.467C57.2828 32.3992 58.3605 33.0206 59.6539 33.0206C60.6778 33.0206 61.2706 32.5235 61.2706 31.8398V31.7777C61.2706 31.032 60.8395 30.6592 59.0073 30.162C56.7439 29.4785 55.235 28.7948 55.235 26.247V26.1849C55.235 23.8856 56.8517 22.332 59.2228 22.332C60.8395 22.332 62.2945 22.8913 63.4262 23.9477L62.1328 26.1227C61.1628 25.3149 60.1389 24.8798 59.1689 24.8798C58.1989 24.8798 57.7139 25.377 57.7139 25.9984V25.9363C57.7139 26.7441 58.1989 27.0549 60.1389 27.6141C62.4561 28.2977 63.6956 29.2299 63.6956 31.4049V31.467C63.6956 34.0148 61.9712 35.4442 59.5461 35.4442C57.8217 35.4442 56.0973 34.7606 54.75 33.4556Z" fill="white"/>
<path d="M65.96 22.5156H68.4389V35.3171H65.96V22.5156Z" fill="white"/>
<path d="M70.8076 28.9189C70.8076 25.2524 73.2865 22.2695 76.7354 22.2695C78.7832 22.2695 79.9688 22.891 81.1544 24.0717L79.5915 26.2467C78.7293 25.4388 77.9749 24.9417 76.6276 24.9417C74.7954 24.9417 73.3943 26.7439 73.3943 28.9189V28.981C73.3943 31.3424 74.7954 33.0824 76.8432 33.0824C77.7593 33.0824 78.5677 32.8339 79.2143 32.2746V30.4724H76.6815V28.0489H81.5854V33.5795C80.3999 34.6981 78.8371 35.6303 76.7354 35.6303C73.1787 35.4438 70.8076 32.7096 70.8076 28.9189Z" fill="white"/>
<path d="M83.96 22.5156H86.2772L91.5584 30.3456V22.5156H93.9834V35.3171H91.8817L86.385 27.1764V35.3171H83.96V22.5156Z" fill="white"/>
<path d="M96.7302 22.5156H101.904C103.358 22.5156 104.437 23.0128 105.191 23.8207C105.837 24.5663 106.161 25.5606 106.161 26.7414V26.8035C106.161 28.8542 105.191 30.1592 103.736 30.7806L106.484 35.3171H103.574L101.15 31.2157H101.096H99.155V35.3171H96.623V22.5156H96.7302ZM101.742 28.6678C102.981 28.6678 103.628 27.9221 103.628 26.8657V26.8035C103.628 25.6228 102.927 25.0014 101.688 25.0014H99.2091V28.6678H101.742Z" fill="white"/>
<path d="M108.265 29.7895V22.4567H110.744V29.6652C110.744 31.778 111.659 32.7723 113.168 32.7723C114.677 32.7723 115.593 31.7159 115.593 29.6652V22.3945H118.072V29.6031C118.072 33.456 116.132 35.3824 113.114 35.3824C110.096 35.3824 108.265 33.5181 108.265 29.7895Z" fill="white"/>
<path d="M119.85 33.4556L121.359 31.467C122.382 32.3992 123.461 33.0206 124.753 33.0206C125.778 33.0206 126.371 32.5235 126.371 31.8398V31.7777C126.371 31.032 125.94 30.6592 124.107 30.162C121.843 29.4785 120.335 28.7948 120.335 26.247V26.1849C120.335 23.8856 121.951 22.332 124.322 22.332C125.94 22.332 127.394 22.8913 128.526 23.9477L127.233 26.1227C126.263 25.3149 125.238 24.8798 124.269 24.8798C123.299 24.8798 122.814 25.377 122.814 25.9984V25.9363C122.814 26.7441 123.299 27.0549 125.238 27.6141C127.556 28.2977 128.796 29.2299 128.796 31.4049V31.467C128.796 34.0148 127.071 35.4442 124.646 35.4442C122.976 35.4442 121.197 34.7606 119.85 33.4556Z" fill="white"/>
<path d="M130.948 22.5156H133.427V27.6113H138.009V22.5156H140.487V35.3171H138.009V30.2214H133.427V35.3171H130.948V22.5156Z" fill="white"/>
<path d="M17.8378 29.7242C17.7839 29.7242 17.7839 29.6621 17.8378 29.7242L17.5684 29.5378L17.5145 29.4756L11.1556 24.2557C11.1556 24.2557 11.1017 24.2557 11.1017 24.1935L10.9939 24.0692L10.94 24.0071H10.8322L9 22.5156L12.6106 23.1371C12.7723 23.1371 12.8261 23.1993 12.9878 23.2614C13.0417 23.2614 13.1495 23.3235 13.1495 23.3235C13.3111 23.3856 13.365 23.4478 13.4728 23.5099C13.5806 23.5721 13.6345 23.6342 13.7423 23.6964C13.7962 23.7585 13.9039 23.8207 13.9039 23.8828C13.9578 23.9449 14.0117 23.9449 14.0656 24.0071C14.1734 24.0692 14.2273 24.1314 14.2273 24.1935C14.3889 24.3799 14.4967 24.5663 14.6584 24.6906L17.5145 29.3514L17.5684 29.4135L17.8378 29.7242Z" fill="white"/>
<path d="M17.8376 36.9328L17.5682 36.4356L17.5143 36.3734L9.05371 22.5156L10.8859 24.0071L11.2093 24.2557L17.5682 29.4756H17.6221L17.8376 29.6621C17.8376 29.6621 17.8915 29.6621 17.8915 29.7242L18.161 29.4756L26.7294 22.5156L18.1071 36.4356L18.0532 36.4977L17.8376 36.9328Z" fill="white"/>
<path d="M17.8401 27.3639L17.5706 26.8667L17.5167 26.8045L15.415 23.4489L17.5167 23.946H17.5706L17.8401 24.0081L18.1095 23.946L20.1573 23.3867L18.1095 26.8667V26.9288L17.8401 27.3639Z" fill="white"/>
<path d="M26.7844 22.457L24.09 22.8921L23.0662 23.0785C22.2578 23.2028 21.5033 23.6999 21.0184 24.5077L18.1622 29.2306L18.1084 29.2927L17.8389 29.7278L18.1622 29.3549L18.2161 29.2927L17.8389 29.7278L25.1139 23.7621L26.7844 22.457Z" fill="white"/>
<path d="M19.1825 12.6362C19.1825 15.3705 15.0869 16.7998 15.0869 19.7205C15.033 20.4041 15.1947 21.0876 15.4642 21.7091C15.4642 21.7091 13.9014 19.969 13.9014 18.1047C13.9014 16.2405 15.4103 13.4441 15.4103 13.4441C15.4103 14.6869 15.8414 15.0598 16.2725 15.1219H16.3264C16.8114 15.1219 17.0808 14.6869 17.0808 14.0655C17.0808 13.4441 16.4881 12.8227 16.4881 11.5798C16.4881 10.3991 17.7814 8.47266 17.7814 8.47266C18.6976 9.71552 19.1825 11.1448 19.1825 12.6362Z" fill="white"/>
<path d="M18.0533 22.5806C16.76 22.5806 15.79 21.3998 15.79 19.9706V19.9085C15.79 16.7392 19.6162 16.4285 19.6162 12.1406C19.7239 12.3271 20.7479 13.9428 20.7479 15.6828C20.7479 17.8578 18.9695 18.417 18.9695 19.4734C18.9695 19.9085 19.1312 20.2192 19.6701 20.2192C19.7239 20.2192 19.7778 20.2192 19.8317 20.1571C20.8556 19.6599 21.5561 18.5413 21.6101 17.2363C21.6101 17.2985 22.1489 22.5806 18.0533 22.5806Z" fill="white"/>
<path d="M19.7246 20.2192C19.7786 20.2192 19.8324 20.2192 19.8863 20.1571C19.3474 20.3435 17.3535 20.9028 17.3535 19.2871C17.3535 17.2985 20.3174 16.8635 20.3174 15.1856C20.3174 14.1292 20.1019 13.0728 19.6169 12.1406C19.7246 12.3271 20.7485 13.9428 20.7485 15.6828C20.7485 17.8578 18.9702 18.4171 18.9702 19.4735C19.0241 19.9085 19.2397 20.2192 19.7246 20.2192Z" fill="white"/>
<path d="M18.1076 13.7548C18.1076 15.3084 16.3832 15.1841 16.2754 15.1219H16.4371C16.9221 15.1219 17.1915 14.6869 17.1915 14.0655C17.1915 13.4441 16.5987 12.8227 16.5987 11.5798C16.5987 10.3991 17.8921 8.47266 17.8921 8.47266C17.461 9.28051 17.2454 10.1505 17.1915 11.0205C17.1915 12.4498 18.1076 12.5741 18.1076 13.7548Z" fill="white"/>
<path d="M17.0293 40.9108L15.8438 39.9787H17.2988L17.7837 38.3008L18.2149 39.9787H19.6699L18.4843 40.9108L18.9154 42.5265L17.7298 41.5322L16.4904 42.5265L17.0293 40.9108Z" fill="white"/>
<path d="M23.2266 40.9108L22.041 39.9787H23.4961L23.9811 38.3008L24.4122 39.9787H25.8672L24.6816 40.9108L25.1128 42.5265L23.9272 41.5322L22.6877 42.5265L23.2266 40.9108Z" fill="white"/>
<path d="M10.8887 40.9108L9.70312 39.9787H11.1581L11.6431 38.3008L12.0742 39.9787H13.5293L12.3437 40.9108L12.7748 42.5265L11.5892 41.5322L10.4037 42.5265L10.8887 40.9108Z" fill="white"/>
</g>
<defs>
<clipPath id="clip0_247_46">
<rect width="132" height="35" fill="white" transform="translate(9 8)"/>
</clipPath>
</defs>
</svg>
