<svg width="89" height="15" viewBox="0 0 89 15" fill="none" xmlns="http://www.w3.org/2000/svg">
<g clip-path="url(#clip0_421_4626)">
<g clip-path="url(#clip1_421_4626)">
<g clip-path="url(#clip2_421_4626)">
<mask id="mask0_421_4626" style="mask-type:luminance" maskUnits="userSpaceOnUse" x="0" y="0" width="88" height="15">
<path d="M87.9713 0.792969H0.806641V14.766H87.9713V0.792969Z" fill="white"/>
</mask>
<g mask="url(#mask0_421_4626)">
<path d="M12.3887 4.21484H15.4482C17.9107 4.21484 19.627 5.87515 19.627 8.01509V8.05202C19.627 10.1919 17.9479 11.8522 15.4482 11.8522H12.3887V4.21484ZM15.4482 10.3026C16.866 10.3026 17.7988 9.38028 17.7988 8.05202V8.01509C17.7988 6.68685 16.866 5.72756 15.4482 5.72756H14.1423V10.3026H15.4482Z" fill="white"/>
<path d="M21.1211 4.21484H27.0535V5.69067H22.8747V7.24029H26.5685V8.71617H22.8747V10.3026H27.1281V11.7785H21.1584L21.1211 4.21484Z" fill="white"/>
<path d="M28.0957 10.7059L29.1404 9.52526C29.8493 10.0786 30.5955 10.4476 31.491 10.4476C32.1999 10.4476 32.6103 10.1524 32.6103 9.7466V9.70971C32.6103 9.26695 32.3118 9.04553 31.0433 8.75041C29.4762 8.34458 28.4315 7.93869 28.4315 6.42599V6.38909C28.4315 5.02396 29.5508 4.10156 31.1925 4.10156C32.3118 4.10156 33.3192 4.43362 34.1027 5.06085L33.2073 6.3522C32.5357 5.87255 31.8268 5.61428 31.1552 5.61428C30.4836 5.61428 30.1477 5.90945 30.1477 6.27841V6.24151C30.1477 6.72115 30.4836 6.90563 31.8268 7.23769C33.4311 7.64355 34.2893 8.197 34.2893 9.48829V9.52526C34.2893 11.0379 33.0953 11.8866 31.4163 11.8866C30.2224 11.8866 29.0284 11.4807 28.0957 10.7059Z" fill="white"/>
<path d="M35.8574 4.21484H37.5737V11.8153H35.8574V4.21484Z" fill="white"/>
<path d="M39.2129 8.01327C39.2129 5.83642 40.9292 4.06543 43.3171 4.06543C44.7349 4.06543 45.5557 4.43439 46.3765 5.1354L45.2946 6.42675C44.6976 5.94711 44.1752 5.65194 43.2425 5.65194C41.9739 5.65194 41.0038 6.72192 41.0038 8.01327V8.05014C41.0038 9.45218 41.9739 10.4853 43.3917 10.4853C44.026 10.4853 44.5857 10.3377 45.0333 10.0056V8.93564H43.2798V7.49672H46.675V10.7805C45.8542 11.4446 44.7722 11.998 43.3171 11.998C40.8546 11.8873 39.2129 10.2638 39.2129 8.01327Z" fill="white"/>
<path d="M48.3203 4.21484H49.9247L53.5811 8.86373V4.21484H55.2601V11.8153H53.805L49.9993 6.98202V11.8153H48.3203V4.21484Z" fill="white"/>
<path d="M57.1644 4.21191H60.7462C61.7536 4.21191 62.4999 4.50708 63.0222 4.98672C63.47 5.42946 63.6939 6.01979 63.6939 6.72081V6.75771C63.6939 7.97527 63.0222 8.75005 62.0149 9.11903L63.9176 11.8124H61.9029L60.224 9.37726H60.1866H58.8434V11.8124H57.0898V4.21191H57.1644ZM60.6344 7.86455C61.4925 7.86455 61.9403 7.42183 61.9403 6.79461V6.75771C61.9403 6.05669 61.4551 5.68773 60.5971 5.68773H58.8807V7.86455H60.6344Z" fill="white"/>
<path d="M65.1484 8.52827V4.17459H66.8648V8.45447C66.8648 9.70892 67.4989 10.2992 68.5435 10.2992C69.5882 10.2992 70.223 9.67203 70.223 8.45447V4.1377H71.939V8.41761C71.939 10.7051 70.5956 11.8489 68.5063 11.8489C66.417 11.8489 65.1484 10.742 65.1484 8.52827Z" fill="white"/>
<path d="M73.1699 10.705L74.2145 9.52425C74.9239 10.0777 75.6698 10.4467 76.5653 10.4467C77.274 10.4467 77.6846 10.1515 77.6846 9.74559V9.7087C77.6846 9.26602 77.3858 9.0446 76.1176 8.74948C74.5506 8.34356 73.506 7.93774 73.506 6.42501V6.38812C73.506 5.02297 74.6251 4.10059 76.2666 4.10059C77.3858 4.10059 78.3932 4.43264 79.177 5.05986L78.2814 6.35122C77.61 5.87157 76.9014 5.6133 76.2294 5.6133C75.558 5.6133 75.222 5.90846 75.222 6.27742V6.24052C75.222 6.72018 75.558 6.90465 76.9014 7.23671C78.5057 7.64256 79.3633 8.19598 79.3633 9.48736V9.52425C79.3633 11.037 78.1696 11.8856 76.4908 11.8856C75.3338 11.8856 74.1028 11.4797 73.1699 10.705Z" fill="white"/>
<path d="M80.8555 4.21191H82.5714V7.23735H85.743V4.21191H87.4591V11.8124H85.743V8.78694H82.5714V11.8124H80.8555V4.21191Z" fill="white"/>
<path d="M4.85384 9.70973C4.82927 9.68544 4.82927 9.70973 4.85384 9.70973L4.73104 9.63684L4.70648 9.61255L1.80852 7.57258C1.80852 7.57258 1.78397 7.57258 1.78397 7.54829L1.73485 7.49972L1.71029 7.47543H1.66117L0.826172 6.89258L2.47162 7.13544C2.54529 7.13544 2.56985 7.15973 2.64353 7.18401C2.66809 7.18401 2.71721 7.20829 2.71721 7.20829C2.79088 7.23258 2.81545 7.25686 2.86457 7.28115C2.91368 7.30544 2.93824 7.32972 2.98735 7.35401C3.01191 7.3783 3.06103 7.40258 3.06103 7.42687C3.08559 7.45115 3.11015 7.45115 3.13471 7.47543C3.18382 7.49972 3.20839 7.52401 3.20839 7.54829C3.28206 7.62115 3.33118 7.694 3.40486 7.74257L4.70648 9.56395L4.73104 9.58825L4.85384 9.70973Z" fill="white"/>
<path d="M4.85466 12.5269L4.73187 12.3326L4.7073 12.3083L0.851562 6.89258L1.68657 7.47543L1.83392 7.57258L4.73187 9.61255H4.75642L4.85466 9.68544C4.85466 9.68544 4.87922 9.68544 4.87922 9.70974L5.00202 9.61255L8.90686 6.89258L4.97746 12.3326L4.9529 12.3569L4.85466 12.5269Z" fill="white"/>
<path d="M4.85711 8.78767L4.73431 8.59337L4.70975 8.56916L3.75195 7.25769L4.70975 7.45197H4.73431L4.85711 7.47626L4.9799 7.45197L5.91314 7.2334L4.9799 8.59337V8.61767L4.85711 8.78767Z" fill="white"/>
<path d="M8.93226 6.86914L7.70432 7.03914L7.23768 7.112C6.86929 7.16057 6.52547 7.35486 6.30444 7.67057L5.00282 9.51631L4.97826 9.54061L4.85547 9.71061L5.00282 9.56491L5.02738 9.54061L4.85547 9.71061L8.17089 7.37914L8.93226 6.86914Z" fill="white"/>
<path d="M5.47123 3.03144C5.47123 4.10001 3.60475 4.65858 3.60475 5.80001C3.5802 6.06716 3.65387 6.3343 3.77667 6.57715C3.77667 6.57715 3.06445 5.89716 3.06445 5.16858C3.06445 4.44001 3.75211 3.34715 3.75211 3.34715C3.75211 3.83287 3.94857 3.97858 4.14505 4.00287H4.1696C4.39064 4.00287 4.51343 3.83287 4.51343 3.59001C4.51343 3.34715 4.24329 3.1043 4.24329 2.61859C4.24329 2.15715 4.8327 1.4043 4.8327 1.4043C5.2502 1.89001 5.47123 2.44858 5.47123 3.03144Z" fill="white"/>
<path d="M4.95335 6.91789C4.36393 6.91789 3.92188 6.45646 3.92188 5.89789V5.8736C3.92188 4.63503 5.66556 4.5136 5.66556 2.83789C5.71468 2.91075 6.18129 3.54218 6.18129 4.22217C6.18129 5.07218 5.37086 5.29075 5.37086 5.7036C5.37086 5.8736 5.44453 5.99503 5.69011 5.99503C5.71467 5.99503 5.73923 5.99503 5.76379 5.97074C6.23041 5.77646 6.54967 5.33932 6.57424 4.82932C6.57424 4.85361 6.81983 6.91789 4.95335 6.91789Z" fill="white"/>
<path d="M5.71536 5.99503C5.73993 5.99503 5.76448 5.99503 5.78904 5.97074C5.54345 6.0436 4.63477 6.26218 4.63477 5.63075C4.63477 4.85361 5.98551 4.6836 5.98551 4.02789C5.98551 3.61504 5.88728 3.20217 5.66624 2.83789C5.71536 2.91075 6.18198 3.54218 6.18198 4.22217C6.18198 5.07218 5.37154 5.29075 5.37154 5.70361C5.3961 5.8736 5.49433 5.99503 5.71536 5.99503Z" fill="white"/>
<path d="M4.97758 3.46858C4.97758 4.07572 4.1917 4.02716 4.14258 4.00287H4.21625C4.43729 4.00287 4.56008 3.83287 4.56008 3.59001C4.56008 3.34715 4.28994 3.1043 4.28994 2.61859C4.28994 2.15715 4.87935 1.4043 4.87935 1.4043C4.68288 1.72001 4.58464 2.06 4.56008 2.40001C4.56008 2.95858 4.97758 3.00715 4.97758 3.46858Z" fill="white"/>
<path d="M4.4856 14.0805L3.94531 13.7162H4.6084L4.82943 13.0605L5.02589 13.7162H5.68899L5.14869 14.0805L5.34516 14.712L4.80487 14.3234L4.24001 14.712L4.4856 14.0805Z" fill="white"/>
<path d="M7.31373 14.0805L6.77344 13.7162H7.43652L7.65757 13.0605L7.85406 13.7162H8.51712L7.97682 14.0805L8.17331 14.712L7.63302 14.3234L7.06815 14.712L7.31373 14.0805Z" fill="white"/>
<path d="M1.68874 14.0805L1.14844 13.7162H1.81153L2.03256 13.0605L2.22903 13.7162H2.89212L2.35183 14.0805L2.54829 14.712L2.008 14.3234L1.4677 14.712L1.68874 14.0805Z" fill="white"/>
</g>
</g>
</g>
</g>
<defs>
<clipPath id="clip0_421_4626">
<rect width="88" height="14.53" fill="white" transform="translate(0.1875 0.389648)"/>
</clipPath>
<clipPath id="clip1_421_4626">
<rect width="88" height="14.53" fill="white" transform="translate(0.1875 0.389648)"/>
</clipPath>
<clipPath id="clip2_421_4626">
<rect width="87.9872" height="14.53" fill="white" transform="translate(0.193359 0.389648)"/>
</clipPath>
</defs>
</svg>
