<svg width="150" height="51" viewBox="0 0 150 51" fill="none" xmlns="http://www.w3.org/2000/svg">
<g clip-path="url(#clip0_245_39)">
<path d="M40.6052 31.8353C39.4257 31.8353 38.3252 31.639 37.3313 31.2588C36.3458 30.8824 35.4596 30.3142 34.7331 29.5928C34.0036 28.8572 33.4202 27.9633 33.0097 26.922C32.5991 25.8675 32.3994 24.6788 32.3994 23.3434C32.3994 21.5789 32.7444 20.072 33.447 18.8096C34.1363 17.5471 35.1042 16.5671 36.3365 15.8812C37.5697 15.1952 38.9884 14.8522 40.6052 14.8522C42.687 14.8522 44.3441 15.293 45.5765 16.1877C46.8097 17.0816 47.6584 18.3075 48.1091 19.8874L45.5102 20.3048C45.1526 19.324 44.5691 18.552 43.7734 17.9638C42.9784 17.3881 41.971 17.0816 40.7513 17.0816C39.5055 17.0699 38.4578 17.3268 37.636 17.8536C36.8007 18.3805 36.1778 19.1037 35.7665 20.0472C35.3552 20.9907 35.1302 22.081 35.1302 23.331C35.1168 24.581 35.3291 25.6712 35.7405 26.6031C36.151 27.5342 36.7873 28.2691 37.6226 28.7843C38.4578 29.3111 39.5055 29.568 40.7513 29.5804C41.7586 29.5928 42.6207 29.4213 43.3494 29.0659C44.0789 28.7105 44.6489 28.183 45.0728 27.4853C45.4976 26.787 45.7755 25.9412 45.8947 24.924H42.4613V23.0121H48.6128C48.6263 23.1471 48.6389 23.331 48.6523 23.5521C48.6657 23.7725 48.6657 23.9191 48.6657 23.9804C48.6657 25.4881 48.3476 26.8359 47.7247 28.0239C47.0878 29.2133 46.1731 30.1447 44.9805 30.818C43.7741 31.4923 42.3152 31.8353 40.6052 31.8353ZM56.3813 31.8353C55.0549 31.8353 53.9023 31.5536 52.9344 31.0019C51.9665 30.4529 51.1854 29.6631 50.6805 28.723C50.1499 27.7546 49.8855 26.6279 49.8855 25.3655C49.8855 24.0914 50.1499 22.9639 50.6939 21.9956C51.237 21.028 51.9926 20.2683 52.9605 19.729C53.9284 19.189 55.0684 18.9198 56.3678 18.9198C57.6934 18.9198 58.8468 19.2022 59.8147 19.7531C60.7824 20.3024 61.5633 21.0924 62.0678 22.0328C62.5984 23.0004 62.8636 24.1154 62.8636 25.3779C62.8636 26.652 62.5984 27.7787 62.0552 28.7478C61.5488 29.691 60.7624 30.4814 59.7878 31.0267C58.8468 31.566 57.6934 31.8353 56.3813 31.8353ZM56.3813 29.6052C57.6539 29.6052 58.5949 29.2133 59.2178 28.4165C59.8415 27.632 60.1589 26.6031 60.1589 25.3655C60.1589 24.0914 59.8407 23.0617 59.2044 22.3021C58.5681 21.53 57.627 21.1505 56.3805 21.1505C55.5199 21.1505 54.8173 21.3337 54.2599 21.6891C53.7034 22.0445 53.292 22.5472 53.0268 23.1719C52.7615 23.7965 52.6163 24.5321 52.6163 25.3655C52.6163 26.6522 52.9344 27.6816 53.5707 28.4537C54.207 29.2126 55.1481 29.6052 56.3813 29.6052ZM70.8444 31.8353C69.5181 31.8353 68.3655 31.5536 67.3976 31.0019C66.4297 30.4529 65.6485 29.6631 65.1436 28.723C64.6139 27.7546 64.3486 26.6279 64.3486 25.3655C64.3486 24.0914 64.6139 22.9639 65.157 21.9956C65.701 21.028 66.4565 20.2683 67.4236 19.729C68.3915 19.189 69.5315 18.9198 70.831 18.9198C72.1573 18.9198 73.3099 19.2022 74.2778 19.7531C75.2456 20.3024 76.0264 21.0924 76.531 22.0328C77.0615 23.0004 77.3268 24.1154 77.3268 25.3779C77.3268 26.652 77.0615 27.7787 76.5184 28.7478C76.0119 29.691 75.2255 30.4814 74.251 31.0267C73.2965 31.566 72.1565 31.8353 70.8444 31.8353ZM70.8444 29.6052C72.117 29.6052 73.0581 29.2133 73.681 28.4165C74.3047 27.632 74.622 26.6031 74.622 25.3655C74.622 24.0914 74.3039 23.0617 73.6676 22.3021C73.0313 21.53 72.0902 21.1505 70.8444 21.1505C69.9823 21.1505 69.2797 21.3337 68.7231 21.6891C68.1665 22.0445 67.7552 22.5472 67.4899 23.1719C67.2255 23.7973 67.0794 24.5321 67.0794 25.3655C67.0794 26.6522 67.3976 27.6816 68.0339 28.4537C68.6702 29.2126 69.5978 29.6052 70.8444 29.6052ZM84.8039 31.8353C83.5707 31.8353 82.5105 31.5536 81.6089 30.9895C80.7073 30.4261 80.0178 29.6541 79.5405 28.6733C79.0502 27.6933 78.8118 26.5907 78.8118 25.3655C78.8118 24.1402 79.0502 23.0376 79.5539 22.0569C80.0449 21.0885 80.7476 20.3165 81.6484 19.7531C82.5499 19.1888 83.6239 18.9069 84.8702 18.9074C86.116 18.9074 87.177 19.189 88.0249 19.7531C88.8736 20.3165 89.5234 21.0885 89.9607 22.0569C90.3981 23.0369 90.6105 24.1278 90.6105 25.3531C90.6105 26.5783 90.3847 27.6809 89.9473 28.6492C89.5099 29.6169 88.8602 30.4013 87.9989 30.9654C87.1368 31.5536 86.0765 31.8353 84.8039 31.8353ZM85.1615 29.6906C86.0102 29.6906 86.686 29.5067 87.2165 29.1389C87.747 28.7718 88.1315 28.2567 88.3834 27.6079C88.6352 26.9585 88.7544 26.2105 88.7544 25.3655C88.7544 24.519 88.6352 23.7725 88.3834 23.123C88.1315 22.4735 87.747 21.9708 87.2299 21.6037C86.7128 21.2359 86.0497 21.0637 85.2547 21.0637C84.406 21.0637 83.7034 21.2607 83.1602 21.6402C82.6163 22.0197 82.2057 22.5465 81.9405 23.196C81.6752 23.8454 81.5426 24.5686 81.5426 25.3779C81.5426 26.1864 81.6752 26.9213 81.9405 27.5707C82.2057 28.2202 82.6028 28.747 83.1468 29.1272C83.6639 29.4943 84.3397 29.6906 85.1615 29.6906ZM88.7544 31.4915V22.6823H88.4623V15.1704H91.0344V31.4923L88.7544 31.4915ZM92.9963 21.1622V19.2503H101.096V21.1622H92.9963ZM95.1973 31.4923V18.822C95.1973 18.5155 95.2105 18.1847 95.2368 17.8295C95.2636 17.4742 95.3299 17.1312 95.4491 16.7875C95.572 16.4372 95.7753 16.1156 96.0452 15.8447C96.3768 15.5017 96.7478 15.2682 97.1457 15.1215C97.5251 14.9767 97.9286 14.8938 98.3386 14.8763C98.7365 14.8515 99.0949 14.8398 99.4391 14.8398H101.11V16.7882H99.5584C98.9489 16.7882 98.4981 16.9225 98.2068 17.2042C97.9012 17.4866 97.756 17.866 97.756 18.3805V31.5047H95.1973V31.4923ZM103.682 17.2407V14.9493H106.24V17.2407H103.682ZM103.682 31.4923V19.2511H106.24V31.4923H103.682ZM109.435 31.4923V19.2511H111.715V22.2152L111.397 21.8358C111.551 21.4496 111.765 21.0862 112.033 20.7572C112.283 20.4432 112.587 20.17 112.934 19.9487C113.266 19.7276 113.637 19.5444 114.062 19.4218C114.475 19.3005 114.902 19.2222 115.334 19.1883C115.772 19.1642 116.182 19.1883 116.58 19.2503V21.468C116.143 21.3578 115.665 21.333 115.135 21.3819C114.616 21.4252 114.115 21.5853 113.677 21.8482C113.282 22.0793 112.946 22.3889 112.696 22.7545C112.452 23.1208 112.277 23.5228 112.179 23.9432C112.071 24.3936 112.018 24.8538 112.02 25.3151V31.4915L109.435 31.4923ZM118.409 31.4923V19.2511H120.689V22.7917H120.982V31.4923H118.409ZM126.351 31.4923L126.363 23.9075C126.363 23.0128 126.125 22.3145 125.635 21.8117C125.144 21.3096 124.495 21.052 123.673 21.052C122.864 21.052 122.214 21.3096 121.71 21.8241C121.22 22.3385 120.968 23.0128 120.968 23.8454L119.748 23.123C119.748 22.3261 119.961 21.6037 120.371 20.9783C120.782 20.3517 121.369 19.8393 122.069 19.4955C122.785 19.1285 123.58 18.957 124.481 18.957C125.422 18.957 126.218 19.1401 126.88 19.5079C127.536 19.8705 128.062 20.4034 128.392 21.0404C128.737 21.7015 128.909 22.4611 128.909 23.3317L128.896 31.5047H126.351V31.4923ZM134.278 31.4923L134.291 23.8578C134.291 22.9756 134.053 22.2897 133.562 21.7869C133.072 21.2972 132.422 21.0396 131.627 21.0396C131.136 21.0396 130.686 21.1381 130.288 21.3461C129.877 21.5541 129.558 21.8606 129.307 22.2772C129.055 22.6939 128.935 23.2084 128.935 23.8214L127.702 23.2449C127.69 22.3874 127.888 21.6278 128.299 20.9783C128.7 20.3429 129.283 19.8216 129.983 19.4714C130.698 19.1161 131.494 18.9322 132.369 18.9322C133.801 18.9322 134.901 19.324 135.697 20.1209C136.479 20.917 136.876 21.9708 136.876 23.2821L136.863 31.4799H134.278V31.4923ZM144.618 31.8236C143.014 31.8236 141.701 31.4923 140.68 30.8428C139.673 30.181 139.05 29.2622 138.812 28.0618L141.437 27.6816C141.595 28.3187 141.98 28.8215 142.577 29.1885C143.173 29.5563 143.902 29.7402 144.79 29.7402C145.585 29.7402 146.222 29.5928 146.673 29.287C147.124 28.9805 147.349 28.5639 147.349 28.037C147.349 27.7305 147.269 27.4729 147.11 27.2774C146.951 27.0813 146.62 26.8974 146.116 26.7257C145.612 26.5542 144.83 26.3338 143.796 26.0762C142.656 25.8067 141.754 25.5126 141.092 25.194C140.429 24.8758 139.952 24.5204 139.673 24.0914C139.395 23.6747 139.249 23.1602 139.249 22.5721C139.249 21.8365 139.461 21.187 139.885 20.6361C140.309 20.0844 140.906 19.6553 141.689 19.3488C142.457 19.0424 143.372 18.8964 144.406 18.8964C145.413 18.8964 146.328 19.0424 147.11 19.3372C147.906 19.6312 148.542 20.0479 149.032 20.5872C149.523 21.1257 149.815 21.7628 149.92 22.486L147.296 22.9274C147.203 22.3393 146.912 21.8737 146.395 21.53C145.891 21.187 145.228 21.0031 144.419 20.9791C143.637 20.9542 143.014 21.0644 142.537 21.3344C142.059 21.6044 141.808 21.9715 141.808 22.4371C141.808 22.7071 141.9 22.9391 142.086 23.123C142.271 23.3069 142.63 23.4908 143.159 23.663C143.69 23.8338 144.472 24.0425 145.519 24.2877C146.633 24.5569 147.508 24.8386 148.171 25.1699C148.821 25.4881 149.298 25.8683 149.576 26.309C149.854 26.7505 150 27.2898 150 27.9144C150 29.1272 149.523 30.0708 148.569 30.7574C147.614 31.4799 146.302 31.8236 144.618 31.8236Z" fill="#FEFEFE"/>
<path d="M0 18.5908H24.7105V14.6575C24.7107 14.3373 24.6427 14.0202 24.5103 13.7243C24.3778 13.4285 24.1836 13.1596 23.9388 12.9331C23.6939 12.7067 23.4031 12.527 23.0831 12.4044C22.7631 12.2818 22.4201 12.2188 22.0737 12.2188C22.0737 12.2188 14.7813 12.4391 12.3553 12.4391C9.92921 12.4391 2.63842 12.2188 2.63842 12.2188C2.29201 12.2186 1.94896 12.2815 1.62886 12.4039C1.30876 12.5263 1.01789 12.7058 0.772871 12.9321C0.527851 13.1584 0.333481 13.4272 0.200869 13.723C0.0682562 14.0188 -6.21047e-08 14.3359 0 14.656V18.5908Z" fill="#DBB879"/>
<path d="M3.27474 34.4452L7.66263 37.4108C9.02751 38.3305 10.673 38.826 12.362 38.826C14.051 38.826 15.6964 38.3305 17.0613 37.4108L21.4492 34.4452C22.463 33.7631 23.2881 32.8693 23.8571 31.8365C24.4262 30.8038 24.7232 29.6613 24.7239 28.5023V14.5572C24.7264 14.2408 24.659 13.9274 24.5259 13.6359C24.3928 13.3445 24.1967 13.0813 23.9498 12.8623C23.7028 12.6433 23.4101 12.4732 23.0895 12.3623C22.769 12.2515 22.4274 12.2023 22.0855 12.2176L20.1103 12.4264C14.9654 12.9658 9.77113 12.9658 4.62632 12.4264L2.63842 12.2169C2.29701 12.2036 1.95622 12.2543 1.63658 12.366C1.31694 12.4777 1.02507 12.6481 0.778552 12.8668C0.532032 13.0855 0.335964 13.3481 0.202162 13.6387C0.0683601 13.9294 -0.000407643 14.242 1.81781e-06 14.5579V28.4899C0.000618618 29.6506 0.297498 30.7947 0.866513 31.8294C1.43553 32.8641 2.26062 33.7608 3.27474 34.4452Z" fill="white"/>
<path opacity="0.2" d="M17.518 23.1745L15.2246 25.2455L15.7686 28.1615C15.7785 28.2236 15.7702 28.2871 15.7445 28.3452C15.7188 28.4034 15.6767 28.4541 15.6225 28.492C15.5615 28.5345 15.4865 28.5561 15.4101 28.5533C15.3505 28.5533 15.2917 28.5409 15.238 28.5168L12.4007 27.145L9.55066 28.5168C9.49052 28.5465 9.42256 28.5599 9.35457 28.5555C9.28658 28.5511 9.2213 28.5291 9.16619 28.492C9.10918 28.4565 9.06486 28.4061 9.03886 28.3473C9.01286 28.2884 9.00635 28.2237 9.02014 28.1615L9.56408 25.2455L7.27066 23.1745C7.22135 23.1315 7.18638 23.0764 7.16987 23.0156C7.15337 22.9548 7.15601 22.891 7.17751 22.8315C7.19908 22.772 7.23757 22.7189 7.28896 22.6778C7.34035 22.6367 7.40275 22.6092 7.46961 22.598L10.6378 22.1697L12.0565 19.5105C12.1749 19.2777 12.5862 19.2777 12.7196 19.5105L14.1375 22.1697L17.3057 22.5987C17.4383 22.6228 17.5583 22.7082 17.5978 22.8315C17.6219 22.8897 17.6272 22.9531 17.6131 23.014C17.5989 23.0749 17.5659 23.1306 17.518 23.1745Z" fill="black"/>
</g>
<defs>
<clipPath id="clip0_245_39">
<rect width="150" height="27" fill="white" transform="translate(0 12)"/>
</clipPath>
</defs>
</svg>
