<svg width="89" height="25" viewBox="0 0 89 25" fill="none" xmlns="http://www.w3.org/2000/svg">
<g clip-path="url(#clip0_421_4605)">
<g clip-path="url(#clip1_421_4605)">
<g clip-path="url(#clip2_421_4605)">
<mask id="mask0_421_4605" style="mask-type:luminance" maskUnits="userSpaceOnUse" x="1" y="5" width="88" height="15">
<path d="M88.2698 5.77344H1.10352V19.5366H88.2698V5.77344Z" fill="white"/>
</mask>
<g mask="url(#mask0_421_4605)">
<path d="M6.44973 10.6993C6.44973 10.6993 5.72334 10.6261 5.72334 11.2705V14.1556H10.4884V15.0197C10.4884 15.0197 10.503 15.4445 10.0526 15.4445H5.72334V19.1937H10.9243C10.9243 19.1937 14.0768 18.7104 14.1058 15.4445V10.6993H6.44973ZM13.9605 6.10059H4.57564C1.17616 6.90609 1.10352 9.71803 1.10352 9.71803V19.2084H4.7064V10.5675C4.7064 9.83519 5.43279 9.70339 5.43279 9.70339H13.946L13.9605 6.10059ZM26.3528 16.4843C26.1058 16.6454 25.917 16.7772 25.7862 16.8504C25.3212 17.1433 24.8854 17.3631 24.4787 17.5387C23.883 17.7877 23.36 17.9049 22.8806 17.9049C21.2536 17.9049 19.9024 17.407 18.8274 16.3964C17.7378 15.3859 17.2003 14.1117 17.2003 12.5885C17.2003 11.1094 17.6797 9.8352 18.6675 8.73678C19.641 7.65301 20.8322 7.11113 22.2268 7.11113C22.808 7.11113 23.4327 7.21364 24.0719 7.41868C24.9146 7.68231 25.5828 8.09238 26.1348 8.60497L25.2051 9.6448C24.8128 9.24938 24.2898 8.97111 23.6942 8.79536C23.2438 8.66355 22.7498 8.59033 22.1978 8.59033C21.2244 8.59033 20.3964 8.98575 19.7281 9.77661C19.0744 10.5821 18.7402 11.5194 18.7402 12.6325C18.7402 13.731 19.118 14.6389 19.8734 15.3566C20.6288 16.0742 21.5877 16.4403 22.7498 16.4403C23.2292 16.4403 23.7233 16.2792 24.2316 15.9863C24.653 15.6641 24.871 15.5031 24.871 15.5031V13.2183H21.7184L22.1688 11.7977H26.3528V16.4843ZM35.8394 13.7017C35.8394 14.8 35.4471 15.752 34.6772 16.5575C33.9072 17.3631 32.9484 17.7731 31.8007 17.7731C30.7401 17.7731 29.8249 17.3777 29.0258 16.5868C28.2268 15.7959 27.8346 14.844 27.8346 13.7163C27.8346 12.6032 28.2123 11.6512 28.9678 10.8311C29.7232 10.0109 30.6529 9.61551 31.728 9.61551C32.9338 9.61551 33.9072 10.0109 34.6772 10.7872C35.4471 11.5487 35.8394 12.53 35.8394 13.7017ZM34.3721 13.731C34.3721 12.984 34.1251 12.3542 33.6312 11.8416C33.1372 11.3144 32.5271 11.0654 31.7861 11.0654C31.1034 11.0654 30.5222 11.329 30.0282 11.8709C29.5488 12.3981 29.3019 13.0133 29.3019 13.7017C29.3019 14.4192 29.5488 15.0344 30.0282 15.547C30.5077 16.0596 31.1178 16.3232 31.8443 16.3232C32.5271 16.3232 33.1082 16.0742 33.6021 15.5617C34.1251 15.0344 34.3721 14.4192 34.3721 13.731ZM45.2098 13.7017C45.2098 14.8 44.8175 15.752 44.0476 16.5575C43.2776 17.3631 42.3187 17.7731 41.1711 17.7731C40.1105 17.7731 39.1953 17.3777 38.3962 16.5868C37.5972 15.7959 37.205 14.844 37.205 13.7163C37.205 12.6032 37.5827 11.6512 38.3382 10.8311C39.0936 10.0109 40.0234 9.61551 41.0984 9.61551C42.3042 9.61551 43.2776 10.0109 44.0476 10.7872C44.8175 11.5487 45.2098 12.53 45.2098 13.7017ZM43.7279 13.731C43.7279 12.984 43.481 12.3542 42.987 11.8416C42.4931 11.3144 41.8829 11.0654 41.142 11.0654C40.4592 11.0654 39.8781 11.329 39.3842 11.8709C38.9048 12.3981 38.6578 13.0133 38.6578 13.7017C38.6578 14.4192 38.9048 15.0344 39.3842 15.547C39.8636 16.0596 40.4738 16.3232 41.2001 16.3232C41.8829 16.3232 42.4641 16.0742 42.958 15.5617C43.481 15.0344 43.7279 14.4192 43.7279 13.731ZM53.8683 17.5534L52.5172 17.7584V16.4403L52.2267 16.7772C51.9652 17.0261 51.6747 17.2166 51.3696 17.3777C50.9047 17.5973 50.4107 17.6998 49.9022 17.6998C48.8418 17.6998 47.941 17.3045 47.2146 16.5282C46.4883 15.752 46.1105 14.8 46.1105 13.7163C46.1105 12.5885 46.4737 11.622 47.2001 10.8311C47.9265 10.0256 48.7982 9.63016 49.8586 9.63016C50.4688 9.63016 50.9918 9.73268 51.4277 9.92307C51.7473 10.0695 52.0088 10.2599 52.2413 10.4942C52.3139 10.5968 52.3865 10.6993 52.4737 10.8018V7.33081L53.9119 7.12578L53.8683 17.5534ZM52.6044 13.8041C52.6044 13.0279 52.3429 12.3688 51.8199 11.8416C51.2969 11.2998 50.7013 11.0361 50.0185 11.0361C49.263 11.0361 48.6674 11.2851 48.2025 11.7977C47.7667 12.281 47.5487 12.8815 47.5487 13.5845C47.5487 14.3753 47.7812 15.0344 48.2316 15.547C48.6819 16.0596 49.2485 16.3085 49.9604 16.3085C50.6432 16.3085 51.2533 16.0742 51.7909 15.5909C52.3284 15.1076 52.6044 14.5071 52.6044 13.8041ZM61.4809 8.76607H57.4421V11.5341H60.5801V12.9547H57.4421V17.5387L55.8731 17.7731V7.33081H61.1758L61.4809 8.76607ZM64.7205 7.96057L63.7473 9.19079L62.8174 7.96057L63.7908 6.74499L64.7205 7.96057ZM64.43 17.5534L62.9918 17.7584V10.0256L64.43 9.80591V17.5534ZM70.9383 9.71803L70.2554 11.2998C70.1682 11.2851 70.0811 11.2851 69.9795 11.2851C69.8347 11.2851 69.7036 11.2998 69.5581 11.3144C69.4132 11.329 69.2678 11.3876 69.1079 11.4755C68.8031 11.6073 68.5416 11.9002 68.3233 12.3249C68.0762 12.8229 67.9459 13.3648 67.9459 13.9213V17.5387L66.5075 17.7731V10.0256L67.8442 9.77661V11.3876C68.0186 11.1094 68.1929 10.8311 68.3672 10.5382C68.6137 10.2453 68.9047 10.0402 69.2239 9.90842C69.3981 9.83519 69.7036 9.79126 70.1827 9.74733C70.648 9.71804 70.9095 9.70339 70.9383 9.71803ZM81.6891 17.5534L80.2508 17.7584V12.4567C80.2508 11.9735 80.1491 11.6073 79.9309 11.3876C79.7133 11.1679 79.3935 11.0508 78.972 11.0508C78.4635 11.0508 78.086 11.2558 77.8245 11.6805C77.6501 11.9734 77.5486 12.281 77.5486 12.5885V17.5241L76.11 17.7877V12.4714C76.11 12.0027 76.0084 11.6512 75.7909 11.4023C75.5726 11.1533 75.2967 11.0361 74.9336 11.0361H74.7881C74.2802 11.0361 73.9164 11.2412 73.6844 11.6805C73.5101 12.0027 73.4229 12.4128 73.4229 12.9108V17.5094L71.926 17.7731V9.9963L73.2774 9.76197V10.7579C73.4229 10.5235 73.5828 10.3331 73.7132 10.2013C74.1058 9.83519 74.5561 9.65945 75.064 9.65945C75.6309 9.65945 76.0523 9.74733 76.3427 9.93772C76.5898 10.0988 76.8224 10.4064 77.0689 10.8457C77.563 10.0549 78.2603 9.65945 79.1903 9.65945C80.0764 9.65945 80.7299 9.93772 81.1657 10.5089C81.5143 10.9775 81.6891 11.6659 81.6891 12.5592V17.5534ZM88.2704 15.21C88.2704 15.9277 88.0233 16.5135 87.5285 16.9676C87.0353 17.4362 86.4105 17.6559 85.655 17.6559C85.0883 17.6559 84.5806 17.5241 84.1148 17.2605C83.6506 16.9968 83.3019 16.6893 83.0832 16.3378L84.1003 15.4298C84.1729 15.547 84.2464 15.6348 84.3045 15.6934C84.6814 16.0888 85.1319 16.2792 85.655 16.2792C86.0182 16.2792 86.3088 16.1767 86.5122 15.9863C86.7302 15.7959 86.8311 15.5324 86.8311 15.1808C86.8311 14.7854 86.5849 14.5218 86.0909 14.3753C85.1173 14.0824 84.5806 13.9066 84.5071 13.8773C84.0575 13.6431 83.737 13.3941 83.5344 13.1158C83.3019 12.7936 83.1857 12.3688 83.1857 11.827C83.1857 11.1533 83.4319 10.6114 83.9114 10.1574C84.3909 9.71803 84.9721 9.49835 85.6404 9.49835C86.149 9.49835 86.6139 9.61551 87.0498 9.84984C87.4857 10.0842 87.7901 10.3331 87.9798 10.6114L87.1225 11.5487C86.9917 11.4169 86.8464 11.2998 86.7011 11.1972C86.3524 10.9483 86.0182 10.8311 85.7131 10.8311C85.408 10.8311 85.1609 10.9043 84.972 11.0361C84.7396 11.1972 84.6233 11.4462 84.6233 11.7684C84.6233 12.076 84.725 12.3103 84.9575 12.4567C85.1464 12.5739 85.5532 12.7057 86.2071 12.8522C86.8464 13.0133 87.3542 13.2769 87.7029 13.6577C88.1105 14.0677 88.2704 14.5657 88.2704 15.21Z" fill="white"/>
</g>
</g>
</g>
</g>
<defs>
<clipPath id="clip0_421_4605">
<rect width="88" height="14.53" fill="white" transform="translate(0.789062 5.38965)"/>
</clipPath>
<clipPath id="clip1_421_4605">
<rect width="88" height="14.53" fill="white" transform="translate(0.789062 5.38965)"/>
</clipPath>
<clipPath id="clip2_421_4605">
<rect width="87.9872" height="14.53" fill="white" transform="translate(0.794922 5.38965)"/>
</clipPath>
</defs>
</svg>
