<svg width="150" height="51" viewBox="0 0 150 51" fill="none" xmlns="http://www.w3.org/2000/svg">
<path d="M43.3454 13.6172H44.0924C46.6856 13.6661 49.2366 14.5703 51.0689 16.171C50.3924 16.7697 49.7017 17.344 49.0393 17.9428C48.0105 17.1363 46.7702 16.5131 45.4172 16.2932C43.4158 15.9266 41.2595 16.2565 39.5823 17.2463C37.7501 18.2849 36.5098 20.0445 36.242 21.9262C35.946 23.7835 36.5521 25.7386 37.9474 27.1804C39.2863 28.5856 41.3299 29.4654 43.444 29.5265C45.4172 29.6243 47.4749 29.0988 48.9125 27.9014C50.04 27.0582 50.5615 25.7752 50.7306 24.5289C48.391 24.5289 46.0514 24.5411 43.7118 24.5289V22.0117H53.5635C54.0709 24.7122 53.338 27.7547 50.9702 29.6854C49.3917 31.0539 47.2071 31.8604 44.9803 32.0192C42.8239 32.2025 40.5971 31.8481 38.6803 30.9439C36.383 29.8809 34.5507 28.0847 33.6487 25.9707C32.8031 24.0279 32.789 21.8285 33.5783 19.8734C34.2971 18.0894 35.6783 16.5131 37.4541 15.4134C39.1595 14.3259 41.2313 13.7272 43.3454 13.6172Z" fill="white"/>
<path d="M99.8613 14.2539H102.877V31.7028C101.877 31.7028 100.862 31.7151 99.8613 31.6906C99.8754 25.8865 99.8613 20.0702 99.8613 14.2539Z" fill="white"/>
<path d="M60.2723 20.2998C62.1327 19.9943 64.1481 20.3365 65.6844 21.3018C67.0797 22.1571 68.0522 23.5012 68.3481 24.9675C68.7287 26.666 68.2495 28.5233 66.981 29.8674C65.6139 31.3703 63.373 32.1768 61.1884 32.0546C59.1871 31.9569 57.2421 31.0893 56.0582 29.6719C54.7193 28.1078 54.3951 25.9573 55.128 24.1244C55.8609 22.1571 57.9327 20.6542 60.2723 20.2998ZM60.6951 22.6214C59.934 22.7925 59.2293 23.1713 58.722 23.7089C57.3548 25.1264 57.4394 27.4358 58.9475 28.7554C59.8072 29.513 61.1038 29.8674 62.3018 29.6597C63.4152 29.4886 64.3877 28.841 64.9233 27.9856C65.8535 26.5316 65.5857 24.5276 64.1622 23.3912C63.2461 22.6581 61.9072 22.3526 60.6951 22.6214Z" fill="white"/>
<path d="M75.2112 20.3007C77.3394 19.9463 79.6649 20.4595 81.2575 21.7548C83.8508 23.7709 84.1327 27.5466 81.92 29.8683C80.581 31.3346 78.4106 32.141 76.2683 32.0555C74.2246 32.0066 72.2092 31.1269 70.9971 29.6728C69.63 28.0721 69.334 25.8726 70.1092 24.0031C70.8844 22.0969 72.9139 20.6428 75.2112 20.3007ZM75.634 22.6223C74.873 22.7934 74.1683 23.1722 73.6609 23.6976C72.3079 25.0906 72.3642 27.3634 73.8159 28.6952C74.6757 29.4895 76.0146 29.8805 77.2548 29.6606C78.3542 29.4773 79.3408 28.8419 79.8763 27.9865C80.7924 26.5202 80.5246 24.5163 79.0871 23.3799C78.171 22.6468 76.832 22.3535 75.634 22.6223Z" fill="white"/>
<path d="M87.8816 21.0098C89.5024 20.13 91.6588 19.8856 93.4064 20.6432C93.9561 20.8509 94.4071 21.2053 94.844 21.5597C94.8581 21.2297 94.844 20.8876 94.8581 20.5455C95.8024 20.5577 96.7467 20.5455 97.7051 20.5577V31.335C97.691 32.9601 97.2118 34.683 95.8588 35.8683C94.3789 37.1757 92.1098 37.5789 90.0661 37.3101C87.8816 37.0291 85.9789 35.6483 85.1333 33.901C85.9789 33.5466 86.8668 33.2656 87.7406 32.9357C88.2339 33.9376 89.2346 34.793 90.489 34.9885C91.7433 35.184 93.195 34.9152 94.0124 34.011C94.8863 33.0823 94.8863 31.8115 94.844 30.6751C94.1957 31.225 93.4487 31.7138 92.5467 31.897C90.5876 32.3736 88.4312 31.7871 86.9232 30.6385C85.401 29.4899 84.499 27.7181 84.5836 25.9585C84.6259 23.9668 85.9225 22.0484 87.8816 21.0098ZM90.799 22.5738C89.9393 22.696 89.1359 23.1115 88.5863 23.6858C87.2614 25.0543 87.2614 27.2416 88.6004 28.5857C89.3614 29.3799 90.5876 29.8198 91.7715 29.7098C92.8849 29.6121 93.9138 29.0011 94.4635 28.158C95.3937 26.7283 95.2386 24.7855 93.9843 23.5392C93.2091 22.7693 91.9688 22.3906 90.799 22.5738Z" fill="white"/>
<path d="M106.5 21.6328C108.191 20.2642 110.799 19.7999 112.969 20.5208C115.027 21.1929 116.338 22.8914 117 24.6387C113.942 25.7384 110.898 26.8259 107.839 27.9256C108.262 28.6221 108.91 29.2575 109.784 29.5141C111.01 29.8929 112.476 29.7585 113.505 29.0498C113.914 28.781 114.238 28.4266 114.548 28.0845C115.323 28.5366 116.098 28.9765 116.873 29.4286C115.774 30.8582 113.928 31.8602 111.94 32.0191C109.742 32.2512 107.402 31.5181 105.979 30.0273C103.639 27.6813 103.865 23.7467 106.5 21.6328ZM108.008 23.8933C107.529 24.4921 107.332 25.2252 107.346 25.9461C109.389 25.213 111.433 24.4798 113.477 23.7345C113.138 23.0502 112.321 22.6347 111.489 22.5248C110.151 22.3171 108.755 22.9402 108.008 23.8933Z" fill="white"/>
</svg>
