<svg width="104" height="25" viewBox="0 0 104 25" fill="none" xmlns="http://www.w3.org/2000/svg">
<g clip-path="url(#clip0_421_4698)">
<g clip-path="url(#clip1_421_4698)">
<mask id="mask0_421_4698" style="mask-type:luminance" maskUnits="userSpaceOnUse" x="1" y="2" width="64" height="22">
<path d="M64.4824 2.16016H1.48242V23.1602H64.4824V2.16016Z" fill="white"/>
</mask>
<g mask="url(#mask0_421_4698)">
<path d="M16.7278 9.22484H9.49313V11.3373H14.6244C14.3701 14.2942 11.8663 15.5634 9.50179 15.5634C8.75271 15.5667 8.01048 15.423 7.31843 15.1409C6.62638 14.8588 5.99838 14.4438 5.4711 13.9202C4.94381 13.3966 4.5278 12.7749 4.24736 12.0914C3.96692 11.4078 3.82767 10.6761 3.83773 9.93904C3.83773 6.74106 6.35368 4.27888 9.50873 4.27888C11.9426 4.27888 13.3768 5.80566 13.3768 5.80566L14.8792 4.27377C14.8792 4.27377 12.9492 2.16016 9.43014 2.16016C4.94893 2.16016 1.48242 5.88186 1.48242 9.90152C1.48242 13.8405 4.74322 17.6816 9.5434 17.6816C13.7657 17.6816 16.8566 14.835 16.8566 10.6259C16.8566 9.73775 16.7255 9.22484 16.7255 9.22484H16.7278Z" fill="white"/>
<path d="M22.6532 7.69531C19.6842 7.69531 17.5566 9.9795 17.5566 12.6424C17.5566 15.3457 19.6195 17.672 22.6879 17.672C25.465 17.672 27.74 15.5834 27.74 12.7004C27.74 9.40234 25.0934 7.69531 22.6532 7.69531ZM22.6821 9.65481C24.1417 9.65481 25.5251 10.8165 25.5251 12.6879C25.5251 14.5189 24.1475 15.7142 22.6751 15.7142C21.0572 15.7142 19.7859 14.4393 19.7859 12.6732C19.7859 10.9445 21.0456 9.65481 22.6867 9.65481H22.6821Z" fill="white"/>
<path d="M33.7392 7.69531C30.7702 7.69531 28.6426 9.9795 28.6426 12.6424C28.6426 15.3457 30.7055 17.672 33.7739 17.672C36.551 17.672 38.826 15.5834 38.826 12.7004C38.826 9.40234 36.1795 7.69531 33.7392 7.69531ZM33.7681 9.65481C35.2277 9.65481 36.6111 10.8165 36.6111 12.6879C36.6111 14.5189 35.2335 15.7142 33.7612 15.7142C32.1432 15.7142 30.8719 14.4393 30.8719 12.6732C30.8719 10.9445 32.1316 9.65481 33.7727 9.65481H33.7681Z" fill="white"/>
<path d="M44.6068 7.7002C41.8817 7.7002 39.7402 10.0486 39.7402 12.6849C39.7402 15.6872 42.2232 17.6786 44.5594 17.6786C46.004 17.6786 46.7726 17.1139 47.3331 16.4663V17.45C47.3331 19.1712 46.271 20.2022 44.6681 20.2022C43.1194 20.2022 42.3428 19.0689 42.0677 18.4263L40.1192 19.2224C40.8103 20.6611 42.2018 22.1605 44.6842 22.1605C47.4001 22.1605 49.4584 20.4814 49.4584 16.9593V7.99987H47.3412V8.84486C46.6882 8.15112 45.7937 7.7002 44.608 7.7002H44.6068ZM44.8033 9.65629C46.1393 9.65629 47.5111 10.7788 47.5111 12.6957C47.5111 14.6444 46.1416 15.7179 44.7738 15.7179C43.3211 15.7179 41.9695 14.5579 41.9695 12.7139C41.9695 10.7987 43.3737 9.65629 44.8033 9.65629Z" fill="white"/>
<path d="M58.9219 7.68652C56.3517 7.68652 54.1934 9.69948 54.1934 12.6678C54.1934 15.81 56.599 17.6734 59.1629 17.6734C61.3079 17.6734 62.63 16.5191 63.4101 15.4842L61.6575 14.3367C61.2027 15.0304 60.4422 15.71 59.1739 15.71C57.7489 15.71 57.0936 14.9423 56.6874 14.1974L63.4846 11.4224L63.1379 10.6093C62.4815 9.01712 60.949 7.68652 58.9219 7.68652ZM59.0103 9.60508C59.9366 9.60508 60.6029 10.0896 60.886 10.6707L56.3465 12.5376C56.15 11.0921 57.5426 9.60508 59.0046 9.60508H59.0103Z" fill="white"/>
<path d="M50.9473 17.378H53.1801V2.6748H50.9473V17.378Z" fill="white"/>
</g>
</g>
</g>
<defs>
<clipPath id="clip0_421_4698">
<rect width="64" height="22" fill="white" transform="translate(0.982422 1.66016)"/>
</clipPath>
<clipPath id="clip1_421_4698">
<rect width="64" height="22" fill="white" transform="translate(0.982422 1.66016)"/>
</clipPath>
</defs>
</svg>
