<svg width="16" height="15" viewBox="0 0 16 15" fill="none" xmlns="http://www.w3.org/2000/svg">
<g clip-path="url(#clip0_421_4689)">
<g clip-path="url(#clip1_421_4689)">
<g clip-path="url(#clip2_421_4689)">
<path d="M9.0503 1.06177L10.2841 3.54598C10.4505 3.88954 10.8967 4.21548 11.273 4.28596L13.5044 4.65595C14.9307 4.8938 15.2632 5.93329 14.2394 6.9728L12.4981 8.72581C12.2093 9.01653 12.043 9.58913 12.1393 10.0032L12.6381 12.1702C13.0319 13.8792 12.1218 14.5488 10.6255 13.6502L8.53405 12.3993C8.15773 12.1702 7.52771 12.1702 7.15143 12.3993L5.06004 13.6502C3.56369 14.5399 2.65362 13.8792 3.0474 12.1702L3.54619 10.0032C3.62494 9.58031 3.45868 9.0077 3.16992 8.71699L1.42855 6.96398C0.404726 5.93329 0.737249 4.8938 2.1636 4.64714L4.39499 4.27714C4.77127 4.21548 5.21755 3.88073 5.38381 3.53717L6.61765 1.05296C7.29145 -0.286047 8.37655 -0.286047 9.0503 1.06177Z" fill="#FFB300"/>
</g>
</g>
</g>
<defs>
<clipPath id="clip0_421_4689">
<rect width="15" height="14" fill="white" transform="translate(0.583984 0.0498047)"/>
</clipPath>
<clipPath id="clip1_421_4689">
<rect width="15" height="14" fill="white" transform="translate(0.583984 0.0498047)"/>
</clipPath>
<clipPath id="clip2_421_4689">
<rect width="15" height="14" fill="white" transform="translate(0.583984 0.0498047)"/>
</clipPath>
</defs>
</svg>
