<svg width="89" height="25" viewBox="0 0 89 25" fill="none" xmlns="http://www.w3.org/2000/svg">
<g clip-path="url(#clip0_421_4665)">
<g clip-path="url(#clip1_421_4665)">
<g clip-path="url(#clip2_421_4665)">
<mask id="mask0_421_4665" style="mask-type:luminance" maskUnits="userSpaceOnUse" x="0" y="5" width="88" height="15">
<path d="M87.8714 5.38965H0.691406V19.9196H87.8714V5.38965Z" fill="white"/>
</mask>
<g mask="url(#mask0_421_4665)">
<path d="M6.77272 9.2547V19.1163H3.21915V9.21627C2.75996 9.21627 1.8873 9.21627 1.44067 9.21627C0.686782 9.21627 0.737023 9.36306 0.737023 8.62151C0.737023 8.00221 0.737023 6.86535 0.737023 6.18675C1.00089 6.17577 1.2202 6.15821 1.44066 6.15821C4.25747 6.15601 7.07427 6.17468 9.89113 6.15162C12.7867 6.12856 14.9262 7.70535 15.9028 10.2759C16.9091 12.9277 16.2923 15.317 14.4807 17.4418C13.5715 18.508 12.2875 19.0087 10.8826 19.1196C9.88305 19.1986 8.86991 19.1349 7.76074 19.1349C7.76074 18.1807 7.74936 17.2396 7.77901 16.2998C7.78135 16.2153 8.04405 16.078 8.19142 16.0692C8.81857 16.0352 9.44788 16.056 10.0749 16.0296C11.6308 15.9659 12.5103 15.2578 12.805 13.8039C13.0037 12.8212 12.9535 11.8527 12.6131 10.8864C12.2727 9.92341 11.5656 9.36012 10.5844 9.27776C9.34391 9.17454 8.08743 9.2525 6.77386 9.2525L6.77272 9.2547Z" fill="white"/>
<path d="M20.3758 15.8256V9.09281H18.123V8.15625H23.6629V9.09281H21.4101V15.8256H20.3758Z" fill="white"/>
<path d="M26.2663 15.8881C25.8498 15.8881 25.488 15.8431 25.1808 15.7529C24.8804 15.6627 24.6312 15.5135 24.4333 15.3054C24.2353 15.0904 24.0885 14.799 23.993 14.4313C23.8974 14.0637 23.8496 13.5988 23.8496 13.0369C23.8496 12.4541 23.8974 11.9789 23.993 11.6112C24.0885 11.2366 24.2353 10.9452 24.4333 10.7371C24.6312 10.529 24.8838 10.3867 25.1911 10.3104C25.4983 10.2272 25.8567 10.1855 26.2663 10.1855C26.6759 10.1855 27.0343 10.2272 27.3415 10.3104C27.6486 10.3937 27.9013 10.5394 28.0992 10.7475C28.2972 10.9556 28.444 11.247 28.5396 11.6216C28.6351 11.9893 28.6829 12.4611 28.6829 13.0369C28.6829 13.6057 28.6351 14.0775 28.5396 14.4521C28.444 14.8198 28.2972 15.1077 28.0992 15.3158C27.9081 15.5239 27.659 15.6731 27.3517 15.7633C27.0445 15.8466 26.6827 15.8881 26.2663 15.8881ZM26.2663 15.0348C26.4916 15.0348 26.6896 15.0141 26.8602 14.9724C27.0377 14.9308 27.1845 14.8441 27.3005 14.7123C27.4166 14.5735 27.5054 14.3689 27.5668 14.0983C27.6282 13.8277 27.659 13.4705 27.659 13.0265C27.659 12.5824 27.6282 12.2286 27.5668 11.965C27.5054 11.6945 27.4166 11.4933 27.3005 11.3615C27.1845 11.2296 27.0377 11.1429 26.8602 11.1013C26.6896 11.0527 26.4916 11.0285 26.2663 11.0285C26.0341 11.0285 25.8293 11.0527 25.6518 11.1013C25.4812 11.1429 25.3378 11.2296 25.2218 11.3615C25.1125 11.4933 25.0272 11.6945 24.9658 11.965C24.9112 12.2286 24.8838 12.5824 24.8838 13.0265C24.8838 13.4705 24.9112 13.8277 24.9658 14.0983C25.0272 14.3689 25.1125 14.5735 25.2218 14.7123C25.3378 14.8441 25.4812 14.9308 25.6518 14.9724C25.8293 15.0141 26.0341 15.0348 26.2663 15.0348Z" fill="white"/>
<path d="M29.9355 18.2921V10.2584H30.7751L30.9595 10.8203C31.0892 10.7232 31.2428 10.6261 31.4203 10.529C31.6046 10.4318 31.8026 10.352 32.0142 10.2896C32.2327 10.2202 32.4512 10.1855 32.6696 10.1855C33.0178 10.1855 33.3147 10.2584 33.5605 10.4041C33.813 10.5498 34.0179 10.7544 34.1749 11.018C34.3319 11.2747 34.4445 11.5765 34.5128 11.9234C34.588 12.2703 34.6255 12.6414 34.6255 13.0369C34.6255 13.6542 34.5572 14.1781 34.4206 14.6082C34.291 15.0314 34.0827 15.354 33.796 15.576C33.5161 15.791 33.1406 15.8986 32.6696 15.8986C32.3829 15.8986 32.0894 15.857 31.7889 15.7737C31.4886 15.6835 31.2121 15.5656 30.9595 15.4199V18.2921H29.9355ZM32.3624 15.0244C32.5945 15.0244 32.8028 14.9655 32.9871 14.8476C33.1714 14.7296 33.3181 14.5284 33.4274 14.244C33.5434 13.9526 33.6015 13.5502 33.6015 13.0369C33.6015 12.5512 33.5434 12.1627 33.4274 11.8714C33.3113 11.573 33.1611 11.3615 32.9768 11.2366C32.7925 11.1048 32.5911 11.0389 32.3726 11.0389C32.0859 11.0389 31.8231 11.084 31.5841 11.1741C31.3521 11.2643 31.1438 11.358 30.9595 11.4551V14.629C31.1712 14.7469 31.3965 14.8441 31.6354 14.9204C31.8811 14.9898 32.1235 15.0244 32.3624 15.0244Z" fill="white"/>
<path d="M35.9082 15.8256V8.15625H38.9597C39.4308 8.15625 39.8267 8.24297 40.1476 8.4164C40.4684 8.58984 40.7279 8.84306 40.9258 9.17606C41.1238 9.50212 41.2672 9.9045 41.3559 10.3832C41.4447 10.8549 41.4891 11.3926 41.4891 11.9962C41.4891 12.8148 41.3934 13.5085 41.2023 14.0774C41.018 14.6463 40.7381 15.0798 40.3627 15.3782C39.9872 15.6765 39.5196 15.8256 38.9597 15.8256H35.9082ZM36.9424 14.8891H38.8676C39.2431 14.8891 39.5468 14.7746 39.7789 14.5457C40.0111 14.3098 40.1817 13.9768 40.291 13.5467C40.4002 13.1096 40.4548 12.5928 40.4548 11.9962C40.4548 11.4481 40.4241 10.9902 40.3627 10.6225C40.3012 10.2479 40.2057 9.9496 40.0759 9.72759C39.9463 9.49865 39.7789 9.33563 39.5742 9.2385C39.3762 9.14138 39.1406 9.09281 38.8676 9.09281H36.9424V14.8891Z" fill="white"/>
<path d="M44.8274 15.8881C44.2472 15.8881 43.7829 15.8014 43.4348 15.628C43.0934 15.4546 42.8476 15.1632 42.6975 14.7539C42.5541 14.3376 42.4824 13.7653 42.4824 13.0369C42.4824 12.2946 42.5541 11.7187 42.6975 11.3094C42.8476 10.8932 43.0934 10.6018 43.4348 10.4353C43.7761 10.2688 44.2368 10.1855 44.8172 10.1855C45.3224 10.1855 45.7286 10.2411 46.0357 10.352C46.3498 10.4561 46.5785 10.6469 46.7218 10.9244C46.872 11.195 46.9471 11.573 46.9471 12.0587C46.9471 12.3986 46.8788 12.6692 46.7423 12.8704C46.6127 13.0715 46.4248 13.2172 46.1791 13.3074C45.9402 13.3976 45.6534 13.4427 45.3189 13.4427H43.5064C43.5132 13.8451 43.5576 14.1677 43.6396 14.4104C43.7284 14.6464 43.8819 14.8198 44.1003 14.9308C44.3256 15.0348 44.6533 15.0869 45.0835 15.0869H46.7935V15.7113C46.5 15.7529 46.1996 15.791 45.8924 15.8257C45.5852 15.8674 45.2302 15.8881 44.8274 15.8881ZM43.4962 12.7871H45.2267C45.4999 12.7871 45.7012 12.7351 45.8309 12.631C45.9607 12.527 46.0255 12.3362 46.0255 12.0587C46.0255 11.7812 45.9846 11.5626 45.9026 11.4031C45.8276 11.2435 45.7012 11.1291 45.5237 11.0597C45.3463 10.9903 45.1107 10.9556 44.8172 10.9556C44.4826 10.9556 44.2164 11.0076 44.0185 11.1117C43.8273 11.2158 43.6908 11.3996 43.6088 11.6632C43.5337 11.9269 43.4962 12.3015 43.4962 12.7871Z" fill="white"/>
<path d="M49.5413 15.8252L47.5547 10.2578H48.6094L50.1557 14.8574L51.7326 10.2578H52.7874L50.7292 15.8252H49.5413Z" fill="white"/>
<path d="M55.6399 15.8881C55.0596 15.8881 54.5954 15.8014 54.2472 15.628C53.9058 15.4546 53.6601 15.1632 53.5099 14.7539C53.3665 14.3376 53.2949 13.7653 53.2949 13.0369C53.2949 12.2946 53.3665 11.7187 53.5099 11.3094C53.6601 10.8932 53.9058 10.6018 54.2472 10.4353C54.5885 10.2688 55.0493 10.1855 55.6296 10.1855C56.1348 10.1855 56.541 10.2411 56.8482 10.352C57.1622 10.4561 57.3909 10.6469 57.5343 10.9244C57.6844 11.195 57.7596 11.573 57.7596 12.0587C57.7596 12.3986 57.6913 12.6692 57.5547 12.8704C57.4251 13.0715 57.2373 13.2172 56.9916 13.3074C56.7527 13.3976 56.4659 13.4427 56.1313 13.4427H54.3189C54.3257 13.8451 54.3701 14.1677 54.452 14.4104C54.5408 14.6464 54.6943 14.8198 54.9128 14.9308C55.1381 15.0348 55.4658 15.0869 55.8959 15.0869H57.606V15.7113C57.3124 15.7529 57.012 15.791 56.7048 15.8257C56.3976 15.8674 56.0426 15.8881 55.6399 15.8881ZM54.3086 12.7871H56.0392C56.3123 12.7871 56.5136 12.7351 56.6434 12.631C56.7731 12.527 56.838 12.3362 56.838 12.0587C56.838 11.7812 56.797 11.5626 56.7151 11.4031C56.64 11.2435 56.5136 11.1291 56.3362 11.0597C56.1587 10.9903 55.9232 10.9556 55.6296 10.9556C55.2951 10.9556 55.0288 11.0076 54.8308 11.1117C54.6397 11.2158 54.5032 11.3996 54.4213 11.6632C54.3462 11.9269 54.3086 12.3015 54.3086 12.7871Z" fill="white"/>
<path d="M60.5335 15.8361C60.199 15.8361 59.9158 15.7771 59.6836 15.6592C59.4583 15.5413 59.2877 15.354 59.1716 15.0973C59.0624 14.8337 59.0078 14.4799 59.0078 14.0358V7.88574H60.0318V13.9005C60.0318 14.1919 60.0591 14.4174 60.1137 14.577C60.1751 14.7296 60.2571 14.8371 60.3594 14.8995C60.4687 14.962 60.5951 15.0036 60.7383 15.0244L61.2504 15.0869V15.8361H60.5335Z" fill="white"/>
<path d="M64.3093 15.8881C63.8929 15.8881 63.5311 15.8431 63.2238 15.7529C62.9235 15.6627 62.6743 15.5135 62.4763 15.3054C62.2783 15.0904 62.1315 14.799 62.036 14.4313C61.9404 14.0637 61.8926 13.5988 61.8926 13.0369C61.8926 12.4541 61.9404 11.9789 62.036 11.6112C62.1315 11.2366 62.2783 10.9452 62.4763 10.7371C62.6743 10.529 62.9269 10.3867 63.2341 10.3104C63.5413 10.2272 63.8997 10.1855 64.3093 10.1855C64.7189 10.1855 65.0773 10.2272 65.3845 10.3104C65.6917 10.3937 65.9443 10.5394 66.142 10.7475C66.3404 10.9556 66.4874 11.247 66.5823 11.6216C66.6779 11.9893 66.726 12.4611 66.726 13.0369C66.726 13.6057 66.6779 14.0775 66.5823 14.4521C66.4874 14.8198 66.3404 15.1077 66.142 15.3158C65.9514 15.5239 65.7019 15.6731 65.3947 15.7633C65.0876 15.8466 64.7258 15.8881 64.3093 15.8881ZM64.3093 15.0348C64.5346 15.0348 64.7325 15.0141 64.9033 14.9724C65.0807 14.9308 65.2275 14.8441 65.3435 14.7123C65.4596 14.5735 65.5483 14.3689 65.6098 14.0983C65.6712 13.8277 65.7019 13.4705 65.7019 13.0265C65.7019 12.5824 65.6712 12.2286 65.6098 11.965C65.5483 11.6945 65.4596 11.4933 65.3435 11.3615C65.2275 11.2296 65.0807 11.1429 64.9033 11.1013C64.7325 11.0527 64.5346 11.0285 64.3093 11.0285C64.0772 11.0285 63.8724 11.0527 63.6949 11.1013C63.5242 11.1429 63.3809 11.2296 63.2648 11.3615C63.1556 11.4933 63.0702 11.6945 63.0088 11.965C62.9542 12.2286 62.9269 12.5824 62.9269 13.0265C62.9269 13.4705 62.9542 13.8277 63.0088 14.0983C63.0702 14.3689 63.1556 14.5735 63.2648 14.7123C63.3809 14.8441 63.5242 14.9308 63.6949 14.9724C63.8724 15.0141 64.0772 15.0348 64.3093 15.0348Z" fill="white"/>
<path d="M67.9746 18.2921V10.2584H68.8142L68.999 10.8203C69.1284 10.7232 69.2826 10.6261 69.4594 10.529C69.6441 10.4318 69.8419 10.352 70.0539 10.2896C70.2717 10.2202 70.4903 10.1855 70.7088 10.1855C71.0574 10.1855 71.354 10.2584 71.5998 10.4041C71.8522 10.5498 72.0571 10.7544 72.2145 11.018C72.3712 11.2747 72.4838 11.5765 72.552 11.9234C72.6274 12.2703 72.6646 12.6414 72.6646 13.0369C72.6646 13.6542 72.5969 14.1781 72.4603 14.6082C72.3302 15.0314 72.1221 15.354 71.8353 15.576C71.5556 15.791 71.1797 15.8986 70.7088 15.8986C70.422 15.8986 70.1287 15.857 69.8281 15.7737C69.5277 15.6835 69.2513 15.5656 68.999 15.4199V18.2921H67.9746ZM70.4018 15.0244C70.634 15.0244 70.8422 14.9655 71.0262 14.8476C71.2109 14.7296 71.3573 14.5284 71.4665 14.244C71.583 13.9526 71.6409 13.5502 71.6409 13.0369C71.6409 12.5512 71.583 12.1627 71.4665 11.8714C71.3507 11.573 71.2005 11.3615 71.0165 11.2366C70.8318 11.1048 70.6308 11.0389 70.4123 11.0389C70.1255 11.0389 69.8626 11.084 69.6233 11.1741C69.3911 11.2643 69.183 11.358 68.999 11.4551V14.629C69.2103 14.7469 69.436 14.8441 69.6747 14.9204C69.9206 14.9898 70.1631 15.0244 70.4018 15.0244Z" fill="white"/>
<path d="M76.0777 15.8881C75.4969 15.8881 75.0332 15.8014 74.6845 15.628C74.3437 15.4546 74.0979 15.1632 73.9477 14.7539C73.8039 14.3376 73.7324 13.7653 73.7324 13.0369C73.7324 12.2946 73.8039 11.7187 73.9477 11.3094C74.0979 10.8932 74.3437 10.6018 74.6845 10.4353C75.026 10.2688 75.4872 10.1855 76.0673 10.1855C76.5726 10.1855 76.9785 10.2411 77.2861 10.352C77.5996 10.4561 77.8286 10.6469 77.9716 10.9244C78.1219 11.195 78.1973 11.573 78.1973 12.0587C78.1973 12.3986 78.129 12.6692 77.9925 12.8704C77.8624 13.0715 77.6751 13.2172 77.4293 13.3074C77.1906 13.3976 76.9037 13.4427 76.5688 13.4427H74.7568C74.7632 13.8451 74.8075 14.1677 74.8894 14.4104C74.9785 14.6464 75.1321 14.8198 75.3506 14.9308C75.5756 15.0348 75.9034 15.0869 76.3333 15.0869H78.0439V15.7113C77.7499 15.7529 77.4494 15.791 77.1424 15.8257C76.8354 15.8674 76.4803 15.8881 76.0777 15.8881ZM74.7464 12.7871H76.4771C76.7502 12.7871 76.9512 12.7351 77.0813 12.631C77.2107 12.527 77.2757 12.3362 77.2757 12.0587C77.2757 11.7812 77.2347 11.5626 77.1528 11.4031C77.0774 11.2435 76.9512 11.1291 76.7736 11.0597C76.596 10.9903 76.3607 10.9556 76.0673 10.9556C75.733 10.9556 75.4663 11.0076 75.2686 11.1117C75.0774 11.2158 74.9408 11.3996 74.8589 11.6632C74.7841 11.9269 74.7464 12.3015 74.7464 12.7871Z" fill="white"/>
<path d="M79.4473 15.8257V10.2584H80.2362L80.4716 11.195C80.7038 10.9105 80.9627 10.6712 81.2495 10.4769C81.536 10.2827 81.871 10.1855 82.2528 10.1855C82.3424 10.1855 82.4271 10.1925 82.5095 10.2064C82.591 10.2133 82.6701 10.2272 82.7444 10.248V11.3198C82.6491 11.306 82.5506 11.2955 82.4473 11.2886C82.3456 11.2747 82.239 11.2678 82.1301 11.2678C81.8976 11.2678 81.6901 11.2956 81.5061 11.351C81.3212 11.4066 81.1441 11.4933 80.9731 11.6112C80.8092 11.7222 80.642 11.861 80.4716 12.0275V15.8257H79.4473Z" fill="white"/>
<path d="M85.6218 15.8878C85.4789 15.8878 85.3086 15.8844 85.11 15.8774C84.9122 15.8705 84.7072 15.8567 84.4957 15.8358C84.2915 15.822 84.1002 15.8046 83.9226 15.7838C83.7515 15.763 83.615 15.7387 83.5125 15.711V15.0866H85.8171C86.0149 15.0866 86.1852 15.0727 86.3289 15.0449C86.4718 15.0103 86.5816 14.9409 86.6567 14.8368C86.739 14.7328 86.7793 14.5801 86.7793 14.379V14.15C86.7793 13.9419 86.7115 13.7789 86.5743 13.6609C86.4379 13.543 86.2127 13.484 85.8987 13.484H85.0995C84.7791 13.484 84.4925 13.4424 84.2398 13.3591C83.9936 13.2689 83.7991 13.1198 83.6554 12.9117C83.5198 12.7036 83.4512 12.4226 83.4512 12.0688V11.767C83.4512 11.4132 83.5157 11.1218 83.6457 10.8929C83.7829 10.6639 83.9969 10.494 84.2915 10.383C84.5845 10.265 84.9736 10.2061 85.4587 10.2061C85.663 10.2061 85.8882 10.2165 86.1344 10.2373C86.387 10.2512 86.6324 10.272 86.8714 10.2997C87.1103 10.3275 87.3016 10.3587 87.4453 10.3934V11.0177H85.2739C84.9736 11.0177 84.7411 11.0698 84.5781 11.1738C84.4206 11.2779 84.3415 11.4756 84.3415 11.767V11.9751C84.3415 12.1555 84.3795 12.2942 84.4554 12.3914C84.5296 12.4885 84.6362 12.5509 84.7726 12.5787C84.9155 12.6065 85.0826 12.6203 85.2739 12.6203H86.0932C86.6114 12.6203 87.0046 12.7452 87.2709 12.9949C87.5373 13.2377 87.6697 13.5811 87.6697 14.0252V14.4518C87.6697 14.8264 87.585 15.1178 87.4146 15.3259C87.2435 15.534 87.0046 15.6797 86.6978 15.763C86.3975 15.8463 86.0391 15.8878 85.6218 15.8878Z" fill="white"/>
</g>
</g>
</g>
</g>
<defs>
<clipPath id="clip0_421_4665">
<rect width="88" height="14.53" fill="white" transform="translate(0.583984 5.38965)"/>
</clipPath>
<clipPath id="clip1_421_4665">
<rect width="88" height="14.53" fill="white" transform="translate(0.583984 5.38965)"/>
</clipPath>
<clipPath id="clip2_421_4665">
<rect width="87.9872" height="14.53" fill="white" transform="translate(0.589844 5.38965)"/>
</clipPath>
</defs>
</svg>
