<svg width="150" height="51" viewBox="0 0 150 51" fill="none" xmlns="http://www.w3.org/2000/svg">
<g clip-path="url(#clip0_247_37)">
<path d="M40.125 18.4297H48.3124V20.0173H44.875V31.6359H43.4375V20.0173H40.125V18.4297Z" fill="white"/>
<path d="M50.8125 21.9648C53.6875 21.9648 54.5624 23.1916 54.5624 27.0164C54.5624 30.5525 53.6875 31.7793 50.8125 31.7793C47.9375 31.7793 47.0625 30.4803 47.0625 27.0164C47.0625 23.0473 48 21.9648 50.8125 21.9648ZM50.8125 30.1916C52.375 30.1916 53.125 29.9752 53.125 26.9442C53.125 23.6968 52.5625 23.4803 50.8125 23.4803C49.1875 23.4803 48.5 23.769 48.5 26.9442C48.5 29.9752 49.25 30.1916 50.8125 30.1916Z" fill="white"/>
<path d="M56.3125 22.0389H57.4375L57.75 23.0492C58.1875 22.6883 59.6875 21.8945 60.6875 21.8945C62.9375 21.8945 63.4374 24.3481 63.4374 26.7296C63.4374 29.2554 63.0625 31.709 60.6875 31.709C60 31.709 58.6875 31.4925 57.6875 30.9873V36.3997H56.25V22.0389H56.3125ZM60.5625 30.2657C61.5 30.2657 62 29.6162 62 26.8017C62 24.4925 61.5 23.4822 60.5625 23.4822C59.4375 23.4822 58.5 23.843 57.75 24.276V29.8327C58.6875 30.1213 59.4375 30.2657 60.5625 30.2657Z" fill="white"/>
<path d="M65.5625 18.4297H70.0625C73.5624 18.4297 74.1874 22.2544 74.1874 25.0689C74.1874 28.3163 73.0624 31.6359 70.0625 31.6359H65.5625V18.4297ZM70 29.9761C71.9375 29.9761 72.6875 27.739 72.6875 24.9967C72.6875 21.2441 71.6875 19.9452 70 19.9452H67V29.9761H70Z" fill="white"/>
<path d="M79.0621 21.9648C81.1871 21.9648 82.3746 22.1813 82.3746 25.3566C82.3746 26.7999 81.6871 27.5937 80.1246 27.5937H76.8747C76.8747 29.6865 77.3122 30.1195 78.4996 30.1195C79.9371 30.1195 81.0621 30.1195 82.2496 29.903V31.1298C80.9996 31.5628 79.4996 31.6349 78.1871 31.6349C76.0622 31.6349 75.4372 30.4081 75.4372 26.7277C75.3747 22.5422 76.4372 21.9648 79.0621 21.9648ZM79.9996 26.2226C80.6246 26.2226 80.9371 25.9339 80.9371 25.3566C80.9371 23.6246 80.6871 23.4803 79.1246 23.4803C77.4997 23.4803 76.8747 23.4803 76.8747 26.2226H79.9996Z" fill="white"/>
<path d="M84.874 22.0391L87.3115 29.3999L89.749 22.0391H91.3115L87.999 31.637H86.499L83.3115 22.0391H84.874Z" fill="white"/>
<path d="M95.874 21.9648C97.999 21.9648 99.1865 22.1813 99.1865 25.3566C99.1865 26.7999 98.499 27.5937 96.9365 27.5937H93.624C93.624 29.6865 94.0615 30.1195 95.249 30.1195C96.6865 30.1195 97.8115 30.1195 98.999 29.903V31.1298C97.749 31.5628 96.249 31.6349 94.9365 31.6349C92.8115 31.6349 92.1865 30.4081 92.1865 26.7277C92.1865 22.5422 93.249 21.9648 95.874 21.9648ZM96.8115 26.2226C97.4365 26.2226 97.749 25.9339 97.749 25.3566C97.749 23.6246 97.499 23.4803 95.9365 23.4803C94.3115 23.4803 93.6865 23.4803 93.6865 26.2226H96.8115Z" fill="white"/>
<path d="M100.812 17.4922H102.249V28.1004C102.249 29.6159 102.624 29.9767 103.124 30.1211C103.124 30.1211 104.312 30.4819 104.437 30.4819V31.6365H102.937C101.687 31.6365 100.812 30.7705 100.812 28.2448V17.4922Z" fill="white"/>
<path d="M108.749 21.9648C111.624 21.9648 112.499 23.1916 112.499 27.0164C112.499 30.5525 111.624 31.7793 108.749 31.7793C105.874 31.7793 104.999 30.4803 104.999 27.0164C104.999 23.0473 105.999 21.9648 108.749 21.9648ZM108.749 30.1916C110.311 30.1916 111.061 29.9752 111.061 26.9442C111.061 23.6968 110.499 23.4803 108.749 23.4803C107.124 23.4803 106.437 23.769 106.437 26.9442C106.499 29.9752 107.249 30.1916 108.749 30.1916Z" fill="white"/>
<path d="M114.312 22.0389H115.437L115.749 23.0492C116.187 22.6883 117.686 21.8945 118.686 21.8945C120.936 21.8945 121.436 24.3481 121.436 26.7296C121.436 29.2554 121.061 31.709 118.686 31.709C117.999 31.709 116.687 31.4925 115.687 30.9873V36.3997H114.249V22.0389H114.312ZM118.499 30.2657C119.436 30.2657 119.936 29.6162 119.936 26.8017C119.936 24.4925 119.436 23.4822 118.499 23.4822C117.374 23.4822 116.437 23.843 115.687 24.276V29.8327C116.687 30.1213 117.437 30.2657 118.499 30.2657Z" fill="white"/>
<path d="M126.624 21.9648C128.749 21.9648 129.936 22.1813 129.936 25.3566C129.936 26.7999 129.249 27.5937 127.686 27.5937H124.374C124.374 29.6865 124.812 30.1195 125.999 30.1195C127.436 30.1195 128.561 30.1195 129.749 29.903V31.1298C128.499 31.5628 126.999 31.6349 125.687 31.6349C123.562 31.6349 122.937 30.4081 122.937 26.7277C122.937 22.5422 123.999 21.9648 126.624 21.9648ZM127.561 26.2226C128.186 26.2226 128.499 25.9339 128.499 25.3566C128.499 23.6246 128.249 23.4803 126.686 23.4803C125.062 23.4803 124.437 23.4803 124.437 26.2226H127.561Z" fill="white"/>
<path d="M131.562 22.037H132.687L133.062 23.2638C133.937 22.6143 134.75 21.9648 136 21.9648C136.437 21.9648 136.937 21.9648 137.125 22.1092V23.769C136.937 23.6968 136.375 23.6968 135.937 23.6968C134.75 23.6968 134.125 23.9855 133.062 24.7793V31.7793H131.625V22.037H131.562Z" fill="white"/>
<path d="M138.125 24.4185C138.125 22.903 138.687 21.9648 140.312 21.9648C141.375 21.9648 143.75 22.1092 144.562 22.3257V23.4803H140.5C139.625 23.4803 139.562 23.8411 139.562 24.4185V25.1401C139.562 26.0061 139.937 26.0782 140.5 26.0782H142.875C144.312 26.0782 145 27.0886 145 28.4597V29.3978C145 31.3463 143.937 31.7793 142.937 31.7793C141.937 31.7793 139.062 31.5628 138.5 31.4185V30.2638H142.75C142.812 30.2638 143.562 30.336 143.562 29.3978V28.604C143.562 28.0267 143.375 27.738 142.75 27.738H140.375C138.875 27.738 138.125 27.1607 138.125 25.2844V24.4185Z" fill="#FAFAFA"/>
<path fill-rule="evenodd" clip-rule="evenodd" d="M24.5507 18.6882C24.5507 18.6882 23.1757 16.6676 20.3632 16.3789H10.6758V19.9872H13.1758L13.1133 31.8944H16.6757V19.915H20.3632C20.3632 19.915 21.8632 20.1315 22.4257 21.4305C22.4257 21.4305 23.6132 23.8841 22.4257 26.7707C22.4257 26.7707 21.8632 27.9975 20.6757 28.1418L17.7382 28.214V31.8222H20.3007C20.3007 31.8222 21.5507 31.8222 22.7382 31.2449C23.4257 30.8841 24.2382 30.3067 24.6757 29.5129C24.6132 29.5129 28.4882 24.4614 24.5507 18.6882Z" fill="white"/>
</g>
<defs>
<clipPath id="clip0_247_37">
<rect width="140" height="28" fill="white" transform="translate(5 11.5)"/>
</clipPath>
</defs>
</svg>
