<svg width="32" height="32" viewBox="0 0 32 32" fill="none" xmlns="http://www.w3.org/2000/svg">
<mask id="mask0_999_3422" style="mask-type:alpha" maskUnits="userSpaceOnUse" x="0" y="0" width="32" height="32">
<g clip-path="url(#clip0_999_3422)">
<path d="M11.8611 15.8073L13.7563 13.9121C14.0177 13.6506 14.143 13.3457 14.1321 12.9971C14.1212 12.6486 13.996 12.3436 13.7563 12.0822C13.4949 11.8208 13.1845 11.6846 12.8251 11.6737C12.4656 11.6628 12.1552 11.7881 11.8938 12.0495L9.05094 14.8923C8.78953 15.1538 8.65883 15.4587 8.65883 15.8073C8.65883 16.1558 8.78953 16.4608 9.05094 16.7222L11.8938 19.5651C12.1552 19.8265 12.4656 19.9517 12.8251 19.9408C13.1845 19.9299 13.4949 19.7938 13.7563 19.5324C13.996 19.271 14.1212 18.966 14.1321 18.6174C14.143 18.2689 14.0177 17.9639 13.7563 17.7025L11.8611 15.8073ZM20.0955 15.8073L18.2003 17.7025C17.9389 17.9639 17.8137 18.2689 17.8245 18.6174C17.8354 18.966 17.9607 19.271 18.2003 19.5324C18.4617 19.7938 18.7722 19.9299 19.1316 19.9408C19.491 19.9517 19.8015 19.8265 20.0629 19.5651L22.9057 16.7222C23.1671 16.4608 23.2978 16.1558 23.2978 15.8073C23.2978 15.4587 23.1671 15.1538 22.9057 14.8923L20.0629 12.0495C19.8015 11.7881 19.491 11.6628 19.1316 11.6737C18.7722 11.6846 18.4617 11.8208 18.2003 12.0822C17.9607 12.3436 17.8354 12.6486 17.8245 12.9971C17.8137 13.3457 17.9389 13.6506 18.2003 13.9121L20.0955 15.8073ZM6.82895 27.5708C6.11007 27.5708 5.49467 27.3148 4.98274 26.8029C4.47081 26.2909 4.21484 25.6755 4.21484 24.9567V6.6579C4.21484 5.93902 4.47081 5.32362 4.98274 4.81169C5.49467 4.29976 6.11007 4.0438 6.82895 4.0438H12.3186C12.6018 3.25956 13.0756 2.62782 13.74 2.14857C14.4044 1.66931 15.1505 1.42969 15.9783 1.42969C16.8061 1.42969 17.5522 1.66931 18.2167 2.14857C18.8811 2.62782 19.3549 3.25956 19.6381 4.0438H25.1277C25.8466 4.0438 26.462 4.29976 26.9739 4.81169C27.4859 5.32362 27.7418 5.93902 27.7418 6.6579V24.9567C27.7418 25.6755 27.4859 26.2909 26.9739 26.8029C26.462 27.3148 25.8466 27.5708 25.1277 27.5708H6.82895ZM6.82895 24.9567H25.1277V6.6579H6.82895V24.9567ZM15.9783 5.67761C16.2615 5.67761 16.4957 5.58503 16.6809 5.39986C16.866 5.2147 16.9586 4.98052 16.9586 4.69732C16.9586 4.41413 16.866 4.17995 16.6809 3.99478C16.4957 3.80962 16.2615 3.71703 15.9783 3.71703C15.6951 3.71703 15.461 3.80962 15.2758 3.99478C15.0906 4.17995 14.998 4.41413 14.998 4.69732C14.998 4.98052 15.0906 5.2147 15.2758 5.39986C15.461 5.58503 15.6951 5.67761 15.9783 5.67761Z" fill="#E8EAED"/>
</g>
</mask>
<g mask="url(#mask0_999_3422)">
<rect x="0.292969" y="0.123047" width="31.3693" height="31.3693" fill="#192020"/>
</g>
<defs>
<clipPath id="clip0_999_3422">
<rect width="31.3693" height="31.3693" fill="white" transform="translate(0.292969 0.123047)"/>
</clipPath>
</defs>
</svg>
