<svg width="26" height="13" viewBox="0 0 26 13" fill="none" xmlns="http://www.w3.org/2000/svg">
<path d="M3.90963 12.16C3.20305 12.16 2.57928 11.9816 2.03831 11.6246C1.49734 11.2639 1.07413 10.7561 0.768688 10.101C0.463243 9.44231 0.31052 8.66398 0.31052 7.76604C0.31052 6.87546 0.463243 6.10265 0.768688 5.4476C1.07413 4.79255 1.49918 4.28654 2.04383 3.92957C2.58848 3.5726 3.21777 3.39412 3.93171 3.39412C4.48372 3.39412 4.9198 3.48612 5.23997 3.67013C5.56382 3.85045 5.81038 4.05653 5.97966 4.28838C6.15263 4.51654 6.28695 4.70422 6.38263 4.85143H6.49303V0.678229H7.79578V11.9834H6.53719V10.6807H6.38263C6.28695 10.8352 6.15079 11.0303 5.97414 11.2658C5.7975 11.4976 5.54542 11.7056 5.21789 11.8896C4.89036 12.0699 4.45428 12.16 3.90963 12.16ZM4.08627 10.9898C4.60884 10.9898 5.05045 10.8536 5.41109 10.5813C5.77174 10.3053 6.04591 9.9244 6.23359 9.43863C6.42127 8.94918 6.51511 8.38429 6.51511 7.74396C6.51511 7.11099 6.42311 6.55714 6.23911 6.08241C6.05511 5.604 5.78278 5.23231 5.42213 4.96735C5.06149 4.6987 4.6162 4.56438 4.08627 4.56438C3.53426 4.56438 3.07425 4.70606 2.70624 4.98943C2.34192 5.26911 2.06775 5.65 1.88375 6.13209C1.70343 6.6105 1.61326 7.14779 1.61326 7.74396C1.61326 8.34749 1.70527 8.89582 1.88927 9.38895C2.07695 9.8784 2.35296 10.2685 2.71728 10.5592C3.08529 10.8463 3.54162 10.9898 4.08627 10.9898ZM11.6654 6.88282V11.9834H10.3626V3.50452H11.6212V4.82935H11.7316C11.9303 4.39878 12.2321 4.05285 12.6369 3.79157C13.0417 3.5266 13.5643 3.39412 14.2046 3.39412C14.7787 3.39412 15.281 3.51188 15.7116 3.74741C16.1422 3.97925 16.4771 4.33254 16.7163 4.80727C16.9555 5.27831 17.0751 5.87449 17.0751 6.59578V11.9834H15.7723V6.6841C15.7723 6.01801 15.5994 5.49912 15.2534 5.12743C14.9075 4.75206 14.4328 4.56438 13.8292 4.56438C13.4134 4.56438 13.0417 4.65454 12.7142 4.83487C12.3903 5.01519 12.1346 5.27831 11.9469 5.62424C11.7592 5.97017 11.6654 6.38969 11.6654 6.88282ZM25.4615 5.40344L24.2912 5.73464C24.2176 5.5396 24.1091 5.35008 23.9655 5.16607C23.8257 4.97839 23.6343 4.82383 23.3914 4.70238C23.1486 4.58094 22.8376 4.52022 22.4585 4.52022C21.9397 4.52022 21.5073 4.63982 21.1613 4.87903C20.8191 5.11455 20.648 5.41448 20.648 5.7788C20.648 6.10265 20.7657 6.35841 21.0012 6.5461C21.2368 6.73378 21.6048 6.89018 22.1053 7.01531L23.3638 7.32443C24.1219 7.50844 24.6868 7.78996 25.0585 8.16901C25.4302 8.54437 25.616 9.0283 25.616 9.62079C25.616 10.1066 25.4762 10.5408 25.1965 10.9235C24.9205 11.3063 24.5341 11.608 24.0373 11.8288C23.5405 12.0496 22.9627 12.16 22.304 12.16C21.4392 12.16 20.7234 11.9724 20.1567 11.597C19.5899 11.2216 19.2311 10.6733 19.0802 9.952L20.3167 9.64288C20.4345 10.0992 20.6572 10.4414 20.9847 10.6696C21.3159 10.8978 21.7483 11.0119 22.2819 11.0119C22.8891 11.0119 23.3712 10.8831 23.7282 10.6255C24.0888 10.3642 24.2691 10.0514 24.2691 9.68704C24.2691 9.39263 24.1661 9.14607 23.96 8.94734C23.7539 8.74494 23.4374 8.59406 23.0106 8.49469L21.5974 8.16349C20.8209 7.97948 20.2505 7.69428 19.8862 7.30787C19.5255 6.91778 19.3452 6.43018 19.3452 5.84504C19.3452 5.36664 19.4795 4.94343 19.7482 4.57542C20.0205 4.20741 20.3904 3.91853 20.8577 3.70877C21.3288 3.499 21.8624 3.39412 22.4585 3.39412C23.2976 3.39412 23.9563 3.57812 24.4347 3.94613C24.9168 4.31414 25.2591 4.79991 25.4615 5.40344Z" fill="#212529"/>
</svg>
