<svg width="32" height="32" viewBox="0 0 32 32" fill="none" xmlns="http://www.w3.org/2000/svg">
<mask id="mask0_999_3272" style="mask-type:alpha" maskUnits="userSpaceOnUse" x="0" y="0" width="32" height="32">
<g clip-path="url(#clip0_999_3272)">
<path d="M19.898 25.1287V23.8216H17.2838C16.565 23.8216 15.9496 23.5657 15.4376 23.0537C14.9257 22.5418 14.6697 21.9264 14.6697 21.2075V10.7511H12.0556V12.0581C12.0556 12.777 11.7997 13.3924 11.2877 13.9044C10.7758 14.4163 10.1604 14.6723 9.44152 14.6723H5.52036C4.80148 14.6723 4.18607 14.4163 3.67414 13.9044C3.16221 13.3924 2.90625 12.777 2.90625 12.0581V6.82993C2.90625 6.11105 3.16221 5.49564 3.67414 4.98371C4.18607 4.47179 4.80148 4.21582 5.52036 4.21582H9.44152C10.1604 4.21582 10.7758 4.47179 11.2877 4.98371C11.7997 5.49564 12.0556 6.11105 12.0556 6.82993V8.13698H19.898V6.82993C19.898 6.11105 20.1539 5.49564 20.6658 4.98371C21.1778 4.47179 21.7932 4.21582 22.5121 4.21582H26.4332C27.1521 4.21582 27.7675 4.47179 28.2794 4.98371C28.7914 5.49564 29.0473 6.11105 29.0473 6.82993V12.0581C29.0473 12.777 28.7914 13.3924 28.2794 13.9044C27.7675 14.4163 27.1521 14.6723 26.4332 14.6723H22.5121C21.7932 14.6723 21.1778 14.4163 20.6658 13.9044C20.1539 13.3924 19.898 12.777 19.898 12.0581V10.7511H17.2838V21.2075H19.898V19.9005C19.898 19.1816 20.1539 18.5662 20.6658 18.0543C21.1778 17.5423 21.7932 17.2864 22.5121 17.2864H26.4332C27.1521 17.2864 27.7675 17.5423 28.2794 18.0543C28.7914 18.5662 29.0473 19.1816 29.0473 19.9005V25.1287C29.0473 25.8476 28.7914 26.463 28.2794 26.9749C27.7675 27.4868 27.1521 27.7428 26.4332 27.7428H22.5121C21.7932 27.7428 21.1778 27.4868 20.6658 26.9749C20.1539 26.463 19.898 25.8476 19.898 25.1287ZM22.5121 12.0581H26.4332V6.82993H22.5121V12.0581ZM22.5121 25.1287H26.4332V19.9005H22.5121V25.1287ZM5.52036 12.0581H9.44152V6.82993H5.52036V12.0581Z" fill="#E8EAED"/>
</g>
</mask>
<g mask="url(#mask0_999_3272)">
<rect x="0.292969" y="0.293945" width="31.3693" height="31.3693" fill="#192020"/>
</g>
<defs>
<clipPath id="clip0_999_3272">
<rect width="31.3693" height="31.3693" fill="white" transform="translate(0.292969 0.293945)"/>
</clipPath>
</defs>
</svg>
