<svg width="15" height="16" viewBox="0 0 15 16" fill="none" xmlns="http://www.w3.org/2000/svg">
<g clip-path="url(#clip0_918_3906)">
<g clip-path="url(#clip1_918_3906)">
<g clip-path="url(#clip2_918_3906)">
<mask id="mask0_918_3906" style="mask-type:luminance" maskUnits="userSpaceOnUse" x="0" y="1" width="15" height="15">
<path d="M14.8984 1.28516H0.898438V15.2852H14.8984V1.28516Z" fill="white"/>
</mask>
<g mask="url(#mask0_918_3906)">
<path d="M7.63806 15.0826L7.64347 15.0837C7.66212 15.0863 7.68052 15.089 7.69872 15.0917C7.82354 15.1098 7.93857 15.1266 8.05357 15.1266C8.33766 15.1266 8.59982 15.0609 8.86078 14.9304L8.86182 14.9299L13.1881 12.6395C13.1879 12.6396 13.1883 12.6394 13.1881 12.6395C13.5923 12.4371 13.7729 11.9861 13.6157 11.5593L13.6152 11.558C13.4361 11.1103 12.9428 10.8628 12.4711 11.0201L12.47 11.0205L9.35177 12.1447L9.35016 12.1453C9.2218 12.1967 9.14106 12.3512 9.19503 12.4861C9.24626 12.6142 9.40021 12.6948 9.53493 12.6415L12.6511 11.5181C12.8388 11.4624 13.0445 11.5567 13.1193 11.7437C13.1575 11.8391 13.1565 11.9266 13.1272 12.0011C13.0977 12.0759 13.0379 12.1418 12.9511 12.1902L8.60317 14.4595C8.34011 14.6012 8.05545 14.6227 7.76804 14.5612L5.0334 13.8617C5.03327 13.8617 5.03353 13.8617 5.0334 13.8617C4.55716 13.7319 4.05949 13.7535 3.62709 13.8833L3.62564 13.8837C3.47632 13.9335 3.39223 14.0872 3.446 14.2241C3.49614 14.3722 3.64877 14.4556 3.78496 14.4027C4.13714 14.2995 4.53007 14.2792 4.92267 14.3825L7.63806 15.0826Z" fill="white"/>
<path d="M13.1881 12.6395L8.86182 14.9299L8.86078 14.9304C8.59982 15.0609 8.33766 15.1266 8.05357 15.1266C7.93857 15.1266 7.82354 15.1098 7.69872 15.0917C7.68052 15.089 7.66212 15.0863 7.64347 15.0837L7.63806 15.0826L4.92267 14.3825C4.53007 14.2792 4.13714 14.2995 3.78496 14.4027C3.64877 14.4556 3.49614 14.3722 3.446 14.2241C3.39223 14.0872 3.47632 13.9335 3.62564 13.8837L3.62709 13.8833C4.05949 13.7535 4.55716 13.7319 5.0334 13.8617M13.1881 12.6395C13.1883 12.6394 13.1879 12.6396 13.1881 12.6395ZM13.1881 12.6395C13.5923 12.4371 13.7729 11.9861 13.6157 11.5593L13.6152 11.558C13.4361 11.1103 12.9428 10.8628 12.4711 11.0201L12.47 11.0205L9.35177 12.1447L9.35016 12.1453C9.2218 12.1967 9.14106 12.3512 9.19503 12.4861C9.24626 12.6142 9.40021 12.6948 9.53493 12.6415L12.6511 11.5181C12.8388 11.4624 13.0445 11.5567 13.1193 11.7437C13.1575 11.8391 13.1565 11.9266 13.1272 12.0011C13.0977 12.0759 13.0379 12.1418 12.9511 12.1902L8.60317 14.4595C8.34011 14.6012 8.05545 14.6227 7.76804 14.5612L5.0334 13.8617M5.0334 13.8617C5.03327 13.8617 5.03353 13.8617 5.0334 13.8617Z" stroke="white" stroke-width="0.1"/>
<path d="M9.38692 12.7689L6.86351 12.7265C6.86337 12.7265 6.86366 12.7265 6.86351 12.7265V12.6765C6.73624 12.6765 6.65139 12.5704 6.65139 12.4644C6.65139 12.3583 6.75745 12.2523 6.86351 12.2523L9.38692 12.7689ZM9.38692 12.7689C9.42457 12.7689 9.45902 12.7626 9.49026 12.7487C9.52128 12.7349 9.54743 12.7148 9.5716 12.6906C9.59576 12.6665 9.61587 12.6403 9.62966 12.6093C9.64354 12.5781 9.64988 12.5445 9.64988 12.5068C9.64988 12.2684 9.60671 12.0713 9.54059 11.9163C9.32106 11.2605 8.70889 10.8241 8.03179 10.8023L6.86604 10.7811C6.60695 10.7597 6.30553 10.7813 6.00393 10.8671L3.65205 11.2696L3.65068 11.2699C3.5817 11.2837 3.52363 11.3307 3.48631 11.3866C3.44898 11.4426 3.42796 11.5143 3.44176 11.5833C3.45555 11.6523 3.50252 11.7103 3.55851 11.7476C3.61428 11.7848 3.68563 11.8058 3.75437 11.7923L6.12945 11.3894L6.13579 11.3879C6.40594 11.3048 6.63257 11.2846 6.83733 11.305L6.84139 11.3053L8.00742 11.3265C8.47415 11.347 8.88085 11.6515 9.0438 12.0996L9.04242 12.1001L9.04918 12.1103C9.06578 12.1352 9.07461 12.1606 9.08184 12.1919C9.08499 12.2056 9.08769 12.2196 9.09072 12.2354C9.09123 12.2381 9.09175 12.2408 9.09228 12.2435L9.38692 12.7689Z" fill="white"/>
<path d="M9.38692 12.7689L6.86351 12.7265M9.38692 12.7689L6.86351 12.2523C6.75745 12.2523 6.65139 12.3583 6.65139 12.4644C6.65139 12.5704 6.73624 12.6765 6.86351 12.6765V12.7265M9.38692 12.7689C9.42457 12.7689 9.45902 12.7626 9.49026 12.7487C9.52128 12.7349 9.54743 12.7148 9.5716 12.6906C9.59576 12.6665 9.61587 12.6403 9.62966 12.6093C9.64354 12.5781 9.64988 12.5445 9.64988 12.5068C9.64988 12.2684 9.60671 12.0713 9.54059 11.9163C9.32106 11.2605 8.70889 10.8241 8.03179 10.8023L6.86604 10.7811C6.60695 10.7597 6.30553 10.7813 6.00393 10.8671L3.65205 11.2696L3.65068 11.2699C3.5817 11.2837 3.52363 11.3307 3.48631 11.3866C3.44898 11.4426 3.42796 11.5143 3.44176 11.5833C3.45555 11.6523 3.50252 11.7103 3.55851 11.7476C3.61428 11.7848 3.68563 11.8058 3.75437 11.7923L6.12945 11.3894L6.13579 11.3879C6.40594 11.3048 6.63257 11.2846 6.83733 11.305L6.84139 11.3053L8.00742 11.3265C8.47415 11.347 8.88085 11.6515 9.0438 12.0996L9.04242 12.1001L9.04918 12.1103C9.06578 12.1352 9.07461 12.1606 9.08184 12.1919C9.08499 12.2056 9.08769 12.2196 9.09072 12.2354C9.09123 12.2381 9.09175 12.2408 9.09228 12.2435L9.38692 12.7689ZM6.86351 12.7265C6.86337 12.7265 6.86366 12.7265 6.86351 12.7265Z" stroke="white" stroke-width="0.1"/>
<path d="M10.8008 10.2023L10.8044 10.2029L10.8059 10.2031C10.9746 10.2242 11.1469 10.2457 11.3197 10.2457C11.4937 10.2457 11.6461 10.2239 11.8186 10.1809C11.9459 10.1547 12.0538 10.0266 12.0263 9.88894L12.0261 9.8879C11.998 9.76147 12.0211 9.69131 12.0394 9.65888C12.0525 9.66414 12.0696 9.67232 12.0891 9.68421C12.1316 9.71019 12.1847 9.75345 12.2335 9.82175L12.2342 9.82268C12.2728 9.87417 12.3302 9.91243 12.3914 9.92854C12.4521 9.94451 12.5207 9.93946 12.5775 9.89814C12.8391 9.74497 13.0766 9.50633 13.2909 9.18514C13.3708 9.07713 13.343 8.91964 13.2376 8.84056L13.2366 8.83988C13.1657 8.78919 13.1171 8.73995 13.0893 8.70059C13.0753 8.68079 13.0678 8.66512 13.0645 8.65432C13.0634 8.65074 13.063 8.64826 13.0628 8.64671C13.0645 8.64487 13.068 8.6417 13.0744 8.63774C13.0848 8.63129 13.1006 8.62437 13.1222 8.61869C13.165 8.60743 13.2268 8.6021 13.3057 8.61179C13.4431 8.63802 13.5705 8.52976 13.596 8.40249C13.6607 8.05721 13.6609 7.71076 13.596 7.38591C13.5704 7.25804 13.4419 7.14936 13.3038 7.17699L13.3028 7.17721C13.1763 7.2053 13.1062 7.18215 13.0737 7.16391C13.079 7.15074 13.0872 7.13367 13.0991 7.11421C13.1251 7.0717 13.1683 7.01852 13.2366 6.96973L13.2376 6.96905C13.289 6.93043 13.3273 6.87307 13.3434 6.81185C13.3594 6.75114 13.3543 6.6826 13.313 6.62576C13.1597 6.3639 12.9207 6.12618 12.5989 5.91169L12.5969 5.91042C12.465 5.83128 12.3104 5.88539 12.2342 5.98693L12.2335 5.98786C12.1836 6.05784 12.1354 6.10015 12.0977 6.12231C12.0788 6.13343 12.0637 6.13881 12.0532 6.1408C12.0472 6.14193 12.0437 6.14181 12.0422 6.14165L12.0355 6.13919C12.0289 6.137 12.0142 6.12742 12.005 6.08352C11.9961 6.04126 11.9953 5.97918 12.0054 5.89753C12.0317 5.76014 11.9234 5.63275 11.7961 5.60729C11.4508 5.54255 11.1044 5.54232 10.7796 5.60729C10.6517 5.63286 10.543 5.76134 10.5706 5.89946L10.5709 5.9005C10.599 6.02693 10.5758 6.09709 10.5576 6.12952C10.5444 6.12426 10.5273 6.11608 10.5079 6.10419C10.4654 6.07821 10.4122 6.03495 10.3634 5.96665L10.3627 5.96571C10.3241 5.91422 10.2667 5.87597 10.2055 5.85986C10.1448 5.84389 10.0763 5.84894 10.0194 5.89026C9.75754 6.0436 9.51982 6.2826 9.30532 6.60434L9.30405 6.60635C9.22492 6.73824 9.27902 6.89289 9.38056 6.96905L9.3815 6.96973C9.45147 7.01971 9.49378 7.06785 9.51595 7.10553C9.52706 7.12443 9.53245 7.13955 9.53444 7.15011C9.53556 7.15605 9.53545 7.15953 9.53528 7.1611L9.53282 7.16778C9.53064 7.17434 9.52106 7.18906 9.47715 7.1983C9.4349 7.2072 9.37282 7.20792 9.29117 7.19782C9.15378 7.17158 9.02638 7.27985 9.00092 7.40712C8.93618 7.7524 8.93596 8.09885 9.00093 8.4237C9.0265 8.55157 9.15497 8.66025 9.29309 8.63262L9.29414 8.6324C9.42057 8.60431 9.49072 8.62746 9.52316 8.64569C9.51789 8.65886 9.50972 8.67593 9.49782 8.6954C9.47185 8.73791 9.42859 8.79109 9.36029 8.83988L9.35935 8.84056C9.30786 8.87918 9.26961 8.93654 9.2535 8.99776C9.23752 9.05847 9.24258 9.12701 9.28389 9.18385C9.43723 9.44571 9.67624 9.68343 9.99798 9.89792L9.99999 9.8992C10.1319 9.97833 10.2865 9.92422 10.3627 9.82268L10.3634 9.82175C10.4134 9.75177 10.4615 9.70946 10.4992 9.6873C10.5181 9.67618 10.5332 9.6708 10.5438 9.66881C10.5497 9.66768 10.5532 9.6678 10.5548 9.66796L10.5614 9.67042C10.568 9.67261 10.5827 9.68219 10.592 9.72609C10.6009 9.76835 10.6016 9.83042 10.5915 9.91207C10.5652 10.0495 10.6735 10.1769 10.8008 10.2023ZM2.41056 14.9124H3.7045C3.7795 14.9124 3.84588 14.8871 3.89364 14.8394C3.9414 14.7916 3.96662 14.7252 3.96662 14.6502V11.023C3.96662 10.948 3.9414 10.8816 3.89364 10.8338C3.84588 10.7861 3.7795 10.7608 3.7045 10.7608H2.41056C2.33556 10.7608 2.26918 10.7861 2.22142 10.8338C2.17366 10.8816 2.14844 10.948 2.14844 11.023V14.6502C2.14844 14.7252 2.17366 14.7916 2.22142 14.8394C2.26918 14.8871 2.33556 14.9124 2.41056 14.9124ZM3.44238 11.2851V14.3881H2.67268V11.2851H3.44238ZM11.8509 9.17427C11.6502 9.26346 11.5181 9.47602 11.5042 9.72729C11.384 9.74085 11.2523 9.74074 11.1323 9.72697C11.1015 9.46271 10.9722 9.24242 10.7618 9.19327C10.5407 9.10658 10.3033 9.16749 10.1086 9.34371C10.0117 9.26037 9.92855 9.17746 9.85902 9.09503C10.0364 8.89743 10.0982 8.63937 10.0078 8.43601C9.91858 8.23534 9.70601 8.10326 9.45474 8.08936C9.44119 7.96915 9.44129 7.83757 9.45505 7.71753C9.7214 7.68821 9.91858 7.57544 10.0085 7.35065C10.0974 7.12854 10.0368 6.8895 9.85953 6.69376C9.94337 6.59624 10.0268 6.51271 10.1097 6.44292C10.322 6.61984 10.5619 6.68419 10.7673 6.59292C10.9679 6.50373 11.1 6.29116 11.1139 6.03989C11.2341 6.02634 11.3657 6.02645 11.4857 6.0402C11.5151 6.30656 11.6278 6.50374 11.8526 6.59365C12.0747 6.6825 12.3138 6.6219 12.5095 6.44469C12.607 6.52852 12.6906 6.61193 12.7603 6.69485C12.5834 6.90718 12.5191 7.14704 12.6103 7.35238C12.6995 7.55308 12.9121 7.68516 13.1634 7.69905C13.1771 7.81741 13.1768 7.93749 13.1625 8.07126C12.9155 8.10101 12.7 8.21285 12.61 8.43688C12.5199 8.64056 12.5825 8.87892 12.7586 9.07342C12.6747 9.17095 12.5913 9.25448 12.5084 9.32426C12.2961 9.14735 12.0562 9.083 11.8509 9.17427Z" fill="white" stroke="white" stroke-width="0.1"/>
<path d="M11.2962 9.08105L11.2979 9.08099C11.9396 9.05886 12.4492 8.52804 12.4492 7.90678C12.4492 7.26339 11.9383 6.75375 11.275 6.75372L11.2733 6.75378C10.6316 6.7759 10.1219 7.30673 10.1219 7.92799L10.122 7.92971C10.1441 8.57141 10.6749 9.08102 11.2962 9.08105ZM11.2947 8.55677C10.9634 8.55591 10.6667 8.26134 10.6462 7.92653C10.6471 7.59518 10.9416 7.2985 11.2764 7.27799C11.6521 7.27871 11.925 7.55404 11.925 7.90678C11.925 8.23871 11.63 8.53623 11.2947 8.55677ZM2.125 7.90678C2.125 9.22833 3.18678 10.2901 4.50834 10.2901C5.82989 10.2901 6.89167 9.22833 6.89167 7.90678C6.89167 6.58522 5.82989 5.52344 4.50834 5.52344C3.18678 5.52344 2.125 6.58522 2.125 7.90678ZM2.64925 7.90678C2.64925 6.87379 3.47535 6.04769 4.50834 6.04769C5.54133 6.04769 6.36743 6.87379 6.36743 7.90678C6.36743 8.93977 5.54133 9.76587 4.50834 9.76587C3.47535 9.76587 2.64925 8.93977 2.64925 7.90678Z" fill="white" stroke="white" stroke-width="0.1"/>
<path d="M3.69531 7.37391C3.69531 7.82577 4.05709 8.18754 4.50894 8.18754C4.58394 8.18754 4.65033 8.16233 4.69809 8.11457C4.74585 8.06681 4.77107 8.00042 4.77107 7.92542C4.77107 7.85042 4.74585 7.78404 4.69809 7.73628C4.65033 7.68852 4.58394 7.6633 4.50894 7.6633C4.34565 7.6633 4.21955 7.5372 4.21955 7.37391C4.21955 7.29324 4.25559 7.21507 4.31168 7.15664C4.36802 7.09795 4.44051 7.0633 4.50894 7.0633C4.67224 7.0633 4.79834 7.1894 4.79834 7.3527C4.79834 7.4277 4.82356 7.49408 4.87132 7.54184C4.91908 7.5896 4.98546 7.61482 5.06046 7.61482C5.13546 7.61482 5.20184 7.5896 5.2496 7.54184C5.29736 7.49408 5.32258 7.4277 5.32258 7.3527C5.32258 6.90084 4.9608 6.53906 4.50894 6.53906C4.07742 6.53906 3.69531 6.92294 3.69531 7.37391Z" fill="white" stroke="white" stroke-width="0.1"/>
<path d="M3.69531 8.47813C3.69531 8.92999 4.05709 9.29177 4.50894 9.29177C4.9608 9.29177 5.32258 8.92999 5.32258 8.47813C5.32258 8.02628 4.9608 7.66449 4.50894 7.66449C4.43395 7.66449 4.36756 7.68971 4.3198 7.73747C4.27204 7.78523 4.24682 7.85162 4.24682 7.92662C4.24682 8.00162 4.27204 8.068 4.3198 8.11576C4.36756 8.16352 4.43395 8.18874 4.50894 8.18874C4.67224 8.18874 4.79834 8.31484 4.79834 8.47813C4.79834 8.64143 4.67224 8.76753 4.50894 8.76753C4.34565 8.76753 4.21955 8.64143 4.21955 8.47813C4.21955 8.40313 4.19433 8.33675 4.14657 8.28899C4.09881 8.24123 4.03243 8.21601 3.95743 8.21601C3.88243 8.21601 3.81605 8.24123 3.76829 8.28899C3.72053 8.33675 3.69531 8.40313 3.69531 8.47813ZM4.24682 6.80237C4.24682 6.87737 4.27204 6.94376 4.3198 6.99152C4.36756 7.03928 4.43395 7.0645 4.50894 7.0645C4.58394 7.0645 4.65033 7.03928 4.69809 6.99152C4.74585 6.94376 4.77107 6.87737 4.77107 6.80237V6.59025C4.77107 6.51525 4.74585 6.44887 4.69809 6.40111C4.65033 6.35335 4.58394 6.32812 4.50894 6.32812C4.43395 6.32812 4.36756 6.35335 4.3198 6.40111C4.27204 6.44887 4.24682 6.51525 4.24682 6.59025V6.80237Z" fill="white" stroke="white" stroke-width="0.1"/>
<path d="M4.25 9.24164C4.25 9.31664 4.27522 9.38303 4.32298 9.43079C4.37074 9.47855 4.43712 9.50377 4.51212 9.50377C4.58712 9.50377 4.6535 9.47855 4.70126 9.43079C4.74902 9.38303 4.77424 9.31664 4.77424 9.24164V9.02952C4.77424 8.95452 4.74902 8.88814 4.70126 8.84038C4.6535 8.79262 4.58712 8.7674 4.51212 8.7674C4.43712 8.7674 4.37074 8.79262 4.32298 8.84038C4.27522 8.88814 4.25 8.95452 4.25 9.02952V9.24164ZM5.52273 3.83255C5.52273 5.15411 6.58451 6.21589 7.90606 6.21589C9.22761 6.21589 10.2894 5.15411 10.2894 3.83255C10.2894 2.511 9.22761 1.44922 7.90606 1.44922C6.58451 1.44922 5.52273 2.511 5.52273 3.83255ZM6.04697 3.83255C6.04697 2.79956 6.87307 1.97346 7.90606 1.97346C8.93905 1.97346 9.76515 2.79956 9.76515 3.83255C9.76515 4.86554 8.93905 5.69164 7.90606 5.69164C6.87307 5.69164 6.04697 4.86554 6.04697 3.83255Z" fill="white" stroke="white" stroke-width="0.1"/>
<path d="M6.77344 3.57713C6.77344 3.87643 6.90033 4.20533 7.10249 4.4594C7.30453 4.7133 7.588 4.89986 7.90525 4.89986C8.23227 4.89986 8.51591 4.71948 8.71601 4.4673C8.91603 4.21522 9.03707 3.88625 9.03707 3.57713C9.03707 2.93436 8.54802 2.44531 7.90525 2.44531C7.2837 2.44531 6.77344 2.95557 6.77344 3.57713ZM7.29768 3.57713C7.29768 3.24414 7.57226 2.96955 7.90525 2.96955C8.23825 2.96955 8.51283 3.24414 8.51283 3.57713C8.51283 3.7555 8.43791 3.95741 8.32116 4.11476C8.20354 4.27329 8.05219 4.37561 7.90525 4.37561C7.75913 4.37561 7.60776 4.26898 7.48958 4.10711C7.37238 3.9466 7.29768 3.74457 7.29768 3.57713Z" fill="white" stroke="white" stroke-width="0.1"/>
<path d="M8.99967 5.76437L9.00159 5.76539C9.02605 5.77762 9.04676 5.78488 9.06876 5.78854C9.0888 5.79189 9.10838 5.79188 9.12792 5.79188H9.13001C9.23425 5.79188 9.31242 5.73871 9.36252 5.66355L9.36379 5.66154C9.44384 5.52813 9.38769 5.37151 9.2618 5.29597L9.26035 5.29514L8.68763 4.97696L8.6857 4.97594C8.62014 4.94316 8.58607 4.87723 8.58607 4.80854V4.49036C8.58607 4.41536 8.56085 4.34898 8.51309 4.30122C8.46533 4.25346 8.39895 4.22824 8.32395 4.22824C8.24895 4.22824 8.18257 4.25346 8.13481 4.30122C8.08705 4.34898 8.06183 4.41536 8.06183 4.49036V4.80854C8.06183 5.08138 8.19895 5.30943 8.4255 5.44536L8.42694 5.44619L8.99967 5.76437ZM6.43562 5.64033L6.43689 5.64234C6.487 5.7175 6.56516 5.77066 6.6694 5.77066C6.67145 5.77066 6.67351 5.77067 6.67558 5.77068C6.71049 5.77079 6.74921 5.77091 6.78391 5.74017L7.1594 5.53157L7.37055 5.42599L7.37392 5.42415C7.60046 5.28822 7.73759 5.06017 7.73759 4.78733V4.46915C7.73759 4.39415 7.71237 4.32777 7.66461 4.28001C7.61685 4.23225 7.55046 4.20703 7.47546 4.20703C7.40047 4.20703 7.33408 4.23225 7.28632 4.28001C7.23856 4.32777 7.21334 4.39415 7.21334 4.46915V4.78733C7.21334 4.85672 7.17848 4.92409 7.13138 4.9566L6.53973 5.27356L6.53762 5.27476C6.41172 5.3503 6.35558 5.50692 6.43562 5.64033Z" fill="white" stroke="white" stroke-width="0.1"/>
<path d="M5.52344 3.83255C5.52344 5.15411 6.58522 6.21589 7.90677 6.21589C9.22832 6.21589 10.2901 5.15411 10.2901 3.83255C10.2901 2.511 9.22832 1.44922 7.90677 1.44922C6.58522 1.44922 5.52344 2.511 5.52344 3.83255ZM6.04768 3.83255C6.04768 2.79956 6.87378 1.97346 7.90677 1.97346C8.93976 1.97346 9.76586 2.79956 9.76586 3.83255C9.76586 4.86554 8.93976 5.69164 7.90677 5.69164C6.87378 5.69164 6.04768 4.86554 6.04768 3.83255Z" fill="white" stroke="white" stroke-width="0.1"/>
<path d="M6.77344 3.57713C6.77344 3.87643 6.90033 4.20533 7.10249 4.4594C7.30453 4.7133 7.588 4.89986 7.90525 4.89986C8.23227 4.89986 8.51591 4.71948 8.71601 4.4673C8.91603 4.21522 9.03707 3.88625 9.03707 3.57713C9.03707 2.93436 8.54802 2.44531 7.90525 2.44531C7.2837 2.44531 6.77344 2.95557 6.77344 3.57713ZM7.29768 3.57713C7.29768 3.24414 7.57226 2.96955 7.90525 2.96955C8.23825 2.96955 8.51283 3.24414 8.51283 3.57713C8.51283 3.7555 8.43791 3.95741 8.32116 4.11476C8.20354 4.27329 8.05219 4.37561 7.90525 4.37561C7.75913 4.37561 7.60776 4.26898 7.48958 4.10711C7.37238 3.9466 7.29768 3.74457 7.29768 3.57713Z" fill="white" stroke="white" stroke-width="0.1"/>
<path d="M9.00505 5.76437L9.00697 5.76539C9.03143 5.77762 9.05214 5.78488 9.07414 5.78854C9.09419 5.79189 9.11377 5.79188 9.1333 5.79188H9.13539C9.23964 5.79188 9.3178 5.73871 9.3679 5.66355L9.36918 5.66154C9.44922 5.52813 9.39307 5.37151 9.26718 5.29597L9.26574 5.29514L8.69301 4.97696L8.69109 4.97594C8.62552 4.94316 8.59145 4.87723 8.59145 4.80854V4.49036C8.59145 4.41536 8.56624 4.34898 8.51848 4.30122C8.47072 4.25346 8.40433 4.22824 8.32933 4.22824C8.25433 4.22824 8.18795 4.25346 8.14019 4.30122C8.09243 4.34898 8.06721 4.41536 8.06721 4.49036V4.80854C8.06721 5.08138 8.20433 5.30943 8.43088 5.44536L8.43232 5.44619L9.00505 5.76437ZM6.441 5.64033L6.44227 5.64234C6.49238 5.7175 6.57054 5.77066 6.67479 5.77066C6.67683 5.77066 6.67889 5.77067 6.68096 5.77068C6.71587 5.77079 6.7546 5.77091 6.7893 5.74017L7.16479 5.53157L7.37593 5.42599L7.3793 5.42415C7.60584 5.28822 7.74297 5.06017 7.74297 4.78733V4.46915C7.74297 4.39415 7.71775 4.32777 7.66999 4.28001C7.62223 4.23225 7.55585 4.20703 7.48085 4.20703C7.40585 4.20703 7.33946 4.23225 7.2917 4.28001C7.24394 4.32777 7.21873 4.39415 7.21873 4.46915V4.78733C7.21873 4.85672 7.18387 4.92409 7.13677 4.9566L6.54511 5.27356L6.543 5.27476C6.41711 5.3503 6.36096 5.50692 6.441 5.64033ZM7.63806 15.0813L7.64347 15.0823C7.66211 15.085 7.68052 15.0877 7.69871 15.0903C7.82353 15.1085 7.93857 15.1253 8.05357 15.1253C8.33766 15.1253 8.59982 15.0596 8.86078 14.9291L8.86182 14.9285L13.1881 12.6382C13.1879 12.6383 13.1883 12.6381 13.1881 12.6382C13.5923 12.4358 13.7729 11.9848 13.6157 11.558L13.6152 11.5567C13.4361 11.109 12.9428 10.8615 12.4711 11.0187L12.47 11.0191L9.35177 12.1434L9.35016 12.144C9.2218 12.1953 9.14106 12.3498 9.19503 12.4847C9.24626 12.6128 9.4002 12.6935 9.53491 12.6402L12.6511 11.5167C12.8388 11.4611 13.0445 11.5553 13.1193 11.7423C13.1575 11.8377 13.1565 11.9252 13.1272 11.9997C13.0977 12.0745 13.0379 12.1404 12.9511 12.1888L8.60316 14.4582C8.3401 14.5999 8.05544 14.6213 7.76803 14.5599L5.0334 13.8604C5.03326 13.8603 5.03353 13.8605 5.0334 13.8604C4.55716 13.7307 4.05949 13.7522 3.62709 13.8819L3.62564 13.8824C3.47632 13.9321 3.39223 14.0859 3.446 14.2227C3.49614 14.3709 3.64877 14.4542 3.78496 14.4014C4.13714 14.2982 4.53007 14.2779 4.92267 14.3812L7.63806 15.0813Z" fill="white"/>
<path d="M13.1881 12.6382L8.86182 14.9285L8.86078 14.9291C8.59982 15.0596 8.33766 15.1253 8.05357 15.1253C7.93857 15.1253 7.82353 15.1085 7.69871 15.0903C7.68052 15.0877 7.66211 15.085 7.64347 15.0823L7.63806 15.0813L4.92267 14.3812C4.53007 14.2779 4.13714 14.2982 3.78496 14.4014C3.64877 14.4542 3.49614 14.3709 3.446 14.2227C3.39223 14.0859 3.47632 13.9321 3.62564 13.8824L3.62709 13.8819C4.05949 13.7522 4.55716 13.7307 5.0334 13.8604M13.1881 12.6382C13.1883 12.6381 13.1879 12.6383 13.1881 12.6382ZM13.1881 12.6382C13.5923 12.4358 13.7729 11.9848 13.6157 11.558L13.6152 11.5567C13.4361 11.109 12.9428 10.8615 12.4711 11.0187L12.47 11.0191L9.35177 12.1434L9.35016 12.144C9.2218 12.1953 9.14106 12.3498 9.19503 12.4847C9.24626 12.6128 9.4002 12.6935 9.53491 12.6402L12.6511 11.5167C12.8388 11.4611 13.0445 11.5553 13.1193 11.7423C13.1575 11.8377 13.1565 11.9252 13.1272 11.9997C13.0977 12.0745 13.0379 12.1404 12.9511 12.1888L8.60316 14.4582C8.3401 14.5999 8.05544 14.6213 7.76803 14.5599L5.0334 13.8604M5.0334 13.8604C5.03326 13.8603 5.03353 13.8605 5.0334 13.8604ZM9.00505 5.76437L9.00697 5.76539C9.03143 5.77762 9.05214 5.78488 9.07414 5.78854C9.09419 5.79189 9.11377 5.79188 9.1333 5.79188H9.13539C9.23964 5.79188 9.3178 5.73871 9.3679 5.66355L9.36918 5.66154C9.44922 5.52813 9.39307 5.37151 9.26718 5.29597L9.26574 5.29514L8.69301 4.97696L8.69109 4.97594C8.62552 4.94316 8.59145 4.87723 8.59145 4.80854V4.49036C8.59145 4.41536 8.56624 4.34898 8.51848 4.30122C8.47072 4.25346 8.40433 4.22824 8.32933 4.22824C8.25433 4.22824 8.18795 4.25346 8.14019 4.30122C8.09243 4.34898 8.06721 4.41536 8.06721 4.49036V4.80854C8.06721 5.08138 8.20433 5.30943 8.43088 5.44536L8.43232 5.44619L9.00505 5.76437ZM6.441 5.64033L6.44227 5.64234C6.49238 5.7175 6.57054 5.77066 6.67479 5.77066C6.67683 5.77066 6.67889 5.77067 6.68096 5.77068C6.71587 5.77079 6.7546 5.77091 6.7893 5.74017L7.16479 5.53157L7.37593 5.42599L7.3793 5.42415C7.60584 5.28822 7.74297 5.06017 7.74297 4.78733V4.46915C7.74297 4.39415 7.71775 4.32777 7.66999 4.28001C7.62223 4.23225 7.55585 4.20703 7.48085 4.20703C7.40585 4.20703 7.33946 4.23225 7.2917 4.28001C7.24394 4.32777 7.21873 4.39415 7.21873 4.46915V4.78733C7.21873 4.85672 7.18387 4.92409 7.13677 4.9566L6.54511 5.27356L6.543 5.27476C6.41711 5.3503 6.36096 5.50692 6.441 5.64033Z" stroke="white" stroke-width="0.1"/>
<path d="M9.38692 12.7689L6.86351 12.7265C6.86337 12.7265 6.86366 12.7265 6.86351 12.7265V12.6765C6.73624 12.6765 6.65139 12.5704 6.65139 12.4644C6.65139 12.3583 6.75745 12.2523 6.86351 12.2523L9.38692 12.7689ZM9.38692 12.7689C9.42457 12.7689 9.45902 12.7626 9.49026 12.7487C9.52128 12.7349 9.54743 12.7148 9.5716 12.6906C9.59576 12.6665 9.61587 12.6403 9.62966 12.6093C9.64354 12.5781 9.64988 12.5445 9.64988 12.5068C9.64988 12.2684 9.60671 12.0713 9.54059 11.9163C9.32106 11.2605 8.70889 10.8241 8.03179 10.8023L6.86604 10.7811C6.60695 10.7597 6.30553 10.7813 6.00393 10.8671L3.65205 11.2696L3.65068 11.2699C3.5817 11.2837 3.52363 11.3307 3.48631 11.3866C3.44898 11.4426 3.42796 11.5143 3.44176 11.5833C3.45555 11.6523 3.50252 11.7103 3.55851 11.7476C3.61428 11.7848 3.68563 11.8058 3.75437 11.7923L6.12945 11.3894L6.13579 11.3879C6.40594 11.3048 6.63257 11.2846 6.83733 11.305L6.84139 11.3053L8.00742 11.3265C8.47415 11.347 8.88085 11.6515 9.0438 12.0996L9.04242 12.1001L9.04918 12.1103C9.06578 12.1352 9.07461 12.1606 9.08184 12.1919C9.08499 12.2056 9.08769 12.2196 9.09072 12.2354C9.09123 12.2381 9.09175 12.2408 9.09228 12.2435L9.38692 12.7689Z" fill="white"/>
<path d="M9.38692 12.7689L6.86351 12.7265M9.38692 12.7689L6.86351 12.2523C6.75745 12.2523 6.65139 12.3583 6.65139 12.4644C6.65139 12.5704 6.73624 12.6765 6.86351 12.6765V12.7265M9.38692 12.7689C9.42457 12.7689 9.45902 12.7626 9.49026 12.7487C9.52128 12.7349 9.54743 12.7148 9.5716 12.6906C9.59576 12.6665 9.61587 12.6403 9.62966 12.6093C9.64354 12.5781 9.64988 12.5445 9.64988 12.5068C9.64988 12.2684 9.60671 12.0713 9.54059 11.9163C9.32106 11.2605 8.70889 10.8241 8.03179 10.8023L6.86604 10.7811C6.60695 10.7597 6.30553 10.7813 6.00393 10.8671L3.65205 11.2696L3.65068 11.2699C3.5817 11.2837 3.52363 11.3307 3.48631 11.3866C3.44898 11.4426 3.42796 11.5143 3.44176 11.5833C3.45555 11.6523 3.50252 11.7103 3.55851 11.7476C3.61428 11.7848 3.68563 11.8058 3.75437 11.7923L6.12945 11.3894L6.13579 11.3879C6.40594 11.3048 6.63257 11.2846 6.83733 11.305L6.84139 11.3053L8.00742 11.3265C8.47415 11.347 8.88085 11.6515 9.0438 12.0996L9.04242 12.1001L9.04918 12.1103C9.06578 12.1352 9.07461 12.1606 9.08184 12.1919C9.08499 12.2056 9.08769 12.2196 9.09072 12.2354C9.09123 12.2381 9.09175 12.2408 9.09228 12.2435L9.38692 12.7689ZM6.86351 12.7265C6.86337 12.7265 6.86366 12.7265 6.86351 12.7265Z" stroke="white" stroke-width="0.1"/>
<path d="M10.8008 10.2023L10.8044 10.2029L10.8059 10.2031C10.9746 10.2242 11.1469 10.2457 11.3197 10.2457C11.4937 10.2457 11.6461 10.2239 11.8186 10.1809C11.9459 10.1547 12.0538 10.0266 12.0263 9.88894L12.0261 9.8879C11.998 9.76147 12.0211 9.69131 12.0394 9.65888C12.0525 9.66414 12.0696 9.67232 12.0891 9.68421C12.1316 9.71019 12.1847 9.75345 12.2335 9.82175L12.2342 9.82268C12.2728 9.87417 12.3302 9.91243 12.3914 9.92854C12.4521 9.94451 12.5207 9.93946 12.5775 9.89814C12.8391 9.74497 13.0766 9.50633 13.2909 9.18514C13.3708 9.07713 13.343 8.91964 13.2376 8.84056L13.2366 8.83988C13.1657 8.78919 13.1171 8.73995 13.0893 8.70059C13.0753 8.68079 13.0678 8.66512 13.0645 8.65432C13.0634 8.65074 13.063 8.64826 13.0628 8.64671C13.0645 8.64487 13.068 8.6417 13.0744 8.63774C13.0848 8.63129 13.1006 8.62437 13.1222 8.61869C13.165 8.60743 13.2268 8.6021 13.3057 8.61179C13.4431 8.63802 13.5705 8.52976 13.596 8.40249C13.6607 8.05721 13.6609 7.71076 13.596 7.38591C13.5704 7.25804 13.4419 7.14936 13.3038 7.17699L13.3028 7.17721C13.1763 7.2053 13.1062 7.18215 13.0737 7.16391C13.079 7.15074 13.0872 7.13367 13.0991 7.11421C13.1251 7.0717 13.1683 7.01852 13.2366 6.96973L13.2376 6.96905C13.289 6.93043 13.3273 6.87307 13.3434 6.81185C13.3594 6.75114 13.3543 6.6826 13.313 6.62576C13.1597 6.3639 12.9207 6.12618 12.5989 5.91169L12.5969 5.91042C12.465 5.83128 12.3104 5.88539 12.2342 5.98693L12.2335 5.98786C12.1836 6.05784 12.1354 6.10015 12.0977 6.12231C12.0788 6.13343 12.0637 6.13881 12.0532 6.1408C12.0472 6.14193 12.0437 6.14181 12.0422 6.14165L12.0355 6.13919C12.0289 6.137 12.0142 6.12742 12.005 6.08352C11.9961 6.04126 11.9953 5.97918 12.0054 5.89753C12.0317 5.76014 11.9234 5.63275 11.7961 5.60729C11.4508 5.54255 11.1044 5.54232 10.7796 5.60729C10.6517 5.63286 10.543 5.76134 10.5706 5.89946L10.5709 5.9005C10.599 6.02693 10.5758 6.09709 10.5576 6.12952C10.5444 6.12426 10.5273 6.11608 10.5079 6.10419C10.4654 6.07821 10.4122 6.03495 10.3634 5.96665L10.3627 5.96571C10.3241 5.91422 10.2667 5.87597 10.2055 5.85986C10.1448 5.84389 10.0763 5.84894 10.0194 5.89026C9.75754 6.0436 9.51982 6.2826 9.30532 6.60434L9.30405 6.60635C9.22492 6.73824 9.27902 6.89289 9.38056 6.96905L9.3815 6.96973C9.45147 7.01971 9.49378 7.06785 9.51595 7.10553C9.52706 7.12443 9.53245 7.13955 9.53444 7.15011C9.53556 7.15605 9.53545 7.15953 9.53528 7.1611L9.53282 7.16778C9.53064 7.17434 9.52106 7.18906 9.47715 7.1983C9.4349 7.2072 9.37282 7.20792 9.29117 7.19782C9.15378 7.17158 9.02638 7.27985 9.00092 7.40712C8.93618 7.7524 8.93596 8.09885 9.00093 8.4237C9.0265 8.55157 9.15497 8.66025 9.29309 8.63262L9.29414 8.6324C9.42057 8.60431 9.49072 8.62746 9.52316 8.64569C9.51789 8.65886 9.50972 8.67593 9.49782 8.6954C9.47185 8.73791 9.42859 8.79109 9.36029 8.83988L9.35935 8.84056C9.30786 8.87918 9.26961 8.93654 9.2535 8.99776C9.23752 9.05847 9.24258 9.12701 9.28389 9.18385C9.43723 9.44571 9.67624 9.68343 9.99798 9.89792L9.99999 9.8992C10.1319 9.97833 10.2865 9.92422 10.3627 9.82268L10.3634 9.82175C10.4134 9.75177 10.4615 9.70946 10.4992 9.6873C10.5181 9.67618 10.5332 9.6708 10.5438 9.66881C10.5497 9.66768 10.5532 9.6678 10.5548 9.66796L10.5614 9.67042C10.568 9.67261 10.5827 9.68219 10.592 9.72609C10.6009 9.76835 10.6016 9.83042 10.5915 9.91207C10.5652 10.0495 10.6735 10.1769 10.8008 10.2023ZM2.41056 14.9124H3.7045C3.7795 14.9124 3.84588 14.8871 3.89364 14.8394C3.9414 14.7916 3.96662 14.7252 3.96662 14.6502V11.023C3.96662 10.948 3.9414 10.8816 3.89364 10.8338C3.84588 10.7861 3.7795 10.7608 3.7045 10.7608H2.41056C2.33556 10.7608 2.26918 10.7861 2.22142 10.8338C2.17366 10.8816 2.14844 10.948 2.14844 11.023V14.6502C2.14844 14.7252 2.17366 14.7916 2.22142 14.8394C2.26918 14.8871 2.33556 14.9124 2.41056 14.9124ZM3.44238 11.2851V14.3881H2.67268V11.2851H3.44238ZM11.8509 9.17427C11.6502 9.26346 11.5181 9.47602 11.5042 9.72729C11.384 9.74085 11.2523 9.74074 11.1323 9.72697C11.1015 9.46271 10.9722 9.24242 10.7618 9.19327C10.5407 9.10658 10.3033 9.16749 10.1086 9.34371C10.0117 9.26037 9.92855 9.17746 9.85902 9.09503C10.0364 8.89743 10.0982 8.63937 10.0078 8.43601C9.91858 8.23534 9.70601 8.10326 9.45474 8.08936C9.44119 7.96915 9.44129 7.83757 9.45505 7.71753C9.7214 7.68821 9.91858 7.57544 10.0085 7.35065C10.0974 7.12854 10.0368 6.8895 9.85953 6.69376C9.94337 6.59624 10.0268 6.51271 10.1097 6.44292C10.322 6.61984 10.5619 6.68419 10.7673 6.59292C10.9679 6.50373 11.1 6.29116 11.1139 6.03989C11.2341 6.02634 11.3657 6.02645 11.4857 6.0402C11.5151 6.30656 11.6278 6.50374 11.8526 6.59365C12.0747 6.6825 12.3138 6.6219 12.5095 6.44469C12.607 6.52852 12.6906 6.61193 12.7603 6.69485C12.5834 6.90718 12.5191 7.14704 12.6103 7.35238C12.6995 7.55308 12.9121 7.68516 13.1634 7.69905C13.1771 7.81741 13.1768 7.93749 13.1625 8.07126C12.9155 8.10101 12.7 8.21285 12.61 8.43688C12.5199 8.64056 12.5825 8.87892 12.7586 9.07342C12.6747 9.17095 12.5913 9.25448 12.5084 9.32426C12.2961 9.14735 12.0562 9.083 11.8509 9.17427Z" fill="white" stroke="white" stroke-width="0.1"/>
<path d="M11.2962 9.08105L11.2979 9.08099C11.9396 9.05886 12.4492 8.52804 12.4492 7.90678C12.4492 7.26339 11.9383 6.75375 11.275 6.75372L11.2733 6.75378C10.6316 6.7759 10.1219 7.30673 10.1219 7.92799L10.122 7.92971C10.1441 8.57141 10.6749 9.08102 11.2962 9.08105ZM11.2947 8.55677C10.9634 8.55591 10.6667 8.26134 10.6462 7.92653C10.6471 7.59518 10.9416 7.2985 11.2764 7.27799C11.6521 7.27871 11.925 7.55404 11.925 7.90678C11.925 8.23871 11.63 8.53623 11.2947 8.55677ZM2.125 7.90678C2.125 9.22833 3.18678 10.2901 4.50834 10.2901C5.82989 10.2901 6.89167 9.22833 6.89167 7.90678C6.89167 6.58522 5.82989 5.52344 4.50834 5.52344C3.18678 5.52344 2.125 6.58522 2.125 7.90678ZM2.64925 7.90678C2.64925 6.87379 3.47535 6.04769 4.50834 6.04769C5.54133 6.04769 6.36743 6.87379 6.36743 7.90678C6.36743 8.93977 5.54133 9.76587 4.50834 9.76587C3.47535 9.76587 2.64925 8.93977 2.64925 7.90678Z" fill="white" stroke="white" stroke-width="0.1"/>
<path d="M3.69531 7.37391C3.69531 7.82577 4.05709 8.18754 4.50894 8.18754C4.58394 8.18754 4.65033 8.16233 4.69809 8.11457C4.74585 8.06681 4.77107 8.00042 4.77107 7.92542C4.77107 7.85042 4.74585 7.78404 4.69809 7.73628C4.65033 7.68852 4.58394 7.6633 4.50894 7.6633C4.34565 7.6633 4.21955 7.5372 4.21955 7.37391C4.21955 7.29324 4.25559 7.21507 4.31168 7.15664C4.36802 7.09795 4.44051 7.0633 4.50894 7.0633C4.67224 7.0633 4.79834 7.1894 4.79834 7.3527C4.79834 7.4277 4.82356 7.49408 4.87132 7.54184C4.91908 7.5896 4.98546 7.61482 5.06046 7.61482C5.13546 7.61482 5.20184 7.5896 5.2496 7.54184C5.29736 7.49408 5.32258 7.4277 5.32258 7.3527C5.32258 6.90084 4.9608 6.53906 4.50894 6.53906C4.07742 6.53906 3.69531 6.92294 3.69531 7.37391Z" fill="white" stroke="white" stroke-width="0.1"/>
<path d="M3.69531 8.47813C3.69531 8.92999 4.05709 9.29177 4.50894 9.29177C4.9608 9.29177 5.32258 8.92999 5.32258 8.47813C5.32258 8.02628 4.9608 7.66449 4.50894 7.66449C4.43395 7.66449 4.36756 7.68971 4.3198 7.73747C4.27204 7.78523 4.24682 7.85162 4.24682 7.92662C4.24682 8.00162 4.27204 8.068 4.3198 8.11576C4.36756 8.16352 4.43395 8.18874 4.50894 8.18874C4.67224 8.18874 4.79834 8.31484 4.79834 8.47813C4.79834 8.64143 4.67224 8.76753 4.50894 8.76753C4.34565 8.76753 4.21955 8.64143 4.21955 8.47813C4.21955 8.40313 4.19433 8.33675 4.14657 8.28899C4.09881 8.24123 4.03243 8.21601 3.95743 8.21601C3.88243 8.21601 3.81605 8.24123 3.76829 8.28899C3.72053 8.33675 3.69531 8.40313 3.69531 8.47813ZM4.24682 6.80237C4.24682 6.87737 4.27204 6.94376 4.3198 6.99152C4.36756 7.03928 4.43395 7.0645 4.50894 7.0645C4.58394 7.0645 4.65033 7.03928 4.69809 6.99152C4.74585 6.94376 4.77107 6.87737 4.77107 6.80237V6.59025C4.77107 6.51525 4.74585 6.44887 4.69809 6.40111C4.65033 6.35335 4.58394 6.32812 4.50894 6.32812C4.43395 6.32812 4.36756 6.35335 4.3198 6.40111C4.27204 6.44887 4.24682 6.51525 4.24682 6.59025V6.80237Z" fill="white" stroke="white" stroke-width="0.1"/>
<path d="M4.25 9.24164C4.25 9.31664 4.27522 9.38303 4.32298 9.43079C4.37074 9.47855 4.43712 9.50377 4.51212 9.50377C4.58712 9.50377 4.6535 9.47855 4.70126 9.43079C4.74902 9.38303 4.77424 9.31664 4.77424 9.24164V9.02952C4.77424 8.95452 4.74902 8.88814 4.70126 8.84038C4.6535 8.79262 4.58712 8.7674 4.51212 8.7674C4.43712 8.7674 4.37074 8.79262 4.32298 8.84038C4.27522 8.88814 4.25 8.95452 4.25 9.02952V9.24164ZM5.52273 3.83255C5.52273 5.15411 6.58451 6.21589 7.90606 6.21589C9.22761 6.21589 10.2894 5.15411 10.2894 3.83255C10.2894 2.511 9.22761 1.44922 7.90606 1.44922C6.58451 1.44922 5.52273 2.511 5.52273 3.83255ZM6.04697 3.83255C6.04697 2.79956 6.87307 1.97346 7.90606 1.97346C8.93905 1.97346 9.76515 2.79956 9.76515 3.83255C9.76515 4.86554 8.93905 5.69164 7.90606 5.69164C6.87307 5.69164 6.04697 4.86554 6.04697 3.83255Z" fill="white" stroke="white" stroke-width="0.1"/>
<path d="M6.77344 3.57713C6.77344 3.87643 6.90033 4.20533 7.10249 4.4594C7.30453 4.7133 7.588 4.89986 7.90525 4.89986C8.23227 4.89986 8.51591 4.71948 8.71601 4.4673C8.91603 4.21522 9.03707 3.88625 9.03707 3.57713C9.03707 2.93436 8.54802 2.44531 7.90525 2.44531C7.2837 2.44531 6.77344 2.95557 6.77344 3.57713ZM7.29768 3.57713C7.29768 3.24414 7.57226 2.96955 7.90525 2.96955C8.23825 2.96955 8.51283 3.24414 8.51283 3.57713C8.51283 3.7555 8.43791 3.95741 8.32116 4.11476C8.20354 4.27329 8.05219 4.37561 7.90525 4.37561C7.75913 4.37561 7.60776 4.26898 7.48958 4.10711C7.37238 3.9466 7.29768 3.74457 7.29768 3.57713Z" fill="white" stroke="white" stroke-width="0.1"/>
<path d="M8.99967 5.76437L9.00159 5.76539C9.02605 5.77762 9.04676 5.78488 9.06876 5.78854C9.0888 5.79189 9.10838 5.79188 9.12792 5.79188H9.13001C9.23425 5.79188 9.31242 5.73871 9.36252 5.66355L9.36379 5.66154C9.44384 5.52813 9.38769 5.37151 9.2618 5.29597L9.26035 5.29514L8.68763 4.97696L8.6857 4.97594C8.62014 4.94316 8.58607 4.87723 8.58607 4.80854V4.49036C8.58607 4.41536 8.56085 4.34898 8.51309 4.30122C8.46533 4.25346 8.39895 4.22824 8.32395 4.22824C8.24895 4.22824 8.18257 4.25346 8.13481 4.30122C8.08705 4.34898 8.06183 4.41536 8.06183 4.49036V4.80854C8.06183 5.08138 8.19895 5.30943 8.4255 5.44536L8.42694 5.44619L8.99967 5.76437ZM6.43562 5.64033L6.43689 5.64234C6.487 5.7175 6.56516 5.77066 6.6694 5.77066C6.67145 5.77066 6.67351 5.77067 6.67558 5.77068C6.71049 5.77079 6.74921 5.77091 6.78391 5.74017L7.1594 5.53157L7.37055 5.42599L7.37392 5.42415C7.60046 5.28822 7.73759 5.06017 7.73759 4.78733V4.46915C7.73759 4.39415 7.71237 4.32777 7.66461 4.28001C7.61685 4.23225 7.55046 4.20703 7.47546 4.20703C7.40047 4.20703 7.33408 4.23225 7.28632 4.28001C7.23856 4.32777 7.21334 4.39415 7.21334 4.46915V4.78733C7.21334 4.85672 7.17848 4.92409 7.13138 4.9566L6.53973 5.27356L6.53762 5.27476C6.41172 5.3503 6.35558 5.50692 6.43562 5.64033Z" fill="white" stroke="white" stroke-width="0.1"/>
<path d="M5.52344 3.83255C5.52344 5.15411 6.58522 6.21589 7.90677 6.21589C9.22832 6.21589 10.2901 5.15411 10.2901 3.83255C10.2901 2.511 9.22832 1.44922 7.90677 1.44922C6.58522 1.44922 5.52344 2.511 5.52344 3.83255ZM6.04768 3.83255C6.04768 2.79956 6.87378 1.97346 7.90677 1.97346C8.93976 1.97346 9.76586 2.79956 9.76586 3.83255C9.76586 4.86554 8.93976 5.69164 7.90677 5.69164C6.87378 5.69164 6.04768 4.86554 6.04768 3.83255Z" fill="white" stroke="white" stroke-width="0.1"/>
<path d="M6.77344 3.57713C6.77344 3.87643 6.90033 4.20533 7.10249 4.4594C7.30453 4.7133 7.588 4.89986 7.90525 4.89986C8.23227 4.89986 8.51591 4.71948 8.71601 4.4673C8.91603 4.21522 9.03707 3.88625 9.03707 3.57713C9.03707 2.93436 8.54802 2.44531 7.90525 2.44531C7.2837 2.44531 6.77344 2.95557 6.77344 3.57713ZM7.29768 3.57713C7.29768 3.24414 7.57226 2.96955 7.90525 2.96955C8.23825 2.96955 8.51283 3.24414 8.51283 3.57713C8.51283 3.7555 8.43791 3.95741 8.32116 4.11476C8.20354 4.27329 8.05219 4.37561 7.90525 4.37561C7.75913 4.37561 7.60776 4.26898 7.48958 4.10711C7.37238 3.9466 7.29768 3.74457 7.29768 3.57713Z" fill="white" stroke="white" stroke-width="0.1"/>
<path d="M8.99967 5.76437L9.00159 5.76539C9.02605 5.77762 9.04676 5.78488 9.06876 5.78854C9.0888 5.79189 9.10838 5.79188 9.12792 5.79188H9.13001C9.23425 5.79188 9.31242 5.73871 9.36252 5.66355L9.36379 5.66154C9.44384 5.52813 9.38769 5.37151 9.2618 5.29597L9.26035 5.29514L8.68763 4.97696L8.6857 4.97594C8.62014 4.94316 8.58607 4.87723 8.58607 4.80854V4.49036C8.58607 4.41536 8.56085 4.34898 8.51309 4.30122C8.46533 4.25346 8.39895 4.22824 8.32395 4.22824C8.24895 4.22824 8.18257 4.25346 8.13481 4.30122C8.08705 4.34898 8.06183 4.41536 8.06183 4.49036V4.80854C8.06183 5.08138 8.19895 5.30943 8.4255 5.44536L8.42694 5.44619L8.99967 5.76437ZM6.43562 5.64033L6.43689 5.64234C6.487 5.7175 6.56516 5.77066 6.6694 5.77066C6.67145 5.77066 6.67351 5.77067 6.67558 5.77068C6.71049 5.77079 6.74921 5.77091 6.78391 5.74017L7.1594 5.53157L7.37055 5.42599L7.37392 5.42415C7.60046 5.28822 7.73759 5.06017 7.73759 4.78733V4.46915C7.73759 4.39415 7.71237 4.32777 7.66461 4.28001C7.61685 4.23225 7.55046 4.20703 7.47546 4.20703C7.40047 4.20703 7.33408 4.23225 7.28632 4.28001C7.23856 4.32777 7.21334 4.39415 7.21334 4.46915V4.78733C7.21334 4.85672 7.17848 4.92409 7.13138 4.9566L6.53973 5.27356L6.53762 5.27476C6.41172 5.3503 6.35558 5.50692 6.43562 5.64033Z" fill="white" stroke="white" stroke-width="0.1"/>
</g>
</g>
</g>
</g>
<defs>
<clipPath id="clip0_918_3906">
<rect width="15" height="15" fill="white" transform="translate(0 0.300781)"/>
</clipPath>
<clipPath id="clip1_918_3906">
<rect width="15" height="15" fill="white" transform="translate(0 0.300781)"/>
</clipPath>
<clipPath id="clip2_918_3906">
<rect width="15" height="15" fill="white" transform="translate(0 0.300781)"/>
</clipPath>
</defs>
</svg>
