<svg width="55" height="56" viewBox="0 0 55 56" fill="none" xmlns="http://www.w3.org/2000/svg">
<g clip-path="url(#clip0_918_4033)">
<g clip-path="url(#clip1_918_4033)">
<g clip-path="url(#clip2_918_4033)">
<path d="M38.7952 22.923C35.9959 11.8197 29.3781 8.17037 28.6672 6.77551C28.0471 5.99151 27.4935 4.87721 27.0394 3.91016C26.9596 4.89512 26.9177 5.27319 25.8812 6.26611C24.2798 7.39236 16.0521 13.5927 15.3833 26.2041C14.7587 37.9681 24.8401 44.9781 26.2088 45.8717L26.3639 45.9711C26.6489 47.865 26.8926 49.7636 27.0949 51.666H28.16C28.4124 49.6129 28.7895 47.5735 29.2896 45.5572C30.2132 44.9683 30.6273 44.636 31.172 44.1782C33.7522 42.0338 35.8026 39.4267 37.191 36.5257C38.5791 33.6245 39.2743 30.494 39.2315 27.3365C39.2537 25.7167 39.0035 24.0294 38.7952 22.923ZM26.9774 39.2295C26.9774 39.2295 26.9774 22.7319 27.5864 22.734C28.0582 22.734 28.6717 44.0152 28.6717 44.0152C27.8279 43.9256 26.9774 40.513 26.9774 39.2295Z" fill="#192020"/>
</g>
</g>
</g>
<defs>
<clipPath id="clip0_918_4033">
<rect width="54.5455" height="54.5455" fill="white" transform="translate(0.128906 0.726562)"/>
</clipPath>
<clipPath id="clip1_918_4033">
<rect width="54.5455" height="54.5455" fill="white" transform="translate(0.128906 0.726562)"/>
</clipPath>
<clipPath id="clip2_918_4033">
<rect width="54.5781" height="54.5781" fill="white" transform="translate(0.00390625 0.5)"/>
</clipPath>
</defs>
</svg>
