<svg width="50" height="51" viewBox="0 0 50 51" fill="none" xmlns="http://www.w3.org/2000/svg">
<g clip-path="url(#clip0_918_4002)">
<g clip-path="url(#clip1_918_4002)">
<path d="M43.6959 12.6867L26.5502 2.97763C26.0007 2.71967 25.4012 2.58594 24.7943 2.58594C24.1873 2.58594 23.5878 2.71967 23.0384 2.97763L5.89261 12.6867C5.36544 12.991 4.92642 13.4271 4.61859 13.9522C4.31077 14.4773 4.14471 15.0734 4.13672 15.682V34.8936C4.14471 35.5022 4.31077 36.0983 4.61859 36.6234C4.92642 37.1485 5.36544 37.5846 5.89261 37.8889L10.4373 40.4711C11.6245 41.1726 12.9834 41.5302 14.3622 41.504C17.5641 41.504 19.4233 39.5415 19.4233 36.2363V17.3346C19.4233 17.1977 19.3689 17.0663 19.272 16.9695C19.1752 16.8726 19.0438 16.8182 18.9069 16.8182H16.7378C16.6009 16.8182 16.4695 16.8726 16.3726 16.9695C16.2758 17.0663 16.2214 17.1977 16.2214 17.3346V36.2363C16.2214 37.7856 14.6721 39.2316 12.1932 37.9922L7.44193 35.3067C7.37779 35.2586 7.32573 35.1962 7.28987 35.1245C7.25402 35.0528 7.23535 34.9737 7.23535 34.8936V15.682C7.24246 15.4912 7.31546 15.3087 7.44193 15.1656L24.4844 5.55983H25.1041L42.1466 15.1656C42.2731 15.3087 42.3461 15.4912 42.3532 15.682V34.8936C42.3532 34.9737 42.3345 35.0528 42.2987 35.1245C42.2628 35.1962 42.2108 35.2586 42.1466 35.3067L25.1041 44.9125C25.0099 44.9669 24.9031 44.9955 24.7943 44.9955C24.6855 44.9955 24.5786 44.9669 24.4844 44.9125L20.1463 42.4336C20.0895 42.3827 20.016 42.3547 19.9397 42.3547C19.8635 42.3547 19.79 42.3827 19.7332 42.4336L17.151 43.5697C16.8411 43.673 16.428 43.7763 17.2543 44.2927L23.0384 47.4947C23.5601 47.8368 24.1704 48.0191 24.7943 48.0191C25.4182 48.0191 26.0285 47.8368 26.5502 47.4947L43.6959 37.8889C44.2231 37.5846 44.6621 37.1485 44.97 36.6234C45.2778 36.0983 45.4438 35.5022 45.4518 34.8936V15.682C45.4438 15.0734 45.2778 14.4773 44.97 13.9522C44.6621 13.4271 44.2231 12.991 43.6959 12.6867Z" fill="black"/>
<path d="M30.0524 31.7939C25.5078 31.7939 24.5782 30.7611 24.165 28.592C24.165 28.4825 24.1215 28.3774 24.044 28.2999C23.9665 28.2224 23.8615 28.1789 23.7519 28.1789H21.4796C21.37 28.1789 21.2649 28.2224 21.1874 28.2999C21.1099 28.3774 21.0664 28.4825 21.0664 28.592C21.0664 31.3808 22.6157 34.7893 30.0524 34.7893C35.4234 34.7893 38.522 32.7235 38.522 29.1085C38.522 25.4934 36.0431 24.4605 30.7755 23.8408C25.5078 23.2211 24.9913 22.8079 24.9913 21.5685C24.9913 20.329 25.4045 19.2961 29.3294 19.2961C33.2544 19.2961 34.184 20.0191 34.7004 22.2915C34.7245 22.4099 34.7894 22.5161 34.8838 22.5916C34.9782 22.667 35.096 22.7071 35.2168 22.7046H37.3859L37.799 22.498C37.8364 22.4561 37.8648 22.407 37.8826 22.3538C37.9003 22.3005 37.9071 22.2441 37.9023 22.1882C37.5924 18.16 34.8037 16.3008 29.3294 16.3008C23.8552 16.3008 21.5828 18.3665 21.5828 21.6717C21.5828 24.977 24.4749 26.3197 29.1229 26.8361C33.7708 27.3526 35.2168 28.0756 35.2168 29.2118C35.2168 30.3479 33.6675 31.7939 30.0524 31.7939Z" fill="black"/>
</g>
</g>
<defs>
<clipPath id="clip0_918_4002">
<rect width="49.5781" height="49.5781" fill="white" transform="translate(0.00390625 0.5)"/>
</clipPath>
<clipPath id="clip1_918_4002">
<rect width="49.5781" height="49.5781" fill="white" transform="translate(0.00390625 0.5)"/>
</clipPath>
</defs>
</svg>
