<svg width="32" height="33" viewBox="0 0 32 33" fill="none" xmlns="http://www.w3.org/2000/svg">
<mask id="mask0_999_3356" style="mask-type:alpha" maskUnits="userSpaceOnUse" x="0" y="0" width="32" height="33">
<g clip-path="url(#clip0_999_3356)">
<path d="M15.9783 28.42C12.6889 28.42 9.90597 27.9136 7.62952 26.9006C5.35307 25.8876 4.21484 24.6514 4.21484 23.1918V10.1213C4.21484 8.68352 5.36396 7.45271 7.6622 6.42885C9.96044 5.405 12.7325 4.89307 15.9783 4.89307C19.2242 4.89307 21.9962 5.405 24.2945 6.42885C26.5927 7.45271 27.7418 8.68352 27.7418 10.1213V23.1918C27.7418 24.6514 26.6036 25.8876 24.3271 26.9006C22.0507 27.9136 19.2677 28.42 15.9783 28.42ZM15.9783 12.572C17.8736 12.572 19.8051 12.287 21.7728 11.7169C23.7408 11.147 24.9535 10.5171 25.411 9.8272C24.9389 9.15188 23.7208 8.52374 21.7565 7.94275C19.7924 7.36198 17.8664 7.0716 15.9783 7.0716C14.0395 7.0716 12.1062 7.35294 10.1783 7.91563C8.25037 8.47832 7.03231 9.1155 6.52408 9.8272C7.03231 10.5533 8.24307 11.1923 10.1564 11.7443C12.0699 12.2961 14.0106 12.572 15.9783 12.572ZM15.9564 19.4014C16.8714 19.4014 17.7754 19.3542 18.6686 19.2599C19.5617 19.1653 20.4168 19.0255 21.2337 18.8403C22.0506 18.6551 22.8276 18.4283 23.5648 18.1597C24.3018 17.8911 24.9679 17.5897 25.5633 17.2555V12.572C24.9533 12.906 24.2799 13.2073 23.5429 13.4762C22.8059 13.7448 22.0253 13.9716 21.201 14.1568C20.3769 14.342 19.5256 14.4854 18.647 14.5872C17.7682 14.6887 16.8714 14.7394 15.9564 14.7394C15.0415 14.7394 14.1339 14.6887 13.2335 14.5872C12.3332 14.4854 11.4745 14.342 10.6576 14.1568C9.84073 13.9716 9.06913 13.7448 8.34285 13.4762C7.61678 13.2073 6.96695 12.906 6.39338 12.572V17.2555C6.96695 17.5897 7.61318 17.8911 8.33206 18.1597C9.05094 18.4283 9.81884 18.6551 10.6357 18.8403C11.4527 19.0255 12.3113 19.1653 13.2116 19.2599C14.1122 19.3542 15.0271 19.4014 15.9564 19.4014ZM15.9783 26.2415C17.0094 26.2415 18.0678 26.1544 19.1535 25.9801C20.239 25.8058 21.2356 25.5753 22.1434 25.2887C23.0509 25.0018 23.8169 24.6822 24.4415 24.3299C25.0661 23.9779 25.44 23.6167 25.5633 23.2464V19.4559C24.9679 19.7899 24.3018 20.0876 23.5648 20.349C22.8276 20.6104 22.0506 20.8337 21.2337 21.0188C20.4168 21.204 19.5654 21.3438 18.6797 21.4381C17.7937 21.5326 16.886 21.5799 15.9564 21.5799C15.0271 21.5799 14.1122 21.5326 13.2116 21.4381C12.3113 21.3438 11.4527 21.204 10.6357 21.0188C9.81884 20.8337 9.05094 20.6104 8.33206 20.349C7.61318 20.0876 6.96695 19.7899 6.39338 19.4559V23.2791C6.5023 23.6348 6.86348 23.9905 7.47692 24.3463C8.09059 24.7022 8.85489 25.02 9.76982 25.2994C10.6848 25.5789 11.6868 25.8058 12.776 25.9801C13.8653 26.1544 14.9327 26.2415 15.9783 26.2415Z" fill="#E8EAED"/>
</g>
</mask>
<g mask="url(#mask0_999_3356)">
<rect x="0.292969" y="0.971191" width="31.3693" height="31.3693" fill="#192020"/>
</g>
<defs>
<clipPath id="clip0_999_3356">
<rect width="31.3693" height="31.3693" fill="white" transform="translate(0.292969 0.971191)"/>
</clipPath>
</defs>
</svg>
