<svg width="15" height="16" viewBox="0 0 15 16" fill="none" xmlns="http://www.w3.org/2000/svg">
<g clip-path="url(#clip0_918_3939)">
<g clip-path="url(#clip1_918_3939)">
<path d="M3.32917 9.67104L2.1073 8.7975C2.07169 8.7746 2.041 8.74484 2.01701 8.70994C1.99241 8.67415 1.97538 8.6337 1.96697 8.59109C1.95856 8.54848 1.95895 8.5046 1.96812 8.46214C1.97728 8.41968 1.99503 8.37955 2.02026 8.3442C2.0455 8.30884 2.07769 8.27902 2.11487 8.25656C2.15204 8.2341 2.19342 8.21948 2.23645 8.21359C2.27948 8.20769 2.32327 8.21066 2.36511 8.2223C2.40592 8.23365 2.44405 8.25302 2.47727 8.27926L3.06431 8.69811C2.94377 7.99513 2.97153 7.27371 3.14693 6.58044C3.34315 5.80492 3.71864 5.08628 4.24321 4.48233C4.76778 3.87838 5.42677 3.40598 6.16719 3.10313C6.9076 2.80028 7.70876 2.67543 8.50621 2.73864C9.30366 2.80184 10.0752 3.05133 10.7586 3.46704C11.4421 3.88274 12.0184 4.45305 12.4413 5.1321C12.8642 5.81114 13.1218 6.57996 13.1934 7.3767C13.265 8.17344 13.1486 8.97587 12.8536 9.71943C12.83 9.77874 12.789 9.82971 12.7362 9.86551C12.6833 9.90132 12.6209 9.92043 12.5571 9.92036C12.5168 9.92046 12.477 9.91289 12.4395 9.89805C12.4005 9.88259 12.3649 9.85956 12.3348 9.83036C12.3048 9.80116 12.2808 9.76632 12.2642 9.72783C12.2476 9.68934 12.2388 9.64796 12.2382 9.60606C12.2376 9.56415 12.2453 9.52255 12.2609 9.48363M3.32917 9.67104L12.3537 9.52068L3.32917 9.67104ZM3.32917 9.67104C3.36328 9.69533 3.40184 9.71266 3.44265 9.72204L3.32917 9.67104ZM3.32917 9.67104L3.44265 9.72204L3.32917 9.67104ZM12.2609 9.48363L12.3537 9.52068L12.2609 9.48363ZM12.2609 9.48363C12.2608 9.48368 12.2609 9.48357 12.2609 9.48363L12.3537 9.52068L12.2609 9.48363ZM12.2609 9.48363C12.5195 8.83195 12.6213 8.12863 12.5581 7.43037C12.4949 6.73206 12.2685 6.05837 11.8971 5.46364C11.5258 4.86892 11.0198 4.3698 10.4201 4.00656C9.8203 3.64332 9.14359 3.42612 8.44448 3.37248C7.74537 3.31885 7.04344 3.43028 6.39531 3.69778C5.74718 3.96529 5.171 4.38138 4.71323 4.91249C4.25547 5.44361 3.92894 6.07488 3.75999 6.75538C3.60936 7.36213 3.58775 7.99288 3.69555 8.60699M12.3537 9.52068C12.6182 8.85439 12.7223 8.13529 12.6577 7.42137C12.5931 6.70745 12.3617 6.0187 11.982 5.41068C11.6023 4.80266 11.085 4.29239 10.4719 3.92103C9.8587 3.54967 9.16686 3.32761 8.45213 3.27278C7.73739 3.21794 7.01977 3.33186 6.35716 3.60535C5.69454 3.87883 5.10548 4.30422 4.63749 4.84721C4.16949 5.39019 3.83567 6.03557 3.66294 6.73129C3.50111 7.38313 3.48494 8.06206 3.61489 8.71988L3.69555 8.60699M3.69555 8.60699L4.12823 8.0014L3.69555 8.60699ZM3.69555 8.60699C3.7035 8.6523 3.71216 8.69752 3.72153 8.74264L4.20967 8.05943C4.22641 8.03594 4.2476 8.01598 4.27205 8.00069C4.29649 7.9854 4.32371 7.97507 4.35215 7.9703C4.38059 7.96552 4.40969 7.9664 4.43779 7.97287C4.46589 7.97934 4.49244 7.99129 4.51592 8.00802C4.53941 8.02475 4.55936 8.04595 4.57466 8.07039C4.58995 8.09484 4.60028 8.12206 4.60505 8.1505C4.60983 8.17894 4.60895 8.20804 4.60248 8.23614C4.59601 8.26424 4.58406 8.29079 4.56733 8.31427L4.12823 8.0014M3.44265 9.72204C3.48346 9.73143 3.52572 9.73267 3.56701 9.72572L3.44265 9.72204ZM3.44265 9.72204L3.56701 9.72572L3.44265 9.72204ZM3.56701 9.72572C3.60831 9.71876 3.64783 9.70374 3.68331 9.6815L3.56701 9.72572ZM3.56701 9.72572L3.68331 9.6815L3.56701 9.72572ZM3.68331 9.6815C3.71876 9.65929 3.7495 9.63031 3.77376 9.59622L3.68331 9.6815ZM3.68331 9.6815L3.77376 9.59622L3.68331 9.6815ZM3.77376 9.59622C3.77374 9.59625 3.77378 9.59619 3.77376 9.59622V9.59622Z" fill="white"/>
<path d="M3.32917 9.67104L2.1073 8.7975C2.07169 8.7746 2.041 8.74484 2.01701 8.70994C1.99241 8.67415 1.97538 8.6337 1.96697 8.59109C1.95856 8.54848 1.95895 8.5046 1.96812 8.46214C1.97728 8.41968 1.99503 8.37955 2.02026 8.3442C2.0455 8.30884 2.07769 8.27902 2.11487 8.25656C2.15204 8.2341 2.19342 8.21948 2.23645 8.21359C2.27948 8.20769 2.32327 8.21066 2.36511 8.2223C2.40592 8.23365 2.44405 8.25302 2.47727 8.27926L3.06431 8.69811C2.94377 7.99513 2.97153 7.27371 3.14693 6.58044C3.34315 5.80492 3.71864 5.08628 4.24321 4.48233C4.76778 3.87838 5.42677 3.40598 6.16719 3.10313C6.9076 2.80028 7.70876 2.67543 8.50621 2.73864C9.30366 2.80184 10.0752 3.05133 10.7586 3.46704C11.4421 3.88274 12.0184 4.45305 12.4413 5.1321C12.8642 5.81114 13.1218 6.57996 13.1934 7.3767C13.265 8.17344 13.1486 8.97587 12.8536 9.71943C12.83 9.77874 12.789 9.82971 12.7362 9.86551C12.6833 9.90132 12.6209 9.92043 12.5571 9.92036M3.32917 9.67104L12.3537 9.52068M3.32917 9.67104C3.36328 9.69533 3.40184 9.71266 3.44265 9.72204M3.32917 9.67104L3.44265 9.72204M12.5571 9.92036L12.5572 9.82036M12.5571 9.92036C12.5168 9.92046 12.477 9.91289 12.4395 9.89805C12.4005 9.88259 12.3649 9.85956 12.3348 9.83036C12.3048 9.80116 12.2808 9.76632 12.2642 9.72783C12.2476 9.68934 12.2388 9.64796 12.2382 9.60606C12.2376 9.56415 12.2453 9.52255 12.2609 9.48363M12.2609 9.48363L12.3537 9.52068M12.2609 9.48363C12.2608 9.48368 12.2609 9.48357 12.2609 9.48363ZM12.2609 9.48363C12.5195 8.83195 12.6213 8.12863 12.5581 7.43037C12.4949 6.73206 12.2685 6.05837 11.8971 5.46364C11.5258 4.86892 11.0198 4.3698 10.4201 4.00656C9.8203 3.64332 9.14359 3.42612 8.44448 3.37248C7.74537 3.31885 7.04344 3.43028 6.39531 3.69778C5.74718 3.96529 5.171 4.38138 4.71323 4.91249C4.25547 5.44361 3.92894 6.07488 3.75999 6.75538C3.60936 7.36213 3.58775 7.99288 3.69555 8.60699M12.3537 9.52068C12.6182 8.85439 12.7223 8.13529 12.6577 7.42137C12.5931 6.70745 12.3617 6.0187 11.982 5.41068C11.6023 4.80266 11.085 4.29239 10.4719 3.92103C9.8587 3.54967 9.16686 3.32761 8.45213 3.27278C7.73739 3.21794 7.01977 3.33186 6.35716 3.60535C5.69454 3.87883 5.10548 4.30422 4.63749 4.84721C4.16949 5.39019 3.83567 6.03557 3.66294 6.73129C3.50111 7.38313 3.48494 8.06206 3.61489 8.71988L3.69555 8.60699M3.44265 9.72204C3.48346 9.73143 3.52572 9.73267 3.56701 9.72572M3.44265 9.72204L3.56701 9.72572M3.69555 8.60699L4.12823 8.0014M3.69555 8.60699C3.7035 8.6523 3.71216 8.69752 3.72153 8.74264L4.20967 8.05943M4.12823 8.0014L4.56733 8.31427C4.58406 8.29079 4.59601 8.26424 4.60248 8.23614C4.60895 8.20804 4.60983 8.17894 4.60505 8.1505C4.60028 8.12206 4.58995 8.09484 4.57466 8.07039C4.55936 8.04595 4.53941 8.02475 4.51592 8.00802C4.49244 7.99129 4.46589 7.97934 4.43779 7.97287C4.40969 7.9664 4.38059 7.96552 4.35215 7.9703C4.32371 7.97507 4.29649 7.9854 4.27205 8.00069C4.2476 8.01598 4.22641 8.03594 4.20967 8.05943M4.12823 8.0014L4.20967 8.05943M3.56701 9.72572C3.60831 9.71876 3.64783 9.70374 3.68331 9.6815M3.56701 9.72572L3.68331 9.6815M3.68331 9.6815C3.71876 9.65929 3.7495 9.63031 3.77376 9.59622M3.68331 9.6815L3.77376 9.59622M3.77376 9.59622C3.77378 9.59619 3.77374 9.59625 3.77376 9.59622Z" stroke="white" stroke-width="0.2"/>
<path d="M13.2685 10.615C12.831 10.0977 12.1135 10.335 11.7264 10.4619C11.4814 10.5428 10.894 10.79 10.3154 11.035C10.3503 10.8501 10.3266 10.6589 10.2476 10.4881C9.93475 9.77391 9.16256 9.91062 8.59818 10.0113C8.42404 10.0491 8.24689 10.0714 8.06881 10.078C7.76713 10.0746 7.46935 10.0094 7.19381 9.88656C6.83597 9.73259 6.44902 9.65796 6.05959 9.66781C5.31395 9.68161 4.5788 9.84606 3.89834 10.1513L3.77584 10.2016C2.75975 10.6063 2.32225 10.6981 2.32225 10.6981C2.28154 10.7062 2.24399 10.7258 2.21397 10.7544C2.18395 10.7831 2.16271 10.8197 2.15272 10.86C2.14506 10.8917 1.97334 11.6256 2.46006 12.657C2.87787 13.532 3.36678 13.8678 3.70256 13.9892C3.73741 14.0017 3.77485 14.0051 3.81139 13.9992C3.84792 13.9933 3.88236 13.9782 3.91147 13.9553C3.91147 13.9553 4.186 13.7366 4.396 13.6141C4.5349 13.5298 4.87287 13.4762 5.69975 13.7059C6.46478 13.9095 7.25114 14.0222 8.04256 14.0417C8.35075 14.0518 8.65843 14.0096 8.95256 13.917C9.81553 13.5889 11.9156 12.4952 12.7414 12.0467C13.1789 11.8083 13.4173 11.5512 13.472 11.2603C13.4898 11.1444 13.4807 11.0259 13.4454 10.914C13.4101 10.8021 13.3496 10.6998 13.2685 10.615ZM13.041 11.1805C13.0137 11.3281 12.8321 11.4998 12.5314 11.6639C11.8379 12.0434 9.65693 13.1864 8.79834 13.5091C8.19568 13.7344 6.67865 13.5244 5.81678 13.2903C5.47242 13.1822 5.11537 13.1197 4.75475 13.1044C4.5502 13.0945 4.34691 13.1414 4.1674 13.24C4.01975 13.3297 3.85131 13.4522 3.74522 13.5309C3.41709 13.3669 3.10537 12.995 2.8549 12.4678C2.63865 12.0411 2.5376 11.5653 2.56178 11.0875C3.02935 10.951 3.48905 10.7889 3.93881 10.6019L4.06459 10.5505C4.69488 10.2657 5.37681 10.1131 6.06834 10.102C6.40247 10.0934 6.73432 10.1595 7.03959 10.2956C7.3618 10.4369 7.70934 10.5113 8.06115 10.5144C8.26744 10.508 8.47276 10.4835 8.67475 10.4411C9.2774 10.3317 9.68428 10.2913 9.84615 10.6598C9.87378 10.7166 9.88949 10.7783 9.89231 10.8414C9.89514 10.9044 9.88501 10.9673 9.86256 11.0262C9.80131 11.1772 9.64381 11.315 9.39662 11.4266C9.17787 11.5184 9.01381 11.5895 8.94162 11.618C8.47787 11.7995 8.07865 11.7361 7.69256 11.6748L7.48037 11.642C7.42236 11.6342 7.36361 11.6497 7.31704 11.6852C7.27048 11.7207 7.23992 11.7732 7.23209 11.8312C7.22426 11.8893 7.23979 11.948 7.27528 11.9946C7.31077 12.0411 7.36329 12.0717 7.42131 12.0795C7.48803 12.0883 7.55584 12.0992 7.62365 12.1102C8.04694 12.1769 8.526 12.2523 9.10131 12.0281C9.16803 12.0019 9.30147 11.9461 9.47865 11.8695C9.51147 11.8564 9.54319 11.8433 9.57381 11.8291L9.856 11.7087C10.5681 11.4025 11.5437 10.9825 11.8642 10.8775C12.3728 10.7102 12.7293 10.6588 12.9339 10.8972C13.0662 11.0525 13.0476 11.1487 13.041 11.1805ZM7.90037 5.20312V5.49297C7.82453 5.51024 7.75107 5.53668 7.68162 5.57172C7.57019 5.62783 7.47606 5.71309 7.40922 5.81844C7.34239 5.92379 7.30537 6.04528 7.30209 6.17C7.28678 6.65015 7.71881 6.81094 8.03381 6.92797C8.40131 7.06469 8.51287 7.13469 8.49647 7.30969C8.49315 7.36924 8.47226 7.42648 8.43644 7.47416C8.40062 7.52185 8.35148 7.55787 8.29522 7.57765C8.18994 7.61783 8.07696 7.63377 7.96468 7.6243C7.8524 7.61484 7.74369 7.5802 7.64662 7.52297C7.624 7.50516 7.59809 7.49198 7.57038 7.48418C7.54266 7.47638 7.51368 7.47412 7.48509 7.47752C7.4565 7.48092 7.42886 7.48992 7.40375 7.50401C7.37863 7.5181 7.35654 7.537 7.33873 7.55962C7.32092 7.58224 7.30774 7.60814 7.29994 7.63585C7.29215 7.66357 7.28988 7.69255 7.29329 7.72114C7.29669 7.74973 7.30569 7.77737 7.31977 7.80248C7.33386 7.82761 7.35275 7.84969 7.37537 7.86751C7.52942 7.97808 7.7112 8.0436 7.90037 8.05673V8.31812C7.90037 8.37614 7.92342 8.43179 7.96444 8.47281C8.00547 8.51383 8.06111 8.53687 8.11912 8.53687C8.17714 8.53687 8.23278 8.51383 8.2738 8.47281C8.31483 8.43179 8.33787 8.37614 8.33787 8.31812V8.0239C8.38363 8.01229 8.42857 7.99768 8.4724 7.98015C8.60085 7.92946 8.71249 7.84374 8.79466 7.73276C8.87683 7.62179 8.92623 7.49 8.93725 7.35234C8.98975 6.81422 8.50959 6.63595 8.1924 6.51782C7.85225 6.39204 7.73959 6.32641 7.74397 6.18423C7.7451 6.13635 7.75964 6.08975 7.78593 6.04973C7.81223 6.00971 7.84922 5.97785 7.89272 5.95781C7.99361 5.91404 8.1038 5.89604 8.21339 5.90539C8.32297 5.91475 8.42851 5.95117 8.52053 6.0114C8.54488 6.02763 8.57223 6.03881 8.60098 6.04428C8.62973 6.04975 8.65928 6.04939 8.68788 6.04324C8.71649 6.03708 8.74357 6.02524 8.76752 6.00843C8.79147 5.99162 8.81181 5.97018 8.82732 5.94537C8.84284 5.92056 8.85322 5.8929 8.85785 5.86401C8.86248 5.83511 8.86126 5.80558 8.85428 5.77716C8.84729 5.74875 8.83468 5.72203 8.81718 5.69858C8.79968 5.67511 8.77765 5.65541 8.7524 5.64062C8.62573 5.56156 8.48497 5.50771 8.33787 5.48203V5.20312C8.33787 5.14512 8.31483 5.08947 8.2738 5.04844C8.23278 5.00742 8.17714 4.98438 8.11912 4.98438C8.06111 4.98438 8.00547 5.00742 7.96444 5.04844C7.92342 5.08947 7.90037 5.14512 7.90037 5.20312Z" fill="white"/>
<mask id="mask0_918_3939" style="mask-type:luminance" maskUnits="userSpaceOnUse" x="1" y="3" width="14" height="12">
<path d="M14.1172 3.98438H1.11719V14.9844H14.1172V3.98438Z" fill="white"/>
<path d="M13.2685 10.615C12.831 10.0977 12.1135 10.335 11.7264 10.4619C11.4814 10.5428 10.894 10.79 10.3154 11.035C10.3503 10.8501 10.3266 10.6589 10.2476 10.4881C9.93475 9.77391 9.16256 9.91062 8.59818 10.0113C8.42404 10.0491 8.24689 10.0714 8.06881 10.078C7.76713 10.0746 7.46935 10.0094 7.19381 9.88656C6.83597 9.73259 6.44902 9.65796 6.05959 9.66781C5.31395 9.68161 4.5788 9.84606 3.89834 10.1513L3.77584 10.2016C2.75975 10.6063 2.32225 10.6981 2.32225 10.6981C2.28154 10.7062 2.24399 10.7258 2.21397 10.7544C2.18395 10.7831 2.16271 10.8197 2.15272 10.86C2.14506 10.8917 1.97334 11.6256 2.46006 12.657C2.87787 13.532 3.36678 13.8678 3.70256 13.9892C3.73741 14.0017 3.77485 14.0051 3.81139 13.9992C3.84792 13.9933 3.88236 13.9782 3.91147 13.9553C3.91147 13.9553 4.186 13.7366 4.396 13.6141C4.5349 13.5298 4.87287 13.4762 5.69975 13.7059C6.46478 13.9095 7.25114 14.0222 8.04256 14.0417C8.35075 14.0518 8.65843 14.0096 8.95256 13.917C9.81553 13.5889 11.9156 12.4952 12.7414 12.0467C13.1789 11.8083 13.4173 11.5512 13.472 11.2603C13.4898 11.1444 13.4807 11.0259 13.4454 10.914C13.4101 10.8021 13.3496 10.6998 13.2685 10.615ZM13.041 11.1805C13.0137 11.3281 12.8321 11.4998 12.5314 11.6639C11.8379 12.0434 9.65693 13.1864 8.79834 13.5091C8.19568 13.7344 6.67865 13.5244 5.81678 13.2903C5.47242 13.1822 5.11537 13.1197 4.75475 13.1044C4.5502 13.0945 4.34691 13.1414 4.1674 13.24C4.01975 13.3297 3.85131 13.4522 3.74522 13.5309C3.41709 13.3669 3.10537 12.995 2.8549 12.4678C2.63865 12.0411 2.5376 11.5653 2.56178 11.0875C3.02935 10.951 3.48905 10.7889 3.93881 10.6019L4.06459 10.5505C4.69488 10.2657 5.37681 10.1131 6.06834 10.102C6.40247 10.0934 6.73432 10.1595 7.03959 10.2956C7.3618 10.4369 7.70934 10.5113 8.06115 10.5144C8.26744 10.508 8.47276 10.4835 8.67475 10.4411C9.2774 10.3317 9.68428 10.2913 9.84615 10.6598C9.87378 10.7166 9.88949 10.7783 9.89231 10.8414C9.89514 10.9044 9.88501 10.9673 9.86256 11.0262C9.80131 11.1772 9.64381 11.315 9.39662 11.4266C9.17787 11.5184 9.01381 11.5895 8.94162 11.618C8.47787 11.7995 8.07865 11.7361 7.69256 11.6748L7.48037 11.642C7.42236 11.6342 7.36361 11.6497 7.31704 11.6852C7.27048 11.7207 7.23992 11.7732 7.23209 11.8312C7.22426 11.8893 7.23979 11.948 7.27528 11.9946C7.31077 12.0411 7.36329 12.0717 7.42131 12.0795C7.48803 12.0883 7.55584 12.0992 7.62365 12.1102C8.04694 12.1769 8.526 12.2523 9.10131 12.0281C9.16803 12.0019 9.30147 11.9461 9.47865 11.8695C9.51147 11.8564 9.54319 11.8433 9.57381 11.8291L9.856 11.7087C10.5681 11.4025 11.5437 10.9825 11.8642 10.8775C12.3728 10.7102 12.7293 10.6588 12.9339 10.8972C13.0662 11.0525 13.0476 11.1487 13.041 11.1805ZM7.90037 5.20312V5.49297C7.82453 5.51024 7.75107 5.53668 7.68162 5.57172C7.57019 5.62783 7.47606 5.71309 7.40922 5.81844C7.34239 5.92379 7.30537 6.04528 7.30209 6.17C7.28678 6.65015 7.71881 6.81094 8.03381 6.92797C8.40131 7.06469 8.51287 7.13469 8.49647 7.30969C8.49315 7.36924 8.47226 7.42648 8.43644 7.47416C8.40062 7.52185 8.35148 7.55787 8.29522 7.57765C8.18994 7.61783 8.07696 7.63377 7.96468 7.6243C7.8524 7.61484 7.74369 7.5802 7.64662 7.52297C7.624 7.50516 7.59809 7.49198 7.57038 7.48418C7.54266 7.47638 7.51368 7.47412 7.48509 7.47752C7.4565 7.48092 7.42886 7.48992 7.40375 7.50401C7.37863 7.5181 7.35654 7.537 7.33873 7.55962C7.32092 7.58224 7.30774 7.60814 7.29994 7.63585C7.29215 7.66357 7.28988 7.69255 7.29329 7.72114C7.29669 7.74973 7.30569 7.77737 7.31977 7.80248C7.33386 7.82761 7.35275 7.84969 7.37537 7.86751C7.52942 7.97808 7.7112 8.0436 7.90037 8.05673V8.31812C7.90037 8.37614 7.92342 8.43179 7.96444 8.47281C8.00547 8.51383 8.06111 8.53687 8.11912 8.53687C8.17714 8.53687 8.23278 8.51383 8.2738 8.47281C8.31483 8.43179 8.33787 8.37614 8.33787 8.31812V8.0239C8.38363 8.01229 8.42857 7.99768 8.4724 7.98015C8.60085 7.92946 8.71249 7.84374 8.79466 7.73276C8.87683 7.62179 8.92623 7.49 8.93725 7.35234C8.98975 6.81422 8.50959 6.63595 8.1924 6.51782C7.85225 6.39204 7.73959 6.32641 7.74397 6.18423C7.7451 6.13635 7.75964 6.08975 7.78593 6.04973C7.81223 6.00971 7.84922 5.97785 7.89272 5.95781C7.99361 5.91404 8.1038 5.89604 8.21339 5.90539C8.32297 5.91475 8.42851 5.95117 8.52053 6.0114C8.54488 6.02763 8.57223 6.03881 8.60098 6.04428C8.62973 6.04975 8.65928 6.04939 8.68788 6.04324C8.71649 6.03708 8.74357 6.02524 8.76752 6.00843C8.79147 5.99162 8.81181 5.97018 8.82732 5.94537C8.84284 5.92056 8.85322 5.8929 8.85785 5.86401C8.86248 5.83511 8.86126 5.80558 8.85428 5.77716C8.84729 5.74875 8.83468 5.72203 8.81718 5.69858C8.79968 5.67511 8.77765 5.65541 8.7524 5.64062C8.62573 5.56156 8.48497 5.50771 8.33787 5.48203V5.20312C8.33787 5.14512 8.31483 5.08947 8.2738 5.04844C8.23278 5.00742 8.17714 4.98438 8.11912 4.98438C8.06111 4.98438 8.00547 5.00742 7.96444 5.04844C7.92342 5.08947 7.90037 5.14512 7.90037 5.20312Z" fill="black"/>
</mask>
<g mask="url(#mask0_918_3939)">
<path d="M13.2685 10.615C12.831 10.0977 12.1135 10.335 11.7264 10.4619C11.4814 10.5428 10.894 10.79 10.3154 11.035C10.3503 10.8501 10.3266 10.6589 10.2476 10.4881C9.93475 9.77391 9.16256 9.91062 8.59818 10.0113C8.42404 10.0491 8.24689 10.0714 8.06881 10.078C7.76713 10.0746 7.46935 10.0094 7.19381 9.88656C6.83597 9.73259 6.44902 9.65796 6.05959 9.66781C5.31395 9.68161 4.5788 9.84606 3.89834 10.1513L3.77584 10.2016C2.75975 10.6063 2.32225 10.6981 2.32225 10.6981C2.28154 10.7062 2.24399 10.7258 2.21397 10.7544C2.18395 10.7831 2.16271 10.8197 2.15272 10.86C2.14506 10.8917 1.97334 11.6256 2.46006 12.657C2.87787 13.532 3.36678 13.8678 3.70256 13.9892C3.73741 14.0017 3.77485 14.0051 3.81139 13.9992C3.84792 13.9933 3.88236 13.9782 3.91147 13.9553C3.91147 13.9553 4.186 13.7366 4.396 13.6141C4.5349 13.5298 4.87287 13.4762 5.69975 13.7059C6.46478 13.9095 7.25114 14.0222 8.04256 14.0417C8.35075 14.0518 8.65843 14.0096 8.95256 13.917C9.81553 13.5889 11.9156 12.4952 12.7414 12.0467C13.1789 11.8083 13.4173 11.5512 13.472 11.2603C13.4898 11.1444 13.4807 11.0259 13.4454 10.914C13.4101 10.8021 13.3496 10.6998 13.2685 10.615ZM13.041 11.1805C13.0137 11.3281 12.8321 11.4998 12.5314 11.6639C11.8379 12.0434 9.65693 13.1864 8.79834 13.5091C8.19568 13.7344 6.67865 13.5244 5.81678 13.2903C5.47242 13.1822 5.11537 13.1197 4.75475 13.1044C4.5502 13.0945 4.34691 13.1414 4.1674 13.24C4.01975 13.3297 3.85131 13.4522 3.74522 13.5309C3.41709 13.3669 3.10537 12.995 2.8549 12.4678C2.63865 12.0411 2.5376 11.5653 2.56178 11.0875C3.02935 10.951 3.48905 10.7889 3.93881 10.6019L4.06459 10.5505C4.69488 10.2657 5.37681 10.1131 6.06834 10.102C6.40247 10.0934 6.73432 10.1595 7.03959 10.2956C7.3618 10.4369 7.70934 10.5113 8.06115 10.5144C8.26744 10.508 8.47276 10.4835 8.67475 10.4411C9.2774 10.3317 9.68428 10.2913 9.84615 10.6598C9.87378 10.7166 9.88949 10.7783 9.89231 10.8414C9.89514 10.9044 9.88501 10.9673 9.86256 11.0262C9.80131 11.1772 9.64381 11.315 9.39662 11.4266C9.17787 11.5184 9.01381 11.5895 8.94162 11.618C8.47787 11.7995 8.07865 11.7361 7.69256 11.6748L7.48037 11.642C7.42236 11.6342 7.36361 11.6497 7.31704 11.6852C7.27048 11.7207 7.23992 11.7732 7.23209 11.8312C7.22426 11.8893 7.23979 11.948 7.27528 11.9946C7.31077 12.0411 7.36329 12.0717 7.42131 12.0795C7.48803 12.0883 7.55584 12.0992 7.62365 12.1102C8.04694 12.1769 8.526 12.2523 9.10131 12.0281C9.16803 12.0019 9.30147 11.9461 9.47865 11.8695C9.51147 11.8564 9.54319 11.8433 9.57381 11.8291L9.856 11.7087C10.5681 11.4025 11.5437 10.9825 11.8642 10.8775C12.3728 10.7102 12.7293 10.6588 12.9339 10.8972C13.0662 11.0525 13.0476 11.1487 13.041 11.1805ZM7.90037 5.20312V5.49297C7.82453 5.51024 7.75107 5.53668 7.68162 5.57172C7.57019 5.62783 7.47606 5.71309 7.40922 5.81844C7.34239 5.92379 7.30537 6.04528 7.30209 6.17C7.28678 6.65015 7.71881 6.81094 8.03381 6.92797C8.40131 7.06469 8.51287 7.13469 8.49647 7.30969C8.49315 7.36924 8.47226 7.42647 8.43644 7.47416C8.40062 7.52185 8.35148 7.55787 8.29522 7.57765C8.18994 7.61783 8.07696 7.63377 7.96468 7.6243C7.8524 7.61484 7.74369 7.5802 7.64662 7.52297C7.624 7.50516 7.59809 7.49198 7.57038 7.48418C7.54266 7.47638 7.51368 7.47412 7.48509 7.47752C7.4565 7.48092 7.42886 7.48992 7.40375 7.50401C7.37863 7.51809 7.35654 7.537 7.33873 7.55962C7.32092 7.58224 7.30774 7.60814 7.29994 7.63585C7.29215 7.66357 7.28988 7.69255 7.29329 7.72114C7.29669 7.74973 7.30569 7.77737 7.31977 7.80248C7.33386 7.8276 7.35275 7.8497 7.37537 7.86751C7.52942 7.97808 7.7112 8.0436 7.90037 8.05673V8.31812C7.90037 8.37614 7.92342 8.43179 7.96444 8.47281C8.00547 8.51384 8.06111 8.53687 8.11912 8.53687C8.17714 8.53687 8.23278 8.51384 8.2738 8.47281C8.31483 8.43179 8.33787 8.37614 8.33787 8.31812V8.0239C8.38363 8.01229 8.42857 7.99768 8.4724 7.98015C8.60085 7.92945 8.71249 7.84374 8.79466 7.73276C8.87683 7.62179 8.92623 7.48999 8.93725 7.35234C8.98975 6.81423 8.50959 6.63595 8.1924 6.51782C7.85225 6.39204 7.73959 6.32641 7.74397 6.18423C7.7451 6.13635 7.75964 6.08975 7.78593 6.04973C7.81223 6.00971 7.84922 5.97785 7.89272 5.95781C7.99361 5.91404 8.1038 5.89604 8.21339 5.90539C8.32297 5.91475 8.42851 5.95117 8.52053 6.0114C8.54488 6.02763 8.57223 6.03881 8.60098 6.04428C8.62973 6.04975 8.65928 6.04939 8.68788 6.04324C8.71649 6.03708 8.74357 6.02524 8.76752 6.00843C8.79147 5.99162 8.81181 5.97018 8.82732 5.94537C8.84284 5.92056 8.85322 5.8929 8.85785 5.86401C8.86248 5.83511 8.86126 5.80558 8.85428 5.77716C8.84729 5.74875 8.83468 5.72203 8.81718 5.69858C8.79968 5.67512 8.77765 5.65542 8.7524 5.64062C8.62573 5.56156 8.48497 5.50771 8.33787 5.48203V5.20312C8.33787 5.14511 8.31483 5.08947 8.2738 5.04844C8.23278 5.00742 8.17714 4.98438 8.11912 4.98438C8.06111 4.98438 8.00547 5.00742 7.96444 5.04844C7.92342 5.08947 7.90037 5.14511 7.90037 5.20312Z" stroke="white" stroke-width="0.4"/>
</g>
<path d="M5.39062 6.76016C5.39062 7.29911 5.55044 7.82597 5.84986 8.27409C6.14929 8.72221 6.57488 9.07148 7.07281 9.27773C7.57073 9.48398 8.11865 9.53794 8.64725 9.4328C9.17585 9.32766 9.6614 9.06812 10.0425 8.68703C10.4236 8.30593 10.6831 7.82038 10.7882 7.29178C10.8934 6.76318 10.8394 6.21528 10.6332 5.71735C10.4269 5.21942 10.0776 4.79383 9.62955 4.49441C9.18142 4.19498 8.65458 4.03516 8.11563 4.03516C7.39291 4.03516 6.6998 4.32226 6.18876 4.83329C5.67772 5.34433 5.39062 6.03745 5.39062 6.76016ZM10.2031 6.76016C10.2031 7.17303 10.0807 7.57663 9.85131 7.91991C9.62193 8.2632 9.29592 8.53076 8.91448 8.68876C8.53304 8.84676 8.11331 8.8881 7.70837 8.80755C7.30343 8.727 6.93147 8.52819 6.63953 8.23625C6.34759 7.9443 6.14877 7.57235 6.06823 7.16741C5.98768 6.76248 6.02903 6.34275 6.18703 5.96131C6.34503 5.57987 6.61258 5.25385 6.95586 5.02447C7.29915 4.79509 7.70276 4.67266 8.11563 4.67266C8.66927 4.67266 9.20023 4.89259 9.59171 5.28408C9.98319 5.67556 10.2031 6.20652 10.2031 6.76016Z" fill="white" stroke="white" stroke-width="0.2"/>
</g>
</g>
<defs>
<clipPath id="clip0_918_3939">
<rect width="15" height="15" fill="white" transform="translate(0 0.890625)"/>
</clipPath>
<clipPath id="clip1_918_3939">
<rect width="15" height="15" fill="white" transform="translate(0 0.890625)"/>
</clipPath>
</defs>
</svg>
