<svg width="15" height="16" viewBox="0 0 15 16" fill="none" xmlns="http://www.w3.org/2000/svg">
<g clip-path="url(#clip0_918_3895)">
<g clip-path="url(#clip1_918_3895)">
<mask id="mask0_918_3895" style="mask-type:luminance" maskUnits="userSpaceOnUse" x="0" y="1" width="15" height="15">
<path d="M14.8984 1.24219H0.898438V15.2422H14.8984V1.24219Z" fill="white"/>
</mask>
<g mask="url(#mask0_918_3895)">
<path d="M2.21273 7.80469C2.32877 7.80469 2.44005 7.7586 2.52209 7.67655C2.60414 7.5945 2.65023 7.48322 2.65023 7.36719V6.92969C2.65023 6.5816 2.78852 6.24776 3.03466 6.00161C3.2808 5.75547 3.61464 5.61719 3.96273 5.61719H4.83773C5.18583 5.61719 5.51967 5.75547 5.76581 6.00161C6.01195 6.24776 6.15023 6.5816 6.15023 6.92969V7.36719C6.15023 7.48322 6.19633 7.5945 6.27838 7.67655C6.36042 7.7586 6.4717 7.80469 6.58773 7.80469C6.70377 7.80469 6.81505 7.7586 6.89709 7.67655C6.97914 7.5945 7.02523 7.48322 7.02523 7.36719V6.92969C7.02415 6.514 6.90465 6.10723 6.68073 5.757C6.4568 5.40678 6.13772 5.12761 5.76086 4.95219C6.01164 4.64611 6.14916 4.26289 6.15023 3.86719C6.15023 3.40306 5.96586 2.95794 5.63767 2.62976C5.30948 2.30157 4.86436 2.11719 4.40023 2.11719C3.93611 2.11719 3.49099 2.30157 3.1628 2.62976C2.83461 2.95794 2.65023 3.40306 2.65023 3.86719C2.65131 4.26289 2.78883 4.64611 3.03961 4.95219C2.66275 5.12761 2.34367 5.40678 2.11974 5.757C1.89581 6.10723 1.77631 6.514 1.77523 6.92969V7.36719C1.77523 7.48322 1.82133 7.5945 1.90338 7.67655C1.98542 7.7586 2.0967 7.80469 2.21273 7.80469ZM4.40023 2.99219C4.57329 2.99219 4.74247 3.04351 4.88636 3.13966C5.03025 3.2358 5.1424 3.37246 5.20863 3.53234C5.27486 3.69223 5.29218 3.86816 5.25842 4.0379C5.22466 4.20763 5.14132 4.36354 5.01895 4.48591C4.89658 4.60828 4.74067 4.69162 4.57094 4.72538C4.40121 4.75914 4.22527 4.74181 4.06539 4.67559C3.9055 4.60936 3.76884 4.49721 3.6727 4.35332C3.57655 4.20942 3.52523 4.04025 3.52523 3.86719C3.52523 3.63513 3.61742 3.41257 3.78152 3.24847C3.94561 3.08438 4.16817 2.99219 4.40023 2.99219ZM12.7609 11.5147C13.0117 11.2086 13.1492 10.8254 13.1503 10.4297C13.1503 9.96556 12.9659 9.52044 12.6377 9.19226C12.3095 8.86407 11.8644 8.67969 11.4003 8.67969C10.9361 8.67969 10.491 8.86407 10.1628 9.19226C9.83461 9.52044 9.65023 9.96556 9.65023 10.4297C9.65131 10.8254 9.78883 11.2086 10.0396 11.5147C9.66275 11.6901 9.34367 11.9693 9.11974 12.3195C8.89581 12.6697 8.77631 13.0765 8.77523 13.4922V13.9297C8.77523 14.0457 8.82133 14.157 8.90337 14.239C8.98542 14.3211 9.0967 14.3672 9.21273 14.3672C9.32877 14.3672 9.44005 14.3211 9.52209 14.239C9.60414 14.157 9.65023 14.0457 9.65023 13.9297V13.4922C9.65023 13.1441 9.78851 12.8102 10.0347 12.5641C10.2808 12.3179 10.6147 12.1797 10.9628 12.1797H11.8378C12.1859 12.1797 12.5197 12.3179 12.7659 12.5641C13.012 12.8102 13.1503 13.1441 13.1503 13.4922V13.9297C13.1503 14.0457 13.1964 14.157 13.2784 14.239C13.3605 14.3211 13.4717 14.3672 13.5878 14.3672C13.7038 14.3672 13.8151 14.3211 13.8971 14.239C13.9792 14.157 14.0253 14.0457 14.0253 13.9297V13.4922C14.0242 13.0765 13.9047 12.6697 13.6808 12.3195C13.4568 11.9693 13.1378 11.6901 12.7609 11.5147ZM11.4003 9.55469C11.5733 9.55469 11.7425 9.60601 11.8864 9.70216C12.0303 9.7983 12.1424 9.93496 12.2087 10.0948C12.2749 10.2547 12.2922 10.4307 12.2585 10.6004C12.2247 10.7701 12.1414 10.926 12.019 11.0484C11.8966 11.1708 11.7407 11.2541 11.571 11.2878C11.4012 11.3216 11.2253 11.3043 11.0654 11.2381C10.9055 11.1718 10.7689 11.0597 10.6727 10.9158C10.5766 10.7719 10.5253 10.6027 10.5253 10.4297C10.5253 10.1976 10.6175 9.97507 10.7816 9.81097C10.9457 9.64688 11.1682 9.55469 11.4003 9.55469ZM7.46273 3.86719H9.65023C10.3465 3.86719 11.0141 4.14375 11.5064 4.63604C11.9987 5.12832 12.2753 5.796 12.2753 6.49219V6.75032L12.1484 6.61907C12.066 6.53668 11.9543 6.4904 11.8378 6.4904C11.7213 6.4904 11.6095 6.53668 11.5271 6.61907C11.4448 6.70145 11.3985 6.81319 11.3985 6.92969C11.3985 7.0462 11.4448 7.15793 11.5271 7.24032L12.4021 8.11532C12.4428 8.15632 12.4912 8.18887 12.5445 8.21108C12.5978 8.23329 12.655 8.24473 12.7128 8.24473C12.7705 8.24473 12.8277 8.23329 12.881 8.21108C12.9343 8.18887 12.9827 8.15632 13.0234 8.11532L13.8984 7.24032C13.9808 7.15793 14.0271 7.0462 14.0271 6.92969C14.0271 6.81319 13.9808 6.70145 13.8984 6.61907C13.816 6.53668 13.7043 6.4904 13.5878 6.4904C13.4713 6.4904 13.3595 6.53668 13.2771 6.61907L13.1503 6.75032V6.49219C13.1503 5.56393 12.7815 4.6737 12.1251 4.01732C11.4688 3.36094 10.5785 2.99219 9.65023 2.99219H7.46273C7.3467 2.99219 7.23542 3.03829 7.15338 3.12033C7.07133 3.20238 7.02523 3.31366 7.02523 3.42969C7.02523 3.54572 7.07133 3.657 7.15338 3.73905C7.23542 3.8211 7.3467 3.86719 7.46273 3.86719ZM7.48898 12.6172H6.15023C5.45404 12.6172 4.78636 12.3406 4.29408 11.8483C3.8018 11.356 3.52523 10.6884 3.52523 9.99219V9.73407L3.65211 9.86532C3.69278 9.90632 3.74117 9.93887 3.79448 9.96108C3.8478 9.98329 3.90498 9.99473 3.96273 9.99473C4.02049 9.99473 4.07767 9.98329 4.13099 9.96108C4.1843 9.93887 4.23269 9.90632 4.27336 9.86532C4.31437 9.82465 4.34691 9.77626 4.36912 9.72294C4.39134 9.66963 4.40277 9.61245 4.40277 9.55469C4.40277 9.49694 4.39134 9.43975 4.36912 9.38644C4.34691 9.33313 4.31437 9.28474 4.27336 9.24407L3.39836 8.36907C3.35769 8.32806 3.3093 8.29551 3.25599 8.2733C3.20267 8.25109 3.14549 8.23966 3.08773 8.23966C3.02998 8.23966 2.9728 8.25109 2.91948 8.2733C2.86617 8.29551 2.81778 8.32806 2.77711 8.36907L1.90211 9.24407C1.81973 9.32645 1.77344 9.43819 1.77344 9.55469C1.77344 9.6712 1.81973 9.78293 1.90211 9.86532C1.98449 9.9477 2.09623 9.99398 2.21273 9.99398C2.32924 9.99398 2.44098 9.9477 2.52336 9.86532L2.65023 9.73407V9.99219C2.65023 10.9204 3.01898 11.8107 3.67536 12.467C4.33174 13.1234 5.22198 13.4922 6.15023 13.4922H7.48898C7.60502 13.4922 7.7163 13.4461 7.79834 13.364C7.88039 13.282 7.92648 13.1707 7.92648 13.0547C7.92648 12.9386 7.88039 12.8274 7.79834 12.7453C7.7163 12.6633 7.60502 12.6172 7.48898 12.6172Z" fill="white"/>
</g>
</g>
</g>
<defs>
<clipPath id="clip0_918_3895">
<rect width="15" height="15" fill="white" transform="translate(0 0.890625)"/>
</clipPath>
<clipPath id="clip1_918_3895">
<rect width="15" height="15" fill="white" transform="translate(0 0.890625)"/>
</clipPath>
</defs>
</svg>
