<svg width="32" height="33" viewBox="0 0 32 33" fill="none" xmlns="http://www.w3.org/2000/svg">
<mask id="mask0_999_3314" style="mask-type:alpha" maskUnits="userSpaceOnUse" x="0" y="0" width="32" height="33">
<g clip-path="url(#clip0_999_3314)">
<path d="M24.9301 29.5849C24.7558 29.5849 24.5925 29.5577 24.44 29.5032C24.2875 29.4487 24.1459 29.3562 24.0152 29.2255L17.3492 22.5595C17.2185 22.4288 17.1259 22.2872 17.0714 22.1347C17.017 21.9822 16.9898 21.8188 16.9898 21.6445C16.9898 21.4703 17.017 21.3069 17.0714 21.1544C17.1259 21.0019 17.2185 20.8603 17.3492 20.7296L20.1267 17.9521C20.2574 17.8214 20.399 17.7288 20.5515 17.6744C20.704 17.6199 20.8673 17.5927 21.0416 17.5927C21.2159 17.5927 21.3793 17.6199 21.5318 17.6744C21.6843 17.7288 21.8259 17.8214 21.9566 17.9521L28.6225 24.6181C28.7532 24.7488 28.8458 24.8904 28.9003 25.0429C28.9547 25.1954 28.982 25.3587 28.982 25.533C28.982 25.7073 28.9547 25.8707 28.9003 26.0232C28.8458 26.1757 28.7532 26.3173 28.6225 26.448L25.845 29.2255C25.7143 29.3562 25.5727 29.4487 25.4203 29.5032C25.2678 29.5577 25.1044 29.5849 24.9301 29.5849ZM24.9301 26.4806L25.8777 25.533L21.0743 20.7296L20.1267 21.6772L24.9301 26.4806ZM6.99079 29.6176C6.81652 29.6176 6.64769 29.5849 6.48431 29.5195C6.32093 29.4542 6.17389 29.3562 6.04318 29.2255L3.29837 26.4806C3.16766 26.3499 3.06963 26.2029 3.00428 26.0395C2.93893 25.8761 2.90625 25.7073 2.90625 25.533C2.90625 25.3587 2.93893 25.1954 3.00428 25.0429C3.06963 24.8904 3.16766 24.7488 3.29837 24.6181L10.2258 17.6907H13.0032L14.1142 16.5797L8.72264 11.1881H6.86009L2.90625 7.23427L6.59868 3.54184L10.5525 7.49568V9.35823L15.9441 14.7498L19.7346 10.9594L18.3295 9.55429L20.1594 7.72441H16.4669L15.552 6.80948L20.192 2.16943L21.107 3.08437V6.7768L22.9369 4.94692L27.5769 9.58697C27.9472 9.9573 28.2304 10.3766 28.4265 10.845C28.6225 11.3134 28.7206 11.809 28.7206 12.3318C28.7206 12.8546 28.6225 13.3556 28.4265 13.8349C28.2304 14.3141 27.9472 14.7389 27.5769 15.1093L24.7994 12.3318L22.9695 14.1617L21.5971 12.7892L14.8331 19.5533V22.2981L7.90573 29.2255C7.77503 29.3562 7.63343 29.4542 7.48094 29.5195C7.32845 29.5849 7.16507 29.6176 6.99079 29.6176ZM6.99079 26.4806L12.5458 20.9257V19.978H11.5982L6.04318 25.533L6.99079 26.4806ZM6.99079 26.4806L6.04318 25.533L6.53332 25.9905L6.99079 26.4806Z" fill="#E8EAED"/>
</g>
</mask>
<g mask="url(#mask0_999_3314)">
<rect x="0.292969" y="0.862793" width="31.3693" height="31.3693" fill="#192020"/>
</g>
<defs>
<clipPath id="clip0_999_3314">
<rect width="31.3693" height="31.3693" fill="white" transform="translate(0.292969 0.862793)"/>
</clipPath>
</defs>
</svg>
