<svg width="67" height="67" viewBox="0 0 67 67" fill="none" xmlns="http://www.w3.org/2000/svg">
<path d="M33.2276 58.1486C46.9911 58.1486 58.1486 46.9911 58.1486 33.2276C58.1486 19.4641 46.9911 8.30664 33.2276 8.30664C19.4641 8.30664 8.30664 19.4641 8.30664 33.2276C8.30664 46.9911 19.4641 58.1486 33.2276 58.1486Z" stroke="black" stroke-width="3.32279" stroke-linecap="round" stroke-linejoin="round"/>
<path d="M23.8827 36.3435C25.6031 36.3435 26.9978 34.9488 26.9978 33.2284C26.9978 31.508 25.6031 30.1133 23.8827 30.1133C22.1623 30.1133 20.7676 31.508 20.7676 33.2284C20.7676 34.9488 22.1623 36.3435 23.8827 36.3435Z" fill="black"/>
<path d="M42.5741 36.3435C44.2945 36.3435 45.6892 34.9488 45.6892 33.2284C45.6892 31.508 44.2945 30.1133 42.5741 30.1133C40.8537 30.1133 39.459 31.508 39.459 33.2284C39.459 34.9488 40.8537 36.3435 42.5741 36.3435Z" fill="black"/>
<path d="M40.1081 43.6113C38.0693 44.9653 35.6763 45.6876 33.2288 45.6876C30.7814 45.6876 28.3884 44.9653 26.3496 43.6113" stroke="black" stroke-width="3.32279" stroke-linecap="round" stroke-linejoin="round"/>
<path d="M33.2277 8.30664C29.0742 13.4985 29.0742 18.6904 29.0742 18.6904C29.0742 19.7919 29.5118 20.8484 30.2907 21.6273C31.0697 22.4063 32.1261 22.8439 33.2277 22.8439C34.3293 22.8439 35.3857 22.4063 36.1647 21.6273C36.9436 20.8484 37.3812 19.7919 37.3812 18.6904" stroke="black" stroke-width="3.32279" stroke-linecap="round" stroke-linejoin="round"/>
</svg>
