<svg width="58" height="58" viewBox="0 0 58 58" fill="none" xmlns="http://www.w3.org/2000/svg">
<path d="M29.0412 50.7362C40.9122 50.7362 50.5355 41.1129 50.5355 29.2419C50.5355 17.3709 40.9122 7.74756 29.0412 7.74756C17.1702 7.74756 7.54688 17.3709 7.54688 29.2419C7.54688 41.1129 17.1702 50.7362 29.0412 50.7362Z" stroke="white" stroke-width="2.86591" stroke-linecap="round" stroke-linejoin="round"/>
<path d="M20.9807 31.9288C22.4646 31.9288 23.6675 30.7258 23.6675 29.242C23.6675 27.7581 22.4646 26.5552 20.9807 26.5552C19.4969 26.5552 18.2939 27.7581 18.2939 29.242C18.2939 30.7258 19.4969 31.9288 20.9807 31.9288Z" fill="white"/>
<path d="M37.1009 31.9288C38.5847 31.9288 39.7876 30.7258 39.7876 29.242C39.7876 27.7581 38.5847 26.5552 37.1009 26.5552C35.617 26.5552 34.4141 27.7581 34.4141 29.242C34.4141 30.7258 35.617 31.9288 37.1009 31.9288Z" fill="white"/>
<path d="M34.9741 38.1982C33.2156 39.3661 31.1517 39.989 29.0408 39.989C26.9298 39.989 24.8659 39.3661 23.1074 38.1982" stroke="white" stroke-width="2.86591" stroke-linecap="round" stroke-linejoin="round"/>
<path d="M29.0414 7.74756C25.459 12.2255 25.459 16.7035 25.459 16.7035C25.459 17.6536 25.8364 18.5648 26.5082 19.2367C27.1801 19.9085 28.0913 20.2859 29.0414 20.2859C29.9915 20.2859 30.9027 19.9085 31.5745 19.2367C32.2463 18.5648 32.6238 17.6536 32.6238 16.7035" stroke="white" stroke-width="2.86591" stroke-linecap="round" stroke-linejoin="round"/>
</svg>
