<svg width="67" height="67" viewBox="0 0 67 67" fill="none" xmlns="http://www.w3.org/2000/svg">
<path d="M22.8441 14.5371H16.6139C15.4669 14.5371 14.5371 15.4669 14.5371 16.6139V49.8418C14.5371 50.9888 15.4669 51.9186 16.6139 51.9186H22.8441C23.9911 51.9186 24.9208 50.9888 24.9208 49.8418V16.6139C24.9208 15.4669 23.9911 14.5371 22.8441 14.5371Z" stroke="black" stroke-width="3.32279" stroke-linecap="round" stroke-linejoin="round"/>
<path d="M49.8421 14.5371H43.6119C42.4649 14.5371 41.5352 15.4669 41.5352 16.6139V49.8418C41.5352 50.9888 42.4649 51.9186 43.6119 51.9186H49.8421C50.9891 51.9186 51.9189 50.9888 51.9189 49.8418V16.6139C51.9189 15.4669 50.9891 14.5371 49.8421 14.5371Z" stroke="black" stroke-width="3.32279" stroke-linecap="round" stroke-linejoin="round"/>
<path d="M51.918 20.7676H58.1482C58.699 20.7676 59.2272 20.9864 59.6167 21.3758C60.0062 21.7653 60.225 22.2935 60.225 22.8443V43.6118C60.225 44.1626 60.0062 44.6908 59.6167 45.0803C59.2272 45.4697 58.699 45.6885 58.1482 45.6885H51.918" stroke="black" stroke-width="3.32279" stroke-linecap="round" stroke-linejoin="round"/>
<path d="M14.5375 45.6885H8.30722C7.75643 45.6885 7.2282 45.4697 6.83873 45.0803C6.44927 44.6908 6.23047 44.1626 6.23047 43.6118V22.8443C6.23047 22.2935 6.44927 21.7653 6.83873 21.3758C7.2282 20.9864 7.75643 20.7676 8.30722 20.7676H14.5375" stroke="black" stroke-width="3.32279" stroke-linecap="round" stroke-linejoin="round"/>
<path d="M24.9219 33.2275H41.5359" stroke="black" stroke-width="3.32279" stroke-linecap="round" stroke-linejoin="round"/>
<path d="M60.2266 33.2275H64.3801" stroke="black" stroke-width="3.32279" stroke-linecap="round" stroke-linejoin="round"/>
<path d="M2.07617 33.2275H6.22967" stroke="black" stroke-width="3.32279" stroke-linecap="round" stroke-linejoin="round"/>
</svg>
