<svg width="59" height="58" viewBox="0 0 59 58" fill="none" xmlns="http://www.w3.org/2000/svg">
<path d="M20.5915 12.9717H15.218C14.2287 12.9717 13.4268 13.7736 13.4268 14.7629V43.422C13.4268 44.4112 14.2287 45.2132 15.218 45.2132H20.5915C21.5808 45.2132 22.3827 44.4112 22.3827 43.422V14.7629C22.3827 13.7736 21.5808 12.9717 20.5915 12.9717Z" stroke="white" stroke-width="2.86591" stroke-linecap="round" stroke-linejoin="round"/>
<path d="M43.8777 12.9717H38.5041C37.5148 12.9717 36.7129 13.7736 36.7129 14.7629V43.422C36.7129 44.4112 37.5148 45.2132 38.5041 45.2132H43.8777C44.8669 45.2132 45.6689 44.4112 45.6689 43.422V14.7629C45.6689 13.7736 44.8669 12.9717 43.8777 12.9717Z" stroke="white" stroke-width="2.86591" stroke-linecap="round" stroke-linejoin="round"/>
<path d="M45.6689 18.3452H51.0425C51.5176 18.3452 51.9732 18.5339 52.3091 18.8698C52.645 19.2058 52.8337 19.6614 52.8337 20.1364V38.0483C52.8337 38.5234 52.645 38.979 52.3091 39.3149C51.9732 39.6508 51.5176 39.8395 51.0425 39.8395H45.6689" stroke="white" stroke-width="2.86591" stroke-linecap="round" stroke-linejoin="round"/>
<path d="M13.4275 39.8395H8.05389C7.57883 39.8395 7.12324 39.6508 6.78732 39.3149C6.45141 38.979 6.2627 38.5234 6.2627 38.0483V20.1364C6.2627 19.6614 6.45141 19.2058 6.78732 18.8698C7.12324 18.5339 7.57883 18.3452 8.05389 18.3452H13.4275" stroke="white" stroke-width="2.86591" stroke-linecap="round" stroke-linejoin="round"/>
<path d="M22.3828 29.0923H36.7124" stroke="white" stroke-width="2.86591" stroke-linecap="round" stroke-linejoin="round"/>
<path d="M52.833 29.0923H56.4154" stroke="white" stroke-width="2.86591" stroke-linecap="round" stroke-linejoin="round"/>
<path d="M2.67969 29.0923H6.26207" stroke="white" stroke-width="2.86591" stroke-linecap="round" stroke-linejoin="round"/>
</svg>
