<svg width="58" height="58" viewBox="0 0 58 58" fill="none" xmlns="http://www.w3.org/2000/svg">
<path d="M29.0547 20.2862V14.9126" stroke="white" stroke-width="2.86591" stroke-linecap="round" stroke-linejoin="round"/>
<path d="M29.0548 14.9124C39.399 11.33 29.0548 2.37402 29.0548 2.37402C29.0548 2.37402 18.3077 11.33 29.0548 14.9124Z" stroke="white" stroke-width="2.86591" stroke-linecap="round" stroke-linejoin="round"/>
<path d="M36.6675 28.7944C36.6675 30.8134 35.8655 32.7497 34.4379 34.1773C33.0102 35.605 31.0739 36.407 29.055 36.407C27.036 36.407 25.0997 35.605 23.6721 34.1773C22.2444 32.7497 21.4424 30.8134 21.4424 28.7944" stroke="white" stroke-width="2.86591" stroke-linecap="round" stroke-linejoin="round"/>
<path d="M21.442 28.7943C21.4424 30.7865 20.6619 32.6994 19.268 34.1226C17.8741 35.5458 15.9778 36.3659 13.9861 36.4069C9.70967 36.4965 6.21684 32.9141 6.21684 28.6376V25.6598C6.21388 24.9533 6.35085 24.2532 6.61985 23.5999C6.88885 22.9466 7.28455 22.353 7.78412 21.8535C8.2837 21.3539 8.87725 20.9582 9.53055 20.6892C10.1838 20.4202 10.8839 20.2832 11.5904 20.2862H46.5187C47.2252 20.2832 47.9253 20.4202 48.5786 20.6892C49.2319 20.9582 49.8254 21.3539 50.325 21.8535C50.8246 22.353 51.2203 22.9466 51.4893 23.5999C51.7583 24.2532 51.8952 24.9533 51.8923 25.6598V28.6376C51.8923 32.9141 48.3995 36.4965 44.123 36.4069C42.1313 36.3659 40.235 35.5458 38.8411 34.1226C37.4472 32.6994 36.6667 30.7865 36.6671 28.7943" stroke="white" stroke-width="2.86591" stroke-linecap="round" stroke-linejoin="round"/>
<path d="M48.7578 34.9067V47.154C48.7578 47.6291 48.5691 48.0847 48.2332 48.4206C47.8973 48.7565 47.4417 48.9452 46.9666 48.9452H11.1428C10.6677 48.9452 10.2121 48.7565 9.87619 48.4206C9.54028 48.0847 9.35156 47.6291 9.35156 47.154V34.9067" stroke="white" stroke-width="2.86591" stroke-linecap="round" stroke-linejoin="round"/>
</svg>
