<svg width="67" height="67" viewBox="0 0 67 67" fill="none" xmlns="http://www.w3.org/2000/svg">
<path d="M33.2285 22.8445V16.6143" stroke="black" stroke-width="3.32279" stroke-linecap="round" stroke-linejoin="round"/>
<path d="M33.2274 16.6144C45.2207 12.4609 33.2274 2.07715 33.2274 2.07715C33.2274 2.07715 20.767 12.4609 33.2274 16.6144Z" stroke="black" stroke-width="3.32279" stroke-linecap="round" stroke-linejoin="round"/>
<path d="M42.0547 32.709C42.0547 35.0498 41.1248 37.2948 39.4696 38.95C37.8143 40.6053 35.5694 41.5352 33.2285 41.5352C30.8877 41.5352 28.6427 40.6053 26.9875 38.95C25.3322 37.2948 24.4023 35.0498 24.4023 32.709" stroke="black" stroke-width="3.32279" stroke-linecap="round" stroke-linejoin="round"/>
<path d="M24.4024 32.7084C24.4029 35.0181 23.498 37.2359 21.8818 38.886C20.2657 40.5361 18.0672 41.487 15.7579 41.5345C10.7997 41.6384 6.75005 37.4849 6.75005 32.5266V29.074C6.74662 28.2549 6.90543 27.4432 7.21731 26.6858C7.52919 25.9283 7.98798 25.2402 8.56719 24.6609C9.14641 24.0817 9.83459 23.6229 10.592 23.3111C11.3495 22.9992 12.1612 22.8404 12.9803 22.8438H53.4769C54.296 22.8404 55.1077 22.9992 55.8651 23.3111C56.6226 23.6229 57.3107 24.0817 57.89 24.6609C58.4692 25.2402 58.928 25.9283 59.2398 26.6858C59.5517 27.4432 59.7105 28.2549 59.7071 29.074V32.5266C59.7071 37.4849 55.6574 41.6384 50.6992 41.5345C48.39 41.487 46.1914 40.5361 44.5753 38.886C42.9592 37.2359 42.0543 35.0181 42.0547 32.7084" stroke="black" stroke-width="3.32279" stroke-linecap="round" stroke-linejoin="round"/>
<path d="M56.0712 39.7959V53.9957C56.0712 54.5464 55.8524 55.0747 55.463 55.4641C55.0735 55.8536 54.5453 56.0724 53.9945 56.0724H12.4596C11.9088 56.0724 11.3805 55.8536 10.9911 55.4641C10.6016 55.0747 10.3828 54.5464 10.3828 53.9957V39.7959" stroke="black" stroke-width="3.32279" stroke-linecap="round" stroke-linejoin="round"/>
</svg>
