<svg width="67" height="67" viewBox="0 0 67 67" fill="none" xmlns="http://www.w3.org/2000/svg">
<path d="M53.9945 10.3838H12.4596C11.3126 10.3838 10.3828 11.3136 10.3828 12.4605V53.9955C10.3828 55.1424 11.3126 56.0722 12.4596 56.0722H53.9945C55.1415 56.0722 56.0712 55.1424 56.0712 53.9955V12.4605C56.0712 11.3136 55.1415 10.3838 53.9945 10.3838Z" stroke="black" stroke-width="3.32279" stroke-linecap="round" stroke-linejoin="round"/>
<path d="M45.6875 6.23047V14.5375" stroke="black" stroke-width="3.32279" stroke-linecap="round" stroke-linejoin="round"/>
<path d="M20.7676 6.23047V14.5375" stroke="black" stroke-width="3.32279" stroke-linecap="round" stroke-linejoin="round"/>
<path d="M10.3828 22.8438H56.0712" stroke="black" stroke-width="3.32279" stroke-linecap="round" stroke-linejoin="round"/>
<path d="M23.8828 33.2275H31.1514L26.9979 38.4194C27.6815 38.4182 28.3548 38.5858 28.958 38.9072C29.5613 39.2286 30.076 39.694 30.4563 40.2619C30.8366 40.8299 31.0709 41.483 31.1383 42.1632C31.2057 42.8435 31.1042 43.5298 30.8428 44.1614C30.5813 44.793 30.1681 45.3503 29.6396 45.7839C29.1112 46.2175 28.4839 46.5139 27.8134 46.647C27.1429 46.78 26.4499 46.7455 25.796 46.5465C25.142 46.3475 24.5473 45.9902 24.0645 45.5063" stroke="black" stroke-width="3.32279" stroke-linecap="round" stroke-linejoin="round"/>
<path d="M37.3809 36.3427L41.5344 33.2275V46.7264" stroke="black" stroke-width="3.32279" stroke-linecap="round" stroke-linejoin="round"/>
</svg>
