<svg width="59" height="58" viewBox="0 0 59 58" fill="none" xmlns="http://www.w3.org/2000/svg">
<path d="M47.4598 8.96436H11.6359C10.6467 8.96436 9.84473 9.7663 9.84473 10.7555V46.5794C9.84473 47.5687 10.6467 48.3706 11.6359 48.3706H47.4598C48.449 48.3706 49.251 47.5687 49.251 46.5794V10.7555C49.251 9.7663 48.449 8.96436 47.4598 8.96436Z" stroke="white" stroke-width="2.86591" stroke-linecap="round" stroke-linejoin="round"/>
<path d="M40.2949 5.38184V12.5466" stroke="white" stroke-width="2.86591" stroke-linecap="round" stroke-linejoin="round"/>
<path d="M18.8008 5.38184V12.5466" stroke="white" stroke-width="2.86591" stroke-linecap="round" stroke-linejoin="round"/>
<path d="M9.84473 19.7114H49.251" stroke="white" stroke-width="2.86591" stroke-linecap="round" stroke-linejoin="round"/>
<path d="M21.4873 28.6675H27.7565L24.1741 33.1455C24.7637 33.1445 25.3444 33.289 25.8647 33.5662C26.385 33.8434 26.8289 34.2448 27.1569 34.7347C27.4849 35.2245 27.687 35.7878 27.7451 36.3745C27.8033 36.9612 27.7157 37.5532 27.4903 38.0979C27.2648 38.6427 26.9083 39.1234 26.4526 39.4973C25.9968 39.8713 25.4557 40.127 24.8774 40.2417C24.2991 40.3565 23.7015 40.3267 23.1374 40.1551C22.5734 39.9835 22.0604 39.6753 21.644 39.2579" stroke="white" stroke-width="2.86591" stroke-linecap="round" stroke-linejoin="round"/>
<path d="M33.1299 31.3543L36.7123 28.6675V40.3102" stroke="white" stroke-width="2.86591" stroke-linecap="round" stroke-linejoin="round"/>
</svg>
