<svg width="67" height="67" viewBox="0 0 67 67" fill="none" xmlns="http://www.w3.org/2000/svg">
<path d="M9.83831 53.9694L23.8044 15.5237C23.924 15.1947 24.1248 14.9013 24.3881 14.6706C24.6514 14.44 24.9688 14.2797 25.3107 14.2046C25.6525 14.1295 26.0079 14.142 26.3436 14.241C26.6793 14.34 26.9846 14.5223 27.2311 14.7708L51.6848 39.2245C51.9333 39.471 52.1156 39.7763 52.2146 40.112C52.3136 40.4477 52.3261 40.8031 52.251 41.1449C52.1759 41.4868 52.0156 41.8042 51.785 42.0675C51.5543 42.3308 51.2609 42.5316 50.9319 42.6512L12.4862 56.6173C12.1163 56.7587 11.7134 56.79 11.3261 56.7074C10.9389 56.6248 10.5838 56.4318 10.3038 56.1518C10.0238 55.8718 9.83084 55.5167 9.74824 55.1295C9.66564 54.7422 9.69692 54.3393 9.83831 53.9694V53.9694Z" stroke="black" stroke-width="3.32279" stroke-linecap="round" stroke-linejoin="round"/>
<path d="M43.6113 18.6909C43.6113 18.6909 43.6113 12.4607 49.8416 12.4607C56.0718 12.4607 56.0718 6.23047 56.0718 6.23047" stroke="black" stroke-width="3.32279" stroke-linecap="round" stroke-linejoin="round"/>
<path d="M26.5829 51.5038L14.9531 39.874" stroke="black" stroke-width="3.32279" stroke-linecap="round" stroke-linejoin="round"/>
<path d="M37.3809 4.15332V10.3836" stroke="black" stroke-width="3.32279" stroke-linecap="round" stroke-linejoin="round"/>
<path d="M56.0723 29.0742L60.2258 33.2277" stroke="black" stroke-width="3.32279" stroke-linecap="round" stroke-linejoin="round"/>
<path d="M56.0723 20.7672L62.3025 18.6904" stroke="black" stroke-width="3.32279" stroke-linecap="round" stroke-linejoin="round"/>
<path d="M19.9375 26.167L40.2896 46.5191" stroke="black" stroke-width="3.32279" stroke-linecap="round" stroke-linejoin="round"/>
</svg>
