<svg width="58" height="58" viewBox="0 0 58 58" fill="none" xmlns="http://www.w3.org/2000/svg">
<path d="M8.89589 46.9814L20.9417 13.822C21.0448 13.5382 21.218 13.2851 21.4451 13.0862C21.6722 12.8873 21.9459 12.7491 22.2408 12.6843C22.5357 12.6195 22.8421 12.6303 23.1317 12.7157C23.4213 12.8011 23.6846 12.9583 23.8971 13.1727L44.9884 34.264C45.2028 34.4765 45.36 34.7398 45.4454 35.0294C45.5308 35.319 45.5416 35.6254 45.4768 35.9203C45.412 36.2152 45.2738 36.4889 45.0749 36.716C44.876 36.9432 44.6229 37.1163 44.3391 37.2194L11.1797 49.2652C10.8606 49.3872 10.5131 49.4141 10.1791 49.3429C9.84511 49.2717 9.53887 49.1052 9.29737 48.8637C9.05587 48.6222 8.88945 48.316 8.81821 47.982C8.74697 47.648 8.77395 47.3005 8.89589 46.9814V46.9814Z" stroke="white" stroke-width="2.86591" stroke-linecap="round" stroke-linejoin="round"/>
<path d="M38.0244 16.5538C38.0244 16.5538 38.0244 11.1802 43.398 11.1802C48.7716 11.1802 48.7716 5.80664 48.7716 5.80664" stroke="white" stroke-width="2.86591" stroke-linecap="round" stroke-linejoin="round"/>
<path d="M23.3363 44.8549L13.3057 34.8242" stroke="white" stroke-width="2.86591" stroke-linecap="round" stroke-linejoin="round"/>
<path d="M32.6504 4.01562V9.38921" stroke="white" stroke-width="2.86591" stroke-linecap="round" stroke-linejoin="round"/>
<path d="M48.7715 25.5098L52.3539 29.0922" stroke="white" stroke-width="2.86591" stroke-linecap="round" stroke-linejoin="round"/>
<path d="M48.7715 18.3449L54.1451 16.5537" stroke="white" stroke-width="2.86591" stroke-linecap="round" stroke-linejoin="round"/>
<path d="M17.6045 23.002L35.1582 40.5556" stroke="white" stroke-width="2.86591" stroke-linecap="round" stroke-linejoin="round"/>
</svg>
