<svg width="59" height="58" viewBox="0 0 59 58" fill="none" xmlns="http://www.w3.org/2000/svg">
<path d="M16.1278 44.7882C20.5794 44.7882 24.1881 41.1795 24.1881 36.7279C24.1881 32.2762 20.5794 28.6675 16.1278 28.6675C11.6761 28.6675 8.06738 32.2762 8.06738 36.7279C8.06738 41.1795 11.6761 44.7882 16.1278 44.7882Z" stroke="white" stroke-width="2.86591" stroke-linecap="round" stroke-linejoin="round"/>
<path d="M42.9949 44.7882C47.4466 44.7882 51.0553 41.1795 51.0553 36.7279C51.0553 32.2762 47.4466 28.6675 42.9949 28.6675C38.5433 28.6675 34.9346 32.2762 34.9346 36.7279C34.9346 41.1795 38.5433 44.7882 42.9949 44.7882Z" stroke="white" stroke-width="2.86591" stroke-linecap="round" stroke-linejoin="round"/>
<path d="M24.1875 35.832H34.9347" stroke="white" stroke-width="2.86591" stroke-linecap="round" stroke-linejoin="round"/>
<path d="M8.06743 36.7277V16.129C8.06447 15.4225 8.20144 14.7224 8.47044 14.0691C8.73943 13.4158 9.13514 12.8223 9.63471 12.3227C10.1343 11.8231 10.7278 11.4274 11.3811 11.1584C12.0344 10.8894 12.7345 10.7525 13.441 10.7554" stroke="white" stroke-width="2.86591" stroke-linecap="round" stroke-linejoin="round"/>
<path d="M45.6826 10.7554C46.3891 10.7525 47.0892 10.8894 47.7425 11.1584C48.3958 11.4274 48.9893 11.8231 49.4889 12.3227C49.9885 12.8223 50.3842 13.4158 50.6532 14.0691C50.9222 14.7224 51.0592 15.4225 51.0562 16.129V36.7277" stroke="white" stroke-width="2.86591" stroke-linecap="round" stroke-linejoin="round"/>
</svg>
