<svg width="67" height="67" viewBox="0 0 67 67" fill="none" xmlns="http://www.w3.org/2000/svg">
<path d="M13.4456 31.6452C13.1388 31.1133 12.7303 30.6472 12.2433 30.2733C11.7563 29.8993 11.2005 29.625 10.6075 29.4659C10.0145 29.3068 9.39596 29.2661 8.78722 29.346C8.17848 29.426 7.59145 29.625 7.05964 29.9318C6.52783 30.2387 6.06166 30.6472 5.68775 31.1342C5.31383 31.6212 5.03949 32.177 4.8804 32.77C4.7213 33.363 4.68056 33.9815 4.76051 34.5903C4.84045 35.199 5.03951 35.786 5.34632 36.3178L14.9513 52.9578C17.4552 57.1999 21.5326 60.2821 26.2969 61.534C31.0611 62.786 36.127 62.1066 40.393 59.6435C44.659 57.1803 47.7801 53.1327 49.0778 48.3807C50.3754 43.6287 49.7446 38.5565 47.3226 34.267L42.9095 26.609C42.2518 25.6172 41.2405 24.9136 40.0818 24.6419C38.9231 24.3703 37.7045 24.5509 36.6744 25.1471C35.6444 25.7432 34.8807 26.7099 34.5391 27.85C34.1975 28.99 34.3037 30.2174 34.8361 31.2817" stroke="black" stroke-width="3.32279" stroke-linecap="round" stroke-linejoin="round"/>
<path d="M27.775 37.7698L17.9105 20.6885C17.6037 20.1567 17.1951 19.6906 16.7081 19.3167C16.2212 18.9427 15.6653 18.6684 15.0723 18.5093C14.4793 18.3502 13.8608 18.3095 13.2521 18.3894C12.6433 18.4694 12.0563 18.6684 11.5245 18.9752C10.9927 19.282 10.5265 19.6906 10.1526 20.1776C9.77867 20.6645 9.50434 21.2204 9.34524 21.8134C9.18615 22.4064 9.14541 23.0249 9.22535 23.6336C9.30529 24.2424 9.50435 24.8294 9.81117 25.3612L19.6757 42.4425" stroke="black" stroke-width="3.32279" stroke-linecap="round" stroke-linejoin="round"/>
<path d="M38.9911 38.4971L28.0882 19.5987C27.4686 18.5247 26.4477 17.7408 25.2501 17.4195C24.0525 17.0982 22.7763 17.2658 21.7022 17.8854C20.6282 18.505 19.8443 19.5259 19.523 20.7236C19.2017 21.9212 19.3693 23.1974 19.9889 24.2714" stroke="black" stroke-width="3.32279" stroke-linecap="round" stroke-linejoin="round"/>
<path d="M25.6995 17.5736L23.0257 12.9268C22.4061 11.8528 21.3852 11.0689 20.1876 10.7476C18.99 10.4263 17.7138 10.5939 16.6397 11.2135C15.5657 11.8332 14.7818 12.8541 14.4605 14.0517C14.1392 15.2493 14.3068 16.5255 14.9264 17.5995L15.5494 18.6639" stroke="black" stroke-width="3.32279" stroke-linecap="round" stroke-linejoin="round"/>
<path d="M48.802 49.7118C51.9703 46.8429 54.0612 42.9759 54.7271 38.7539C55.393 34.5318 54.5937 30.209 52.4622 26.5042L48.0492 18.8721C47.7423 18.3403 47.3338 17.8742 46.8468 17.5002C46.3598 17.1263 45.804 16.852 45.211 16.6929C44.618 16.5338 43.9995 16.4931 43.3907 16.573C42.782 16.6529 42.195 16.852 41.6632 17.1588C41.1313 17.4656 40.6652 17.8742 40.2913 18.3612C39.9173 18.8481 39.643 19.404 39.4839 19.997C39.3248 20.59 39.2841 21.2085 39.364 21.8172C39.444 22.426 39.643 23.013 39.9498 23.5448" stroke="black" stroke-width="3.32279" stroke-linecap="round" stroke-linejoin="round"/>
<path d="M40.548 24.5825L33.2015 11.8624C32.5819 10.7883 31.561 10.0045 30.3633 9.68314C29.1657 9.36183 27.8895 9.52943 26.8155 10.1491C25.7415 10.7687 24.9576 11.7896 24.6363 12.9872C24.315 14.1848 24.4826 15.461 25.1022 16.5351" stroke="black" stroke-width="3.32279" stroke-linecap="round" stroke-linejoin="round"/>
<path d="M45.8964 2.93359L44.832 6.93133" stroke="black" stroke-width="3.32279" stroke-linecap="round" stroke-linejoin="round"/>
<path d="M53.7613 6.59375L51.373 9.99442" stroke="black" stroke-width="3.32279" stroke-linecap="round" stroke-linejoin="round"/>
<path d="M59.8616 12.6943L56.4609 15.0826" stroke="black" stroke-width="3.32279" stroke-linecap="round" stroke-linejoin="round"/>
</svg>
