<svg width="59" height="58" viewBox="0 0 59 58" fill="none" xmlns="http://www.w3.org/2000/svg">
<path d="M12.4999 27.7263C12.2352 27.2676 11.8829 26.8655 11.4628 26.543C11.0428 26.2205 10.5634 25.9839 10.0519 25.8467C9.54049 25.7095 9.00702 25.6743 8.48198 25.7433C7.95694 25.8122 7.45063 25.9839 6.99194 26.2485C6.53326 26.5132 6.13118 26.8656 5.80868 27.2856C5.48618 27.7056 5.24957 28.185 5.11235 28.6965C4.97513 29.2079 4.93999 29.7414 5.00894 30.2664C5.07789 30.7915 5.24958 31.2978 5.51421 31.7565L13.7985 46.1084C15.9581 49.7673 19.4749 52.4256 23.5841 53.5054C27.6932 54.5853 32.0626 53.9992 35.742 51.8748C39.4214 49.7504 42.1134 46.2593 43.2326 42.1607C44.3518 38.062 43.8077 33.6873 41.7187 29.9877L37.9124 23.3826C37.3452 22.5271 36.4729 21.9203 35.4735 21.686C34.4742 21.4517 33.4231 21.6075 32.5347 22.1217C31.6463 22.6359 30.9876 23.4697 30.6929 24.4529C30.3983 25.4362 30.4899 26.4948 30.9492 27.4128" stroke="white" stroke-width="2.86591" stroke-linecap="round" stroke-linejoin="round"/>
<path d="M24.8586 33.0106L16.3504 18.2781C16.0858 17.8194 15.7334 17.4173 15.3134 17.0948C14.8934 16.7723 14.414 16.5357 13.9025 16.3985C13.3911 16.2613 12.8576 16.2261 12.3326 16.2951C11.8075 16.364 11.3012 16.5357 10.8425 16.8003C10.3838 17.065 9.98177 17.4173 9.65927 17.8374C9.33677 18.2574 9.10015 18.7368 8.96293 19.2482C8.82571 19.7597 8.79057 20.2932 8.85952 20.8182C8.92848 21.3433 9.10017 21.8496 9.36479 22.3083L17.873 37.0408" stroke="white" stroke-width="2.86591" stroke-linecap="round" stroke-linejoin="round"/>
<path d="M34.5316 33.6375L25.1278 17.3377C24.5934 16.4113 23.7128 15.7352 22.6799 15.4581C21.647 15.1809 20.5462 15.3255 19.6199 15.8599C18.6935 16.3944 18.0174 17.2749 17.7403 18.3078C17.4632 19.3408 17.6077 20.4415 18.1421 21.3678" stroke="white" stroke-width="2.86591" stroke-linecap="round" stroke-linejoin="round"/>
<path d="M23.0678 15.5911L20.7616 11.5833C20.2272 10.6569 19.3466 9.98079 18.3137 9.70366C17.2807 9.42654 16.18 9.57109 15.2537 10.1055C14.3273 10.64 13.6512 11.5205 13.3741 12.5534C13.0969 13.5864 13.2415 14.6871 13.7759 15.6134L14.3133 16.5314" stroke="white" stroke-width="2.86591" stroke-linecap="round" stroke-linejoin="round"/>
<path d="M42.9949 43.3099C45.7275 40.8354 47.531 37.5002 48.1053 33.8587C48.6796 30.2172 47.9903 26.4887 46.1519 23.2933L42.3456 16.7107C42.0809 16.252 41.7286 15.8499 41.3085 15.5274C40.8885 15.2049 40.4091 14.9683 39.8977 14.8311C39.3862 14.6939 38.8527 14.6587 38.3277 14.7277C37.8026 14.7966 37.2963 14.9683 36.8376 15.233C36.379 15.4976 35.9769 15.85 35.6544 16.27C35.3319 16.69 35.0953 17.1694 34.9581 17.6809C34.8208 18.1923 34.7857 18.7258 34.8546 19.2508C34.9236 19.7759 35.0953 20.2822 35.3599 20.7409" stroke="white" stroke-width="2.86591" stroke-linecap="round" stroke-linejoin="round"/>
<path d="M35.8753 21.6364L29.5389 10.6653C29.0045 9.73894 28.124 9.06282 27.091 8.7857C26.0581 8.50857 24.9574 8.65312 24.031 9.18756C23.1047 9.72199 22.4285 10.6025 22.1514 11.6355C21.8743 12.6684 22.0188 13.7691 22.5533 14.6955" stroke="white" stroke-width="2.86591" stroke-linecap="round" stroke-linejoin="round"/>
<path d="M40.4873 2.96338L39.5693 6.41143" stroke="white" stroke-width="2.86591" stroke-linecap="round" stroke-linejoin="round"/>
<path d="M47.2718 6.12012L45.2119 9.0532" stroke="white" stroke-width="2.86591" stroke-linecap="round" stroke-linejoin="round"/>
<path d="M52.5337 11.3818L49.6006 13.4417" stroke="white" stroke-width="2.86591" stroke-linecap="round" stroke-linejoin="round"/>
</svg>
