<svg width="58" height="58" viewBox="0 0 58 58" fill="none" xmlns="http://www.w3.org/2000/svg">
<path d="M21.451 41.3403C18.8986 48.9305 8.77832 48.9305 8.77832 48.9305C8.77832 48.9305 8.77832 38.8103 16.3685 36.2578" stroke="white" stroke-width="2.86591" stroke-linecap="round" stroke-linejoin="round"/>
<path d="M44.2438 23.6074L29.0411 38.8102L18.8984 28.6676L34.1012 13.4648C39.8554 7.71059 45.6096 7.77776 48.0725 8.136C48.4525 8.1867 48.8053 8.36106 49.0765 8.63217C49.3476 8.90328 49.5219 9.25608 49.5726 9.63612C49.9309 12.099 49.998 17.8532 44.2438 23.6074Z" stroke="white" stroke-width="2.86591" stroke-linecap="round" stroke-linejoin="round"/>
<path d="M41.7137 26.1372V40.6011C41.707 41.0736 41.5138 41.5242 41.1764 41.8549L33.9444 49.1093C33.715 49.3384 33.4276 49.501 33.113 49.5797C32.7984 49.6583 32.4684 49.6501 32.1581 49.5559C31.8478 49.4616 31.5689 49.2849 31.3511 49.0446C31.1334 48.8043 30.985 48.5093 30.9218 48.1913L29.041 38.8099" stroke="white" stroke-width="2.86591" stroke-linecap="round" stroke-linejoin="round"/>
<path d="M31.5712 15.9946H17.1073C16.6348 16.0014 16.1841 16.1945 15.8534 16.532L8.59909 23.7639C8.36992 23.9934 8.20733 24.2807 8.12868 24.5953C8.05003 24.9099 8.05826 25.24 8.15249 25.5503C8.24673 25.8606 8.42344 26.1395 8.66377 26.3572C8.90409 26.5749 9.19902 26.7233 9.51708 26.7866L18.8985 28.6673" stroke="white" stroke-width="2.86591" stroke-linecap="round" stroke-linejoin="round"/>
</svg>
