<svg width="67" height="67" viewBox="0 0 67 67" fill="none" xmlns="http://www.w3.org/2000/svg">
<path d="M24.4274 47.9211C21.468 56.7213 9.73438 56.7213 9.73438 56.7213C9.73438 56.7213 9.73438 44.9877 18.5346 42.0283" stroke="black" stroke-width="3.32279" stroke-linecap="round" stroke-linejoin="round"/>
<path d="M50.8547 27.3612L33.2283 44.9876L21.4688 33.228L39.0951 15.6016C45.7667 8.93008 52.4382 9.00795 55.2938 9.4233C55.7344 9.48209 56.1434 9.68425 56.4578 9.99858C56.7721 10.3129 56.9743 10.722 57.033 11.1626C57.4484 14.0181 57.5263 20.6897 50.8547 27.3612Z" stroke="black" stroke-width="3.32279" stroke-linecap="round" stroke-linejoin="round"/>
<path d="M47.9215 30.2949V47.0647C47.9137 47.6124 47.6898 48.1349 47.2985 48.5184L38.9136 56.9292C38.6476 57.1949 38.3144 57.3834 37.9497 57.4746C37.5849 57.5658 37.2022 57.5563 36.8425 57.447C36.4827 57.3377 36.1594 57.1329 35.9069 56.8542C35.6545 56.5756 35.4824 56.2336 35.4091 55.8649L33.2285 44.9879" stroke="black" stroke-width="3.32279" stroke-linecap="round" stroke-linejoin="round"/>
<path d="M36.1616 18.5352H19.3919C18.8441 18.543 18.3216 18.7669 17.9382 19.1582L9.52734 27.543C9.26163 27.8091 9.07312 28.1422 8.98193 28.507C8.89074 28.8717 8.90028 29.2544 9.00954 29.6142C9.1188 29.9739 9.32368 30.2973 9.60232 30.5497C9.88096 30.8022 10.2229 30.9742 10.5917 31.0476L21.4686 33.2281" stroke="black" stroke-width="3.32279" stroke-linecap="round" stroke-linejoin="round"/>
</svg>
