<svg width="59" height="58" viewBox="0 0 59 58" fill="none" xmlns="http://www.w3.org/2000/svg">
<path d="M29.5479 29.2419L51.0422 7.74756" stroke="white" stroke-width="2.86591" stroke-linecap="round" stroke-linejoin="round"/>
<path d="M44.7505 14.0396C40.9398 10.2175 35.8332 7.96529 30.4413 7.72873C25.0494 7.49216 19.7651 9.28846 15.6344 12.7621C11.5037 16.2357 8.82758 21.1336 8.13576 26.4862C7.44393 31.8388 8.7868 37.256 11.8986 41.6658C15.0104 46.0755 19.6642 49.1563 24.9391 50.2984C30.214 51.4406 35.7255 50.5607 40.3826 47.8331C45.0398 45.1055 48.5032 40.7289 50.0875 35.5696C51.6717 30.4102 51.2613 24.8441 48.9374 19.9729" stroke="white" stroke-width="2.86591" stroke-linecap="round" stroke-linejoin="round"/>
<path d="M37.1375 21.6521C35.3625 19.882 33.0236 18.7897 30.5269 18.5648C28.0303 18.3398 25.5338 18.9965 23.471 20.4208C21.4082 21.8451 19.9095 23.947 19.2352 26.3613C18.5609 28.7756 18.7535 31.3499 19.7798 33.6369C20.806 35.9239 22.6009 37.7792 24.8528 38.8806C27.1046 39.9819 29.6711 40.2596 32.1064 39.6655C34.5417 39.0714 36.692 37.643 38.1837 35.6284C39.6754 33.6139 40.4143 31.1404 40.2721 28.6377" stroke="white" stroke-width="2.86591" stroke-linecap="round" stroke-linejoin="round"/>
</svg>
