<svg width="67" height="67" viewBox="0 0 67 67" fill="none" xmlns="http://www.w3.org/2000/svg">
<path d="M33.2285 33.2276L58.1495 8.30664" stroke="black" stroke-width="3.32279" stroke-linecap="round" stroke-linejoin="round"/>
<path d="M50.8552 15.6007C46.4371 11.1693 40.5164 8.55807 34.2648 8.28379C28.0133 8.0095 21.8866 10.0922 17.0974 14.1196C12.3082 18.147 9.20547 23.8256 8.40335 30.0315C7.60124 36.2375 9.15819 42.5183 12.766 47.6311C16.3739 52.7438 21.7697 56.3158 27.8855 57.64C34.0013 58.9642 40.3914 57.9441 45.791 54.7817C51.1906 51.6192 55.2062 46.5449 57.043 40.563C58.8798 34.5811 58.4039 28.1277 55.7096 22.4799" stroke="black" stroke-width="3.32279" stroke-linecap="round" stroke-linejoin="round"/>
<path d="M42.0272 24.4275C39.9692 22.3753 37.2574 21.1088 34.3628 20.848C31.4681 20.5872 28.5736 21.3487 26.182 23C23.7903 24.6513 22.0527 27.0883 21.2709 29.8875C20.489 32.6867 20.7124 35.6713 21.9023 38.323C23.0921 40.9746 25.1732 43.1257 27.784 44.4026C30.3949 45.6795 33.3705 46.0015 36.194 45.3126C39.0176 44.6238 41.5107 42.9677 43.2402 40.632C44.9697 38.2963 45.8264 35.4285 45.6615 32.5268" stroke="black" stroke-width="3.32279" stroke-linecap="round" stroke-linejoin="round"/>
</svg>
