<svg width="67" height="67" viewBox="0 0 67 67" fill="none" xmlns="http://www.w3.org/2000/svg">
<path d="M10.3828 16.6144V49.8424C10.3828 50.944 10.8204 52.0004 11.5993 52.7793C12.3783 53.5583 13.4347 53.9959 14.5363 53.9959H56.0712C56.622 53.9959 57.1503 53.7771 57.5397 53.3876C57.9292 52.9981 58.148 52.4699 58.148 51.9191V22.8447C58.148 22.2939 57.9292 21.7657 57.5397 21.3762C57.1503 20.9867 56.622 20.7679 56.0712 20.7679H14.5363C13.4347 20.7679 12.3783 20.3303 11.5993 19.5514C10.8204 18.7725 10.3828 17.716 10.3828 16.6144ZM10.3828 16.6144C10.3828 15.5129 10.8204 14.4564 11.5993 13.6775C12.3783 12.8985 13.4347 12.4609 14.5363 12.4609H49.841" stroke="black" stroke-width="3.32279" stroke-linecap="round" stroke-linejoin="round"/>
<path d="M46.7264 40.4968C48.4469 40.4968 49.8416 39.1022 49.8416 37.3817C49.8416 35.6613 48.4469 34.2666 46.7264 34.2666C45.006 34.2666 43.6113 35.6613 43.6113 37.3817C43.6113 39.1022 45.006 40.4968 46.7264 40.4968Z" fill="black"/>
</svg>
