<svg width="58" height="58" viewBox="0 0 58 58" fill="none" xmlns="http://www.w3.org/2000/svg">
<path d="M9.35156 14.3378V42.9969C9.35156 43.947 9.72899 44.8582 10.4008 45.53C11.0726 46.2018 11.9838 46.5792 12.9339 46.5792H48.7578C49.2329 46.5792 49.6885 46.3905 50.0244 46.0546C50.3603 45.7187 50.549 45.2631 50.549 44.788V19.7113C50.549 19.2363 50.3603 18.7807 50.0244 18.4448C49.6885 18.1089 49.2329 17.9201 48.7578 17.9201H12.9339C11.9838 17.9201 11.0726 17.5427 10.4008 16.8709C9.72899 16.1991 9.35156 15.2879 9.35156 14.3378ZM9.35156 14.3378C9.35156 13.3877 9.72899 12.4765 10.4008 11.8046C11.0726 11.1328 11.9838 10.7554 12.9339 10.7554H43.3842" stroke="white" stroke-width="2.86591" stroke-linecap="round" stroke-linejoin="round"/>
<path d="M40.6975 34.9366C42.1814 34.9366 43.3843 33.7337 43.3843 32.2498C43.3843 30.7659 42.1814 29.563 40.6975 29.563C39.2137 29.563 38.0107 30.7659 38.0107 32.2498C38.0107 33.7337 39.2137 34.9366 40.6975 34.9366Z" fill="white"/>
</svg>
