<svg width="46" height="46" viewBox="0 0 46 46" fill="none" xmlns="http://www.w3.org/2000/svg">
<rect x="0.913333" y="0.913333" width="43.2311" height="43.2311" rx="21.6156" stroke="white" stroke-width="1.82667"/>
<g clip-path="url(#clip0_2082_1728)">
<path fill-rule="evenodd" clip-rule="evenodd" d="M22.5288 32.8785C16.821 32.8785 12.1777 28.2348 12.1777 22.5281C12.1777 16.8223 16.821 12.1787 22.5288 12.1787C28.2366 12.1787 32.88 16.8223 32.88 22.5281C32.88 28.2348 28.2366 32.8785 22.5288 32.8785ZM30.8014 23.8711C30.515 23.7818 28.208 23.0926 25.5827 23.5125C26.6786 26.5234 27.1248 28.9773 27.2103 29.4859C29.0899 28.2151 30.4284 26.2023 30.8014 23.8711ZM25.8022 30.2535C25.6768 29.5186 25.1904 26.9563 24.014 23.9004C23.9963 23.9066 23.9779 23.912 23.9587 23.9188C19.2337 25.5642 17.5372 28.843 17.3862 29.1511C18.8063 30.2583 20.5921 30.9192 22.5288 30.9192C23.6891 30.9192 24.7959 30.6812 25.8022 30.2535ZM16.3043 28.1429C16.4938 27.8177 18.7936 24.0108 23.1145 22.614C23.2239 22.5785 23.334 22.5458 23.4444 22.5151C23.2344 22.0383 23.0057 21.5631 22.7651 21.0927C18.5813 22.3451 14.5213 22.2932 14.1541 22.2851C14.1517 22.3703 14.1504 22.4558 14.1504 22.541C14.1504 24.6932 14.966 26.6577 16.3043 28.1429ZM14.3272 20.8255C14.7022 20.8302 18.1539 20.8445 22.0732 19.8049C20.6851 17.3367 19.1877 15.2618 18.9665 14.9598C16.6226 16.0649 14.8702 18.2256 14.3272 20.8255ZM20.5655 14.3971C20.7972 14.7069 22.3188 16.7787 23.6919 19.3014C26.6717 18.1834 27.9322 16.4896 28.0826 16.2755C26.6032 14.9619 24.6575 14.1646 22.5288 14.1646C21.8526 14.1646 21.1954 14.245 20.5655 14.3971ZM29.0141 17.2433C28.8379 17.4826 27.4332 19.2824 24.3357 20.5459C24.5307 20.9461 24.7175 21.3524 24.892 21.7601C24.9531 21.9054 25.0134 22.0492 25.072 22.1924C27.8599 21.8419 30.6299 22.4034 30.907 22.4627C30.8882 20.4853 30.1816 18.6695 29.0141 17.2433Z" fill="white"/>
</g>
<defs>
<clipPath id="clip0_2082_1728">
<rect width="20.7022" height="20.7022" fill="white" transform="translate(12.1777 12.1777)"/>
</clipPath>
</defs>
</svg>
