<svg width="44" height="45" viewBox="0 0 44 45" fill="none" xmlns="http://www.w3.org/2000/svg">
<g clip-path="url(#clip0_620_2564)">
<g clip-path="url(#clip1_620_2564)">
<path fill-rule="evenodd" clip-rule="evenodd" d="M21.89 8.25977C19.0552 8.25977 16.2839 9.1004 13.9268 10.6754C11.5697 12.2503 9.73257 14.4889 8.64771 17.108C7.56286 19.727 7.279 22.609 7.83205 25.3894C8.38511 28.1698 9.75023 30.7237 11.7548 32.7284C13.7593 34.7329 16.3133 36.098 19.0937 36.6511C21.874 37.2041 24.7561 36.9202 27.3752 35.8353C29.9942 34.7505 32.2327 32.9135 33.8078 30.5563C35.3827 28.1992 36.2233 25.4279 36.2233 22.5931C36.2233 18.7917 34.7131 15.1459 32.0253 12.4579C29.3372 9.76987 25.6914 8.25977 21.89 8.25977ZM31.3571 14.8674C33.1216 17.0167 34.0978 19.7049 34.1235 22.4856C31.3184 21.9356 28.4475 21.8046 25.6041 22.0968C25.5109 21.8943 25.4249 21.6776 25.3389 21.459C25.0899 20.8677 24.8014 20.2621 24.5309 19.687C27.1845 18.6975 29.5364 17.0369 31.3571 14.8674ZM21.89 10.3739C24.8808 10.3731 27.7681 11.4696 30.0044 13.4556C28.3296 15.5087 26.102 17.0393 23.5849 17.8667C22.2168 15.3822 20.6901 12.9884 19.0143 10.7C19.9569 10.4799 20.9219 10.3705 21.89 10.3739ZM16.6816 11.5242C18.3222 13.7979 19.8378 16.1592 21.2217 18.5977C17.5256 19.5623 13.7236 20.0618 9.90372 20.0848C10.2981 18.2323 11.115 16.496 12.2907 15.0111C13.4663 13.5263 14.969 12.3329 16.6816 11.5242ZM9.64035 22.6092V22.2348C13.8943 22.2552 18.1295 21.6688 22.2178 20.4933C22.5762 21.1777 22.9023 21.8764 23.2122 22.577L22.7303 22.7167C18.5994 24.2051 15.0931 27.0465 12.7811 30.7792C10.7608 28.5375 9.642 25.6271 9.64035 22.6092ZM21.89 34.8427C19.1695 34.8488 16.5255 33.9422 14.3811 32.2681C16.5032 28.5963 19.9349 25.8622 23.988 24.6141C24.0185 24.598 24.0346 24.598 24.0651 24.5836C25.2291 27.587 26.104 30.6948 26.6773 33.8645C25.1651 34.5143 23.5358 34.8472 21.89 34.8427ZM28.7144 32.7447C28.1732 29.7759 27.3777 26.8591 26.3369 24.0264C28.8854 23.6548 31.484 23.8381 33.9551 24.5639C33.692 26.215 33.0908 27.7938 32.1888 29.2015C31.2871 30.6092 30.1042 31.8155 28.7144 32.7447Z" fill="white"/>
</g>
</g>
<defs>
<clipPath id="clip0_620_2564">
<rect width="43" height="43" fill="white" transform="translate(0.390625 1.09277)"/>
</clipPath>
<clipPath id="clip1_620_2564">
<rect width="43" height="43" fill="white" transform="translate(0.390625 1.09277)"/>
</clipPath>
</defs>
</svg>
