<svg width="68" height="68" viewBox="0 0 68 68" fill="none" xmlns="http://www.w3.org/2000/svg">
<rect x="0.388672" y="0.0859375" width="67.2222" height="67.2222" rx="33.6111" fill="white" fill-opacity="0.23"/>
<path d="M48.0034 39.565C48.0034 44.6626 44.9644 47.7016 39.8667 47.7016H38.2002C37.4299 47.7016 36.7997 47.0714 36.7997 46.3012V38.2205C36.7997 37.8424 37.1078 37.5203 37.4859 37.5203L39.9507 37.4783C40.1468 37.4643 40.3149 37.3242 40.3569 37.1282L40.8471 34.4533C40.8891 34.2012 40.693 33.9631 40.4269 33.9631L37.4439 34.0051C37.0518 34.0051 36.7437 33.697 36.7297 33.3189L36.6737 29.8878C36.6737 29.6637 36.8557 29.4676 37.0938 29.4676L40.4549 29.4116C40.693 29.4116 40.875 29.2296 40.875 28.9915L40.819 25.6303C40.819 25.3923 40.637 25.2102 40.3989 25.2102L36.6176 25.2662C34.2929 25.3083 32.4443 27.2129 32.4863 29.5376L32.5563 33.3889C32.5703 33.781 32.2622 34.0892 31.8701 34.1032L30.1895 34.1312C29.9514 34.1312 29.7694 34.3132 29.7694 34.5513L29.8114 37.2122C29.8114 37.4503 29.9934 37.6323 30.2315 37.6323L31.9121 37.6043C32.3042 37.6043 32.6123 37.9124 32.6263 38.2905L32.7523 46.2732C32.7663 47.0574 32.1361 47.7016 31.3519 47.7016H28.1308C23.0331 47.7016 19.9941 44.6626 19.9941 39.5509V27.8291C19.9941 22.7314 23.0331 19.6924 28.1308 19.6924H39.8667C44.9644 19.6924 48.0034 22.7314 48.0034 27.8291V39.565Z" fill="white"/>
</svg>
