<svg width="18" height="18" viewBox="0 0 28 28" fill="none" xmlns="http://www.w3.org/2000/svg">
<path d="M28.3921 20.5652C28.3921 25.6629 25.3531 28.7019 20.2554 28.7019H18.5888C17.8186 28.7019 17.1884 28.0717 17.1884 27.3014V19.2208C17.1884 18.8426 17.4965 18.5205 17.8746 18.5205L20.3394 18.4785C20.5355 18.4645 20.7035 18.3245 20.7456 18.1284L21.2357 15.4535C21.2777 15.2014 21.0817 14.9633 20.8156 14.9633L17.8326 15.0054C17.4404 15.0054 17.1324 14.6973 17.1184 14.3191L17.0623 10.888C17.0623 10.6639 17.2444 10.4679 17.4825 10.4679L20.8436 10.4118C21.0816 10.4118 21.2637 10.2298 21.2637 9.99172L21.2077 6.63058C21.2077 6.3925 21.0256 6.21045 20.7876 6.21045L17.0063 6.26649C14.6815 6.3085 12.8329 8.21311 12.875 10.5379L12.945 14.3892C12.959 14.7813 12.6509 15.0894 12.2588 15.1034L10.5782 15.1314C10.3401 15.1314 10.1581 15.3134 10.1581 15.5515L10.2001 18.2124C10.2001 18.4505 10.3821 18.6326 10.6202 18.6326L12.3008 18.6046C12.6929 18.6046 13.001 18.9126 13.015 19.2908L13.141 27.2734C13.155 28.0577 12.5248 28.7019 11.7405 28.7019H8.5195C3.42181 28.7019 0.382812 25.6629 0.382812 20.5512V8.82931C0.382812 3.73163 3.42181 0.692627 8.5195 0.692627H20.2554C25.3531 0.692627 28.3921 3.73163 28.3921 8.82931V20.5652V20.5652Z" fill="white"/>
</svg>
