<svg width="46" height="46" viewBox="0 0 46 46" fill="none" xmlns="http://www.w3.org/2000/svg">
<rect x="0.913333" y="0.913333" width="43.2311" height="43.2311" rx="21.6156" stroke="white" stroke-width="1.82667"/>
<path d="M33.2856 27.39C33.2856 31.0839 31.0834 33.286 27.3895 33.286H26.1819C25.6237 33.286 25.167 32.8294 25.167 32.2712V26.4158C25.167 26.1418 25.3903 25.9083 25.6643 25.9083L27.4504 25.8779C27.5924 25.8678 27.7142 25.7663 27.7447 25.6242L28.0999 23.6859C28.1303 23.5032 27.9882 23.3307 27.7954 23.3307L25.6338 23.3612C25.3497 23.3612 25.1265 23.1379 25.1163 22.8639L25.0757 20.3776C25.0757 20.2152 25.2076 20.0732 25.3801 20.0732L27.8157 20.0326C27.9882 20.0326 28.1202 19.9007 28.1202 19.7281L28.0795 17.2926C28.0795 17.12 27.9476 16.9881 27.7751 16.9881L25.0351 17.0287C23.3505 17.0592 22.011 18.4393 22.0414 20.1239L22.0921 22.9146C22.1023 23.1988 21.879 23.4221 21.5949 23.4322L20.3771 23.4525C20.2046 23.4525 20.0727 23.5844 20.0727 23.7569L20.1031 25.6851C20.1031 25.8576 20.235 25.9895 20.4076 25.9895L21.6253 25.9692C21.9095 25.9692 22.1327 26.1925 22.1429 26.4665L22.2342 32.2509C22.2444 32.8192 21.7877 33.286 21.2194 33.286H18.8853C15.1914 33.286 12.9893 31.0839 12.9893 27.3798V18.8858C12.9893 15.1919 15.1914 12.9897 18.8853 12.9897H27.3895C31.0834 12.9897 33.2856 15.1919 33.2856 18.8858V27.39Z" fill="white"/>
</svg>
