<svg width="18" height="18" viewBox="0 0 28 29" fill="none" xmlns="http://www.w3.org/2000/svg">
<path d="M19.8667 0.692627H8.13083C3.03315 0.692627 -0.00585938 3.73163 -0.00585938 8.82932V20.5512C-0.00585938 25.6629 3.03315 28.7019 8.13083 28.7019H19.8527C24.9504 28.7019 27.9894 25.6629 27.9894 20.5652V8.82932C28.0034 3.73163 24.9644 0.692627 19.8667 0.692627ZM13.9988 20.1311C11.0018 20.1311 8.56497 17.6942 8.56497 14.6973C8.56497 11.7003 11.0018 9.26346 13.9988 9.26346C16.9958 9.26346 19.4326 11.7003 19.4326 14.6973C19.4326 17.6942 16.9958 20.1311 13.9988 20.1311ZM22.2895 7.52689C22.2195 7.69494 22.1215 7.84899 21.9954 7.98904C21.8554 8.11508 21.7013 8.21311 21.5333 8.28314C21.3652 8.35316 21.1831 8.39517 21.0011 8.39517C20.623 8.39517 20.2728 8.25513 20.0068 7.98904C19.8807 7.84899 19.7827 7.69494 19.7127 7.52689C19.6426 7.35883 19.6006 7.17677 19.6006 6.99471C19.6006 6.81265 19.6426 6.63059 19.7127 6.46253C19.7827 6.28047 19.8807 6.14043 20.0068 6.00038C20.3289 5.67828 20.819 5.52422 21.2672 5.62226C21.3652 5.63626 21.4492 5.66427 21.5333 5.70628C21.6173 5.73429 21.7013 5.77631 21.7853 5.83233C21.8554 5.87434 21.9254 5.94436 21.9954 6.00038C22.1215 6.14043 22.2195 6.28047 22.2895 6.46253C22.3595 6.63059 22.4015 6.81265 22.4015 6.99471C22.4015 7.17677 22.3595 7.35883 22.2895 7.52689Z" fill="white
  "/>
</svg>
