<svg width="46" height="46" viewBox="0 0 46 46" fill="none" xmlns="http://www.w3.org/2000/svg">
<rect x="0.913333" y="0.913333" width="43.2311" height="43.2311" rx="21.6156" stroke="white" stroke-width="1.82667"/>
<path d="M27.3895 12.9897H18.8853C15.1914 12.9897 12.9893 15.1919 12.9893 18.8858V27.3798C12.9893 31.0839 15.1914 33.286 18.8853 33.286H27.3793C31.0733 33.286 33.2754 31.0839 33.2754 27.39V18.8858C33.2856 15.1919 31.0834 12.9897 27.3895 12.9897ZM23.1374 27.0754C20.9657 27.0754 19.1999 25.3096 19.1999 23.1379C19.1999 20.9662 20.9657 19.2004 23.1374 19.2004C25.3091 19.2004 27.0749 20.9662 27.0749 23.1379C27.0749 25.3096 25.3091 27.0754 23.1374 27.0754ZM29.1451 17.942C29.0944 18.0638 29.0233 18.1754 28.932 18.2769C28.8305 18.3683 28.7189 18.4393 28.5971 18.49C28.4753 18.5408 28.3434 18.5712 28.2115 18.5712C27.9375 18.5712 27.6838 18.4697 27.491 18.2769C27.3996 18.1754 27.3286 18.0638 27.2779 17.942C27.2271 17.8203 27.1967 17.6883 27.1967 17.5564C27.1967 17.4245 27.2271 17.2926 27.2779 17.1708C27.3286 17.0389 27.3996 16.9374 27.491 16.8359C27.7244 16.6025 28.0796 16.4909 28.4043 16.5619C28.4753 16.572 28.5362 16.5923 28.5971 16.6228C28.658 16.6431 28.7189 16.6735 28.7798 16.7141C28.8305 16.7446 28.8813 16.7953 28.932 16.8359C29.0233 16.9374 29.0944 17.0389 29.1451 17.1708C29.1959 17.2926 29.2263 17.4245 29.2263 17.5564C29.2263 17.6883 29.1959 17.8203 29.1451 17.942Z" fill="white"/>
</svg>
