<svg width="68" height="68" viewBox="0 0 68 68" fill="none" xmlns="http://www.w3.org/2000/svg">
<rect y="0.0859375" width="67.2222" height="67.2222" rx="33.6111" fill="white" fill-opacity="0.23"/>
<path d="M39.478 19.6924H27.7422C22.6445 19.6924 19.6055 22.7314 19.6055 27.8291V39.5509C19.6055 44.6626 22.6445 47.7016 27.7422 47.7016H39.464C44.5617 47.7016 47.6007 44.6626 47.6007 39.565V27.8291C47.6147 22.7314 44.5757 19.6924 39.478 19.6924ZM33.6101 39.1308C30.6131 39.1308 28.1763 36.694 28.1763 33.697C28.1763 30.7 30.6131 28.2632 33.6101 28.2632C36.6071 28.2632 39.0439 30.7 39.0439 33.697C39.0439 36.694 36.6071 39.1308 33.6101 39.1308ZM41.9008 26.5266C41.8308 26.6947 41.7328 26.8487 41.6067 26.9888C41.4667 27.1148 41.3126 27.2129 41.1446 27.2829C40.9765 27.3529 40.7945 27.3949 40.6124 27.3949C40.2343 27.3949 39.8842 27.2549 39.6181 26.9888C39.492 26.8487 39.394 26.6947 39.324 26.5266C39.254 26.3586 39.212 26.1765 39.212 25.9945C39.212 25.8124 39.254 25.6303 39.324 25.4623C39.394 25.2802 39.492 25.1402 39.6181 25.0001C39.9402 24.678 40.4304 24.524 40.8785 24.622C40.9765 24.636 41.0606 24.664 41.1446 24.706C41.2286 24.734 41.3126 24.7761 41.3967 24.8321C41.4667 24.8741 41.5367 24.9441 41.6067 25.0001C41.7328 25.1402 41.8308 25.2802 41.9008 25.4623C41.9709 25.6303 42.0129 25.8124 42.0129 25.9945C42.0129 26.1765 41.9709 26.3586 41.9008 26.5266Z" fill="white"/>
</svg>
