<svg width="46" height="46" viewBox="0 0 46 46" fill="none" xmlns="http://www.w3.org/2000/svg">
<rect x="0.913333" y="0.913333" width="43.2311" height="43.2311" rx="21.6156" stroke="white" stroke-width="1.82667"/>
<g clip-path="url(#clip0_2082_1715)">
<path d="M28.5873 12.1865H17.6708C14.6461 12.1865 12.1777 14.6549 12.1777 17.6796V28.6135C12.1777 31.6207 14.6461 34.0891 17.6708 34.0891H28.6047C31.6293 34.0891 34.0977 31.6207 34.0977 28.5961V17.6796C34.0804 14.6549 31.612 12.1865 28.5873 12.1865ZM19.4786 29.9172H16.3497V20.878H19.4786V29.9172ZM17.8968 19.4874C17.0102 19.4874 16.2975 18.7747 16.2975 17.8882C16.2975 17.0016 17.0102 16.2889 17.8968 16.2889C18.7833 16.2889 19.496 17.0016 19.496 17.8882C19.4786 18.7747 18.7659 19.4874 17.8968 19.4874ZM29.9258 29.9172H29.9084H27.301V25.5367C27.301 24.4763 27.1619 23.1204 25.7191 23.1204C24.2416 23.1204 23.9982 24.2677 23.9982 25.4672V29.9172H21.3907V20.878H23.8244V22.0948H23.8939C24.2763 21.3995 25.1629 20.8607 26.5535 20.8607C29.4217 20.8607 29.9258 22.512 29.9258 24.963V29.9172Z" fill="white"/>
</g>
<defs>
<clipPath id="clip0_2082_1715">
<rect width="21.92" height="21.92" fill="white" transform="translate(12.1777 12.1777)"/>
</clipPath>
</defs>
</svg>
