<svg width="41" height="41" viewBox="0 0 41 41" fill="none" xmlns="http://www.w3.org/2000/svg">
<g clip-path="url(#clip0_620_2578)">
<path fill-rule="evenodd" clip-rule="evenodd" d="M33.5553 22.9379V32.7948H27.9113V23.5934C27.9113 21.2799 27.0983 19.7083 25.0658 19.7083C24.432 19.7096 23.814 19.9111 23.2963 20.2851C22.7787 20.6591 22.3865 21.1874 22.1733 21.7979C22.0193 22.2451 21.9503 22.7184 21.9702 23.1921V32.7853H16.3417C16.3417 32.7853 16.4043 17.2076 16.3417 15.5944H21.9702V18.0311C21.9657 18.0534 21.9548 18.0741 21.9388 18.0903H21.9702V18.0311C22.4873 17.1289 23.235 16.3879 24.133 15.8876C25.031 15.3873 26.0453 15.1467 27.067 15.1915C30.7723 15.1995 33.5553 17.6553 33.5553 22.9379ZM10.0723 7.24202C10.4881 7.22429 10.9032 7.29207 11.293 7.44132C11.6827 7.59059 12.0393 7.81829 12.3414 8.11099C12.6436 8.40367 12.8853 8.75539 13.0522 9.14529C13.219 9.5352 13.3077 9.95539 13.3129 10.381C13.3182 10.8066 13.2398 11.2289 13.0826 11.623C12.9254 12.0171 12.6924 12.3749 12.3975 12.6752C12.1027 12.9756 11.7518 13.2124 11.3659 13.3716C10.9799 13.5309 10.5666 13.6093 10.1505 13.6022H10.1192C9.70286 13.6186 9.28756 13.5492 8.89793 13.3983C8.50829 13.2474 8.15228 13.018 7.85099 12.7237C7.54969 12.4294 7.30928 12.0762 7.14399 11.6851C6.97869 11.294 6.89191 10.8729 6.88876 10.4469C6.88563 10.0208 6.96619 9.59844 7.12569 9.20482C7.28519 8.8112 7.52038 8.45437 7.81729 8.15547C8.11421 7.85655 8.46681 7.62169 8.85416 7.46477C9.24153 7.30787 9.65576 7.23212 10.0723 7.24202ZM13.2461 32.7933H6.94538V15.2059H13.2461V32.7933Z" fill="white"/>
</g>
<defs>
<clipPath id="clip0_620_2578">
<rect width="40" height="40" fill="white" transform="translate(0.222656 0.0166016)"/>
</clipPath>
</defs>
</svg>
