<svg width="68" height="68" viewBox="0 0 68 68" fill="none" xmlns="http://www.w3.org/2000/svg">
<rect x="0.777344" y="0.0859375" width="67.2222" height="67.2222" rx="33.6111" fill="white" fill-opacity="0.23"/>
<path d="M49.837 27.0887L45.9113 31.0143C45.1183 40.2075 37.3654 47.3525 28.0869 47.3525C26.1805 47.3525 24.6089 47.0505 23.4155 46.4544C22.4531 45.9726 22.0592 45.4566 21.9607 45.3096C21.8729 45.1779 21.816 45.0281 21.7943 44.8713C21.7725 44.7145 21.7864 44.5549 21.835 44.4043C21.8836 44.2536 21.9657 44.116 22.075 44.0015C22.1843 43.887 22.318 43.7987 22.4662 43.7432C22.5004 43.7301 25.6488 42.5209 27.6484 40.2193C26.5394 39.3076 25.5714 38.2369 24.7757 37.042C23.1476 34.6249 21.3253 30.4261 21.8872 24.1516C21.905 23.9523 21.9794 23.7621 22.1017 23.6036C22.2239 23.4451 22.3889 23.3248 22.5772 23.257C22.7655 23.1891 22.9693 23.1764 23.1646 23.2205C23.3599 23.2646 23.5385 23.3635 23.6794 23.5057C23.7253 23.5516 28.0488 27.8515 33.3347 29.2458V28.4462C33.3327 27.6078 33.4984 26.7774 33.8222 26.004C34.146 25.2306 34.6213 24.5298 35.2201 23.9429C35.8016 23.3622 36.4935 22.9039 37.255 22.5949C38.0165 22.286 38.8321 22.1327 39.6538 22.1441C40.7561 22.155 41.8368 22.4509 42.7909 23.0031C43.745 23.5552 44.54 24.3449 45.0986 25.2952H49.0938C49.3017 25.295 49.5049 25.3565 49.6778 25.4719C49.8507 25.5873 49.9854 25.7514 50.065 25.9435C50.1446 26.1355 50.1654 26.3468 50.1248 26.5507C50.0842 26.7545 49.984 26.9418 49.837 27.0887Z" fill="white"/>
</svg>
