<svg width="46" height="45" viewBox="0 0 46 45" fill="none" xmlns="http://www.w3.org/2000/svg">
<path d="M19.1682 16.74L28.4924 22.3168L19.1682 27.9721V16.74ZM22.9154 11.249C22.9154 11.249 16.6715 11.249 12.4265 11.535C11.8626 11.5475 11.3068 11.6714 10.7911 11.8997C10.2755 12.1279 9.81011 12.4559 9.42191 12.8648C8.74206 13.7947 8.31202 14.8832 8.17286 16.0264C8.17286 16.0264 7.88672 18.6003 7.88672 21.227V23.6465C7.88672 26.2203 8.17286 28.8457 8.17286 28.8457C8.31184 29.9891 8.74189 31.0775 9.42191 32.0073C10.2952 32.8657 11.4476 33.3823 12.6697 33.4631C15.082 33.749 22.8653 33.749 22.8653 33.749C22.8653 33.749 29.1091 33.749 33.3541 33.3744C33.9168 33.3609 34.4712 33.2366 34.9855 33.0084C35.5 32.7802 35.9641 32.4527 36.3515 32.0445C37.0315 31.1143 37.4615 30.0253 37.6006 28.8815C37.6006 28.8815 37.8867 26.3077 37.8867 23.6823V21.2343C37.88 19.497 37.7845 17.7611 37.6006 16.0336C37.4615 14.8908 37.0315 13.8027 36.3515 12.8734C35.9909 12.4327 35.5317 12.0827 35.0112 11.8515C34.4907 11.6203 33.9232 11.5144 33.3541 11.5422C29.1505 11.2562 22.9096 11.2562 22.9096 11.2562L22.9154 11.249Z" fill="white"/>
</svg>
