<svg width="46" height="46" viewBox="0 0 46 46" fill="none" xmlns="http://www.w3.org/2000/svg">
<rect x="0.913333" y="0.913333" width="43.2311" height="43.2311" rx="21.6156" stroke="white" stroke-width="1.82667"/>
<path d="M33.5969 17.3762C33.3376 16.4123 32.5777 15.6524 31.6139 15.3929C29.8532 14.9111 22.8103 14.9111 22.8103 14.9111C22.8103 14.9111 15.7676 14.9111 14.0069 15.3746C13.0617 15.6339 12.2832 16.4124 12.0239 17.3762C11.5605 19.1367 11.5605 22.7879 11.5605 22.7879C11.5605 22.7879 11.5605 26.4575 12.0239 28.1996C12.2834 29.1634 13.0432 29.9233 14.0071 30.1828C15.7862 30.6647 22.8105 30.6647 22.8105 30.6647C22.8105 30.6647 29.8532 30.6647 31.6139 30.2012C32.5778 29.9418 33.3376 29.182 33.5972 28.2182C34.0604 26.4575 34.0604 22.8065 34.0604 22.8065C34.0604 22.8065 34.0789 19.1367 33.5969 17.3762ZM20.568 26.161V19.4148L26.4245 22.7879L20.568 26.161Z" fill="white"/>
</svg>
