<svg width="229" height="44" viewBox="0 0 229 44" fill="none" xmlns="http://www.w3.org/2000/svg">
<mask id="mask0_353_38" style="mask-type:luminance" maskUnits="userSpaceOnUse" x="0" y="0" width="229" height="44">
<path d="M228.344 0H0V44H228.344V0Z" fill="white"/>
</mask>
<g mask="url(#mask0_353_38)">
<path d="M11.1743 16.9393C12.3351 15.7093 12.9885 14.0434 12.9885 12.2334V6.9493C12.9885 3.40138 10.4486 0.361328 6.53131 0.361328H0V43.6373H7.25525C11.1743 43.6373 13.7125 40.5972 13.7125 37.0494V22.2216C13.7125 20.0496 12.7684 18.0955 11.1726 16.9376L11.1743 16.9393ZM3.33787 3.54548H6.53131C8.48999 3.54548 9.72294 5.06551 9.72294 6.73139V12.4495C9.72294 14.1136 8.48999 15.5616 6.60353 15.6337H3.33787V3.54548ZM10.4486 37.2655C10.4486 39.0035 9.21574 40.4514 7.25525 40.4514H3.33787V18.8196H7.25525C9.21394 18.8196 10.4486 20.3396 10.4486 22.0055V37.2673V37.2655Z" fill="black" stroke="black"/>
<path d="M21.549 0.361328H18.2129V43.6373H31.9976V40.4531H21.549V0.361328Z" fill="black" stroke="black"/>
<path d="M45.3488 37.5572C45.3488 39.2952 44.1159 40.8152 42.1554 40.8152H41.4298C39.4711 40.8152 38.2363 39.2952 38.2363 37.5572V0.361328H34.8984V37.3393C34.8984 40.8873 37.4384 43.9993 41.4298 43.9993H42.1554C46.1467 43.9993 48.6849 40.8873 48.6849 37.3393V0.361328H45.3471V37.5572H45.3488Z" fill="black" stroke="black"/>
<path d="M57.1054 18.8213H65.3769V15.6354H57.1054V3.54548H66.8284V0.361328H53.7676V43.6373H67.5541V40.4531H57.1054V18.8213Z" fill="black" stroke="black"/>
<path d="M90.8446 16.9393C92.0053 15.7093 92.6589 14.0434 92.6589 12.2334V6.9493C92.6589 3.40138 90.1188 0.361328 86.2015 0.361328H79.6719V43.6373H86.9272C90.8463 43.6373 93.3845 40.5972 93.3845 37.0494V22.2216C93.3845 20.0496 92.4422 18.0955 90.8446 16.9376V16.9393ZM83.008 3.54724H86.2015C88.1602 3.54724 89.3931 5.06727 89.3931 6.73315V12.4513C89.3931 14.1154 88.1602 15.5633 86.2737 15.6354H83.008V3.54548V3.54724ZM90.1188 37.2673C90.1188 39.0052 88.8859 40.4531 86.9254 40.4531H83.008V18.8213H86.9254C88.8842 18.8213 90.1188 20.3414 90.1188 22.0072V37.269V37.2673Z" fill="black" stroke="black"/>
<path d="M108.185 37.5572C108.185 39.2952 106.952 40.8152 104.992 40.8152H104.266C102.307 40.8152 101.073 39.2952 101.073 37.5572V0.361328H97.7344V37.3393C97.7344 40.8873 100.275 43.9993 104.266 43.9993H104.992C108.983 43.9993 111.521 40.8873 111.521 37.3393V0.361328H108.183V37.5572H108.185Z" fill="black" stroke="black"/>
<path d="M123.713 0H122.986C118.995 0 116.455 3.11211 116.455 6.66001V43.638H119.793V6.44211C119.793 4.70419 121.026 3.18416 122.986 3.18416H123.713C125.671 3.18416 126.906 4.70419 126.906 6.44211V43.638H130.243V6.66001C130.243 3.11211 127.703 0 123.713 0Z" fill="black" stroke="black"/>
<path d="M142.288 0H141.562C137.57 0 135.031 3.11211 135.031 6.66001V37.34C135.031 40.96 137.57 44 141.562 44H142.288C146.28 44 148.817 40.96 148.817 37.34V15.6361H139.82V18.822H145.48V37.5579C145.48 39.2958 144.247 40.8159 142.288 40.8159H141.562C139.604 40.8159 138.371 39.2958 138.371 37.5579V6.44211C138.371 4.70419 139.604 3.18416 141.562 3.18416H142.288C144.247 3.18416 145.48 4.70419 145.48 6.44211V9.04812H148.817V6.66001C148.817 3.11211 146.277 0 142.288 0Z" fill="black" stroke="black"/>
<path d="M176.827 0.724609H173.488V44.0006H187.275V40.8165H176.827V0.724609Z" fill="black" stroke="black"/>
<path d="M196.272 0H195.546C191.555 0 189.016 3.11211 189.016 6.66001V37.34C189.016 40.96 191.556 44 195.546 44H196.272C200.263 44 202.803 40.96 202.803 37.34V6.66001C202.803 3.11211 200.263 0 196.272 0ZM199.466 37.5579C199.466 39.2958 198.232 40.8159 196.272 40.8159H195.546C193.587 40.8159 192.353 39.2958 192.353 37.5579V6.44211C192.353 4.70419 193.586 3.18416 195.546 3.18416H196.272C198.231 3.18416 199.466 4.70419 199.466 6.44211V37.5561V37.5579Z" fill="black" stroke="black"/>
<path d="M225.006 0.361328V37.8454C225.006 39.5833 224.28 40.8135 222.321 40.8135C220.363 40.8135 219.636 39.5833 219.636 37.8454V0.361328H216.299V37.8454C216.299 39.5833 215.573 40.8135 213.614 40.8135C211.656 40.8135 210.93 39.5833 210.93 37.8454V0.361328H207.592V37.6293C207.592 41.2492 209.625 43.9993 213.614 43.9993C215.501 43.9993 216.952 43.3474 217.969 42.3334C218.985 43.3474 220.435 43.9993 222.323 43.9993C226.315 43.9993 228.345 41.2475 228.345 37.6293V0.361328H225.006Z" fill="black" stroke="black"/>
<path d="M170.381 24.9489C168.998 24.9999 168.147 25.0297 167.232 24.4639V7.02134C167.232 3.47343 164.691 0.361328 160.7 0.361328H159.974C155.983 0.361328 153.445 3.47343 153.445 7.02134V43.9993H156.783V19.5014C158.23 19.7949 160.098 20.6331 161.682 22.8385C162.502 23.9771 163.226 24.8698 163.893 25.5692V43.9993H167.232V27.7728C167.922 27.9626 168.634 28.0189 169.424 28.0189C169.764 28.0189 170.118 28.0082 170.493 27.996C170.791 27.9854 171.106 27.9732 171.444 27.9661L171.381 24.9191C171.025 24.926 170.694 24.9384 170.381 24.9506V24.9489ZM156.783 16.4122V6.8052C156.783 5.06727 158.016 3.54724 159.976 3.54724H160.701C162.66 3.54724 163.895 5.06727 163.895 6.8052V20.7015C161.586 17.6984 158.84 16.6951 156.784 16.4139L156.783 16.4122Z" fill="black" stroke="black"/>
</g>
</svg>
