<svg width="71" height="43" viewBox="0 0 71 43" fill="none" xmlns="http://www.w3.org/2000/svg">
<g clip-path="url(#clip0_195_48)">
<mask id="mask0_195_48" style="mask-type:luminance" maskUnits="userSpaceOnUse" x="0" y="0" width="71" height="43">
<path d="M71 0H0V43H71V0Z" fill="black"/>
</mask>
<g mask="url(#mask0_195_48)">
<path d="M42.4274 18.3744C40.5842 18.3334 39.7025 17.9588 38.844 16.9781C37.9854 15.9976 37.7002 14.5951 37.7002 12.9153L37.6763 1.91521L41.6488 1.0185C41.7647 0.992864 41.8847 0.993884 42.0002 1.02148C42.1156 1.04909 42.2237 1.10258 42.3165 1.1781C42.4092 1.25362 42.4845 1.34928 42.5367 1.45816C42.5889 1.56705 42.6168 1.68645 42.6184 1.80773L42.6325 3.69329H45.8796V7.79811H42.6325V12.4864C42.6325 13.1006 42.7823 13.5349 43.0817 13.7896C43.3813 14.044 43.8406 14.1717 44.4597 14.1724C45.0614 14.168 45.6584 14.0644 46.2279 13.8653V17.6957C45.1692 18.1441 44.2766 18.4123 42.4254 18.3693" fill="black"/>
<path d="M17.1183 11.0155L15.088 10.7145C15.0547 10.7095 15.0243 10.6924 15.0024 10.6664C14.9805 10.6404 14.9684 10.6071 14.9684 10.5727C14.9684 10.5383 14.9805 10.5051 15.0024 10.4791C15.0243 10.4531 15.0547 10.436 15.088 10.431L17.1183 10.131C17.5549 10.0445 17.9696 9.86774 18.3371 9.61166C18.7046 9.35557 19.0172 9.0255 19.2557 8.64162L22.5839 3.27567H16.7582L13.1157 10.1177H12.8736V2.79353C12.8736 2.57634 12.7892 2.36804 12.6391 2.21446C12.489 2.06089 12.2853 1.97461 12.073 1.97461H7.82526V17.8821H12.8736V11.0236H13.1157L16.3739 17.144C16.4897 17.3625 16.6612 17.5449 16.8702 17.672C17.079 17.799 17.3177 17.866 17.5606 17.8657H22.5839L19.2557 12.5059C19.0172 12.122 18.7046 11.7919 18.3371 11.5358C17.9696 11.2798 17.5549 11.102 17.1183 11.0155Z" fill="black"/>
<path d="M29.1958 6.39165C30.8769 6.39165 31.5123 7.57805 31.5123 9.13911H26.7862C26.7862 7.51152 27.4166 6.39165 29.1958 6.39165ZM34.3322 14.288C34.2938 14.1805 34.2339 14.0823 34.1561 13.9999C34.0784 13.9176 33.9847 13.8528 33.8809 13.8098C33.7772 13.7667 33.6658 13.7464 33.5539 13.7502C33.4421 13.7539 33.3322 13.7817 33.2314 13.8316C32.2237 14.3415 31.0963 14.5525 29.9774 14.4405C28.5033 14.2819 27.1755 13.5511 26.8503 12.2756H35.6481C35.6481 12.2756 35.8773 11.7576 35.9533 10.4115C36.2425 5.30352 33.0684 2.77203 29.1828 2.77203C25.1401 2.77203 21.783 5.23902 21.783 10.6316C21.783 15.1909 25.0621 18.3745 29.7572 18.3745C31.7585 18.3745 33.7888 17.8545 35.0607 17.0171L35.2198 16.9148V16.8953C35.2198 16.8953 34.7265 15.3977 34.3342 14.2912" fill="black"/>
<path d="M54.7011 14.1949C52.6298 14.1652 51.8283 12.9737 51.8583 10.8742C51.8883 8.77469 53.3172 6.65575 54.7602 6.6537C56.061 6.6537 57.541 8.86171 57.511 10.9612C57.4809 13.0607 56.4853 14.2215 54.6972 14.1949H54.7011ZM54.6822 2.77203C50.0652 2.77203 47.1613 6.02826 47.1613 10.5732C47.1613 15.149 49.4718 18.3745 54.6822 18.3745C59.9856 18.3745 62.203 15.149 62.203 10.5732C62.203 6.02826 59.3572 2.77203 54.6822 2.77203Z" fill="black"/>
<path d="M47.5507 37.443H52.4828V20.8189C52.4826 20.6967 52.4557 20.5762 52.404 20.4661C52.3522 20.356 52.2771 20.2591 52.184 20.1825C52.0909 20.106 51.9823 20.0516 51.866 20.0236C51.7499 19.9956 51.6289 19.9945 51.5123 20.0205L47.5507 20.9152V37.443Z" fill="black"/>
<path d="M41.8396 31.7363C41.6608 31.7355 41.4868 31.7966 41.3461 31.9095C41.2053 32.0225 41.106 32.1807 41.0641 32.3586C40.8119 33.4498 40.1224 34.0323 39.0458 34.0323C37.3126 34.0323 36.3771 32.6483 36.3771 30.1127C36.3771 27.8546 36.9834 26.1932 38.8086 26.1932C40.1205 26.1932 40.7309 26.878 41.0431 27.9333C41.0918 28.1028 41.1928 28.2514 41.3309 28.3574C41.4691 28.4633 41.637 28.5207 41.8095 28.5209H45.9412C45.3478 24.8276 43.3225 22.3125 39.2149 22.3125C34.5979 22.3125 31.694 25.5687 31.694 30.1137C31.694 34.6895 34.0045 37.915 39.2149 37.915C43.869 37.915 45.4739 35.4337 45.9633 31.7373L41.8396 31.7363Z" fill="black"/>
<path d="M12.1456 31.7363C11.967 31.7366 11.7937 31.798 11.6531 31.9109C11.5126 32.0236 11.413 32.1812 11.3701 32.3586C11.118 33.4498 10.4285 34.0323 9.35281 34.0323C7.61866 34.0323 6.68306 32.6483 6.68306 30.1127C6.68306 27.8546 7.28946 26.1932 9.11565 26.1932C10.4265 26.1932 11.0369 26.878 11.3491 27.9333C11.3979 28.1028 11.4988 28.2514 11.637 28.3574C11.7751 28.4633 11.943 28.5207 12.1156 28.5209H16.2473C15.654 24.8276 13.6286 22.3125 9.52091 22.3125C4.9019 22.3115 2 25.5677 2 30.1127C2 34.6885 4.31051 37.914 9.52091 37.914C14.176 37.914 15.78 35.4326 16.2693 31.7363H12.1456Z" fill="black"/>
<path d="M31.7194 22.8446C30.9528 25.0844 28.8245 36.971 27.3105 38.6088C25.3411 41.2877 22.033 41.5701 18.927 40.1913L19.6475 36.0313C19.6475 36.0313 23.9502 37.5533 23.9993 34.9124H21.998C21.2825 34.9122 20.5869 34.6719 20.0179 34.228C19.4491 33.7842 19.0384 33.1614 18.849 32.4556L16.2693 22.8446H21.4036L24.0594 32.6061C24.0603 32.633 24.0662 32.6595 24.0771 32.684C24.0879 32.7085 24.1034 32.7306 24.1226 32.749C24.1418 32.7673 24.1643 32.7817 24.1889 32.7912C24.2135 32.8006 24.2397 32.8051 24.266 32.8042C24.2923 32.8033 24.3181 32.7972 24.3421 32.7861C24.3661 32.775 24.3876 32.7592 24.4056 32.7396C24.4236 32.7198 24.4376 32.6968 24.4468 32.6717C24.4561 32.6465 24.4605 32.6197 24.4596 32.5928L26.3999 22.8446H31.7194Z" fill="black"/>
<path d="M61.2635 25.9321C62.9446 25.9321 63.58 27.1185 63.58 28.6796H58.854C58.854 27.0509 59.4854 25.9321 61.2635 25.9321ZM66.3999 33.8274C66.3616 33.7199 66.3016 33.6218 66.2239 33.5393C66.1461 33.4569 66.0524 33.3922 65.9486 33.3492C65.8449 33.3062 65.7335 33.2858 65.6216 33.2896C65.5097 33.2933 65.4 33.3211 65.2991 33.3709C64.2922 33.8834 63.1646 34.0963 62.0451 33.985C60.5721 33.8254 59.2432 33.0946 58.919 31.819H67.7158C67.7158 31.819 67.946 31.301 68.022 29.955C68.3102 24.847 65.136 22.3155 61.2506 22.3155C57.2089 22.3155 53.8456 24.7825 53.8456 30.1751C53.8456 34.7344 57.1249 37.918 61.8209 37.918C63.8223 37.918 65.8525 37.398 67.1183 36.5605L67.2775 36.4583V36.4388C67.2775 36.4388 66.7841 34.9422 66.3918 33.8347" fill="black"/>
</g>
</g>
<defs>
<clipPath id="clip0_195_48">
<rect width="71" height="43" fill="black"/>
</clipPath>
</defs>
</svg>
