<svg width="71" height="43" viewBox="0 0 71 43" fill="none" xmlns="http://www.w3.org/2000/svg">
<g clip-path="url(#clip0_358_723)">
<mask id="mask0_358_723" style="mask-type:luminance" maskUnits="userSpaceOnUse" x="0" y="0" width="71" height="43">
<path d="M71 0H0V43H71V0Z" fill="white"/>
</mask>
<g mask="url(#mask0_358_723)">
<mask id="mask1_358_723" style="mask-type:luminance" maskUnits="userSpaceOnUse" x="0" y="0" width="71" height="43">
<path d="M71 0H0V43H71V0Z" fill="white"/>
</mask>
<g mask="url(#mask1_358_723)">
<path d="M42.4269 18.3744C40.5837 18.3334 39.702 17.9588 38.8435 16.9781C37.9849 15.9976 37.6997 14.5951 37.6997 12.9153L37.6758 1.91521L41.6483 1.0185C41.7642 0.992864 41.8842 0.993884 41.9997 1.02148C42.1151 1.04909 42.2232 1.10258 42.316 1.1781C42.4087 1.25362 42.484 1.34928 42.5362 1.45816C42.5884 1.56705 42.6163 1.68645 42.6179 1.80773L42.632 3.69329H45.8791V7.79811H42.632V12.4864C42.632 13.1006 42.7818 13.5349 43.0812 13.7896C43.3808 14.044 43.8401 14.1717 44.4592 14.1724C45.0609 14.168 45.6579 14.0644 46.2274 13.8653V17.6957C45.1687 18.1441 44.2761 18.4123 42.4249 18.3693" fill="black"/>
<path d="M17.1192 11.0155L15.0889 10.7145C15.0556 10.7095 15.0252 10.6924 15.0033 10.6664C14.9814 10.6404 14.9693 10.6071 14.9693 10.5727C14.9693 10.5383 14.9814 10.5051 15.0033 10.4791C15.0252 10.4531 15.0556 10.436 15.0889 10.431L17.1192 10.131C17.5558 10.0445 17.9705 9.86774 18.338 9.61166C18.7055 9.35557 19.0181 9.0255 19.2566 8.64162L22.5848 3.27567H16.7591L13.1166 10.1177H12.8745V2.79353C12.8745 2.57634 12.7901 2.36804 12.64 2.21446C12.4899 2.06089 12.2862 1.97461 12.0739 1.97461H7.82617V17.8821H12.8745V11.0236H13.1166L16.3748 17.144C16.4906 17.3625 16.6621 17.5449 16.8711 17.672C17.0799 17.799 17.3186 17.866 17.5615 17.8657H22.5848L19.2566 12.5059C19.0181 12.122 18.7055 11.7919 18.338 11.5358C17.9705 11.2798 17.5558 11.102 17.1192 11.0155Z" fill="black"/>
<path d="M29.196 6.3911C30.8771 6.3911 31.5125 7.5775 31.5125 9.13856H26.7864C26.7864 7.51097 27.4168 6.3911 29.196 6.3911ZM34.3324 14.2875C34.294 14.18 34.2341 14.0818 34.1563 13.9994C34.0786 13.9171 33.9849 13.8523 33.8811 13.8093C33.7774 13.7662 33.666 13.7459 33.5541 13.7497C33.4423 13.7534 33.3324 13.7812 33.2316 13.8311C32.2239 14.341 31.0965 14.552 29.9776 14.44C28.5035 14.2814 27.1757 13.5506 26.8505 12.2751H35.6483C35.6483 12.2751 35.8775 11.7571 35.9535 10.411C36.2427 5.30297 33.0686 2.77148 29.183 2.77148C25.1403 2.77148 21.7832 5.23847 21.7832 10.6311C21.7832 15.1904 25.0623 18.374 29.7574 18.374C31.7587 18.374 33.789 17.854 35.0609 17.0166L35.22 16.9143V16.8948C35.22 16.8948 34.7267 15.3972 34.3344 14.2907" fill="black"/>
<path d="M54.7019 14.1944C52.6306 14.1647 51.8291 12.9732 51.8591 10.8737C51.8891 8.77414 53.318 6.6552 54.761 6.65315C56.0618 6.65315 57.5418 8.86116 57.5118 10.9607C57.4817 13.0602 56.4861 14.221 54.698 14.1944H54.7019ZM54.683 2.77148C50.066 2.77148 47.1621 6.02771 47.1621 10.5727C47.1621 15.1485 49.4726 18.374 54.683 18.374C59.9864 18.374 62.2038 15.1485 62.2038 10.5727C62.2038 6.02771 59.358 2.77148 54.683 2.77148Z" fill="black"/>
<path d="M47.5508 37.4432H52.4829V20.8191C52.4827 20.6969 52.4558 20.5764 52.4041 20.4663C52.3523 20.3562 52.2772 20.2593 52.1841 20.1827C52.091 20.1062 51.9824 20.0518 51.8661 20.0238C51.75 19.9958 51.629 19.9947 51.5124 20.0207L47.5508 20.9154V37.4432Z" fill="black"/>
<path d="M41.839 31.7363C41.6602 31.7355 41.4862 31.7966 41.3455 31.9095C41.2047 32.0225 41.1054 32.1807 41.0635 32.3586C40.8113 33.4498 40.1218 34.0323 39.0452 34.0323C37.312 34.0323 36.3765 32.6483 36.3765 30.1127C36.3765 27.8546 36.9828 26.1932 38.808 26.1932C40.1199 26.1932 40.7303 26.878 41.0425 27.9333C41.0912 28.1028 41.1922 28.2514 41.3303 28.3574C41.4685 28.4633 41.6364 28.5207 41.8089 28.5209H45.9406C45.3472 24.8276 43.3219 22.3125 39.2143 22.3125C34.5973 22.3125 31.6934 25.5687 31.6934 30.1137C31.6934 34.6895 34.0039 37.915 39.2143 37.915C43.8684 37.915 45.4733 35.4337 45.9627 31.7373L41.839 31.7363Z" fill="black"/>
<path d="M12.1456 31.7363C11.967 31.7366 11.7937 31.798 11.6531 31.9109C11.5126 32.0236 11.413 32.1812 11.3701 32.3586C11.118 33.4498 10.4285 34.0323 9.35281 34.0323C7.61866 34.0323 6.68306 32.6483 6.68306 30.1127C6.68306 27.8546 7.28946 26.1932 9.11565 26.1932C10.4265 26.1932 11.0369 26.878 11.3491 27.9333C11.3979 28.1028 11.4988 28.2514 11.637 28.3574C11.7751 28.4633 11.943 28.5207 12.1156 28.5209H16.2473C15.654 24.8276 13.6286 22.3125 9.52091 22.3125C4.9019 22.3115 2 25.5677 2 30.1127C2 34.6885 4.31051 37.914 9.52091 37.914C14.176 37.914 15.78 35.4326 16.2693 31.7363H12.1456Z" fill="black"/>
<path d="M31.7196 22.8438C30.953 25.0835 28.8247 36.9701 27.3107 38.6079C25.3413 41.2868 22.0332 41.5692 18.9272 40.1904L19.6477 36.0304C19.6477 36.0304 23.9504 37.5524 23.9995 34.9115H21.9982C21.2827 34.9113 20.5871 34.671 20.0181 34.2271C19.4493 33.7833 19.0386 33.1606 18.8492 32.4548L16.2695 22.8438H21.4038L24.0596 32.6052C24.0605 32.6321 24.0664 32.6586 24.0773 32.6831C24.0881 32.7076 24.1036 32.7297 24.1228 32.7481C24.142 32.7664 24.1645 32.7808 24.1891 32.7903C24.2137 32.7997 24.2399 32.8042 24.2662 32.8033C24.2925 32.8024 24.3183 32.7963 24.3423 32.7852C24.3663 32.7741 24.3878 32.7584 24.4058 32.7388C24.4238 32.719 24.4378 32.6959 24.447 32.6708C24.4563 32.6456 24.4607 32.6188 24.4598 32.5919L26.4001 22.8438H31.7196Z" fill="black"/>
<path d="M61.2636 25.933C62.9447 25.933 63.5801 27.1194 63.5801 28.6805H58.8541C58.8541 27.0518 59.4855 25.933 61.2636 25.933ZM66.4 33.8283C66.3617 33.7208 66.3017 33.6227 66.224 33.5402C66.1462 33.4578 66.0525 33.3931 65.9487 33.3501C65.845 33.3071 65.7336 33.2867 65.6217 33.2905C65.5098 33.2942 65.4001 33.322 65.2992 33.3718C64.2923 33.8843 63.1647 34.0972 62.0452 33.9859C60.5722 33.8263 59.2433 33.0955 58.9191 31.8199H67.7159C67.7159 31.8199 67.9461 31.3019 68.0221 29.9559C68.3103 24.8479 65.1361 22.3164 61.2507 22.3164C57.209 22.3164 53.8457 24.7834 53.8457 30.176C53.8457 34.7353 57.125 37.9189 61.821 37.9189C63.8224 37.9189 65.8526 37.3989 67.1184 36.5614L67.2776 36.4592V36.4397C67.2776 36.4397 66.7842 34.9431 66.3919 33.8356" fill="black"/>
</g>
</g>
</g>
<defs>
<clipPath id="clip0_358_723">
<rect width="71" height="43" fill="white"/>
</clipPath>
</defs>
</svg>
