<svg width="281" height="44" viewBox="0 0 281 44" fill="none" xmlns="http://www.w3.org/2000/svg">
<g clip-path="url(#clip0_197_110)">
<path d="M46.0073 1.02518V17.2325H62.2754V1.02518L46.0073 1.02518Z" fill="black"/>
<path d="M23.6335 17.2513V33.4585H46.0472V17.2513H23.6335Z" fill="black"/>
<path d="M8.13843 1.05457V17.2619H24.4065L24.4065 1.05457L8.13843 1.05457Z" fill="black"/>
<path d="M5.63681e-06 17.2368L0 33.4441H8.13405V17.2368H5.63681e-06Z" fill="black"/>
<path d="M104.341 16.9277C104.341 27.2524 98.9179 33.7955 90.6636 33.7955C85.9639 33.7955 82.2282 31.5144 80.3603 27.8527H80.2398V44H73.4917V0.600249H79.9989V6.24282H80.1193C82.0475 2.46111 85.8434 0.120038 90.5428 0.120038C98.8577 0.0600111 104.341 6.60299 104.341 16.9277ZM97.4719 16.9277C97.4719 10.0846 94.158 5.70256 88.7956 5.70256C83.6742 5.70256 80.1796 10.1446 80.1796 16.9277C80.1796 23.7108 83.614 28.1528 88.7956 28.1528C94.0977 28.1528 97.4719 23.7708 97.4719 16.9277Z" fill="black"/>
<path d="M109.522 0.60024H115.909V6.12275H116.09C117.174 2.28101 120.127 0.0599976 123.983 0.0599976C124.947 0.0599976 125.79 0.240076 126.272 0.300103V6.54295C125.73 6.30284 124.585 6.18278 123.26 6.18278C118.922 6.18278 116.271 9.06409 116.271 13.6862V33.1952H109.522V0.60024Z" fill="black"/>
<path d="M127.598 16.9277C127.598 6.42293 133.804 0 143.143 0C152.482 0 158.688 6.42293 158.688 16.9277C158.688 27.4325 152.542 33.8555 143.143 33.8555C133.744 33.8555 127.598 27.4325 127.598 16.9277ZM151.819 16.9277C151.819 9.72444 148.385 5.5225 143.143 5.5225C137.901 5.5225 134.467 9.66441 134.467 16.9277C134.467 24.191 137.901 28.3329 143.143 28.3329C148.385 28.3329 151.819 24.191 151.819 16.9277Z" fill="black"/>
<path d="M194.719 16.9277C194.719 27.2524 189.296 33.7955 181.042 33.7955C176.342 33.7955 172.607 31.5144 170.739 27.8527H170.558V44H163.81V0.600249H170.317V6.24282H170.437C172.365 2.46111 176.161 0.120038 180.861 0.120038C189.236 0.0600111 194.719 6.60299 194.719 16.9277ZM187.79 16.9277C187.79 10.0846 184.476 5.70256 179.114 5.70256C173.992 5.70256 170.498 10.1446 170.498 16.9277C170.498 23.7108 173.932 28.1528 179.114 28.1528C184.476 28.1528 187.79 23.7708 187.79 16.9277Z" fill="black"/>
<path d="M203.455 34.0956V1.86086H223.64V6.18282H208.456V16.3875H222.375V20.5894H208.456V34.0956H203.455Z" fill="black"/>
<path d="M236.052 34.0956V6.18282H226.171V1.86086H250.995V6.18282H241.113V34.0956H236.052Z" fill="black"/>
<path d="M263.768 17.9482V17.7681L253.164 1.86086H259.128L267.082 14.3465H267.263L275.336 1.86086H281L270.034 17.9482V18.0683L280.759 34.0356H274.915L266.901 21.7299H266.72L258.586 34.0956H253.043L263.768 17.9482Z" fill="black"/>
</g>
<defs>
<clipPath id="clip0_197_110">
<rect width="281" height="44" fill="black"/>
</clipPath>
</defs>
</svg>
