<svg width="219" height="44" viewBox="0 0 219 44" fill="none" xmlns="http://www.w3.org/2000/svg">
<path d="M49.6337 32.724C48.3378 32.3912 47.4036 32.0282 46.8311 31.6047L48.1872 28.3678C49.6939 29.4266 51.4418 29.9711 53.4006 29.9711C55.3594 29.9711 56.3238 29.3964 56.3238 28.2468C56.3238 27.7326 56.1128 27.3393 55.7211 27.067C55.3293 26.7948 54.606 26.462 53.5513 26.0688L52.1048 25.5242C50.598 24.9192 49.3926 24.1932 48.4885 23.3159C47.6146 22.4689 47.1625 21.3496 47.1625 19.9278C47.1625 18.3245 47.7954 17.0842 49.031 16.1767C50.2967 15.2692 51.9541 14.8154 54.0636 14.8154C55.0882 14.8154 56.1128 14.9364 57.1374 15.1482C58.1319 15.3902 58.9154 15.6624 59.4277 16.0255L57.9511 19.2926C57.6196 18.9598 57.1073 18.6875 56.384 18.4455C55.6608 18.2035 54.8471 18.0825 53.9732 18.0825C52.1651 18.0825 51.261 18.627 51.261 19.7161C51.261 20.3211 51.5021 20.8051 51.9842 21.1076C52.4664 21.4404 53.2499 21.7731 54.3348 22.1664C54.4252 22.1966 54.817 22.3176 55.5101 22.5899C57.1374 23.2252 58.3429 23.9512 59.1264 24.768C59.9099 25.5848 60.3017 26.6133 60.3017 27.8838C60.3017 29.6081 59.6387 30.9089 58.3429 31.8164C57.047 32.6937 55.3896 33.1475 53.3705 33.1475C52.1952 33.1777 50.9295 33.0265 49.6337 32.724Z" fill="black"/>
<path d="M62.7432 15.2994H66.6909V18.5363C68.0772 16.0557 70.2771 14.8457 73.2304 14.8457C75.7015 14.8457 77.6904 15.6322 79.1972 17.2052C80.704 18.7783 81.4875 21.0169 81.4875 23.9814C81.4875 25.8268 81.1259 27.4301 80.3725 28.8216C79.6191 30.2131 78.6246 31.3022 77.3288 32.0584C76.0631 32.8147 74.6166 33.208 73.0495 33.208C71.5729 33.208 70.3072 32.9357 69.2223 32.4215C68.1374 31.9072 67.2936 31.1509 66.6909 30.1829L66.7211 42.1018H62.7432V15.2994ZM75.9124 28.1258C76.7864 27.067 77.2384 25.7057 77.2384 24.0722C77.2384 22.3479 76.7864 20.9563 75.9124 19.9278C75.0385 18.8993 73.7728 18.385 72.0852 18.385C71.1811 18.385 70.3072 18.5968 69.5237 19.0505C68.7402 19.5043 68.0772 20.1396 67.6251 20.9563C67.143 21.7731 66.932 22.7412 66.932 23.8302V24.1024C66.932 25.1915 67.1731 26.1595 67.6251 27.0065C68.1073 27.8536 68.71 28.5191 69.4935 29.0031C70.2771 29.4871 71.151 29.6989 72.0852 29.6989C73.7427 29.7291 75.0084 29.1846 75.9124 28.1258Z" fill="black"/>
<path d="M87.3324 32.0585C86.0065 31.3022 84.9517 30.2434 84.138 28.8519C83.3545 27.4603 82.9326 25.857 82.9326 23.9815C82.9326 22.1361 83.2942 20.5328 83.9874 19.1715C84.6805 17.8103 85.675 16.7212 86.9708 15.9649C88.2666 15.2087 89.7734 14.8154 91.5213 14.8154C92.5459 14.8154 93.4801 14.9969 94.3842 15.3599C95.2581 15.7229 96.0115 16.1465 96.6142 16.691C97.2169 17.2052 97.6388 17.7195 97.8196 18.2338L97.91 15.2994H101.828V32.8147H97.9402L97.8497 29.7291C97.4278 30.6367 96.6443 31.4534 95.4992 32.1492C94.354 32.845 93.0883 33.208 91.6719 33.208C90.1049 33.1777 88.6584 32.8147 87.3324 32.0585ZM96.0115 28.2468C97.0059 27.2486 97.4881 25.9175 97.4881 24.284V24.0117C97.4881 22.9227 97.247 21.9244 96.795 21.0774C96.343 20.2001 95.7101 19.5346 94.9266 19.0505C94.1431 18.5665 93.2691 18.3245 92.3349 18.3245C90.7076 18.3245 89.472 18.8388 88.568 19.8976C87.694 20.9564 87.242 22.3176 87.242 24.0117C87.242 25.7058 87.694 27.0973 88.568 28.1561C89.4419 29.2149 90.7076 29.7291 92.3651 29.7291C93.8116 29.7594 95.017 29.2451 96.0115 28.2468Z" fill="black"/>
<path d="M108.911 32.0585C107.525 31.3022 106.44 30.2131 105.626 28.8216C104.813 27.3998 104.421 25.736 104.421 23.8302C104.421 22.0151 104.783 20.4421 105.536 19.0808C106.289 17.7195 107.344 16.6607 108.7 15.9347C110.056 15.2087 111.623 14.8154 113.401 14.8154C114.757 14.8154 115.903 14.9969 116.867 15.3297C117.831 15.6624 118.615 16.086 119.157 16.6002L117.319 19.9278C116.264 18.869 115.059 18.3245 113.703 18.3245C112.075 18.3245 110.84 18.8085 109.996 19.8068C109.152 20.8051 108.73 22.1361 108.73 23.7697C108.73 25.6453 109.182 27.1275 110.056 28.1561C110.93 29.1846 112.166 29.7291 113.733 29.7291C114.516 29.7291 115.3 29.6081 116.023 29.3964C116.746 29.1846 117.349 28.9124 117.741 28.6098L119.217 31.5139C118.675 31.9374 117.892 32.3307 116.867 32.6635C115.872 32.9962 114.757 33.1777 113.552 33.1777C111.864 33.1777 110.297 32.8147 108.911 32.0585Z" fill="black"/>
<path d="M124.28 31.9374C122.894 31.1207 121.869 30.0014 121.206 28.6098C120.543 27.2183 120.212 25.7058 120.212 24.042C120.212 22.1966 120.604 20.5631 121.357 19.1715C122.141 17.78 123.195 16.691 124.582 15.9347C125.938 15.1784 127.505 14.8154 129.222 14.8154C131.905 14.8154 133.893 15.5717 135.219 17.054C136.515 18.5363 137.178 20.6236 137.178 23.3159C137.178 24.0117 137.148 24.7075 137.058 25.4637H124.521C124.793 27.0065 125.365 28.1258 126.179 28.8216C126.992 29.5174 128.138 29.8501 129.614 29.8501C130.82 29.8501 131.844 29.7594 132.628 29.5476C133.411 29.3359 134.135 29.0636 134.798 28.7006L136.063 31.6349C135.43 32.0282 134.556 32.3912 133.472 32.6937C132.387 32.9962 131.061 33.1475 129.524 33.1475C127.414 33.1777 125.697 32.7845 124.28 31.9374ZM133.2 22.6202C133.23 21.0471 132.869 19.9278 132.176 19.2926C131.452 18.6573 130.458 18.3245 129.132 18.3245C126.48 18.3245 124.943 19.7766 124.521 22.6504H133.2V22.6202Z" fill="black"/>
<path d="M139.468 15.2994H143.566V18.748C143.958 17.5682 144.621 16.6305 145.555 15.9347C146.459 15.2087 147.514 14.8759 148.659 14.8759C149.473 14.8759 150.015 14.9667 150.316 15.1179L149.744 19.2623C149.503 19.111 149.021 19.0203 148.267 19.0203C147.062 19.0203 146.007 19.4135 145.013 20.1698C144.048 20.9261 143.536 22.1664 143.536 23.8302V32.845H139.438V15.2994H139.468Z" fill="black"/>
<path d="M154.354 31.9374C152.968 31.1207 151.944 30.0014 151.281 28.6098C150.618 27.2183 150.286 25.7058 150.286 24.042C150.286 22.1966 150.678 20.5631 151.431 19.1715C152.215 17.78 153.27 16.691 154.656 15.9347C156.012 15.1784 157.579 14.8154 159.297 14.8154C161.979 14.8154 163.968 15.5717 165.294 17.054C166.589 18.5363 167.252 20.6236 167.252 23.3159C167.252 24.0117 167.222 24.7075 167.132 25.4637H154.596C154.867 27.0065 155.439 28.1258 156.253 28.8216C157.067 29.5174 158.212 29.8501 159.688 29.8501C160.894 29.8501 161.918 29.7594 162.702 29.5476C163.486 29.3359 164.209 29.0636 164.872 28.7006L166.137 31.6349C165.505 32.0282 164.631 32.3912 163.546 32.6937C162.461 32.9962 161.135 33.1475 159.598 33.1475C157.489 33.1777 155.741 32.7845 154.354 31.9374ZM163.244 22.6202C163.275 21.0471 162.913 19.9278 162.22 19.2926C161.497 18.6573 160.502 18.3245 159.176 18.3245C156.524 18.3245 154.987 19.7766 154.565 22.6504H163.244V22.6202Z" fill="black"/>
<path d="M169.635 15.2994H173.673L173.703 18.506C174.185 17.4472 174.939 16.57 175.993 15.8742C177.018 15.1784 178.254 14.8457 179.64 14.8457C181.448 14.8457 182.834 15.2087 183.768 15.9649C184.733 16.7212 185.366 17.7497 185.697 19.111C186.029 20.4723 186.179 22.2269 186.179 24.3747V32.8147H182.081V24.4957C182.081 22.2874 181.87 20.6841 181.448 19.7161C181.026 18.748 180.122 18.2338 178.796 18.2338C178.043 18.2338 177.259 18.4758 176.476 18.9295C175.692 19.4136 175.029 20.0791 174.517 20.9563C174.004 21.8336 173.733 22.8924 173.733 24.0722V32.7845H169.635V15.2994Z" fill="black"/>
<path d="M191.121 18.6573H188.047V15.2994H191.121V8.16018L195.249 7.25266V15.2994H199.287V18.6573H195.249V32.8147H191.121V18.6573Z" fill="black"/>
<path d="M204.108 32.0585C202.782 31.3022 201.727 30.2434 200.913 28.8519C200.13 27.4603 199.708 25.857 199.708 23.9815C199.708 22.1361 200.07 20.5328 200.763 19.1715C201.456 17.8103 202.45 16.7212 203.746 15.9649C205.042 15.2087 206.549 14.8154 208.297 14.8154C209.321 14.8154 210.255 14.9969 211.16 15.3599C212.033 15.7229 212.787 16.1465 213.39 16.691C213.992 17.2052 214.414 17.7195 214.595 18.2338L214.685 15.2994H218.603V32.8147H214.716L214.625 29.7291C214.203 30.6367 213.42 31.4534 212.275 32.1492C211.129 32.845 209.864 33.208 208.447 33.208C206.88 33.1777 205.434 32.8147 204.108 32.0585ZM212.787 28.2468C213.781 27.2486 214.264 25.9175 214.264 24.284V24.0117C214.264 22.9227 214.022 21.9244 213.57 21.0774C213.118 20.2001 212.486 19.5346 211.702 19.0505C210.918 18.5665 210.045 18.3245 209.11 18.3245C207.483 18.3245 206.247 18.8388 205.343 19.8976C204.469 20.9564 204.017 22.3176 204.017 24.0117C204.017 25.7058 204.469 27.0973 205.343 28.1561C206.217 29.2149 207.483 29.7291 209.11 29.7291C210.587 29.7594 211.792 29.2451 212.787 28.2468Z" fill="black"/>
<path d="M17.9608 31.0602C19.7388 31.0602 20.7333 29.0031 19.6183 27.6116L11.6022 17.5985C10.7886 16.57 10.3667 15.4809 10.2762 14.3011C10.1858 13.1213 10.3968 12.0626 10.879 11.034C11.3611 10.0358 12.0844 9.18873 13.0487 8.5232C14.0131 7.85768 15.1582 7.52492 16.454 7.52492H24.9222C27.0919 7.52492 27.8453 4.65108 25.9769 3.56205L20.3114 0.294947C19.6484 -0.0983156 18.8649 -0.0983156 18.2019 0.294947L1.05475 10.2173C0.391763 10.6105 0 11.3063 0 12.0626V28.9426C0 30.1224 0.934204 31.0602 2.10949 31.0602H17.9608Z" fill="black"/>
<path d="M21.427 14.0591C19.649 14.0591 18.6545 16.1162 19.7695 17.5077L27.7555 27.5208C28.5691 28.5493 28.991 29.6384 29.0814 30.8181C29.1718 31.9979 28.991 33.087 28.5089 34.0853C28.0267 35.0835 27.3034 35.9306 26.3692 36.5961C25.4049 37.2616 24.2597 37.5944 22.9639 37.5944H15.5505C13.3808 37.5944 12.6274 40.4682 14.4958 41.5572L18.1723 43.7051C18.8353 44.0983 19.6189 44.0983 20.2818 43.7051L37.3989 33.7827C38.0618 33.3895 38.4536 32.6937 38.4536 31.9374V16.2069C38.4536 15.0272 37.5194 14.0894 36.3441 14.0894H21.427V14.0591Z" fill="black"/>
</svg>
