<?xml version="1.0" standalone="no"?>
<!DOCTYPE svg PUBLIC "-//W3C//DTD SVG 20010904//EN"
 "http://www.w3.org/TR/2001/REC-SVG-20010904/DTD/svg10.dtd">
<svg version="1.0" xmlns="http://www.w3.org/2000/svg"
 width="1080.000000pt" height="857.000000pt" viewBox="0 0 1080.000000 857.000000"
 preserveAspectRatio="xMidYMid meet">

<g transform="translate(0.000000,857.000000) scale(0.100000,-0.100000)"
fill="black" stroke="none">
<path d="M5311 8154 c-51 -14 -222 -102 -1421 -734 -294 -155 -587 -309 -650
-342 -63 -34 -146 -78 -185 -98 -38 -21 -131 -69 -205 -108 -634 -332 -665
-350 -726 -405 -118 -109 -144 -188 -144 -445 0 -180 0 -183 -22 -192 -13 -5
-86 -34 -163 -66 -547 -221 -1090 -579 -1255 -827 -71 -106 -48 -180 109 -338
l86 -87 -17 -54 c-23 -73 -22 -170 3 -238 37 -100 38 -93 -19 -89 -27 2 -48 1
-45 -3 2 -5 -10 -8 -28 -8 -45 0 -175 -40 -160 -49 7 -5 -3 -14 -29 -26 -22
-10 -38 -20 -36 -23 3 -2 -12 -14 -34 -26 -39 -22 -165 -151 -136 -140 9 3 2
-9 -14 -27 -37 -39 -55 -69 -41 -69 5 0 13 5 16 10 3 5 11 10 16 10 5 0 0 -18
-11 -40 -22 -44 -25 -67 -9 -72 7 -2 7 -12 0 -31 -6 -16 -11 -38 -11 -50 1
-19 3 -18 17 8 9 17 32 50 51 75 33 43 35 44 29 15 -3 -16 -9 -39 -13 -50 -6
-18 -4 -17 19 4 15 14 25 26 24 28 -2 1 21 29 50 60 29 32 53 61 53 66 0 4 5
7 11 7 6 0 8 -9 3 -22 -4 -13 -9 -30 -11 -38 -3 -8 9 0 26 19 17 19 27 39 24
45 -3 6 -3 8 1 5 4 -4 27 14 52 40 l45 46 -6 -65 c-4 -44 -2 -58 4 -44 5 12
35 49 66 82 56 61 84 79 70 45 -5 -10 -8 -26 -9 -35 0 -9 -2 -15 -5 -12 -13
13 -86 -263 -97 -368 -9 -90 3 -209 20 -187 9 13 11 3 12 -46 0 -33 6 -70 12
-80 11 -19 11 -18 12 7 0 15 5 30 10 33 6 3 10 -1 10 -10 0 -15 39 -96 60
-125 9 -11 10 0 5 45 l-6 60 30 -50 c16 -28 37 -57 46 -65 18 -15 19 -20 -16
114 l-17 68 40 -38 c27 -26 38 -32 33 -19 -18 49 -35 110 -35 129 1 20 2 20
14 4 7 -10 17 -14 21 -10 5 4 5 2 1 -5 -6 -11 22 -68 30 -60 2 1 -3 21 -11 43
-13 37 -18 99 -16 189 l1 40 19 -29 19 -29 -5 102 c-6 100 -1 122 17 78 6 -16
9 -5 9 46 1 71 15 89 26 35 10 -47 98 -226 132 -269 15 -20 53 -66 84 -103 56
-66 57 -68 46 -104 -6 -20 -15 -40 -19 -43 -5 -3 -13 -34 -19 -70 -6 -35 -15
-74 -21 -86 -7 -13 -8 -45 -4 -80 4 -40 3 -53 -4 -43 -5 8 -10 23 -10 33 0 10
-4 15 -10 12 -5 -3 -10 1 -10 10 0 8 -7 18 -15 21 -8 3 -17 14 -20 25 -4 11
-11 17 -16 13 -5 -3 -27 12 -49 34 l-39 41 -6 -63 c-8 -74 7 -186 34 -248 10
-24 37 -63 60 -88 22 -24 41 -47 41 -51 0 -4 -16 -13 -35 -19 -19 -6 -33 -15
-30 -20 3 -5 -4 -12 -16 -15 -32 -11 -99 -75 -99 -96 0 -10 -9 -24 -20 -31
-11 -7 -20 -17 -20 -21 0 -5 -8 -21 -19 -35 -10 -15 -20 -38 -23 -52 -3 -14
-13 -42 -22 -63 -11 -25 -13 -36 -5 -31 9 5 10 2 4 -12 -4 -10 -10 -32 -13
-49 -4 -27 -3 -29 12 -16 15 12 16 8 16 -45 0 -39 3 -54 9 -45 7 11 11 5 16
-23 8 -40 13 -42 20 -5 12 65 18 80 25 72 5 -4 10 -19 12 -33 2 -16 13 11 33
79 29 102 29 103 40 70 l12 -33 12 59 c6 33 18 74 25 90 l13 30 12 -42 c6 -24
13 -43 15 -43 2 0 13 30 25 68 33 106 37 104 51 -20 15 -141 41 -242 81 -321
33 -67 65 -109 54 -72 -3 11 3 2 15 -20 11 -22 28 -47 37 -55 14 -14 15 -13
10 8 -4 19 1 16 40 -18 63 -55 82 -54 42 2 l-21 30 58 -33 59 -33 -24 34 c-13
19 -38 50 -55 67 -34 37 -33 39 17 18 51 -21 52 -20 8 24 -22 22 -45 50 -52
62 -12 23 -12 23 15 6 83 -54 83 -54 38 -3 -23 27 -42 53 -42 58 0 5 -6 6 -12
2 -7 -4 -10 -4 -6 0 3 4 0 23 -8 41 -20 48 -18 58 6 45 17 -9 14 0 -15 53 -40
73 -46 100 -14 71 18 -16 18 -13 -5 33 -33 65 -33 87 -1 46 43 -53 176 -155
245 -185 36 -16 82 -38 102 -49 37 -20 50 -15 26 9 -16 16 -8 15 35 -3 41 -17
61 -19 52 -6 -3 5 9 11 27 13 l33 3 -47 30 c-27 17 -48 33 -48 37 0 4 10 10
23 15 18 6 15 8 -23 13 l-45 5 29 16 30 17 -53 7 -54 7 27 22 27 21 -48 -4
-48 -3 25 21 c14 12 21 21 15 20 -5 -1 -28 -1 -50 0 l-40 2 40 22 40 22 -50 3
c-27 2 -54 8 -60 13 -7 7 -5 8 5 4 9 -3 24 1 35 9 19 15 19 15 -10 16 -33 1
-93 29 -62 30 17 0 24 16 8 22 -4 1 -12 14 -16 28 -7 22 -6 23 8 12 9 -8 22
-10 28 -6 7 4 9 3 5 -4 -3 -6 4 -18 16 -26 15 -11 24 -12 29 -5 5 8 12 8 27 0
33 -18 44 -14 31 10 -9 18 -8 20 8 16 19 -6 127 -28 153 -31 9 -1 20 -4 25 -7
6 -3 36 -14 68 -24 l57 -19 0 -97 c0 -113 21 -192 70 -269 49 -77 115 -129
256 -202 201 -105 314 -165 974 -513 195 -103 405 -213 465 -245 61 -32 272
-143 470 -247 198 -105 500 -263 670 -353 171 -89 319 -168 330 -175 30 -18
114 -43 170 -50 118 -15 134 -8 947 421 414 218 1048 552 1408 742 1054 554
968 505 1040 601 59 78 84 164 84 293 l1 107 80 22 c98 27 199 49 203 44 2 -2
-1 -13 -8 -25 -11 -20 -11 -21 26 -5 44 18 47 18 38 3 -9 -14 8 -5 54 29 41
31 51 24 22 -16 l-21 -31 22 0 c33 0 16 -11 -38 -25 l-47 -12 29 -16 30 -16
-54 -1 c-46 0 -52 -2 -41 -15 7 -8 21 -15 31 -15 41 0 16 -19 -28 -22 l-48 -3
30 -15 30 -15 -50 -5 -50 -6 29 -14 30 -15 -55 -10 -54 -11 30 -17 30 -16 -50
-1 c-49 -2 -50 -2 -21 -14 l29 -13 -54 -37 c-33 -23 -46 -37 -34 -36 34 4 46
0 40 -10 -8 -14 5 -13 53 4 26 9 44 11 47 5 4 -5 1 -8 -6 -7 -6 2 -14 -3 -17
-11 -2 -8 -1 -12 4 -9 5 3 57 28 115 56 110 53 227 138 267 195 29 41 30 12 1
-44 -20 -40 -20 -40 0 -30 19 11 19 10 9 -21 -6 -18 -22 -50 -35 -71 -24 -38
-24 -39 -3 -32 20 6 21 6 6 -29 -8 -20 -13 -45 -11 -55 2 -12 -1 -18 -8 -16
-7 2 -29 -19 -51 -47 l-38 -51 46 32 c25 18 46 28 46 23 0 -6 -21 -33 -46 -61
-47 -52 -48 -61 -4 -36 54 31 48 8 -15 -61 -25 -26 -43 -50 -40 -52 6 -6 77
38 93 56 11 14 12 14 12 0 0 -9 -4 -20 -10 -23 -5 -3 -15 -15 -20 -26 -18 -32
7 -23 57 24 l46 42 -7 -30 c-6 -29 -6 -29 10 -10 9 11 25 38 35 60 12 26 19
33 19 20 0 -30 41 35 74 119 30 75 66 259 66 337 0 27 4 49 9 49 10 0 51 -121
52 -158 1 -21 5 -14 19 27 l17 55 16 -45 c9 -24 23 -66 30 -94 14 -48 15 -49
16 -15 2 52 17 26 44 -74 22 -84 36 -96 38 -33 1 35 27 -42 28 -83 1 -26 4
-31 11 -20 5 8 10 28 10 43 0 16 4 26 9 23 12 -8 21 18 21 62 0 34 1 35 15 16
14 -18 15 -17 9 11 -4 17 -11 39 -17 50 -7 13 -6 20 1 23 8 2 7 14 -3 39 -8
19 -15 43 -15 52 0 9 -15 34 -32 56 -18 22 -26 35 -18 31 8 -5 5 2 -6 15 -12
13 -29 38 -37 55 -9 17 -35 44 -59 60 -24 16 -49 35 -56 42 -7 6 -19 12 -25
12 -7 0 -18 4 -26 9 -12 7 -4 21 36 65 29 31 58 76 68 103 18 51 32 239 21
270 -7 17 -8 17 -17 0 -6 -9 -14 -15 -20 -12 -5 4 -14 -5 -21 -20 -8 -18 -17
-24 -30 -19 -10 3 -18 1 -18 -4 0 -8 -11 -23 -50 -69 -5 -7 -10 -22 -10 -34 0
-12 -2 -20 -5 -17 -3 3 -7 47 -9 98 -3 51 -9 97 -15 103 -6 6 -11 23 -11 37 0
14 -9 43 -20 65 -11 22 -20 47 -20 56 0 9 27 46 60 82 33 36 60 68 60 71 0 4
9 17 21 29 25 26 117 216 126 258 11 55 23 41 23 -28 1 -62 2 -66 14 -44 l13
24 7 -26 c3 -15 4 -59 0 -99 -4 -56 -3 -69 6 -55 6 9 15 17 20 17 15 0 12
-117 -4 -185 -8 -33 -13 -62 -11 -64 3 -2 12 11 22 28 36 64 44 70 37 26 -4
-22 -15 -62 -25 -89 -10 -28 -17 -51 -15 -53 2 -2 20 15 40 38 37 44 46 37 25
-18 -14 -37 -38 -143 -33 -143 2 0 20 25 39 55 20 30 38 55 42 55 3 0 3 -21 0
-47 -5 -44 -4 -46 10 -28 9 11 28 47 44 80 23 49 28 55 29 33 0 -15 4 -29 9
-32 11 -7 21 41 22 103 0 34 3 41 8 26 14 -35 24 68 18 179 -7 110 -39 251
-85 370 -17 42 -27 76 -22 76 12 0 119 -112 125 -131 12 -37 22 -9 14 37 -5
26 -7 49 -6 51 5 4 92 -88 130 -137 l27 -35 -14 48 c-8 26 -13 47 -11 47 2 0
40 -45 86 -100 45 -55 84 -100 85 -100 2 0 -2 15 -8 33 -5 17 -12 41 -16 52
-7 24 44 -32 78 -85 l22 -35 -7 49 c-5 34 -3 46 5 41 13 -8 4 37 -17 79 -12
22 -12 31 -2 40 6 6 9 6 6 1 -3 -6 3 -17 14 -23 20 -13 20 -12 3 15 -10 15
-29 41 -43 57 -14 16 -20 26 -14 22 27 -15 0 23 -37 53 -22 18 -39 36 -37 42
1 6 -21 23 -50 39 -28 15 -50 30 -47 32 2 3 -14 13 -36 23 -23 10 -36 21 -30
25 14 9 -111 50 -151 50 -17 0 -28 4 -25 8 3 5 -17 7 -44 4 -56 -5 -62 5 -35
57 22 44 33 133 24 201 -10 69 -53 186 -95 257 l-29 48 -5 -35 c-5 -33 -8 -28
-43 68 -20 57 -37 109 -37 115 0 7 30 86 67 177 62 150 68 171 68 236 0 60 -4
77 -27 111 -95 144 -503 339 -1018 486 l-115 33 -6 169 c-4 115 -11 187 -22
221 -25 75 -89 168 -149 215 -60 46 -34 32 -733 399 -286 150 -560 294 -610
320 -1112 590 -1777 933 -1829 945 -76 18 -145 18 -215 -1z m344 -193 c382
-201 1531 -805 1685 -886 96 -51 225 -118 285 -150 61 -32 153 -80 205 -108
130 -68 194 -102 500 -263 382 -201 401 -223 408 -483 l4 -154 -23 6 c-13 4
-68 17 -121 29 l-97 22 -3 105 c-2 77 -6 105 -15 104 -7 -2 -10 3 -8 10 6 14
-52 50 -66 41 -5 -3 -8 -1 -7 4 4 14 -111 74 -125 65 -5 -3 -7 -2 -4 4 8 12
-61 46 -75 37 -7 -5 -8 -2 -3 6 6 10 4 12 -11 6 -10 -4 -15 -4 -11 0 8 9 -28
30 -233 136 -85 44 -160 85 -167 90 -7 5 -18 6 -24 2 -7 -4 -9 -3 -6 3 6 9
-140 89 -155 85 -5 -1 -8 2 -8 7 0 5 -15 15 -32 22 -18 7 -67 32 -110 55 -43
23 -78 39 -78 36 0 -4 -4 -2 -8 4 -4 6 -83 51 -177 100 -189 98 -239 125 -385
202 -56 29 -106 50 -113 46 -6 -4 -9 -3 -4 1 8 10 -25 29 -232 136 -84 43
-158 76 -165 72 -6 -3 -8 -3 -4 2 11 11 -29 38 -44 29 -6 -4 -8 -3 -5 3 8 13
-20 26 -35 16 -6 -3 -8 -1 -4 5 3 6 -4 14 -16 18 -13 4 -39 17 -58 29 -19 12
-42 20 -50 17 -8 -3 -12 -1 -8 3 7 7 -4 14 -207 120 -60 31 -147 77 -192 102
-47 25 -88 41 -95 37 -7 -4 -10 -3 -6 1 9 9 -103 75 -127 75 -13 0 -94 -40
-271 -135 -27 -15 -48 -31 -47 -35 2 -5 -5 -6 -14 -3 -12 5 -14 3 -8 -7 5 -8
4 -11 -3 -6 -13 8 -63 -14 -56 -25 3 -5 -3 -6 -12 -2 -13 5 -15 3 -9 -7 5 -8
4 -11 -3 -7 -5 4 -41 -9 -79 -29 -37 -20 -103 -55 -145 -77 -42 -22 -75 -44
-72 -49 3 -4 -3 -5 -12 -1 -13 5 -15 3 -9 -7 5 -9 4 -11 -4 -6 -6 4 -52 -14
-104 -42 -130 -70 -240 -128 -402 -212 -77 -40 -160 -84 -185 -98 -25 -13
-108 -57 -185 -97 -215 -113 -246 -131 -238 -140 5 -4 3 -5 -4 -1 -15 9 -84
-24 -76 -37 3 -6 2 -7 -4 -4 -5 3 -38 -9 -74 -27 -82 -42 -242 -127 -339 -179
-41 -22 -93 -49 -115 -60 -22 -11 -46 -24 -54 -30 -7 -6 -18 -12 -25 -13 -6
-1 -48 -23 -94 -48 -45 -25 -87 -46 -93 -46 -5 0 -7 -4 -4 -10 3 -6 -1 -7 -9
-4 -9 3 -16 1 -16 -5 0 -6 -3 -10 -7 -9 -5 1 -42 -16 -83 -37 -41 -22 -87 -46
-102 -53 -15 -8 -25 -19 -21 -25 3 -6 1 -7 -6 -3 -14 9 -78 -29 -92 -55 -5
-11 -10 -59 -9 -107 1 -48 1 -92 1 -99 -1 -10 -200 -83 -229 -83 -10 0 -12 33
-8 158 4 128 9 168 26 215 37 99 71 124 441 319 184 96 584 307 889 468 305
161 596 314 645 340 50 26 306 161 570 300 264 139 504 266 534 282 101 58
139 69 226 65 78 -3 85 -5 220 -76z m-45 -1231 c533 -39 983 -199 1425 -505
l40 -27 -65 5 c-36 3 -166 14 -290 26 -775 70 -1588 101 -2132 82 -189 -7
-390 -16 -448 -22 -218 -18 -257 -20 -227 -8 15 6 27 15 27 20 0 5 5 9 11 9 6
0 25 10 42 23 18 12 45 29 62 38 16 9 46 26 65 38 19 11 45 25 57 30 12 6 52
24 90 42 64 29 87 39 158 69 17 6 77 27 135 46 349 115 701 160 1050 134z
m-180 -540 c1052 -46 1798 -115 2510 -231 102 -16 192 -32 200 -36 8 -3 18 -5
23 -5 9 2 358 -68 368 -74 4 -2 26 -6 49 -9 24 -3 48 -9 54 -12 6 -4 17 -8 26
-9 26 -2 194 -45 205 -52 5 -3 16 -7 25 -8 73 -7 412 -119 575 -189 168 -72
312 -149 308 -165 -2 -5 3 -7 10 -4 7 2 39 -17 72 -44 54 -43 60 -52 63 -90 2
-30 -7 -66 -33 -129 -20 -49 -54 -132 -76 -187 l-41 -98 17 -52 c9 -28 42
-114 72 -191 62 -156 72 -204 52 -241 -15 -28 -62 -57 -74 -46 -3 4 -5 1 -3
-7 8 -35 -283 -188 -506 -267 -278 -98 -811 -244 -836 -229 -4 3 -10 2 -12 -3
-3 -8 -52 -18 -348 -73 -608 -113 -1288 -185 -2360 -251 -123 -7 -446 -12
-805 -12 -613 -1 -670 2 -1095 45 -380 38 -855 122 -1140 199 -41 12 -86 23
-100 26 -82 16 -358 101 -377 117 -7 5 -13 7 -13 4 0 -10 -256 82 -430 155
-175 74 -229 101 -223 111 3 6 1 7 -5 3 -6 -4 -62 20 -124 52 -217 113 -271
146 -260 157 4 5 2 5 -4 2 -7 -4 -23 2 -37 13 -14 11 -28 20 -31 20 -18 0
-185 124 -179 133 3 5 2 7 -3 4 -23 -14 -302 242 -288 265 4 6 3 8 -3 5 -5 -4
-16 5 -23 19 -12 22 -12 30 5 60 23 42 153 177 216 225 25 19 80 60 122 92
226 170 627 382 970 513 49 19 94 31 99 27 6 -3 8 -2 5 4 -7 11 302 115 523
177 546 153 1194 250 1890 285 245 12 704 12 970 1z m-3935 -2190 c2 0 2 7 -1
15 -8 19 1 19 34 1 36 -19 232 -103 354 -152 l98 -39 0 -207 c0 -146 -3 -209
-12 -214 -6 -4 -8 -3 -5 3 8 12 -48 65 -58 55 -4 -4 -5 -2 -3 5 5 19 -175 167
-415 340 -70 51 -95 74 -83 78 52 16 52 17 15 34 -20 9 -34 21 -32 28 5 13
-67 27 -96 18 -11 -3 -22 -2 -25 4 -10 15 82 47 96 33 22 -22 29 -12 13 18
-23 44 -19 45 31 3 l47 -38 -23 45 -23 45 42 -38 c22 -20 43 -37 46 -37z
m7939 -57 c4 -4 -12 -14 -35 -23 l-42 -17 31 -11 c18 -6 32 -13 32 -15 0 -2
-47 -37 -104 -77 -58 -41 -102 -78 -100 -82 3 -5 1 -7 -4 -6 -12 4 -190 -134
-277 -214 l-70 -65 3 173 3 173 42 11 c97 26 338 101 412 129 86 32 98 35 109
24z m-8163 -178 c7 -7 10 -7 9 0 -6 27 3 24 36 -11 l36 -39 -6 33 c-6 37 -8
37 64 -12 145 -99 329 -284 502 -505 l68 -86 0 -254 c0 -206 -2 -252 -13 -248
-8 3 -74 17 -148 32 -172 35 -168 34 -146 46 27 16 20 32 -12 27 -17 -2 -28
-1 -25 4 9 15 -51 8 -74 -8 -13 -9 -26 -13 -29 -10 -11 11 39 55 66 58 l26 3
-35 22 c-40 26 -24 29 35 8 l40 -14 -28 24 -27 24 30 -2 c16 -1 30 -5 30 -8 0
-4 8 -10 18 -13 10 -4 6 4 -11 19 -33 29 -25 31 29 9 l39 -16 -25 27 c-22 25
-23 27 -5 22 11 -3 34 -9 50 -12 27 -6 28 -5 13 8 -29 23 -21 27 20 10 l37
-15 -19 21 -19 21 54 0 c47 1 52 2 37 14 -10 7 -15 16 -12 19 3 3 -23 12 -58
20 -35 8 -57 16 -50 16 6 1 12 4 12 9 0 10 -61 9 -77 -1 -6 -4 -15 -3 -18 3
-10 16 -132 4 -195 -20 -30 -12 -64 -23 -75 -24 -11 -2 -33 -9 -48 -15 -45
-18 -52 -13 -26 16 13 14 18 23 10 18 -11 -6 -13 -4 -8 8 7 20 3 21 -25 6 -20
-11 -20 -10 2 21 l23 32 -24 -7 -24 -7 25 27 25 28 -30 -7 -30 -7 35 31 35 32
-35 -7 c-37 -8 -36 -4 15 34 l30 23 -35 -7 -35 -7 25 25 c14 13 29 22 34 19 5
-3 6 0 3 6 -4 5 -17 8 -30 4 -19 -5 -20 -4 -8 11 10 13 18 14 33 6 29 -16 33
-4 9 29 l-21 30 23 16 c22 16 22 16 -7 10 -35 -8 -32 14 5 33 13 7 18 13 11
13 -8 0 -10 8 -6 24 6 24 -17 43 -38 29 -6 -3 -8 -1 -4 5 3 6 -11 21 -35 35
l-41 25 43 7 44 8 -55 26 -55 26 45 5 45 5 -57 27 c-59 28 -74 40 -38 31 11
-3 32 -2 47 2 27 7 27 8 -27 35 -30 16 -48 30 -40 31 8 1 20 2 25 4 6 1 17 3
25 4 9 0 3 8 -15 20 -37 23 -70 59 -62 67 4 4 12 2 19 -4 10 -8 12 0 10 41
l-3 52 31 -55 c17 -30 36 -59 41 -65z m8341 47 l-10 -41 26 17 c25 16 25 16
13 -6 -6 -12 -27 -32 -46 -45 -39 -27 -36 -37 9 -38 29 0 27 -3 -27 -29 -57
-28 -58 -28 -29 -35 16 -3 33 -5 38 -4 32 6 21 -6 -26 -28 l-55 -27 40 -6 40
-6 -54 -24 -55 -24 45 -11 c44 -11 44 -11 19 -25 -14 -7 -42 -24 -63 -37 -32
-20 -37 -27 -26 -39 10 -13 10 -17 -2 -25 -11 -7 -10 -9 6 -10 11 -1 23 -1 26
-1 4 1 5 -8 2 -19 -3 -12 -11 -18 -19 -15 -8 3 -14 1 -14 -4 0 -6 5 -10 11
-10 6 0 9 -6 6 -12 -2 -7 -10 -12 -16 -10 -7 1 -10 -2 -6 -8 3 -5 1 -19 -5
-30 -10 -18 -8 -19 19 -14 16 4 31 1 35 -5 5 -7 -2 -11 -16 -11 -22 0 -22 -1
7 -25 l30 -25 -30 6 -30 5 35 -31 35 -31 -30 7 -30 7 30 -32 30 -33 -30 8 -30
7 24 -26 23 -26 -23 6 -24 6 25 -28 c25 -27 25 -27 3 -21 -19 6 -22 4 -16 -10
5 -12 3 -15 -6 -9 -7 4 -5 -5 5 -21 19 -28 19 -28 -1 -20 -11 4 -42 13 -70 21
-27 7 -72 21 -100 31 -52 18 -262 27 -271 12 -3 -5 3 -8 13 -9 10 0 -10 -8
-45 -16 -35 -8 -61 -17 -57 -21 3 -3 -5 -12 -17 -19 -21 -11 -18 -12 30 -13
53 0 66 -11 35 -29 -10 -6 -13 -10 -8 -10 6 0 21 6 35 14 29 17 40 18 40 7 0
-5 -10 -14 -22 -20 -21 -11 -19 -11 12 -6 19 3 44 8 55 11 15 3 13 -1 -10 -21
-35 -29 -31 -32 18 -11 51 21 57 19 22 -10 l-30 -25 35 12 c19 6 41 15 48 21
25 20 11 -8 -15 -30 l-28 -22 49 15 c27 8 51 12 53 10 2 -2 -11 -13 -29 -25
-31 -20 -32 -21 -9 -21 24 0 71 -35 71 -52 0 -4 -16 0 -35 9 -26 12 -38 14
-46 6 -7 -7 -27 -9 -48 -6 -35 6 -36 6 -18 -14 23 -27 22 -33 -9 -33 -14 0
-75 -11 -136 -25 -61 -14 -113 -23 -115 -21 -2 1 -4 123 -4 270 l0 267 77 96
c43 52 89 107 103 122 14 15 58 60 97 101 76 82 176 170 212 189 13 7 20 17
16 24 -4 7 -4 9 1 5 4 -4 27 6 51 22 l43 30 3 -27 3 -28 30 33 c23 26 30 30
35 17 4 -11 15 1 35 39 33 62 51 61 37 -2z m-7375 -74 l103 -33 0 -379 0 -380
-54 72 c-29 39 -56 68 -60 64 -4 -4 -7 -2 -6 3 5 22 -1 36 -12 29 -6 -4 -8 -3
-5 2 3 5 -18 40 -46 76 l-52 67 3 261 c2 201 5 260 15 256 7 -3 58 -20 114
-38z m6503 -227 c0 -126 -3 -231 -8 -233 -12 -5 -96 -109 -163 -203 l-64 -90
-3 349 c-1 192 0 351 3 354 6 6 193 50 218 51 16 1 17 -16 17 -228z m-577 23
c-7 -48 -23 -128 -34 -178 -12 -50 -24 -107 -28 -126 -5 -19 -25 -82 -45 -140
-21 -58 -39 -109 -40 -115 -17 -62 -155 -346 -212 -437 l-25 -40 22 7 c50 16
79 32 72 39 -4 4 1 4 11 0 11 -4 17 -3 14 2 -4 5 4 10 15 11 12 0 36 7 52 14
33 13 39 15 103 24 43 6 152 -10 152 -23 0 -4 -17 -27 -38 -51 -35 -40 -46
-47 -113 -62 -41 -9 -114 -34 -164 -55 -83 -36 -97 -39 -180 -39 -93 1 -116 7
-265 71 -92 39 -131 36 -280 -21 -97 -37 -142 -49 -202 -53 -91 -5 -134 4
-278 60 -140 54 -166 54 -313 -6 -180 -72 -266 -73 -424 -1 -83 39 -161 58
-201 50 -20 -4 -86 -27 -146 -53 -104 -42 -117 -45 -201 -46 -85 0 -96 3 -210
49 -155 64 -192 65 -325 8 -201 -87 -303 -84 -530 14 -94 40 -151 38 -270 -11
-112 -45 -182 -66 -229 -66 -44 0 -144 26 -206 54 -151 69 -193 69 -343 5
-168 -71 -253 -73 -407 -7 -92 39 -153 58 -191 58 -25 0 -38 10 -73 52 -28 34
-38 55 -32 61 6 6 46 12 89 15 65 3 90 0 151 -21 40 -14 78 -24 84 -23 7 2 8
1 4 -2 -13 -6 38 -30 99 -46 52 -14 64 -11 45 10 -13 13 -47 74 -114 204 -68
133 -141 319 -187 476 -38 132 -90 398 -78 402 4 2 56 -8 116 -22 645 -151
1345 -226 2132 -226 928 0 2203 100 2995 235 105 18 202 33 216 34 l26 1 -14
-86z m-6824 -114 c21 0 4 -13 -19 -15 -11 -1 -26 5 -33 13 -10 13 -8 15 13 9
14 -4 31 -7 39 -7z m8163 1 c11 6 23 8 26 4 9 -9 -18 -23 -37 -20 -9 2 -19 4
-23 4 -5 1 -8 6 -8 13 0 9 3 9 12 0 8 -8 17 -8 30 -1z m-762 -615 l0 -194 -36
-7 c-20 -3 -70 -20 -112 -36 -42 -16 -81 -29 -87 -29 -15 0 -6 119 11 145 8
12 11 25 7 30 -5 4 -2 5 5 1 6 -4 12 -2 12 4 0 6 7 18 15 26 8 8 51 69 97 135
45 65 83 119 85 119 2 0 3 -87 3 -194z m-6522 -5 c20 -29 56 -79 79 -111 34
-47 43 -69 46 -109 2 -28 1 -51 -1 -51 -2 0 -55 17 -118 38 l-114 37 0 175 0
175 35 -50 c19 -28 52 -74 73 -104z m210 -293 c7 -7 12 -18 12 -25 0 -11 -4
-11 -20 -1 -11 7 -20 18 -20 25 0 16 12 17 28 1z m5987 -8 c3 -5 -1 -10 -9
-10 -9 0 -16 -5 -16 -11 0 -5 -4 -8 -10 -4 -13 8 -1 35 15 35 8 0 17 -4 20
-10z m311 -173 c-19 -64 -64 -134 -107 -166 -17 -13 -354 -193 -748 -401 -394
-207 -804 -423 -911 -480 -224 -118 -1300 -684 -1376 -724 -28 -14 -76 -32
-107 -38 -106 -22 -117 -18 -662 272 -38 20 -122 64 -185 98 -63 33 -317 167
-565 297 -247 131 -637 335 -865 455 -856 450 -946 499 -989 536 -63 54 -101
139 -101 227 0 37 4 67 9 67 13 0 214 -103 341 -175 93 -53 110 -59 150 -56
146 12 216 -2 380 -78 52 -24 128 -27 180 -7 19 8 78 31 130 51 79 31 108 38
170 38 67 1 87 -4 195 -48 167 -67 192 -68 339 -11 209 82 234 83 427 10 106
-40 135 -47 199 -48 67 0 89 5 200 49 110 43 134 48 200 48 67 0 89 -5 204
-51 156 -63 194 -66 304 -21 230 93 307 94 502 2 31 -14 81 -28 115 -30 54 -5
72 -1 179 42 65 25 140 50 167 54 51 8 148 -2 181 -20 10 -5 23 -7 28 -4 6 3
10 2 10 -3 0 -5 33 -22 72 -38 61 -24 86 -29 158 -28 77 0 95 4 190 43 86 36
120 45 185 48 84 5 124 -5 280 -71 84 -36 156 -35 243 3 159 69 262 87 352 60
34 -10 42 -8 146 46 60 32 119 64 131 71 12 8 71 39 130 70 59 31 113 61 118
66 17 15 17 -98 1 -155z"/>
<path d="M5020 5734 c-14 -2 -63 -9 -110 -15 -103 -13 -213 -41 -278 -71 -51
-24 -149 -91 -170 -117 -7 -9 -18 -15 -23 -13 -5 1 -8 -1 -7 -5 1 -5 -11 -28
-26 -53 -44 -68 -64 -118 -103 -263 -35 -130 -35 -136 -40 -372 -4 -190 -2
-264 11 -351 21 -145 57 -267 102 -345 20 -35 37 -69 37 -76 0 -7 3 -10 7 -8
4 2 20 -10 36 -28 72 -78 144 -121 269 -160 269 -84 639 -67 802 36 58 37 89
88 107 179 18 87 21 259 6 339 -15 81 -30 89 -159 89 -58 0 -130 -3 -160 -7
l-54 -6 8 -134 c6 -125 5 -133 -12 -134 -10 -1 -91 -3 -180 -4 -145 -4 -162
-2 -167 13 -9 32 -16 817 -8 957 l7 140 174 -3 c96 -1 177 -5 180 -8 3 -3 6
-65 6 -137 l0 -132 155 -3 c85 -1 161 1 170 4 8 4 18 7 21 6 3 0 6 4 6 11 1 7
6 36 12 66 16 77 14 249 -4 339 -21 101 -53 148 -130 189 -109 58 -348 96
-485 77z"/>
<path d="M8110 5684 c-80 -10 -228 -38 -264 -50 -21 -8 -43 -11 -49 -7 -5 3
-7 2 -4 -4 4 -5 -5 -16 -19 -24 -54 -28 -113 -108 -137 -183 -19 -60 -22 -93
-22 -216 1 -334 73 -429 346 -460 161 -19 243 -36 234 -51 -3 -5 1 -6 10 -3
23 9 83 -59 91 -103 9 -49 -11 -123 -39 -145 -30 -23 -94 -38 -161 -38 -87 0
-86 -2 -86 110 l0 97 -137 6 c-75 4 -189 7 -253 7 l-117 0 -14 -92 c-19 -131
-17 -318 4 -318 4 0 7 -6 7 -13 0 -8 9 -22 20 -32 11 -10 17 -22 14 -27 -3 -4
0 -7 8 -6 7 2 12 -3 11 -9 -2 -7 0 -12 5 -11 12 4 53 -22 48 -30 -2 -4 3 -8
12 -9 9 -1 49 -12 87 -24 66 -21 86 -23 340 -22 317 1 461 13 524 46 87 44
138 162 162 375 20 171 -16 336 -82 382 -69 50 -193 82 -375 99 -56 5 -115 16
-131 25 -41 21 -61 68 -69 162 -11 136 27 184 147 184 55 0 97 -19 119 -53 7
-12 15 -64 18 -116 l5 -94 150 6 c82 3 154 10 160 16 6 6 11 95 11 233 1 189
-2 228 -16 258 -36 75 -78 102 -188 119 -80 13 -312 22 -370 15z"/>
<path d="M2420 5674 c-8 -2 -86 -5 -173 -6 -86 -2 -157 -6 -157 -10 0 -5 0
-84 0 -177 l0 -169 72 -17 71 -18 -6 -634 c-5 -615 -5 -635 14 -654 10 -10 31
-19 46 -20 196 -6 493 -2 497 7 2 6 5 87 5 180 1 209 11 364 23 364 25 0 83
-34 122 -72 78 -76 161 -257 186 -405 l12 -72 220 -3 220 -3 -5 66 c-5 63 -48
191 -100 299 -52 108 -141 208 -264 296 l-44 31 56 7 c31 3 70 13 86 22 16 8
35 12 42 8 7 -4 9 -4 5 1 -8 8 51 82 62 78 3 -1 6 6 6 15 1 9 9 44 18 77 11
36 20 113 23 190 11 279 -50 460 -178 525 -84 44 -279 76 -514 85 -82 3 -190
7 -240 9 -49 2 -97 2 -105 0z m658 -541 l-3 -218 -132 -2 -133 -1 0 219 0 219
135 0 135 0 -2 -217z"/>
<path d="M6643 5633 c-13 -8 -23 -21 -23 -28 0 -7 -18 -29 -40 -49 -22 -20
-37 -36 -33 -36 4 0 -15 -22 -42 -50 -26 -27 -52 -47 -56 -45 -4 3 -6 -1 -5
-8 0 -7 -42 -59 -95 -116 l-96 -103 -2 164 c-1 180 -6 224 -26 232 -7 2 -97 2
-200 -1 l-187 -6 8 -186 c11 -231 12 -1146 1 -1338 l-7 -143 178 0 c136 0 179
3 179 13 0 6 5 64 11 127 6 63 14 145 18 183 3 37 9 67 14 67 14 0 32 -29 24
-41 -4 -8 -3 -9 4 -5 14 8 46 -22 173 -165 191 -214 214 -241 214 -251 0 -16
35 -19 51 -5 7 7 80 78 160 159 81 81 152 144 158 141 5 -4 -1 9 -14 28 -29
39 -139 154 -290 302 -57 56 -143 141 -192 188 -48 48 -88 86 -90 85 -4 -1 80
82 273 270 165 162 283 287 287 307 3 12 -306 319 -326 324 -4 1 -17 -5 -29
-14z"/>
<path d="M7090 5506 l0 -133 41 -6 c48 -6 79 -31 79 -64 0 -27 -42 -71 -82
-85 -28 -10 -28 -11 -29 -104 -1 -52 -2 -100 -3 -106 -4 -45 265 73 295 129 7
12 17 19 23 16 6 -3 8 -3 4 2 -4 4 2 25 13 47 38 74 74 214 102 389 l4 27
-186 6 c-102 4 -203 9 -223 11 l-38 5 0 -134z"/>
<path d="M3806 5593 l-118 -4 8 -177 c11 -221 12 -1205 1 -1369 l-8 -123 185
0 184 0 6 43 c33 220 67 1227 50 1492 l-9 140 -90 1 c-49 0 -143 -1 -209 -3z"/>
<path d="M4453 3130 c-73 -33 -107 -122 -83 -218 21 -83 74 -122 169 -122 79
0 111 13 111 44 0 33 -7 36 -62 24 -92 -21 -144 28 -136 128 6 68 28 94 78 94
43 0 63 -18 58 -52 -3 -20 1 -23 27 -19 34 3 45 15 45 49 0 79 -109 117 -207
72z"/>
<path d="M7241 3133 c-20 -10 -39 -30 -47 -50 -23 -54 -1 -91 85 -144 39 -24
73 -49 75 -56 9 -21 -39 -46 -74 -38 -26 6 -30 11 -30 41 0 32 -2 34 -35 34
-35 0 -35 0 -35 -43 0 -67 22 -82 125 -82 74 0 86 3 109 24 19 18 26 35 26 61
0 48 -26 80 -94 119 -30 17 -58 37 -64 44 -22 26 22 52 63 37 19 -7 25 -17 25
-40 0 -27 3 -30 30 -30 23 0 31 5 36 25 15 62 -29 107 -110 112 -34 3 -62 -2
-85 -14z"/>
<path d="M3370 3115 c0 -14 8 -29 20 -35 18 -10 20 -21 20 -115 0 -95 -2 -104
-20 -110 -14 -4 -20 -15 -20 -36 l0 -29 98 0 c155 0 202 23 202 98 0 23 -8 42
-27 60 l-28 27 23 22 c37 37 24 110 -25 132 -13 6 -73 11 -133 11 l-110 0 0
-25z m184 -41 c19 -7 21 -45 4 -62 -7 -7 -25 -12 -40 -12 -26 0 -28 3 -28 40
0 36 3 40 24 40 13 0 31 -3 40 -6z m7 -144 c19 -10 27 -54 11 -64 -4 -2 -24
-7 -45 -11 l-37 -7 0 46 c0 43 2 46 26 46 14 0 34 -5 45 -10z"/>
<path d="M3690 3111 c0 -20 6 -30 20 -34 18 -5 20 -14 20 -110 0 -97 -2 -106
-20 -112 -14 -4 -20 -15 -20 -36 l0 -29 140 0 140 0 0 61 c0 60 0 60 -27 57
-22 -2 -29 -9 -31 -30 -3 -26 -6 -28 -53 -28 l-49 0 0 45 0 45 46 0 c45 0 45
0 42 33 -3 30 -6 32 -45 35 -42 3 -43 4 -43 38 0 34 0 34 45 34 41 0 45 -2 45
-25 0 -22 4 -25 35 -25 l35 0 0 55 0 55 -140 0 -140 0 0 -29z"/>
<path d="M4060 3111 c0 -21 5 -31 19 -33 17 -3 15 -12 -23 -111 -26 -69 -47
-109 -58 -113 -12 -3 -18 -16 -18 -35 l0 -29 78 0 c76 0 78 1 77 25 0 13 -9
30 -19 38 -34 25 -13 47 44 47 56 0 78 -22 47 -45 -10 -7 -17 -24 -17 -39 0
-26 0 -26 80 -26 l80 0 0 30 c0 19 -5 30 -14 30 -8 0 -22 21 -32 48 -9 26 -32
86 -51 134 -18 48 -33 92 -33 98 0 6 -32 10 -80 10 l-80 0 0 -29z m118 -110
c16 -52 16 -51 -18 -51 -16 0 -30 3 -30 6 0 17 24 84 30 84 4 0 12 -17 18 -39z"/>
<path d="M4680 3105 c0 -26 3 -33 15 -29 13 5 15 -10 15 -105 0 -90 -3 -113
-15 -117 -9 -4 -15 -19 -15 -35 l0 -29 80 0 80 0 0 36 c0 31 -3 36 -20 31 -18
-5 -20 0 -20 39 l0 44 60 0 60 0 0 -40 c0 -27 -5 -43 -15 -46 -9 -4 -15 -19
-15 -35 l0 -29 80 0 80 0 0 36 c0 31 -3 36 -20 31 -19 -5 -20 0 -20 109 0 95
3 114 15 114 10 0 15 10 15 30 l0 30 -75 0 -75 0 0 -35 c0 -26 3 -33 15 -29
12 5 15 -2 15 -30 l0 -36 -60 0 -60 0 0 35 c0 24 5 35 15 35 10 0 15 10 15 30
l0 30 -75 0 -75 0 0 -35z"/>
<path d="M5190 3110 c0 -20 5 -30 15 -30 12 0 15 -17 15 -94 0 -52 3 -101 6
-109 3 -10 -2 -18 -15 -22 -15 -4 -21 -15 -21 -36 l0 -29 80 0 80 0 0 36 c0
31 -3 36 -20 31 -17 -4 -20 0 -20 34 0 58 21 49 55 -22 16 -33 37 -65 47 -70
19 -10 59 -12 82 -3 22 8 21 55 -1 60 -17 5 -63 65 -63 82 0 5 9 17 19 26 45
41 38 126 -12 157 -26 16 -51 19 -139 19 l-108 0 0 -30z m188 -42 c31 -31 3
-78 -47 -78 -18 0 -21 6 -21 45 0 43 1 45 28 45 15 0 33 -5 40 -12z"/>
<path d="M5520 3115 c0 -14 8 -29 20 -35 18 -10 20 -21 20 -115 0 -95 -2 -104
-20 -110 -14 -4 -20 -15 -20 -36 l0 -29 140 0 140 0 0 60 c0 57 -1 60 -24 60
-18 0 -27 -8 -35 -30 -9 -27 -14 -30 -55 -30 l-46 0 0 45 0 45 45 0 c43 0 45
1 45 30 0 17 -6 31 -12 32 -7 0 -17 2 -23 3 -5 2 -20 3 -32 4 -19 1 -23 7 -23
36 0 35 0 35 44 35 39 0 45 -3 48 -22 2 -18 11 -24 36 -26 l32 -3 0 55 0 56
-140 0 -140 0 0 -25z"/>
<path d="M5820 3111 c0 -20 6 -30 20 -34 18 -5 20 -14 20 -110 0 -97 -2 -106
-20 -112 -14 -4 -20 -15 -20 -36 l0 -29 75 0 75 0 0 36 c0 31 -3 36 -20 31
-19 -5 -20 0 -20 81 l0 87 38 -65 c21 -36 51 -89 68 -117 28 -51 31 -53 72
-53 l42 0 0 140 c0 129 1 140 20 150 12 6 20 21 20 35 0 24 -2 25 -75 25 l-75
0 0 -34 c0 -29 3 -33 20 -29 19 5 20 0 20 -78 0 -91 -2 -91 -47 -9 -17 30 -43
76 -58 103 l-27 47 -64 0 c-64 0 -64 0 -64 -29z"/>
<path d="M6200 3085 c0 -54 0 -55 30 -55 23 0 31 5 36 25 4 16 13 25 25 25 17
0 19 -9 19 -110 0 -89 -3 -112 -15 -116 -9 -4 -15 -19 -15 -35 l0 -29 75 0 75
0 0 35 c0 29 -4 35 -17 33 -16 -3 -18 8 -18 107 0 105 1 110 22 113 16 2 22
-3 25 -20 2 -16 11 -24 30 -26 25 -3 26 -1 30 52 l3 56 -152 0 -153 0 0 -55z"/>
<path d="M6600 3111 c0 -17 6 -31 14 -33 19 -4 -57 -207 -85 -227 -10 -7 -19
-24 -19 -37 0 -23 2 -24 80 -24 l80 0 0 30 c0 19 -5 30 -14 30 -19 0 -28 14
-20 34 5 12 20 16 59 16 45 0 53 -3 58 -21 4 -15 0 -23 -14 -26 -13 -4 -19
-14 -19 -34 l0 -29 80 0 c79 0 80 0 80 25 0 14 -8 33 -18 43 -11 11 -40 78
-67 150 l-48 132 -73 0 -74 0 0 -29z m117 -157 c-3 -4 -17 -4 -31 0 l-25 6 17
48 16 47 15 -47 c8 -27 12 -51 8 -54z"/>
<path d="M6890 3110 c0 -23 4 -30 20 -30 19 0 20 -7 20 -109 0 -101 -2 -110
-20 -116 -14 -4 -20 -15 -20 -36 l0 -29 135 0 135 0 0 60 0 60 -30 0 c-26 0
-31 -5 -37 -31 -5 -28 -9 -30 -42 -27 l-36 3 -3 107 c-2 99 -1 108 18 118 12
6 20 21 20 35 0 24 -2 25 -80 25 l-80 0 0 -30z"/>
<path d="M3410 2100 c0 -5 5 -10 11 -10 5 0 7 5 4 10 -3 6 -8 10 -11 10 -2 0
-4 -4 -4 -10z"/>
<path d="M3485 2100 c3 -5 10 -10 16 -10 5 0 9 5 9 10 0 6 -7 10 -16 10 -8 0
-12 -4 -9 -10z"/>
<path d="M3527 2077 c5 -28 4 -30 -9 -20 -11 10 -17 10 -26 1 -27 -27 -7 -48
48 -48 28 0 59 25 46 38 -4 4 -13 -1 -20 -11 -7 -9 -22 -17 -32 -17 -18 1 -18
1 -1 14 9 7 17 19 17 25 0 14 37 6 60 -14 8 -7 40 -15 70 -18 30 -3 48 -3 40
0 -8 3 -30 12 -48 19 -18 7 -30 9 -27 5 3 -5 -4 -7 -16 -4 -16 4 -17 8 -7 14
10 7 10 9 -2 10 -8 1 -21 1 -27 0 -7 -1 -13 2 -13 8 0 5 -13 14 -30 19 -29 11
-29 10 -23 -21z"/>
<path d="M4160 2100 c0 -6 -3 -9 -7 -8 -5 2 -37 -8 -72 -21 -57 -22 -62 -26
-45 -38 10 -7 23 -13 28 -14 6 0 27 -2 46 -3 50 -4 80 4 80 21 0 9 -7 13 -17
11 -10 -2 -17 -9 -16 -15 2 -12 -97 -5 -111 8 -5 5 6 7 25 5 19 -2 25 -1 14 1
-37 9 104 53 152 47 23 -2 44 -1 46 3 3 4 -24 9 -59 10 -36 1 -64 -2 -64 -7z"/>
<path d="M4991 2101 c-10 -6 4 -9 40 -7 29 2 63 -1 74 -6 18 -8 19 -8 3 5 -20
16 -96 21 -117 8z"/>
<path d="M5774 2103 c15 -4 16 -7 5 -13 -22 -14 -6 -19 34 -11 27 7 37 6 37
-4 0 -17 33 -45 53 -45 9 0 17 5 17 11 0 5 -5 7 -10 4 -14 -9 -40 13 -40 33 0
14 1 14 13 0 16 -21 41 -28 58 -17 10 6 11 9 2 10 -22 3 -27 4 -52 18 -14 7
-50 15 -80 16 -31 1 -47 0 -37 -2z"/>
<path d="M6530 2100 c18 -12 60 -13 60 -2 0 4 -17 8 -37 9 -26 1 -33 -1 -23
-7z"/>
<path d="M7242 2080 c-35 -17 -69 -27 -74 -23 -7 4 -8 1 -4 -6 5 -8 3 -12 -5
-10 -26 3 -39 -1 -39 -13 0 -9 3 -9 11 -1 6 6 18 9 27 5 13 -5 12 -7 -4 -13
-12 -5 -6 -7 18 -4 43 4 58 11 57 28 0 9 -2 9 -6 0 -2 -7 -14 -13 -26 -13 -21
0 -21 0 2 16 18 13 28 14 48 5 14 -7 28 -9 31 -6 4 3 -4 8 -16 12 -12 3 -20 9
-17 13 3 5 13 6 23 3 10 -2 34 3 53 11 19 9 23 13 10 10 -16 -4 -21 -3 -17 5
11 17 -4 13 -72 -19z"/>
<path d="M7370 2100 c0 -5 4 -10 9 -10 6 0 13 5 16 10 3 6 -1 10 -9 10 -9 0
-16 -4 -16 -10z"/>
<path d="M3357 2088 c-30 -11 -28 -28 4 -28 10 0 19 -4 19 -8 0 -5 7 -9 17 -9
13 0 11 4 -7 19 -17 14 -19 18 -6 18 9 0 16 5 16 10 0 12 -6 12 -43 -2z"/>
<path d="M4310 2091 c0 -9 89 -46 95 -40 1 2 -19 14 -46 26 -27 12 -49 18 -49
14z"/>
<path d="M4954 2091 c5 -8 3 -11 -5 -10 -8 2 -31 -3 -51 -10 -33 -11 -36 -14
-25 -32 6 -10 18 -19 26 -19 11 0 9 4 -5 14 -10 8 -15 18 -11 22 4 5 11 4 15
-2 4 -6 31 -14 60 -18 42 -5 53 -4 50 6 -3 8 -21 13 -46 12 -23 -1 -42 3 -42
8 0 4 9 8 19 8 24 0 36 16 20 26 -8 5 -9 3 -5 -5z"/>
<path d="M5693 2090 c-13 -5 -23 -16 -23 -25 0 -12 5 -10 25 7 14 12 25 23 25
25 0 4 0 4 -27 -7z"/>
<path d="M6438 2078 l-33 -18 40 6 c22 4 41 10 43 15 2 4 10 5 19 2 10 -4 14
-2 9 5 -9 15 -39 11 -78 -10z"/>
<path d="M6613 2082 c10 -10 23 -19 30 -20 54 -8 89 -10 72 -5 -11 3 -39 14
-62 24 -52 24 -61 24 -40 1z"/>
<path d="M7407 2093 c-3 -3 -3 -12 0 -21 4 -8 2 -13 -3 -9 -6 3 -16 1 -24 -4
-13 -8 -13 -10 0 -18 9 -7 17 -6 21 0 3 6 8 10 10 8 2 -1 17 5 33 13 l29 15
-31 11 c-17 6 -33 8 -35 5z"/>
<path d="M5148 2073 c-23 -6 -31 -33 -11 -40 15 -6 14 -7 -2 -13 -11 -4 9 -7
43 -6 34 0 62 4 62 9 0 5 -11 6 -24 3 -13 -3 -38 -1 -55 5 l-31 11 23 19 c12
10 20 18 17 18 -3 -1 -12 -3 -22 -6z"/>
<path d="M3316 2058 c5 -7 -1 -9 -14 -6 -12 4 -22 2 -22 -4 0 -5 -4 -6 -10 -3
-5 3 -10 1 -10 -5 0 -6 11 -8 28 -4 21 4 24 3 12 -5 -9 -6 -10 -11 -3 -11 6 0
20 -3 30 -6 15 -5 16 -4 3 6 -13 10 -11 11 7 7 33 -7 35 18 2 30 -20 8 -27 8
-23 1z"/>
<path d="M4125 2060 c-3 -5 1 -10 9 -10 8 0 18 5 21 10 3 6 -1 10 -9 10 -8 0
-18 -4 -21 -10z"/>
<path d="M4283 2055 c-17 -7 -35 -10 -39 -7 -5 4 -2 -1 5 -11 8 -9 16 -15 19
-13 2 3 13 1 23 -4 12 -7 19 -6 21 2 3 8 9 8 25 -1 12 -6 28 -11 35 -10 7 0 0
6 -16 14 -17 7 -32 20 -35 28 -5 13 -10 14 -38 2z"/>
<path d="M5625 2061 c-3 -5 -19 -12 -35 -16 -17 -4 -28 -10 -25 -15 3 -5 -3
-10 -12 -12 -10 -2 14 -4 53 -4 52 0 71 4 71 13 0 8 -12 16 -26 20 -23 6 -24
7 -6 14 16 6 17 8 3 8 -9 1 -19 -3 -23 -8z m31 -28 c-8 -9 -66 -11 -61 -3 2 4
18 7 36 8 17 0 28 -2 25 -5z"/>
<path d="M5728 2063 c-20 -5 -24 -18 -8 -28 6 -3 17 0 25 9 17 16 9 25 -17 19z"/>
<path d="M7460 2055 c-15 -9 -19 -14 -10 -15 13 0 13 -2 0 -11 -12 -9 -12 -10
3 -5 10 3 28 1 39 -5 12 -6 18 -7 14 -1 -8 14 15 21 39 11 11 -4 16 -8 11 -8
-5 -1 -3 -7 3 -14 6 -8 8 -17 4 -20 -13 -13 42 -6 60 7 18 14 18 14 -1 20 -11
4 -27 3 -37 0 -11 -5 -16 -4 -12 3 3 5 -9 17 -28 26 -27 13 -34 13 -39 2 -3
-8 -13 -11 -27 -8 l-21 6 23 13 c13 7 20 13 14 13 -5 0 -21 -6 -35 -14z"/>
<path d="M4201 2044 c0 -11 3 -14 6 -6 3 7 2 16 -1 19 -3 4 -6 -2 -5 -13z"/>
<path d="M4330 2051 c0 -6 9 -11 19 -11 11 0 26 -6 33 -14 8 -7 27 -13 43 -13
17 -1 46 -3 65 -6 19 -3 27 -3 18 -1 -10 3 -18 10 -18 15 0 6 -9 7 -21 4 -15
-5 -19 -4 -15 4 7 11 4 12 -49 15 -16 1 -40 5 -52 9 -15 5 -23 4 -23 -2z m100
-21 c-8 -5 -19 -10 -25 -10 -5 0 -3 5 5 10 8 5 20 10 25 10 6 0 3 -5 -5 -10z"/>
<path d="M5077 2054 c-13 -13 -7 -24 14 -24 11 0 19 5 17 12 -5 14 -22 21 -31
12z"/>
<path d="M5172 2051 c-11 -6 -10 -10 3 -15 10 -3 23 -1 31 4 9 9 18 6 32 -8
11 -11 23 -18 26 -14 3 3 6 0 6 -6 0 -7 5 -12 10 -12 20 0 4 25 -25 38 -41 19
-68 23 -83 13z"/>
<path d="M5965 2050 c5 -9 2 -10 -13 -6 -13 4 -22 1 -26 -9 -7 -18 -57 -20
-74 -3 -8 8 -12 8 -12 1 0 -7 -14 -8 -40 -3 -31 6 -40 4 -40 -7 0 -20 25 -26
57 -16 18 6 40 6 60 0 26 -8 36 -7 50 6 10 8 32 17 48 19 l30 3 -24 14 c-16 9
-21 9 -16 1z"/>
<path d="M6385 2051 c5 -10 2 -11 -14 -6 -12 4 -21 2 -21 -4 0 -6 12 -11 26
-11 14 0 23 -3 21 -7 -3 -5 15 -8 39 -8 24 0 44 3 44 7 0 5 -19 8 -42 9 -37 1
-39 2 -18 9 15 5 18 8 8 9 -9 1 -24 4 -34 8 -12 5 -15 3 -9 -6z"/>
<path d="M6455 2050 c-3 -5 1 -10 9 -10 9 0 16 5 16 10 0 6 -4 10 -9 10 -6 0
-13 -4 -16 -10z"/>
<path d="M3435 2040 c27 -12 35 -12 35 0 0 6 -12 10 -27 9 -25 0 -26 -1 -8 -9z"/>
<path d="M4843 2033 c9 -9 20 -13 24 -9 4 4 1 11 -7 16 -25 16 -35 11 -17 -7z"/>
<path d="M6554 2038 c-7 -11 28 -10 46 2 11 7 8 9 -13 8 -16 -2 -31 -6 -33
-10z"/>
<path d="M6643 2033 c1 -15 10 -18 56 -17 73 1 81 2 81 13 0 13 -30 22 -43 14
-20 -12 -90 -15 -82 -4 3 6 2 11 -4 11 -5 0 -9 -8 -8 -17z m117 -3 c0 -5 -8
-10 -17 -10 -15 0 -16 2 -3 10 19 12 20 12 20 0z"/>
<path d="M3213 2026 c-18 -6 -33 -14 -33 -19 0 -5 7 -6 16 -3 8 3 12 2 9 -3
-12 -20 17 -22 31 -3 9 14 21 19 32 15 18 -7 16 -4 -8 13 -10 6 -26 6 -47 0z"/>
<path d="M3975 2024 l-30 -13 28 -1 c15 0 27 5 27 13 0 9 3 8 9 -2 5 -7 15
-11 22 -9 10 3 8 8 -6 15 -14 7 -29 6 -50 -3z"/>
<path d="M6018 2028 c5 -5 16 -8 23 -6 8 3 3 7 -10 11 -17 4 -21 3 -13 -5z"/>
<path d="M6324 2024 c5 -14 4 -15 -8 -5 -9 8 -16 8 -20 2 -4 -6 -13 -8 -21 -4
-8 3 -15 1 -15 -5 0 -5 23 -10 50 -11 53 -1 58 2 36 25 -19 19 -30 18 -22 -2z"/>
<path d="M6525 2030 c-9 -15 -1 -23 21 -18 15 3 16 4 1 16 -11 9 -17 10 -22 2z"/>
<path d="M7318 2033 c-10 -2 -18 -9 -18 -14 0 -6 4 -8 9 -4 5 3 12 1 16 -5 10
-16 22 -12 28 10 5 20 -1 22 -35 13z"/>
<path d="M3595 2020 c-3 -5 -1 -10 4 -10 6 0 11 5 11 10 0 6 -2 10 -4 10 -3 0
-8 -4 -11 -10z"/>
<path d="M4790 2020 c-8 -5 -23 -7 -32 -4 -10 3 -18 1 -18 -4 0 -6 12 -8 28
-6 15 3 35 5 45 5 9 0 17 4 17 10 0 12 -21 11 -40 -1z"/>
<path d="M4938 2023 c7 -3 16 -2 19 1 4 3 -2 6 -13 5 -11 0 -14 -3 -6 -6z"/>
<path d="M6782 2017 c-9 -10 -4 -13 23 -15 21 -2 35 2 35 9 0 6 -9 9 -20 6
-11 -3 -18 -1 -14 4 8 14 -12 11 -24 -4z"/>
<path d="M7073 2020 c-32 -13 -28 -20 10 -20 22 0 28 3 18 9 -11 7 -11 9 0 14
8 3 10 5 4 6 -5 0 -20 -4 -32 -9z"/>
<path d="M7248 2023 c7 -3 16 -2 19 1 4 3 -2 6 -13 5 -11 0 -14 -3 -6 -6z"/>
<path d="M7834 2020 c-12 -5 -25 -13 -28 -19 -4 -5 7 -3 24 5 16 9 30 17 30
20 0 5 0 5 -26 -6z"/>
<path d="M3000 2016 c0 -11 75 -43 89 -38 9 3 11 0 6 -8 -5 -9 -4 -11 3 -6 7
4 12 3 12 -2 0 -9 48 -36 67 -37 6 0 19 -8 30 -16 42 -37 106 -59 117 -40 4 5
-4 17 -16 26 -21 14 -24 14 -34 0 -10 -13 -14 -14 -25 -2 -8 7 -22 16 -32 20
-9 4 -20 15 -24 24 -9 24 -33 42 -58 43 -11 1 -14 4 -7 7 7 3 26 0 43 -6 20
-7 28 -7 23 0 -11 18 -55 30 -68 19 -9 -6 -17 -6 -26 3 -10 10 -11 9 -5 -2 6
-11 4 -13 -11 -7 -10 5 -29 10 -41 11 -12 2 -27 6 -32 10 -6 3 -11 4 -11 1z
m170 -73 c0 -10 -4 -11 -12 -3 -7 5 -24 19 -38 30 l-25 19 38 -17 c20 -9 37
-22 37 -29z m130 -57 c9 -12 8 -15 -8 -13 -12 0 -18 6 -15 14 6 16 8 16 23 -1z"/>
<path d="M3638 2013 c7 -3 16 -2 19 1 4 3 -2 6 -13 5 -11 0 -14 -3 -6 -6z"/>
<path d="M3741 2010 c-9 -5 -4 -7 13 -7 29 0 32 2 13 10 -8 3 -20 2 -26 -3z"/>
<path d="M5300 2010 c0 -5 7 -10 16 -10 8 0 12 5 9 10 -3 6 -10 10 -16 10 -5
0 -9 -4 -9 -10z"/>
<path d="M5510 2010 c0 -5 5 -10 10 -10 6 0 10 5 10 10 0 6 -4 10 -10 10 -5 0
-10 -4 -10 -10z"/>
<path d="M5958 2013 c7 -3 16 -2 19 1 4 3 -2 6 -13 5 -11 0 -14 -3 -6 -6z"/>
<path d="M3803 2003 c9 -2 23 -2 30 0 6 3 -1 5 -18 5 -16 0 -22 -2 -12 -5z"/>
<path d="M3888 1994 c20 -14 24 -14 38 0 14 15 12 16 -23 16 -37 0 -37 0 -15
-16z"/>
<path d="M4556 1996 c3 -9 13 -16 22 -16 8 0 13 1 11 3 -2 1 -12 9 -22 16 -15
12 -17 12 -11 -3z"/>
<path d="M4700 1999 c0 -6 -15 -10 -32 -9 -53 3 -66 0 -41 -10 13 -5 36 -5 57
1 37 10 58 29 32 29 -9 0 -16 -5 -16 -11z"/>
<path d="M5350 2000 c8 -5 24 -10 34 -10 26 0 18 6 -19 14 -22 5 -26 4 -15 -4z"/>
<path d="M5453 2003 c9 -2 25 -2 35 0 9 3 1 5 -18 5 -19 0 -27 -2 -17 -5z"/>
<path d="M6097 1990 c3 -11 0 -20 -6 -20 -6 0 -11 -9 -11 -20 0 -11 5 -20 10
-20 6 0 10 4 10 10 0 12 57 37 105 46 19 3 35 11 35 16 0 6 -8 7 -17 3 -51
-20 -72 -23 -90 -9 -26 20 -42 17 -36 -6z"/>
<path d="M6860 2003 c8 -3 18 -11 22 -17 4 -6 10 -7 15 -3 9 10 -16 27 -37 26
-13 -1 -13 -1 0 -6z"/>
<path d="M7010 2000 c-8 -5 -26 -10 -39 -10 -13 0 -22 -3 -18 -6 9 -9 87 6 87
17 0 12 -11 11 -30 -1z"/>
<path d="M7775 2001 c-3 -5 -2 -12 3 -15 5 -3 9 1 9 9 0 17 -3 19 -12 6z"/>
<path d="M3360 1987 c0 -23 11 -47 21 -47 14 0 10 30 -6 46 -13 14 -15 14 -15
1z"/>
<path d="M5205 1992 c-23 -8 -30 -42 -8 -42 8 0 17 9 20 19 3 11 12 22 22 24
12 4 12 5 1 5 -8 0 -24 -3 -35 -6z"/>
<path d="M7352 1993 c-6 -2 -10 -8 -7 -13 3 -4 -4 -6 -14 -3 -16 4 -19 1 -14
-16 8 -30 25 -26 45 9 17 30 15 33 -10 23z"/>
<path d="M7683 1983 c0 -6 11 -16 24 -22 13 -6 22 -7 18 -2 -3 5 5 12 17 14
16 3 14 4 -5 2 -30 -2 -25 10 8 18 11 2 2 4 -21 3 -23 0 -41 -6 -41 -13z"/>
<path d="M4060 1971 c-7 -14 -7 -22 1 -27 8 -4 7 -9 -2 -15 -20 -13 34 -4 60
10 13 7 22 8 26 1 7 -12 65 -10 65 2 0 4 -9 8 -19 8 -11 0 -23 5 -26 10 -3 6
4 10 16 10 18 0 20 3 11 12 -8 8 -18 9 -35 1 -14 -7 -29 -8 -38 -2 -23 14 -48
10 -59 -10z m37 -2 c-9 -6 -15 -14 -12 -20 7 -10 -8 -13 -18 -3 -9 9 15 33 33
33 12 0 11 -2 -3 -10z"/>
<path d="M4210 1980 c0 -5 5 -10 11 -10 5 0 7 5 4 10 -3 6 -8 10 -11 10 -2 0
-4 -4 -4 -10z"/>
<path d="M4251 1981 c-10 -6 -3 -9 23 -9 20 0 43 -6 51 -12 12 -10 19 -10 32
1 11 10 14 10 9 2 -4 -7 -3 -13 3 -13 10 0 25 19 19 25 -9 9 -125 15 -137 6z"/>
<path d="M4966 1981 c-3 -5 -15 -7 -27 -4 -12 4 -25 0 -30 -8 -7 -11 -9 -11
-9 -1 0 7 -4 10 -10 7 -14 -9 -12 -21 3 -23 6 0 23 -4 36 -8 19 -5 22 -4 16 6
-5 9 -4 11 4 6 9 -6 9 -11 0 -22 -9 -11 -8 -14 2 -14 8 0 20 4 27 9 11 7 11 9
-2 14 -39 15 -11 27 63 27 61 0 80 -3 85 -15 7 -19 42 -20 49 -1 3 8 0 19 -6
24 -15 13 -194 15 -201 3z m194 -15 c0 -2 -7 -7 -16 -10 -8 -3 -12 -2 -9 4 6
10 25 14 25 6z"/>
<path d="M5418 1983 c7 -3 16 -2 19 1 4 3 -2 6 -13 5 -11 0 -14 -3 -6 -6z"/>
<path d="M7203 1970 c-2 -25 14 -35 32 -20 16 13 10 34 -6 25 -5 -4 -9 -1 -9
4 0 20 -16 11 -17 -9z"/>
<path d="M3490 1969 c0 -6 -4 -7 -10 -4 -15 10 -12 -2 6 -20 15 -15 18 -14 40
6 13 12 27 19 31 16 3 -4 1 -7 -5 -7 -7 0 -12 -4 -12 -9 0 -5 9 -7 20 -4 43
11 13 30 -47 31 -13 1 -23 -4 -23 -9z"/>
<path d="M5820 1968 c0 -4 8 -8 19 -8 10 0 33 -3 50 -6 24 -5 30 -3 26 7 -6
15 -95 21 -95 7z"/>
<path d="M6448 1972 c-21 -2 -38 -7 -38 -13 0 -13 67 -11 75 2 9 14 6 15 -37
11z"/>
<path d="M6543 1968 c-2 -5 6 -8 19 -8 13 0 41 -3 62 -7 28 -4 37 -3 32 5 -4
7 -1 12 8 12 9 0 16 -4 16 -9 0 -5 8 -11 18 -13 12 -4 18 1 18 12 0 16 -10 18
-84 16 -46 0 -86 -4 -89 -8z"/>
<path d="M7520 1970 c0 -5 -7 -7 -15 -4 -8 4 -15 1 -15 -5 0 -6 5 -10 12 -8 6
1 14 -6 16 -17 3 -16 0 -18 -22 -12 -15 4 -26 2 -26 -4 0 -5 9 -10 19 -10 29
0 36 -19 10 -28 -15 -6 -18 -11 -11 -16 20 -12 53 -16 46 -5 -3 6 0 9 7 7 16
-3 119 42 119 53 0 4 12 10 27 14 l28 7 -25 13 c-22 12 -27 12 -40 -4 -8 -10
-22 -21 -30 -25 -8 -3 -5 -4 8 -2 12 2 20 0 16 -5 -3 -5 -13 -9 -23 -9 -9 0
-22 -5 -27 -10 -8 -8 -19 -7 -37 1 -31 14 -33 22 -13 39 8 6 12 18 9 26 -6 16
-33 19 -33 4z m44 -92 c-4 -6 -10 -6 -17 1 -7 7 -14 5 -23 -7 -8 -9 -14 -12
-14 -5 0 6 5 15 10 18 6 4 8 11 5 16 -4 5 5 4 19 -2 14 -7 23 -16 20 -21z"/>
<path d="M5360 1960 c0 -5 12 -10 26 -10 14 0 23 4 19 10 -3 6 -15 10 -26 10
-10 0 -19 -4 -19 -10z"/>
<path d="M6183 1963 c-13 -2 -23 -8 -23 -13 0 -5 -8 -11 -17 -13 -10 -3 9 -4
42 -4 39 0 48 2 25 5 l-35 4 35 13 c34 13 20 17 -27 8z"/>
<path d="M6950 1962 c6 -2 10 -10 10 -18 0 -10 12 -14 43 -12 41 1 41 1 7 6
l-35 4 35 13 35 13 -52 -2 c-29 0 -48 -2 -43 -4z"/>
<path d="M3840 1946 c0 -9 7 -16 16 -16 17 0 14 22 -4 28 -7 2 -12 -3 -12 -12z"/>
<path d="M4285 1953 c-11 -3 -33 -11 -50 -18 -16 -8 -41 -15 -55 -17 -14 -2
-23 -7 -22 -12 2 -5 -2 -13 -10 -18 -9 -6 -5 -7 11 -3 13 4 51 7 84 8 39 0 54
3 42 8 -19 7 -19 8 2 8 12 1 23 -5 25 -13 2 -10 9 -6 22 12 11 14 14 22 7 18
-7 -5 -27 -9 -44 -10 -18 -2 -54 -5 -82 -9 l-50 -6 48 11 c26 5 47 14 47 19 0
5 14 6 30 3 23 -5 30 -3 30 10 0 17 -2 17 -35 9z"/>
<path d="M4690 1950 c0 -5 7 -10 15 -10 8 0 15 5 15 10 0 6 -7 10 -15 10 -8 0
-15 -4 -15 -10z"/>
<path d="M5000 1942 c0 -16 31 -23 47 -11 7 7 16 9 19 6 10 -10 -36 -28 -56
-22 -11 4 -20 2 -20 -3 0 -5 14 -12 32 -16 24 -5 34 -2 45 14 10 15 21 19 35
14 15 -4 19 -2 16 7 -5 16 -118 26 -118 11z"/>
<path d="M7258 1943 c7 -3 16 -2 19 1 4 3 -2 6 -13 5 -11 0 -14 -3 -6 -6z"/>
<path d="M4015 1930 c3 -6 1 -10 -6 -10 -8 0 -10 -12 -5 -39 4 -27 2 -41 -7
-44 -6 -3 -7 -6 -2 -6 27 -2 36 15 23 44 -10 23 -10 29 5 40 16 11 16 13 2 19
-9 3 -13 2 -10 -4z"/>
<path d="M5249 1923 c-12 -14 -12 -16 0 -8 11 6 13 4 8 -8 -3 -8 0 -17 6 -20
7 -3 12 7 13 24 1 33 -7 37 -27 12z"/>
<path d="M5393 1933 c9 -2 25 -2 35 0 9 3 1 5 -18 5 -19 0 -27 -2 -17 -5z"/>
<path d="M6893 1933 c9 -2 25 -2 35 0 9 3 1 5 -18 5 -19 0 -27 -2 -17 -5z"/>
<path d="M3240 1918 c0 -12 20 -19 33 -11 6 4 27 8 44 9 26 1 31 -2 22 -12 -9
-10 -7 -15 4 -20 24 -9 41 5 27 21 -8 10 -7 14 2 17 7 3 -20 5 -59 4 -40 0
-73 -4 -73 -8z"/>
<path d="M3430 1918 c0 -9 -8 -19 -17 -21 -10 -2 1 -2 24 0 23 2 59 0 80 -5
21 -6 61 -6 88 -2 44 6 46 8 15 9 -19 1 -44 6 -55 11 -19 8 -19 9 -1 9 11 1
17 3 14 6 -8 8 -59 -6 -54 -14 7 -11 -79 1 -86 13 -5 7 -8 5 -8 -6z m137 -24
c-3 -3 -12 -4 -19 -1 -8 3 -5 6 6 6 11 1 17 -2 13 -5z"/>
<path d="M3590 1918 c0 -5 13 -8 29 -8 16 0 37 -3 47 -7 12 -4 15 -2 12 8 -5
15 -88 21 -88 7z"/>
<path d="M4115 1920 c-3 -5 1 -10 10 -10 9 0 13 5 10 10 -3 6 -8 10 -10 10 -2
0 -7 -4 -10 -10z"/>
<path d="M4374 1921 c3 -4 -6 -13 -20 -20 -14 -6 -22 -16 -19 -21 8 -14 26
-13 23 1 -2 6 2 13 9 16 8 3 11 -3 8 -17 -3 -13 0 -20 8 -17 6 2 18 -2 25 -10
7 -7 19 -13 25 -13 7 0 -1 11 -18 25 -16 13 -25 25 -20 25 6 0 3 5 -5 10 -11
7 -11 10 -2 10 7 0 10 5 7 10 -3 6 -11 10 -16 10 -6 0 -8 -4 -5 -9z"/>
<path d="M4455 1921 c-7 -12 2 -31 15 -31 9 0 8 26 -2 35 -3 4 -9 2 -13 -4z"/>
<path d="M4838 1923 c7 -3 16 -2 19 1 4 3 -2 6 -13 5 -11 0 -14 -3 -6 -6z"/>
<path d="M4876 1921 c5 -5 20 -11 34 -13 14 -3 -1 -4 -32 -4 -32 0 -58 4 -58
8 0 4 -5 8 -11 8 -6 0 -8 -9 -3 -22 9 -31 14 -35 23 -19 5 8 33 13 79 14 78 1
81 4 24 24 -44 15 -70 17 -56 4z"/>
<path d="M5145 1911 c13 -14 17 -14 30 0 14 14 13 16 -15 16 -28 0 -29 -2 -15
-16z"/>
<path d="M5625 1919 c17 -6 44 -15 60 -20 29 -8 28 -8 -7 -5 -31 4 -36 2 -31
-12 6 -14 4 -15 -9 -4 -12 10 -17 10 -27 -1 -11 -14 -5 -27 13 -27 6 0 4 5 -4
10 -12 8 -10 9 10 8 35 -2 112 21 105 31 -3 5 -22 11 -42 14 -21 3 -51 8 -68
11 l-30 6 30 -11z"/>
<path d="M5750 1920 c-8 -5 -10 -10 -5 -10 6 0 17 5 25 10 8 5 11 10 5 10 -5
0 -17 -5 -25 -10z"/>
<path d="M5805 1920 c17 -7 16 -9 -9 -9 -38 -1 -26 -13 15 -16 22 -2 27 0 18
6 -12 7 -12 9 1 10 8 1 24 0 35 -1 11 -1 17 1 14 4 -3 3 -25 8 -50 10 -31 4
-38 2 -24 -4z"/>
<path d="M5901 1919 c8 -4 7 -8 -2 -12 -8 -3 0 -8 18 -12 19 -5 30 -12 27 -20
-3 -7 5 -16 18 -20 30 -9 27 -8 71 -30 36 -18 37 -18 53 1 8 10 13 13 9 6 -5
-9 1 -11 22 -7 l28 5 -29 -13 c-23 -12 -25 -15 -11 -20 23 -9 27 -9 20 3 -3 6
-2 10 4 10 5 0 18 3 28 6 16 6 15 5 -2 -9 -28 -22 -13 -31 40 -22 32 4 45 10
42 19 -3 8 1 13 10 12 9 0 18 6 21 14 4 13 3 13 -10 2 -11 -9 -18 -9 -23 -3
-3 6 -27 11 -53 11 -88 0 -161 5 -168 13 -4 4 -16 7 -26 7 -10 0 -18 4 -18 10
0 5 7 7 15 4 8 -4 15 -1 15 5 0 10 -16 16 -70 24 -24 4 -24 4 3 6 40 2 33 17
-8 17 -19 0 -30 -3 -24 -7z m169 -89 c0 -5 -4 -10 -9 -10 -6 0 -13 5 -16 10
-3 6 1 10 9 10 9 0 16 -4 16 -10z m153 -7 c-7 -2 -21 -2 -30 0 -10 3 -4 5 12
5 17 0 24 -2 18 -5z m-18 -23 c-11 -5 -27 -9 -35 -9 -13 -1 -13 0 0 9 8 5 24
9 35 9 l20 0 -20 -9z"/>
<path d="M5986 1921 c-4 -7 -5 -15 -2 -18 9 -9 19 4 14 18 -4 11 -6 11 -12 0z"/>
<path d="M6343 1904 c-13 -14 -22 -28 -22 -32 3 -21 -3 -32 -17 -32 -8 0 -12
-5 -9 -10 5 -8 11 -8 19 -1 7 6 15 9 17 6 3 -2 6 8 7 22 1 14 9 31 18 38 9 6
15 17 13 23 -2 6 -14 0 -26 -14z"/>
<path d="M6390 1916 c0 -9 8 -16 18 -16 15 0 15 2 2 11 -11 7 -6 8 20 3 19 -3
40 -11 47 -16 7 -5 20 -8 30 -5 13 3 11 5 -7 7 l-25 2 25 8 c23 7 22 8 -11 9
-20 1 -51 4 -68 7 -24 5 -31 3 -31 -10z"/>
<path d="M6548 1923 c7 -3 16 -2 19 1 4 3 -2 6 -13 5 -11 0 -14 -3 -6 -6z"/>
<path d="M6588 1923 c7 -3 16 -2 19 1 4 3 -2 6 -13 5 -11 0 -14 -3 -6 -6z"/>
<path d="M6635 1921 c-17 -7 -16 -9 9 -15 16 -4 31 -5 34 -1 3 3 -1 5 -9 5
-11 0 -11 2 1 10 13 9 13 10 0 9 -8 0 -24 -4 -35 -8z"/>
<path d="M7125 1919 c-11 -17 0 -20 21 -4 17 13 17 14 2 15 -9 0 -20 -5 -23
-11z"/>
<path d="M7178 1923 c7 -3 16 -2 19 1 4 3 -2 6 -13 5 -11 0 -14 -3 -6 -6z"/>
<path d="M7255 1925 c-5 -2 -22 -6 -37 -9 -16 -4 -28 -11 -28 -18 0 -6 -8 -17
-17 -24 -10 -7 -15 -16 -11 -20 5 -4 16 0 26 9 10 10 22 14 26 10 4 -4 11 -1
15 6 5 8 29 14 60 14 29 0 46 4 39 9 -9 5 -8 8 5 8 9 0 17 -3 17 -7 0 -5 14
-8 30 -9 17 -1 30 3 30 7 0 5 -12 9 -26 9 -14 0 -23 4 -19 9 6 11 -47 6 -72
-7 -10 -5 -36 -12 -58 -15 -41 -7 -39 -5 28 22 20 9 14 14 -8 6z"/>
<path d="M7388 1923 c7 -3 16 -2 19 1 4 3 -2 6 -13 5 -11 0 -14 -3 -6 -6z"/>
<path d="M7435 1920 c-3 -5 -3 -10 2 -10 4 0 2 -4 -6 -9 -21 -13 20 -24 49
-13 23 8 22 9 -9 15 -18 4 -30 11 -26 17 3 5 4 10 1 10 -3 0 -8 -4 -11 -10z"/>
<path d="M7576 1920 c-15 -5 -16 -9 -7 -14 7 -5 18 -3 24 3 14 14 6 20 -17 11z"/>
<path d="M4037 1903 c-3 -5 18 -8 46 -9 38 -1 45 1 27 6 -34 11 -68 12 -73 3z"/>
<path d="M5084 1895 c21 -16 66 -20 66 -6 0 4 -12 7 -27 4 -24 -3 -25 -2 -8 6
17 8 15 10 -15 10 -33 0 -34 -1 -16 -14z"/>
<path d="M5600 1900 c0 -5 7 -7 15 -4 8 4 15 8 15 10 0 2 -7 4 -15 4 -8 0 -15
-4 -15 -10z"/>
<path d="M6540 1901 c8 -5 17 -8 22 -5 11 7 96 -16 156 -43 60 -26 62 -27 62
-12 0 5 -4 7 -10 4 -5 -3 -10 -1 -10 4 0 6 -5 11 -11 11 -7 0 -18 8 -25 18 -8
11 -27 17 -56 18 -24 1 -65 5 -93 9 -35 4 -46 3 -35 -4z m175 -22 c11 -17 -1
-21 -15 -4 -8 9 -8 15 -2 15 6 0 14 -5 17 -11z"/>
<path d="M7146 1894 c-3 -8 -11 -12 -16 -9 -7 4 -9 -2 -5 -17 5 -21 0 -25 -47
-40 -99 -31 -101 -31 -93 -18 6 10 1 11 -21 7 -16 -3 -23 -4 -15 0 11 5 11 7
0 15 -10 7 -7 8 11 4 14 -4 39 -9 55 -11 25 -5 27 -4 10 4 -18 10 -18 10 5 8
14 -1 25 3 25 8 0 6 -9 9 -20 8 -11 -2 -46 -5 -79 -8 -64 -5 -69 -7 -73 -34
-2 -14 6 -20 28 -25 54 -11 66 -5 19 10 l-45 14 45 -7 c65 -9 104 -7 142 10
18 9 43 18 56 22 13 4 22 14 22 26 0 11 7 22 15 25 19 8 20 24 1 24 -8 0 -17
-7 -20 -16z m-213 -71 c-7 -2 -19 -2 -25 0 -7 3 -2 5 12 5 14 0 19 -2 13 -5z"/>
<path d="M5170 1890 c-11 -7 -11 -10 -2 -10 8 0 10 -5 6 -12 -5 -8 -2 -9 9 -5
10 3 17 3 17 -1 0 -7 66 -36 72 -31 2 1 22 -8 44 -19 23 -12 44 -18 48 -15 3
3 12 0 21 -7 9 -7 25 -10 42 -5 21 5 24 8 12 16 -11 7 -10 9 6 9 15 0 17 2 6
9 -10 7 -10 10 -1 16 7 4 16 1 21 -6 12 -19 11 -29 -3 -29 -6 0 -9 -3 -5 -6 3
-4 22 4 41 16 20 12 39 19 43 17 5 -3 19 1 33 9 14 7 21 13 15 13 -5 1 -17 -3
-25 -9 -8 -5 -19 -5 -25 0 -11 9 -116 9 -110 0 2 -3 0 -12 -4 -19 -7 -10 -14
-10 -37 3 l-29 16 30 -6 c17 -4 26 -3 22 2 -4 4 -28 9 -52 9 -25 1 -44 1 -42
-1 1 -2 16 -10 32 -18 40 -21 7 -21 -34 0 -17 9 -42 17 -55 18 -27 3 -79 40
-69 50 10 10 -10 7 -27 -4z m350 -60 c-8 -5 -22 -10 -30 -10 -13 0 -13 1 0 10
8 5 22 10 30 10 13 0 13 -1 0 -10z m-100 -36 c0 -2 -7 -4 -15 -4 -8 0 -15 4
-15 10 0 5 7 7 15 4 8 -4 15 -8 15 -10z"/>
<path d="M5850 1896 c0 -2 9 -6 20 -9 11 -3 18 -1 14 4 -5 9 -34 13 -34 5z"/>
<path d="M6436 1889 c4 -7 0 -9 -14 -5 -25 8 -65 -10 -56 -26 4 -7 9 -6 14 1
4 7 11 11 16 10 20 -4 41 2 60 16 18 14 18 14 -4 15 -14 0 -21 -4 -16 -11z"/>
<path d="M4053 1874 c-21 -15 -6 -17 37 -5 25 7 25 7 3 13 -12 3 -30 0 -40 -8z"/>
<path d="M3610 1875 c0 -5 42 -25 60 -30 3 0 20 -9 38 -18 20 -11 41 -15 54
-11 13 4 18 2 14 -4 -4 -7 9 -15 32 -22 31 -8 45 -7 71 6 37 18 32 34 -10 34
-17 0 -32 6 -36 15 -5 14 -8 14 -29 0 -25 -16 -48 -20 -40 -7 2 4 -5 9 -16 9
-20 2 -20 1 -2 -12 31 -23 3 -17 -61 15 -60 30 -75 35 -75 25z m215 -45 c-3
-5 -10 -10 -16 -10 -5 0 -9 5 -9 10 0 6 7 10 16 10 8 0 12 -4 9 -10z m54 -14
c-2 -2 -22 -6 -44 -9 -27 -4 -35 -3 -25 3 14 9 79 15 69 6z"/>
<path d="M4846 1865 c-6 -17 5 -20 20 -6 5 5 18 11 29 14 13 3 10 5 -11 6 -20
1 -34 -5 -38 -14z"/>
<path d="M4796 1845 c-11 -8 -15 -15 -9 -15 19 0 43 12 43 21 0 13 -12 11 -34
-6z"/>
<path d="M3910 1838 c0 -16 40 -29 58 -19 15 9 14 11 -8 12 l-25 1 25 8 c21 7
20 8 -12 7 -21 -1 -38 -5 -38 -9z"/>
<path d="M4456 1841 c-3 -5 1 -12 10 -15 8 -3 12 -2 9 4 -3 6 1 10 10 10 8 0
18 -6 21 -14 3 -8 13 -12 26 -8 14 3 19 1 14 -6 -4 -7 4 -8 29 -1 23 7 41 6
54 -1 24 -12 91 -13 109 -1 11 6 10 10 -4 15 -10 4 -20 2 -24 -4 -5 -8 -18 -7
-44 4 -20 8 -42 13 -50 10 -7 -3 -25 0 -39 5 -33 13 -36 4 -4 -9 15 -6 17 -9
6 -9 -9 -1 -33 6 -52 14 -41 17 -63 19 -71 6z m194 -21 c8 -5 11 -10 5 -10 -5
0 -17 5 -25 10 -8 5 -10 10 -5 10 6 0 17 -5 25 -10z"/>
<path d="M4735 1836 c17 -7 32 -11 35 -9 8 7 -24 23 -45 22 -15 0 -13 -3 10
-13z"/>
<path d="M6833 1843 c9 -2 23 -2 30 0 6 3 -1 5 -18 5 -16 0 -22 -2 -12 -5z"/>
<path d="M6795 1830 c3 -5 11 -10 16 -10 6 0 7 5 4 10 -3 6 -11 10 -16 10 -6
0 -7 -4 -4 -10z"/>
<path d="M6840 1820 c-13 -8 -12 -10 3 -10 9 0 17 5 17 10 0 12 -1 12 -20 0z"/>
<path d="M4588 1793 c6 -2 18 -2 25 0 6 3 1 5 -13 5 -14 0 -19 -2 -12 -5z"/>
</g>
</svg>
