<svg width="75" height="44" viewBox="0 0 75 44" fill="none" xmlns="http://www.w3.org/2000/svg">
<path d="M70.238 7.20431C69.1435 7.67828 68.3821 8.33393 67.9458 8.77235C67.5294 8.40107 66.9425 7.94686 66.1732 7.56373C65.2928 7.12531 64.4877 6.93178 63.9008 6.84488C63.3218 6.74219 62.5247 6.65924 61.5769 6.77379C60.7243 6.88043 60.0184 7.11346 59.5029 7.32675V7.3228C60.0303 6.13393 59.5742 4.71993 58.4123 4.06032C58.4123 4.06032 51.4604 -0.691204 47.2845 4.41975C47.2845 4.41975 46.3169 4.18276 45.2937 4.53429C44.2706 4.88976 43.6638 5.67576 43.6638 5.67576C37.2077 4.26176 34.7252 12.2837 34.7252 12.2837C34.1937 13.6029 34.8362 15.0959 36.1607 15.6291C36.478 15.7555 36.8032 15.8187 37.1244 15.8187C38.1476 15.8187 39.1112 15.2065 39.5157 14.2032L41.8793 9.13968C41.907 9.08043 41.9903 9.08438 42.0101 9.14757L44.5006 17.0865C45.0955 18.3149 46.5231 18.9034 47.8199 18.4531L48.3751 18.2596C48.6606 19.0732 49.5569 19.5038 50.3738 19.2194C51.0282 18.9943 51.4327 18.3899 51.4327 17.7461C51.4327 17.5723 51.4009 17.4025 51.3454 17.2327L52.0037 16.9996C52.9951 16.656 53.6693 15.791 53.7922 14.7996C53.8319 14.4995 53.82 14.1835 53.7486 13.8715L53.6059 13.5081L53.0586 12.0901L50.7466 6.11023C50.7228 6.04704 50.7862 5.99174 50.8418 6.02334L54.867 8.0377L54.6845 9.08833C54.4902 10.214 54.4902 11.3239 54.6647 12.3824C54.7361 12.8287 54.8352 13.2632 54.9661 13.6858C55.0771 14.0571 55.212 14.4205 55.3666 14.7641C56.5246 17.3591 58.797 19.3063 61.6602 19.8L61.7237 19.8079C64.6028 20.3016 67.4144 19.2075 69.3695 17.13C69.6352 16.8456 69.8851 16.5454 70.123 16.2334C70.3808 15.8779 70.6187 15.4987 70.8329 15.1038C71.3326 14.1756 71.6974 13.1487 71.8917 12.0427L72.8276 6.64345C72.2447 6.65529 71.3088 6.74614 70.242 7.20826" fill=""/>
<path d="M44.4731 10.0639C43.4261 10.4273 42.284 9.87827 41.9231 8.83949C41.5583 7.80071 42.1095 6.65924 43.1525 6.29587C44.1994 5.93644 45.3416 6.4815 45.7064 7.52423C46.0713 8.56301 45.52 9.70053 44.4731 10.0639Z" fill=""/>
<path d="M49.3032 8.38924C48.2563 8.74866 47.1142 8.2036 46.7533 7.16087C46.3884 6.12209 46.9436 4.98062 47.9827 4.62119C49.0296 4.25387 50.1757 4.80683 50.5366 5.84561C50.8974 6.88439 50.3502 8.02191 49.3032 8.38924Z" fill=""/>
<path d="M62.4017 11.1303C62.7665 12.1691 62.2153 13.3106 61.1684 13.67C60.1214 14.0295 58.9793 13.4844 58.6184 12.4417C58.2536 11.4029 58.8048 10.2614 59.8517 9.90198C60.8908 9.53861 62.0368 10.0876 62.4017 11.1303Z" fill=""/>
<path d="M67.347 11.9598C67.7118 12.9986 67.1606 14.14 66.1137 14.4995C65.0707 14.8628 63.9246 14.3138 63.5637 13.2711C63.1989 12.2323 63.7501 11.0908 64.7971 10.7314C65.84 10.372 66.9861 10.921 67.347 11.9598Z" fill=""/>
<path d="M33.8213 41.9264C33.8213 41.6539 33.8332 41.2786 33.8332 40.6546V33.6359C33.8332 33.5688 33.8808 33.5214 33.9363 33.5214H36.7202C38.8181 33.5214 40.4044 34.9156 40.4044 36.93C40.4044 38.9443 38.7507 40.5203 36.6092 40.5203H35.0229V40.7573C35.0229 41.3379 35.0348 41.6657 35.0348 41.9264C35.0348 41.9935 34.9753 42.0409 34.9119 42.0409H33.9442C33.8808 42.0409 33.8253 41.9935 33.8213 41.9264ZM36.5854 39.4183C38.0924 39.4183 39.2305 38.419 39.2305 36.93C39.2305 35.4409 38.1003 34.6233 36.6964 34.6233H35.0903C35.0427 34.6233 35.0229 34.647 35.0229 34.6905V39.4183H36.5854Z" fill="black"/>
<path d="M45.6348 33.6715L49.1484 40.86C49.3982 41.3932 49.5489 41.6657 49.6481 41.8829C49.6798 41.9501 49.66 42.0409 49.545 42.0409H48.4623C48.3711 42.0409 48.3116 41.9738 48.2799 41.9185C48.1649 41.6697 48.0182 41.3616 47.7525 40.8047L47.6057 40.4966H42.9857L42.8469 40.7928C42.6209 41.2905 42.4464 41.6657 42.3234 41.9185C42.2996 41.9738 42.2322 42.0409 42.141 42.0409H41.1615C41.0584 42.0409 41.0227 41.9501 41.0584 41.8829C41.1813 41.6539 41.3558 41.3142 41.5818 40.8363L45.0717 33.6715C45.151 33.5016 45.2422 33.4542 45.3453 33.4542C45.4484 33.4503 45.5396 33.5056 45.6348 33.6715ZM47.1021 39.4341L45.3017 35.6384L43.4973 39.4341H47.1021Z" fill="black"/>
<path d="M55.9339 36.1558L58.123 39.7461L59.6736 35.204C59.9234 34.4772 60.0622 34.023 60.1971 33.6478C60.2209 33.5688 60.2883 33.5095 60.3557 33.5095H61.3352C61.4264 33.5095 61.4582 33.6004 61.4383 33.6794C61.2995 34.0901 61.1409 34.5088 60.8911 35.2711L58.6346 41.8909C58.5791 42.0488 58.476 42.1199 58.361 42.1199C58.238 42.1199 58.1547 42.0528 58.0635 41.9027L55.6444 37.9372L53.1976 41.9145C53.1183 42.037 53.039 42.1199 52.9121 42.1199C52.7852 42.1199 52.694 42.0409 52.6503 41.9027L50.4058 35.3501C50.1321 34.568 49.9695 34.1099 49.8228 33.6794C49.7911 33.5885 49.8347 33.5095 49.9259 33.5095H50.9054C50.9847 33.5095 51.0442 33.5648 51.076 33.6478C51.2227 34.0783 51.3615 34.5207 51.6351 35.3066L53.15 39.7698L55.3629 36.1598C55.4422 36.0373 55.5215 35.9544 55.6365 35.9544C55.7634 35.9544 55.8546 36.0215 55.9339 36.1558Z" fill="black"/>
<path d="M62.7112 40.8126C62.6795 40.781 62.6636 40.7099 62.7112 40.6427L63.3021 40.0187C63.3576 39.9515 63.425 39.9594 63.4845 40.0068C64.1706 40.6901 64.9994 41.1325 66.0979 41.1325C67.125 41.1325 67.9459 40.6427 67.9459 39.8488C67.9459 38.032 62.8817 38.3163 62.8817 35.6226C62.8817 34.1573 64.238 33.3397 65.9036 33.3397C67.1686 33.3397 68.1482 33.8492 68.8779 34.4535C68.9453 34.5127 68.9453 34.5917 68.9096 34.6233L68.3266 35.2948C68.279 35.3422 68.2116 35.354 68.1442 35.2948C67.585 34.805 66.7998 34.4219 65.8877 34.4219C64.8725 34.4219 64.0833 34.8761 64.0833 35.5476C64.0833 37.3092 69.1594 37.0564 69.1594 39.7501C69.1594 41.3497 67.7675 42.2266 66.0701 42.2266C64.6663 42.2226 63.5281 41.642 62.7112 40.8126Z" fill="black"/>
<path d="M8.87681 24.3185L11.0659 27.9088L12.6165 23.3666C12.8663 22.6399 13.0051 22.1856 13.1399 21.8104C13.1637 21.7314 13.2312 21.6722 13.2986 21.6722H14.2781C14.3693 21.6722 14.401 21.763 14.3812 21.842C14.2424 22.2488 14.0838 22.6715 13.8339 23.4338L11.5775 30.0535C11.5219 30.2115 11.4188 30.2826 11.3038 30.2826C11.1809 30.2826 11.0976 30.2154 11.0064 30.0653L8.58731 26.0998L6.14048 30.0772C6.06116 30.1996 5.98185 30.2826 5.85495 30.2826C5.72804 30.2826 5.63683 30.2036 5.59321 30.0653L3.34862 23.5167C3.07499 22.7346 2.9124 22.2765 2.76566 21.846C2.73394 21.7551 2.77756 21.6761 2.86877 21.6761H3.8483C3.92762 21.6761 3.9871 21.7314 4.01883 21.8144C4.16556 22.2449 4.30436 22.6873 4.57799 23.4732L6.09289 27.9364L8.30575 24.3264C8.38507 24.2039 8.46438 24.121 8.57939 24.121C8.70629 24.1171 8.7975 24.1842 8.87681 24.3185Z" fill="black"/>
<path d="M16.2334 30.0891C16.2334 29.6704 16.2453 29.2478 16.2453 28.5566V23.3192C16.2453 22.6478 16.2334 22.2054 16.2334 21.7986C16.2334 21.7314 16.2889 21.684 16.3484 21.684H17.316C17.3835 21.684 17.439 21.7314 17.439 21.7986C17.439 22.2054 17.4271 22.6399 17.4271 23.3074V24.4409H21.8845V23.3153C21.8845 22.6438 21.8726 22.2014 21.8726 21.7946C21.8726 21.7275 21.9321 21.6801 21.9876 21.6801H22.9672C23.0227 21.6801 23.0822 21.7275 23.0822 21.7946C23.0822 22.2014 23.0703 22.6359 23.0703 23.3034V28.5566C23.0703 29.2596 23.0822 29.6704 23.0822 30.0891C23.0822 30.1562 23.0227 30.2036 22.9672 30.2036H21.9876C21.9321 30.2036 21.8726 30.1562 21.8726 30.0891C21.8726 29.6704 21.8845 29.2478 21.8845 28.5566V25.5469H17.4271V28.5566C17.4271 29.2596 17.439 29.6704 17.439 30.0891C17.439 30.1562 17.3835 30.2036 17.316 30.2036H16.3484C16.2889 30.2036 16.2334 30.1562 16.2334 30.0891Z" fill="black"/>
<path d="M25.9292 30.0891C25.9292 29.6704 25.9411 29.2478 25.9411 28.5566V23.3192C25.9411 22.6478 25.9292 22.2054 25.9292 21.7986C25.9292 21.7314 25.9847 21.684 26.0442 21.684H27.0118C27.0793 21.684 27.1348 21.7314 27.1348 21.7986C27.1348 22.2054 27.1229 22.6399 27.1229 23.3074V28.5566C27.1229 29.2596 27.1348 29.6704 27.1348 30.0891C27.1348 30.1562 27.0793 30.2036 27.0118 30.2036H26.0442C25.9847 30.2036 25.9292 30.1562 25.9292 30.0891Z" fill="black"/>
<path d="M29.4075 28.9792C29.3758 28.9476 29.3599 28.8765 29.4075 28.8093L29.9984 28.1853C30.0539 28.1181 30.1213 28.126 30.1808 28.1734C30.8669 28.8567 31.6957 29.2991 32.7942 29.2991C33.8213 29.2991 34.6422 28.8093 34.6422 28.0154C34.6422 26.1986 29.578 26.4829 29.578 23.7892C29.578 22.3239 30.9343 21.5063 32.5999 21.5063C33.8649 21.5063 34.8445 22.0158 35.5741 22.6201C35.6416 22.6754 35.6416 22.7584 35.6059 22.7899L35.0229 23.4614C34.9753 23.5088 34.9079 23.5167 34.8405 23.4614C34.2813 22.9716 33.4961 22.5885 32.584 22.5885C31.5688 22.5885 30.7796 23.0427 30.7796 23.7142C30.7796 25.4758 35.8557 25.2269 35.8557 27.9167C35.8557 29.5163 34.4637 30.3932 32.7664 30.3932C31.3626 30.3853 30.2244 29.8047 29.4075 28.9792Z" fill="black"/>
<path d="M38.084 30.0891C38.084 29.6704 38.0959 29.2478 38.0959 28.5566V23.3192C38.0959 22.6478 38.084 22.2054 38.084 21.7986C38.084 21.7314 38.1395 21.684 38.199 21.684H39.1666C39.234 21.684 39.2896 21.7314 39.2896 21.7986C39.2896 22.2054 39.2777 22.6399 39.2777 23.3074V24.8399L42.4026 22.6359C43.0292 22.1935 43.3941 21.921 43.7391 21.6919C43.8065 21.6366 43.8779 21.6603 43.9096 21.7038L44.4212 22.4305C44.4569 22.4898 44.4688 22.553 44.3974 22.6004C44.0206 22.861 43.5646 23.1691 42.9142 23.6233L41.3874 24.7016L43.164 28.3472C43.5408 29.1214 43.7906 29.6072 43.9968 30.0298C44.0444 30.1088 43.9731 30.1996 43.8937 30.1996H42.8428C42.7635 30.1996 42.704 30.1522 42.6604 30.0772C42.478 29.6901 42.2718 29.2478 41.9188 28.521L40.392 25.3968L39.2737 26.1907V28.5566C39.2737 29.2596 39.2856 29.6704 39.2856 30.0891C39.2856 30.1562 39.2301 30.2036 39.1627 30.2036H38.199C38.1395 30.2036 38.084 30.1562 38.084 30.0891Z" fill="black"/>
<path d="M46.2974 30.0654V21.7946C46.2974 21.7275 46.345 21.6801 46.4124 21.6801H49.7198C50.5169 21.6801 50.9491 21.6682 51.2109 21.6682C51.2783 21.6682 51.3259 21.7235 51.3259 21.7828V22.6675C51.3259 22.7347 51.2783 22.79 51.2109 22.79C50.9491 22.79 50.5129 22.7781 49.7198 22.7781H47.5545C47.5069 22.7781 47.4871 22.79 47.4871 22.8373V24.437H49.7237C50.5208 24.437 50.969 24.4251 51.2148 24.4251C51.2823 24.4251 51.3298 24.4844 51.3298 24.5397V25.4244C51.3298 25.4916 51.2823 25.5469 51.2148 25.5469C50.9531 25.5469 50.5169 25.535 49.7237 25.535H47.4871V29.0108C47.4871 29.0582 47.5109 29.0898 47.5545 29.0898H50.4495C51.2585 29.0898 51.7026 29.0779 51.9564 29.0779C52.0357 29.0779 52.0794 29.1372 52.0794 29.2004V30.097C52.0794 30.1522 52.0318 30.2115 51.9564 30.2115C51.6947 30.2115 51.2624 30.1996 50.4415 30.1996H46.4243C46.345 30.1996 46.3013 30.1444 46.3013 30.0614" fill="black"/>
<path d="M54.0542 30.0891C54.0542 29.8284 54.0661 29.4531 54.0661 28.8172V21.7986C54.0661 21.7314 54.1137 21.684 54.1811 21.684H56.9531C59.051 21.684 60.6373 23.0822 60.6373 25.0926C60.6373 26.7397 59.6895 27.9207 58.242 28.3512C58.698 28.758 58.9836 29.2478 59.7688 29.2478C59.9393 29.2478 60.0979 29.2241 60.316 29.1332C60.3954 29.1095 60.4548 29.1332 60.4747 29.2122L60.669 29.9864C60.6928 30.0772 60.6571 30.1365 60.5897 30.1562C60.2367 30.3063 59.975 30.3379 59.7133 30.3379C57.889 30.3379 57.6947 28.679 56.1996 28.679H55.2518V28.916C55.2518 29.5045 55.2637 29.8244 55.2637 30.0851C55.2637 30.1444 55.2043 30.1996 55.1487 30.1996H54.1692C54.1018 30.2036 54.0582 30.1562 54.0542 30.0891ZM56.8183 27.577C58.3253 27.577 59.4634 26.5777 59.4634 25.0887C59.4634 23.5996 58.3332 22.7821 56.9333 22.7821H55.3153C55.2677 22.7821 55.2558 22.8176 55.2558 22.8492V27.5731L56.8183 27.577Z" fill="black"/>
<path d="M62.4612 28.9792C62.4295 28.9476 62.4136 28.8765 62.4612 28.8093L63.0521 28.1853C63.1076 28.1181 63.175 28.126 63.2345 28.1734C63.9206 28.8567 64.7494 29.2991 65.8479 29.2991C66.875 29.2991 67.6959 28.8093 67.6959 28.0154C67.6959 26.1986 62.6317 26.4829 62.6317 23.7892C62.6317 22.3239 63.988 21.5063 65.6536 21.5063C66.9186 21.5063 67.8982 22.0158 68.6279 22.6201C68.6953 22.6754 68.6953 22.7584 68.6596 22.7899L68.0766 23.4614C68.029 23.5088 67.9616 23.5167 67.8942 23.4614C67.335 22.9716 66.5498 22.5885 65.6377 22.5885C64.6225 22.5885 63.8333 23.0427 63.8333 23.7142C63.8333 25.4758 68.9094 25.2269 68.9094 27.9167C68.9094 29.5163 67.5175 30.3932 65.8201 30.3932C64.4163 30.3853 63.2781 29.8047 62.4612 28.9792Z" fill="black"/>
<path d="M26.2666 33.6162C23.9308 33.6162 22.0352 35.5041 22.0352 37.8305C22.0352 40.1569 23.9308 42.0449 26.2666 42.0449C28.6024 42.0449 30.498 40.1569 30.498 37.8305C30.498 35.5041 28.6024 33.6162 26.2666 33.6162ZM28.0035 36.5864V39.916C28.0035 40.0621 27.833 40.1411 27.718 40.0029L25.2434 37.2618V39.1774C25.2434 39.4776 25.2513 39.6948 25.2513 39.9357C25.2513 39.9792 25.2196 40.0108 25.1839 40.0108H24.597C24.5613 40.0108 24.5296 39.9792 24.5296 39.9357C24.5296 39.6948 24.5375 39.4736 24.5375 39.1695V35.8715C24.5375 35.6977 24.708 35.6305 24.8548 35.7767L27.2976 38.498V36.5903C27.2976 36.2901 27.2897 36.065 27.2897 35.8241C27.2897 35.7885 27.3214 35.7569 27.3571 35.7569H27.9441C27.9797 35.7569 28.0035 35.7885 28.0035 35.8241V36.5864Z" fill="black"/>
<path d="M49.9219 18.0108C49.8029 18.0108 49.6918 17.9357 49.6482 17.8172C49.5967 17.6671 49.676 17.5052 49.8267 17.4499L51.9166 16.7232C52.7891 16.419 53.3998 15.6686 53.5187 14.7601C53.5505 14.4916 53.5425 14.219 53.487 13.9544L52.8049 12.1889L50.4929 6.20898C50.4374 6.06284 50.4771 5.9088 50.5921 5.81006C50.7031 5.71131 50.8617 5.69552 50.9966 5.76266L56.0013 8.26284C56.3661 8.46823 56.7468 8.57092 57.1513 8.57092C57.9762 8.57092 58.7376 8.12855 59.1461 7.4176C59.1818 7.3544 59.2135 7.29121 59.2452 7.22406L59.2571 7.19641C59.729 6.12604 59.3166 4.88187 58.2895 4.30126C58.2538 4.27756 56.5366 3.12029 54.3515 2.59103C51.4764 1.89982 49.1803 2.57128 47.5305 4.59354L47.4155 4.73178L47.2371 4.68834C47.2291 4.68439 46.3329 4.47505 45.4089 4.79498C45.2582 4.84633 45.0956 4.76733 45.044 4.61724C44.9925 4.46715 45.0718 4.30521 45.2225 4.24991C46.0553 3.96158 46.8484 4.03663 47.1974 4.09192C51.5002 -0.947931 58.5274 3.76015 58.5988 3.80755C59.844 4.5106 60.3635 6.03914 59.8123 7.36625V7.3702L59.7846 7.4334C59.7409 7.52029 59.7013 7.60719 59.6497 7.69408C59.1381 8.58672 58.1824 9.13573 57.1553 9.13573C56.6516 9.13573 56.1758 9.00934 55.7356 8.76051L51.2424 6.51311L54.0541 13.7925C54.1295 14.1282 54.1453 14.4758 54.1017 14.8154C53.955 15.9411 53.1975 16.8733 52.1228 17.2485L50.0289 17.9752C49.9972 17.9871 49.9655 17.991 49.9338 17.991M50.7309 6.27613C50.7309 6.27613 50.7348 6.28008 50.7388 6.28008L50.7309 6.27613Z" fill="black"/>
<path d="M43.8064 10.4628C43.4654 10.4628 43.1283 10.3878 42.815 10.2338C42.2638 9.96913 41.8513 9.50701 41.6491 8.93035C41.4468 8.35764 41.4825 7.73753 41.7482 7.18457C42.0139 6.63556 42.4779 6.22083 43.0569 6.0194C44.2506 5.60863 45.5593 6.23663 45.9796 7.4255C46.1819 8.00216 46.1462 8.62227 45.8765 9.17128C45.6108 9.7203 45.1468 10.1311 44.5678 10.3325C44.318 10.4194 44.0602 10.4628 43.8064 10.4628ZM43.8064 6.46967C43.62 6.46967 43.4297 6.50126 43.2473 6.56446C42.815 6.71455 42.466 7.02658 42.2677 7.43735C42.0694 7.84812 42.0417 8.31419 42.1924 8.74471C42.3431 9.17918 42.6524 9.52281 43.0648 9.72029C43.4773 9.91778 43.9413 9.94543 44.3775 9.79534C44.8097 9.64525 45.1587 9.33717 45.357 8.9264C45.5553 8.51563 45.5831 8.05351 45.4324 7.61904C45.1825 6.91204 44.5163 6.46967 43.8064 6.46967Z" fill="black"/>
<path d="M48.6527 8.7842C47.7049 8.7842 46.8126 8.19174 46.4875 7.2517C46.2852 6.67899 46.3209 6.05888 46.5866 5.50987C46.8523 4.96086 47.3163 4.54613 47.8953 4.34865C48.4743 4.14721 49.0969 4.18276 49.6521 4.44739C50.2033 4.71202 50.6158 5.17414 50.818 5.7508C51.2304 6.93967 50.5999 8.24308 49.4062 8.66176C49.1524 8.7447 48.8986 8.7842 48.6527 8.7842ZM48.6527 4.79102C48.4624 4.79102 48.2681 4.82262 48.0817 4.88581C47.6494 5.0359 47.3004 5.34398 47.1021 5.75475C46.9039 6.16553 46.8761 6.62764 47.0268 7.05817C47.3361 7.94685 48.3196 8.42082 49.2079 8.11274C50.1002 7.80072 50.5761 6.82513 50.2668 5.93249C50.1161 5.50197 49.8068 5.15439 49.3943 4.95691C49.1643 4.84632 48.9105 4.79102 48.6527 4.79102Z" fill="black"/>
<path d="M44.933 8.25494C45.0401 8.55512 44.8775 8.88295 44.5761 8.98564C44.2747 9.09228 43.9456 8.93034 43.8425 8.63016C43.7394 8.32998 43.898 8.00216 44.1994 7.89946C44.5008 7.79677 44.826 7.95476 44.933 8.25494Z" fill="black"/>
<path d="M49.767 6.5763C49.8741 6.87648 49.7115 7.20431 49.4101 7.307C49.1087 7.41365 48.7796 7.25171 48.6765 6.95153C48.5734 6.65135 48.732 6.32352 49.0334 6.22083C49.3348 6.11813 49.6639 6.27612 49.767 6.5763Z" fill="black"/>
<path d="M46.9395 18.8876C45.8212 18.8876 44.7623 18.2596 44.2507 17.205L44.2349 17.1655L41.9149 9.76373L39.7854 14.3217C39.3491 15.396 38.3062 16.103 37.1323 16.103C36.7675 16.103 36.4066 16.032 36.0576 15.8937C34.5903 15.3052 33.8725 13.6384 34.4634 12.177C34.4793 12.1178 37.053 4.08007 43.5686 5.36373C43.8026 5.10305 44.3776 4.55799 45.2104 4.26571C45.3611 4.21436 45.5237 4.29336 45.5793 4.4395C45.6348 4.58564 45.5515 4.75152 45.4048 4.80682C44.4808 5.1307 43.9137 5.8456 43.9097 5.8535L43.7987 5.99569L43.6202 5.95619C37.4853 4.61328 35.0305 12.2916 35.0067 12.3666C34.5268 13.5555 35.1019 14.8905 36.2757 15.3565C36.5533 15.4671 36.8428 15.5264 37.1323 15.5264C38.0722 15.5264 38.905 14.9655 39.2579 14.0926L41.6294 9.01328C41.6929 8.87899 41.8317 8.8 41.9784 8.8079C42.1251 8.8158 42.252 8.91454 42.2957 9.05673L44.7822 16.9759C45.3175 18.0621 46.5865 18.5795 47.7366 18.1806L49.8265 17.4539C49.9772 17.4025 50.1398 17.4815 50.1953 17.6276C50.2469 17.7777 50.1676 17.9397 50.0169 17.995L47.923 18.7257C47.5978 18.8363 47.2686 18.8916 46.9395 18.8876Z" fill="black"/>
<path d="M51.4446 17.7422C51.4446 18.3899 51.0401 18.9903 50.3858 19.2154C49.5688 19.4998 48.6726 19.0693 48.3871 18.2557C48.3236 18.0819 48.2998 17.912 48.2998 17.7382C48.2998 17.0905 48.7043 16.4862 49.3547 16.265C49.5252 16.2057 49.6997 16.1781 49.8702 16.1781C50.5246 16.1781 51.1274 16.581 51.3574 17.2327C51.4168 17.3986 51.4446 17.5684 51.4446 17.7422Z" fill="black"/>
<path d="M49.9219 18.0108C49.8029 18.0108 49.6918 17.9357 49.6482 17.8172C49.5967 17.6671 49.676 17.5052 49.8267 17.4499L51.9166 16.7232C52.7891 16.419 53.3998 15.6686 53.5187 14.7601C53.5505 14.4916 53.5425 14.219 53.487 13.9544L52.8049 12.1889L50.4929 6.20898C50.4374 6.06284 50.4771 5.9088 50.5921 5.81006C50.7031 5.71131 50.8617 5.69552 50.9966 5.76266L56.0013 8.26284C56.3661 8.46823 56.7468 8.57092 57.1513 8.57092C57.9762 8.57092 58.7376 8.12855 59.1461 7.4176C59.1818 7.3544 59.2135 7.29121 59.2452 7.22406L59.2571 7.19641C59.729 6.12604 59.3166 4.88187 58.2895 4.30126C58.2538 4.27756 56.5366 3.12029 54.3515 2.59103C51.4764 1.89982 49.1803 2.57128 47.5305 4.59354L47.4155 4.73178L47.2371 4.68834C47.2291 4.68439 46.3329 4.47505 45.4089 4.79498C45.2582 4.84633 45.0956 4.76733 45.044 4.61724C44.9925 4.46715 45.0718 4.30521 45.2225 4.24991C46.0553 3.96158 46.8484 4.03663 47.1974 4.09192C51.5002 -0.947931 58.5274 3.76015 58.5988 3.80755C59.844 4.5106 60.3635 6.03914 59.8123 7.36625V7.3702L59.7846 7.4334C59.7409 7.52029 59.7013 7.60719 59.6497 7.69408C59.1381 8.58672 58.1824 9.13573 57.1553 9.13573C56.6516 9.13573 56.1758 9.00934 55.7356 8.76051L51.2424 6.51311L54.0541 13.7925C54.1295 14.1282 54.1453 14.4758 54.1017 14.8154C53.955 15.9411 53.1975 16.8733 52.1228 17.2485L50.0289 17.9752C49.9972 17.9871 49.9655 17.991 49.9338 17.991M50.7309 6.27613C50.7309 6.27613 50.7348 6.28008 50.7388 6.28008L50.7309 6.27613Z" fill="black"/>
<path d="M43.8064 10.4628C43.4654 10.4628 43.1283 10.3878 42.815 10.2338C42.2638 9.96913 41.8513 9.50701 41.6491 8.93035C41.4468 8.35764 41.4825 7.73753 41.7482 7.18457C42.0139 6.63556 42.4779 6.22083 43.0569 6.0194C44.2506 5.60863 45.5593 6.23663 45.9796 7.4255C46.1819 8.00216 46.1462 8.62227 45.8765 9.17128C45.6108 9.7203 45.1468 10.1311 44.5678 10.3325C44.318 10.4194 44.0602 10.4628 43.8064 10.4628ZM43.8064 6.46967C43.62 6.46967 43.4297 6.50126 43.2473 6.56446C42.815 6.71455 42.466 7.02658 42.2677 7.43735C42.0694 7.84812 42.0417 8.31419 42.1924 8.74471C42.3431 9.17918 42.6524 9.52281 43.0648 9.72029C43.4773 9.91778 43.9413 9.94543 44.3775 9.79534C44.8097 9.64525 45.1587 9.33717 45.357 8.9264C45.5553 8.51563 45.5831 8.05351 45.4324 7.61904C45.1825 6.91204 44.5163 6.46967 43.8064 6.46967Z" fill="black"/>
<path d="M48.6527 8.7842C47.7049 8.7842 46.8126 8.19174 46.4875 7.2517C46.2852 6.67899 46.3209 6.05888 46.5866 5.50987C46.8523 4.96086 47.3163 4.54613 47.8953 4.34865C48.4743 4.14721 49.0969 4.18276 49.6521 4.44739C50.2033 4.71202 50.6158 5.17414 50.818 5.7508C51.2304 6.93967 50.5999 8.24308 49.4062 8.66176C49.1524 8.7447 48.8986 8.7842 48.6527 8.7842ZM48.6527 4.79102C48.4624 4.79102 48.2681 4.82262 48.0817 4.88581C47.6494 5.0359 47.3004 5.34398 47.1021 5.75475C46.9039 6.16553 46.8761 6.62764 47.0268 7.05817C47.3361 7.94685 48.3196 8.42082 49.2079 8.11274C50.1002 7.80072 50.5761 6.82513 50.2668 5.93249C50.1161 5.50197 49.8068 5.15439 49.3943 4.95691C49.1643 4.84632 48.9105 4.79102 48.6527 4.79102Z" fill="black"/>
<path d="M44.933 8.25494C45.0401 8.55512 44.8775 8.88295 44.5761 8.98564C44.2747 9.09228 43.9456 8.93034 43.8425 8.63016C43.7394 8.32998 43.898 8.00216 44.1994 7.89946C44.5008 7.79677 44.826 7.95476 44.933 8.25494Z" fill="black"/>
<path d="M49.767 6.5763C49.8741 6.87648 49.7115 7.20431 49.4101 7.307C49.1087 7.41365 48.7796 7.25171 48.6765 6.95153C48.5734 6.65135 48.732 6.32352 49.0334 6.22083C49.3348 6.11813 49.6639 6.27612 49.767 6.5763Z" fill="black"/>
<path d="M46.9395 18.8876C45.8212 18.8876 44.7623 18.2596 44.2507 17.205L44.2349 17.1655L41.9149 9.76373L39.7854 14.3217C39.3491 15.396 38.3062 16.103 37.1323 16.103C36.7675 16.103 36.4066 16.032 36.0576 15.8937C34.5903 15.3052 33.8725 13.6384 34.4634 12.177C34.4793 12.1178 37.053 4.08007 43.5686 5.36373C43.8026 5.10305 44.3776 4.55799 45.2104 4.26571C45.3611 4.21436 45.5237 4.29336 45.5793 4.4395C45.6348 4.58564 45.5515 4.75152 45.4048 4.80682C44.4808 5.1307 43.9137 5.8456 43.9097 5.8535L43.7987 5.99569L43.6202 5.95619C37.4853 4.61328 35.0305 12.2916 35.0067 12.3666C34.5268 13.5555 35.1019 14.8905 36.2757 15.3565C36.5533 15.4671 36.8428 15.5264 37.1323 15.5264C38.0722 15.5264 38.905 14.9655 39.2579 14.0926L41.6294 9.01328C41.6929 8.87899 41.8317 8.8 41.9784 8.8079C42.1251 8.8158 42.252 8.91454 42.2957 9.05673L44.7822 16.9759C45.3175 18.0621 46.5865 18.5795 47.7366 18.1806L49.8265 17.4539C49.9772 17.4025 50.1398 17.4815 50.1953 17.6276C50.2469 17.7777 50.1676 17.9397 50.0169 17.995L47.923 18.7257C47.5978 18.8363 47.2686 18.8916 46.9395 18.8876Z" fill="black"/>
<path d="M51.4446 17.7422C51.4446 18.3899 51.0401 18.9903 50.3858 19.2154C49.5688 19.4998 48.6726 19.0693 48.3871 18.2557C48.3236 18.0819 48.2998 17.912 48.2998 17.7382C48.2998 17.0905 48.7043 16.4862 49.3547 16.265C49.5252 16.2057 49.6997 16.1781 49.8702 16.1781C50.5246 16.1781 51.1274 16.581 51.3574 17.2327C51.4168 17.3986 51.4446 17.5684 51.4446 17.7422Z" fill="black"/>
<path d="M60.5062 14.0689C60.1651 14.0689 59.8241 13.99 59.5108 13.8399C58.9596 13.5752 58.5471 13.1131 58.3449 12.5365C58.1426 11.9598 58.1783 11.3436 58.444 10.7907C58.7097 10.2417 59.1737 9.83089 59.7527 9.62945C60.9464 9.21473 62.2551 9.84668 62.6715 11.0356C62.8737 11.6122 62.838 12.2284 62.5723 12.7813C62.3066 13.3303 61.8426 13.7411 61.2636 13.9426C61.0138 14.0255 60.76 14.0689 60.5062 14.0689ZM60.5062 10.0758C60.3198 10.0758 60.1294 10.1074 59.9431 10.1706C59.5108 10.3207 59.1618 10.6287 58.9635 11.0395C58.7652 11.4503 58.7375 11.9124 58.8882 12.3469C59.0389 12.7774 59.3482 13.125 59.7606 13.3224C60.1731 13.5199 60.641 13.5476 61.0733 13.3975C61.5055 13.2474 61.8545 12.9393 62.0528 12.5286C62.2511 12.1178 62.2789 11.6517 62.1282 11.2212C61.8823 10.5181 61.2161 10.0758 60.5062 10.0758Z" fill="black"/>
<path d="M60.2641 11.4858C60.3712 11.786 60.2086 12.1138 59.9072 12.2165C59.6058 12.3232 59.2766 12.1612 59.1735 11.8611C59.0704 11.5609 59.229 11.2331 59.5304 11.1304C59.8318 11.0277 60.161 11.1857 60.2641 11.4858Z" fill="black"/>
<path d="M65.4554 14.9023C65.1144 14.9023 64.7773 14.8233 64.46 14.6733C63.9088 14.4086 63.4964 13.9465 63.2941 13.3698C63.0919 12.7932 63.1275 12.1731 63.3932 11.6241C63.6589 11.0751 64.1229 10.6643 64.7019 10.4628C65.2809 10.2614 65.8996 10.297 66.4548 10.5616C67.006 10.8262 67.4184 11.2883 67.6207 11.865C68.0371 13.0539 67.4026 14.3573 66.2089 14.772C65.963 14.8589 65.7092 14.9023 65.4554 14.9023ZM65.4594 10.9092C65.269 10.9092 65.0787 10.9408 64.8923 11.004C64.46 11.154 64.111 11.4621 63.9128 11.8729C63.7145 12.2837 63.6867 12.7497 63.8374 13.1803C63.9881 13.6108 64.2974 13.9584 64.7099 14.1558C65.1223 14.3533 65.5863 14.381 66.0225 14.2309C66.9148 13.9228 67.3907 12.9472 67.0813 12.0546C66.9306 11.6241 66.6213 11.2765 66.2089 11.079C65.967 10.9684 65.7132 10.9092 65.4594 10.9092Z" fill="black"/>
<path d="M65.2133 12.3192C65.3204 12.6194 65.1578 12.9472 64.8564 13.0499C64.555 13.1566 64.2259 12.9946 64.1227 12.6944C64.0196 12.3943 64.1783 12.0664 64.4797 11.9637C64.7811 11.8611 65.1102 12.019 65.2133 12.3192Z" fill="black"/>
<path d="M63.3258 14.9971C63.2703 15.3131 62.8737 15.5106 62.4335 15.4356C61.9973 15.3605 61.684 15.0445 61.7355 14.7286C61.7911 14.4126 62.1876 14.2151 62.6278 14.2862C63.068 14.3612 63.3813 14.6812 63.3258 14.9971Z" fill="black"/>
<path d="M63.0999 20.2068C62.628 20.2068 62.156 20.1673 61.6881 20.0844L61.6405 20.0804C58.7892 19.5907 56.3542 17.6474 55.1209 14.8786C54.9583 14.5153 54.8195 14.14 54.7085 13.7648C54.5736 13.3343 54.4705 12.8801 54.3991 12.4219C54.2167 11.316 54.2246 10.1745 54.419 9.03699L54.6688 7.60719L56.0052 8.2747C56.3701 8.48008 56.7508 8.58277 57.1553 8.58277C57.9802 8.58277 58.7416 8.1404 59.15 7.42945C59.1937 7.35441 59.2294 7.27937 59.2651 7.20432L59.3126 7.10558L59.4157 7.06213C60.1058 6.7738 60.8315 6.58026 61.5652 6.48942C62.3583 6.39462 63.1713 6.41437 63.9763 6.56051C64.7853 6.68295 65.5784 6.93179 66.324 7.30306C66.899 7.59139 67.4463 7.95477 67.9579 8.38134C68.6082 7.76913 69.3419 7.28726 70.1469 6.93969C71.0035 6.56841 71.9117 6.37093 72.8396 6.35118L73.1886 6.34328L72.2012 12.0822C72.0069 13.2 71.642 14.2585 71.1146 15.2341C70.9044 15.6251 70.6585 16.0162 70.3849 16.3953C70.139 16.7232 69.8812 17.0312 69.6076 17.3235C67.8468 19.1799 65.4952 20.2108 63.0999 20.2068ZM55.1011 8.46823L54.9861 9.13574C54.7997 10.2101 54.7957 11.2883 54.9662 12.335C55.0336 12.7695 55.1328 13.1921 55.2597 13.5989C55.3668 13.9544 55.4976 14.3059 55.6483 14.6456C56.8063 17.2366 59.0787 19.0575 61.7278 19.5117L61.7753 19.5156C64.4562 19.9777 67.2163 19.0061 69.1753 16.9246C69.4331 16.6521 69.679 16.3558 69.905 16.0517C70.1628 15.6962 70.3928 15.325 70.5911 14.9576C71.0868 14.0374 71.4358 13.0381 71.6182 11.9795L72.4867 6.93574C71.757 6.99103 71.0432 7.16482 70.3611 7.46105C69.5441 7.81258 68.8026 8.31814 68.1601 8.9659L67.9658 9.15944L67.7635 8.9738C67.2361 8.50378 66.6611 8.10881 66.0543 7.80863C65.3643 7.465 64.6267 7.23197 63.8692 7.11743C63.1118 6.98313 62.3623 6.95944 61.6246 7.05028C60.9782 7.13322 60.3358 7.29911 59.7251 7.544C59.6973 7.59929 59.6696 7.65064 59.6418 7.70199C59.1302 8.59462 58.1784 9.14364 57.1474 9.14364C56.6437 9.14364 56.1678 9.01725 55.7276 8.76841L55.1011 8.45638V8.46823Z" fill="black"/>
<path d="M72.7208 15.6923C72.701 15.6923 72.6812 15.6923 72.6613 15.6844C68.2872 14.7562 65.6857 15.6094 65.6579 15.6173C65.5072 15.6686 65.3446 15.5857 65.2931 15.4395C65.2415 15.2894 65.3208 15.1275 65.4715 15.0761C65.5826 15.0406 68.2356 14.1638 72.7803 15.1235C72.935 15.1551 73.0341 15.3092 73.0024 15.4632C72.9746 15.5975 72.8517 15.6923 72.7208 15.6923Z" fill="black"/>
<path d="M72.2049 18.7336C72.1494 18.7336 72.0939 18.7178 72.0423 18.6822C69.2267 16.7666 65.4196 16.7469 65.372 16.7627C65.2134 16.7627 65.0865 16.6363 65.0825 16.4783C65.0825 16.3203 65.2094 16.19 65.3681 16.19C65.5306 16.19 69.3932 16.19 72.3635 18.2122C72.4944 18.3031 72.5301 18.4808 72.4389 18.6111C72.3873 18.6901 72.2961 18.7296 72.2049 18.7336Z" fill="black"/>
<path d="M72.5181 17.13C72.4864 17.13 72.4547 17.126 72.419 17.1142C69.3218 15.9964 65.5187 16.2097 65.483 16.2097C65.3244 16.2216 65.1856 16.0991 65.1776 15.9411C65.1697 15.7831 65.2887 15.6449 65.4473 15.637C65.6059 15.6251 69.4051 15.4158 72.6173 16.5731C72.768 16.6284 72.8433 16.7903 72.7878 16.9404C72.7481 17.0589 72.6371 17.13 72.5181 17.13Z" fill="black"/>
<path d="M59.495 14.614C59.4315 14.614 59.372 14.5943 59.3165 14.5508C59.3007 14.539 57.754 13.354 54.6172 12.6589C54.3911 12.6036 54.1532 12.5602 53.9192 12.5167C53.6376 12.4654 53.3442 12.418 53.0349 12.3785C52.8762 12.3587 52.7692 12.2126 52.789 12.0546C52.8088 11.8966 52.9555 11.786 53.1142 11.8097C53.4314 11.8531 53.7368 11.9005 54.0302 11.9558C54.2801 12.0032 54.522 12.0506 54.752 12.1059C58.0277 12.8327 59.614 14.0571 59.6774 14.1084C59.8003 14.2072 59.8241 14.3889 59.725 14.5113C59.6655 14.5785 59.5822 14.618 59.495 14.614Z" fill="black"/>
<path d="M59.3045 15.7397C59.2728 15.7397 59.2411 15.7357 59.2093 15.7239C59.1935 15.7199 57.4922 15.1275 55.3745 15.0485C54.8669 15.0287 54.3474 15.0327 53.8358 15.084C53.6772 15.1038 53.5344 14.9853 53.5186 14.8273C53.5027 14.6693 53.6177 14.5311 53.7763 14.5153C54.3117 14.46 54.8709 14.4521 55.3943 14.4758C57.6032 14.5587 59.3243 15.1591 59.3997 15.1828C59.5504 15.2341 59.6297 15.4 59.5742 15.5501C59.5345 15.6646 59.4235 15.7397 59.3045 15.7397Z" fill="black"/>
<path d="M59.3999 15.1907C59.3642 15.1907 59.3245 15.1828 59.2888 15.167C59.269 15.1591 57.2941 14.3494 54.9345 13.9623C54.7243 13.9307 54.5062 13.8952 54.2921 13.8675C54.0581 13.832 53.832 13.8083 53.5981 13.7925C53.4394 13.7806 53.3205 13.6424 53.3324 13.4844C53.3443 13.3264 53.487 13.2119 53.6417 13.2198C53.8876 13.2395 54.1295 13.2632 54.3674 13.2988C54.5855 13.3264 54.8076 13.362 55.0257 13.3935C57.4527 13.7925 59.4276 14.6022 59.507 14.6338C59.6537 14.697 59.7251 14.8628 59.6616 15.009C59.618 15.1235 59.5109 15.1907 59.3999 15.1907Z" fill="black"/>
<path d="M60.5062 14.0689C60.1651 14.0689 59.8241 13.99 59.5108 13.8399C58.9596 13.5752 58.5471 13.1131 58.3449 12.5365C58.1426 11.9598 58.1783 11.3436 58.444 10.7907C58.7097 10.2417 59.1737 9.83089 59.7527 9.62945C60.9464 9.21473 62.2551 9.84668 62.6715 11.0356C62.8737 11.6122 62.838 12.2284 62.5723 12.7813C62.3066 13.3303 61.8426 13.7411 61.2636 13.9426C61.0138 14.0255 60.76 14.0689 60.5062 14.0689ZM60.5062 10.0758C60.3198 10.0758 60.1294 10.1074 59.9431 10.1706C59.5108 10.3207 59.1618 10.6287 58.9635 11.0395C58.7652 11.4503 58.7375 11.9124 58.8882 12.3469C59.0389 12.7774 59.3482 13.125 59.7606 13.3224C60.1731 13.5199 60.641 13.5476 61.0733 13.3975C61.5055 13.2474 61.8545 12.9393 62.0528 12.5286C62.2511 12.1178 62.2789 11.6517 62.1282 11.2212C61.8823 10.5181 61.2161 10.0758 60.5062 10.0758Z" fill="black"/>
<path d="M60.2641 11.4858C60.3712 11.786 60.2086 12.1138 59.9072 12.2165C59.6058 12.3232 59.2766 12.1612 59.1735 11.8611C59.0704 11.5609 59.229 11.2331 59.5304 11.1304C59.8318 11.0277 60.161 11.1857 60.2641 11.4858Z" fill="black"/>
<path d="M65.4554 14.9023C65.1144 14.9023 64.7773 14.8233 64.46 14.6733C63.9088 14.4086 63.4964 13.9465 63.2941 13.3698C63.0919 12.7932 63.1275 12.1731 63.3932 11.6241C63.6589 11.0751 64.1229 10.6643 64.7019 10.4628C65.2809 10.2614 65.8996 10.297 66.4548 10.5616C67.006 10.8262 67.4184 11.2883 67.6207 11.865C68.0371 13.0539 67.4026 14.3573 66.2089 14.772C65.963 14.8589 65.7092 14.9023 65.4554 14.9023ZM65.4594 10.9092C65.269 10.9092 65.0787 10.9408 64.8923 11.004C64.46 11.154 64.111 11.4621 63.9128 11.8729C63.7145 12.2837 63.6867 12.7497 63.8374 13.1803C63.9881 13.6108 64.2974 13.9584 64.7099 14.1558C65.1223 14.3533 65.5863 14.381 66.0225 14.2309C66.9148 13.9228 67.3907 12.9472 67.0813 12.0546C66.9306 11.6241 66.6213 11.2765 66.2089 11.079C65.967 10.9684 65.7132 10.9092 65.4594 10.9092Z" fill="black"/>
<path d="M65.2133 12.3192C65.3204 12.6194 65.1578 12.9472 64.8564 13.0499C64.555 13.1566 64.2259 12.9946 64.1227 12.6944C64.0196 12.3943 64.1783 12.0664 64.4797 11.9637C64.7811 11.8611 65.1102 12.019 65.2133 12.3192Z" fill="black"/>
<path d="M63.3258 14.9971C63.2703 15.3131 62.8737 15.5106 62.4335 15.4356C61.9973 15.3605 61.684 15.0445 61.7355 14.7286C61.7911 14.4126 62.1876 14.2151 62.6278 14.2862C63.068 14.3612 63.3813 14.6812 63.3258 14.9971Z" fill="black"/>
<path d="M63.0999 20.2068C62.628 20.2068 62.156 20.1673 61.6881 20.0844L61.6405 20.0804C58.7892 19.5907 56.3542 17.6474 55.1209 14.8786C54.9583 14.5153 54.8195 14.14 54.7085 13.7648C54.5736 13.3343 54.4705 12.8801 54.3991 12.4219C54.2167 11.316 54.2246 10.1745 54.419 9.03699L54.6688 7.60719L56.0052 8.2747C56.3701 8.48008 56.7508 8.58277 57.1553 8.58277C57.9802 8.58277 58.7416 8.1404 59.15 7.42945C59.1937 7.35441 59.2294 7.27937 59.2651 7.20432L59.3126 7.10558L59.4157 7.06213C60.1058 6.7738 60.8315 6.58026 61.5652 6.48942C62.3583 6.39462 63.1713 6.41437 63.9763 6.56051C64.7853 6.68295 65.5784 6.93179 66.324 7.30306C66.899 7.59139 67.4463 7.95477 67.9579 8.38134C68.6082 7.76913 69.3419 7.28726 70.1469 6.93969C71.0035 6.56841 71.9117 6.37093 72.8396 6.35118L73.1886 6.34328L72.2012 12.0822C72.0069 13.2 71.642 14.2585 71.1146 15.2341C70.9044 15.6251 70.6585 16.0162 70.3849 16.3953C70.139 16.7232 69.8812 17.0312 69.6076 17.3235C67.8468 19.1799 65.4952 20.2108 63.0999 20.2068ZM55.1011 8.46823L54.9861 9.13574C54.7997 10.2101 54.7957 11.2883 54.9662 12.335C55.0336 12.7695 55.1328 13.1921 55.2597 13.5989C55.3668 13.9544 55.4976 14.3059 55.6483 14.6456C56.8063 17.2366 59.0787 19.0575 61.7278 19.5117L61.7753 19.5156C64.4562 19.9777 67.2163 19.0061 69.1753 16.9246C69.4331 16.6521 69.679 16.3558 69.905 16.0517C70.1628 15.6962 70.3928 15.325 70.5911 14.9576C71.0868 14.0374 71.4358 13.0381 71.6182 11.9795L72.4867 6.93574C71.757 6.99103 71.0432 7.16482 70.3611 7.46105C69.5441 7.81258 68.8026 8.31814 68.1601 8.9659L67.9658 9.15944L67.7635 8.9738C67.2361 8.50378 66.6611 8.10881 66.0543 7.80863C65.3643 7.465 64.6267 7.23197 63.8692 7.11743C63.1118 6.98313 62.3623 6.95944 61.6246 7.05028C60.9782 7.13322 60.3358 7.29911 59.7251 7.544C59.6973 7.59929 59.6696 7.65064 59.6418 7.70199C59.1302 8.59462 58.1784 9.14364 57.1474 9.14364C56.6437 9.14364 56.1678 9.01725 55.7276 8.76841L55.1011 8.45638V8.46823Z" fill="black"/>
<path d="M72.7208 15.6923C72.701 15.6923 72.6812 15.6923 72.6613 15.6844C68.2872 14.7562 65.6857 15.6094 65.6579 15.6173C65.5072 15.6686 65.3446 15.5857 65.2931 15.4395C65.2415 15.2894 65.3208 15.1275 65.4715 15.0761C65.5826 15.0406 68.2356 14.1638 72.7803 15.1235C72.935 15.1551 73.0341 15.3092 73.0024 15.4632C72.9746 15.5975 72.8517 15.6923 72.7208 15.6923Z" fill="black"/>
<path d="M72.2049 18.7336C72.1494 18.7336 72.0939 18.7178 72.0423 18.6822C69.2267 16.7666 65.4196 16.7469 65.372 16.7627C65.2134 16.7627 65.0865 16.6363 65.0825 16.4783C65.0825 16.3203 65.2094 16.19 65.3681 16.19C65.5306 16.19 69.3932 16.19 72.3635 18.2122C72.4944 18.3031 72.5301 18.4808 72.4389 18.6111C72.3873 18.6901 72.2961 18.7296 72.2049 18.7336Z" fill="black"/>
<path d="M72.5181 17.13C72.4864 17.13 72.4547 17.126 72.419 17.1142C69.3218 15.9964 65.5187 16.2097 65.483 16.2097C65.3244 16.2216 65.1856 16.0991 65.1776 15.9411C65.1697 15.7831 65.2887 15.6449 65.4473 15.637C65.6059 15.6251 69.4051 15.4158 72.6173 16.5731C72.768 16.6284 72.8433 16.7903 72.7878 16.9404C72.7481 17.0589 72.6371 17.13 72.5181 17.13Z" fill="black"/>
<path d="M59.495 14.614C59.4315 14.614 59.372 14.5943 59.3165 14.5508C59.3007 14.539 57.754 13.354 54.6172 12.6589C54.3911 12.6036 54.1532 12.5602 53.9192 12.5167C53.6376 12.4654 53.3442 12.418 53.0349 12.3785C52.8762 12.3587 52.7692 12.2126 52.789 12.0546C52.8088 11.8966 52.9555 11.786 53.1142 11.8097C53.4314 11.8531 53.7368 11.9005 54.0302 11.9558C54.2801 12.0032 54.522 12.0506 54.752 12.1059C58.0277 12.8327 59.614 14.0571 59.6774 14.1084C59.8003 14.2072 59.8241 14.3889 59.725 14.5113C59.6655 14.5785 59.5822 14.618 59.495 14.614Z" fill="black"/>
<path d="M59.3045 15.7397C59.2728 15.7397 59.2411 15.7357 59.2093 15.7239C59.1935 15.7199 57.4922 15.1275 55.3745 15.0485C54.8669 15.0287 54.3474 15.0327 53.8358 15.084C53.6772 15.1038 53.5344 14.9853 53.5186 14.8273C53.5027 14.6693 53.6177 14.5311 53.7763 14.5153C54.3117 14.46 54.8709 14.4521 55.3943 14.4758C57.6032 14.5587 59.3243 15.1591 59.3997 15.1828C59.5504 15.2341 59.6297 15.4 59.5742 15.5501C59.5345 15.6646 59.4235 15.7397 59.3045 15.7397Z" fill="black"/>
<path d="M59.3999 15.1907C59.3642 15.1907 59.3245 15.1828 59.2888 15.167C59.269 15.1591 57.2941 14.3494 54.9345 13.9623C54.7243 13.9307 54.5062 13.8952 54.2921 13.8675C54.0581 13.832 53.832 13.8083 53.5981 13.7925C53.4394 13.7806 53.3205 13.6424 53.3324 13.4844C53.3443 13.3264 53.487 13.2119 53.6417 13.2198C53.8876 13.2395 54.1295 13.2632 54.3674 13.2988C54.5855 13.3264 54.8076 13.362 55.0257 13.3935C57.4527 13.7925 59.4276 14.6022 59.507 14.6338C59.6537 14.697 59.7251 14.8628 59.6616 15.009C59.618 15.1235 59.5109 15.1907 59.3999 15.1907Z" fill="black"/>
</svg>
