<svg width="99" height="44" viewBox="0 0 99 44" fill="none" xmlns="http://www.w3.org/2000/svg">
<g clip-path="url(#clip0_199_308)">
<path d="M12.6459 35.0821H8.08021C7.56395 35.0821 7.13643 34.662 7.13643 34.137V28.539C7.13643 28.3775 7.0961 28.2159 7.01543 28.0705C4.82941 24.2416 2.65145 20.4208 0.465427 16.5919C0.110501 15.9618 0.562225 15.1863 1.28014 15.1863H6.39431C6.76537 15.1863 7.10416 15.4044 7.24936 15.7437C8.00761 17.432 8.7578 19.1122 9.51605 20.8004C9.84678 21.5436 10.9035 21.5436 11.2342 20.8004C11.9925 19.1122 12.7427 17.432 13.5009 15.7437C13.6542 15.4044 13.9849 15.1863 14.356 15.1863H19.4459C20.18 15.1863 20.6236 15.986 20.2526 16.6161C16.0177 23.7327 13.7429 25.6471 13.5896 34.1612C13.5735 34.6701 13.154 35.0821 12.6459 35.0821Z" fill="black"/>
<path d="M13.6539 12.5368C14.2589 8.68367 10.1772 4.32164 2.1107 9.17642C1.36859 9.6207 0.424805 9.08757 0.424805 8.22324V4.06315C0.424805 3.82081 0.50547 3.57848 0.650667 3.38461C5.21631 -2.49606 23.4305 -1.55903 20.3975 12.9569C20.2765 13.4577 19.8328 13.8212 19.3166 13.8212H14.759C14.0653 13.8212 13.5409 13.2153 13.6539 12.5368Z" fill="black"/>
<path d="M12.9605 37.8931C13.6542 38.4909 14.001 39.3633 14.001 40.4942C14.001 41.6332 13.6542 42.4975 12.9605 43.0953C12.2667 43.693 11.4117 43.9919 10.3792 43.9919C9.34667 43.9919 8.48356 43.693 7.7979 43.0953C7.10418 42.4975 6.75732 41.6251 6.75732 40.4942C6.75732 39.3552 7.10418 38.4909 7.7979 37.8931C8.49162 37.2954 9.34667 36.9965 10.3792 36.9965C11.4036 36.9965 12.2667 37.2954 12.9605 37.8931Z" fill="black"/>
<path d="M35.7079 15.8487H39.6121C40.1042 15.8487 40.5075 16.2526 40.5075 16.7454V32.481C40.5075 32.9737 40.1042 33.3776 39.6121 33.3776H35.7079C35.2159 33.3776 34.8126 32.9737 34.8126 32.481V28.0382C34.8126 27.5454 34.4092 27.1415 33.9172 27.1415H31.0052C30.5131 27.1415 30.1098 27.5454 30.1098 28.0382V32.481C30.1098 32.9737 29.7065 33.3776 29.2144 33.3776H25.286C24.794 33.3776 24.3906 32.9737 24.3906 32.481V16.7454C24.3906 16.2526 24.794 15.8487 25.286 15.8487H29.2144C29.7065 15.8487 30.1098 16.2526 30.1098 16.7454V21.1882C30.1098 21.6809 30.5131 22.0848 31.0052 22.0848H33.9172C34.4092 22.0848 34.8126 21.6809 34.8126 21.1882V16.7454C34.8126 16.2526 35.2159 15.8487 35.7079 15.8487Z" fill="black"/>
<path d="M67.9415 33.3776H63.9566C63.4807 33.3776 63.0854 32.9899 63.0854 32.5052V16.7211C63.0854 16.2445 63.4726 15.8487 63.9566 15.8487H67.4736C67.756 15.8487 68.0141 15.9861 68.1835 16.2122L72.0715 21.6648C72.5636 22.3595 73.6445 22.004 73.6445 21.1559C73.6445 21.1316 73.6445 21.1074 73.6445 21.0751V16.7131C73.6445 16.2365 74.0317 15.8407 74.5157 15.8407H78.5005C78.9765 15.8407 79.3717 16.2284 79.3717 16.7131V32.5052C79.3717 32.9818 78.9845 33.3776 78.5005 33.3776H74.9835C74.7012 33.3776 74.4431 33.2403 74.2737 33.0141L70.3856 27.5778C69.8936 26.8911 68.8127 27.2385 68.8127 28.0867C68.8127 28.0947 68.8127 28.1109 68.8127 28.119V32.5052C68.8127 32.9899 68.4255 33.3776 67.9415 33.3776Z" fill="black"/>
<path d="M86.8737 33.3776H82.8243C82.3645 33.3776 81.9854 33.0061 81.9854 32.5375V16.6888C81.9854 16.2284 82.3564 15.8487 82.8243 15.8487H86.8737C87.3334 15.8487 87.7126 16.2203 87.7126 16.6888V21.2286C87.7126 21.689 88.0836 22.0687 88.5515 22.0687H88.6644C88.971 22.0687 89.2452 21.9071 89.3904 21.6405L92.375 16.2849C92.5202 16.0184 92.8025 15.8568 93.101 15.8568H97.4166C98.07 15.8568 98.4652 16.5677 98.1264 17.125L93.8915 24.1124C93.7302 24.3789 93.7302 24.7182 93.8915 24.9848L98.2313 32.1175C98.5701 32.6749 98.1668 33.3857 97.5214 33.3857H93.1978C92.8993 33.3857 92.6251 33.2322 92.4799 32.9737L89.2775 27.5374C89.1242 27.2789 88.8499 27.1254 88.5596 27.1254C88.0998 27.1254 87.7206 27.497 87.7206 27.9655V32.5537C87.7045 33.0061 87.3334 33.3776 86.8737 33.3776Z" fill="black"/>
<path d="M54.9143 21.067C54.9143 21.2447 55.0111 21.3336 55.116 21.4628C55.358 21.7779 55.6081 22.2464 55.7613 22.6099C56.0195 23.2399 56.1646 23.9669 56.1646 24.6455C56.1646 25.0413 56.1082 25.4856 56.0114 25.8733C55.8581 26.5195 55.5435 27.2385 55.1402 27.7635C55.0273 27.9089 54.9063 28.022 54.9305 28.224C54.9547 28.4259 55.0999 28.5471 55.3015 28.5471C55.5193 28.5471 55.5919 28.4178 55.7049 28.2644C56.3744 27.3516 56.7374 26.4065 56.8745 25.2836C56.9148 24.904 56.9148 24.3143 56.8745 23.9346C56.7616 22.9976 56.4712 22.1494 55.963 21.3497C55.8743 21.2043 55.7775 21.0751 55.6726 20.9378C55.5274 20.7358 55.4871 20.6873 55.2289 20.6873C55.1725 20.6873 55.0434 20.76 55.0031 20.8004C54.9385 20.8731 54.9143 20.9781 54.9143 21.067ZM54.2771 21.6486C54.2287 21.6567 54.1319 21.689 54.0916 21.7213C54.0432 21.7617 54.0028 21.8182 53.9786 21.8748C53.9222 22.0202 53.9625 22.1575 54.0432 22.2787C54.1964 22.4968 54.3255 22.6987 54.4303 22.9411C54.995 24.1527 54.9143 25.5744 54.2126 26.7134C54.1803 26.77 54.148 26.8184 54.1077 26.875C54.0754 26.9234 54.027 26.98 54.0028 27.0284C53.8496 27.3112 54.0674 27.6343 54.39 27.5939C54.5433 27.5777 54.6159 27.4889 54.6965 27.3677C54.9224 27.0446 55.0999 26.7053 55.2451 26.3338C55.6887 25.1786 55.6565 23.9427 55.2047 22.8037C55.0918 22.5291 54.8337 22.0363 54.6401 21.794C54.5997 21.7455 54.5594 21.6971 54.4949 21.6728C54.4465 21.6486 54.3335 21.6405 54.2771 21.6486ZM53.2446 22.6826C53.059 22.7068 52.93 22.8764 52.93 23.0622C52.93 23.2238 53.0671 23.3934 53.1397 23.5469C53.3172 23.9427 53.3817 24.2658 53.3817 24.694C53.3817 25.0817 53.2768 25.4533 53.0994 25.8006C53.0106 25.9783 52.8896 26.0995 52.9542 26.3176C53.0106 26.4953 53.1962 26.6003 53.3817 26.5761C53.5753 26.5438 53.6479 26.3903 53.7366 26.2368C53.8173 26.0833 53.8899 25.9218 53.9544 25.7602C54.2206 25.0009 54.2126 24.1608 53.906 23.4096C53.8415 23.248 53.7608 23.0945 53.6802 22.9491C53.5753 22.7553 53.4543 22.6503 53.2446 22.6826ZM48.9855 22.828C48.8806 22.828 48.6789 22.8118 48.5902 22.8199C48.3401 22.828 48.0739 22.8199 47.8239 22.8199H47.5496C47.4448 22.8199 47.2834 22.8118 47.1947 22.8118C46.7672 22.8199 46.63 22.9007 46.6381 23.3853C46.6381 23.5065 46.6462 23.6438 46.6462 23.7569C46.6381 24.2012 46.6462 24.6697 46.6462 25.114V25.8249C46.6462 26.2691 46.7672 26.3822 47.227 26.3822H48.5983C48.687 26.3822 48.8967 26.3741 48.9774 26.3741C49.1871 26.3741 49.292 26.4065 49.4452 26.5519C49.5985 26.7053 49.6388 26.7296 49.784 26.8507C50.2277 27.2465 50.7117 27.6504 51.1634 28.0463C51.2763 28.1432 51.3973 28.2401 51.5103 28.3451C51.6393 28.4663 51.7361 28.5713 51.9297 28.5713C52.4057 28.5713 52.2927 28.0463 52.3008 27.6666V21.5517C52.3008 21.3336 52.3411 20.9539 52.2282 20.7924C52.083 20.5904 51.8007 20.6631 51.6313 20.7924C51.5748 20.8327 51.5183 20.8893 51.4619 20.9378C51.357 21.0347 51.236 21.1316 51.1311 21.2286C50.9133 21.4224 50.6875 21.6082 50.4697 21.8021C50.2519 21.996 50.026 22.1817 49.8082 22.3756C49.7518 22.4241 49.6953 22.4645 49.6388 22.5129C49.3968 22.6826 49.3565 22.836 48.9855 22.828ZM44.7667 31.1885C43.1292 29.4599 42.3145 27.2708 42.3145 24.6132C42.3145 21.9556 43.1292 19.7665 44.7667 18.0378C46.4042 16.3092 48.7112 15.4448 51.6958 15.4448C54.6804 15.4448 56.9955 16.3092 58.633 18.0378C60.2705 19.7665 61.0852 21.9556 61.0852 24.6132C61.0852 27.2708 60.2705 29.4599 58.633 31.1885C56.9955 32.9172 54.6885 33.7815 51.6958 33.7815C48.7112 33.7815 46.3961 32.9172 44.7667 31.1885Z" fill="black"/>
</g>
<defs>
<clipPath id="clip0_199_308">
<rect width="98" height="44" fill="black" transform="translate(0.344238)"/>
</clipPath>
</defs>
</svg>
